<?xml version="1.0" encoding="utf-8"?>
<svg xmlns="http://www.w3.org/2000/svg" xmlns:xlink="http://www.w3.org/1999/xlink" width="672" height="480" viewBox="0 0 2688 1920">
<defs>
  <clipPath id="clip320">
    <rect x="0" y="0" width="2688" height="1920"/>
  </clipPath>
</defs>
<path clip-path="url(#clip320)" d="M0 1920 L2688 1920 L2688 -4.26326e-14 L0 -4.26326e-14  Z" fill="#ffffff" fill-rule="evenodd" fill-opacity="1"/>
<defs>
  <clipPath id="clip321">
    <rect x="537" y="0" width="1883" height="1883"/>
  </clipPath>
</defs>
<path clip-path="url(#clip320)" d="M268.826 1734.12 L2640.76 1734.12 L2640.76 47.2441 L268.826 47.2441  Z" fill="#ffffff" fill-rule="evenodd" fill-opacity="1"/>
<defs>
  <clipPath id="clip322">
    <rect x="268" y="47" width="2373" height="1688"/>
  </clipPath>
</defs>
<polyline clip-path="url(#clip322)" style="stroke:#000000; stroke-linecap:round; stroke-linejoin:round; stroke-width:2; stroke-opacity:0.1; fill:none" points="335.956,1734.12 335.956,47.2441 "/>
<polyline clip-path="url(#clip322)" style="stroke:#000000; stroke-linecap:round; stroke-linejoin:round; stroke-width:2; stroke-opacity:0.1; fill:none" points="895.373,1734.12 895.373,47.2441 "/>
<polyline clip-path="url(#clip322)" style="stroke:#000000; stroke-linecap:round; stroke-linejoin:round; stroke-width:2; stroke-opacity:0.1; fill:none" points="1454.79,1734.12 1454.79,47.2441 "/>
<polyline clip-path="url(#clip322)" style="stroke:#000000; stroke-linecap:round; stroke-linejoin:round; stroke-width:2; stroke-opacity:0.1; fill:none" points="2014.21,1734.12 2014.21,47.2441 "/>
<polyline clip-path="url(#clip322)" style="stroke:#000000; stroke-linecap:round; stroke-linejoin:round; stroke-width:2; stroke-opacity:0.1; fill:none" points="2573.63,1734.12 2573.63,47.2441 "/>
<polyline clip-path="url(#clip322)" style="stroke:#000000; stroke-linecap:round; stroke-linejoin:round; stroke-width:2; stroke-opacity:0.1; fill:none" points="268.826,1686.38 2640.76,1686.38 "/>
<polyline clip-path="url(#clip322)" style="stroke:#000000; stroke-linecap:round; stroke-linejoin:round; stroke-width:2; stroke-opacity:0.1; fill:none" points="268.826,1286.53 2640.76,1286.53 "/>
<polyline clip-path="url(#clip322)" style="stroke:#000000; stroke-linecap:round; stroke-linejoin:round; stroke-width:2; stroke-opacity:0.1; fill:none" points="268.826,886.682 2640.76,886.682 "/>
<polyline clip-path="url(#clip322)" style="stroke:#000000; stroke-linecap:round; stroke-linejoin:round; stroke-width:2; stroke-opacity:0.1; fill:none" points="268.826,486.835 2640.76,486.835 "/>
<polyline clip-path="url(#clip322)" style="stroke:#000000; stroke-linecap:round; stroke-linejoin:round; stroke-width:2; stroke-opacity:0.1; fill:none" points="268.826,86.9888 2640.76,86.9888 "/>
<polyline clip-path="url(#clip320)" style="stroke:#000000; stroke-linecap:round; stroke-linejoin:round; stroke-width:4; stroke-opacity:1; fill:none" points="268.826,1734.12 2640.76,1734.12 "/>
<polyline clip-path="url(#clip320)" style="stroke:#000000; stroke-linecap:round; stroke-linejoin:round; stroke-width:4; stroke-opacity:1; fill:none" points="335.956,1734.12 335.956,1715.22 "/>
<polyline clip-path="url(#clip320)" style="stroke:#000000; stroke-linecap:round; stroke-linejoin:round; stroke-width:4; stroke-opacity:1; fill:none" points="895.373,1734.12 895.373,1715.22 "/>
<polyline clip-path="url(#clip320)" style="stroke:#000000; stroke-linecap:round; stroke-linejoin:round; stroke-width:4; stroke-opacity:1; fill:none" points="1454.79,1734.12 1454.79,1715.22 "/>
<polyline clip-path="url(#clip320)" style="stroke:#000000; stroke-linecap:round; stroke-linejoin:round; stroke-width:4; stroke-opacity:1; fill:none" points="2014.21,1734.12 2014.21,1715.22 "/>
<polyline clip-path="url(#clip320)" style="stroke:#000000; stroke-linecap:round; stroke-linejoin:round; stroke-width:4; stroke-opacity:1; fill:none" points="2573.63,1734.12 2573.63,1715.22 "/>
<path clip-path="url(#clip320)" d="M335.956 1767.34 Q332.345 1767.34 330.516 1770.9 Q328.71 1774.45 328.71 1781.58 Q328.71 1788.68 330.516 1792.25 Q332.345 1795.79 335.956 1795.79 Q339.59 1795.79 341.395 1792.25 Q343.224 1788.68 343.224 1781.58 Q343.224 1774.45 341.395 1770.9 Q339.59 1767.34 335.956 1767.34 M335.956 1763.64 Q341.766 1763.64 344.821 1768.24 Q347.9 1772.83 347.9 1781.58 Q347.9 1790.3 344.821 1794.91 Q341.766 1799.49 335.956 1799.49 Q330.145 1799.49 327.067 1794.91 Q324.011 1790.3 324.011 1781.58 Q324.011 1772.83 327.067 1768.24 Q330.145 1763.64 335.956 1763.64 Z" fill="#000000" fill-rule="nonzero" fill-opacity="1" /><path clip-path="url(#clip320)" d="M870.061 1794.89 L877.7 1794.89 L877.7 1768.52 L869.39 1770.19 L869.39 1765.93 L877.653 1764.26 L882.329 1764.26 L882.329 1794.89 L889.968 1794.89 L889.968 1798.82 L870.061 1798.82 L870.061 1794.89 Z" fill="#000000" fill-rule="nonzero" fill-opacity="1" /><path clip-path="url(#clip320)" d="M909.412 1767.34 Q905.801 1767.34 903.973 1770.9 Q902.167 1774.45 902.167 1781.58 Q902.167 1788.68 903.973 1792.25 Q905.801 1795.79 909.412 1795.79 Q913.047 1795.79 914.852 1792.25 Q916.681 1788.68 916.681 1781.58 Q916.681 1774.45 914.852 1770.9 Q913.047 1767.34 909.412 1767.34 M909.412 1763.64 Q915.223 1763.64 918.278 1768.24 Q921.357 1772.83 921.357 1781.58 Q921.357 1790.3 918.278 1794.91 Q915.223 1799.49 909.412 1799.49 Q903.602 1799.49 900.524 1794.91 Q897.468 1790.3 897.468 1781.58 Q897.468 1772.83 900.524 1768.24 Q903.602 1763.64 909.412 1763.64 Z" fill="#000000" fill-rule="nonzero" fill-opacity="1" /><path clip-path="url(#clip320)" d="M1433.56 1794.89 L1449.88 1794.89 L1449.88 1798.82 L1427.94 1798.82 L1427.94 1794.89 Q1430.6 1792.13 1435.18 1787.5 Q1439.79 1782.85 1440.97 1781.51 Q1443.22 1778.98 1444.1 1777.25 Q1445 1775.49 1445 1773.8 Q1445 1771.04 1443.05 1769.31 Q1441.13 1767.57 1438.03 1767.57 Q1435.83 1767.57 1433.38 1768.34 Q1430.95 1769.1 1428.17 1770.65 L1428.17 1765.93 Q1430.99 1764.79 1433.45 1764.21 Q1435.9 1763.64 1437.94 1763.64 Q1443.31 1763.64 1446.5 1766.32 Q1449.7 1769.01 1449.7 1773.5 Q1449.7 1775.63 1448.89 1777.55 Q1448.1 1779.45 1445.99 1782.04 Q1445.42 1782.71 1442.31 1785.93 Q1439.21 1789.12 1433.56 1794.89 Z" fill="#000000" fill-rule="nonzero" fill-opacity="1" /><path clip-path="url(#clip320)" d="M1469.7 1767.34 Q1466.09 1767.34 1464.26 1770.9 Q1462.45 1774.45 1462.45 1781.58 Q1462.45 1788.68 1464.26 1792.25 Q1466.09 1795.79 1469.7 1795.79 Q1473.33 1795.79 1475.14 1792.25 Q1476.97 1788.68 1476.97 1781.58 Q1476.97 1774.45 1475.14 1770.9 Q1473.33 1767.34 1469.7 1767.34 M1469.7 1763.64 Q1475.51 1763.64 1478.56 1768.24 Q1481.64 1772.83 1481.64 1781.58 Q1481.64 1790.3 1478.56 1794.91 Q1475.51 1799.49 1469.7 1799.49 Q1463.89 1799.49 1460.81 1794.91 Q1457.75 1790.3 1457.75 1781.58 Q1457.75 1772.83 1460.81 1768.24 Q1463.89 1763.64 1469.7 1763.64 Z" fill="#000000" fill-rule="nonzero" fill-opacity="1" /><path clip-path="url(#clip320)" d="M2003.05 1780.19 Q2006.41 1780.9 2008.28 1783.17 Q2010.18 1785.44 2010.18 1788.77 Q2010.18 1793.89 2006.66 1796.69 Q2003.14 1799.49 1996.66 1799.49 Q1994.49 1799.49 1992.17 1799.05 Q1989.88 1798.64 1987.43 1797.78 L1987.43 1793.27 Q1989.37 1794.4 1991.69 1794.98 Q1994 1795.56 1996.52 1795.56 Q2000.92 1795.56 2003.21 1793.82 Q2005.53 1792.08 2005.53 1788.77 Q2005.53 1785.72 2003.37 1784.01 Q2001.25 1782.27 1997.43 1782.27 L1993.4 1782.27 L1993.4 1778.43 L1997.61 1778.43 Q2001.06 1778.43 2002.89 1777.06 Q2004.72 1775.67 2004.72 1773.08 Q2004.72 1770.42 2002.82 1769.01 Q2000.94 1767.57 1997.43 1767.57 Q1995.5 1767.57 1993.31 1767.99 Q1991.11 1768.4 1988.47 1769.28 L1988.47 1765.12 Q1991.13 1764.38 1993.44 1764.01 Q1995.78 1763.64 1997.84 1763.64 Q2003.17 1763.64 2006.27 1766.07 Q2009.37 1768.47 2009.37 1772.59 Q2009.37 1775.46 2007.73 1777.46 Q2006.08 1779.42 2003.05 1780.19 Z" fill="#000000" fill-rule="nonzero" fill-opacity="1" /><path clip-path="url(#clip320)" d="M2029.05 1767.34 Q2025.44 1767.34 2023.61 1770.9 Q2021.8 1774.45 2021.8 1781.58 Q2021.8 1788.68 2023.61 1792.25 Q2025.44 1795.79 2029.05 1795.79 Q2032.68 1795.79 2034.49 1792.25 Q2036.31 1788.68 2036.31 1781.58 Q2036.31 1774.45 2034.49 1770.9 Q2032.68 1767.34 2029.05 1767.34 M2029.05 1763.64 Q2034.86 1763.64 2037.91 1768.24 Q2040.99 1772.83 2040.99 1781.58 Q2040.99 1790.3 2037.91 1794.91 Q2034.86 1799.49 2029.05 1799.49 Q2023.24 1799.49 2020.16 1794.91 Q2017.1 1790.3 2017.1 1781.58 Q2017.1 1772.83 2020.16 1768.24 Q2023.24 1763.64 2029.05 1763.64 Z" fill="#000000" fill-rule="nonzero" fill-opacity="1" /><path clip-path="url(#clip320)" d="M2561.8 1768.34 L2549.99 1786.78 L2561.8 1786.78 L2561.8 1768.34 M2560.57 1764.26 L2566.45 1764.26 L2566.45 1786.78 L2571.38 1786.78 L2571.38 1790.67 L2566.45 1790.67 L2566.45 1798.82 L2561.8 1798.82 L2561.8 1790.67 L2546.2 1790.67 L2546.2 1786.16 L2560.57 1764.26 Z" fill="#000000" fill-rule="nonzero" fill-opacity="1" /><path clip-path="url(#clip320)" d="M2589.11 1767.34 Q2585.5 1767.34 2583.67 1770.9 Q2581.87 1774.45 2581.87 1781.58 Q2581.87 1788.68 2583.67 1792.25 Q2585.5 1795.79 2589.11 1795.79 Q2592.75 1795.79 2594.55 1792.25 Q2596.38 1788.68 2596.38 1781.58 Q2596.38 1774.45 2594.55 1770.9 Q2592.75 1767.34 2589.11 1767.34 M2589.11 1763.64 Q2594.92 1763.64 2597.98 1768.24 Q2601.06 1772.83 2601.06 1781.58 Q2601.06 1790.3 2597.98 1794.91 Q2594.92 1799.49 2589.11 1799.49 Q2583.3 1799.49 2580.22 1794.91 Q2577.17 1790.3 2577.17 1781.58 Q2577.17 1772.83 2580.22 1768.24 Q2583.3 1763.64 2589.11 1763.64 Z" fill="#000000" fill-rule="nonzero" fill-opacity="1" /><path clip-path="url(#clip320)" d="M1376.67 1835.78 L1416.87 1835.78 L1416.87 1841.19 L1400 1841.19 L1400 1883.3 L1393.54 1883.3 L1393.54 1841.19 L1376.67 1841.19 L1376.67 1835.78 Z" fill="#000000" fill-rule="nonzero" fill-opacity="1" /><path clip-path="url(#clip320)" d="M1420.81 1847.65 L1426.67 1847.65 L1426.67 1883.3 L1420.81 1883.3 L1420.81 1847.65 M1420.81 1833.78 L1426.67 1833.78 L1426.67 1841.19 L1420.81 1841.19 L1420.81 1833.78 Z" fill="#000000" fill-rule="nonzero" fill-opacity="1" /><path clip-path="url(#clip320)" d="M1466.68 1854.5 Q1468.87 1850.55 1471.93 1848.67 Q1474.99 1846.79 1479.12 1846.79 Q1484.69 1846.79 1487.72 1850.71 Q1490.74 1854.59 1490.74 1861.78 L1490.74 1883.3 L1484.85 1883.3 L1484.85 1861.98 Q1484.85 1856.85 1483.04 1854.37 Q1481.22 1851.89 1477.5 1851.89 Q1472.95 1851.89 1470.31 1854.91 Q1467.67 1857.93 1467.67 1863.15 L1467.67 1883.3 L1461.78 1883.3 L1461.78 1861.98 Q1461.78 1856.82 1459.96 1854.37 Q1458.15 1851.89 1454.36 1851.89 Q1449.87 1851.89 1447.23 1854.94 Q1444.59 1857.97 1444.59 1863.15 L1444.59 1883.3 L1438.7 1883.3 L1438.7 1847.65 L1444.59 1847.65 L1444.59 1853.19 Q1446.59 1849.91 1449.4 1848.35 Q1452.2 1846.79 1456.05 1846.79 Q1459.93 1846.79 1462.64 1848.77 Q1465.37 1850.74 1466.68 1854.5 Z" fill="#000000" fill-rule="nonzero" fill-opacity="1" /><path clip-path="url(#clip320)" d="M1532.91 1864.01 L1532.91 1866.88 L1505.99 1866.88 Q1506.37 1872.92 1509.62 1876.11 Q1512.89 1879.26 1518.72 1879.26 Q1522.09 1879.26 1525.24 1878.43 Q1528.43 1877.6 1531.55 1875.95 L1531.55 1881.49 Q1528.39 1882.82 1525.08 1883.52 Q1521.77 1884.22 1518.37 1884.22 Q1509.84 1884.22 1504.84 1879.26 Q1499.88 1874.29 1499.88 1865.83 Q1499.88 1857.07 1504.59 1851.95 Q1509.33 1846.79 1517.35 1846.79 Q1524.54 1846.79 1528.71 1851.44 Q1532.91 1856.06 1532.91 1864.01 M1527.06 1862.29 Q1526.99 1857.49 1524.35 1854.62 Q1521.74 1851.76 1517.41 1851.76 Q1512.51 1851.76 1509.55 1854.53 Q1506.62 1857.3 1506.18 1862.33 L1527.06 1862.29 Z" fill="#000000" fill-rule="nonzero" fill-opacity="1" /><polyline clip-path="url(#clip320)" style="stroke:#000000; stroke-linecap:round; stroke-linejoin:round; stroke-width:4; stroke-opacity:1; fill:none" points="268.826,1734.12 268.826,47.2441 "/>
<polyline clip-path="url(#clip320)" style="stroke:#000000; stroke-linecap:round; stroke-linejoin:round; stroke-width:4; stroke-opacity:1; fill:none" points="268.826,1686.38 287.723,1686.38 "/>
<polyline clip-path="url(#clip320)" style="stroke:#000000; stroke-linecap:round; stroke-linejoin:round; stroke-width:4; stroke-opacity:1; fill:none" points="268.826,1286.53 287.723,1286.53 "/>
<polyline clip-path="url(#clip320)" style="stroke:#000000; stroke-linecap:round; stroke-linejoin:round; stroke-width:4; stroke-opacity:1; fill:none" points="268.826,886.682 287.723,886.682 "/>
<polyline clip-path="url(#clip320)" style="stroke:#000000; stroke-linecap:round; stroke-linejoin:round; stroke-width:4; stroke-opacity:1; fill:none" points="268.826,486.835 287.723,486.835 "/>
<polyline clip-path="url(#clip320)" style="stroke:#000000; stroke-linecap:round; stroke-linejoin:round; stroke-width:4; stroke-opacity:1; fill:none" points="268.826,86.9888 287.723,86.9888 "/>
<path clip-path="url(#clip320)" d="M216.561 1672.17 Q212.95 1672.17 211.121 1675.74 Q209.316 1679.28 209.316 1686.41 Q209.316 1693.52 211.121 1697.08 Q212.95 1700.62 216.561 1700.62 Q220.195 1700.62 222.001 1697.08 Q223.83 1693.52 223.83 1686.41 Q223.83 1679.28 222.001 1675.74 Q220.195 1672.17 216.561 1672.17 M216.561 1668.47 Q222.371 1668.47 225.427 1673.08 Q228.506 1677.66 228.506 1686.41 Q228.506 1695.14 225.427 1699.74 Q222.371 1704.33 216.561 1704.33 Q210.751 1704.33 207.672 1699.74 Q204.617 1695.14 204.617 1686.41 Q204.617 1677.66 207.672 1673.08 Q210.751 1668.47 216.561 1668.47 Z" fill="#000000" fill-rule="nonzero" fill-opacity="1" /><path clip-path="url(#clip320)" d="M150.265 1299.87 L166.585 1299.87 L166.585 1303.81 L144.64 1303.81 L144.64 1299.87 Q147.302 1297.12 151.886 1292.49 Q156.492 1287.84 157.673 1286.49 Q159.918 1283.97 160.798 1282.23 Q161.7 1280.48 161.7 1278.79 Q161.7 1276.03 159.756 1274.29 Q157.835 1272.56 154.733 1272.56 Q152.534 1272.56 150.08 1273.32 Q147.649 1274.09 144.872 1275.64 L144.872 1270.92 Q147.696 1269.78 150.149 1269.2 Q152.603 1268.62 154.64 1268.62 Q160.011 1268.62 163.205 1271.31 Q166.399 1273.99 166.399 1278.48 Q166.399 1280.61 165.589 1282.54 Q164.802 1284.43 162.696 1287.03 Q162.117 1287.7 159.015 1290.92 Q155.913 1294.11 150.265 1299.87 Z" fill="#000000" fill-rule="nonzero" fill-opacity="1" /><path clip-path="url(#clip320)" d="M176.446 1269.25 L194.802 1269.25 L194.802 1273.18 L180.728 1273.18 L180.728 1281.66 Q181.746 1281.31 182.765 1281.15 Q183.784 1280.96 184.802 1280.96 Q190.589 1280.96 193.969 1284.13 Q197.348 1287.3 197.348 1292.72 Q197.348 1298.3 193.876 1301.4 Q190.404 1304.48 184.084 1304.48 Q181.909 1304.48 179.64 1304.11 Q177.395 1303.74 174.987 1303 L174.987 1298.3 Q177.071 1299.43 179.293 1299.99 Q181.515 1300.54 183.992 1300.54 Q187.996 1300.54 190.334 1298.44 Q192.672 1296.33 192.672 1292.72 Q192.672 1289.11 190.334 1287 Q187.996 1284.9 183.992 1284.9 Q182.117 1284.9 180.242 1285.31 Q178.39 1285.73 176.446 1286.61 L176.446 1269.25 Z" fill="#000000" fill-rule="nonzero" fill-opacity="1" /><path clip-path="url(#clip320)" d="M216.561 1272.33 Q212.95 1272.33 211.121 1275.89 Q209.316 1279.43 209.316 1286.56 Q209.316 1293.67 211.121 1297.23 Q212.95 1300.78 216.561 1300.78 Q220.195 1300.78 222.001 1297.23 Q223.83 1293.67 223.83 1286.56 Q223.83 1279.43 222.001 1275.89 Q220.195 1272.33 216.561 1272.33 M216.561 1268.62 Q222.371 1268.62 225.427 1273.23 Q228.506 1277.81 228.506 1286.56 Q228.506 1295.29 225.427 1299.9 Q222.371 1304.48 216.561 1304.48 Q210.751 1304.48 207.672 1299.9 Q204.617 1295.29 204.617 1286.56 Q204.617 1277.81 207.672 1273.23 Q210.751 1268.62 216.561 1268.62 Z" fill="#000000" fill-rule="nonzero" fill-opacity="1" /><path clip-path="url(#clip320)" d="M146.284 869.402 L164.64 869.402 L164.64 873.337 L150.566 873.337 L150.566 881.809 Q151.585 881.462 152.603 881.3 Q153.622 881.115 154.64 881.115 Q160.427 881.115 163.807 884.286 Q167.186 887.458 167.186 892.874 Q167.186 898.453 163.714 901.555 Q160.242 904.633 153.923 904.633 Q151.747 904.633 149.478 904.263 Q147.233 903.893 144.825 903.152 L144.825 898.453 Q146.909 899.587 149.131 900.143 Q151.353 900.698 153.83 900.698 Q157.835 900.698 160.173 898.592 Q162.51 896.485 162.51 892.874 Q162.51 889.263 160.173 887.157 Q157.835 885.05 153.83 885.05 Q151.955 885.05 150.08 885.467 Q148.228 885.883 146.284 886.763 L146.284 869.402 Z" fill="#000000" fill-rule="nonzero" fill-opacity="1" /><path clip-path="url(#clip320)" d="M186.399 872.481 Q182.788 872.481 180.959 876.046 Q179.154 879.587 179.154 886.717 Q179.154 893.823 180.959 897.388 Q182.788 900.93 186.399 900.93 Q190.033 900.93 191.839 897.388 Q193.668 893.823 193.668 886.717 Q193.668 879.587 191.839 876.046 Q190.033 872.481 186.399 872.481 M186.399 868.777 Q192.209 868.777 195.265 873.384 Q198.344 877.967 198.344 886.717 Q198.344 895.444 195.265 900.05 Q192.209 904.633 186.399 904.633 Q180.589 904.633 177.51 900.05 Q174.455 895.444 174.455 886.717 Q174.455 877.967 177.51 873.384 Q180.589 868.777 186.399 868.777 Z" fill="#000000" fill-rule="nonzero" fill-opacity="1" /><path clip-path="url(#clip320)" d="M216.561 872.481 Q212.95 872.481 211.121 876.046 Q209.316 879.587 209.316 886.717 Q209.316 893.823 211.121 897.388 Q212.95 900.93 216.561 900.93 Q220.195 900.93 222.001 897.388 Q223.83 893.823 223.83 886.717 Q223.83 879.587 222.001 876.046 Q220.195 872.481 216.561 872.481 M216.561 868.777 Q222.371 868.777 225.427 873.384 Q228.506 877.967 228.506 886.717 Q228.506 895.444 225.427 900.05 Q222.371 904.633 216.561 904.633 Q210.751 904.633 207.672 900.05 Q204.617 895.444 204.617 886.717 Q204.617 877.967 207.672 873.384 Q210.751 868.777 216.561 868.777 Z" fill="#000000" fill-rule="nonzero" fill-opacity="1" /><path clip-path="url(#clip320)" d="M145.057 469.555 L167.279 469.555 L167.279 471.546 L154.733 504.115 L149.849 504.115 L161.654 473.491 L145.057 473.491 L145.057 469.555 Z" fill="#000000" fill-rule="nonzero" fill-opacity="1" /><path clip-path="url(#clip320)" d="M176.446 469.555 L194.802 469.555 L194.802 473.491 L180.728 473.491 L180.728 481.963 Q181.746 481.616 182.765 481.454 Q183.784 481.268 184.802 481.268 Q190.589 481.268 193.969 484.44 Q197.348 487.611 197.348 493.028 Q197.348 498.606 193.876 501.708 Q190.404 504.787 184.084 504.787 Q181.909 504.787 179.64 504.416 Q177.395 504.046 174.987 503.305 L174.987 498.606 Q177.071 499.74 179.293 500.296 Q181.515 500.852 183.992 500.852 Q187.996 500.852 190.334 498.745 Q192.672 496.639 192.672 493.028 Q192.672 489.416 190.334 487.31 Q187.996 485.204 183.992 485.204 Q182.117 485.204 180.242 485.62 Q178.39 486.037 176.446 486.916 L176.446 469.555 Z" fill="#000000" fill-rule="nonzero" fill-opacity="1" /><path clip-path="url(#clip320)" d="M216.561 472.634 Q212.95 472.634 211.121 476.199 Q209.316 479.741 209.316 486.87 Q209.316 493.977 211.121 497.541 Q212.95 501.083 216.561 501.083 Q220.195 501.083 222.001 497.541 Q223.83 493.977 223.83 486.87 Q223.83 479.741 222.001 476.199 Q220.195 472.634 216.561 472.634 M216.561 468.93 Q222.371 468.93 225.427 473.537 Q228.506 478.12 228.506 486.87 Q228.506 495.597 225.427 500.203 Q222.371 504.787 216.561 504.787 Q210.751 504.787 207.672 500.203 Q204.617 495.597 204.617 486.87 Q204.617 478.12 207.672 473.537 Q210.751 468.93 216.561 468.93 Z" fill="#000000" fill-rule="nonzero" fill-opacity="1" /><path clip-path="url(#clip320)" d="M116.886 100.334 L124.525 100.334 L124.525 73.9681 L116.214 75.6347 L116.214 71.3755 L124.478 69.7088 L129.154 69.7088 L129.154 100.334 L136.793 100.334 L136.793 104.269 L116.886 104.269 L116.886 100.334 Z" fill="#000000" fill-rule="nonzero" fill-opacity="1" /><path clip-path="url(#clip320)" d="M156.237 72.7875 Q152.626 72.7875 150.798 76.3523 Q148.992 79.894 148.992 87.0236 Q148.992 94.13 150.798 97.6948 Q152.626 101.236 156.237 101.236 Q159.872 101.236 161.677 97.6948 Q163.506 94.13 163.506 87.0236 Q163.506 79.894 161.677 76.3523 Q159.872 72.7875 156.237 72.7875 M156.237 69.0839 Q162.048 69.0839 165.103 73.6903 Q168.182 78.2736 168.182 87.0236 Q168.182 95.7504 165.103 100.357 Q162.048 104.94 156.237 104.94 Q150.427 104.94 147.349 100.357 Q144.293 95.7504 144.293 87.0236 Q144.293 78.2736 147.349 73.6903 Q150.427 69.0839 156.237 69.0839 Z" fill="#000000" fill-rule="nonzero" fill-opacity="1" /><path clip-path="url(#clip320)" d="M186.399 72.7875 Q182.788 72.7875 180.959 76.3523 Q179.154 79.894 179.154 87.0236 Q179.154 94.13 180.959 97.6948 Q182.788 101.236 186.399 101.236 Q190.033 101.236 191.839 97.6948 Q193.668 94.13 193.668 87.0236 Q193.668 79.894 191.839 76.3523 Q190.033 72.7875 186.399 72.7875 M186.399 69.0839 Q192.209 69.0839 195.265 73.6903 Q198.344 78.2736 198.344 87.0236 Q198.344 95.7504 195.265 100.357 Q192.209 104.94 186.399 104.94 Q180.589 104.94 177.51 100.357 Q174.455 95.7504 174.455 87.0236 Q174.455 78.2736 177.51 73.6903 Q180.589 69.0839 186.399 69.0839 Z" fill="#000000" fill-rule="nonzero" fill-opacity="1" /><path clip-path="url(#clip320)" d="M216.561 72.7875 Q212.95 72.7875 211.121 76.3523 Q209.316 79.894 209.316 87.0236 Q209.316 94.13 211.121 97.6948 Q212.95 101.236 216.561 101.236 Q220.195 101.236 222.001 97.6948 Q223.83 94.13 223.83 87.0236 Q223.83 79.894 222.001 76.3523 Q220.195 72.7875 216.561 72.7875 M216.561 69.0839 Q222.371 69.0839 225.427 73.6903 Q228.506 78.2736 228.506 87.0236 Q228.506 95.7504 225.427 100.357 Q222.371 104.94 216.561 104.94 Q210.751 104.94 207.672 100.357 Q204.617 95.7504 204.617 87.0236 Q204.617 78.2736 207.672 73.6903 Q210.751 69.0839 216.561 69.0839 Z" fill="#000000" fill-rule="nonzero" fill-opacity="1" /><path clip-path="url(#clip320)" d="M14.1184 1018.41 L14.1184 1009.75 L53.8723 988.681 L14.1184 988.681 L14.1184 982.442 L61.6384 982.442 L61.6384 991.1 L21.8846 1012.17 L61.6384 1012.17 L61.6384 1018.41 L14.1184 1018.41 Z" fill="#000000" fill-rule="nonzero" fill-opacity="1" /><path clip-path="url(#clip320)" d="M47.5702 970.507 L25.9905 970.507 L25.9905 964.65 L47.3474 964.65 Q52.4082 964.65 54.9545 962.677 Q57.4689 960.703 57.4689 956.757 Q57.4689 952.014 54.4452 949.277 Q51.4215 946.508 46.2016 946.508 L25.9905 946.508 L25.9905 940.651 L61.6384 940.651 L61.6384 946.508 L56.1639 946.508 Q59.4104 948.64 61.0019 951.473 Q62.5615 954.274 62.5615 957.998 Q62.5615 964.141 58.742 967.324 Q54.9226 970.507 47.5702 970.507 M25.1311 955.77 L25.1311 955.77 Z" fill="#000000" fill-rule="nonzero" fill-opacity="1" /><path clip-path="url(#clip320)" d="M32.8336 900.834 Q28.8869 898.638 27.009 895.582 Q25.1311 892.527 25.1311 888.389 Q25.1311 882.819 29.046 879.795 Q32.9291 876.771 40.1224 876.771 L61.6384 876.771 L61.6384 882.66 L40.3133 882.66 Q35.1889 882.66 32.7063 884.474 Q30.2237 886.288 30.2237 890.012 Q30.2237 894.564 33.2474 897.205 Q36.2711 899.847 41.491 899.847 L61.6384 899.847 L61.6384 905.735 L40.3133 905.735 Q35.1571 905.735 32.7063 907.55 Q30.2237 909.364 30.2237 913.151 Q30.2237 917.639 33.2792 920.281 Q36.3029 922.923 41.491 922.923 L61.6384 922.923 L61.6384 928.811 L25.9905 928.811 L25.9905 922.923 L31.5287 922.923 Q28.2503 920.918 26.6907 918.117 Q25.1311 915.316 25.1311 911.465 Q25.1311 907.581 27.1045 904.876 Q29.0779 902.139 32.8336 900.834 Z" fill="#000000" fill-rule="nonzero" fill-opacity="1" /><path clip-path="url(#clip320)" d="M43.8463 839.5 Q37.3851 839.5 33.7248 842.174 Q30.0327 844.816 30.0327 849.463 Q30.0327 854.11 33.7248 856.783 Q37.3851 859.425 43.8463 859.425 Q50.3075 859.425 53.9996 856.783 Q57.6599 854.11 57.6599 849.463 Q57.6599 844.816 53.9996 842.174 Q50.3075 839.5 43.8463 839.5 M31.4013 859.425 Q28.2185 857.579 26.6907 854.778 Q25.1311 851.945 25.1311 848.03 Q25.1311 841.537 30.2873 837.495 Q35.4436 833.421 43.8463 833.421 Q52.249 833.421 57.4052 837.495 Q62.5615 841.537 62.5615 848.03 Q62.5615 851.945 61.0337 854.778 Q59.4741 857.579 56.2912 859.425 L61.6384 859.425 L61.6384 865.313 L12.1132 865.313 L12.1132 859.425 L31.4013 859.425 Z" fill="#000000" fill-rule="nonzero" fill-opacity="1" /><path clip-path="url(#clip320)" d="M42.3504 793.222 L45.2149 793.222 L45.2149 820.149 Q51.2623 819.767 54.4452 816.52 Q57.5962 813.242 57.5962 807.417 Q57.5962 804.043 56.7687 800.892 Q55.9411 797.709 54.2861 794.59 L59.8242 794.59 Q61.161 797.741 61.8612 801.051 Q62.5615 804.362 62.5615 807.767 Q62.5615 816.297 57.5962 821.294 Q52.631 826.26 44.1646 826.26 Q35.4117 826.26 30.2873 821.549 Q25.1311 816.807 25.1311 808.786 Q25.1311 801.592 29.7781 797.423 Q34.3932 793.222 42.3504 793.222 M40.6316 799.078 Q35.8255 799.142 32.9609 801.783 Q30.0964 804.393 30.0964 808.722 Q30.0964 813.624 32.8654 816.584 Q35.6345 819.512 40.6634 819.958 L40.6316 799.078 Z" fill="#000000" fill-rule="nonzero" fill-opacity="1" /><path clip-path="url(#clip320)" d="M31.465 762.953 Q30.8921 763.939 30.6375 765.117 Q30.351 766.263 30.351 767.663 Q30.351 772.629 33.5975 775.302 Q36.8122 777.944 42.8596 777.944 L61.6384 777.944 L61.6384 783.832 L25.9905 783.832 L25.9905 777.944 L31.5287 777.944 Q28.2821 776.098 26.7225 773.138 Q25.1311 770.178 25.1311 765.945 Q25.1311 765.34 25.2266 764.608 Q25.2903 763.876 25.4494 762.984 L31.465 762.953 Z" fill="#000000" fill-rule="nonzero" fill-opacity="1" /><polyline clip-path="url(#clip322)" style="stroke:#009af9; stroke-linecap:round; stroke-linejoin:round; stroke-width:4; stroke-opacity:1; fill:none" points="335.956,94.9858 341.55,94.9858 347.144,94.9858 352.738,98.1846 358.332,99.7839 363.926,99.7839 369.521,99.7839 375.115,102.983 380.709,104.582 386.303,104.582 391.897,106.181 397.492,106.181 403.086,106.181 408.68,106.181 414.274,106.181 419.868,107.781 425.462,107.781 431.057,109.38 436.651,109.38 442.245,109.38 447.839,109.38 453.433,109.38 459.027,110.98 464.622,110.98 470.216,112.579 475.81,112.579 481.404,114.178 486.998,115.778 492.593,117.377 498.187,117.377 503.781,118.977 509.375,118.977 514.969,120.576 520.563,120.576 526.158,120.576 531.752,120.576 537.346,122.175 542.94,122.175 548.534,122.175 554.128,122.175 559.723,122.175 565.317,122.175 570.911,122.175 576.505,122.175 582.099,122.175 587.694,122.175 593.288,122.175 598.882,125.374 604.476,125.374 610.07,125.374 615.664,125.374 621.259,125.374 626.853,126.974 632.447,126.974 638.041,126.974 643.635,126.974 649.229,128.573 654.824,130.172 660.418,130.172 666.012,131.772 671.606,133.371 677.2,133.371 682.794,133.371 688.389,134.97 693.983,138.169 699.577,138.169 705.171,138.169 710.765,139.769 716.36,141.368 721.954,144.567 727.548,146.166 733.142,147.766 738.736,147.766 744.33,147.766 749.925,147.766 755.519,147.766 761.113,147.766 766.707,147.766 772.301,152.564 777.895,158.961 783.49,160.561 789.084,162.16 794.678,162.16 800.272,163.759 805.866,163.759 811.461,163.759 817.055,165.359 822.649,168.558 828.243,173.356 833.837,174.955 839.431,176.554 845.026,176.554 850.62,179.753 856.214,181.353 861.808,186.151 867.402,192.548 872.996,194.148 878.591,197.347 884.185,203.744 889.779,208.542 895.373,213.34 900.967,216.539 906.562,218.139 912.156,221.337 917.75,222.937 923.344,227.735 928.938,230.934 934.532,232.533 940.127,245.328 945.721,256.524 951.315,258.123 956.909,261.322 962.503,267.72 968.097,270.918 973.692,282.114 979.286,285.313 984.88,288.512 990.474,293.31 996.068,307.704 1001.66,312.502 1007.26,318.9 1012.85,330.096 1018.45,334.894 1024.04,346.089 1029.63,362.083 1035.23,370.08 1040.82,379.677 1046.42,382.875 1052.01,390.872 1057.6,394.071 1063.2,402.068 1068.79,411.664 1074.39,414.863 1079.98,419.661 1085.58,426.059 1091.17,430.857 1096.76,435.655 1102.36,446.851 1107.95,456.447 1113.55,462.845 1119.14,470.842 1124.73,472.441 1130.33,475.64 1135.92,478.839 1141.52,480.438 1147.11,486.835 1152.71,491.634 1158.3,494.832 1163.89,504.429 1169.49,510.826 1175.08,515.624 1180.68,520.423 1186.27,525.221 1191.86,530.019 1197.46,541.215 1203.05,544.413 1208.65,557.208 1214.24,565.205 1219.84,574.802 1225.43,581.199 1231.02,584.398 1236.62,590.796 1242.21,601.991 1247.81,616.386 1253.4,624.383 1258.99,629.181 1264.59,643.575 1270.18,649.973 1275.78,662.768 1281.37,672.364 1286.97,683.56 1292.56,686.759 1298.15,693.156 1303.75,702.753 1309.34,705.951 1314.94,712.349 1320.53,718.746 1326.12,726.743 1331.72,734.74 1337.31,742.737 1342.91,747.535 1348.5,755.532 1354.1,763.529 1359.69,768.327 1365.28,773.126 1370.88,776.324 1376.47,779.523 1382.07,781.123 1387.66,784.321 1393.25,792.318 1398.85,793.918 1404.44,797.116 1410.04,801.915 1415.63,813.11 1421.23,819.508 1426.82,821.107 1432.41,835.502 1438.01,840.3 1443.6,845.098 1449.2,849.896 1454.79,857.893 1460.38,861.092 1465.98,865.89 1471.57,873.887 1477.17,883.483 1482.76,886.682 1488.36,889.881 1493.95,896.278 1499.54,902.676 1505.14,907.474 1510.73,910.673 1516.33,913.872 1521.92,915.471 1527.51,918.67 1533.11,928.266 1538.7,936.263 1544.3,942.661 1549.89,945.859 1555.49,953.856 1561.08,961.853 1566.67,971.45 1572.27,981.046 1577.86,990.642 1583.46,993.841 1589.05,998.639 1594.65,1008.24 1600.24,1013.03 1605.83,1022.63 1611.43,1030.63 1617.02,1032.23 1622.62,1035.43 1628.21,1041.82 1633.8,1051.42 1639.4,1057.82 1644.99,1059.42 1650.59,1061.02 1656.18,1069.01 1661.78,1073.81 1667.37,1078.61 1672.96,1081.81 1678.56,1086.61 1684.15,1091.4 1689.75,1096.2 1695.34,1101 1700.93,1110.6 1706.53,1113.79 1712.12,1118.59 1717.72,1124.99 1723.31,1128.19 1728.91,1128.19 1734.5,1136.19 1740.09,1139.39 1745.69,1142.58 1751.28,1142.58 1756.88,1145.78 1762.47,1150.58 1768.06,1156.98 1773.66,1158.58 1779.25,1158.58 1784.85,1163.38 1790.44,1166.57 1796.04,1166.57 1801.63,1166.57 1807.22,1171.37 1812.82,1176.17 1818.41,1176.17 1824.01,1180.97 1829.6,1184.17 1835.19,1185.77 1840.79,1187.37 1846.38,1192.16 1851.98,1193.76 1857.57,1193.76 1863.17,1195.36 1868.76,1195.36 1874.35,1196.96 1879.95,1198.56 1885.54,1200.16 1891.14,1200.16 1896.73,1203.36 1902.32,1203.36 1907.92,1206.56 1913.51,1209.76 1919.11,1212.96 1924.7,1212.96 1930.3,1217.76 1935.89,1219.35 1941.48,1220.95 1947.08,1224.15 1952.67,1230.55 1958.27,1230.55 1963.86,1232.15 1969.45,1232.15 1975.05,1235.35 1980.64,1235.35 1986.24,1238.55 1991.83,1238.55 1997.43,1238.55 2003.02,1240.15 2008.61,1240.15 2014.21,1241.75 2019.8,1244.94 2025.4,1244.94 2030.99,1246.54 2036.58,1248.14 2042.18,1249.74 2047.77,1249.74 2053.37,1249.74 2058.96,1249.74 2064.56,1251.34 2070.15,1254.54 2075.74,1254.54 2081.34,1256.14 2086.93,1257.74 2092.53,1257.74 2098.12,1260.94 2103.72,1260.94 2109.31,1260.94 2114.9,1264.14 2120.5,1264.14 2126.09,1265.74 2131.69,1265.74 2137.28,1265.74 2142.87,1265.74 2148.47,1267.34 2154.06,1268.94 2159.66,1268.94 2165.25,1268.94 2170.85,1268.94 2176.44,1270.53 2182.03,1270.53 2187.63,1270.53 2193.22,1272.13 2198.82,1272.13 2204.41,1272.13 2210,1272.13 2215.6,1272.13 2221.19,1273.73 2226.79,1273.73 2232.38,1275.33 2237.98,1275.33 2243.57,1275.33 2249.16,1275.33 2254.76,1275.33 2260.35,1276.93 2265.95,1276.93 2271.54,1276.93 2277.13,1278.53 2282.73,1280.13 2288.32,1280.13 2293.92,1280.13 2299.51,1280.13 2305.11,1280.13 2310.7,1280.13 2316.29,1281.73 2321.89,1281.73 2327.48,1281.73 2333.08,1281.73 2338.67,1283.33 2344.26,1283.33 2349.86,1284.93 2355.45,1284.93 2361.05,1284.93 2366.64,1288.13 2372.24,1288.13 2377.83,1288.13 2383.42,1289.73 2389.02,1291.33 2394.61,1291.33 2400.21,1291.33 2405.8,1291.33 2411.39,1291.33 2416.99,1291.33 2422.58,1291.33 2428.18,1291.33 2433.77,1292.93 2439.37,1292.93 2444.96,1292.93 2450.55,1292.93 2456.15,1294.53 2461.74,1294.53 2467.34,1294.53 2472.93,1296.13 2478.52,1299.32 2484.12,1299.32 2489.71,1299.32 2495.31,1302.52 2500.9,1305.72 2506.5,1305.72 2512.09,1307.32 2517.68,1307.32 2523.28,1307.32 2528.87,1307.32 2534.47,1307.32 2540.06,1307.32 2545.65,1307.32 2551.25,1307.32 2556.84,1307.32 2562.44,1307.32 2568.03,1307.32 2573.63,1308.92 "/>
<polyline clip-path="url(#clip322)" style="stroke:#e26f46; stroke-linecap:round; stroke-linejoin:round; stroke-width:4; stroke-opacity:1; fill:none" points="335.956,1678.38 341.55,1678.38 347.144,1678.38 352.738,1675.18 358.332,1673.58 363.926,1673.58 369.521,1673.58 375.115,1670.38 380.709,1668.78 386.303,1668.78 391.897,1667.18 397.492,1668.78 403.086,1671.98 408.68,1671.98 414.274,1671.98 419.868,1670.38 425.462,1670.38 431.057,1668.78 436.651,1668.78 442.245,1668.78 447.839,1668.78 453.433,1670.38 459.027,1670.38 464.622,1670.38 470.216,1668.78 475.81,1668.78 481.404,1668.78 486.998,1667.18 492.593,1665.58 498.187,1667.18 503.781,1668.78 509.375,1668.78 514.969,1667.18 520.563,1668.78 526.158,1668.78 531.752,1668.78 537.346,1667.18 542.94,1668.78 548.534,1668.78 554.128,1670.38 559.723,1673.58 565.317,1673.58 570.911,1675.18 576.505,1675.18 582.099,1675.18 587.694,1675.18 593.288,1675.18 598.882,1671.98 604.476,1675.18 610.07,1675.18 615.664,1675.18 621.259,1676.78 626.853,1675.18 632.447,1675.18 638.041,1675.18 643.635,1675.18 649.229,1673.58 654.824,1671.98 660.418,1671.98 666.012,1670.38 671.606,1668.78 677.2,1668.78 682.794,1668.78 688.389,1667.18 693.983,1663.98 699.577,1663.98 705.171,1663.98 710.765,1662.38 716.36,1660.79 721.954,1657.59 727.548,1655.99 733.142,1654.39 738.736,1655.99 744.33,1655.99 749.925,1655.99 755.519,1657.59 761.113,1659.19 766.707,1659.19 772.301,1654.39 777.895,1647.99 783.49,1646.39 789.084,1644.79 794.678,1646.39 800.272,1646.39 805.866,1647.99 811.461,1647.99 817.055,1646.39 822.649,1644.79 828.243,1643.19 833.837,1643.19 839.431,1641.59 845.026,1641.59 850.62,1641.59 856.214,1639.99 861.808,1636.79 867.402,1630.4 872.996,1628.8 878.591,1630.4 884.185,1627.2 889.779,1622.4 895.373,1619.2 900.967,1616 906.562,1614.4 912.156,1616 917.75,1614.4 923.344,1611.2 928.938,1612.8 934.532,1614.4 940.127,1603.21 945.721,1592.01 951.315,1590.41 956.909,1587.21 962.503,1584.01 968.097,1580.82 973.692,1572.82 979.286,1571.22 984.88,1568.02 990.474,1563.22 996.068,1550.43 1001.66,1550.43 1007.26,1548.83 1012.85,1539.23 1018.45,1542.43 1024.04,1534.43 1029.63,1521.64 1035.23,1524.84 1040.82,1516.84 1046.42,1523.24 1052.01,1518.44 1057.6,1520.04 1063.2,1512.04 1068.79,1505.64 1074.39,1507.24 1079.98,1505.64 1085.58,1502.45 1091.17,1500.85 1096.76,1497.65 1102.36,1488.05 1107.95,1486.45 1113.55,1489.65 1119.14,1483.25 1124.73,1488.05 1130.33,1488.05 1135.92,1491.25 1141.52,1496.05 1147.11,1496.05 1152.71,1494.45 1158.3,1504.05 1163.89,1496.05 1169.49,1491.25 1175.08,1496.05 1180.68,1496.05 1186.27,1496.05 1191.86,1492.85 1197.46,1486.45 1203.05,1484.85 1208.65,1476.86 1214.24,1476.86 1219.84,1472.06 1225.43,1468.86 1231.02,1472.06 1236.62,1470.46 1242.21,1467.26 1247.81,1464.06 1253.4,1462.46 1258.99,1464.06 1264.59,1456.06 1270.18,1460.86 1275.78,1454.46 1281.37,1452.86 1286.97,1446.47 1292.56,1446.47 1298.15,1452.86 1303.75,1452.86 1309.34,1456.06 1314.94,1462.46 1320.53,1460.86 1326.12,1460.86 1331.72,1457.66 1337.31,1456.06 1342.91,1456.06 1348.5,1454.46 1354.1,1452.86 1359.69,1451.27 1365.28,1451.27 1370.88,1451.27 1376.47,1457.66 1382.07,1459.26 1387.66,1460.86 1393.25,1456.06 1398.85,1462.46 1404.44,1470.46 1410.04,1467.26 1415.63,1459.26 1421.23,1462.46 1426.82,1464.06 1432.41,1457.66 1438.01,1452.86 1443.6,1454.46 1449.2,1452.86 1454.79,1449.67 1460.38,1454.46 1465.98,1454.46 1471.57,1451.27 1477.17,1443.27 1482.76,1443.27 1488.36,1444.87 1493.95,1441.67 1499.54,1444.87 1505.14,1444.87 1510.73,1444.87 1516.33,1443.27 1521.92,1446.47 1527.51,1449.67 1533.11,1448.07 1538.7,1448.07 1544.3,1449.67 1549.89,1456.06 1555.49,1457.66 1561.08,1454.46 1566.67,1451.27 1572.27,1444.87 1577.86,1444.87 1583.46,1444.87 1589.05,1448.07 1594.65,1446.47 1600.24,1444.87 1605.83,1443.27 1611.43,1440.07 1617.02,1441.67 1622.62,1440.07 1628.21,1436.87 1633.8,1436.87 1639.4,1433.67 1644.99,1438.47 1650.59,1444.87 1656.18,1438.47 1661.78,1448.07 1667.37,1451.27 1672.96,1462.46 1678.56,1460.86 1684.15,1460.86 1689.75,1460.86 1695.34,1459.26 1700.93,1454.46 1706.53,1457.66 1712.12,1460.86 1717.72,1460.86 1723.31,1470.46 1728.91,1475.26 1734.5,1470.46 1740.09,1473.66 1745.69,1473.66 1751.28,1480.05 1756.88,1480.05 1762.47,1480.05 1768.06,1480.05 1773.66,1483.25 1779.25,1489.65 1784.85,1492.85 1790.44,1492.85 1796.04,1496.05 1801.63,1499.25 1807.22,1499.25 1812.82,1504.05 1818.41,1505.64 1824.01,1508.84 1829.6,1510.44 1835.19,1512.04 1840.79,1516.84 1846.38,1515.24 1851.98,1523.24 1857.57,1524.84 1863.17,1523.24 1868.76,1526.44 1874.35,1529.64 1879.95,1528.04 1885.54,1534.43 1891.14,1536.03 1896.73,1532.83 1902.32,1536.03 1907.92,1536.03 1913.51,1534.43 1919.11,1537.63 1924.7,1544.03 1930.3,1542.43 1935.89,1544.03 1941.48,1545.63 1947.08,1542.43 1952.67,1537.63 1958.27,1539.23 1963.86,1539.23 1969.45,1545.63 1975.05,1545.63 1980.64,1547.23 1986.24,1548.83 1991.83,1555.23 1997.43,1558.42 2003.02,1563.22 2008.61,1566.42 2014.21,1564.82 2019.8,1564.82 2025.4,1569.62 2030.99,1569.62 2036.58,1569.62 2042.18,1571.22 2047.77,1574.42 2053.37,1579.22 2058.96,1582.42 2064.56,1584.01 2070.15,1585.61 2075.74,1587.21 2081.34,1590.41 2086.93,1590.41 2092.53,1598.41 2098.12,1598.41 2103.72,1598.41 2109.31,1601.61 2114.9,1601.61 2120.5,1606.41 2126.09,1606.41 2131.69,1608.01 2137.28,1609.6 2142.87,1612.8 2148.47,1619.2 2154.06,1620.8 2159.66,1620.8 2165.25,1620.8 2170.85,1622.4 2176.44,1620.8 2182.03,1620.8 2187.63,1624 2193.22,1624 2198.82,1625.6 2204.41,1625.6 2210,1625.6 2215.6,1625.6 2221.19,1628.8 2226.79,1628.8 2232.38,1627.2 2237.98,1627.2 2243.57,1628.8 2249.16,1633.6 2254.76,1635.19 2260.35,1633.6 2265.95,1633.6 2271.54,1635.19 2277.13,1633.6 2282.73,1632 2288.32,1632 2293.92,1633.6 2299.51,1635.19 2305.11,1636.79 2310.7,1638.39 2316.29,1636.79 2321.89,1638.39 2327.48,1641.59 2333.08,1644.79 2338.67,1643.19 2344.26,1644.79 2349.86,1643.19 2355.45,1643.19 2361.05,1643.19 2366.64,1641.59 2372.24,1641.59 2377.83,1643.19 2383.42,1643.19 2389.02,1643.19 2394.61,1644.79 2400.21,1644.79 2405.8,1644.79 2411.39,1644.79 2416.99,1644.79 2422.58,1646.39 2428.18,1647.99 2433.77,1647.99 2439.37,1647.99 2444.96,1649.59 2450.55,1649.59 2456.15,1647.99 2461.74,1647.99 2467.34,1647.99 2472.93,1646.39 2478.52,1643.19 2484.12,1643.19 2489.71,1643.19 2495.31,1639.99 2500.9,1638.39 2506.5,1641.59 2512.09,1643.19 2517.68,1646.39 2523.28,1646.39 2528.87,1646.39 2534.47,1649.59 2540.06,1651.19 2545.65,1652.79 2551.25,1654.39 2556.84,1655.99 2562.44,1657.59 2568.03,1659.19 2573.63,1659.19 "/>
<polyline clip-path="url(#clip322)" style="stroke:#3da44d; stroke-linecap:round; stroke-linejoin:round; stroke-width:4; stroke-opacity:1; fill:none" points="335.956,1686.38 341.55,1686.38 347.144,1686.38 352.738,1686.38 358.332,1686.38 363.926,1686.38 369.521,1686.38 375.115,1686.38 380.709,1686.38 386.303,1686.38 391.897,1686.38 397.492,1684.78 403.086,1681.58 408.68,1681.58 414.274,1681.58 419.868,1681.58 425.462,1681.58 431.057,1681.58 436.651,1681.58 442.245,1681.58 447.839,1681.58 453.433,1679.98 459.027,1678.38 464.622,1678.38 470.216,1678.38 475.81,1678.38 481.404,1676.78 486.998,1676.78 492.593,1676.78 498.187,1675.18 503.781,1671.98 509.375,1671.98 514.969,1671.98 520.563,1670.38 526.158,1670.38 531.752,1670.38 537.346,1670.38 542.94,1668.78 548.534,1668.78 554.128,1667.18 559.723,1663.98 565.317,1663.98 570.911,1662.38 576.505,1662.38 582.099,1662.38 587.694,1662.38 593.288,1662.38 598.882,1662.38 604.476,1659.19 610.07,1659.19 615.664,1659.19 621.259,1657.59 626.853,1657.59 632.447,1657.59 638.041,1657.59 643.635,1657.59 649.229,1657.59 654.824,1657.59 660.418,1657.59 666.012,1657.59 671.606,1657.59 677.2,1657.59 682.794,1657.59 688.389,1657.59 693.983,1657.59 699.577,1657.59 705.171,1657.59 710.765,1657.59 716.36,1657.59 721.954,1657.59 727.548,1657.59 733.142,1657.59 738.736,1655.99 744.33,1655.99 749.925,1655.99 755.519,1654.39 761.113,1652.79 766.707,1652.79 772.301,1652.79 777.895,1652.79 783.49,1652.79 789.084,1652.79 794.678,1651.19 800.272,1649.59 805.866,1647.99 811.461,1647.99 817.055,1647.99 822.649,1646.39 828.243,1643.19 833.837,1641.59 839.431,1641.59 845.026,1641.59 850.62,1638.39 856.214,1638.39 861.808,1636.79 867.402,1636.79 872.996,1636.79 878.591,1632 884.185,1628.8 889.779,1628.8 895.373,1627.2 900.967,1627.2 906.562,1627.2 912.156,1622.4 917.75,1622.4 923.344,1620.8 928.938,1616 934.532,1612.8 940.127,1611.2 945.721,1611.2 951.315,1611.2 956.909,1611.2 962.503,1608.01 968.097,1608.01 973.692,1604.81 979.286,1603.21 984.88,1603.21 990.474,1603.21 996.068,1601.61 1001.66,1596.81 1007.26,1592.01 1012.85,1590.41 1018.45,1582.42 1024.04,1579.22 1029.63,1576.02 1035.23,1564.82 1040.82,1563.22 1046.42,1553.63 1052.01,1550.43 1057.6,1545.63 1063.2,1545.63 1068.79,1542.43 1074.39,1537.63 1079.98,1534.43 1085.58,1531.23 1091.17,1528.04 1096.76,1526.44 1102.36,1524.84 1107.95,1516.84 1113.55,1507.24 1119.14,1505.64 1124.73,1499.25 1130.33,1496.05 1135.92,1489.65 1141.52,1483.25 1147.11,1476.86 1152.71,1473.66 1158.3,1460.86 1163.89,1459.26 1169.49,1457.66 1175.08,1448.07 1180.68,1443.27 1186.27,1438.47 1191.86,1436.87 1197.46,1432.07 1203.05,1430.47 1208.65,1425.68 1214.24,1417.68 1219.84,1412.88 1225.43,1409.68 1231.02,1403.28 1236.62,1398.49 1242.21,1390.49 1247.81,1379.29 1253.4,1372.9 1258.99,1366.5 1264.59,1360.1 1270.18,1348.9 1275.78,1342.51 1281.37,1334.51 1286.97,1329.71 1292.56,1326.51 1298.15,1313.72 1303.75,1304.12 1309.34,1297.72 1314.94,1284.93 1320.53,1280.13 1326.12,1272.13 1331.72,1267.34 1337.31,1260.94 1342.91,1256.14 1348.5,1249.74 1354.1,1243.35 1359.69,1240.15 1365.28,1235.35 1370.88,1232.15 1376.47,1222.55 1382.07,1219.35 1387.66,1214.56 1393.25,1211.36 1398.85,1203.36 1404.44,1192.16 1410.04,1190.57 1415.63,1187.37 1421.23,1177.77 1426.82,1174.57 1432.41,1166.57 1438.01,1166.57 1443.6,1160.18 1449.2,1156.98 1454.79,1152.18 1460.38,1144.18 1465.98,1139.39 1471.57,1134.59 1477.17,1132.99 1482.76,1129.79 1488.36,1124.99 1493.95,1121.79 1499.54,1112.2 1505.14,1107.4 1510.73,1104.2 1516.33,1102.6 1521.92,1097.8 1527.51,1091.4 1533.11,1083.41 1538.7,1075.41 1544.3,1067.41 1549.89,1057.82 1555.49,1048.22 1561.08,1043.42 1566.67,1037.02 1572.27,1033.83 1577.86,1024.23 1583.46,1021.03 1589.05,1013.03 1594.65,1005.04 1600.24,1001.84 1605.83,993.841 1611.43,989.043 1617.02,985.844 1622.62,984.245 1628.21,981.046 1633.8,971.45 1639.4,968.251 1644.99,961.853 1650.59,953.856 1656.18,952.257 1661.78,937.862 1667.37,929.866 1672.96,915.471 1678.56,912.272 1684.15,907.474 1689.75,902.676 1695.34,899.477 1700.93,894.679 1706.53,888.281 1712.12,880.285 1717.72,873.887 1723.31,861.092 1728.91,856.294 1734.5,853.095 1740.09,846.697 1745.69,843.499 1751.28,837.101 1756.88,833.902 1762.47,829.104 1768.06,822.707 1773.66,817.908 1779.25,811.511 1784.85,803.514 1790.44,800.315 1796.04,797.116 1801.63,793.918 1807.22,789.12 1812.82,779.523 1818.41,777.924 1824.01,769.927 1829.6,765.129 1835.19,761.93 1840.79,755.532 1846.38,752.334 1851.98,742.737 1857.57,741.138 1863.17,741.138 1868.76,737.939 1874.35,733.141 1879.95,733.141 1885.54,725.144 1891.14,723.545 1896.73,723.545 1902.32,720.346 1907.92,717.147 1913.51,715.548 1919.11,709.15 1924.7,702.753 1930.3,699.554 1935.89,696.355 1941.48,693.156 1947.08,693.156 1952.67,691.557 1958.27,689.958 1963.86,688.358 1969.45,681.961 1975.05,678.762 1980.64,677.162 1986.24,672.364 1991.83,665.967 1997.43,662.768 2003.02,656.37 2008.61,653.172 2014.21,653.172 2019.8,649.973 2025.4,645.175 2030.99,643.575 2036.58,641.976 2042.18,638.777 2047.77,635.578 2053.37,630.78 2058.96,627.581 2064.56,624.383 2070.15,619.585 2075.74,617.985 2081.34,613.187 2086.93,611.588 2092.53,603.591 2098.12,600.392 2103.72,600.392 2109.31,597.193 2114.9,593.994 2120.5,589.196 2126.09,587.597 2131.69,585.997 2137.28,584.398 2142.87,581.199 2148.47,573.202 2154.06,570.004 2159.66,570.004 2165.25,570.004 2170.85,568.404 2176.44,568.404 2182.03,568.404 2187.63,565.205 2193.22,563.606 2198.82,562.007 2204.41,562.007 2210,562.007 2215.6,562.007 2221.19,557.208 2226.79,557.208 2232.38,557.208 2237.98,557.208 2243.57,555.609 2249.16,550.811 2254.76,549.212 2260.35,549.212 2265.95,549.212 2271.54,547.612 2277.13,547.612 2282.73,547.612 2288.32,547.612 2293.92,546.013 2299.51,544.413 2305.11,542.814 2310.7,541.215 2316.29,541.215 2321.89,539.615 2327.48,536.416 2333.08,533.218 2338.67,533.218 2344.26,531.618 2349.86,531.618 2355.45,531.618 2361.05,531.618 2366.64,530.019 2372.24,530.019 2377.83,528.42 2383.42,526.82 2389.02,525.221 2394.61,523.621 2400.21,523.621 2405.8,523.621 2411.39,523.621 2416.99,523.621 2422.58,522.022 2428.18,520.423 2433.77,518.823 2439.37,518.823 2444.96,517.224 2450.55,517.224 2456.15,517.224 2461.74,517.224 2467.34,517.224 2472.93,517.224 2478.52,517.224 2484.12,517.224 2489.71,517.224 2495.31,517.224 2500.9,515.624 2506.5,512.426 2512.09,509.227 2517.68,506.028 2523.28,506.028 2528.87,506.028 2534.47,502.829 2540.06,501.23 2545.65,499.631 2551.25,498.031 2556.84,496.432 2562.44,494.832 2568.03,493.233 2573.63,491.634 "/>
<path clip-path="url(#clip320)" d="M2297.58 310.833 L2561.69 310.833 L2561.69 103.473 L2297.58 103.473  Z" fill="#ffffff" fill-rule="evenodd" fill-opacity="1"/>
<polyline clip-path="url(#clip320)" style="stroke:#000000; stroke-linecap:round; stroke-linejoin:round; stroke-width:4; stroke-opacity:1; fill:none" points="2297.58,310.833 2561.69,310.833 2561.69,103.473 2297.58,103.473 2297.58,310.833 "/>
<polyline clip-path="url(#clip320)" style="stroke:#009af9; stroke-linecap:round; stroke-linejoin:round; stroke-width:4; stroke-opacity:1; fill:none" points="2323.93,155.313 2482.06,155.313 "/>
<path clip-path="url(#clip320)" d="M2530.66 139.167 L2530.66 143.728 Q2528 142.454 2525.64 141.829 Q2523.28 141.204 2521.08 141.204 Q2517.26 141.204 2515.17 142.686 Q2513.11 144.167 2513.11 146.899 Q2513.11 149.191 2514.48 150.371 Q2515.87 151.528 2519.71 152.246 L2522.54 152.825 Q2527.77 153.82 2530.24 156.343 Q2532.74 158.843 2532.74 163.056 Q2532.74 168.079 2529.36 170.672 Q2526.01 173.264 2519.5 173.264 Q2517.05 173.264 2514.27 172.709 Q2511.52 172.153 2508.55 171.065 L2508.55 166.251 Q2511.4 167.848 2514.13 168.658 Q2516.86 169.468 2519.5 169.468 Q2523.51 169.468 2525.68 167.894 Q2527.86 166.32 2527.86 163.403 Q2527.86 160.857 2526.29 159.422 Q2524.73 157.987 2521.17 157.269 L2518.32 156.714 Q2513.09 155.672 2510.75 153.45 Q2508.42 151.228 2508.42 147.269 Q2508.42 142.686 2511.63 140.047 Q2514.87 137.408 2520.55 137.408 Q2522.98 137.408 2525.5 137.848 Q2528.02 138.288 2530.66 139.167 Z" fill="#000000" fill-rule="nonzero" fill-opacity="1" /><polyline clip-path="url(#clip320)" style="stroke:#e26f46; stroke-linecap:round; stroke-linejoin:round; stroke-width:4; stroke-opacity:1; fill:none" points="2323.93,207.153 2482.06,207.153 "/>
<path clip-path="url(#clip320)" d="M2508.42 189.873 L2513.09 189.873 L2513.09 224.433 L2508.42 224.433 L2508.42 189.873 Z" fill="#000000" fill-rule="nonzero" fill-opacity="1" /><polyline clip-path="url(#clip320)" style="stroke:#3da44d; stroke-linecap:round; stroke-linejoin:round; stroke-width:4; stroke-opacity:1; fill:none" points="2323.93,258.993 2482.06,258.993 "/>
<path clip-path="url(#clip320)" d="M2524.8 260.07 Q2526.31 260.579 2527.72 262.245 Q2529.16 263.912 2530.59 266.829 L2535.34 276.273 L2530.31 276.273 L2525.89 267.407 Q2524.18 263.935 2522.56 262.801 Q2520.96 261.667 2518.18 261.667 L2513.09 261.667 L2513.09 276.273 L2508.42 276.273 L2508.42 241.713 L2518.97 241.713 Q2524.9 241.713 2527.81 244.19 Q2530.73 246.667 2530.73 251.667 Q2530.73 254.931 2529.2 257.083 Q2527.7 259.236 2524.8 260.07 M2513.09 245.556 L2513.09 257.824 L2518.97 257.824 Q2522.35 257.824 2524.06 256.273 Q2525.8 254.699 2525.8 251.667 Q2525.8 248.634 2524.06 247.107 Q2522.35 245.556 2518.97 245.556 L2513.09 245.556 Z" fill="#000000" fill-rule="nonzero" fill-opacity="1" /></svg>
