<?xml version="1.0" encoding="utf-8"?>
<svg xmlns="http://www.w3.org/2000/svg" xmlns:xlink="http://www.w3.org/1999/xlink" width="672" height="480" viewBox="0 0 2688 1920">
<defs>
  <clipPath id="clip950">
    <rect x="0" y="0" width="2688" height="1920"/>
  </clipPath>
</defs>
<path clip-path="url(#clip950)" d="M0 1920 L2688 1920 L2688 -4.26326e-14 L0 -4.26326e-14  Z" fill="#ffffff" fill-rule="evenodd" fill-opacity="1"/>
<defs>
  <clipPath id="clip951">
    <rect x="537" y="0" width="1883" height="1883"/>
  </clipPath>
</defs>
<path clip-path="url(#clip950)" d="M268.826 1734.12 L2640.76 1734.12 L2640.76 47.2441 L268.826 47.2441  Z" fill="#ffffff" fill-rule="evenodd" fill-opacity="1"/>
<defs>
  <clipPath id="clip952">
    <rect x="268" y="47" width="2373" height="1688"/>
  </clipPath>
</defs>
<polyline clip-path="url(#clip952)" style="stroke:#000000; stroke-linecap:round; stroke-linejoin:round; stroke-width:2; stroke-opacity:0.1; fill:none" points="335.956,1734.12 335.956,47.2441 "/>
<polyline clip-path="url(#clip952)" style="stroke:#000000; stroke-linecap:round; stroke-linejoin:round; stroke-width:2; stroke-opacity:0.1; fill:none" points="895.373,1734.12 895.373,47.2441 "/>
<polyline clip-path="url(#clip952)" style="stroke:#000000; stroke-linecap:round; stroke-linejoin:round; stroke-width:2; stroke-opacity:0.1; fill:none" points="1454.79,1734.12 1454.79,47.2441 "/>
<polyline clip-path="url(#clip952)" style="stroke:#000000; stroke-linecap:round; stroke-linejoin:round; stroke-width:2; stroke-opacity:0.1; fill:none" points="2014.21,1734.12 2014.21,47.2441 "/>
<polyline clip-path="url(#clip952)" style="stroke:#000000; stroke-linecap:round; stroke-linejoin:round; stroke-width:2; stroke-opacity:0.1; fill:none" points="2573.63,1734.12 2573.63,47.2441 "/>
<polyline clip-path="url(#clip952)" style="stroke:#000000; stroke-linecap:round; stroke-linejoin:round; stroke-width:2; stroke-opacity:0.1; fill:none" points="268.826,1686.38 2640.76,1686.38 "/>
<polyline clip-path="url(#clip952)" style="stroke:#000000; stroke-linecap:round; stroke-linejoin:round; stroke-width:2; stroke-opacity:0.1; fill:none" points="268.826,1286.53 2640.76,1286.53 "/>
<polyline clip-path="url(#clip952)" style="stroke:#000000; stroke-linecap:round; stroke-linejoin:round; stroke-width:2; stroke-opacity:0.1; fill:none" points="268.826,886.682 2640.76,886.682 "/>
<polyline clip-path="url(#clip952)" style="stroke:#000000; stroke-linecap:round; stroke-linejoin:round; stroke-width:2; stroke-opacity:0.1; fill:none" points="268.826,486.835 2640.76,486.835 "/>
<polyline clip-path="url(#clip952)" style="stroke:#000000; stroke-linecap:round; stroke-linejoin:round; stroke-width:2; stroke-opacity:0.1; fill:none" points="268.826,86.9888 2640.76,86.9888 "/>
<polyline clip-path="url(#clip950)" style="stroke:#000000; stroke-linecap:round; stroke-linejoin:round; stroke-width:4; stroke-opacity:1; fill:none" points="268.826,1734.12 2640.76,1734.12 "/>
<polyline clip-path="url(#clip950)" style="stroke:#000000; stroke-linecap:round; stroke-linejoin:round; stroke-width:4; stroke-opacity:1; fill:none" points="335.956,1734.12 335.956,1715.22 "/>
<polyline clip-path="url(#clip950)" style="stroke:#000000; stroke-linecap:round; stroke-linejoin:round; stroke-width:4; stroke-opacity:1; fill:none" points="895.373,1734.12 895.373,1715.22 "/>
<polyline clip-path="url(#clip950)" style="stroke:#000000; stroke-linecap:round; stroke-linejoin:round; stroke-width:4; stroke-opacity:1; fill:none" points="1454.79,1734.12 1454.79,1715.22 "/>
<polyline clip-path="url(#clip950)" style="stroke:#000000; stroke-linecap:round; stroke-linejoin:round; stroke-width:4; stroke-opacity:1; fill:none" points="2014.21,1734.12 2014.21,1715.22 "/>
<polyline clip-path="url(#clip950)" style="stroke:#000000; stroke-linecap:round; stroke-linejoin:round; stroke-width:4; stroke-opacity:1; fill:none" points="2573.63,1734.12 2573.63,1715.22 "/>
<path clip-path="url(#clip950)" d="M335.956 1767.34 Q332.345 1767.34 330.516 1770.9 Q328.71 1774.45 328.71 1781.58 Q328.71 1788.68 330.516 1792.25 Q332.345 1795.79 335.956 1795.79 Q339.59 1795.79 341.395 1792.25 Q343.224 1788.68 343.224 1781.58 Q343.224 1774.45 341.395 1770.9 Q339.59 1767.34 335.956 1767.34 M335.956 1763.64 Q341.766 1763.64 344.821 1768.24 Q347.9 1772.83 347.9 1781.58 Q347.9 1790.3 344.821 1794.91 Q341.766 1799.49 335.956 1799.49 Q330.145 1799.49 327.067 1794.91 Q324.011 1790.3 324.011 1781.58 Q324.011 1772.83 327.067 1768.24 Q330.145 1763.64 335.956 1763.64 Z" fill="#000000" fill-rule="nonzero" fill-opacity="1" /><path clip-path="url(#clip950)" d="M870.061 1794.89 L877.7 1794.89 L877.7 1768.52 L869.39 1770.19 L869.39 1765.93 L877.653 1764.26 L882.329 1764.26 L882.329 1794.89 L889.968 1794.89 L889.968 1798.82 L870.061 1798.82 L870.061 1794.89 Z" fill="#000000" fill-rule="nonzero" fill-opacity="1" /><path clip-path="url(#clip950)" d="M909.412 1767.34 Q905.801 1767.34 903.973 1770.9 Q902.167 1774.45 902.167 1781.58 Q902.167 1788.68 903.973 1792.25 Q905.801 1795.79 909.412 1795.79 Q913.047 1795.79 914.852 1792.25 Q916.681 1788.68 916.681 1781.58 Q916.681 1774.45 914.852 1770.9 Q913.047 1767.34 909.412 1767.34 M909.412 1763.64 Q915.223 1763.64 918.278 1768.24 Q921.357 1772.83 921.357 1781.58 Q921.357 1790.3 918.278 1794.91 Q915.223 1799.49 909.412 1799.49 Q903.602 1799.49 900.524 1794.91 Q897.468 1790.3 897.468 1781.58 Q897.468 1772.83 900.524 1768.24 Q903.602 1763.64 909.412 1763.64 Z" fill="#000000" fill-rule="nonzero" fill-opacity="1" /><path clip-path="url(#clip950)" d="M1433.56 1794.89 L1449.88 1794.89 L1449.88 1798.82 L1427.94 1798.82 L1427.94 1794.89 Q1430.6 1792.13 1435.18 1787.5 Q1439.79 1782.85 1440.97 1781.51 Q1443.22 1778.98 1444.1 1777.25 Q1445 1775.49 1445 1773.8 Q1445 1771.04 1443.05 1769.31 Q1441.13 1767.57 1438.03 1767.57 Q1435.83 1767.57 1433.38 1768.34 Q1430.95 1769.1 1428.17 1770.65 L1428.17 1765.93 Q1430.99 1764.79 1433.45 1764.21 Q1435.9 1763.64 1437.94 1763.64 Q1443.31 1763.64 1446.5 1766.32 Q1449.7 1769.01 1449.7 1773.5 Q1449.7 1775.63 1448.89 1777.55 Q1448.1 1779.45 1445.99 1782.04 Q1445.42 1782.71 1442.31 1785.93 Q1439.21 1789.12 1433.56 1794.89 Z" fill="#000000" fill-rule="nonzero" fill-opacity="1" /><path clip-path="url(#clip950)" d="M1469.7 1767.34 Q1466.09 1767.34 1464.26 1770.9 Q1462.45 1774.45 1462.45 1781.58 Q1462.45 1788.68 1464.26 1792.25 Q1466.09 1795.79 1469.7 1795.79 Q1473.33 1795.79 1475.14 1792.25 Q1476.97 1788.68 1476.97 1781.58 Q1476.97 1774.45 1475.14 1770.9 Q1473.33 1767.34 1469.7 1767.34 M1469.7 1763.64 Q1475.51 1763.64 1478.56 1768.24 Q1481.64 1772.83 1481.64 1781.58 Q1481.64 1790.3 1478.56 1794.91 Q1475.51 1799.49 1469.7 1799.49 Q1463.89 1799.49 1460.81 1794.91 Q1457.75 1790.3 1457.75 1781.58 Q1457.75 1772.83 1460.81 1768.24 Q1463.89 1763.64 1469.7 1763.64 Z" fill="#000000" fill-rule="nonzero" fill-opacity="1" /><path clip-path="url(#clip950)" d="M2003.05 1780.19 Q2006.41 1780.9 2008.28 1783.17 Q2010.18 1785.44 2010.18 1788.77 Q2010.18 1793.89 2006.66 1796.69 Q2003.14 1799.49 1996.66 1799.49 Q1994.49 1799.49 1992.17 1799.05 Q1989.88 1798.64 1987.43 1797.78 L1987.43 1793.27 Q1989.37 1794.4 1991.69 1794.98 Q1994 1795.56 1996.52 1795.56 Q2000.92 1795.56 2003.21 1793.82 Q2005.53 1792.08 2005.53 1788.77 Q2005.53 1785.72 2003.37 1784.01 Q2001.25 1782.27 1997.43 1782.27 L1993.4 1782.27 L1993.4 1778.43 L1997.61 1778.43 Q2001.06 1778.43 2002.89 1777.06 Q2004.72 1775.67 2004.72 1773.08 Q2004.72 1770.42 2002.82 1769.01 Q2000.94 1767.57 1997.43 1767.57 Q1995.5 1767.57 1993.31 1767.99 Q1991.11 1768.4 1988.47 1769.28 L1988.47 1765.12 Q1991.13 1764.38 1993.44 1764.01 Q1995.78 1763.64 1997.84 1763.64 Q2003.17 1763.64 2006.27 1766.07 Q2009.37 1768.47 2009.37 1772.59 Q2009.37 1775.46 2007.73 1777.46 Q2006.08 1779.42 2003.05 1780.19 Z" fill="#000000" fill-rule="nonzero" fill-opacity="1" /><path clip-path="url(#clip950)" d="M2029.05 1767.34 Q2025.44 1767.34 2023.61 1770.9 Q2021.8 1774.45 2021.8 1781.58 Q2021.8 1788.68 2023.61 1792.25 Q2025.44 1795.79 2029.05 1795.79 Q2032.68 1795.79 2034.49 1792.25 Q2036.31 1788.68 2036.31 1781.58 Q2036.31 1774.45 2034.49 1770.9 Q2032.68 1767.34 2029.05 1767.34 M2029.05 1763.64 Q2034.86 1763.64 2037.91 1768.24 Q2040.99 1772.83 2040.99 1781.58 Q2040.99 1790.3 2037.91 1794.91 Q2034.86 1799.49 2029.05 1799.49 Q2023.24 1799.49 2020.16 1794.91 Q2017.1 1790.3 2017.1 1781.58 Q2017.1 1772.83 2020.16 1768.24 Q2023.24 1763.64 2029.05 1763.64 Z" fill="#000000" fill-rule="nonzero" fill-opacity="1" /><path clip-path="url(#clip950)" d="M2561.8 1768.34 L2549.99 1786.78 L2561.8 1786.78 L2561.8 1768.34 M2560.57 1764.26 L2566.45 1764.26 L2566.45 1786.78 L2571.38 1786.78 L2571.38 1790.67 L2566.45 1790.67 L2566.45 1798.82 L2561.8 1798.82 L2561.8 1790.67 L2546.2 1790.67 L2546.2 1786.16 L2560.57 1764.26 Z" fill="#000000" fill-rule="nonzero" fill-opacity="1" /><path clip-path="url(#clip950)" d="M2589.11 1767.34 Q2585.5 1767.34 2583.67 1770.9 Q2581.87 1774.45 2581.87 1781.58 Q2581.87 1788.68 2583.67 1792.25 Q2585.5 1795.79 2589.11 1795.79 Q2592.75 1795.79 2594.55 1792.25 Q2596.38 1788.68 2596.38 1781.58 Q2596.38 1774.45 2594.55 1770.9 Q2592.75 1767.34 2589.11 1767.34 M2589.11 1763.64 Q2594.92 1763.64 2597.98 1768.24 Q2601.06 1772.83 2601.06 1781.58 Q2601.06 1790.3 2597.98 1794.91 Q2594.92 1799.49 2589.11 1799.49 Q2583.3 1799.49 2580.22 1794.91 Q2577.17 1790.3 2577.17 1781.58 Q2577.17 1772.83 2580.22 1768.24 Q2583.3 1763.64 2589.11 1763.64 Z" fill="#000000" fill-rule="nonzero" fill-opacity="1" /><path clip-path="url(#clip950)" d="M1376.67 1835.78 L1416.87 1835.78 L1416.87 1841.19 L1400 1841.19 L1400 1883.3 L1393.54 1883.3 L1393.54 1841.19 L1376.67 1841.19 L1376.67 1835.78 Z" fill="#000000" fill-rule="nonzero" fill-opacity="1" /><path clip-path="url(#clip950)" d="M1420.81 1847.65 L1426.67 1847.65 L1426.67 1883.3 L1420.81 1883.3 L1420.81 1847.65 M1420.81 1833.78 L1426.67 1833.78 L1426.67 1841.19 L1420.81 1841.19 L1420.81 1833.78 Z" fill="#000000" fill-rule="nonzero" fill-opacity="1" /><path clip-path="url(#clip950)" d="M1466.68 1854.5 Q1468.87 1850.55 1471.93 1848.67 Q1474.99 1846.79 1479.12 1846.79 Q1484.69 1846.79 1487.72 1850.71 Q1490.74 1854.59 1490.74 1861.78 L1490.74 1883.3 L1484.85 1883.3 L1484.85 1861.98 Q1484.85 1856.85 1483.04 1854.37 Q1481.22 1851.89 1477.5 1851.89 Q1472.95 1851.89 1470.31 1854.91 Q1467.67 1857.93 1467.67 1863.15 L1467.67 1883.3 L1461.78 1883.3 L1461.78 1861.98 Q1461.78 1856.82 1459.96 1854.37 Q1458.15 1851.89 1454.36 1851.89 Q1449.87 1851.89 1447.23 1854.94 Q1444.59 1857.97 1444.59 1863.15 L1444.59 1883.3 L1438.7 1883.3 L1438.7 1847.65 L1444.59 1847.65 L1444.59 1853.19 Q1446.59 1849.91 1449.4 1848.35 Q1452.2 1846.79 1456.05 1846.79 Q1459.93 1846.79 1462.64 1848.77 Q1465.37 1850.74 1466.68 1854.5 Z" fill="#000000" fill-rule="nonzero" fill-opacity="1" /><path clip-path="url(#clip950)" d="M1532.91 1864.01 L1532.91 1866.88 L1505.99 1866.88 Q1506.37 1872.92 1509.62 1876.11 Q1512.89 1879.26 1518.72 1879.26 Q1522.09 1879.26 1525.24 1878.43 Q1528.43 1877.6 1531.55 1875.95 L1531.55 1881.49 Q1528.39 1882.82 1525.08 1883.52 Q1521.77 1884.22 1518.37 1884.22 Q1509.84 1884.22 1504.84 1879.26 Q1499.88 1874.29 1499.88 1865.83 Q1499.88 1857.07 1504.59 1851.95 Q1509.33 1846.79 1517.35 1846.79 Q1524.54 1846.79 1528.71 1851.44 Q1532.91 1856.06 1532.91 1864.01 M1527.06 1862.29 Q1526.99 1857.49 1524.35 1854.62 Q1521.74 1851.76 1517.41 1851.76 Q1512.51 1851.76 1509.55 1854.53 Q1506.62 1857.3 1506.18 1862.33 L1527.06 1862.29 Z" fill="#000000" fill-rule="nonzero" fill-opacity="1" /><polyline clip-path="url(#clip950)" style="stroke:#000000; stroke-linecap:round; stroke-linejoin:round; stroke-width:4; stroke-opacity:1; fill:none" points="268.826,1734.12 268.826,47.2441 "/>
<polyline clip-path="url(#clip950)" style="stroke:#000000; stroke-linecap:round; stroke-linejoin:round; stroke-width:4; stroke-opacity:1; fill:none" points="268.826,1686.38 287.723,1686.38 "/>
<polyline clip-path="url(#clip950)" style="stroke:#000000; stroke-linecap:round; stroke-linejoin:round; stroke-width:4; stroke-opacity:1; fill:none" points="268.826,1286.53 287.723,1286.53 "/>
<polyline clip-path="url(#clip950)" style="stroke:#000000; stroke-linecap:round; stroke-linejoin:round; stroke-width:4; stroke-opacity:1; fill:none" points="268.826,886.682 287.723,886.682 "/>
<polyline clip-path="url(#clip950)" style="stroke:#000000; stroke-linecap:round; stroke-linejoin:round; stroke-width:4; stroke-opacity:1; fill:none" points="268.826,486.835 287.723,486.835 "/>
<polyline clip-path="url(#clip950)" style="stroke:#000000; stroke-linecap:round; stroke-linejoin:round; stroke-width:4; stroke-opacity:1; fill:none" points="268.826,86.9888 287.723,86.9888 "/>
<path clip-path="url(#clip950)" d="M216.561 1672.17 Q212.95 1672.17 211.121 1675.74 Q209.316 1679.28 209.316 1686.41 Q209.316 1693.52 211.121 1697.08 Q212.95 1700.62 216.561 1700.62 Q220.195 1700.62 222.001 1697.08 Q223.83 1693.52 223.83 1686.41 Q223.83 1679.28 222.001 1675.74 Q220.195 1672.17 216.561 1672.17 M216.561 1668.47 Q222.371 1668.47 225.427 1673.08 Q228.506 1677.66 228.506 1686.41 Q228.506 1695.14 225.427 1699.74 Q222.371 1704.33 216.561 1704.33 Q210.751 1704.33 207.672 1699.74 Q204.617 1695.14 204.617 1686.41 Q204.617 1677.66 207.672 1673.08 Q210.751 1668.47 216.561 1668.47 Z" fill="#000000" fill-rule="nonzero" fill-opacity="1" /><path clip-path="url(#clip950)" d="M150.265 1299.87 L166.585 1299.87 L166.585 1303.81 L144.64 1303.81 L144.64 1299.87 Q147.302 1297.12 151.886 1292.49 Q156.492 1287.84 157.673 1286.49 Q159.918 1283.97 160.798 1282.23 Q161.7 1280.48 161.7 1278.79 Q161.7 1276.03 159.756 1274.29 Q157.835 1272.56 154.733 1272.56 Q152.534 1272.56 150.08 1273.32 Q147.649 1274.09 144.872 1275.64 L144.872 1270.92 Q147.696 1269.78 150.149 1269.2 Q152.603 1268.62 154.64 1268.62 Q160.011 1268.62 163.205 1271.31 Q166.399 1273.99 166.399 1278.48 Q166.399 1280.61 165.589 1282.54 Q164.802 1284.43 162.696 1287.03 Q162.117 1287.7 159.015 1290.92 Q155.913 1294.11 150.265 1299.87 Z" fill="#000000" fill-rule="nonzero" fill-opacity="1" /><path clip-path="url(#clip950)" d="M176.446 1269.25 L194.802 1269.25 L194.802 1273.18 L180.728 1273.18 L180.728 1281.66 Q181.746 1281.31 182.765 1281.15 Q183.784 1280.96 184.802 1280.96 Q190.589 1280.96 193.969 1284.13 Q197.348 1287.3 197.348 1292.72 Q197.348 1298.3 193.876 1301.4 Q190.404 1304.48 184.084 1304.48 Q181.909 1304.48 179.64 1304.11 Q177.395 1303.74 174.987 1303 L174.987 1298.3 Q177.071 1299.43 179.293 1299.99 Q181.515 1300.54 183.992 1300.54 Q187.996 1300.54 190.334 1298.44 Q192.672 1296.33 192.672 1292.72 Q192.672 1289.11 190.334 1287 Q187.996 1284.9 183.992 1284.9 Q182.117 1284.9 180.242 1285.31 Q178.39 1285.73 176.446 1286.61 L176.446 1269.25 Z" fill="#000000" fill-rule="nonzero" fill-opacity="1" /><path clip-path="url(#clip950)" d="M216.561 1272.33 Q212.95 1272.33 211.121 1275.89 Q209.316 1279.43 209.316 1286.56 Q209.316 1293.67 211.121 1297.23 Q212.95 1300.78 216.561 1300.78 Q220.195 1300.78 222.001 1297.23 Q223.83 1293.67 223.83 1286.56 Q223.83 1279.43 222.001 1275.89 Q220.195 1272.33 216.561 1272.33 M216.561 1268.62 Q222.371 1268.62 225.427 1273.23 Q228.506 1277.81 228.506 1286.56 Q228.506 1295.29 225.427 1299.9 Q222.371 1304.48 216.561 1304.48 Q210.751 1304.48 207.672 1299.9 Q204.617 1295.29 204.617 1286.56 Q204.617 1277.81 207.672 1273.23 Q210.751 1268.62 216.561 1268.62 Z" fill="#000000" fill-rule="nonzero" fill-opacity="1" /><path clip-path="url(#clip950)" d="M146.284 869.402 L164.64 869.402 L164.64 873.337 L150.566 873.337 L150.566 881.809 Q151.585 881.462 152.603 881.3 Q153.622 881.115 154.64 881.115 Q160.427 881.115 163.807 884.286 Q167.186 887.458 167.186 892.874 Q167.186 898.453 163.714 901.555 Q160.242 904.633 153.923 904.633 Q151.747 904.633 149.478 904.263 Q147.233 903.893 144.825 903.152 L144.825 898.453 Q146.909 899.587 149.131 900.143 Q151.353 900.698 153.83 900.698 Q157.835 900.698 160.173 898.592 Q162.51 896.485 162.51 892.874 Q162.51 889.263 160.173 887.157 Q157.835 885.05 153.83 885.05 Q151.955 885.05 150.08 885.467 Q148.228 885.883 146.284 886.763 L146.284 869.402 Z" fill="#000000" fill-rule="nonzero" fill-opacity="1" /><path clip-path="url(#clip950)" d="M186.399 872.481 Q182.788 872.481 180.959 876.046 Q179.154 879.587 179.154 886.717 Q179.154 893.823 180.959 897.388 Q182.788 900.93 186.399 900.93 Q190.033 900.93 191.839 897.388 Q193.668 893.823 193.668 886.717 Q193.668 879.587 191.839 876.046 Q190.033 872.481 186.399 872.481 M186.399 868.777 Q192.209 868.777 195.265 873.384 Q198.344 877.967 198.344 886.717 Q198.344 895.444 195.265 900.05 Q192.209 904.633 186.399 904.633 Q180.589 904.633 177.51 900.05 Q174.455 895.444 174.455 886.717 Q174.455 877.967 177.51 873.384 Q180.589 868.777 186.399 868.777 Z" fill="#000000" fill-rule="nonzero" fill-opacity="1" /><path clip-path="url(#clip950)" d="M216.561 872.481 Q212.95 872.481 211.121 876.046 Q209.316 879.587 209.316 886.717 Q209.316 893.823 211.121 897.388 Q212.95 900.93 216.561 900.93 Q220.195 900.93 222.001 897.388 Q223.83 893.823 223.83 886.717 Q223.83 879.587 222.001 876.046 Q220.195 872.481 216.561 872.481 M216.561 868.777 Q222.371 868.777 225.427 873.384 Q228.506 877.967 228.506 886.717 Q228.506 895.444 225.427 900.05 Q222.371 904.633 216.561 904.633 Q210.751 904.633 207.672 900.05 Q204.617 895.444 204.617 886.717 Q204.617 877.967 207.672 873.384 Q210.751 868.777 216.561 868.777 Z" fill="#000000" fill-rule="nonzero" fill-opacity="1" /><path clip-path="url(#clip950)" d="M145.057 469.555 L167.279 469.555 L167.279 471.546 L154.733 504.115 L149.849 504.115 L161.654 473.491 L145.057 473.491 L145.057 469.555 Z" fill="#000000" fill-rule="nonzero" fill-opacity="1" /><path clip-path="url(#clip950)" d="M176.446 469.555 L194.802 469.555 L194.802 473.491 L180.728 473.491 L180.728 481.963 Q181.746 481.616 182.765 481.454 Q183.784 481.268 184.802 481.268 Q190.589 481.268 193.969 484.44 Q197.348 487.611 197.348 493.028 Q197.348 498.606 193.876 501.708 Q190.404 504.787 184.084 504.787 Q181.909 504.787 179.64 504.416 Q177.395 504.046 174.987 503.305 L174.987 498.606 Q177.071 499.74 179.293 500.296 Q181.515 500.852 183.992 500.852 Q187.996 500.852 190.334 498.745 Q192.672 496.639 192.672 493.028 Q192.672 489.416 190.334 487.31 Q187.996 485.204 183.992 485.204 Q182.117 485.204 180.242 485.62 Q178.39 486.037 176.446 486.916 L176.446 469.555 Z" fill="#000000" fill-rule="nonzero" fill-opacity="1" /><path clip-path="url(#clip950)" d="M216.561 472.634 Q212.95 472.634 211.121 476.199 Q209.316 479.741 209.316 486.87 Q209.316 493.977 211.121 497.541 Q212.95 501.083 216.561 501.083 Q220.195 501.083 222.001 497.541 Q223.83 493.977 223.83 486.87 Q223.83 479.741 222.001 476.199 Q220.195 472.634 216.561 472.634 M216.561 468.93 Q222.371 468.93 225.427 473.537 Q228.506 478.12 228.506 486.87 Q228.506 495.597 225.427 500.203 Q222.371 504.787 216.561 504.787 Q210.751 504.787 207.672 500.203 Q204.617 495.597 204.617 486.87 Q204.617 478.12 207.672 473.537 Q210.751 468.93 216.561 468.93 Z" fill="#000000" fill-rule="nonzero" fill-opacity="1" /><path clip-path="url(#clip950)" d="M116.886 100.334 L124.525 100.334 L124.525 73.9681 L116.214 75.6347 L116.214 71.3755 L124.478 69.7088 L129.154 69.7088 L129.154 100.334 L136.793 100.334 L136.793 104.269 L116.886 104.269 L116.886 100.334 Z" fill="#000000" fill-rule="nonzero" fill-opacity="1" /><path clip-path="url(#clip950)" d="M156.237 72.7875 Q152.626 72.7875 150.798 76.3523 Q148.992 79.894 148.992 87.0236 Q148.992 94.13 150.798 97.6948 Q152.626 101.236 156.237 101.236 Q159.872 101.236 161.677 97.6948 Q163.506 94.13 163.506 87.0236 Q163.506 79.894 161.677 76.3523 Q159.872 72.7875 156.237 72.7875 M156.237 69.0839 Q162.048 69.0839 165.103 73.6903 Q168.182 78.2736 168.182 87.0236 Q168.182 95.7504 165.103 100.357 Q162.048 104.94 156.237 104.94 Q150.427 104.94 147.349 100.357 Q144.293 95.7504 144.293 87.0236 Q144.293 78.2736 147.349 73.6903 Q150.427 69.0839 156.237 69.0839 Z" fill="#000000" fill-rule="nonzero" fill-opacity="1" /><path clip-path="url(#clip950)" d="M186.399 72.7875 Q182.788 72.7875 180.959 76.3523 Q179.154 79.894 179.154 87.0236 Q179.154 94.13 180.959 97.6948 Q182.788 101.236 186.399 101.236 Q190.033 101.236 191.839 97.6948 Q193.668 94.13 193.668 87.0236 Q193.668 79.894 191.839 76.3523 Q190.033 72.7875 186.399 72.7875 M186.399 69.0839 Q192.209 69.0839 195.265 73.6903 Q198.344 78.2736 198.344 87.0236 Q198.344 95.7504 195.265 100.357 Q192.209 104.94 186.399 104.94 Q180.589 104.94 177.51 100.357 Q174.455 95.7504 174.455 87.0236 Q174.455 78.2736 177.51 73.6903 Q180.589 69.0839 186.399 69.0839 Z" fill="#000000" fill-rule="nonzero" fill-opacity="1" /><path clip-path="url(#clip950)" d="M216.561 72.7875 Q212.95 72.7875 211.121 76.3523 Q209.316 79.894 209.316 87.0236 Q209.316 94.13 211.121 97.6948 Q212.95 101.236 216.561 101.236 Q220.195 101.236 222.001 97.6948 Q223.83 94.13 223.83 87.0236 Q223.83 79.894 222.001 76.3523 Q220.195 72.7875 216.561 72.7875 M216.561 69.0839 Q222.371 69.0839 225.427 73.6903 Q228.506 78.2736 228.506 87.0236 Q228.506 95.7504 225.427 100.357 Q222.371 104.94 216.561 104.94 Q210.751 104.94 207.672 100.357 Q204.617 95.7504 204.617 87.0236 Q204.617 78.2736 207.672 73.6903 Q210.751 69.0839 216.561 69.0839 Z" fill="#000000" fill-rule="nonzero" fill-opacity="1" /><path clip-path="url(#clip950)" d="M14.1184 1018.41 L14.1184 1009.75 L53.8723 988.681 L14.1184 988.681 L14.1184 982.442 L61.6384 982.442 L61.6384 991.1 L21.8846 1012.17 L61.6384 1012.17 L61.6384 1018.41 L14.1184 1018.41 Z" fill="#000000" fill-rule="nonzero" fill-opacity="1" /><path clip-path="url(#clip950)" d="M47.5702 970.507 L25.9905 970.507 L25.9905 964.65 L47.3474 964.65 Q52.4082 964.65 54.9545 962.677 Q57.4689 960.703 57.4689 956.757 Q57.4689 952.014 54.4452 949.277 Q51.4215 946.508 46.2016 946.508 L25.9905 946.508 L25.9905 940.651 L61.6384 940.651 L61.6384 946.508 L56.1639 946.508 Q59.4104 948.64 61.0019 951.473 Q62.5615 954.274 62.5615 957.998 Q62.5615 964.141 58.742 967.324 Q54.9226 970.507 47.5702 970.507 M25.1311 955.77 L25.1311 955.77 Z" fill="#000000" fill-rule="nonzero" fill-opacity="1" /><path clip-path="url(#clip950)" d="M32.8336 900.834 Q28.8869 898.638 27.009 895.582 Q25.1311 892.527 25.1311 888.389 Q25.1311 882.819 29.046 879.795 Q32.9291 876.771 40.1224 876.771 L61.6384 876.771 L61.6384 882.66 L40.3133 882.66 Q35.1889 882.66 32.7063 884.474 Q30.2237 886.288 30.2237 890.012 Q30.2237 894.564 33.2474 897.205 Q36.2711 899.847 41.491 899.847 L61.6384 899.847 L61.6384 905.735 L40.3133 905.735 Q35.1571 905.735 32.7063 907.55 Q30.2237 909.364 30.2237 913.151 Q30.2237 917.639 33.2792 920.281 Q36.3029 922.923 41.491 922.923 L61.6384 922.923 L61.6384 928.811 L25.9905 928.811 L25.9905 922.923 L31.5287 922.923 Q28.2503 920.918 26.6907 918.117 Q25.1311 915.316 25.1311 911.465 Q25.1311 907.581 27.1045 904.876 Q29.0779 902.139 32.8336 900.834 Z" fill="#000000" fill-rule="nonzero" fill-opacity="1" /><path clip-path="url(#clip950)" d="M43.8463 839.5 Q37.3851 839.5 33.7248 842.174 Q30.0327 844.816 30.0327 849.463 Q30.0327 854.11 33.7248 856.783 Q37.3851 859.425 43.8463 859.425 Q50.3075 859.425 53.9996 856.783 Q57.6599 854.11 57.6599 849.463 Q57.6599 844.816 53.9996 842.174 Q50.3075 839.5 43.8463 839.5 M31.4013 859.425 Q28.2185 857.579 26.6907 854.778 Q25.1311 851.945 25.1311 848.03 Q25.1311 841.537 30.2873 837.495 Q35.4436 833.421 43.8463 833.421 Q52.249 833.421 57.4052 837.495 Q62.5615 841.537 62.5615 848.03 Q62.5615 851.945 61.0337 854.778 Q59.4741 857.579 56.2912 859.425 L61.6384 859.425 L61.6384 865.313 L12.1132 865.313 L12.1132 859.425 L31.4013 859.425 Z" fill="#000000" fill-rule="nonzero" fill-opacity="1" /><path clip-path="url(#clip950)" d="M42.3504 793.222 L45.2149 793.222 L45.2149 820.149 Q51.2623 819.767 54.4452 816.52 Q57.5962 813.242 57.5962 807.417 Q57.5962 804.043 56.7687 800.892 Q55.9411 797.709 54.2861 794.59 L59.8242 794.59 Q61.161 797.741 61.8612 801.051 Q62.5615 804.362 62.5615 807.767 Q62.5615 816.297 57.5962 821.294 Q52.631 826.26 44.1646 826.26 Q35.4117 826.26 30.2873 821.549 Q25.1311 816.807 25.1311 808.786 Q25.1311 801.592 29.7781 797.423 Q34.3932 793.222 42.3504 793.222 M40.6316 799.078 Q35.8255 799.142 32.9609 801.783 Q30.0964 804.393 30.0964 808.722 Q30.0964 813.624 32.8654 816.584 Q35.6345 819.512 40.6634 819.958 L40.6316 799.078 Z" fill="#000000" fill-rule="nonzero" fill-opacity="1" /><path clip-path="url(#clip950)" d="M31.465 762.953 Q30.8921 763.939 30.6375 765.117 Q30.351 766.263 30.351 767.663 Q30.351 772.629 33.5975 775.302 Q36.8122 777.944 42.8596 777.944 L61.6384 777.944 L61.6384 783.832 L25.9905 783.832 L25.9905 777.944 L31.5287 777.944 Q28.2821 776.098 26.7225 773.138 Q25.1311 770.178 25.1311 765.945 Q25.1311 765.34 25.2266 764.608 Q25.2903 763.876 25.4494 762.984 L31.465 762.953 Z" fill="#000000" fill-rule="nonzero" fill-opacity="1" /><polyline clip-path="url(#clip952)" style="stroke:#009af9; stroke-linecap:round; stroke-linejoin:round; stroke-width:4; stroke-opacity:1; fill:none" points="335.956,94.9858 341.55,94.9858 347.144,94.9858 352.738,94.9858 358.332,94.9858 363.926,94.9858 369.521,94.9858 375.115,94.9858 380.709,94.9858 386.303,94.9858 391.897,94.9858 397.492,94.9858 403.086,94.9858 408.68,94.9858 414.274,94.9858 419.868,94.9858 425.462,94.9858 431.057,96.5852 436.651,96.5852 442.245,96.5852 447.839,96.5852 453.433,96.5852 459.027,96.5852 464.622,96.5852 470.216,98.1846 475.81,98.1846 481.404,98.1846 486.998,98.1846 492.593,98.1846 498.187,98.1846 503.781,98.1846 509.375,98.1846 514.969,98.1846 520.563,98.1846 526.158,99.7839 531.752,99.7839 537.346,101.383 542.94,101.383 548.534,101.383 554.128,101.383 559.723,101.383 565.317,102.983 570.911,102.983 576.505,102.983 582.099,102.983 587.694,102.983 593.288,102.983 598.882,106.181 604.476,107.781 610.07,107.781 615.664,107.781 621.259,109.38 626.853,109.38 632.447,109.38 638.041,110.98 643.635,114.178 649.229,117.377 654.824,117.377 660.418,117.377 666.012,117.377 671.606,118.977 677.2,120.576 682.794,120.576 688.389,123.775 693.983,128.573 699.577,130.172 705.171,130.172 710.765,130.172 716.36,130.172 721.954,134.97 727.548,136.57 733.142,138.169 738.736,138.169 744.33,144.567 749.925,146.166 755.519,147.766 761.113,147.766 766.707,147.766 772.301,147.766 777.895,147.766 783.49,149.365 789.084,150.964 794.678,152.564 800.272,154.163 805.866,155.762 811.461,158.961 817.055,160.561 822.649,162.16 828.243,162.16 833.837,163.759 839.431,165.359 845.026,165.359 850.62,165.359 856.214,166.958 861.808,166.958 867.402,171.756 872.996,173.356 878.591,173.356 884.185,173.356 889.779,174.955 895.373,179.753 900.967,182.952 906.562,189.35 912.156,192.548 917.75,194.148 923.344,195.747 928.938,195.747 934.532,195.747 940.127,198.946 945.721,200.545 951.315,202.145 956.909,203.744 962.503,206.943 968.097,206.943 973.692,208.542 979.286,208.542 984.88,211.741 990.474,213.34 996.068,216.539 1001.66,219.738 1007.26,219.738 1012.85,221.337 1018.45,227.735 1024.04,229.334 1029.63,229.334 1035.23,232.533 1040.82,237.331 1046.42,238.931 1052.01,238.931 1057.6,240.53 1063.2,246.927 1068.79,250.126 1074.39,251.726 1079.98,256.524 1085.58,258.123 1091.17,266.12 1096.76,267.72 1102.36,272.518 1107.95,275.716 1113.55,278.915 1119.14,280.515 1124.73,288.512 1130.33,296.508 1135.92,299.707 1141.52,304.505 1147.11,315.701 1152.71,318.9 1158.3,323.698 1163.89,328.496 1169.49,334.894 1175.08,336.493 1180.68,341.291 1186.27,349.288 1191.86,355.686 1197.46,366.881 1203.05,370.08 1208.65,379.677 1214.24,384.475 1219.84,392.472 1225.43,400.469 1231.02,402.068 1236.62,406.866 1242.21,413.264 1247.81,416.462 1253.4,424.459 1258.99,430.857 1264.59,440.453 1270.18,448.45 1275.78,461.245 1281.37,475.64 1286.97,483.637 1292.56,494.832 1298.15,499.631 1303.75,502.829 1309.34,512.426 1314.94,517.224 1320.53,526.82 1326.12,531.618 1331.72,546.013 1337.31,555.609 1342.91,560.407 1348.5,570.004 1354.1,579.6 1359.69,593.994 1365.28,605.19 1370.88,613.187 1376.47,617.985 1382.07,629.181 1387.66,637.178 1393.25,643.575 1398.85,653.172 1404.44,659.569 1410.04,662.768 1415.63,667.566 1421.23,675.563 1426.82,683.56 1432.41,691.557 1438.01,699.554 1443.6,709.15 1449.2,718.746 1454.79,729.942 1460.38,749.135 1465.98,758.731 1471.57,766.728 1477.17,768.327 1482.76,776.324 1488.36,789.12 1493.95,790.719 1499.54,793.918 1505.14,801.915 1510.73,809.912 1516.33,817.908 1521.92,829.104 1527.51,837.101 1533.11,838.7 1538.7,843.499 1544.3,854.694 1549.89,857.893 1555.49,864.291 1561.08,870.688 1566.67,873.887 1572.27,880.285 1577.86,888.281 1583.46,897.878 1589.05,904.275 1594.65,907.474 1600.24,912.272 1605.83,913.872 1611.43,921.869 1617.02,931.465 1622.62,934.664 1628.21,947.459 1633.8,957.055 1639.4,963.453 1644.99,971.45 1650.59,979.446 1656.18,984.245 1661.78,989.043 1667.37,995.44 1672.96,997.04 1678.56,1001.84 1684.15,1008.24 1689.75,1011.43 1695.34,1017.83 1700.93,1022.63 1706.53,1024.23 1712.12,1030.63 1717.72,1035.43 1723.31,1040.22 1728.91,1043.42 1734.5,1049.82 1740.09,1053.02 1745.69,1059.42 1751.28,1062.61 1756.88,1077.01 1762.47,1080.21 1768.06,1081.81 1773.66,1088.2 1779.25,1091.4 1784.85,1091.4 1790.44,1097.8 1796.04,1101 1801.63,1107.4 1807.22,1109 1812.82,1113.79 1818.41,1116.99 1824.01,1118.59 1829.6,1120.19 1835.19,1123.39 1840.79,1123.39 1846.38,1126.59 1851.98,1128.19 1857.57,1131.39 1863.17,1131.39 1868.76,1137.79 1874.35,1139.39 1879.95,1144.18 1885.54,1148.98 1891.14,1152.18 1896.73,1155.38 1902.32,1158.58 1907.92,1161.78 1913.51,1166.57 1919.11,1169.77 1924.7,1172.97 1930.3,1172.97 1935.89,1176.17 1941.48,1179.37 1947.08,1180.97 1952.67,1182.57 1958.27,1184.17 1963.86,1187.37 1969.45,1188.97 1975.05,1188.97 1980.64,1192.16 1986.24,1192.16 1991.83,1193.76 1997.43,1195.36 2003.02,1196.96 2008.61,1200.16 2014.21,1203.36 2019.8,1208.16 2025.4,1208.16 2030.99,1208.16 2036.58,1211.36 2042.18,1211.36 2047.77,1212.96 2053.37,1216.16 2058.96,1216.16 2064.56,1217.76 2070.15,1219.35 2075.74,1224.15 2081.34,1225.75 2086.93,1227.35 2092.53,1228.95 2098.12,1230.55 2103.72,1230.55 2109.31,1232.15 2114.9,1233.75 2120.5,1235.35 2126.09,1236.95 2131.69,1241.75 2137.28,1241.75 2142.87,1241.75 2148.47,1241.75 2154.06,1243.35 2159.66,1244.94 2165.25,1246.54 2170.85,1248.14 2176.44,1249.74 2182.03,1251.34 2187.63,1256.14 2193.22,1257.74 2198.82,1259.34 2204.41,1259.34 2210,1260.94 2215.6,1262.54 2221.19,1264.14 2226.79,1265.74 2232.38,1265.74 2237.98,1267.34 2243.57,1270.53 2249.16,1272.13 2254.76,1272.13 2260.35,1272.13 2265.95,1273.73 2271.54,1275.33 2277.13,1275.33 2282.73,1275.33 2288.32,1275.33 2293.92,1276.93 2299.51,1278.53 2305.11,1280.13 2310.7,1280.13 2316.29,1284.93 2321.89,1286.53 2327.48,1286.53 2333.08,1286.53 2338.67,1286.53 2344.26,1286.53 2349.86,1288.13 2355.45,1289.73 2361.05,1292.93 2366.64,1294.53 2372.24,1294.53 2377.83,1296.13 2383.42,1297.72 2389.02,1297.72 2394.61,1299.32 2400.21,1299.32 2405.8,1299.32 2411.39,1300.92 2416.99,1302.52 2422.58,1302.52 2428.18,1302.52 2433.77,1302.52 2439.37,1302.52 2444.96,1302.52 2450.55,1302.52 2456.15,1302.52 2461.74,1304.12 2467.34,1304.12 2472.93,1304.12 2478.52,1307.32 2484.12,1308.92 2489.71,1308.92 2495.31,1312.12 2500.9,1312.12 2506.5,1313.72 2512.09,1313.72 2517.68,1313.72 2523.28,1315.32 2528.87,1315.32 2534.47,1315.32 2540.06,1315.32 2545.65,1315.32 2551.25,1315.32 2556.84,1318.52 2562.44,1320.12 2568.03,1320.12 2573.63,1323.31 "/>
<polyline clip-path="url(#clip952)" style="stroke:#e26f46; stroke-linecap:round; stroke-linejoin:round; stroke-width:4; stroke-opacity:1; fill:none" points="335.956,1678.38 341.55,1678.38 347.144,1678.38 352.738,1678.38 358.332,1678.38 363.926,1678.38 369.521,1679.98 375.115,1681.58 380.709,1681.58 386.303,1681.58 391.897,1681.58 397.492,1681.58 403.086,1681.58 408.68,1681.58 414.274,1681.58 419.868,1681.58 425.462,1681.58 431.057,1681.58 436.651,1681.58 442.245,1681.58 447.839,1681.58 453.433,1681.58 459.027,1681.58 464.622,1681.58 470.216,1679.98 475.81,1681.58 481.404,1681.58 486.998,1681.58 492.593,1681.58 498.187,1681.58 503.781,1681.58 509.375,1681.58 514.969,1681.58 520.563,1681.58 526.158,1679.98 531.752,1681.58 537.346,1679.98 542.94,1679.98 548.534,1679.98 554.128,1679.98 559.723,1679.98 565.317,1678.38 570.911,1678.38 576.505,1678.38 582.099,1678.38 587.694,1678.38 593.288,1678.38 598.882,1675.18 604.476,1675.18 610.07,1675.18 615.664,1675.18 621.259,1673.58 626.853,1673.58 632.447,1673.58 638.041,1671.98 643.635,1668.78 649.229,1665.58 654.824,1667.18 660.418,1667.18 666.012,1667.18 671.606,1667.18 677.2,1667.18 682.794,1667.18 688.389,1665.58 693.983,1662.38 699.577,1660.79 705.171,1660.79 710.765,1660.79 716.36,1660.79 721.954,1655.99 727.548,1654.39 733.142,1652.79 738.736,1655.99 744.33,1649.59 749.925,1652.79 755.519,1652.79 761.113,1654.39 766.707,1654.39 772.301,1655.99 777.895,1657.59 783.49,1655.99 789.084,1655.99 794.678,1655.99 800.272,1654.39 805.866,1654.39 811.461,1652.79 817.055,1651.19 822.649,1649.59 828.243,1649.59 833.837,1649.59 839.431,1647.99 845.026,1647.99 850.62,1652.79 856.214,1651.19 861.808,1651.19 867.402,1646.39 872.996,1649.59 878.591,1651.19 884.185,1651.19 889.779,1651.19 895.373,1647.99 900.967,1646.39 906.562,1639.99 912.156,1639.99 917.75,1638.39 923.344,1636.79 928.938,1636.79 934.532,1638.39 940.127,1636.79 945.721,1636.79 951.315,1639.99 956.909,1638.39 962.503,1639.99 968.097,1639.99 973.692,1638.39 979.286,1639.99 984.88,1636.79 990.474,1636.79 996.068,1636.79 1001.66,1633.6 1007.26,1636.79 1012.85,1638.39 1018.45,1632 1024.04,1636.79 1029.63,1636.79 1035.23,1635.19 1040.82,1630.4 1046.42,1632 1052.01,1632 1057.6,1632 1063.2,1625.6 1068.79,1624 1074.39,1622.4 1079.98,1619.2 1085.58,1620.8 1091.17,1612.8 1096.76,1614.4 1102.36,1611.2 1107.95,1612.8 1113.55,1609.6 1119.14,1609.6 1124.73,1601.61 1130.33,1596.81 1135.92,1593.61 1141.52,1590.41 1147.11,1584.01 1152.71,1582.42 1158.3,1579.22 1163.89,1574.42 1169.49,1568.02 1175.08,1571.22 1180.68,1568.02 1186.27,1564.82 1191.86,1558.42 1197.46,1548.83 1203.05,1553.63 1208.65,1545.63 1214.24,1542.43 1219.84,1537.63 1225.43,1534.43 1231.02,1534.43 1236.62,1532.83 1242.21,1531.23 1247.81,1532.83 1253.4,1526.44 1258.99,1528.04 1264.59,1518.44 1270.18,1515.24 1275.78,1504.05 1281.37,1492.85 1286.97,1486.45 1292.56,1483.25 1298.15,1484.85 1303.75,1484.85 1309.34,1484.85 1314.94,1483.25 1320.53,1480.05 1326.12,1483.25 1331.72,1472.06 1337.31,1472.06 1342.91,1473.66 1348.5,1467.26 1354.1,1465.66 1359.69,1456.06 1365.28,1448.07 1370.88,1446.47 1376.47,1446.47 1382.07,1436.87 1387.66,1435.27 1393.25,1438.47 1398.85,1435.27 1404.44,1440.07 1410.04,1440.07 1415.63,1441.67 1421.23,1438.47 1426.82,1433.67 1432.41,1433.67 1438.01,1436.87 1443.6,1436.87 1449.2,1433.67 1454.79,1425.68 1460.38,1408.08 1465.98,1404.88 1471.57,1404.88 1477.17,1411.28 1482.76,1411.28 1488.36,1404.88 1493.95,1411.28 1499.54,1416.08 1505.14,1412.88 1510.73,1409.68 1516.33,1409.68 1521.92,1408.08 1527.51,1408.08 1533.11,1416.08 1538.7,1425.68 1544.3,1414.48 1549.89,1417.68 1555.49,1420.88 1561.08,1420.88 1566.67,1425.68 1572.27,1425.68 1577.86,1422.48 1583.46,1419.28 1589.05,1414.48 1594.65,1414.48 1600.24,1419.28 1605.83,1422.48 1611.43,1424.08 1617.02,1416.08 1622.62,1417.68 1628.21,1414.48 1633.8,1408.08 1639.4,1409.68 1644.99,1414.48 1650.59,1414.48 1656.18,1420.88 1661.78,1420.88 1667.37,1422.48 1672.96,1432.07 1678.56,1433.67 1684.15,1433.67 1689.75,1438.47 1695.34,1438.47 1700.93,1440.07 1706.53,1446.47 1712.12,1443.27 1717.72,1449.67 1723.31,1451.27 1728.91,1454.46 1734.5,1452.86 1740.09,1459.26 1745.69,1462.46 1751.28,1465.66 1756.88,1454.46 1762.47,1456.06 1768.06,1459.26 1773.66,1456.06 1779.25,1459.26 1784.85,1460.86 1790.44,1457.66 1796.04,1460.86 1801.63,1459.26 1807.22,1462.46 1812.82,1465.66 1818.41,1467.26 1824.01,1472.06 1829.6,1476.86 1835.19,1478.46 1840.79,1481.65 1846.38,1480.05 1851.98,1483.25 1857.57,1483.25 1863.17,1488.05 1868.76,1486.45 1874.35,1489.65 1879.95,1489.65 1885.54,1489.65 1891.14,1496.05 1896.73,1500.85 1902.32,1500.85 1907.92,1500.85 1913.51,1510.44 1919.11,1510.44 1924.7,1512.04 1930.3,1516.84 1935.89,1516.84 1941.48,1518.44 1947.08,1521.64 1952.67,1524.84 1958.27,1528.04 1963.86,1526.44 1969.45,1528.04 1975.05,1528.04 1980.64,1531.23 1986.24,1532.83 1991.83,1534.43 1997.43,1537.63 2003.02,1540.83 2008.61,1540.83 2014.21,1545.63 2019.8,1544.03 2025.4,1548.83 2030.99,1553.63 2036.58,1555.23 2042.18,1556.82 2047.77,1556.82 2053.37,1556.82 2058.96,1560.02 2064.56,1563.22 2070.15,1564.82 2075.74,1563.22 2081.34,1564.82 2086.93,1566.42 2092.53,1568.02 2098.12,1566.42 2103.72,1566.42 2109.31,1568.02 2114.9,1568.02 2120.5,1569.62 2126.09,1569.62 2131.69,1566.42 2137.28,1568.02 2142.87,1571.22 2148.47,1572.82 2154.06,1574.42 2159.66,1576.02 2165.25,1576.02 2170.85,1580.82 2176.44,1582.42 2182.03,1584.01 2187.63,1579.22 2193.22,1585.61 2198.82,1585.61 2204.41,1592.01 2210,1590.41 2215.6,1590.41 2221.19,1593.61 2226.79,1596.81 2232.38,1600.01 2237.98,1601.61 2243.57,1603.21 2249.16,1601.61 2254.76,1603.21 2260.35,1608.01 2265.95,1608.01 2271.54,1608.01 2277.13,1612.8 2282.73,1616 2288.32,1619.2 2293.92,1619.2 2299.51,1619.2 2305.11,1619.2 2310.7,1622.4 2316.29,1617.6 2321.89,1616 2327.48,1617.6 2333.08,1620.8 2338.67,1622.4 2344.26,1624 2349.86,1624 2355.45,1624 2361.05,1624 2366.64,1622.4 2372.24,1622.4 2377.83,1620.8 2383.42,1622.4 2389.02,1624 2394.61,1624 2400.21,1624 2405.8,1624 2411.39,1624 2416.99,1622.4 2422.58,1624 2428.18,1625.6 2433.77,1628.8 2439.37,1630.4 2444.96,1630.4 2450.55,1630.4 2456.15,1630.4 2461.74,1630.4 2467.34,1636.79 2472.93,1636.79 2478.52,1633.6 2484.12,1632 2489.71,1632 2495.31,1630.4 2500.9,1632 2506.5,1630.4 2512.09,1632 2517.68,1632 2523.28,1632 2528.87,1632 2534.47,1632 2540.06,1632 2545.65,1633.6 2551.25,1633.6 2556.84,1630.4 2562.44,1633.6 2568.03,1635.19 2573.63,1635.19 "/>
<polyline clip-path="url(#clip952)" style="stroke:#3da44d; stroke-linecap:round; stroke-linejoin:round; stroke-width:4; stroke-opacity:1; fill:none" points="335.956,1686.38 341.55,1686.38 347.144,1686.38 352.738,1686.38 358.332,1686.38 363.926,1686.38 369.521,1684.78 375.115,1683.18 380.709,1683.18 386.303,1683.18 391.897,1683.18 397.492,1683.18 403.086,1683.18 408.68,1683.18 414.274,1683.18 419.868,1683.18 425.462,1683.18 431.057,1681.58 436.651,1681.58 442.245,1681.58 447.839,1681.58 453.433,1681.58 459.027,1681.58 464.622,1681.58 470.216,1681.58 475.81,1679.98 481.404,1679.98 486.998,1679.98 492.593,1679.98 498.187,1679.98 503.781,1679.98 509.375,1679.98 514.969,1679.98 520.563,1679.98 526.158,1679.98 531.752,1678.38 537.346,1678.38 542.94,1678.38 548.534,1678.38 554.128,1678.38 559.723,1678.38 565.317,1678.38 570.911,1678.38 576.505,1678.38 582.099,1678.38 587.694,1678.38 593.288,1678.38 598.882,1678.38 604.476,1676.78 610.07,1676.78 615.664,1676.78 621.259,1676.78 626.853,1676.78 632.447,1676.78 638.041,1676.78 643.635,1676.78 649.229,1676.78 654.824,1675.18 660.418,1675.18 666.012,1675.18 671.606,1673.58 677.2,1671.98 682.794,1671.98 688.389,1670.38 693.983,1668.78 699.577,1668.78 705.171,1668.78 710.765,1668.78 716.36,1668.78 721.954,1668.78 727.548,1668.78 733.142,1668.78 738.736,1665.58 744.33,1665.58 749.925,1660.79 755.519,1659.19 761.113,1657.59 766.707,1657.59 772.301,1655.99 777.895,1654.39 783.49,1654.39 789.084,1652.79 794.678,1651.19 800.272,1651.19 805.866,1649.59 811.461,1647.99 817.055,1647.99 822.649,1647.99 828.243,1647.99 833.837,1646.39 839.431,1646.39 845.026,1646.39 850.62,1641.59 856.214,1641.59 861.808,1641.59 867.402,1641.59 872.996,1636.79 878.591,1635.19 884.185,1635.19 889.779,1633.6 895.373,1632 900.967,1630.4 906.562,1630.4 912.156,1627.2 917.75,1627.2 923.344,1627.2 928.938,1627.2 934.532,1625.6 940.127,1624 945.721,1622.4 951.315,1617.6 956.909,1617.6 962.503,1612.8 968.097,1612.8 973.692,1612.8 979.286,1611.2 984.88,1611.2 990.474,1609.6 996.068,1606.41 1001.66,1606.41 1007.26,1603.21 1012.85,1600.01 1018.45,1600.01 1024.04,1593.61 1029.63,1593.61 1035.23,1592.01 1040.82,1592.01 1046.42,1588.81 1052.01,1588.81 1057.6,1587.21 1063.2,1587.21 1068.79,1585.61 1074.39,1585.61 1079.98,1584.01 1085.58,1580.82 1091.17,1580.82 1096.76,1577.62 1102.36,1576.02 1107.95,1571.22 1113.55,1571.22 1119.14,1569.62 1124.73,1569.62 1130.33,1566.42 1135.92,1566.42 1141.52,1564.82 1147.11,1560.02 1152.71,1558.42 1158.3,1556.82 1163.89,1556.82 1169.49,1556.82 1175.08,1552.03 1180.68,1550.43 1186.27,1545.63 1191.86,1545.63 1197.46,1544.03 1203.05,1536.03 1208.65,1534.43 1214.24,1532.83 1219.84,1529.64 1225.43,1524.84 1231.02,1523.24 1236.62,1520.04 1242.21,1515.24 1247.81,1510.44 1253.4,1508.84 1258.99,1500.85 1264.59,1500.85 1270.18,1496.05 1275.78,1494.45 1281.37,1491.25 1286.97,1489.65 1292.56,1481.65 1298.15,1475.26 1303.75,1472.06 1309.34,1462.46 1314.94,1459.26 1320.53,1452.86 1326.12,1444.87 1331.72,1441.67 1337.31,1432.07 1342.91,1425.68 1348.5,1422.48 1354.1,1414.48 1359.69,1409.68 1365.28,1406.48 1370.88,1400.09 1376.47,1395.29 1382.07,1393.69 1387.66,1387.29 1393.25,1377.69 1398.85,1371.3 1404.44,1360.1 1410.04,1356.9 1415.63,1350.5 1421.23,1345.71 1426.82,1342.51 1432.41,1334.51 1438.01,1323.31 1443.6,1313.72 1449.2,1307.32 1454.79,1304.12 1460.38,1302.52 1465.98,1296.13 1471.57,1288.13 1477.17,1280.13 1482.76,1272.13 1488.36,1265.74 1493.95,1257.74 1499.54,1249.74 1505.14,1244.94 1510.73,1240.15 1516.33,1232.15 1521.92,1222.55 1527.51,1214.56 1533.11,1204.96 1538.7,1190.57 1544.3,1190.57 1549.89,1184.17 1555.49,1174.57 1561.08,1168.17 1566.67,1160.18 1572.27,1153.78 1577.86,1148.98 1583.46,1142.58 1589.05,1140.98 1594.65,1137.79 1600.24,1128.19 1605.83,1123.39 1611.43,1113.79 1617.02,1112.2 1622.62,1107.4 1628.21,1097.8 1633.8,1094.6 1639.4,1086.61 1644.99,1073.81 1650.59,1065.81 1656.18,1054.62 1661.78,1049.82 1667.37,1041.82 1672.96,1030.63 1678.56,1024.23 1684.15,1017.83 1689.75,1009.83 1695.34,1003.44 1700.93,997.04 1706.53,989.043 1712.12,985.844 1717.72,974.648 1723.31,968.251 1728.91,961.853 1734.5,957.055 1740.09,947.459 1745.69,937.862 1751.28,931.465 1756.88,928.266 1762.47,923.468 1768.06,918.67 1773.66,915.471 1779.25,909.073 1784.85,907.474 1790.44,904.275 1796.04,897.878 1801.63,893.08 1807.22,888.281 1812.82,880.285 1818.41,875.486 1824.01,869.089 1829.6,862.691 1835.19,857.893 1840.79,854.694 1846.38,853.095 1851.98,848.297 1857.57,845.098 1863.17,840.3 1868.76,835.502 1874.35,830.704 1879.95,825.905 1885.54,821.107 1891.14,811.511 1896.73,803.514 1902.32,800.315 1907.92,797.116 1913.51,782.722 1919.11,779.523 1924.7,774.725 1930.3,769.927 1935.89,766.728 1941.48,761.93 1947.08,757.132 1952.67,752.334 1958.27,747.535 1963.86,745.936 1969.45,742.737 1975.05,742.737 1980.64,736.34 1986.24,734.74 1991.83,731.542 1997.43,726.743 2003.02,721.945 2008.61,718.746 2014.21,710.75 2019.8,707.551 2025.4,702.753 2030.99,697.954 2036.58,693.156 2042.18,691.557 2047.77,689.958 2053.37,686.759 2058.96,683.56 2064.56,678.762 2070.15,675.563 2075.74,672.364 2081.34,669.166 2086.93,665.967 2092.53,662.768 2098.12,662.768 2103.72,662.768 2109.31,659.569 2114.9,657.97 2120.5,654.771 2126.09,653.172 2131.69,651.572 2137.28,649.973 2142.87,646.774 2148.47,645.175 2154.06,641.976 2159.66,638.777 2165.25,637.178 2170.85,630.78 2176.44,627.581 2182.03,624.383 2187.63,624.383 2193.22,616.386 2198.82,614.786 2204.41,608.389 2210,608.389 2215.6,606.789 2221.19,601.991 2226.79,597.193 2232.38,593.994 2237.98,590.796 2243.57,585.997 2249.16,585.997 2254.76,584.398 2260.35,579.6 2265.95,578 2271.54,576.401 2277.13,571.603 2282.73,568.404 2288.32,565.205 2293.92,563.606 2299.51,562.007 2305.11,560.407 2310.7,557.208 2316.29,557.208 2321.89,557.208 2327.48,555.609 2333.08,552.41 2338.67,550.811 2344.26,549.212 2349.86,547.612 2355.45,546.013 2361.05,542.814 2366.64,542.814 2372.24,542.814 2377.83,542.814 2383.42,539.615 2389.02,538.016 2394.61,536.416 2400.21,536.416 2405.8,536.416 2411.39,534.817 2416.99,534.817 2422.58,533.218 2428.18,531.618 2433.77,528.42 2439.37,526.82 2444.96,526.82 2450.55,526.82 2456.15,526.82 2461.74,525.221 2467.34,518.823 2472.93,518.823 2478.52,518.823 2484.12,518.823 2489.71,518.823 2495.31,517.224 2500.9,515.624 2506.5,515.624 2512.09,514.025 2517.68,514.025 2523.28,512.426 2528.87,512.426 2534.47,512.426 2540.06,512.426 2545.65,510.826 2551.25,510.826 2556.84,510.826 2562.44,506.028 2568.03,504.429 2573.63,501.23 "/>
<path clip-path="url(#clip950)" d="M2297.58 310.833 L2561.69 310.833 L2561.69 103.473 L2297.58 103.473  Z" fill="#ffffff" fill-rule="evenodd" fill-opacity="1"/>
<polyline clip-path="url(#clip950)" style="stroke:#000000; stroke-linecap:round; stroke-linejoin:round; stroke-width:4; stroke-opacity:1; fill:none" points="2297.58,310.833 2561.69,310.833 2561.69,103.473 2297.58,103.473 2297.58,310.833 "/>
<polyline clip-path="url(#clip950)" style="stroke:#009af9; stroke-linecap:round; stroke-linejoin:round; stroke-width:4; stroke-opacity:1; fill:none" points="2323.93,155.313 2482.06,155.313 "/>
<path clip-path="url(#clip950)" d="M2530.66 139.167 L2530.66 143.728 Q2528 142.454 2525.64 141.829 Q2523.28 141.204 2521.08 141.204 Q2517.26 141.204 2515.17 142.686 Q2513.11 144.167 2513.11 146.899 Q2513.11 149.191 2514.48 150.371 Q2515.87 151.528 2519.71 152.246 L2522.54 152.825 Q2527.77 153.82 2530.24 156.343 Q2532.74 158.843 2532.74 163.056 Q2532.74 168.079 2529.36 170.672 Q2526.01 173.264 2519.5 173.264 Q2517.05 173.264 2514.27 172.709 Q2511.52 172.153 2508.55 171.065 L2508.55 166.251 Q2511.4 167.848 2514.13 168.658 Q2516.86 169.468 2519.5 169.468 Q2523.51 169.468 2525.68 167.894 Q2527.86 166.32 2527.86 163.403 Q2527.86 160.857 2526.29 159.422 Q2524.73 157.987 2521.17 157.269 L2518.32 156.714 Q2513.09 155.672 2510.75 153.45 Q2508.42 151.228 2508.42 147.269 Q2508.42 142.686 2511.63 140.047 Q2514.87 137.408 2520.55 137.408 Q2522.98 137.408 2525.5 137.848 Q2528.02 138.288 2530.66 139.167 Z" fill="#000000" fill-rule="nonzero" fill-opacity="1" /><polyline clip-path="url(#clip950)" style="stroke:#e26f46; stroke-linecap:round; stroke-linejoin:round; stroke-width:4; stroke-opacity:1; fill:none" points="2323.93,207.153 2482.06,207.153 "/>
<path clip-path="url(#clip950)" d="M2508.42 189.873 L2513.09 189.873 L2513.09 224.433 L2508.42 224.433 L2508.42 189.873 Z" fill="#000000" fill-rule="nonzero" fill-opacity="1" /><polyline clip-path="url(#clip950)" style="stroke:#3da44d; stroke-linecap:round; stroke-linejoin:round; stroke-width:4; stroke-opacity:1; fill:none" points="2323.93,258.993 2482.06,258.993 "/>
<path clip-path="url(#clip950)" d="M2524.8 260.07 Q2526.31 260.579 2527.72 262.245 Q2529.16 263.912 2530.59 266.829 L2535.34 276.273 L2530.31 276.273 L2525.89 267.407 Q2524.18 263.935 2522.56 262.801 Q2520.96 261.667 2518.18 261.667 L2513.09 261.667 L2513.09 276.273 L2508.42 276.273 L2508.42 241.713 L2518.97 241.713 Q2524.9 241.713 2527.81 244.19 Q2530.73 246.667 2530.73 251.667 Q2530.73 254.931 2529.2 257.083 Q2527.7 259.236 2524.8 260.07 M2513.09 245.556 L2513.09 257.824 L2518.97 257.824 Q2522.35 257.824 2524.06 256.273 Q2525.8 254.699 2525.8 251.667 Q2525.8 248.634 2524.06 247.107 Q2522.35 245.556 2518.97 245.556 L2513.09 245.556 Z" fill="#000000" fill-rule="nonzero" fill-opacity="1" /></svg>
