<?xml version="1.0" encoding="UTF-8" standalone="no"?>
<!DOCTYPE svg PUBLIC "-//W3C//DTD SVG 1.1//EN"
 "http://www.w3.org/Graphics/SVG/1.1/DTD/svg11.dtd">
<!-- Generated by graphviz version 2.43.0 (0)
 -->
<!-- Title: G Pages: 1 -->
<svg width="313pt" height="412pt"
 viewBox="0.00 0.00 312.78 411.61" xmlns="http://www.w3.org/2000/svg" xmlns:xlink="http://www.w3.org/1999/xlink">
<g id="graph0" class="graph" transform="scale(1 1) rotate(0) translate(4 407.61)">
<title>G</title>
<polygon fill="white" stroke="transparent" points="-4,4 -4,-407.61 308.78,-407.61 308.78,4 -4,4"/>
<!-- n1 -->
<g id="box1" class="node">
<title>n1</title>
<ellipse fill="none" stroke="black" cx="251.81" cy="-295.87" rx="52.96" ry="18"/>
<text text-anchor="middle" x="251.81" y="-292.17" font-family="Serif" font-size="14.00">i_transition</text>
</g>
<!-- n9 -->
<!-- junction -->
<g id="junction1" class="node">
<title>n9</title>
<ellipse fill="black" stroke="black" cx="262.94" cy="-350.87" rx="2.5" ry="2.5"/>
<text text-anchor="middle" x="254.94" y="-357.17" font-family="Serif" font-size="14.00">I₁</text>
</g>
<!-- n1&#45;&#45;n9 -->
<g id="edge1" class="edge">
<title>n1&#45;&#45;n9</title>
<path fill="none" stroke="black" d="M255.45,-313.88C257.99,-326.41 261.13,-341.94 262.39,-348.14"/>
</g>
<!-- n10 -->
<!-- junction -->
<g id="junction2" class="node">
<title>n10</title>
<ellipse fill="black" stroke="black" cx="247.23" cy="-236.45" rx="2.5" ry="2.5"/>
<text text-anchor="middle" x="239.23" y="-242.75" font-family="Serif" font-size="14.00">I₂</text>
</g>
<!-- n1&#45;&#45;n10 -->
<g id="edge3" class="edge">
<title>n1&#45;&#45;n10</title>
<path fill="none" stroke="black" d="M250.41,-277.72C249.33,-263.79 247.95,-245.86 247.43,-239.14"/>
</g>
<!-- n2 -->
<g id="box2" class="node">
<title>n2</title>
<ellipse fill="none" stroke="black" cx="198.89" cy="-200.81" rx="52.96" ry="18"/>
<text text-anchor="middle" x="198.89" y="-197.11" font-family="Serif" font-size="14.00">i_transition</text>
</g>
<!-- n2&#45;&#45;n10 -->
<g id="edge4" class="edge">
<title>n2&#45;&#45;n10</title>
<path fill="none" stroke="black" d="M221.08,-217.17C230.61,-224.2 240.55,-231.53 244.93,-234.76"/>
</g>
<!-- n11 -->
<!-- junction -->
<g id="junction3" class="node">
<title>n11</title>
<ellipse fill="black" stroke="black" cx="148.62" cy="-167.62" rx="2.5" ry="2.5"/>
<text text-anchor="middle" x="140.62" y="-168.92" font-family="Serif" font-size="14.00">I₃</text>
</g>
<!-- n2&#45;&#45;n11 -->
<g id="edge6" class="edge">
<title>n2&#45;&#45;n11</title>
<path fill="none" stroke="black" d="M174.64,-184.8C165,-178.43 155.18,-171.95 150.88,-169.11"/>
</g>
<!-- n3 -->
<g id="box3" class="node">
<title>n3</title>
<ellipse fill="none" stroke="black" cx="139.69" cy="-108.15" rx="52.96" ry="18"/>
<text text-anchor="middle" x="139.69" y="-104.45" font-family="Serif" font-size="14.00">i_transition</text>
</g>
<!-- n3&#45;&#45;n11 -->
<g id="edge7" class="edge">
<title>n3&#45;&#45;n11</title>
<path fill="none" stroke="black" d="M142.42,-126.31C144.51,-140.25 147.2,-158.21 148.21,-164.93"/>
</g>
<!-- n12 -->
<!-- junction -->
<g id="junction4" class="node">
<title>n12</title>
<ellipse fill="black" stroke="black" cx="119.72" cy="-52.52" rx="2.5" ry="2.5"/>
<text text-anchor="middle" x="111.72" y="-58.82" font-family="Serif" font-size="14.00">I₄</text>
</g>
<!-- n3&#45;&#45;n12 -->
<g id="edge9" class="edge">
<title>n3&#45;&#45;n12</title>
<path fill="none" stroke="black" d="M133.26,-90.24C128.61,-77.28 122.77,-61.03 120.59,-54.96"/>
</g>
<!-- n4 -->
<g id="box4" class="node">
<title>n4</title>
<ellipse fill="none" stroke="black" cx="63.58" cy="-32.3" rx="63.65" ry="18"/>
<text text-anchor="middle" x="63.58" y="-28.6" font-family="Serif" font-size="14.00">ilast_recovery</text>
</g>
<!-- n4&#45;&#45;n12 -->
<g id="edge10" class="edge">
<title>n4&#45;&#45;n12</title>
<path fill="none" stroke="black" d="M102.87,-46.46C109.06,-48.69 114.38,-50.6 117.31,-51.66"/>
</g>
<!-- n5 -->
<!-- n5&#45;&#45;n9 -->
<g id="edge2" class="edge">
<title>n5&#45;&#45;n9</title>
<path fill="none" stroke="black" d="M279.68,-402.52C278.08,-397.59 266.87,-362.99 263.74,-353.36"/>
</g>
<!-- n6 -->
<!-- n6&#45;&#45;n10 -->
<g id="edge5" class="edge">
<title>n6&#45;&#45;n10</title>
<path fill="none" stroke="black" d="M303.3,-214.07C297.9,-216.22 259.7,-231.47 249.65,-235.49"/>
</g>
<!-- n7 -->
<!-- n7&#45;&#45;n11 -->
<g id="edge8" class="edge">
<title>n7&#45;&#45;n11</title>
<path fill="none" stroke="black" d="M95.64,-197.35C100.74,-194.48 136.84,-174.23 146.33,-168.9"/>
</g>
<!-- n8 -->
<!-- n8&#45;&#45;n12 -->
<g id="edge11" class="edge">
<title>n8&#45;&#45;n12</title>
<path fill="none" stroke="black" d="M148.1,-1.08C145.37,-6.04 126.03,-41.08 120.94,-50.3"/>
</g>
</g>
</svg>
