<?xml version="1.0" encoding="UTF-8" standalone="no"?>
<!DOCTYPE svg PUBLIC "-//W3C//DTD SVG 1.1//EN"
 "http://www.w3.org/Graphics/SVG/1.1/DTD/svg11.dtd">
<!-- Generated by graphviz version 2.43.0 (0)
 -->
<!-- Title: G Pages: 1 -->
<svg width="179pt" height="216pt"
 viewBox="0.00 0.00 178.65 216.04" xmlns="http://www.w3.org/2000/svg" xmlns:xlink="http://www.w3.org/1999/xlink">
<g id="graph0" class="graph" transform="scale(1 1) rotate(0) translate(4 212.04)">
<title>G</title>
<polygon fill="white" stroke="transparent" points="-4,4 -4,-212.04 174.65,-212.04 174.65,4 -4,4"/>
<!-- n1 -->
<g id="box1" class="node">
<title>n1</title>
<ellipse fill="none" stroke="black" cx="52.98" cy="-107.87" rx="52.96" ry="18"/>
<text text-anchor="middle" x="52.98" y="-104.17" font-family="Serif" font-size="14.00">si_infection</text>
</g>
<!-- n5 -->
<!-- junction -->
<g id="junction1" class="node">
<title>n5</title>
<ellipse fill="black" stroke="black" cx="40.67" cy="-54.26" rx="2.5" ry="2.5"/>
<text text-anchor="middle" x="33.17" y="-60.56" font-family="Serif" font-size="14.00">S</text>
</g>
<!-- n1&#45;&#45;n5 -->
<g id="edge1" class="edge">
<title>n1&#45;&#45;n5</title>
<path fill="none" stroke="black" d="M48.81,-89.72C46.02,-77.57 42.63,-62.76 41.27,-56.87"/>
</g>
<!-- n6 -->
<!-- junction -->
<g id="junction2" class="node">
<title>n6</title>
<ellipse fill="black" stroke="black" cx="67.39" cy="-163.64" rx="2.5" ry="2.5"/>
<text text-anchor="middle" x="61.89" y="-169.94" font-family="Serif" font-size="14.00">I</text>
</g>
<!-- n1&#45;&#45;n6 -->
<g id="edge3" class="edge">
<title>n1&#45;&#45;n6</title>
<path fill="none" stroke="black" d="M57.62,-125.82C60.98,-138.81 65.19,-155.11 66.76,-161.2"/>
</g>
<!-- n2 -->
<g id="box2" class="node">
<title>n2</title>
<ellipse fill="none" stroke="black" cx="122.38" cy="-184.13" rx="48.04" ry="18"/>
<text text-anchor="middle" x="122.38" y="-180.43" font-family="Serif" font-size="14.00">i_recovery</text>
</g>
<!-- n2&#45;&#45;n6 -->
<g id="edge4" class="edge">
<title>n2&#45;&#45;n6</title>
<path fill="none" stroke="black" d="M88.18,-171.39C80.49,-168.52 73.55,-165.93 69.96,-164.6"/>
</g>
<!-- n3 -->
<!-- n3&#45;&#45;n5 -->
<g id="edge2" class="edge">
<title>n3&#45;&#45;n5</title>
<path fill="none" stroke="black" d="M32.62,-1.1C33.39,-6.18 38.78,-41.79 40.29,-51.71"/>
</g>
<!-- n4 -->
<!-- n4&#45;&#45;n6 -->
<g id="edge5" class="edge">
<title>n4&#45;&#45;n6</title>
<path fill="none" stroke="black" d="M29.16,-206.77C33.6,-201.76 58.65,-173.51 65.6,-165.66"/>
</g>
</g>
</svg>
