<?xml version="1.0" encoding="UTF-8" standalone="no"?>
<!DOCTYPE svg PUBLIC "-//W3C//DTD SVG 1.1//EN"
 "http://www.w3.org/Graphics/SVG/1.1/DTD/svg11.dtd">
<!-- Generated by graphviz version 2.43.0 (0)
 -->
<!-- Title: G Pages: 1 -->
<svg width="180pt" height="207pt"
 viewBox="0.00 0.00 180.36 206.71" xmlns="http://www.w3.org/2000/svg" xmlns:xlink="http://www.w3.org/1999/xlink">
<g id="graph0" class="graph" transform="scale(1 1) rotate(0) translate(4 202.71)">
<title>G</title>
<polygon fill="white" stroke="transparent" points="-4,4 -4,-202.71 176.36,-202.71 176.36,4 -4,4"/>
<!-- n1 -->
<g id="box1" class="node">
<title>n1</title>
<ellipse fill="none" stroke="black" cx="52.98" cy="-94.31" rx="52.96" ry="18"/>
<text text-anchor="middle" x="52.98" y="-90.61" font-family="Serif" font-size="14.00">si_infection</text>
</g>
<!-- n6 -->
<!-- junction -->
<g id="junction1" class="node">
<title>n6</title>
<ellipse fill="black" stroke="black" cx="49.6" cy="-153.12" rx="2.5" ry="2.5"/>
<text text-anchor="middle" x="42.1" y="-159.42" font-family="Serif" font-size="14.00">S</text>
</g>
<!-- n1&#45;&#45;n6 -->
<g id="edge1" class="edge">
<title>n1&#45;&#45;n6</title>
<path fill="none" stroke="black" d="M51.93,-112.6C51.14,-126.35 50.13,-143.92 49.75,-150.49"/>
</g>
<!-- n7 -->
<!-- junction -->
<g id="junction2" class="node">
<title>n7</title>
<ellipse fill="black" stroke="black" cx="111.89" cy="-77.62" rx="2.5" ry="2.5"/>
<text text-anchor="middle" x="106.39" y="-63.92" font-family="Serif" font-size="14.00">I</text>
</g>
<!-- n1&#45;&#45;n7 -->
<g id="edge4" class="edge">
<title>n1&#45;&#45;n7</title>
<path fill="none" stroke="black" d="M93.9,-82.72C100.49,-80.85 106.18,-79.24 109.31,-78.35"/>
</g>
<!-- n2 -->
<g id="box2" class="node">
<title>n2</title>
<ellipse fill="none" stroke="black" cx="105.16" cy="-18" rx="48.04" ry="18"/>
<text text-anchor="middle" x="105.16" y="-14.3" font-family="Serif" font-size="14.00">i_recovery</text>
</g>
<!-- n2&#45;&#45;n7 -->
<g id="edge5" class="edge">
<title>n2&#45;&#45;n7</title>
<path fill="none" stroke="black" d="M107.22,-36.21C108.79,-50.18 110.83,-68.18 111.59,-74.92"/>
</g>
<!-- n3 -->
<g id="box3" class="node">
<title>n3</title>
<ellipse fill="none" stroke="black" cx="106.86" cy="-138.53" rx="60.76" ry="18"/>
<text text-anchor="middle" x="106.86" y="-134.83" font-family="Serif" font-size="14.00">is_birthdeath</text>
</g>
<!-- n3&#45;&#45;n6 -->
<g id="edge2" class="edge">
<title>n3&#45;&#45;n6</title>
<path fill="none" stroke="black" d="M60.64,-150.31C57.18,-151.19 54.28,-151.93 52.32,-152.43"/>
</g>
<!-- n3&#45;&#45;n7 -->
<g id="edge6" class="edge">
<title>n3&#45;&#45;n7</title>
<path fill="none" stroke="black" d="M108.37,-120.26C109.55,-105.96 111.09,-87.38 111.66,-80.41"/>
</g>
<!-- n4 -->
<!-- n4&#45;&#45;n6 -->
<g id="edge3" class="edge">
<title>n4&#45;&#45;n6</title>
<path fill="none" stroke="black" d="M16.53,-197.71C19.68,-193.45 41.84,-163.58 48.01,-155.27"/>
</g>
<!-- n5 -->
<!-- n5&#45;&#45;n7 -->
<g id="edge7" class="edge">
<title>n5&#45;&#45;n7</title>
<path fill="none" stroke="black" d="M171.18,-73.51C165.47,-73.91 125.08,-76.71 114.45,-77.44"/>
</g>
</g>
</svg>
