<?xml version="1.0" encoding="UTF-8" standalone="no"?>
<!DOCTYPE svg PUBLIC "-//W3C//DTD SVG 1.1//EN"
 "http://www.w3.org/Graphics/SVG/1.1/DTD/svg11.dtd">
<!-- Generated by graphviz version 2.43.0 (0)
 -->
<!-- Title: G Pages: 1 -->
<svg width="303pt" height="336pt"
 viewBox="0.00 0.00 302.95 335.96" xmlns="http://www.w3.org/2000/svg" xmlns:xlink="http://www.w3.org/1999/xlink">
<g id="graph0" class="graph" transform="scale(1 1) rotate(0) translate(4 331.96)">
<title>G</title>
<polygon fill="white" stroke="transparent" points="-4,4 -4,-331.96 298.95,-331.96 298.95,4 -4,4"/>
<!-- n1 -->
<g id="box1" class="node">
<title>n1</title>
<ellipse fill="none" stroke="black" cx="241.97" cy="-182.03" rx="52.96" ry="18"/>
<text text-anchor="middle" x="241.97" y="-178.33" font-family="Serif" font-size="14.00">si_infection</text>
</g>
<!-- n14 -->
<!-- junction -->
<g id="junction1" class="node">
<title>n14</title>
<ellipse fill="black" stroke="black" cx="184.23" cy="-185.2" rx="2.5" ry="2.5"/>
<text text-anchor="middle" x="176.73" y="-186.5" font-family="Serif" font-size="14.00">S</text>
</g>
<!-- n1&#45;&#45;n14 -->
<g id="edge1" class="edge">
<title>n1&#45;&#45;n14</title>
<path fill="none" stroke="black" d="M189.56,-184.9C188.53,-184.96 187.62,-185.01 186.86,-185.05"/>
</g>
<!-- n15 -->
<!-- junction -->
<g id="junction2" class="node">
<title>n15</title>
<ellipse fill="black" stroke="black" cx="192.7" cy="-151.28" rx="2.5" ry="2.5"/>
<text text-anchor="middle" x="195.7" y="-137.58" font-family="Serif" font-size="14.00">I₁</text>
</g>
<!-- n1&#45;&#45;n15 -->
<g id="edge6" class="edge">
<title>n1&#45;&#45;n15</title>
<path fill="none" stroke="black" d="M216.47,-166.11C207.64,-160.6 198.96,-155.18 194.97,-152.69"/>
</g>
<!-- n2 -->
<g id="box2" class="node">
<title>n2</title>
<ellipse fill="none" stroke="black" cx="175.99" cy="-113.7" rx="55.17" ry="18"/>
<text text-anchor="middle" x="175.99" y="-110" font-family="Serif" font-size="14.00">sii_infection</text>
</g>
<!-- n2&#45;&#45;n14 -->
<g id="edge2" class="edge">
<title>n2&#45;&#45;n14</title>
<path fill="none" stroke="black" d="M178.07,-131.74C180.09,-149.28 182.99,-174.43 183.93,-182.55"/>
</g>
<!-- n2&#45;&#45;n15 -->
<g id="edge7" class="edge">
<title>n2&#45;&#45;n15</title>
<path fill="none" stroke="black" d="M183.95,-131.61C186.91,-138.26 189.93,-145.06 191.54,-148.66"/>
</g>
<!-- n16 -->
<!-- junction -->
<g id="junction3" class="node">
<title>n16</title>
<ellipse fill="black" stroke="black" cx="143.87" cy="-60.61" rx="2.5" ry="2.5"/>
<text text-anchor="middle" x="135.87" y="-46.91" font-family="Serif" font-size="14.00">I₂</text>
</g>
<!-- n2&#45;&#45;n16 -->
<g id="edge12" class="edge">
<title>n2&#45;&#45;n16</title>
<path fill="none" stroke="black" d="M165.29,-96.02C157.85,-83.72 148.67,-68.54 145.24,-62.88"/>
</g>
<!-- n3 -->
<g id="box3" class="node">
<title>n3</title>
<ellipse fill="none" stroke="black" cx="133.65" cy="-155.97" rx="55.17" ry="18"/>
<text text-anchor="middle" x="133.65" y="-152.27" font-family="Serif" font-size="14.00">sii_infection</text>
</g>
<!-- n3&#45;&#45;n14 -->
<g id="edge3" class="edge">
<title>n3&#45;&#45;n14</title>
<path fill="none" stroke="black" d="M161.01,-171.78C169.77,-176.84 178.19,-181.7 182.04,-183.93"/>
</g>
<!-- n3&#45;&#45;n15 -->
<g id="edge8" class="edge">
<title>n3&#45;&#45;n15</title>
<path fill="none" stroke="black" d="M187.66,-151.68C188.45,-151.61 189.15,-151.56 189.77,-151.51"/>
</g>
<!-- n17 -->
<!-- junction -->
<g id="junction4" class="node">
<title>n17</title>
<ellipse fill="black" stroke="black" cx="72.3" cy="-143.13" rx="2.5" ry="2.5"/>
<text text-anchor="middle" x="64.3" y="-149.43" font-family="Serif" font-size="14.00">I₃</text>
</g>
<!-- n3&#45;&#45;n17 -->
<g id="edge16" class="edge">
<title>n3&#45;&#45;n17</title>
<path fill="none" stroke="black" d="M86.84,-146.17C81.85,-145.13 77.66,-144.25 75.08,-143.71"/>
</g>
<!-- n4 -->
<g id="box4" class="node">
<title>n4</title>
<ellipse fill="none" stroke="black" cx="156.17" cy="-218.02" rx="55.17" ry="18"/>
<text text-anchor="middle" x="156.17" y="-214.32" font-family="Serif" font-size="14.00">sii_infection</text>
</g>
<!-- n4&#45;&#45;n14 -->
<g id="edge4" class="edge">
<title>n4&#45;&#45;n14</title>
<path fill="none" stroke="black" d="M171.19,-200.46C175.78,-195.09 180.22,-189.89 182.55,-187.16"/>
</g>
<!-- n4&#45;&#45;n15 -->
<g id="edge9" class="edge">
<title>n4&#45;&#45;n15</title>
<path fill="none" stroke="black" d="M165.96,-200.14C174.92,-183.76 187.38,-161 191.39,-153.66"/>
</g>
<!-- n18 -->
<!-- junction -->
<g id="junction5" class="node">
<title>n18</title>
<ellipse fill="black" stroke="black" cx="99.84" cy="-248.96" rx="2.5" ry="2.5"/>
<text text-anchor="middle" x="91.84" y="-255.26" font-family="Serif" font-size="14.00">I₄</text>
</g>
<!-- n4&#45;&#45;n18 -->
<g id="edge20" class="edge">
<title>n4&#45;&#45;n18</title>
<path fill="none" stroke="black" d="M127.68,-233.68C117.2,-239.43 106.78,-245.15 102.22,-247.65"/>
</g>
<!-- n5 -->
<g id="box5" class="node">
<title>n5</title>
<ellipse fill="none" stroke="black" cx="197.73" cy="-81.09" rx="52.96" ry="18"/>
<text text-anchor="middle" x="197.73" y="-77.39" font-family="Serif" font-size="14.00">i_transition</text>
</g>
<!-- n5&#45;&#45;n15 -->
<g id="edge10" class="edge">
<title>n5&#45;&#45;n15</title>
<path fill="none" stroke="black" d="M196.44,-99.16C195.2,-116.38 193.45,-140.82 192.88,-148.71"/>
</g>
<!-- n5&#45;&#45;n16 -->
<g id="edge13" class="edge">
<title>n5&#45;&#45;n16</title>
<path fill="none" stroke="black" d="M162.41,-67.66C155.75,-65.13 149.84,-62.88 146.58,-61.64"/>
</g>
<!-- n6 -->
<g id="box6" class="node">
<title>n6</title>
<ellipse fill="none" stroke="black" cx="82.22" cy="-79.3" rx="52.96" ry="18"/>
<text text-anchor="middle" x="82.22" y="-75.6" font-family="Serif" font-size="14.00">i_transition</text>
</g>
<!-- n6&#45;&#45;n16 -->
<g id="edge14" class="edge">
<title>n6&#45;&#45;n16</title>
<path fill="none" stroke="black" d="M121.96,-67.26C130.16,-64.77 137.44,-62.56 141.19,-61.43"/>
</g>
<!-- n6&#45;&#45;n17 -->
<g id="edge17" class="edge">
<title>n6&#45;&#45;n17</title>
<path fill="none" stroke="black" d="M79.4,-97.42C77.02,-112.76 73.82,-133.35 72.7,-140.53"/>
</g>
<!-- n7 -->
<g id="box7" class="node">
<title>n7</title>
<ellipse fill="none" stroke="black" cx="52.98" cy="-204" rx="52.96" ry="18"/>
<text text-anchor="middle" x="52.98" y="-200.3" font-family="Serif" font-size="14.00">i_transition</text>
</g>
<!-- n7&#45;&#45;n17 -->
<g id="edge18" class="edge">
<title>n7&#45;&#45;n17</title>
<path fill="none" stroke="black" d="M58.67,-186.07C63.3,-171.48 69.41,-152.25 71.53,-145.56"/>
</g>
<!-- n7&#45;&#45;n18 -->
<g id="edge21" class="edge">
<title>n7&#45;&#45;n18</title>
<path fill="none" stroke="black" d="M70.7,-221C81.27,-231.15 93.5,-242.88 98.03,-247.23"/>
</g>
<!-- n8 -->
<g id="box8" class="node">
<title>n8</title>
<ellipse fill="none" stroke="black" cx="114.09" cy="-309.96" rx="63.65" ry="18"/>
<text text-anchor="middle" x="114.09" y="-306.26" font-family="Serif" font-size="14.00">ilast_recovery</text>
</g>
<!-- n8&#45;&#45;n18 -->
<g id="edge22" class="edge">
<title>n8&#45;&#45;n18</title>
<path fill="none" stroke="black" d="M109.89,-291.99C106.54,-277.65 102.15,-258.84 100.5,-251.79"/>
</g>
<!-- n9 -->
<!-- n9&#45;&#45;n14 -->
<g id="edge5" class="edge">
<title>n9&#45;&#45;n14</title>
<path fill="none" stroke="black" d="M224.75,-239.1C220.81,-233.86 192.74,-196.52 185.79,-187.27"/>
</g>
<!-- n10 -->
<!-- n10&#45;&#45;n15 -->
<g id="edge11" class="edge">
<title>n10&#45;&#45;n15</title>
<path fill="none" stroke="black" d="M255.82,-131.84C249.68,-133.73 205.96,-147.19 195.12,-150.53"/>
</g>
<!-- n11 -->
<!-- n11&#45;&#45;n16 -->
<g id="edge15" class="edge">
<title>n11&#45;&#45;n16</title>
<path fill="none" stroke="black" d="M147.63,-1.18C147.27,-6.9 144.71,-47.4 144.03,-58.05"/>
</g>
<!-- n12 -->
<!-- n12&#45;&#45;n17 -->
<g id="edge19" class="edge">
<title>n12&#45;&#45;n17</title>
<path fill="none" stroke="black" d="M13.57,-127.92C19.23,-129.39 59.24,-139.75 69.77,-142.48"/>
</g>
<!-- n13 -->
<!-- n13&#45;&#45;n18 -->
<g id="edge23" class="edge">
<title>n13&#45;&#45;n18</title>
<path fill="none" stroke="black" d="M54.62,-288.21C58.93,-284.46 89.23,-258.17 97.66,-250.85"/>
</g>
</g>
</svg>
