<?xml version="1.0" encoding="UTF-8" standalone="no"?>
<!DOCTYPE svg PUBLIC "-//W3C//DTD SVG 1.1//EN"
 "http://www.w3.org/Graphics/SVG/1.1/DTD/svg11.dtd">
<!-- Generated by graphviz version 2.43.0 (0)
 -->
<!-- Title: G Pages: 1 -->
<svg width="287pt" height="313pt"
 viewBox="0.00 0.00 287.21 312.57" xmlns="http://www.w3.org/2000/svg" xmlns:xlink="http://www.w3.org/1999/xlink">
<g id="graph0" class="graph" transform="scale(1 1) rotate(0) translate(4 308.57)">
<title>G</title>
<polygon fill="white" stroke="transparent" points="-4,4 -4,-308.57 283.21,-308.57 283.21,4 -4,4"/>
<!-- n1 -->
<g id="box1" class="node">
<title>n1</title>
<ellipse fill="none" stroke="black" cx="150.82" cy="-86.31" rx="52.96" ry="18"/>
<text text-anchor="middle" x="150.82" y="-82.61" font-family="Serif" font-size="14.00">si_infection</text>
</g>
<!-- n10 -->
<!-- junction -->
<g id="junction1" class="node">
<title>n10</title>
<ellipse fill="black" stroke="black" cx="181.28" cy="-131.29" rx="2.5" ry="2.5"/>
<text text-anchor="middle" x="173.78" y="-137.59" font-family="Serif" font-size="14.00">S</text>
</g>
<!-- n1&#45;&#45;n10 -->
<g id="edge1" class="edge">
<title>n1&#45;&#45;n10</title>
<path fill="none" stroke="black" d="M162.85,-104.09C169.24,-113.52 176.41,-124.1 179.6,-128.81"/>
</g>
<!-- n11 -->
<!-- junction -->
<g id="junction2" class="node">
<title>n11</title>
<ellipse fill="black" stroke="black" cx="146.71" cy="-140.43" rx="2.5" ry="2.5"/>
<text text-anchor="middle" x="138.71" y="-146.73" font-family="Serif" font-size="14.00">I₁</text>
</g>
<!-- n1&#45;&#45;n11 -->
<g id="edge6" class="edge">
<title>n1&#45;&#45;n11</title>
<path fill="none" stroke="black" d="M149.45,-104.33C148.52,-116.63 147.37,-131.75 146.91,-137.77"/>
</g>
<!-- n2 -->
<g id="box2" class="node">
<title>n2</title>
<ellipse fill="none" stroke="black" cx="107.88" cy="-112.29" rx="55.17" ry="18"/>
<text text-anchor="middle" x="107.88" y="-108.59" font-family="Serif" font-size="14.00">sii_infection</text>
</g>
<!-- n2&#45;&#45;n10 -->
<g id="edge2" class="edge">
<title>n2&#45;&#45;n10</title>
<path fill="none" stroke="black" d="M151.42,-123.56C163.28,-126.63 174.14,-129.44 178.83,-130.66"/>
</g>
<!-- n2&#45;&#45;n11 -->
<g id="edge7" class="edge">
<title>n2&#45;&#45;n11</title>
<path fill="none" stroke="black" d="M130.92,-128.99C136.41,-132.96 141.49,-136.65 144.34,-138.72"/>
</g>
<!-- n12 -->
<!-- junction -->
<g id="junction3" class="node">
<title>n12</title>
<ellipse fill="black" stroke="black" cx="52.16" cy="-89.12" rx="2.5" ry="2.5"/>
<text text-anchor="middle" x="44.16" y="-95.42" font-family="Serif" font-size="14.00">I₂</text>
</g>
<!-- n2&#45;&#45;n12 -->
<g id="edge11" class="edge">
<title>n2&#45;&#45;n12</title>
<path fill="none" stroke="black" d="M73.54,-98.01C65.66,-94.74 58.51,-91.76 54.81,-90.22"/>
</g>
<!-- n3 -->
<g id="box3" class="node">
<title>n3</title>
<ellipse fill="none" stroke="black" cx="201.19" cy="-87.7" rx="55.17" ry="18"/>
<text text-anchor="middle" x="201.19" y="-84" font-family="Serif" font-size="14.00">sii_infection</text>
</g>
<!-- n3&#45;&#45;n10 -->
<g id="edge3" class="edge">
<title>n3&#45;&#45;n10</title>
<path fill="none" stroke="black" d="M192.98,-105.68C188.86,-114.68 184.34,-124.59 182.33,-128.97"/>
</g>
<!-- n3&#45;&#45;n11 -->
<g id="edge8" class="edge">
<title>n3&#45;&#45;n11</title>
<path fill="none" stroke="black" d="M183.36,-104.96C170.45,-117.46 154.32,-133.07 148.73,-138.48"/>
</g>
<!-- n13 -->
<!-- junction -->
<g id="junction4" class="node">
<title>n13</title>
<ellipse fill="black" stroke="black" cx="238.76" cy="-40.47" rx="2.5" ry="2.5"/>
<text text-anchor="middle" x="230.76" y="-46.77" font-family="Serif" font-size="14.00">I₃</text>
</g>
<!-- n3&#45;&#45;n13 -->
<g id="edge13" class="edge">
<title>n3&#45;&#45;n13</title>
<path fill="none" stroke="black" d="M215.18,-70.11C223.53,-59.62 233.22,-47.43 237.07,-42.59"/>
</g>
<!-- n4 -->
<g id="box4" class="node">
<title>n4</title>
<ellipse fill="none" stroke="black" cx="178.66" cy="-191.55" rx="55.17" ry="18"/>
<text text-anchor="middle" x="178.66" y="-187.85" font-family="Serif" font-size="14.00">sii_infection</text>
</g>
<!-- n4&#45;&#45;n10 -->
<g id="edge4" class="edge">
<title>n4&#45;&#45;n10</title>
<path fill="none" stroke="black" d="M179.45,-173.47C180.06,-159.32 180.86,-140.94 181.16,-134.05"/>
</g>
<!-- n4&#45;&#45;n11 -->
<g id="edge9" class="edge">
<title>n4&#45;&#45;n11</title>
<path fill="none" stroke="black" d="M167.49,-173.67C160.29,-162.16 151.66,-148.35 148.23,-142.86"/>
</g>
<!-- n14 -->
<!-- junction -->
<g id="junction5" class="node">
<title>n14</title>
<ellipse fill="black" stroke="black" cx="194.26" cy="-248.53" rx="2.5" ry="2.5"/>
<text text-anchor="middle" x="186.26" y="-254.83" font-family="Serif" font-size="14.00">I₄</text>
</g>
<!-- n4&#45;&#45;n14 -->
<g id="edge15" class="edge">
<title>n4&#45;&#45;n14</title>
<path fill="none" stroke="black" d="M183.6,-209.58C187.24,-222.88 191.84,-239.71 193.57,-246"/>
</g>
<!-- n5 -->
<!-- n5&#45;&#45;n10 -->
<g id="edge5" class="edge">
<title>n5&#45;&#45;n10</title>
<path fill="none" stroke="black" d="M243.54,-143.31C237.54,-142.15 195.12,-133.96 183.96,-131.81"/>
</g>
<!-- n6 -->
<!-- n6&#45;&#45;n11 -->
<g id="edge10" class="edge">
<title>n6&#45;&#45;n11</title>
<path fill="none" stroke="black" d="M98.23,-181.34C102.9,-177.4 135.93,-149.53 144.62,-142.2"/>
</g>
<!-- n7 -->
<!-- n7&#45;&#45;n12 -->
<g id="edge12" class="edge">
<title>n7&#45;&#45;n12</title>
<path fill="none" stroke="black" d="M1.08,-66.68C5.96,-68.83 40.18,-83.86 49.7,-88.04"/>
</g>
<!-- n8 -->
<!-- n8&#45;&#45;n13 -->
<g id="edge14" class="edge">
<title>n8&#45;&#45;n13</title>
<path fill="none" stroke="black" d="M278.01,-1.19C273.45,-5.75 247.74,-31.48 240.6,-38.63"/>
</g>
<!-- n9 -->
<!-- n9&#45;&#45;n14 -->
<g id="edge16" class="edge">
<title>n9&#45;&#45;n14</title>
<path fill="none" stroke="black" d="M202.22,-303.45C201.46,-298.21 196.12,-261.41 194.64,-251.17"/>
</g>
</g>
</svg>
