<?xml version="1.0" encoding="UTF-8" standalone="no"?>
<!DOCTYPE svg PUBLIC "-//W3C//DTD SVG 1.1//EN"
 "http://www.w3.org/Graphics/SVG/1.1/DTD/svg11.dtd">
<!-- Generated by graphviz version 2.43.0 (0)
 -->
<!-- Title: G Pages: 1 -->
<svg width="137pt" height="126pt"
 viewBox="0.00 0.00 137.37 126.09" xmlns="http://www.w3.org/2000/svg" xmlns:xlink="http://www.w3.org/1999/xlink">
<g id="graph0" class="graph" transform="scale(1 1) rotate(0) translate(4 122.09)">
<title>G</title>
<polygon fill="white" stroke="transparent" points="-4,4 -4,-122.09 133.37,-122.09 133.37,4 -4,4"/>
<!-- n1 -->
<!-- susceptible_cm -->
<g id="n1" class="node">
<title>n1</title>
<polygon fill="none" stroke="black" points="0.5,-75.31 0.5,-100.31 119.5,-100.31 119.5,-75.31 0.5,-75.31"/>
<text text-anchor="start" x="5.5" y="-84.11" font-family="Serif" font-size="14.00">susceptible_cm</text>
</g>
<!-- n2 -->
<!-- infected_cm -->
<g id="n2" class="node">
<title>n2</title>
<polygon fill="none" stroke="black" points="12.5,-14.31 12.5,-39.31 108.5,-39.31 108.5,-14.31 12.5,-14.31"/>
<text text-anchor="start" x="17.5" y="-23.11" font-family="Serif" font-size="14.00">infected_cm</text>
</g>
<!-- n1&#45;&gt;n2 -->
<!-- pop -->
<g id="e1" class="edge">
<title>n1:s&#45;&gt;n2:n</title>
<path fill="none" stroke="black" d="M60.5,-75.81C60.5,-61.69 60.5,-56.92 60.5,-44.98"/>
<polygon fill="black" stroke="black" points="62.25,-44.81 60.5,-39.81 58.75,-44.81 62.25,-44.81"/>
</g>
<!-- n2&#45;&gt;n1 -->
<!-- pop -->
<g id="e2" class="edge">
<title>n2:s&#45;&gt;n1:n</title>
<path fill="none" stroke="black" d="M60.5,-13.31C60.5,8.02 92.34,-0.38 108.5,-14.31 132.43,-34.93 134.61,-84.43 119,-100.31 102.05,-117.55 66.05,-126.08 61.08,-106.3"/>
<polygon fill="black" stroke="black" points="62.81,-106.08 60.5,-101.31 59.34,-106.48 62.81,-106.08"/>
</g>
</g>
</svg>
