<?xml version="1.0" encoding="UTF-8" standalone="no"?>
<!DOCTYPE svg PUBLIC "-//W3C//DTD SVG 1.1//EN"
 "http://www.w3.org/Graphics/SVG/1.1/DTD/svg11.dtd">
<!-- Generated by graphviz version 2.43.0 (0)
 -->
<!-- Title: G Pages: 1 -->
<svg width="229pt" height="246pt"
 viewBox="0.00 0.00 228.53 246.43" xmlns="http://www.w3.org/2000/svg" xmlns:xlink="http://www.w3.org/1999/xlink">
<g id="graph0" class="graph" transform="scale(1 1) rotate(0) translate(4 242.43)">
<title>G</title>
<polygon fill="white" stroke="transparent" points="-4,4 -4,-242.43 224.53,-242.43 224.53,4 -4,4"/>
<!-- n1 -->
<g id="box1" class="node">
<title>n1</title>
<ellipse fill="none" stroke="black" cx="106.28" cy="-122.15" rx="31.4" ry="18"/>
<text text-anchor="middle" x="106.28" y="-118.45" font-family="Serif" font-size="14.00">si_box</text>
</g>
<!-- n8 -->
<!-- junction -->
<g id="junction1" class="node">
<title>n8</title>
<ellipse fill="black" stroke="black" cx="116.92" cy="-58.14" rx="2.5" ry="2.5"/>
<text text-anchor="middle" x="109.42" y="-64.44" font-family="Serif" font-size="14.00">S</text>
</g>
<!-- n1&#45;&#45;n8 -->
<g id="edge1" class="edge">
<title>n1&#45;&#45;n8</title>
<path fill="none" stroke="black" d="M109.3,-103.98C111.86,-88.6 115.29,-67.95 116.49,-60.75"/>
</g>
<!-- n9 -->
<!-- junction -->
<g id="junction2" class="node">
<title>n9</title>
<ellipse fill="black" stroke="black" cx="56.86" cy="-171.4" rx="2.5" ry="2.5"/>
<text text-anchor="middle" x="48.86" y="-177.7" font-family="Serif" font-size="14.00">I₁</text>
</g>
<!-- n1&#45;&#45;n9 -->
<g id="edge3" class="edge">
<title>n1&#45;&#45;n9</title>
<path fill="none" stroke="black" d="M90.65,-137.73C78.88,-149.46 63.93,-164.35 58.74,-169.53"/>
</g>
<!-- n10 -->
<!-- junction -->
<g id="junction3" class="node">
<title>n10</title>
<ellipse fill="black" stroke="black" cx="160.48" cy="-124.62" rx="2.5" ry="2.5"/>
<text text-anchor="middle" x="152.48" y="-130.92" font-family="Serif" font-size="14.00">I₂</text>
</g>
<!-- n1&#45;&#45;n10 -->
<g id="edge6" class="edge">
<title>n1&#45;&#45;n10</title>
<path fill="none" stroke="black" d="M137.5,-123.57C145.97,-123.96 153.89,-124.32 157.85,-124.5"/>
</g>
<!-- n11 -->
<!-- junction -->
<g id="junction4" class="node">
<title>n11</title>
<ellipse fill="black" stroke="black" cx="137.7" cy="-184.35" rx="2.5" ry="2.5"/>
<text text-anchor="middle" x="129.7" y="-190.65" font-family="Serif" font-size="14.00">I₃</text>
</g>
<!-- n1&#45;&#45;n11 -->
<g id="edge9" class="edge">
<title>n1&#45;&#45;n11</title>
<path fill="none" stroke="black" d="M115.03,-139.48C122.58,-154.43 132.83,-174.71 136.4,-181.79"/>
</g>
<!-- n12 -->
<!-- junction -->
<g id="junction5" class="node">
<title>n12</title>
<ellipse fill="black" stroke="black" cx="54.05" cy="-107.45" rx="2.5" ry="2.5"/>
<text text-anchor="middle" x="46.05" y="-113.75" font-family="Serif" font-size="14.00">I₄</text>
</g>
<!-- n1&#45;&#45;n12 -->
<g id="edge12" class="edge">
<title>n1&#45;&#45;n12</title>
<path fill="none" stroke="black" d="M78.02,-114.2C69.18,-111.71 60.66,-109.32 56.57,-108.16"/>
</g>
<!-- n2 -->
<g id="box2" class="node">
<title>n2</title>
<ellipse fill="none" stroke="black" cx="100.76" cy="-156.01" rx="26.48" ry="18"/>
<text text-anchor="middle" x="100.76" y="-152.31" font-family="Serif" font-size="14.00">i_box</text>
</g>
<!-- n2&#45;&#45;n9 -->
<g id="edge4" class="edge">
<title>n2&#45;&#45;n9</title>
<path fill="none" stroke="black" d="M77.01,-164.34C69.9,-166.83 63.04,-169.23 59.45,-170.49"/>
</g>
<!-- n2&#45;&#45;n10 -->
<g id="edge7" class="edge">
<title>n2&#45;&#45;n10</title>
<path fill="none" stroke="black" d="M121.98,-144.86C135.66,-137.66 151.99,-129.08 158.05,-125.89"/>
</g>
<!-- n2&#45;&#45;n11 -->
<g id="edge10" class="edge">
<title>n2&#45;&#45;n11</title>
<path fill="none" stroke="black" d="M118.36,-169.52C125.2,-174.77 132.2,-180.13 135.59,-182.74"/>
</g>
<!-- n2&#45;&#45;n12 -->
<g id="edge13" class="edge">
<title>n2&#45;&#45;n12</title>
<path fill="none" stroke="black" d="M86.23,-140.92C75.09,-129.33 60.81,-114.48 55.84,-109.32"/>
</g>
<!-- n3 -->
<!-- n3&#45;&#45;n8 -->
<g id="edge2" class="edge">
<title>n3&#45;&#45;n8</title>
<path fill="none" stroke="black" d="M126.09,-1.15C125.21,-6.59 119.07,-44.77 117.36,-55.4"/>
</g>
<!-- n4 -->
<!-- n4&#45;&#45;n9 -->
<g id="edge5" class="edge">
<title>n4&#45;&#45;n9</title>
<path fill="none" stroke="black" d="M17.18,-213.51C21.79,-208.62 47.78,-181.03 55,-173.37"/>
</g>
<!-- n5 -->
<!-- n5&#45;&#45;n10 -->
<g id="edge8" class="edge">
<title>n5&#45;&#45;n10</title>
<path fill="none" stroke="black" d="M219.36,-118.09C213.69,-118.71 173.58,-123.17 163.02,-124.34"/>
</g>
<!-- n6 -->
<!-- n6&#45;&#45;n11 -->
<g id="edge11" class="edge">
<title>n6&#45;&#45;n11</title>
<path fill="none" stroke="black" d="M161.97,-237.32C159.63,-232.22 143.09,-196.13 138.74,-186.64"/>
</g>
<!-- n7 -->
<!-- n7&#45;&#45;n12 -->
<g id="edge14" class="edge">
<title>n7&#45;&#45;n12</title>
<path fill="none" stroke="black" d="M1.1,-81C6.2,-83.55 42.27,-101.57 51.76,-106.31"/>
</g>
</g>
</svg>
