<?xml version="1.0" encoding="utf-8"?>
<svg xmlns="http://www.w3.org/2000/svg" xmlns:xlink="http://www.w3.org/1999/xlink" width="576" height="384" viewBox="0 0 2304 1536">
<defs>
  <clipPath id="clip010">
    <rect x="0" y="0" width="2304" height="1536"/>
  </clipPath>
</defs>
<path clip-path="url(#clip010)" d="M0 1536 L2304 1536 L2304 0 L0 0  Z" fill="#ffffff" fill-rule="evenodd" fill-opacity="1"/>
<defs>
  <clipPath id="clip011">
    <rect x="460" y="0" width="1614" height="1536"/>
  </clipPath>
</defs>
<path clip-path="url(#clip010)" d="M261.591 1359.82 L2256.76 1359.82 L2256.76 47.2441 L261.591 47.2441  Z" fill="#ffffff" fill-rule="evenodd" fill-opacity="1"/>
<defs>
  <clipPath id="clip012">
    <rect x="261" y="47" width="1996" height="1314"/>
  </clipPath>
</defs>
<polyline clip-path="url(#clip012)" style="stroke:#000000; stroke-linecap:round; stroke-linejoin:round; stroke-width:2; stroke-opacity:0.1; fill:none" points="318.058,1359.82 318.058,47.2441 "/>
<polyline clip-path="url(#clip012)" style="stroke:#000000; stroke-linecap:round; stroke-linejoin:round; stroke-width:2; stroke-opacity:0.1; fill:none" points="788.616,1359.82 788.616,47.2441 "/>
<polyline clip-path="url(#clip012)" style="stroke:#000000; stroke-linecap:round; stroke-linejoin:round; stroke-width:2; stroke-opacity:0.1; fill:none" points="1259.17,1359.82 1259.17,47.2441 "/>
<polyline clip-path="url(#clip012)" style="stroke:#000000; stroke-linecap:round; stroke-linejoin:round; stroke-width:2; stroke-opacity:0.1; fill:none" points="1729.73,1359.82 1729.73,47.2441 "/>
<polyline clip-path="url(#clip012)" style="stroke:#000000; stroke-linecap:round; stroke-linejoin:round; stroke-width:2; stroke-opacity:0.1; fill:none" points="2200.29,1359.82 2200.29,47.2441 "/>
<polyline clip-path="url(#clip010)" style="stroke:#000000; stroke-linecap:round; stroke-linejoin:round; stroke-width:4; stroke-opacity:1; fill:none" points="261.591,1359.82 2256.76,1359.82 "/>
<polyline clip-path="url(#clip010)" style="stroke:#000000; stroke-linecap:round; stroke-linejoin:round; stroke-width:4; stroke-opacity:1; fill:none" points="318.058,1359.82 318.058,1340.92 "/>
<polyline clip-path="url(#clip010)" style="stroke:#000000; stroke-linecap:round; stroke-linejoin:round; stroke-width:4; stroke-opacity:1; fill:none" points="788.616,1359.82 788.616,1340.92 "/>
<polyline clip-path="url(#clip010)" style="stroke:#000000; stroke-linecap:round; stroke-linejoin:round; stroke-width:4; stroke-opacity:1; fill:none" points="1259.17,1359.82 1259.17,1340.92 "/>
<polyline clip-path="url(#clip010)" style="stroke:#000000; stroke-linecap:round; stroke-linejoin:round; stroke-width:4; stroke-opacity:1; fill:none" points="1729.73,1359.82 1729.73,1340.92 "/>
<polyline clip-path="url(#clip010)" style="stroke:#000000; stroke-linecap:round; stroke-linejoin:round; stroke-width:4; stroke-opacity:1; fill:none" points="2200.29,1359.82 2200.29,1340.92 "/>
<path clip-path="url(#clip010)" d="M318.058 1389.97 Q314.447 1389.97 312.618 1393.54 Q310.813 1397.08 310.813 1404.21 Q310.813 1411.31 312.618 1414.88 Q314.447 1418.42 318.058 1418.42 Q321.692 1418.42 323.498 1414.88 Q325.327 1411.31 325.327 1404.21 Q325.327 1397.08 323.498 1393.54 Q321.692 1389.97 318.058 1389.97 M318.058 1386.27 Q323.868 1386.27 326.924 1390.87 Q330.003 1395.46 330.003 1404.21 Q330.003 1412.93 326.924 1417.54 Q323.868 1422.12 318.058 1422.12 Q312.248 1422.12 309.169 1417.54 Q306.114 1412.93 306.114 1404.21 Q306.114 1395.46 309.169 1390.87 Q312.248 1386.27 318.058 1386.27 Z" fill="#000000" fill-rule="evenodd" fill-opacity="1" /><path clip-path="url(#clip010)" d="M763.303 1417.52 L770.942 1417.52 L770.942 1391.15 L762.632 1392.82 L762.632 1388.56 L770.896 1386.89 L775.572 1386.89 L775.572 1417.52 L783.211 1417.52 L783.211 1421.45 L763.303 1421.45 L763.303 1417.52 Z" fill="#000000" fill-rule="evenodd" fill-opacity="1" /><path clip-path="url(#clip010)" d="M802.655 1389.97 Q799.044 1389.97 797.215 1393.54 Q795.41 1397.08 795.41 1404.21 Q795.41 1411.31 797.215 1414.88 Q799.044 1418.42 802.655 1418.42 Q806.289 1418.42 808.095 1414.88 Q809.924 1411.31 809.924 1404.21 Q809.924 1397.08 808.095 1393.54 Q806.289 1389.97 802.655 1389.97 M802.655 1386.27 Q808.465 1386.27 811.521 1390.87 Q814.6 1395.46 814.6 1404.21 Q814.6 1412.93 811.521 1417.54 Q808.465 1422.12 802.655 1422.12 Q796.845 1422.12 793.766 1417.54 Q790.711 1412.93 790.711 1404.21 Q790.711 1395.46 793.766 1390.87 Q796.845 1386.27 802.655 1386.27 Z" fill="#000000" fill-rule="evenodd" fill-opacity="1" /><path clip-path="url(#clip010)" d="M1237.95 1417.52 L1254.27 1417.52 L1254.27 1421.45 L1232.32 1421.45 L1232.32 1417.52 Q1234.98 1414.76 1239.57 1410.13 Q1244.17 1405.48 1245.35 1404.14 Q1247.6 1401.61 1248.48 1399.88 Q1249.38 1398.12 1249.38 1396.43 Q1249.38 1393.67 1247.44 1391.94 Q1245.52 1390.2 1242.41 1390.2 Q1240.22 1390.2 1237.76 1390.97 Q1235.33 1391.73 1232.55 1393.28 L1232.55 1388.56 Q1235.38 1387.42 1237.83 1386.85 Q1240.28 1386.27 1242.32 1386.27 Q1247.69 1386.27 1250.89 1388.95 Q1254.08 1391.64 1254.08 1396.13 Q1254.08 1398.26 1253.27 1400.18 Q1252.48 1402.08 1250.38 1404.67 Q1249.8 1405.34 1246.7 1408.56 Q1243.59 1411.75 1237.95 1417.52 Z" fill="#000000" fill-rule="evenodd" fill-opacity="1" /><path clip-path="url(#clip010)" d="M1274.08 1389.97 Q1270.47 1389.97 1268.64 1393.54 Q1266.84 1397.08 1266.84 1404.21 Q1266.84 1411.31 1268.64 1414.88 Q1270.47 1418.42 1274.08 1418.42 Q1277.72 1418.42 1279.52 1414.88 Q1281.35 1411.31 1281.35 1404.21 Q1281.35 1397.08 1279.52 1393.54 Q1277.72 1389.97 1274.08 1389.97 M1274.08 1386.27 Q1279.89 1386.27 1282.95 1390.87 Q1286.03 1395.46 1286.03 1404.21 Q1286.03 1412.93 1282.95 1417.54 Q1279.89 1422.12 1274.08 1422.12 Q1268.27 1422.12 1265.19 1417.54 Q1262.14 1412.93 1262.14 1404.21 Q1262.14 1395.46 1265.19 1390.87 Q1268.27 1386.27 1274.08 1386.27 Z" fill="#000000" fill-rule="evenodd" fill-opacity="1" /><path clip-path="url(#clip010)" d="M1718.57 1402.82 Q1721.93 1403.54 1723.81 1405.8 Q1725.7 1408.07 1725.7 1411.41 Q1725.7 1416.52 1722.19 1419.32 Q1718.67 1422.12 1712.19 1422.12 Q1710.01 1422.12 1707.69 1421.68 Q1705.4 1421.27 1702.95 1420.41 L1702.95 1415.9 Q1704.89 1417.03 1707.21 1417.61 Q1709.52 1418.19 1712.05 1418.19 Q1716.44 1418.19 1718.74 1416.45 Q1721.05 1414.72 1721.05 1411.41 Q1721.05 1408.35 1718.9 1406.64 Q1716.77 1404.9 1712.95 1404.9 L1708.92 1404.9 L1708.92 1401.06 L1713.13 1401.06 Q1716.58 1401.06 1718.41 1399.69 Q1720.24 1398.3 1720.24 1395.71 Q1720.24 1393.05 1718.34 1391.64 Q1716.47 1390.2 1712.95 1390.2 Q1711.03 1390.2 1708.83 1390.62 Q1706.63 1391.04 1703.99 1391.91 L1703.99 1387.75 Q1706.65 1387.01 1708.97 1386.64 Q1711.31 1386.27 1713.37 1386.27 Q1718.69 1386.27 1721.79 1388.7 Q1724.89 1391.1 1724.89 1395.23 Q1724.89 1398.1 1723.25 1400.09 Q1721.61 1402.05 1718.57 1402.82 Z" fill="#000000" fill-rule="evenodd" fill-opacity="1" /><path clip-path="url(#clip010)" d="M1744.57 1389.97 Q1740.96 1389.97 1739.13 1393.54 Q1737.32 1397.08 1737.32 1404.21 Q1737.32 1411.31 1739.13 1414.88 Q1740.96 1418.42 1744.57 1418.42 Q1748.2 1418.42 1750.01 1414.88 Q1751.84 1411.31 1751.84 1404.21 Q1751.84 1397.08 1750.01 1393.54 Q1748.2 1389.97 1744.57 1389.97 M1744.57 1386.27 Q1750.38 1386.27 1753.43 1390.87 Q1756.51 1395.46 1756.51 1404.21 Q1756.51 1412.93 1753.43 1417.54 Q1750.38 1422.12 1744.57 1422.12 Q1738.76 1422.12 1735.68 1417.54 Q1732.62 1412.93 1732.62 1404.21 Q1732.62 1395.46 1735.68 1390.87 Q1738.76 1386.27 1744.57 1386.27 Z" fill="#000000" fill-rule="evenodd" fill-opacity="1" /><path clip-path="url(#clip010)" d="M2188.46 1390.97 L2176.65 1409.41 L2188.46 1409.41 L2188.46 1390.97 M2187.23 1386.89 L2193.11 1386.89 L2193.11 1409.41 L2198.04 1409.41 L2198.04 1413.3 L2193.11 1413.3 L2193.11 1421.45 L2188.46 1421.45 L2188.46 1413.3 L2172.86 1413.3 L2172.86 1408.79 L2187.23 1386.89 Z" fill="#000000" fill-rule="evenodd" fill-opacity="1" /><path clip-path="url(#clip010)" d="M2215.78 1389.97 Q2212.16 1389.97 2210.34 1393.54 Q2208.53 1397.08 2208.53 1404.21 Q2208.53 1411.31 2210.34 1414.88 Q2212.16 1418.42 2215.78 1418.42 Q2219.41 1418.42 2221.21 1414.88 Q2223.04 1411.31 2223.04 1404.21 Q2223.04 1397.08 2221.21 1393.54 Q2219.41 1389.97 2215.78 1389.97 M2215.78 1386.27 Q2221.59 1386.27 2224.64 1390.87 Q2227.72 1395.46 2227.72 1404.21 Q2227.72 1412.93 2224.64 1417.54 Q2221.59 1422.12 2215.78 1422.12 Q2209.96 1422.12 2206.89 1417.54 Q2203.83 1412.93 2203.83 1404.21 Q2203.83 1395.46 2206.89 1390.87 Q2209.96 1386.27 2215.78 1386.27 Z" fill="#000000" fill-rule="evenodd" fill-opacity="1" /><path clip-path="url(#clip010)" d="M1181.05 1455.72 L1221.25 1455.72 L1221.25 1461.13 L1204.38 1461.13 L1204.38 1503.24 L1197.92 1503.24 L1197.92 1461.13 L1181.05 1461.13 L1181.05 1455.72 Z" fill="#000000" fill-rule="evenodd" fill-opacity="1" /><path clip-path="url(#clip010)" d="M1225.2 1467.6 L1231.05 1467.6 L1231.05 1503.24 L1225.2 1503.24 L1225.2 1467.6 M1225.2 1453.72 L1231.05 1453.72 L1231.05 1461.13 L1225.2 1461.13 L1225.2 1453.72 Z" fill="#000000" fill-rule="evenodd" fill-opacity="1" /><path clip-path="url(#clip010)" d="M1271.06 1474.44 Q1273.26 1470.49 1276.31 1468.61 Q1279.37 1466.74 1283.51 1466.74 Q1289.08 1466.74 1292.1 1470.65 Q1295.12 1474.53 1295.12 1481.73 L1295.12 1503.24 L1289.24 1503.24 L1289.24 1481.92 Q1289.24 1476.79 1287.42 1474.31 Q1285.61 1471.83 1281.88 1471.83 Q1277.33 1471.83 1274.69 1474.85 Q1272.05 1477.88 1272.05 1483.1 L1272.05 1503.24 L1266.16 1503.24 L1266.16 1481.92 Q1266.16 1476.76 1264.35 1474.31 Q1262.53 1471.83 1258.74 1471.83 Q1254.26 1471.83 1251.61 1474.88 Q1248.97 1477.91 1248.97 1483.1 L1248.97 1503.24 L1243.08 1503.24 L1243.08 1467.6 L1248.97 1467.6 L1248.97 1473.13 Q1250.98 1469.86 1253.78 1468.3 Q1256.58 1466.74 1260.43 1466.74 Q1264.31 1466.74 1267.02 1468.71 Q1269.76 1470.68 1271.06 1474.44 Z" fill="#000000" fill-rule="evenodd" fill-opacity="1" /><path clip-path="url(#clip010)" d="M1337.3 1483.96 L1337.3 1486.82 L1310.37 1486.82 Q1310.75 1492.87 1314 1496.05 Q1317.28 1499.2 1323.1 1499.2 Q1326.47 1499.2 1329.63 1498.37 Q1332.81 1497.55 1335.93 1495.89 L1335.93 1501.43 Q1332.78 1502.77 1329.47 1503.47 Q1326.16 1504.17 1322.75 1504.17 Q1314.22 1504.17 1309.22 1499.2 Q1304.26 1494.24 1304.26 1485.77 Q1304.26 1477.02 1308.97 1471.89 Q1313.71 1466.74 1321.73 1466.74 Q1328.93 1466.74 1333.1 1471.38 Q1337.3 1476 1337.3 1483.96 M1331.44 1482.24 Q1331.38 1477.43 1328.73 1474.57 Q1326.12 1471.7 1321.8 1471.7 Q1316.89 1471.7 1313.93 1474.47 Q1311.01 1477.24 1310.56 1482.27 L1331.44 1482.24 Z" fill="#000000" fill-rule="evenodd" fill-opacity="1" /><polyline clip-path="url(#clip012)" style="stroke:#000000; stroke-linecap:round; stroke-linejoin:round; stroke-width:2; stroke-opacity:0.1; fill:none" points="261.591,1322.67 2256.76,1322.67 "/>
<polyline clip-path="url(#clip012)" style="stroke:#000000; stroke-linecap:round; stroke-linejoin:round; stroke-width:2; stroke-opacity:0.1; fill:none" points="261.591,1009.97 2256.76,1009.97 "/>
<polyline clip-path="url(#clip012)" style="stroke:#000000; stroke-linecap:round; stroke-linejoin:round; stroke-width:2; stroke-opacity:0.1; fill:none" points="261.591,697.278 2256.76,697.278 "/>
<polyline clip-path="url(#clip012)" style="stroke:#000000; stroke-linecap:round; stroke-linejoin:round; stroke-width:2; stroke-opacity:0.1; fill:none" points="261.591,384.581 2256.76,384.581 "/>
<polyline clip-path="url(#clip012)" style="stroke:#000000; stroke-linecap:round; stroke-linejoin:round; stroke-width:2; stroke-opacity:0.1; fill:none" points="261.591,71.8846 2256.76,71.8846 "/>
<polyline clip-path="url(#clip010)" style="stroke:#000000; stroke-linecap:round; stroke-linejoin:round; stroke-width:4; stroke-opacity:1; fill:none" points="261.591,1359.82 261.591,47.2441 "/>
<polyline clip-path="url(#clip010)" style="stroke:#000000; stroke-linecap:round; stroke-linejoin:round; stroke-width:4; stroke-opacity:1; fill:none" points="261.591,1322.67 280.489,1322.67 "/>
<polyline clip-path="url(#clip010)" style="stroke:#000000; stroke-linecap:round; stroke-linejoin:round; stroke-width:4; stroke-opacity:1; fill:none" points="261.591,1009.97 280.489,1009.97 "/>
<polyline clip-path="url(#clip010)" style="stroke:#000000; stroke-linecap:round; stroke-linejoin:round; stroke-width:4; stroke-opacity:1; fill:none" points="261.591,697.278 280.489,697.278 "/>
<polyline clip-path="url(#clip010)" style="stroke:#000000; stroke-linecap:round; stroke-linejoin:round; stroke-width:4; stroke-opacity:1; fill:none" points="261.591,384.581 280.489,384.581 "/>
<polyline clip-path="url(#clip010)" style="stroke:#000000; stroke-linecap:round; stroke-linejoin:round; stroke-width:4; stroke-opacity:1; fill:none" points="261.591,71.8846 280.489,71.8846 "/>
<path clip-path="url(#clip010)" d="M215.087 1308.47 Q211.476 1308.47 209.647 1312.03 Q207.842 1315.58 207.842 1322.71 Q207.842 1329.81 209.647 1333.38 Q211.476 1336.92 215.087 1336.92 Q218.721 1336.92 220.527 1333.38 Q222.355 1329.81 222.355 1322.71 Q222.355 1315.58 220.527 1312.03 Q218.721 1308.47 215.087 1308.47 M215.087 1304.77 Q220.897 1304.77 223.953 1309.37 Q227.031 1313.96 227.031 1322.71 Q227.031 1331.43 223.953 1336.04 Q220.897 1340.62 215.087 1340.62 Q209.277 1340.62 206.198 1336.04 Q203.142 1331.43 203.142 1322.71 Q203.142 1313.96 206.198 1309.37 Q209.277 1304.77 215.087 1304.77 Z" fill="#000000" fill-rule="evenodd" fill-opacity="1" /><path clip-path="url(#clip010)" d="M148.791 1023.32 L165.11 1023.32 L165.11 1027.25 L143.166 1027.25 L143.166 1023.32 Q145.828 1020.56 150.411 1015.94 Q155.018 1011.28 156.198 1009.94 Q158.444 1007.42 159.323 1005.68 Q160.226 1003.92 160.226 1002.23 Q160.226 999.477 158.282 997.741 Q156.36 996.005 153.258 996.005 Q151.059 996.005 148.606 996.769 Q146.175 997.533 143.397 999.084 L143.397 994.361 Q146.221 993.227 148.675 992.648 Q151.129 992.07 153.166 992.07 Q158.536 992.07 161.731 994.755 Q164.925 997.44 164.925 1001.93 Q164.925 1004.06 164.115 1005.98 Q163.328 1007.88 161.221 1010.47 Q160.643 1011.14 157.541 1014.36 Q154.439 1017.56 148.791 1023.32 Z" fill="#000000" fill-rule="evenodd" fill-opacity="1" /><path clip-path="url(#clip010)" d="M174.971 992.695 L193.328 992.695 L193.328 996.63 L179.254 996.63 L179.254 1005.1 Q180.272 1004.75 181.291 1004.59 Q182.309 1004.41 183.328 1004.41 Q189.115 1004.41 192.494 1007.58 Q195.874 1010.75 195.874 1016.17 Q195.874 1021.75 192.402 1024.85 Q188.93 1027.93 182.61 1027.93 Q180.434 1027.93 178.166 1027.56 Q175.92 1027.19 173.513 1026.44 L173.513 1021.75 Q175.596 1022.88 177.819 1023.44 Q180.041 1023.99 182.518 1023.99 Q186.522 1023.99 188.86 1021.88 Q191.198 1019.78 191.198 1016.17 Q191.198 1012.56 188.86 1010.45 Q186.522 1008.34 182.518 1008.34 Q180.643 1008.34 178.768 1008.76 Q176.916 1009.18 174.971 1010.06 L174.971 992.695 Z" fill="#000000" fill-rule="evenodd" fill-opacity="1" /><path clip-path="url(#clip010)" d="M215.087 995.773 Q211.476 995.773 209.647 999.338 Q207.842 1002.88 207.842 1010.01 Q207.842 1017.12 209.647 1020.68 Q211.476 1024.22 215.087 1024.22 Q218.721 1024.22 220.527 1020.68 Q222.355 1017.12 222.355 1010.01 Q222.355 1002.88 220.527 999.338 Q218.721 995.773 215.087 995.773 M215.087 992.07 Q220.897 992.07 223.953 996.676 Q227.031 1001.26 227.031 1010.01 Q227.031 1018.74 223.953 1023.34 Q220.897 1027.93 215.087 1027.93 Q209.277 1027.93 206.198 1023.34 Q203.142 1018.74 203.142 1010.01 Q203.142 1001.26 206.198 996.676 Q209.277 992.07 215.087 992.07 Z" fill="#000000" fill-rule="evenodd" fill-opacity="1" /><path clip-path="url(#clip010)" d="M144.809 679.998 L163.166 679.998 L163.166 683.933 L149.092 683.933 L149.092 692.405 Q150.11 692.058 151.129 691.896 Q152.147 691.711 153.166 691.711 Q158.953 691.711 162.332 694.882 Q165.712 698.053 165.712 703.47 Q165.712 709.049 162.24 712.151 Q158.768 715.229 152.448 715.229 Q150.272 715.229 148.004 714.859 Q145.759 714.489 143.351 713.748 L143.351 709.049 Q145.434 710.183 147.657 710.739 Q149.879 711.294 152.356 711.294 Q156.36 711.294 158.698 709.188 Q161.036 707.081 161.036 703.47 Q161.036 699.859 158.698 697.753 Q156.36 695.646 152.356 695.646 Q150.481 695.646 148.606 696.063 Q146.754 696.479 144.809 697.359 L144.809 679.998 Z" fill="#000000" fill-rule="evenodd" fill-opacity="1" /><path clip-path="url(#clip010)" d="M184.925 683.077 Q181.314 683.077 179.485 686.642 Q177.68 690.183 177.68 697.313 Q177.68 704.419 179.485 707.984 Q181.314 711.526 184.925 711.526 Q188.559 711.526 190.365 707.984 Q192.193 704.419 192.193 697.313 Q192.193 690.183 190.365 686.642 Q188.559 683.077 184.925 683.077 M184.925 679.373 Q190.735 679.373 193.791 683.979 Q196.869 688.563 196.869 697.313 Q196.869 706.04 193.791 710.646 Q190.735 715.229 184.925 715.229 Q179.115 715.229 176.036 710.646 Q172.981 706.04 172.981 697.313 Q172.981 688.563 176.036 683.979 Q179.115 679.373 184.925 679.373 Z" fill="#000000" fill-rule="evenodd" fill-opacity="1" /><path clip-path="url(#clip010)" d="M215.087 683.077 Q211.476 683.077 209.647 686.642 Q207.842 690.183 207.842 697.313 Q207.842 704.419 209.647 707.984 Q211.476 711.526 215.087 711.526 Q218.721 711.526 220.527 707.984 Q222.355 704.419 222.355 697.313 Q222.355 690.183 220.527 686.642 Q218.721 683.077 215.087 683.077 M215.087 679.373 Q220.897 679.373 223.953 683.979 Q227.031 688.563 227.031 697.313 Q227.031 706.04 223.953 710.646 Q220.897 715.229 215.087 715.229 Q209.277 715.229 206.198 710.646 Q203.142 706.04 203.142 697.313 Q203.142 688.563 206.198 683.979 Q209.277 679.373 215.087 679.373 Z" fill="#000000" fill-rule="evenodd" fill-opacity="1" /><path clip-path="url(#clip010)" d="M143.583 367.301 L165.805 367.301 L165.805 369.292 L153.258 401.861 L148.374 401.861 L160.18 371.236 L143.583 371.236 L143.583 367.301 Z" fill="#000000" fill-rule="evenodd" fill-opacity="1" /><path clip-path="url(#clip010)" d="M174.971 367.301 L193.328 367.301 L193.328 371.236 L179.254 371.236 L179.254 379.709 Q180.272 379.361 181.291 379.199 Q182.309 379.014 183.328 379.014 Q189.115 379.014 192.494 382.185 Q195.874 385.357 195.874 390.773 Q195.874 396.352 192.402 399.454 Q188.93 402.533 182.61 402.533 Q180.434 402.533 178.166 402.162 Q175.92 401.792 173.513 401.051 L173.513 396.352 Q175.596 397.486 177.819 398.042 Q180.041 398.597 182.518 398.597 Q186.522 398.597 188.86 396.491 Q191.198 394.385 191.198 390.773 Q191.198 387.162 188.86 385.056 Q186.522 382.949 182.518 382.949 Q180.643 382.949 178.768 383.366 Q176.916 383.783 174.971 384.662 L174.971 367.301 Z" fill="#000000" fill-rule="evenodd" fill-opacity="1" /><path clip-path="url(#clip010)" d="M215.087 370.38 Q211.476 370.38 209.647 373.945 Q207.842 377.486 207.842 384.616 Q207.842 391.722 209.647 395.287 Q211.476 398.829 215.087 398.829 Q218.721 398.829 220.527 395.287 Q222.355 391.722 222.355 384.616 Q222.355 377.486 220.527 373.945 Q218.721 370.38 215.087 370.38 M215.087 366.676 Q220.897 366.676 223.953 371.283 Q227.031 375.866 227.031 384.616 Q227.031 393.343 223.953 397.949 Q220.897 402.533 215.087 402.533 Q209.277 402.533 206.198 397.949 Q203.142 393.343 203.142 384.616 Q203.142 375.866 206.198 371.283 Q209.277 366.676 215.087 366.676 Z" fill="#000000" fill-rule="evenodd" fill-opacity="1" /><path clip-path="url(#clip010)" d="M115.411 85.2294 L123.05 85.2294 L123.05 58.8638 L114.74 60.5305 L114.74 56.2713 L123.004 54.6046 L127.68 54.6046 L127.68 85.2294 L135.319 85.2294 L135.319 89.1646 L115.411 89.1646 L115.411 85.2294 Z" fill="#000000" fill-rule="evenodd" fill-opacity="1" /><path clip-path="url(#clip010)" d="M154.763 57.6833 Q151.152 57.6833 149.323 61.2481 Q147.518 64.7897 147.518 71.9193 Q147.518 79.0258 149.323 82.5906 Q151.152 86.1322 154.763 86.1322 Q158.397 86.1322 160.203 82.5906 Q162.032 79.0258 162.032 71.9193 Q162.032 64.7897 160.203 61.2481 Q158.397 57.6833 154.763 57.6833 M154.763 53.9796 Q160.573 53.9796 163.629 58.5861 Q166.707 63.1694 166.707 71.9193 Q166.707 80.6461 163.629 85.2526 Q160.573 89.8359 154.763 89.8359 Q148.953 89.8359 145.874 85.2526 Q142.819 80.6461 142.819 71.9193 Q142.819 63.1694 145.874 58.5861 Q148.953 53.9796 154.763 53.9796 Z" fill="#000000" fill-rule="evenodd" fill-opacity="1" /><path clip-path="url(#clip010)" d="M184.925 57.6833 Q181.314 57.6833 179.485 61.2481 Q177.68 64.7897 177.68 71.9193 Q177.68 79.0258 179.485 82.5906 Q181.314 86.1322 184.925 86.1322 Q188.559 86.1322 190.365 82.5906 Q192.193 79.0258 192.193 71.9193 Q192.193 64.7897 190.365 61.2481 Q188.559 57.6833 184.925 57.6833 M184.925 53.9796 Q190.735 53.9796 193.791 58.5861 Q196.869 63.1694 196.869 71.9193 Q196.869 80.6461 193.791 85.2526 Q190.735 89.8359 184.925 89.8359 Q179.115 89.8359 176.036 85.2526 Q172.981 80.6461 172.981 71.9193 Q172.981 63.1694 176.036 58.5861 Q179.115 53.9796 184.925 53.9796 Z" fill="#000000" fill-rule="evenodd" fill-opacity="1" /><path clip-path="url(#clip010)" d="M215.087 57.6833 Q211.476 57.6833 209.647 61.2481 Q207.842 64.7897 207.842 71.9193 Q207.842 79.0258 209.647 82.5906 Q211.476 86.1322 215.087 86.1322 Q218.721 86.1322 220.527 82.5906 Q222.355 79.0258 222.355 71.9193 Q222.355 64.7897 220.527 61.2481 Q218.721 57.6833 215.087 57.6833 M215.087 53.9796 Q220.897 53.9796 223.953 58.5861 Q227.031 63.1694 227.031 71.9193 Q227.031 80.6461 223.953 85.2526 Q220.897 89.8359 215.087 89.8359 Q209.277 89.8359 206.198 85.2526 Q203.142 80.6461 203.142 71.9193 Q203.142 63.1694 206.198 58.5861 Q209.277 53.9796 215.087 53.9796 Z" fill="#000000" fill-rule="evenodd" fill-opacity="1" /><path clip-path="url(#clip010)" d="M18.4042 831.26 L18.4042 822.603 L58.158 801.532 L18.4042 801.532 L18.4042 795.294 L65.9242 795.294 L65.9242 803.951 L26.1703 825.021 L65.9242 825.021 L65.9242 831.26 L18.4042 831.26 Z" fill="#000000" fill-rule="evenodd" fill-opacity="1" /><path clip-path="url(#clip010)" d="M51.8559 783.358 L30.2762 783.358 L30.2762 777.501 L51.6331 777.501 Q56.6939 777.501 59.2402 775.528 Q61.7546 773.555 61.7546 769.608 Q61.7546 764.866 58.7309 762.128 Q55.7072 759.359 50.4873 759.359 L30.2762 759.359 L30.2762 753.503 L65.9242 753.503 L65.9242 759.359 L60.4496 759.359 Q63.6962 761.492 65.2876 764.324 Q66.8472 767.125 66.8472 770.849 Q66.8472 776.992 63.0278 780.175 Q59.2083 783.358 51.8559 783.358 M29.4168 768.621 L29.4168 768.621 Z" fill="#000000" fill-rule="evenodd" fill-opacity="1" /><path clip-path="url(#clip010)" d="M37.1193 713.685 Q33.1726 711.489 31.2947 708.434 Q29.4168 705.378 29.4168 701.24 Q29.4168 695.67 33.3317 692.647 Q37.2148 689.623 44.4081 689.623 L65.9242 689.623 L65.9242 695.511 L44.599 695.511 Q39.4746 695.511 36.992 697.325 Q34.5094 699.14 34.5094 702.864 Q34.5094 707.415 37.5331 710.057 Q40.5568 712.699 45.7767 712.699 L65.9242 712.699 L65.9242 718.587 L44.599 718.587 Q39.4428 718.587 36.992 720.401 Q34.5094 722.215 34.5094 726.003 Q34.5094 730.491 37.5649 733.133 Q40.5886 735.774 45.7767 735.774 L65.9242 735.774 L65.9242 741.663 L30.2762 741.663 L30.2762 735.774 L35.8144 735.774 Q32.536 733.769 30.9764 730.968 Q29.4168 728.167 29.4168 724.316 Q29.4168 720.433 31.3902 717.727 Q33.3636 714.99 37.1193 713.685 Z" fill="#000000" fill-rule="evenodd" fill-opacity="1" /><path clip-path="url(#clip010)" d="M48.132 652.352 Q41.6708 652.352 38.0105 655.025 Q34.3184 657.667 34.3184 662.314 Q34.3184 666.961 38.0105 669.635 Q41.6708 672.276 48.132 672.276 Q54.5932 672.276 58.2853 669.635 Q61.9456 666.961 61.9456 662.314 Q61.9456 657.667 58.2853 655.025 Q54.5932 652.352 48.132 652.352 M35.6871 672.276 Q32.5042 670.43 30.9764 667.629 Q29.4168 664.797 29.4168 660.882 Q29.4168 654.389 34.5731 650.346 Q39.7293 646.272 48.132 646.272 Q56.5347 646.272 61.691 650.346 Q66.8472 654.389 66.8472 660.882 Q66.8472 664.797 65.3194 667.629 Q63.7598 670.43 60.577 672.276 L65.9242 672.276 L65.9242 678.165 L16.399 678.165 L16.399 672.276 L35.6871 672.276 Z" fill="#000000" fill-rule="evenodd" fill-opacity="1" /><path clip-path="url(#clip010)" d="M46.6361 606.073 L49.5006 606.073 L49.5006 633 Q55.5481 632.618 58.7309 629.371 Q61.8819 626.093 61.8819 620.269 Q61.8819 616.895 61.0544 613.744 Q60.2269 610.561 58.5718 607.442 L64.1099 607.442 Q65.4467 610.593 66.147 613.903 Q66.8472 617.213 66.8472 620.619 Q66.8472 629.149 61.8819 634.146 Q56.9167 639.111 48.4503 639.111 Q39.6974 639.111 34.5731 634.4 Q29.4168 629.658 29.4168 621.637 Q29.4168 614.444 34.0638 610.274 Q38.6789 606.073 46.6361 606.073 M44.9173 611.929 Q40.1112 611.993 37.2466 614.635 Q34.3821 617.245 34.3821 621.573 Q34.3821 626.475 37.1512 629.435 Q39.9202 632.363 44.9492 632.809 L44.9173 611.929 Z" fill="#000000" fill-rule="evenodd" fill-opacity="1" /><path clip-path="url(#clip010)" d="M35.7507 575.804 Q35.1778 576.791 34.9232 577.968 Q34.6367 579.114 34.6367 580.515 Q34.6367 585.48 37.8832 588.154 Q41.0979 590.795 47.1453 590.795 L65.9242 590.795 L65.9242 596.684 L30.2762 596.684 L30.2762 590.795 L35.8144 590.795 Q32.5679 588.949 31.0083 585.989 Q29.4168 583.029 29.4168 578.796 Q29.4168 578.191 29.5123 577.459 Q29.576 576.727 29.7351 575.836 L35.7507 575.804 Z" fill="#000000" fill-rule="evenodd" fill-opacity="1" /><polyline clip-path="url(#clip012)" style="stroke:#009af9; stroke-linecap:round; stroke-linejoin:round; stroke-width:4; stroke-opacity:1; fill:none" points="318.058,84.3925 322.764,84.3925 327.469,86.894 332.175,90.6464 336.88,91.8972 341.586,91.8972 346.292,91.8972 350.997,91.8972 355.703,91.8972 360.408,91.8972 365.114,91.8972 369.819,94.3988 374.525,94.3988 379.231,94.3988 383.936,94.3988 388.642,94.3988 393.347,94.3988 398.053,94.3988 402.759,94.3988 407.464,94.3988 412.17,94.3988 416.875,94.3988 421.581,94.3988 426.286,95.6495 430.992,95.6495 435.698,95.6495 440.403,95.6495 445.109,95.6495 449.814,95.6495 454.52,96.9003 459.225,96.9003 463.931,96.9003 468.637,96.9003 473.342,98.1511 478.048,98.1511 482.753,98.1511 487.459,98.1511 492.164,98.1511 496.87,101.903 501.576,101.903 506.281,103.154 510.987,104.405 515.692,105.656 520.398,106.907 525.104,108.157 529.809,109.408 534.515,109.408 539.22,110.659 543.926,110.659 548.631,110.659 553.337,111.91 558.043,113.161 562.748,113.161 567.454,113.161 572.159,113.161 576.865,113.161 581.57,114.411 586.276,114.411 590.982,114.411 595.687,114.411 600.393,114.411 605.098,115.662 609.804,115.662 614.51,115.662 619.215,115.662 623.921,116.913 628.626,116.913 633.332,116.913 638.037,116.913 642.743,118.164 647.449,118.164 652.154,118.164 656.86,118.164 661.565,118.164 666.271,119.414 670.976,121.916 675.682,121.916 680.388,121.916 685.093,124.418 689.799,124.418 694.504,124.418 699.21,124.418 703.915,125.668 708.621,126.919 713.327,126.919 718.032,126.919 722.738,126.919 727.443,128.17 732.149,129.421 736.855,130.672 741.56,130.672 746.266,133.173 750.971,133.173 755.677,133.173 760.382,133.173 765.088,134.424 769.794,134.424 774.499,138.176 779.205,140.678 783.91,141.929 788.616,141.929 793.321,143.179 798.027,143.179 802.733,145.681 807.438,146.932 812.144,149.433 816.849,149.433 821.555,149.433 826.26,150.684 830.966,150.684 835.672,150.684 840.377,150.684 845.083,150.684 849.788,154.437 854.494,156.938 859.2,159.44 863.905,160.69 868.611,160.69 873.316,164.443 878.022,164.443 882.727,168.195 887.433,170.697 892.139,170.697 896.844,173.198 901.55,174.449 906.255,176.951 910.961,180.703 915.666,181.954 920.372,183.205 925.078,185.706 929.783,185.706 934.489,188.208 939.194,189.459 943.9,193.211 948.605,196.963 953.311,199.465 958.017,201.966 962.722,204.468 967.428,206.97 972.133,213.224 976.839,215.725 981.545,219.477 986.25,220.728 990.956,220.728 995.661,221.979 1000.37,224.481 1005.07,228.233 1009.78,233.236 1014.48,233.236 1019.19,236.988 1023.89,238.239 1028.6,243.242 1033.31,245.744 1038.01,250.747 1042.72,257.001 1047.42,259.503 1052.13,264.506 1056.83,270.76 1061.54,275.763 1066.24,277.014 1070.95,279.515 1075.66,284.518 1080.36,287.02 1085.07,292.023 1089.77,297.026 1094.48,299.528 1099.18,303.28 1103.89,304.531 1108.6,308.283 1113.3,310.785 1118.01,318.29 1122.71,324.544 1127.42,330.797 1132.12,334.55 1136.83,339.553 1141.53,343.305 1146.24,347.058 1150.95,353.312 1155.65,354.562 1160.36,360.816 1165.06,365.82 1169.77,368.321 1174.47,373.324 1179.18,375.826 1183.88,382.08 1188.59,387.083 1193.3,389.584 1198,399.591 1202.71,407.095 1207.41,409.597 1212.12,415.851 1216.82,420.854 1221.53,423.356 1226.23,429.61 1230.94,433.362 1235.65,434.613 1240.35,443.368 1245.06,444.619 1249.76,450.873 1254.47,453.375 1259.17,454.625 1263.88,459.629 1268.58,459.629 1273.29,464.632 1278,472.136 1282.7,478.39 1287.41,483.393 1292.11,489.647 1296.82,497.152 1301.52,500.904 1306.23,500.904 1310.93,505.908 1315.64,509.66 1320.35,513.412 1325.05,515.914 1329.76,519.666 1334.46,522.168 1339.17,524.669 1343.87,528.422 1348.58,532.174 1353.29,535.927 1357.99,538.428 1362.7,543.431 1367.4,548.434 1372.11,552.187 1376.81,555.939 1381.52,557.19 1386.22,565.945 1390.93,570.949 1395.64,575.952 1400.34,579.704 1405.05,583.456 1409.75,585.958 1414.46,587.209 1419.16,589.71 1423.87,592.212 1428.57,595.964 1433.28,600.967 1437.99,607.221 1442.69,614.726 1447.4,620.98 1452.1,629.736 1456.81,633.488 1461.51,638.491 1466.22,640.993 1470.92,647.247 1475.63,653.5 1480.34,658.504 1485.04,667.259 1489.75,673.513 1494.45,677.265 1499.16,683.519 1503.86,684.77 1508.57,691.024 1513.27,692.275 1517.98,696.027 1522.69,698.529 1527.39,702.281 1532.1,706.034 1536.8,711.037 1541.51,714.789 1546.21,719.792 1550.92,722.294 1555.62,722.294 1560.33,727.297 1565.04,728.548 1569.74,732.3 1574.45,738.554 1579.15,741.056 1583.86,747.31 1588.56,751.062 1593.27,753.563 1597.98,758.567 1602.68,767.322 1607.39,769.824 1612.09,772.325 1616.8,777.328 1621.5,786.084 1626.21,796.09 1630.91,799.843 1635.62,801.093 1640.33,808.598 1645.03,811.1 1649.74,817.354 1654.44,822.357 1659.15,823.608 1663.85,827.36 1668.56,828.611 1673.26,833.614 1677.97,837.366 1682.68,838.617 1687.38,841.119 1692.09,842.369 1696.79,846.122 1701.5,848.623 1706.2,851.125 1710.91,852.376 1715.61,857.379 1720.32,861.131 1725.03,866.134 1729.73,868.636 1734.44,874.89 1739.14,877.391 1743.85,883.645 1748.55,887.398 1753.26,893.652 1757.96,899.906 1762.67,902.407 1767.38,903.658 1772.08,904.909 1776.79,906.159 1781.49,907.41 1786.2,909.912 1790.9,913.664 1795.61,913.664 1800.31,913.664 1805.02,916.166 1809.73,916.166 1814.43,918.667 1819.14,921.169 1823.84,923.67 1828.55,926.172 1833.25,928.674 1837.96,928.674 1842.67,928.674 1847.37,932.426 1852.08,934.928 1856.78,937.429 1861.49,939.931 1866.19,941.181 1870.9,943.683 1875.6,943.683 1880.31,944.934 1885.02,951.188 1889.72,952.439 1894.43,952.439 1899.13,953.689 1903.84,953.689 1908.54,954.94 1913.25,956.191 1917.95,956.191 1922.66,956.191 1927.37,956.191 1932.07,956.191 1936.78,956.191 1941.48,957.442 1946.19,957.442 1950.89,958.692 1955.6,959.943 1960.3,961.194 1965.01,962.445 1969.72,962.445 1974.42,963.696 1979.13,966.197 1983.83,966.197 1988.54,966.197 1993.24,966.197 1997.95,966.197 2002.65,967.448 2007.36,969.95 2012.07,969.95 2016.77,973.702 2021.48,973.702 2026.18,974.953 2030.89,974.953 2035.59,974.953 2040.3,974.953 2045,974.953 2049.71,976.204 2054.42,976.204 2059.12,977.454 2063.83,978.705 2068.53,979.956 2073.24,981.207 2077.94,982.457 2082.65,983.708 2087.36,984.959 2092.06,984.959 2096.77,984.959 2101.47,986.21 2106.18,986.21 2110.88,987.461 2115.59,987.461 2120.29,988.711 2125,989.962 2129.71,991.213 2134.41,991.213 2139.12,991.213 2143.82,991.213 2148.53,992.464 2153.23,992.464 2157.94,993.715 2162.64,993.715 2167.35,993.715 2172.06,994.965 2176.76,996.216 2181.47,996.216 2186.17,996.216 2190.88,996.216 2195.58,998.718 2200.29,998.718 "/>
<polyline clip-path="url(#clip012)" style="stroke:#e26f46; stroke-linecap:round; stroke-linejoin:round; stroke-width:4; stroke-opacity:1; fill:none" points="318.058,1310.16 322.764,1310.16 327.469,1307.66 332.175,1303.91 336.88,1302.66 341.586,1302.66 346.292,1302.66 350.997,1302.66 355.703,1303.91 360.408,1305.16 365.114,1305.16 369.819,1303.91 374.525,1303.91 379.231,1305.16 383.936,1306.41 388.642,1308.91 393.347,1308.91 398.053,1310.16 402.759,1310.16 407.464,1310.16 412.17,1310.16 416.875,1310.16 421.581,1310.16 426.286,1308.91 430.992,1308.91 435.698,1308.91 440.403,1308.91 445.109,1310.16 449.814,1310.16 454.52,1308.91 459.225,1308.91 463.931,1308.91 468.637,1308.91 473.342,1307.66 478.048,1307.66 482.753,1307.66 487.459,1307.66 492.164,1307.66 496.87,1303.91 501.576,1306.41 506.281,1305.16 510.987,1303.91 515.692,1302.66 520.398,1302.66 525.104,1303.91 529.809,1302.66 534.515,1305.16 539.22,1305.16 543.926,1305.16 548.631,1305.16 553.337,1305.16 558.043,1303.91 562.748,1303.91 567.454,1303.91 572.159,1305.16 576.865,1306.41 581.57,1305.16 586.276,1306.41 590.982,1306.41 595.687,1306.41 600.393,1306.41 605.098,1305.16 609.804,1305.16 614.51,1305.16 619.215,1305.16 623.921,1303.91 628.626,1305.16 633.332,1305.16 638.037,1306.41 642.743,1305.16 647.449,1305.16 652.154,1305.16 656.86,1306.41 661.565,1306.41 666.271,1305.16 670.976,1302.66 675.682,1302.66 680.388,1302.66 685.093,1301.41 689.799,1302.66 694.504,1303.91 699.21,1303.91 703.915,1302.66 708.621,1301.41 713.327,1303.91 718.032,1307.66 722.738,1307.66 727.443,1306.41 732.149,1305.16 736.855,1303.91 741.56,1303.91 746.266,1302.66 750.971,1305.16 755.677,1305.16 760.382,1305.16 765.088,1305.16 769.794,1305.16 774.499,1301.41 779.205,1300.16 783.91,1298.91 788.616,1298.91 793.321,1298.91 798.027,1300.16 802.733,1298.91 807.438,1297.66 812.144,1296.4 816.849,1300.16 821.555,1300.16 826.26,1300.16 830.966,1301.41 835.672,1302.66 840.377,1302.66 845.083,1302.66 849.788,1298.91 854.494,1298.91 859.2,1296.4 863.905,1295.15 868.611,1296.4 873.316,1295.15 878.022,1296.4 882.727,1292.65 887.433,1290.15 892.139,1290.15 896.844,1287.65 901.55,1286.4 906.255,1285.15 910.961,1281.4 915.666,1281.4 920.372,1281.4 925.078,1280.14 929.783,1281.4 934.489,1278.89 939.194,1277.64 943.9,1275.14 948.605,1272.64 953.311,1276.39 958.017,1273.89 962.722,1276.39 967.428,1275.14 972.133,1270.14 976.839,1268.89 981.545,1267.64 986.25,1266.39 990.956,1267.64 995.661,1267.64 1000.37,1267.64 1005.07,1266.39 1009.78,1261.38 1014.48,1262.63 1019.19,1258.88 1023.89,1258.88 1028.6,1253.88 1033.31,1251.38 1038.01,1248.88 1042.72,1242.62 1047.42,1242.62 1052.13,1238.87 1056.83,1233.87 1061.54,1232.61 1066.24,1232.61 1070.95,1231.36 1075.66,1227.61 1080.36,1228.86 1085.07,1223.86 1089.77,1220.11 1094.48,1218.86 1099.18,1216.35 1103.89,1217.61 1108.6,1215.1 1113.3,1215.1 1118.01,1210.1 1122.71,1212.6 1127.42,1207.6 1132.12,1207.6 1136.83,1203.85 1141.53,1203.85 1146.24,1202.6 1150.95,1201.35 1155.65,1207.6 1160.36,1201.35 1165.06,1197.59 1169.77,1196.34 1174.47,1191.34 1179.18,1193.84 1183.88,1190.09 1188.59,1187.59 1193.3,1188.84 1198,1178.83 1202.71,1180.08 1207.41,1180.08 1212.12,1178.83 1216.82,1177.58 1221.53,1176.33 1226.23,1175.08 1230.94,1172.58 1235.65,1172.58 1240.35,1166.32 1245.06,1167.57 1249.76,1166.32 1254.47,1170.08 1259.17,1172.58 1263.88,1171.33 1268.58,1173.83 1273.29,1173.83 1278,1172.58 1282.7,1172.58 1287.41,1175.08 1292.11,1173.83 1296.82,1171.33 1301.52,1177.58 1306.23,1178.83 1310.93,1175.08 1315.64,1173.83 1320.35,1177.58 1325.05,1180.08 1329.76,1177.58 1334.46,1181.33 1339.17,1182.58 1343.87,1180.08 1348.58,1178.83 1353.29,1177.58 1357.99,1180.08 1362.7,1176.33 1367.4,1175.08 1372.11,1177.58 1376.81,1177.58 1381.52,1180.08 1386.22,1173.83 1390.93,1171.33 1395.64,1170.08 1400.34,1168.82 1405.05,1172.58 1409.75,1175.08 1414.46,1178.83 1419.16,1178.83 1423.87,1178.83 1428.57,1180.08 1433.28,1176.33 1437.99,1173.83 1442.69,1167.57 1447.4,1162.57 1452.1,1158.82 1456.81,1160.07 1461.51,1163.82 1466.22,1162.57 1470.92,1157.57 1475.63,1153.82 1480.34,1148.81 1485.04,1141.31 1489.75,1138.81 1494.45,1143.81 1499.16,1145.06 1503.86,1147.56 1508.57,1147.56 1513.27,1150.06 1517.98,1147.56 1522.69,1146.31 1527.39,1145.06 1532.1,1146.31 1536.8,1147.56 1541.51,1145.06 1546.21,1146.31 1550.92,1148.81 1555.62,1152.56 1560.33,1153.82 1565.04,1160.07 1569.74,1162.57 1574.45,1163.82 1579.15,1165.07 1583.86,1166.32 1588.56,1166.32 1593.27,1167.57 1597.98,1170.08 1602.68,1165.07 1607.39,1165.07 1612.09,1165.07 1616.8,1163.82 1621.5,1160.07 1626.21,1155.07 1630.91,1156.32 1635.62,1160.07 1640.33,1158.82 1645.03,1161.32 1649.74,1163.82 1654.44,1163.82 1659.15,1170.08 1663.85,1171.33 1668.56,1172.58 1673.26,1168.82 1677.97,1170.08 1682.68,1171.33 1687.38,1172.58 1692.09,1176.33 1696.79,1176.33 1701.5,1178.83 1706.2,1182.58 1710.91,1187.59 1715.61,1183.83 1720.32,1181.33 1725.03,1178.83 1729.73,1182.58 1734.44,1178.83 1739.14,1178.83 1743.85,1173.83 1748.55,1173.83 1753.26,1171.33 1757.96,1167.57 1762.67,1171.33 1767.38,1171.33 1772.08,1173.83 1776.79,1175.08 1781.49,1177.58 1786.2,1180.08 1790.9,1187.59 1795.61,1191.34 1800.31,1192.59 1805.02,1195.09 1809.73,1197.59 1814.43,1196.34 1819.14,1201.35 1823.84,1205.1 1828.55,1206.35 1833.25,1206.35 1837.96,1207.6 1842.67,1211.35 1847.37,1212.6 1852.08,1217.61 1856.78,1218.86 1861.49,1221.36 1866.19,1221.36 1870.9,1221.36 1875.6,1226.36 1880.31,1227.61 1885.02,1223.86 1889.72,1223.86 1894.43,1230.11 1899.13,1232.61 1903.84,1235.12 1908.54,1236.37 1913.25,1236.37 1917.95,1237.62 1922.66,1243.87 1927.37,1245.12 1932.07,1247.62 1936.78,1250.13 1941.48,1252.63 1946.19,1252.63 1950.89,1251.38 1955.6,1252.63 1960.3,1253.88 1965.01,1255.13 1969.72,1257.63 1974.42,1257.63 1979.13,1255.13 1983.83,1256.38 1988.54,1257.63 1993.24,1258.88 1997.95,1262.63 2002.65,1263.88 2007.36,1263.88 2012.07,1265.14 2016.77,1261.38 2021.48,1265.14 2026.18,1263.88 2030.89,1265.14 2035.59,1265.14 2040.3,1265.14 2045,1270.14 2049.71,1268.89 2054.42,1271.39 2059.12,1272.64 2063.83,1273.89 2068.53,1272.64 2073.24,1271.39 2077.94,1271.39 2082.65,1272.64 2087.36,1273.89 2092.06,1273.89 2096.77,1275.14 2101.47,1275.14 2106.18,1277.64 2110.88,1277.64 2115.59,1278.89 2120.29,1278.89 2125,1277.64 2129.71,1277.64 2134.41,1278.89 2139.12,1280.14 2143.82,1281.4 2148.53,1282.65 2153.23,1282.65 2157.94,1281.4 2162.64,1282.65 2167.35,1282.65 2172.06,1281.4 2176.76,1281.4 2181.47,1281.4 2186.17,1282.65 2190.88,1282.65 2195.58,1280.14 2200.29,1283.9 "/>
<polyline clip-path="url(#clip012)" style="stroke:#3da44d; stroke-linecap:round; stroke-linejoin:round; stroke-width:4; stroke-opacity:1; fill:none" points="318.058,1322.67 322.764,1322.67 327.469,1322.67 332.175,1322.67 336.88,1322.67 341.586,1322.67 346.292,1322.67 350.997,1322.67 355.703,1321.42 360.408,1320.17 365.114,1320.17 369.819,1318.92 374.525,1318.92 379.231,1317.67 383.936,1316.42 388.642,1313.92 393.347,1313.92 398.053,1312.67 402.759,1312.67 407.464,1312.67 412.17,1312.67 416.875,1312.67 421.581,1312.67 426.286,1312.67 430.992,1312.67 435.698,1312.67 440.403,1312.67 445.109,1311.41 449.814,1311.41 454.52,1311.41 459.225,1311.41 463.931,1311.41 468.637,1311.41 473.342,1311.41 478.048,1311.41 482.753,1311.41 487.459,1311.41 492.164,1311.41 496.87,1311.41 501.576,1308.91 506.281,1308.91 510.987,1308.91 515.692,1308.91 520.398,1307.66 525.104,1305.16 529.809,1305.16 534.515,1302.66 539.22,1301.41 543.926,1301.41 548.631,1301.41 553.337,1300.16 558.043,1300.16 562.748,1300.16 567.454,1300.16 572.159,1298.91 576.865,1297.66 581.57,1297.66 586.276,1296.4 590.982,1296.4 595.687,1296.4 600.393,1296.4 605.098,1296.4 609.804,1296.4 614.51,1296.4 619.215,1296.4 623.921,1296.4 628.626,1295.15 633.332,1295.15 638.037,1293.9 642.743,1293.9 647.449,1293.9 652.154,1293.9 656.86,1292.65 661.565,1292.65 666.271,1292.65 670.976,1292.65 675.682,1292.65 680.388,1292.65 685.093,1291.4 689.799,1290.15 694.504,1288.9 699.21,1288.9 703.915,1288.9 708.621,1288.9 713.327,1286.4 718.032,1282.65 722.738,1282.65 727.443,1282.65 732.149,1282.65 736.855,1282.65 741.56,1282.65 746.266,1281.4 750.971,1278.89 755.677,1278.89 760.382,1278.89 765.088,1277.64 769.794,1277.64 774.499,1277.64 779.205,1276.39 783.91,1276.39 788.616,1276.39 793.321,1275.14 798.027,1273.89 802.733,1272.64 807.438,1272.64 812.144,1271.39 816.849,1267.64 821.555,1267.64 826.26,1266.39 830.966,1265.14 835.672,1263.88 840.377,1263.88 845.083,1263.88 849.788,1263.88 854.494,1261.38 859.2,1261.38 863.905,1261.38 868.611,1260.13 873.316,1257.63 878.022,1256.38 882.727,1256.38 887.433,1256.38 892.139,1256.38 896.844,1256.38 901.55,1256.38 906.255,1255.13 910.961,1255.13 915.666,1253.88 920.372,1252.63 925.078,1251.38 929.783,1250.13 934.489,1250.13 939.194,1250.13 943.9,1248.88 948.605,1247.62 953.311,1241.37 958.017,1241.37 962.722,1236.37 967.428,1235.12 972.133,1233.87 976.839,1232.61 981.545,1230.11 986.25,1230.11 990.956,1228.86 995.661,1227.61 1000.37,1225.11 1005.07,1222.61 1009.78,1222.61 1014.48,1221.36 1019.19,1221.36 1023.89,1220.11 1028.6,1220.11 1033.31,1220.11 1038.01,1217.61 1042.72,1217.61 1047.42,1215.1 1052.13,1213.85 1056.83,1212.6 1061.54,1208.85 1066.24,1207.6 1070.95,1206.35 1075.66,1205.1 1080.36,1201.35 1085.07,1201.35 1089.77,1200.09 1094.48,1198.84 1099.18,1197.59 1103.89,1195.09 1108.6,1193.84 1113.3,1191.34 1118.01,1188.84 1122.71,1180.08 1127.42,1178.83 1132.12,1175.08 1136.83,1173.83 1141.53,1170.08 1146.24,1167.57 1150.95,1162.57 1155.65,1155.07 1160.36,1155.07 1165.06,1153.82 1169.77,1152.56 1174.47,1152.56 1179.18,1147.56 1183.88,1145.06 1188.59,1142.56 1193.3,1138.81 1198,1138.81 1202.71,1130.05 1207.41,1127.55 1212.12,1122.55 1216.82,1118.79 1221.53,1117.54 1226.23,1112.54 1230.94,1111.29 1235.65,1110.04 1240.35,1107.54 1245.06,1105.03 1249.76,1100.03 1254.47,1093.78 1259.17,1090.03 1263.88,1086.27 1268.58,1083.77 1273.29,1078.77 1278,1072.51 1282.7,1066.26 1287.41,1058.76 1292.11,1053.75 1296.82,1048.75 1301.52,1038.74 1306.23,1037.49 1310.93,1036.24 1315.64,1033.74 1320.35,1026.23 1325.05,1021.23 1329.76,1019.98 1334.46,1013.73 1339.17,1009.97 1343.87,1008.72 1348.58,1006.22 1353.29,1003.72 1357.99,998.718 1362.7,997.467 1367.4,993.715 1372.11,987.461 1376.81,983.708 1381.52,979.956 1386.22,977.454 1390.93,974.953 1395.64,971.2 1400.34,968.699 1405.05,961.194 1409.75,956.191 1414.46,951.188 1419.16,948.686 1423.87,946.185 1428.57,941.181 1433.28,939.931 1437.99,936.178 1442.69,934.928 1447.4,933.677 1452.1,928.674 1456.81,923.67 1461.51,914.915 1466.22,913.664 1470.92,912.413 1475.63,909.912 1480.34,909.912 1485.04,908.661 1489.75,904.909 1494.45,896.153 1499.16,888.648 1503.86,884.896 1508.57,878.642 1513.27,874.89 1517.98,873.639 1522.69,872.388 1527.39,869.887 1532.1,864.883 1536.8,858.63 1541.51,857.379 1546.21,851.125 1550.92,846.122 1555.62,842.369 1560.33,836.115 1565.04,828.611 1569.74,822.357 1574.45,814.852 1579.15,811.1 1583.86,803.595 1588.56,799.843 1593.27,796.09 1597.98,788.585 1602.68,784.833 1607.39,782.332 1612.09,779.83 1616.8,776.078 1621.5,771.074 1626.21,766.071 1630.91,761.068 1635.62,756.065 1640.33,749.811 1645.03,744.808 1649.74,736.052 1654.44,731.049 1659.15,723.545 1663.85,718.541 1668.56,716.04 1673.26,714.789 1677.97,709.786 1682.68,707.284 1687.38,703.532 1692.09,698.529 1696.79,694.776 1701.5,689.773 1706.2,683.519 1710.91,677.265 1715.61,676.015 1720.32,674.764 1725.03,672.262 1729.73,666.008 1734.44,663.507 1739.14,661.005 1743.85,659.754 1748.55,656.002 1753.26,652.25 1757.96,649.748 1762.67,643.494 1767.38,642.243 1772.08,638.491 1776.79,635.989 1781.49,632.237 1786.2,627.234 1790.9,615.977 1795.61,612.225 1800.31,610.974 1805.02,605.971 1809.73,603.469 1814.43,602.218 1819.14,594.714 1823.84,588.46 1828.55,584.707 1833.25,582.206 1837.96,580.955 1842.67,577.202 1847.37,572.199 1852.08,564.695 1856.78,560.942 1861.49,555.939 1866.19,554.688 1870.9,552.187 1875.6,547.184 1880.31,544.682 1885.02,542.18 1889.72,540.93 1894.43,534.676 1899.13,530.923 1903.84,528.422 1908.54,525.92 1913.25,524.669 1917.95,523.419 1922.66,517.165 1927.37,515.914 1932.07,513.412 1936.78,510.911 1941.48,507.158 1946.19,507.158 1950.89,507.158 1955.6,504.657 1960.3,502.155 1965.01,499.654 1969.72,497.152 1974.42,495.901 1979.13,495.901 1983.83,494.651 1988.54,493.4 1993.24,492.149 1997.95,488.397 2002.65,485.895 2007.36,483.393 2012.07,482.143 2016.77,482.143 2021.48,478.39 2026.18,478.39 2030.89,477.14 2035.59,477.14 2040.3,477.14 2045,472.136 2049.71,472.136 2054.42,469.635 2059.12,467.133 2063.83,464.632 2068.53,464.632 2073.24,464.632 2077.94,463.381 2082.65,460.879 2087.36,458.378 2092.06,458.378 2096.77,457.127 2101.47,455.876 2106.18,453.375 2110.88,452.124 2115.59,450.873 2120.29,449.622 2125,449.622 2129.71,448.371 2134.41,447.121 2139.12,445.87 2143.82,444.619 2148.53,442.118 2153.23,442.118 2157.94,442.118 2162.64,440.867 2167.35,440.867 2172.06,440.867 2176.76,439.616 2181.47,439.616 2186.17,438.365 2190.88,438.365 2195.58,438.365 2200.29,434.613 "/>
<path clip-path="url(#clip010)" d="M1963.81 298.357 L2190.25 298.357 L2190.25 90.9966 L1963.81 90.9966  Z" fill="#ffffff" fill-rule="evenodd" fill-opacity="1"/>
<polyline clip-path="url(#clip010)" style="stroke:#000000; stroke-linecap:round; stroke-linejoin:round; stroke-width:4; stroke-opacity:1; fill:none" points="1963.81,298.357 2190.25,298.357 2190.25,90.9966 1963.81,90.9966 1963.81,298.357 "/>
<polyline clip-path="url(#clip010)" style="stroke:#009af9; stroke-linecap:round; stroke-linejoin:round; stroke-width:4; stroke-opacity:1; fill:none" points="1985.98,142.837 2118.99,142.837 "/>
<path clip-path="url(#clip010)" d="M2163.41 126.691 L2163.41 131.251 Q2160.74 129.978 2158.38 129.353 Q2156.02 128.728 2153.82 128.728 Q2150 128.728 2147.92 130.209 Q2145.86 131.691 2145.86 134.422 Q2145.86 136.714 2147.23 137.895 Q2148.61 139.052 2152.46 139.77 L2155.28 140.348 Q2160.51 141.344 2162.99 143.867 Q2165.49 146.367 2165.49 150.58 Q2165.49 155.603 2162.11 158.195 Q2158.75 160.788 2152.25 160.788 Q2149.79 160.788 2147.02 160.232 Q2144.26 159.677 2141.3 158.589 L2141.3 153.774 Q2144.15 155.371 2146.88 156.181 Q2149.61 156.992 2152.25 156.992 Q2156.25 156.992 2158.43 155.418 Q2160.61 153.844 2160.61 150.927 Q2160.61 148.381 2159.03 146.945 Q2157.48 145.51 2153.92 144.793 L2151.07 144.237 Q2145.84 143.195 2143.5 140.973 Q2141.16 138.751 2141.16 134.793 Q2141.16 130.209 2144.38 127.57 Q2147.62 124.932 2153.29 124.932 Q2155.72 124.932 2158.24 125.371 Q2160.77 125.811 2163.41 126.691 Z" fill="#000000" fill-rule="evenodd" fill-opacity="1" /><polyline clip-path="url(#clip010)" style="stroke:#e26f46; stroke-linecap:round; stroke-linejoin:round; stroke-width:4; stroke-opacity:1; fill:none" points="1985.98,194.677 2118.99,194.677 "/>
<path clip-path="url(#clip010)" d="M2141.16 177.397 L2145.84 177.397 L2145.84 211.957 L2141.16 211.957 L2141.16 177.397 Z" fill="#000000" fill-rule="evenodd" fill-opacity="1" /><polyline clip-path="url(#clip010)" style="stroke:#3da44d; stroke-linecap:round; stroke-linejoin:round; stroke-width:4; stroke-opacity:1; fill:none" points="1985.98,246.517 2118.99,246.517 "/>
<path clip-path="url(#clip010)" d="M2157.55 247.593 Q2159.05 248.102 2160.47 249.769 Q2161.9 251.436 2163.34 254.352 L2168.08 263.797 L2163.06 263.797 L2158.64 254.931 Q2156.92 251.459 2155.3 250.324 Q2153.71 249.19 2150.93 249.19 L2145.84 249.19 L2145.84 263.797 L2141.16 263.797 L2141.16 229.237 L2151.72 229.237 Q2157.64 229.237 2160.56 231.713 Q2163.48 234.19 2163.48 239.19 Q2163.48 242.454 2161.95 244.607 Q2160.44 246.76 2157.55 247.593 M2145.84 233.079 L2145.84 245.348 L2151.72 245.348 Q2155.1 245.348 2156.81 243.797 Q2158.54 242.223 2158.54 239.19 Q2158.54 236.158 2156.81 234.63 Q2155.1 233.079 2151.72 233.079 L2145.84 233.079 Z" fill="#000000" fill-rule="evenodd" fill-opacity="1" /></svg>
