<?xml version="1.0" encoding="UTF-8" standalone="no"?>
<!DOCTYPE svg PUBLIC "-//W3C//DTD SVG 1.1//EN"
 "http://www.w3.org/Graphics/SVG/1.1/DTD/svg11.dtd">
<!-- Generated by graphviz version 2.44.0 (0)
 -->
<!-- Title: G Pages: 1 -->
<svg width="438pt" height="63pt"
 viewBox="0.00 0.00 437.79 62.60" xmlns="http://www.w3.org/2000/svg" xmlns:xlink="http://www.w3.org/1999/xlink">
<g id="graph0" class="graph" transform="scale(1 1) rotate(0) translate(4 58.6)">
<title>G</title>
<polygon fill="white" stroke="transparent" points="-4,4 -4,-58.6 433.79,-58.6 433.79,4 -4,4"/>
<!-- S_1 -->
<g id="node1" class="node">
<title>S_1</title>
<ellipse fill="#6c9ac3" stroke="#6c9ac3" cx="27.3" cy="-27.3" rx="27.1" ry="27.1"/>
<text text-anchor="middle" x="27.3" y="-23.6" font-family="Times,serif" font-size="14.00">S_1</text>
</g>
<!-- T_1 -->
<g id="node4" class="node">
<title>T_1</title>
<polygon fill="#e28f41" stroke="#e28f41" points="141.6,-47.8 100.6,-47.8 100.6,-6.8 141.6,-6.8 141.6,-47.8"/>
<text text-anchor="middle" x="121.1" y="-23.6" font-family="Times,serif" font-size="14.00">T_1</text>
</g>
<!-- S_1&#45;&gt;T_1 -->
<g id="edge2" class="edge">
<title>S_1&#45;&gt;T_1</title>
<path fill="none" stroke="black" d="M54.85,-27.3C65.84,-27.3 78.65,-27.3 89.99,-27.3"/>
<polygon fill="black" stroke="black" points="90.31,-30.8 100.31,-27.3 90.31,-23.8 90.31,-30.8"/>
<text text-anchor="middle" x="77.6" y="-31.1" font-family="Times,serif" font-size="14.00">1</text>
</g>
<!-- S_2 -->
<g id="node2" class="node">
<title>S_2</title>
<ellipse fill="#6c9ac3" stroke="#6c9ac3" cx="214.89" cy="-27.3" rx="27.1" ry="27.1"/>
<text text-anchor="middle" x="214.89" y="-23.6" font-family="Times,serif" font-size="14.00">S_2</text>
</g>
<!-- S_2&#45;&gt;T_1 -->
<g id="edge1" class="edge">
<title>S_2&#45;&gt;T_1</title>
<path fill="none" stroke="black" d="M190.92,-13.82C181.35,-9.75 170.05,-6.92 159.6,-9.3 156.76,-9.94 153.88,-10.83 151.05,-11.87"/>
<polygon fill="black" stroke="black" points="149.55,-8.71 141.73,-15.85 152.3,-15.14 149.55,-8.71"/>
<text text-anchor="middle" x="164.6" y="-13.1" font-family="Times,serif" font-size="14.00">1</text>
</g>
<!-- T_2 -->
<g id="node5" class="node">
<title>T_2</title>
<polygon fill="#e28f41" stroke="#e28f41" points="329.19,-47.8 288.19,-47.8 288.19,-6.8 329.19,-6.8 329.19,-47.8"/>
<text text-anchor="middle" x="308.69" y="-23.6" font-family="Times,serif" font-size="14.00">T_2</text>
</g>
<!-- S_2&#45;&gt;T_2 -->
<g id="edge4" class="edge">
<title>S_2&#45;&gt;T_2</title>
<path fill="none" stroke="black" d="M242.44,-27.3C253.44,-27.3 266.25,-27.3 277.59,-27.3"/>
<polygon fill="black" stroke="black" points="277.91,-30.8 287.91,-27.3 277.91,-23.8 277.91,-30.8"/>
<text text-anchor="middle" x="265.19" y="-31.1" font-family="Times,serif" font-size="14.00">1</text>
</g>
<!-- S_3 -->
<g id="node3" class="node">
<title>S_3</title>
<ellipse fill="#6c9ac3" stroke="#6c9ac3" cx="402.49" cy="-27.3" rx="27.1" ry="27.1"/>
<text text-anchor="middle" x="402.49" y="-23.6" font-family="Times,serif" font-size="14.00">S_3</text>
</g>
<!-- T_1&#45;&gt;S_2 -->
<g id="edge3" class="edge">
<title>T_1&#45;&gt;S_2</title>
<path fill="none" stroke="black" d="M142.01,-27.3C152.29,-27.3 165.16,-27.3 177.16,-27.3"/>
<polygon fill="black" stroke="black" points="177.39,-30.8 187.39,-27.3 177.39,-23.8 177.39,-30.8"/>
<text text-anchor="middle" x="164.6" y="-31.1" font-family="Times,serif" font-size="14.00">2</text>
</g>
<!-- T_2&#45;&gt;S_3 -->
<g id="edge5" class="edge">
<title>T_2&#45;&gt;S_3</title>
<path fill="none" stroke="black" d="M329.61,-27.3C339.89,-27.3 352.76,-27.3 364.75,-27.3"/>
<polygon fill="black" stroke="black" points="364.99,-30.8 374.99,-27.3 364.99,-23.8 364.99,-30.8"/>
<text text-anchor="middle" x="352.19" y="-31.1" font-family="Times,serif" font-size="14.00">1</text>
</g>
</g>
</svg>
