<?xml version="1.0" encoding="utf-8"?>
<svg xmlns="http://www.w3.org/2000/svg" xmlns:xlink="http://www.w3.org/1999/xlink" width="576" height="384" viewBox="0 0 2304 1536">
<defs>
  <clipPath id="clip010">
    <rect x="0" y="0" width="2304" height="1536"/>
  </clipPath>
</defs>
<path clip-path="url(#clip010)" d="
M0 1536 L2304 1536 L2304 0 L0 0  Z
  " fill="#ffffff" fill-rule="evenodd" fill-opacity="1"/>
<defs>
  <clipPath id="clip011">
    <rect x="460" y="0" width="1614" height="1536"/>
  </clipPath>
</defs>
<path clip-path="url(#clip010)" d="
M250.92 1359.82 L2256.76 1359.82 L2256.76 47.2441 L250.92 47.2441  Z
  " fill="#ffffff" fill-rule="evenodd" fill-opacity="1"/>
<defs>
  <clipPath id="clip012">
    <rect x="250" y="47" width="2007" height="1314"/>
  </clipPath>
</defs>
<polyline clip-path="url(#clip012)" style="stroke:#000000; stroke-width:2; stroke-opacity:0.1; fill:none" points="
  307.689,1359.82 307.689,47.2441 
  "/>
<polyline clip-path="url(#clip012)" style="stroke:#000000; stroke-width:2; stroke-opacity:0.1; fill:none" points="
  780.763,1359.82 780.763,47.2441 
  "/>
<polyline clip-path="url(#clip012)" style="stroke:#000000; stroke-width:2; stroke-opacity:0.1; fill:none" points="
  1253.84,1359.82 1253.84,47.2441 
  "/>
<polyline clip-path="url(#clip012)" style="stroke:#000000; stroke-width:2; stroke-opacity:0.1; fill:none" points="
  1726.91,1359.82 1726.91,47.2441 
  "/>
<polyline clip-path="url(#clip012)" style="stroke:#000000; stroke-width:2; stroke-opacity:0.1; fill:none" points="
  2199.99,1359.82 2199.99,47.2441 
  "/>
<polyline clip-path="url(#clip012)" style="stroke:#000000; stroke-width:2; stroke-opacity:0.1; fill:none" points="
  250.92,1322.67 2256.76,1322.67 
  "/>
<polyline clip-path="url(#clip012)" style="stroke:#000000; stroke-width:2; stroke-opacity:0.1; fill:none" points="
  250.92,1009.97 2256.76,1009.97 
  "/>
<polyline clip-path="url(#clip012)" style="stroke:#000000; stroke-width:2; stroke-opacity:0.1; fill:none" points="
  250.92,697.278 2256.76,697.278 
  "/>
<polyline clip-path="url(#clip012)" style="stroke:#000000; stroke-width:2; stroke-opacity:0.1; fill:none" points="
  250.92,384.581 2256.76,384.581 
  "/>
<polyline clip-path="url(#clip012)" style="stroke:#000000; stroke-width:2; stroke-opacity:0.1; fill:none" points="
  250.92,71.8846 2256.76,71.8846 
  "/>
<polyline clip-path="url(#clip010)" style="stroke:#000000; stroke-width:4; stroke-opacity:1; fill:none" points="
  250.92,1359.82 2256.76,1359.82 
  "/>
<polyline clip-path="url(#clip010)" style="stroke:#000000; stroke-width:4; stroke-opacity:1; fill:none" points="
  250.92,1359.82 250.92,47.2441 
  "/>
<polyline clip-path="url(#clip010)" style="stroke:#000000; stroke-width:4; stroke-opacity:1; fill:none" points="
  307.689,1359.82 307.689,1344.07 
  "/>
<polyline clip-path="url(#clip010)" style="stroke:#000000; stroke-width:4; stroke-opacity:1; fill:none" points="
  780.763,1359.82 780.763,1344.07 
  "/>
<polyline clip-path="url(#clip010)" style="stroke:#000000; stroke-width:4; stroke-opacity:1; fill:none" points="
  1253.84,1359.82 1253.84,1344.07 
  "/>
<polyline clip-path="url(#clip010)" style="stroke:#000000; stroke-width:4; stroke-opacity:1; fill:none" points="
  1726.91,1359.82 1726.91,1344.07 
  "/>
<polyline clip-path="url(#clip010)" style="stroke:#000000; stroke-width:4; stroke-opacity:1; fill:none" points="
  2199.99,1359.82 2199.99,1344.07 
  "/>
<polyline clip-path="url(#clip010)" style="stroke:#000000; stroke-width:4; stroke-opacity:1; fill:none" points="
  250.92,1322.67 274.99,1322.67 
  "/>
<polyline clip-path="url(#clip010)" style="stroke:#000000; stroke-width:4; stroke-opacity:1; fill:none" points="
  250.92,1009.97 274.99,1009.97 
  "/>
<polyline clip-path="url(#clip010)" style="stroke:#000000; stroke-width:4; stroke-opacity:1; fill:none" points="
  250.92,697.278 274.99,697.278 
  "/>
<polyline clip-path="url(#clip010)" style="stroke:#000000; stroke-width:4; stroke-opacity:1; fill:none" points="
  250.92,384.581 274.99,384.581 
  "/>
<polyline clip-path="url(#clip010)" style="stroke:#000000; stroke-width:4; stroke-opacity:1; fill:none" points="
  250.92,71.8846 274.99,71.8846 
  "/>
<path clip-path="url(#clip010)" d="M 0 0 M307.689 1381.33 Q304.078 1381.33 302.249 1384.9 Q300.444 1388.44 300.444 1395.57 Q300.444 1402.67 302.249 1406.24 Q304.078 1409.78 307.689 1409.78 Q311.323 1409.78 313.129 1406.24 Q314.957 1402.67 314.957 1395.57 Q314.957 1388.44 313.129 1384.9 Q311.323 1381.33 307.689 1381.33 M307.689 1377.63 Q313.499 1377.63 316.555 1382.23 Q319.633 1386.82 319.633 1395.57 Q319.633 1404.29 316.555 1408.9 Q313.499 1413.48 307.689 1413.48 Q301.879 1413.48 298.8 1408.9 Q295.745 1404.29 295.745 1395.57 Q295.745 1386.82 298.8 1382.23 Q301.879 1377.63 307.689 1377.63 Z" fill="#000000" fill-rule="evenodd" fill-opacity="1" /><path clip-path="url(#clip010)" d="M 0 0 M757.639 1408.88 L765.277 1408.88 L765.277 1382.51 L756.967 1384.18 L756.967 1379.92 L765.231 1378.25 L769.907 1378.25 L769.907 1408.88 L777.546 1408.88 L777.546 1412.81 L757.639 1412.81 L757.639 1408.88 Z" fill="#000000" fill-rule="evenodd" fill-opacity="1" /><path clip-path="url(#clip010)" d="M 0 0 M792.615 1381.33 Q789.004 1381.33 787.175 1384.9 Q785.37 1388.44 785.37 1395.57 Q785.37 1402.67 787.175 1406.24 Q789.004 1409.78 792.615 1409.78 Q796.249 1409.78 798.055 1406.24 Q799.884 1402.67 799.884 1395.57 Q799.884 1388.44 798.055 1384.9 Q796.249 1381.33 792.615 1381.33 M792.615 1377.63 Q798.425 1377.63 801.481 1382.23 Q804.56 1386.82 804.56 1395.57 Q804.56 1404.29 801.481 1408.9 Q798.425 1413.48 792.615 1413.48 Q786.805 1413.48 783.726 1408.9 Q780.671 1404.29 780.671 1395.57 Q780.671 1386.82 783.726 1382.23 Q786.805 1377.63 792.615 1377.63 Z" fill="#000000" fill-rule="evenodd" fill-opacity="1" /><path clip-path="url(#clip010)" d="M 0 0 M1234.98 1408.88 L1251.3 1408.88 L1251.3 1412.81 L1229.36 1412.81 L1229.36 1408.88 Q1232.02 1406.12 1236.6 1401.49 Q1241.21 1396.84 1242.39 1395.5 Q1244.64 1392.97 1245.52 1391.24 Q1246.42 1389.48 1246.42 1387.79 Q1246.42 1385.03 1244.47 1383.3 Q1242.55 1381.56 1239.45 1381.56 Q1237.25 1381.56 1234.8 1382.33 Q1232.37 1383.09 1229.59 1384.64 L1229.59 1379.92 Q1232.41 1378.78 1234.87 1378.21 Q1237.32 1377.63 1239.36 1377.63 Q1244.73 1377.63 1247.92 1380.31 Q1251.12 1383 1251.12 1387.49 Q1251.12 1389.62 1250.31 1391.54 Q1249.52 1393.44 1247.41 1396.03 Q1246.84 1396.7 1243.73 1399.92 Q1240.63 1403.11 1234.98 1408.88 Z" fill="#000000" fill-rule="evenodd" fill-opacity="1" /><path clip-path="url(#clip010)" d="M 0 0 M1266.37 1381.33 Q1262.76 1381.33 1260.93 1384.9 Q1259.13 1388.44 1259.13 1395.57 Q1259.13 1402.67 1260.93 1406.24 Q1262.76 1409.78 1266.37 1409.78 Q1270.01 1409.78 1271.81 1406.24 Q1273.64 1402.67 1273.64 1395.57 Q1273.64 1388.44 1271.81 1384.9 Q1270.01 1381.33 1266.37 1381.33 M1266.37 1377.63 Q1272.18 1377.63 1275.24 1382.23 Q1278.32 1386.82 1278.32 1395.57 Q1278.32 1404.29 1275.24 1408.9 Q1272.18 1413.48 1266.37 1413.48 Q1260.56 1413.48 1257.48 1408.9 Q1254.43 1404.29 1254.43 1395.57 Q1254.43 1386.82 1257.48 1382.23 Q1260.56 1377.63 1266.37 1377.63 Z" fill="#000000" fill-rule="evenodd" fill-opacity="1" /><path clip-path="url(#clip010)" d="M 0 0 M1717.65 1394.18 Q1721.01 1394.9 1722.88 1397.16 Q1724.78 1399.43 1724.78 1402.77 Q1724.78 1407.88 1721.26 1410.68 Q1717.75 1413.48 1711.26 1413.48 Q1709.09 1413.48 1706.77 1413.04 Q1704.48 1412.63 1702.03 1411.77 L1702.03 1407.26 Q1703.97 1408.39 1706.29 1408.97 Q1708.6 1409.55 1711.13 1409.55 Q1715.52 1409.55 1717.82 1407.81 Q1720.13 1406.08 1720.13 1402.77 Q1720.13 1399.71 1717.98 1398 Q1715.85 1396.26 1712.03 1396.26 L1708 1396.26 L1708 1392.42 L1712.21 1392.42 Q1715.66 1392.42 1717.49 1391.05 Q1719.32 1389.66 1719.32 1387.07 Q1719.32 1384.41 1717.42 1383 Q1715.55 1381.56 1712.03 1381.56 Q1710.11 1381.56 1707.91 1381.98 Q1705.71 1382.4 1703.07 1383.27 L1703.07 1379.11 Q1705.73 1378.37 1708.05 1378 Q1710.38 1377.63 1712.44 1377.63 Q1717.77 1377.63 1720.87 1380.06 Q1723.97 1382.46 1723.97 1386.59 Q1723.97 1389.46 1722.33 1391.45 Q1720.69 1393.41 1717.65 1394.18 Z" fill="#000000" fill-rule="evenodd" fill-opacity="1" /><path clip-path="url(#clip010)" d="M 0 0 M1739.85 1381.33 Q1736.24 1381.33 1734.41 1384.9 Q1732.61 1388.44 1732.61 1395.57 Q1732.61 1402.67 1734.41 1406.24 Q1736.24 1409.78 1739.85 1409.78 Q1743.49 1409.78 1745.29 1406.24 Q1747.12 1402.67 1747.12 1395.57 Q1747.12 1388.44 1745.29 1384.9 Q1743.49 1381.33 1739.85 1381.33 M1739.85 1377.63 Q1745.66 1377.63 1748.72 1382.23 Q1751.8 1386.82 1751.8 1395.57 Q1751.8 1404.29 1748.72 1408.9 Q1745.66 1413.48 1739.85 1413.48 Q1734.04 1413.48 1730.96 1408.9 Q1727.91 1404.29 1727.91 1395.57 Q1727.91 1386.82 1730.96 1382.23 Q1734.04 1377.63 1739.85 1377.63 Z" fill="#000000" fill-rule="evenodd" fill-opacity="1" /><path clip-path="url(#clip010)" d="M 0 0 M2189.49 1382.33 L2177.68 1400.77 L2189.49 1400.77 L2189.49 1382.33 M2188.26 1378.25 L2194.14 1378.25 L2194.14 1400.77 L2199.07 1400.77 L2199.07 1404.66 L2194.14 1404.66 L2194.14 1412.81 L2189.49 1412.81 L2189.49 1404.66 L2173.89 1404.66 L2173.89 1400.15 L2188.26 1378.25 Z" fill="#000000" fill-rule="evenodd" fill-opacity="1" /><path clip-path="url(#clip010)" d="M 0 0 M2214.14 1381.33 Q2210.53 1381.33 2208.7 1384.9 Q2206.9 1388.44 2206.9 1395.57 Q2206.9 1402.67 2208.7 1406.24 Q2210.53 1409.78 2214.14 1409.78 Q2217.78 1409.78 2219.58 1406.24 Q2221.41 1402.67 2221.41 1395.57 Q2221.41 1388.44 2219.58 1384.9 Q2217.78 1381.33 2214.14 1381.33 M2214.14 1377.63 Q2219.95 1377.63 2223.01 1382.23 Q2226.09 1386.82 2226.09 1395.57 Q2226.09 1404.29 2223.01 1408.9 Q2219.95 1413.48 2214.14 1413.48 Q2208.33 1413.48 2205.25 1408.9 Q2202.2 1404.29 2202.2 1395.57 Q2202.2 1386.82 2205.25 1382.23 Q2208.33 1377.63 2214.14 1377.63 Z" fill="#000000" fill-rule="evenodd" fill-opacity="1" /><path clip-path="url(#clip010)" d="M 0 0 M215.936 1308.47 Q212.325 1308.47 210.496 1312.03 Q208.69 1315.58 208.69 1322.71 Q208.69 1329.81 210.496 1333.38 Q212.325 1336.92 215.936 1336.92 Q219.57 1336.92 221.375 1333.38 Q223.204 1329.81 223.204 1322.71 Q223.204 1315.58 221.375 1312.03 Q219.57 1308.47 215.936 1308.47 M215.936 1304.77 Q221.746 1304.77 224.801 1309.37 Q227.88 1313.96 227.88 1322.71 Q227.88 1331.43 224.801 1336.04 Q221.746 1340.62 215.936 1340.62 Q210.125 1340.62 207.047 1336.04 Q203.991 1331.43 203.991 1322.71 Q203.991 1313.96 207.047 1309.37 Q210.125 1304.77 215.936 1304.77 Z" fill="#000000" fill-rule="evenodd" fill-opacity="1" /><path clip-path="url(#clip010)" d="M 0 0 M158.529 1023.32 L174.848 1023.32 L174.848 1027.25 L152.904 1027.25 L152.904 1023.32 Q155.566 1020.56 160.149 1015.94 Q164.755 1011.28 165.936 1009.94 Q168.181 1007.42 169.061 1005.68 Q169.964 1003.92 169.964 1002.23 Q169.964 999.477 168.019 997.741 Q166.098 996.005 162.996 996.005 Q160.797 996.005 158.343 996.769 Q155.913 997.533 153.135 999.084 L153.135 994.361 Q155.959 993.227 158.413 992.648 Q160.866 992.07 162.903 992.07 Q168.274 992.07 171.468 994.755 Q174.663 997.44 174.663 1001.93 Q174.663 1004.06 173.852 1005.98 Q173.065 1007.88 170.959 1010.47 Q170.38 1011.14 167.278 1014.36 Q164.177 1017.56 158.529 1023.32 Z" fill="#000000" fill-rule="evenodd" fill-opacity="1" /><path clip-path="url(#clip010)" d="M 0 0 M179.964 992.695 L198.32 992.695 L198.32 996.63 L184.246 996.63 L184.246 1005.1 Q185.264 1004.75 186.283 1004.59 Q187.301 1004.41 188.32 1004.41 Q194.107 1004.41 197.487 1007.58 Q200.866 1010.75 200.866 1016.17 Q200.866 1021.75 197.394 1024.85 Q193.922 1027.93 187.602 1027.93 Q185.427 1027.93 183.158 1027.56 Q180.913 1027.19 178.505 1026.44 L178.505 1021.75 Q180.589 1022.88 182.811 1023.44 Q185.033 1023.99 187.51 1023.99 Q191.514 1023.99 193.852 1021.88 Q196.19 1019.78 196.19 1016.17 Q196.19 1012.56 193.852 1010.45 Q191.514 1008.34 187.51 1008.34 Q185.635 1008.34 183.76 1008.76 Q181.908 1009.18 179.964 1010.06 L179.964 992.695 Z" fill="#000000" fill-rule="evenodd" fill-opacity="1" /><path clip-path="url(#clip010)" d="M 0 0 M215.936 995.773 Q212.325 995.773 210.496 999.338 Q208.69 1002.88 208.69 1010.01 Q208.69 1017.12 210.496 1020.68 Q212.325 1024.22 215.936 1024.22 Q219.57 1024.22 221.375 1020.68 Q223.204 1017.12 223.204 1010.01 Q223.204 1002.88 221.375 999.338 Q219.57 995.773 215.936 995.773 M215.936 992.07 Q221.746 992.07 224.801 996.676 Q227.88 1001.26 227.88 1010.01 Q227.88 1018.74 224.801 1023.34 Q221.746 1027.93 215.936 1027.93 Q210.125 1027.93 207.047 1023.34 Q203.991 1018.74 203.991 1010.01 Q203.991 1001.26 207.047 996.676 Q210.125 992.07 215.936 992.07 Z" fill="#000000" fill-rule="evenodd" fill-opacity="1" /><path clip-path="url(#clip010)" d="M 0 0 M152.95 679.998 L171.306 679.998 L171.306 683.933 L157.232 683.933 L157.232 692.405 Q158.251 692.058 159.269 691.896 Q160.288 691.711 161.306 691.711 Q167.093 691.711 170.473 694.882 Q173.852 698.053 173.852 703.47 Q173.852 709.049 170.38 712.151 Q166.908 715.229 160.589 715.229 Q158.413 715.229 156.144 714.859 Q153.899 714.489 151.492 713.748 L151.492 709.049 Q153.575 710.183 155.797 710.739 Q158.019 711.294 160.496 711.294 Q164.501 711.294 166.839 709.188 Q169.177 707.081 169.177 703.47 Q169.177 699.859 166.839 697.753 Q164.501 695.646 160.496 695.646 Q158.621 695.646 156.746 696.063 Q154.894 696.479 152.95 697.359 L152.95 679.998 Z" fill="#000000" fill-rule="evenodd" fill-opacity="1" /><path clip-path="url(#clip010)" d="M 0 0 M188.922 683.077 Q185.311 683.077 183.482 686.642 Q181.677 690.183 181.677 697.313 Q181.677 704.419 183.482 707.984 Q185.311 711.526 188.922 711.526 Q192.556 711.526 194.362 707.984 Q196.19 704.419 196.19 697.313 Q196.19 690.183 194.362 686.642 Q192.556 683.077 188.922 683.077 M188.922 679.373 Q194.732 679.373 197.788 683.979 Q200.866 688.563 200.866 697.313 Q200.866 706.04 197.788 710.646 Q194.732 715.229 188.922 715.229 Q183.112 715.229 180.033 710.646 Q176.977 706.04 176.977 697.313 Q176.977 688.563 180.033 683.979 Q183.112 679.373 188.922 679.373 Z" fill="#000000" fill-rule="evenodd" fill-opacity="1" /><path clip-path="url(#clip010)" d="M 0 0 M215.936 683.077 Q212.325 683.077 210.496 686.642 Q208.69 690.183 208.69 697.313 Q208.69 704.419 210.496 707.984 Q212.325 711.526 215.936 711.526 Q219.57 711.526 221.375 707.984 Q223.204 704.419 223.204 697.313 Q223.204 690.183 221.375 686.642 Q219.57 683.077 215.936 683.077 M215.936 679.373 Q221.746 679.373 224.801 683.979 Q227.88 688.563 227.88 697.313 Q227.88 706.04 224.801 710.646 Q221.746 715.229 215.936 715.229 Q210.125 715.229 207.047 710.646 Q203.991 706.04 203.991 697.313 Q203.991 688.563 207.047 683.979 Q210.125 679.373 215.936 679.373 Z" fill="#000000" fill-rule="evenodd" fill-opacity="1" /><path clip-path="url(#clip010)" d="M 0 0 M152.626 367.301 L174.848 367.301 L174.848 369.292 L162.302 401.861 L157.417 401.861 L169.223 371.236 L152.626 371.236 L152.626 367.301 Z" fill="#000000" fill-rule="evenodd" fill-opacity="1" /><path clip-path="url(#clip010)" d="M 0 0 M179.964 367.301 L198.32 367.301 L198.32 371.236 L184.246 371.236 L184.246 379.709 Q185.264 379.361 186.283 379.199 Q187.301 379.014 188.32 379.014 Q194.107 379.014 197.487 382.185 Q200.866 385.357 200.866 390.773 Q200.866 396.352 197.394 399.454 Q193.922 402.533 187.602 402.533 Q185.427 402.533 183.158 402.162 Q180.913 401.792 178.505 401.051 L178.505 396.352 Q180.589 397.486 182.811 398.042 Q185.033 398.597 187.51 398.597 Q191.514 398.597 193.852 396.491 Q196.19 394.385 196.19 390.773 Q196.19 387.162 193.852 385.056 Q191.514 382.949 187.51 382.949 Q185.635 382.949 183.76 383.366 Q181.908 383.783 179.964 384.662 L179.964 367.301 Z" fill="#000000" fill-rule="evenodd" fill-opacity="1" /><path clip-path="url(#clip010)" d="M 0 0 M215.936 370.38 Q212.325 370.38 210.496 373.945 Q208.69 377.486 208.69 384.616 Q208.69 391.722 210.496 395.287 Q212.325 398.829 215.936 398.829 Q219.57 398.829 221.375 395.287 Q223.204 391.722 223.204 384.616 Q223.204 377.486 221.375 373.945 Q219.57 370.38 215.936 370.38 M215.936 366.676 Q221.746 366.676 224.801 371.283 Q227.88 375.866 227.88 384.616 Q227.88 393.343 224.801 397.949 Q221.746 402.533 215.936 402.533 Q210.125 402.533 207.047 397.949 Q203.991 393.343 203.991 384.616 Q203.991 375.866 207.047 371.283 Q210.125 366.676 215.936 366.676 Z" fill="#000000" fill-rule="evenodd" fill-opacity="1" /><path clip-path="url(#clip010)" d="M 0 0 M126.931 85.2294 L134.57 85.2294 L134.57 58.8638 L126.26 60.5305 L126.26 56.2713 L134.524 54.6046 L139.2 54.6046 L139.2 85.2294 L146.839 85.2294 L146.839 89.1646 L126.931 89.1646 L126.931 85.2294 Z" fill="#000000" fill-rule="evenodd" fill-opacity="1" /><path clip-path="url(#clip010)" d="M 0 0 M161.908 57.6833 Q158.297 57.6833 156.468 61.2481 Q154.663 64.7897 154.663 71.9193 Q154.663 79.0258 156.468 82.5906 Q158.297 86.1322 161.908 86.1322 Q165.542 86.1322 167.348 82.5906 Q169.177 79.0258 169.177 71.9193 Q169.177 64.7897 167.348 61.2481 Q165.542 57.6833 161.908 57.6833 M161.908 53.9796 Q167.718 53.9796 170.774 58.5861 Q173.852 63.1694 173.852 71.9193 Q173.852 80.6461 170.774 85.2526 Q167.718 89.8359 161.908 89.8359 Q156.098 89.8359 153.019 85.2526 Q149.964 80.6461 149.964 71.9193 Q149.964 63.1694 153.019 58.5861 Q156.098 53.9796 161.908 53.9796 Z" fill="#000000" fill-rule="evenodd" fill-opacity="1" /><path clip-path="url(#clip010)" d="M 0 0 M188.922 57.6833 Q185.311 57.6833 183.482 61.2481 Q181.677 64.7897 181.677 71.9193 Q181.677 79.0258 183.482 82.5906 Q185.311 86.1322 188.922 86.1322 Q192.556 86.1322 194.362 82.5906 Q196.19 79.0258 196.19 71.9193 Q196.19 64.7897 194.362 61.2481 Q192.556 57.6833 188.922 57.6833 M188.922 53.9796 Q194.732 53.9796 197.788 58.5861 Q200.866 63.1694 200.866 71.9193 Q200.866 80.6461 197.788 85.2526 Q194.732 89.8359 188.922 89.8359 Q183.112 89.8359 180.033 85.2526 Q176.977 80.6461 176.977 71.9193 Q176.977 63.1694 180.033 58.5861 Q183.112 53.9796 188.922 53.9796 Z" fill="#000000" fill-rule="evenodd" fill-opacity="1" /><path clip-path="url(#clip010)" d="M 0 0 M215.936 57.6833 Q212.325 57.6833 210.496 61.2481 Q208.69 64.7897 208.69 71.9193 Q208.69 79.0258 210.496 82.5906 Q212.325 86.1322 215.936 86.1322 Q219.57 86.1322 221.375 82.5906 Q223.204 79.0258 223.204 71.9193 Q223.204 64.7897 221.375 61.2481 Q219.57 57.6833 215.936 57.6833 M215.936 53.9796 Q221.746 53.9796 224.801 58.5861 Q227.88 63.1694 227.88 71.9193 Q227.88 80.6461 224.801 85.2526 Q221.746 89.8359 215.936 89.8359 Q210.125 89.8359 207.047 85.2526 Q203.991 80.6461 203.991 71.9193 Q203.991 63.1694 207.047 58.5861 Q210.125 53.9796 215.936 53.9796 Z" fill="#000000" fill-rule="evenodd" fill-opacity="1" /><path clip-path="url(#clip010)" d="M 0 0 M1181.44 1444.2 L1221.64 1444.2 L1221.64 1449.61 L1204.77 1449.61 L1204.77 1491.72 L1198.31 1491.72 L1198.31 1449.61 L1181.44 1449.61 L1181.44 1444.2 Z" fill="#000000" fill-rule="evenodd" fill-opacity="1" /><path clip-path="url(#clip010)" d="M 0 0 M1225.78 1456.08 L1231.64 1456.08 L1231.64 1491.72 L1225.78 1491.72 L1225.78 1456.08 M1225.78 1442.2 L1231.64 1442.2 L1231.64 1449.61 L1225.78 1449.61 L1225.78 1442.2 Z" fill="#000000" fill-rule="evenodd" fill-opacity="1" /><path clip-path="url(#clip010)" d="M 0 0 M1265.53 1462.92 Q1267.73 1458.97 1270.79 1457.09 Q1273.84 1455.22 1277.98 1455.22 Q1283.55 1455.22 1286.57 1459.13 Q1289.6 1463.01 1289.6 1470.21 L1289.6 1491.72 L1283.71 1491.72 L1283.71 1470.4 Q1283.71 1465.27 1281.89 1462.79 Q1280.08 1460.31 1276.36 1460.31 Q1271.81 1460.31 1269.16 1463.33 Q1266.52 1466.36 1266.52 1471.58 L1266.52 1491.72 L1260.63 1491.72 L1260.63 1470.4 Q1260.63 1465.24 1258.82 1462.79 Q1257 1460.31 1253.22 1460.31 Q1248.73 1460.31 1246.09 1463.36 Q1243.45 1466.39 1243.45 1471.58 L1243.45 1491.72 L1237.56 1491.72 L1237.56 1456.08 L1243.45 1456.08 L1243.45 1461.61 Q1245.45 1458.34 1248.25 1456.78 Q1251.05 1455.22 1254.9 1455.22 Q1258.79 1455.22 1261.49 1457.19 Q1264.23 1459.16 1265.53 1462.92 Z" fill="#000000" fill-rule="evenodd" fill-opacity="1" /><path clip-path="url(#clip010)" d="M 0 0 M1326.23 1472.44 L1326.23 1475.3 L1299.31 1475.3 Q1299.69 1481.35 1302.93 1484.53 Q1306.21 1487.68 1312.04 1487.68 Q1315.41 1487.68 1318.56 1486.85 Q1321.74 1486.03 1324.86 1484.37 L1324.86 1489.91 Q1321.71 1491.25 1318.4 1491.95 Q1315.09 1492.65 1311.69 1492.65 Q1303.16 1492.65 1298.16 1487.68 Q1293.19 1482.72 1293.19 1474.25 Q1293.19 1465.5 1297.9 1460.37 Q1302.65 1455.22 1310.67 1455.22 Q1317.86 1455.22 1322.03 1459.86 Q1326.23 1464.48 1326.23 1472.44 M1320.38 1470.72 Q1320.31 1465.91 1317.67 1463.05 Q1315.06 1460.18 1310.73 1460.18 Q1305.83 1460.18 1302.87 1462.95 Q1299.94 1465.72 1299.5 1470.75 L1320.38 1470.72 Z" fill="#000000" fill-rule="evenodd" fill-opacity="1" /><path clip-path="url(#clip010)" d="M 0 0 M41.4442 818.815 L41.4442 810.158 L81.198 789.087 L41.4442 789.087 L41.4442 782.849 L88.9642 782.849 L88.9642 791.506 L49.2103 812.577 L88.9642 812.577 L88.9642 818.815 L41.4442 818.815 Z" fill="#000000" fill-rule="evenodd" fill-opacity="1" /><path clip-path="url(#clip010)" d="M 0 0 M74.8959 777.311 L53.3162 777.311 L53.3162 771.454 L74.6731 771.454 Q79.7339 771.454 82.2802 769.481 Q84.7946 767.507 84.7946 763.561 Q84.7946 758.818 81.7709 756.081 Q78.7472 753.312 73.5273 753.312 L53.3162 753.312 L53.3162 747.455 L88.9642 747.455 L88.9642 753.312 L83.4896 753.312 Q86.7362 755.444 88.3276 758.277 Q89.8872 761.078 89.8872 764.802 Q89.8872 770.945 86.0678 774.128 Q82.2483 777.311 74.8959 777.311 M52.4568 762.574 L52.4568 762.574 Z" fill="#000000" fill-rule="evenodd" fill-opacity="1" /><path clip-path="url(#clip010)" d="M 0 0 M60.1593 713.558 Q56.2126 711.362 54.3347 708.306 Q52.4568 705.251 52.4568 701.113 Q52.4568 695.543 56.3717 692.519 Q60.2548 689.496 67.4481 689.496 L88.9642 689.496 L88.9642 695.384 L67.639 695.384 Q62.5146 695.384 60.032 697.198 Q57.5494 699.012 57.5494 702.736 Q57.5494 707.288 60.5731 709.93 Q63.5968 712.571 68.8167 712.571 L88.9642 712.571 L88.9642 718.46 L67.639 718.46 Q62.4828 718.46 60.032 720.274 Q57.5494 722.088 57.5494 725.876 Q57.5494 730.363 60.6049 733.005 Q63.6286 735.647 68.8167 735.647 L88.9642 735.647 L88.9642 741.535 L53.3162 741.535 L53.3162 735.647 L58.8544 735.647 Q55.576 733.642 54.0164 730.841 Q52.4568 728.04 52.4568 724.189 Q52.4568 720.306 54.4302 717.6 Q56.4036 714.863 60.1593 713.558 Z" fill="#000000" fill-rule="evenodd" fill-opacity="1" /><path clip-path="url(#clip010)" d="M 0 0 M71.172 657.763 Q64.7108 657.763 61.0505 660.436 Q57.3584 663.078 57.3584 667.725 Q57.3584 672.372 61.0505 675.045 Q64.7108 677.687 71.172 677.687 Q77.6332 677.687 81.3253 675.045 Q84.9856 672.372 84.9856 667.725 Q84.9856 663.078 81.3253 660.436 Q77.6332 657.763 71.172 657.763 M58.7271 677.687 Q55.5442 675.841 54.0164 673.04 Q52.4568 670.207 52.4568 666.293 Q52.4568 659.8 57.6131 655.757 Q62.7693 651.683 71.172 651.683 Q79.5747 651.683 84.731 655.757 Q89.8872 659.8 89.8872 666.293 Q89.8872 670.207 88.3594 673.04 Q86.7998 675.841 83.617 677.687 L88.9642 677.687 L88.9642 683.575 L39.439 683.575 L39.439 677.687 L58.7271 677.687 Z" fill="#000000" fill-rule="evenodd" fill-opacity="1" /><path clip-path="url(#clip010)" d="M 0 0 M69.6761 615.049 L72.5406 615.049 L72.5406 641.976 Q78.5881 641.594 81.7709 638.347 Q84.9219 635.069 84.9219 629.244 Q84.9219 625.87 84.0944 622.719 Q83.2669 619.536 81.6118 616.417 L87.1499 616.417 Q88.4867 619.568 89.187 622.878 Q89.8872 626.189 89.8872 629.594 Q89.8872 638.124 84.9219 643.121 Q79.9567 648.087 71.4903 648.087 Q62.7374 648.087 57.6131 643.376 Q52.4568 638.634 52.4568 630.613 Q52.4568 623.42 57.1038 619.25 Q61.7189 615.049 69.6761 615.049 M67.9573 620.905 Q63.1512 620.969 60.2866 623.611 Q57.4221 626.22 57.4221 630.549 Q57.4221 635.451 60.1912 638.411 Q62.9602 641.339 67.9892 641.785 L67.9573 620.905 Z" fill="#000000" fill-rule="evenodd" fill-opacity="1" /><path clip-path="url(#clip010)" d="M 0 0 M58.7907 588.249 Q58.2178 589.236 57.9632 590.413 Q57.6767 591.559 57.6767 592.96 Q57.6767 597.925 60.9232 600.598 Q64.1379 603.24 70.1853 603.24 L88.9642 603.24 L88.9642 609.129 L53.3162 609.129 L53.3162 603.24 L58.8544 603.24 Q55.6079 601.394 54.0483 598.434 Q52.4568 595.474 52.4568 591.241 Q52.4568 590.636 52.5523 589.904 Q52.616 589.172 52.7751 588.281 L58.7907 588.249 Z" fill="#000000" fill-rule="evenodd" fill-opacity="1" /><polyline clip-path="url(#clip012)" style="stroke:#009af9; stroke-width:4; stroke-opacity:1; fill:none" points="
  307.689,84.3925 312.42,85.7749 317.15,86.0116 321.881,87.5561 326.612,88.763 331.343,90.0079 336.073,90.2574 340.804,91.1942 345.535,91.1509 350.266,91.6517 
  354.996,92.4571 359.727,94.8366 364.458,96.9943 369.189,94.3462 373.919,95.4309 378.65,96.0206 383.381,95.5759 388.112,96.7587 392.842,97.8141 397.573,99.6859 
  402.304,99.8305 407.035,100.781 411.765,101.204 416.496,100.71 421.227,101.965 425.958,101.887 430.688,101.549 435.419,101.834 440.15,102.549 444.881,106.449 
  449.611,109.266 454.342,109.25 459.073,112.561 463.804,111.901 468.534,113.943 473.265,115.968 477.996,117.77 482.726,117.33 487.457,117.756 492.188,117.06 
  496.919,118.59 501.649,119.037 506.38,119.05 511.111,119.356 515.842,119.196 520.572,120.636 525.303,120.651 530.034,122.197 534.765,125.118 539.495,125.365 
  544.226,124.547 548.957,126.046 553.688,128.754 558.418,131.28 563.149,132.474 567.88,136.099 572.611,138.719 577.341,141.565 582.072,146.057 586.803,150.336 
  591.534,151.671 596.264,154.872 600.995,161.2 605.726,163.628 610.457,164.479 615.187,168.516 619.918,171.617 624.649,181.466 629.38,183.872 634.11,191.22 
  638.841,192.597 643.572,195.145 648.303,199.615 653.033,204.998 657.764,204.715 662.495,206.812 667.226,210.598 671.956,217.043 676.687,220.666 681.418,221.314 
  686.149,227.512 690.879,228.271 695.61,232.512 700.341,234.671 705.072,236.383 709.802,238.634 714.533,239.791 719.264,245.811 723.994,250.439 728.725,255.512 
  733.456,260.393 738.187,269.019 742.917,277.601 747.648,285.205 752.379,293.216 757.11,293.912 761.84,296.513 766.571,300.901 771.302,302.395 776.033,304.24 
  780.763,310.008 785.494,318.524 790.225,326.103 794.956,332.97 799.686,338.29 804.417,345.539 809.148,351.351 813.879,361.095 818.609,368.27 823.34,380.763 
  828.071,386.973 832.802,393.237 837.532,394.819 842.263,399.117 846.994,409.262 851.725,418.343 856.455,427.179 861.186,432.408 865.917,441.929 870.648,446.517 
  875.378,449.132 880.109,456.068 884.84,465.304 889.571,472.524 894.301,478.334 899.032,481.051 903.763,491.969 908.494,496.777 913.224,503.202 917.955,510.042 
  922.686,511.413 927.417,514.142 932.147,517.264 936.878,525.129 941.609,532.616 946.34,535.572 951.07,542.507 955.801,549.078 960.532,550.863 965.262,554.223 
  969.993,560.99 974.724,565.046 979.455,567.913 984.185,572.413 988.916,579.838 993.647,584.492 998.378,589.957 1003.11,598.145 1007.84,605.959 1012.57,612.764 
  1017.3,616.943 1022.03,626.941 1026.76,632.691 1031.49,637.931 1036.22,645.879 1040.95,652.277 1045.69,657.716 1050.42,663.826 1055.15,668.791 1059.88,672.111 
  1064.61,677.888 1069.34,681.63 1074.07,684.844 1078.8,690.177 1083.53,694.965 1088.26,700.221 1092.99,710.945 1097.72,715.538 1102.45,724.566 1107.18,732.919 
  1111.92,735.496 1116.65,734.67 1121.38,740.84 1126.11,743.812 1130.84,745.996 1135.57,751.754 1140.3,758.993 1145.03,763.909 1149.76,768.094 1154.49,772.972 
  1159.22,783.022 1163.95,786.724 1168.68,791.29 1173.42,793.353 1178.15,795.522 1182.88,799.345 1187.61,798.177 1192.34,804.261 1197.07,809.007 1201.8,816.498 
  1206.53,818.363 1211.26,821.883 1215.99,824.907 1220.72,825.553 1225.45,828.548 1230.18,830.016 1234.91,830.684 1239.65,834.394 1244.38,837.521 1249.11,841.786 
  1253.84,842.853 1258.57,846.605 1263.3,850.414 1268.03,855.372 1272.76,857.231 1277.49,858.683 1282.22,863.96 1286.95,865.629 1291.68,868.119 1296.41,876.304 
  1301.15,880.369 1305.88,884.756 1310.61,888.859 1315.34,891.076 1320.07,894.861 1324.8,900.979 1329.53,902.607 1334.26,907.477 1338.99,911.711 1343.72,914.446 
  1348.45,917.586 1353.18,921.385 1357.91,924.813 1362.65,929.626 1367.38,930.139 1372.11,935.03 1376.84,935.817 1381.57,938.356 1386.3,940.218 1391.03,942.981 
  1395.76,944.873 1400.49,945.714 1405.22,947.037 1409.95,950.45 1414.68,951.087 1419.41,954.656 1424.14,957.194 1428.88,958.221 1433.61,961.198 1438.34,961.905 
  1443.07,966.731 1447.8,967.708 1452.53,969.988 1457.26,970.33 1461.99,970.673 1466.72,973.539 1471.45,975.666 1476.18,978.815 1480.91,980.697 1485.64,982.434 
  1490.38,981.747 1495.11,985.383 1499.84,985.571 1504.57,987.876 1509.3,990.082 1514.03,989.447 1518.76,991.809 1523.49,992.374 1528.22,991.278 1532.95,992.534 
  1537.68,996.298 1542.41,998.217 1547.14,998.887 1551.87,1000.54 1556.61,1004.56 1561.34,1003.43 1566.07,1004.32 1570.8,1004.16 1575.53,1005.1 1580.26,1008.22 
  1584.99,1007.58 1589.72,1009.18 1594.45,1010.48 1599.18,1011.02 1603.91,1011.73 1608.64,1013.26 1613.37,1011.95 1618.11,1013.5 1622.84,1013.36 1627.57,1014.17 
  1632.3,1014.83 1637.03,1016.16 1641.76,1016.92 1646.49,1017.38 1651.22,1019.54 1655.95,1020.62 1660.68,1019.37 1665.41,1018.14 1670.14,1017.47 1674.87,1017.47 
  1679.61,1019.23 1684.34,1020.23 1689.07,1022.39 1693.8,1021.35 1698.53,1021.93 1703.26,1023.45 1707.99,1024.82 1712.72,1025.86 1717.45,1026.27 1722.18,1027.8 
  1726.91,1028.52 1731.64,1028.7 1736.37,1030.37 1741.1,1031.47 1745.84,1030.87 1750.57,1032.66 1755.3,1032.09 1760.03,1031.52 1764.76,1031.39 1769.49,1031.47 
  1774.22,1032.69 1778.95,1031.85 1783.68,1032.34 1788.41,1031.79 1793.14,1031.88 1797.87,1031.64 1802.6,1033.11 1807.34,1032.98 1812.07,1034.68 1816.8,1035.15 
  1821.53,1035.98 1826.26,1036.18 1830.99,1036.88 1835.72,1038.13 1840.45,1037.15 1845.18,1037.64 1849.91,1037.53 1854.64,1038.8 1859.37,1039.51 1864.1,1039.94 
  1868.83,1039.93 1873.57,1040.75 1878.3,1041.31 1883.03,1041.69 1887.76,1041.58 1892.49,1042.59 1897.22,1042.91 1901.95,1044.45 1906.68,1046.01 1911.41,1046.52 
  1916.14,1046.93 1920.87,1047.38 1925.6,1047.57 1930.33,1048.29 1935.07,1049.2 1939.8,1050.06 1944.53,1049.78 1949.26,1051.51 1953.99,1051.75 1958.72,1053.07 
  1963.45,1052.94 1968.18,1053.27 1972.91,1052.84 1977.64,1053.77 1982.37,1055.34 1987.1,1056.99 1991.83,1057.91 1996.56,1057.11 2001.3,1057.82 2006.03,1058.08 
  2010.76,1058.58 2015.49,1060.23 2020.22,1060.15 2024.95,1062.01 2029.68,1062.77 2034.41,1062.8 2039.14,1063.67 2043.87,1063.18 2048.6,1062.61 2053.33,1062.76 
  2058.06,1064.31 2062.8,1063.8 2067.53,1063.38 2072.26,1062.51 2076.99,1062.42 2081.72,1063.36 2086.45,1063.46 2091.18,1064.14 2095.91,1064.51 2100.64,1064.52 
  2105.37,1065.07 2110.1,1064.63 2114.83,1065.58 2119.56,1064.87 2124.3,1065.28 2129.03,1065.36 2133.76,1066.84 2138.49,1066.63 2143.22,1065.83 2147.95,1065.82 
  2152.68,1065.87 2157.41,1066.74 2162.14,1067.59 2166.87,1067.59 2171.6,1067.56 2176.33,1067.8 2181.06,1067.9 2185.79,1068.26 2190.53,1068.12 2195.26,1067.94 
  2199.99,1068.54 
  "/>
<polyline clip-path="url(#clip012)" style="stroke:#e26f46; stroke-width:4; stroke-opacity:1; fill:none" points="
  307.689,1310.16 312.42,1308.53 317.15,1308.05 321.881,1308.36 326.612,1307.33 331.343,1306.11 336.073,1306.26 340.804,1307.06 345.535,1307.57 350.266,1307.7 
  354.996,1306.25 359.727,1303.28 364.458,1300.74 369.189,1303.88 373.919,1303.85 378.65,1303.27 383.381,1304.98 388.112,1304.21 392.842,1304.01 397.573,1302.21 
  402.304,1301.35 407.035,1300.04 411.765,1299.92 416.496,1300.88 421.227,1299.84 425.958,1300.02 430.688,1300.47 435.419,1300.15 440.15,1300.43 444.881,1296.83 
  449.611,1294.61 454.342,1294.4 459.073,1291.31 463.804,1292.88 468.534,1291.2 473.265,1290.58 477.996,1291.65 482.726,1293 487.457,1293.48 492.188,1293.02 
  496.919,1293 501.649,1293.54 506.38,1294.45 511.111,1295.03 515.842,1296.65 520.572,1296.98 525.303,1297.33 530.034,1297.36 534.765,1295.15 539.495,1295.17 
  544.226,1296.2 548.957,1294.2 553.688,1291.34 558.418,1288.32 563.149,1289.34 567.88,1287.34 572.611,1285.71 577.341,1282.84 582.072,1278.83 586.803,1275.66 
  591.534,1274.98 596.264,1273.26 600.995,1268.04 605.726,1267.54 610.457,1269.14 615.187,1266.67 619.918,1263.21 624.649,1255.99 629.38,1254.77 634.11,1248.09 
  638.841,1247.6 643.572,1243.7 648.303,1240.8 653.033,1237.63 657.764,1239.9 662.495,1239.57 667.226,1237.07 671.956,1232.02 676.687,1232.11 681.418,1229.37 
  686.149,1228.04 690.879,1228.23 695.61,1227.71 700.341,1230.03 705.072,1228.63 709.802,1231.72 714.533,1232.73 719.264,1230.86 723.994,1228.38 728.725,1225.92 
  733.456,1222.03 738.187,1215.2 742.917,1213.67 747.648,1207.85 752.379,1201.35 757.11,1203.02 761.84,1205 766.571,1202.32 771.302,1203.44 776.033,1206.47 
  780.763,1202.66 785.494,1199.55 790.225,1195.39 794.956,1191.57 799.686,1193.3 804.417,1188.61 809.148,1185.75 813.879,1179.7 818.609,1172.57 823.34,1160.49 
  828.071,1157.55 832.802,1152.36 837.532,1156.02 842.263,1156.43 846.994,1149.52 851.725,1146.83 856.455,1141.1 861.186,1138.12 865.917,1130.94 870.648,1133.1 
  875.378,1131.81 880.109,1128.19 884.84,1124.13 889.571,1122.61 894.301,1123.61 899.032,1123.41 903.763,1117.69 908.494,1119.74 913.224,1119.02 917.955,1113.51 
  922.686,1118.96 927.417,1122.28 932.147,1126.02 936.878,1122.27 941.609,1124.73 946.34,1127.66 951.07,1126.69 955.801,1123.51 960.532,1123.42 965.262,1124.74 
  969.993,1125.06 974.724,1126.84 979.455,1128.97 984.185,1133.12 988.916,1129.42 993.647,1131.42 998.378,1131.18 1003.11,1127.33 1007.84,1126.59 1012.57,1127.19 
  1017.3,1126.05 1022.03,1121.89 1026.76,1119.71 1031.49,1119.52 1036.22,1113.43 1040.95,1106.08 1045.69,1106.26 1050.42,1103.73 1055.15,1100.52 1059.88,1103.95 
  1064.61,1108.13 1069.34,1111.68 1074.07,1113.91 1078.8,1114.84 1083.53,1115.15 1088.26,1119.12 1092.99,1111.88 1097.72,1109.95 1102.45,1105.57 1107.18,1101.15 
  1111.92,1104.63 1116.65,1111.84 1121.38,1111.35 1126.11,1113.55 1130.84,1117.23 1135.57,1110.07 1140.3,1109.62 1145.03,1111.95 1149.76,1112.58 1154.49,1113.64 
  1159.22,1113.04 1163.95,1116.71 1168.68,1114.54 1173.42,1116.62 1178.15,1117.1 1182.88,1118.29 1187.61,1125.29 1192.34,1127.61 1197.07,1128.27 1201.8,1129.03 
  1206.53,1131.89 1211.26,1133.88 1215.99,1136.14 1220.72,1139.41 1225.45,1140.37 1230.18,1140.94 1234.91,1142.83 1239.65,1147.74 1244.38,1149.16 1249.11,1147.98 
  1253.84,1150.51 1258.57,1151.79 1263.3,1149.6 1268.03,1150.19 1272.76,1152.06 1277.49,1157.15 1282.22,1153.18 1286.95,1153.85 1291.68,1154.7 1296.41,1153.39 
  1301.15,1153.3 1305.88,1154.18 1310.61,1153.41 1315.34,1151.76 1320.07,1153.94 1324.8,1148.45 1329.53,1150.45 1334.26,1151.36 1338.99,1150.33 1343.72,1152.34 
  1348.45,1155.23 1353.18,1156.71 1357.91,1157.47 1362.65,1155.27 1367.38,1164.81 1372.11,1163.88 1376.84,1165.04 1381.57,1165.88 1386.3,1165.98 1391.03,1167.34 
  1395.76,1166.08 1400.49,1167.36 1405.22,1172.51 1409.95,1170.61 1414.68,1176.18 1419.41,1180.69 1424.14,1184.76 1428.88,1189.82 1433.61,1189.05 1438.34,1195.62 
  1443.07,1195.68 1447.8,1195.98 1452.53,1197.37 1457.26,1199.13 1461.99,1201.83 1466.72,1199.97 1471.45,1199 1476.18,1199.35 1480.91,1198.74 1485.64,1201.73 
  1490.38,1204.72 1495.11,1200.86 1499.84,1201.83 1504.57,1199.54 1509.3,1198.35 1514.03,1201.17 1518.76,1201.48 1523.49,1206.42 1528.22,1212.26 1532.95,1216.87 
  1537.68,1214.68 1542.41,1216.8 1547.14,1219.8 1551.87,1221.77 1556.61,1219.47 1561.34,1222.91 1566.07,1223.6 1570.8,1229.53 1575.53,1231.28 1580.26,1230.83 
  1584.99,1228.95 1589.72,1229.14 1594.45,1229.86 1599.18,1232.25 1603.91,1233.18 1608.64,1232.2 1613.37,1234.7 1618.11,1235.92 1622.84,1237.06 1627.57,1239.09 
  1632.3,1237.94 1637.03,1238.62 1641.76,1243.9 1646.49,1245.71 1651.22,1246.77 1655.95,1246.27 1660.68,1250.62 1665.41,1252.55 1670.14,1254.04 1674.87,1257.17 
  1679.61,1257.72 1684.34,1258.68 1689.07,1259.07 1693.8,1262.55 1698.53,1263.19 1703.26,1262.2 1707.99,1261.58 1712.72,1262.1 1717.45,1265.14 1722.18,1265.44 
  1726.91,1265.05 1731.64,1264.33 1736.37,1262.05 1741.1,1263.03 1745.84,1267.65 1750.57,1269.21 1755.3,1270.39 1760.03,1273.95 1764.76,1277.12 1769.49,1278.25 
  1774.22,1276.23 1778.95,1276.69 1783.68,1279.29 1788.41,1280.28 1793.14,1279.87 1797.87,1280.31 1802.6,1280.45 1807.34,1281.53 1812.07,1280.49 1816.8,1281.64 
  1821.53,1283.66 1826.26,1283.86 1830.99,1282.59 1835.72,1283.6 1840.45,1284.48 1845.18,1285.12 1849.91,1288.52 1854.64,1288.57 1859.37,1287.73 1864.1,1289.21 
  1868.83,1290.54 1873.57,1290.54 1878.3,1291.4 1883.03,1291.01 1887.76,1290.8 1892.49,1291.29 1897.22,1293 1901.95,1291.44 1906.68,1290.24 1911.41,1290.01 
  1916.14,1291.06 1920.87,1290.51 1925.6,1292.13 1930.33,1291.9 1935.07,1292.09 1939.8,1290.92 1944.53,1290.43 1949.26,1290.51 1953.99,1290.75 1958.72,1287.82 
  1963.45,1288.6 1968.18,1289.93 1972.91,1289.43 1977.64,1289.91 1982.37,1287.81 1987.1,1286.79 1991.83,1286.55 1996.56,1288.78 2001.3,1287.07 2006.03,1285.89 
  2010.76,1285.6 2015.49,1285.23 2020.22,1284.89 2024.95,1286.48 2029.68,1286.46 2034.41,1286.24 2039.14,1284.11 2043.87,1285.48 2048.6,1287.57 2053.33,1287.69 
  2058.06,1287.67 2062.8,1286.94 2067.53,1288.07 2072.26,1288.7 2076.99,1288.04 2081.72,1286.33 2086.45,1286.96 2091.18,1287.08 2095.91,1287.83 2100.64,1288.49 
  2105.37,1287.9 2110.1,1288.07 2114.83,1289.37 2119.56,1290.85 2124.3,1290.13 2129.03,1291.05 2133.76,1290.71 2138.49,1292.62 2143.22,1295.98 2147.95,1296.98 
  2152.68,1298.59 2157.41,1298.19 2162.14,1297.51 2166.87,1300.29 2171.6,1300.86 2176.33,1301.04 2181.06,1303.1 2185.79,1302.24 2190.53,1301.59 2195.26,1303.08 
  2199.99,1304.68 
  "/>
<polyline clip-path="url(#clip012)" style="stroke:#3da44d; stroke-width:4; stroke-opacity:1; fill:none" points="
  307.689,1322.67 312.42,1322.67 317.15,1322.67 321.881,1320.81 326.612,1320.63 331.343,1320.61 336.073,1320.21 340.804,1318.47 345.535,1318 350.266,1317.37 
  354.996,1318.03 359.727,1318.62 364.458,1318.99 369.189,1318.51 373.919,1317.45 378.65,1317.44 383.381,1316.18 388.112,1315.76 392.842,1314.9 397.573,1314.83 
  402.304,1315.55 407.035,1315.91 411.765,1315.61 416.496,1315.14 421.227,1314.93 425.958,1314.82 430.688,1314.71 435.419,1314.75 440.15,1313.75 444.881,1313.45 
  449.611,1312.85 454.342,1313.07 459.073,1312.86 463.804,1311.94 468.534,1311.58 473.265,1310.18 477.996,1307.31 482.726,1306.4 487.457,1305.5 492.188,1306.65 
  496.919,1305.14 501.649,1304.15 506.38,1303.23 511.111,1302.34 515.842,1300.89 520.572,1299.11 525.303,1298.75 530.034,1297.17 534.765,1296.47 539.495,1296.19 
  544.226,1295.99 548.957,1296.49 553.688,1296.63 558.418,1297.13 563.149,1294.92 567.88,1293.29 572.611,1292.3 577.341,1292.33 582.072,1291.84 586.803,1290.73 
  591.534,1290.08 596.264,1288.6 600.995,1287.49 605.726,1285.56 610.457,1283.11 615.187,1281.54 619.918,1281.9 624.649,1279.27 629.38,1278.08 634.11,1277.42 
  638.841,1276.54 643.572,1277.89 648.303,1276.32 653.033,1274.1 657.764,1272.11 662.495,1270.35 667.226,1269.06 671.956,1267.67 676.687,1263.96 681.418,1266.05 
  686.149,1261.17 690.879,1260.23 695.61,1256.5 700.341,1252.03 705.072,1251.71 709.802,1246.37 714.533,1244.2 719.264,1240.05 723.994,1237.91 728.725,1235.29 
  733.456,1234.3 738.187,1232.51 742.917,1225.46 747.648,1223.67 752.379,1222.16 757.11,1219.8 761.84,1215.21 766.571,1213.51 771.302,1210.9 776.033,1206.02 
  780.763,1204.06 785.494,1198.66 790.225,1195.23 794.956,1192.19 799.686,1185.14 804.417,1182.58 809.148,1179.63 813.879,1175.93 818.609,1175.89 823.34,1175.48 
  828.071,1172.21 832.802,1171.13 837.532,1165.89 842.263,1161.18 846.994,1157.95 851.725,1151.56 856.455,1148.45 861.186,1146.2 865.917,1143.87 870.648,1137.11 
  875.378,1135.79 880.109,1132.47 884.84,1127.3 889.571,1121.6 894.301,1114.79 899.032,1112.27 903.763,1107.08 908.494,1100.21 913.224,1094.51 917.955,1093.18 
  922.686,1086.36 927.417,1080.31 932.147,1073.45 936.878,1069.33 941.609,1059.38 946.34,1053.5 951.07,1047.54 955.801,1044.14 960.532,1042.45 965.262,1037.77 
  969.993,1030.68 974.724,1024.84 979.455,1019.84 984.185,1011.2 988.916,1007.47 993.647,1000.82 998.378,995.59 1003.11,991.255 1007.84,984.183 1012.57,976.778 
  1017.3,973.737 1022.03,967.902 1026.76,964.328 1031.49,959.281 1036.22,957.417 1040.95,958.369 1045.69,952.748 1050.42,949.17 1055.15,947.423 1059.88,940.673 
  1064.61,930.71 1069.34,923.424 1074.07,917.979 1078.8,911.717 1083.53,906.619 1088.26,897.392 1092.99,893.905 1097.72,891.242 1102.45,886.589 1107.18,882.661 
  1111.92,876.607 1116.65,870.219 1121.38,864.541 1126.11,859.368 1130.84,853.507 1135.57,854.907 1140.3,848.114 1145.03,840.874 1149.76,836.055 1154.49,830.114 
  1159.22,820.67 1163.95,813.293 1168.68,810.902 1173.42,806.758 1178.15,804.103 1182.88,799.099 1187.61,793.262 1192.34,784.855 1197.07,779.454 1201.8,771.205 
  1206.53,766.472 1211.26,760.968 1215.99,755.682 1220.72,751.769 1225.45,747.813 1230.18,745.776 1234.91,743.22 1239.65,734.593 1244.38,730.048 1249.11,726.967 
  1253.84,723.371 1258.57,718.33 1263.3,716.718 1268.03,711.172 1272.76,707.436 1277.49,700.897 1282.22,699.592 1286.95,697.252 1291.68,693.915 1296.41,687.038 
  1301.15,683.062 1305.88,677.798 1310.61,674.461 1315.34,673.892 1320.07,667.929 1324.8,667.298 1329.53,663.675 1334.26,657.891 1338.99,654.692 1343.72,649.948 
  1348.45,643.909 1353.18,638.636 1357.91,634.448 1362.65,631.837 1367.38,621.78 1372.11,617.816 1376.84,615.874 1381.57,612.497 1386.3,610.528 1391.03,606.409 
  1395.76,605.777 1400.49,603.657 1405.22,597.177 1409.95,595.673 1414.68,589.465 1419.41,581.379 1424.14,574.778 1428.88,568.689 1433.61,566.485 1438.34,559.202 
  1443.07,554.321 1447.8,553.042 1452.53,549.375 1457.26,547.273 1461.99,544.231 1466.72,543.222 1471.45,542.058 1476.18,538.566 1480.91,537.295 1485.64,532.57 
  1490.38,530.267 1495.11,530.482 1499.84,529.327 1504.57,529.315 1509.3,528.293 1514.03,526.118 1518.76,523.446 1523.49,517.938 1528.22,513.192 1532.95,507.327 
  1537.68,505.751 1542.41,501.707 1547.14,498.038 1551.87,494.42 1556.61,492.701 1561.34,490.387 1566.07,488.803 1570.8,483.042 1575.53,480.344 1580.26,477.686 
  1584.99,480.202 1589.72,478.418 1594.45,476.386 1599.18,473.46 1603.91,471.822 1608.64,471.272 1613.37,470.085 1618.11,467.312 1622.84,466.305 1627.57,463.478 
  1632.3,463.96 1637.03,461.952 1641.76,455.908 1646.49,453.631 1651.22,450.417 1655.95,449.847 1660.68,446.736 1665.41,446.038 1670.14,445.218 1674.87,442.092 
  1679.61,439.772 1684.34,437.822 1689.07,435.268 1693.8,432.825 1698.53,431.615 1703.26,431.084 1707.99,430.324 1712.72,428.764 1717.45,425.312 1722.18,423.486 
  1726.91,423.159 1731.64,423.693 1736.37,424.317 1741.1,422.233 1745.84,418.214 1750.57,414.865 1755.3,414.251 1760.03,411.261 1764.76,408.219 1769.49,407.006 
  1774.22,407.81 1778.95,408.188 1783.68,405.1 1788.41,404.655 1793.14,404.979 1797.87,404.775 1802.6,403.165 1807.34,402.221 1812.07,401.554 1816.8,399.937 
  1821.53,397.085 1826.26,396.688 1830.99,397.257 1835.72,395.001 1840.45,395.103 1845.18,393.971 1849.91,390.68 1854.64,389.361 1859.37,389.49 1864.1,387.589 
  1868.83,386.259 1873.57,385.445 1878.3,384.02 1883.03,384.031 1887.76,384.344 1892.49,382.853 1897.22,380.821 1901.95,380.847 1906.68,380.48 1911.41,380.198 
  1916.14,378.739 1920.87,378.846 1925.6,377.025 1930.33,376.537 1935.07,375.439 1939.8,375.745 1944.53,376.528 1949.26,374.714 1953.99,374.229 1958.72,375.839 
  1963.45,375.185 1968.18,373.533 1972.91,374.46 1977.64,373.052 1982.37,373.581 1987.1,372.954 1991.83,372.273 1996.56,370.842 2001.3,371.839 2006.03,372.755 
  2010.76,372.551 2015.49,371.271 2020.22,371.687 2024.95,368.247 2029.68,367.501 2034.41,367.687 2039.14,368.951 2043.87,368.068 2048.6,366.556 2053.33,366.282 
  2058.06,364.753 2062.8,365.993 2067.53,365.278 2072.26,365.519 2076.99,366.278 2081.72,367.042 2086.45,366.312 2091.18,365.507 2095.91,364.389 2100.64,363.725 
  2105.37,363.763 2110.1,364.039 2114.83,361.779 2119.56,361.008 2124.3,361.32 2129.03,360.312 2133.76,359.183 2138.49,357.482 2143.22,354.923 2147.95,353.936 
  2152.68,352.27 2157.41,351.793 2162.14,351.631 2166.87,348.84 2171.6,348.312 2176.33,347.887 2181.06,345.732 2185.79,346.23 2190.53,347.014 2195.26,345.706 
  2199.99,343.505 
  "/>
<path clip-path="url(#clip010)" d="
M1930.31 366.924 L2187.64 366.924 L2187.64 125.004 L1930.31 125.004  Z
  " fill="#ffffff" fill-rule="evenodd" fill-opacity="1"/>
<polyline clip-path="url(#clip010)" style="stroke:#000000; stroke-width:4; stroke-opacity:1; fill:none" points="
  1930.31,366.924 2187.64,366.924 2187.64,125.004 1930.31,125.004 1930.31,366.924 
  "/>
<polyline clip-path="url(#clip010)" style="stroke:#009af9; stroke-width:4; stroke-opacity:1; fill:none" points="
  1953.35,185.484 2091.59,185.484 
  "/>
<path clip-path="url(#clip010)" d="M 0 0 M2136.88 169.338 L2136.88 173.899 Q2134.22 172.625 2131.86 172 Q2129.5 171.375 2127.3 171.375 Q2123.48 171.375 2121.39 172.857 Q2119.33 174.338 2119.33 177.07 Q2119.33 179.361 2120.7 180.542 Q2122.09 181.699 2125.93 182.417 L2128.76 182.996 Q2133.99 183.991 2136.46 186.514 Q2138.96 189.014 2138.96 193.227 Q2138.96 198.25 2135.58 200.843 Q2132.23 203.435 2125.72 203.435 Q2123.27 203.435 2120.49 202.88 Q2117.74 202.324 2114.77 201.236 L2114.77 196.422 Q2117.62 198.019 2120.35 198.829 Q2123.08 199.639 2125.72 199.639 Q2129.73 199.639 2131.9 198.065 Q2134.08 196.491 2134.08 193.574 Q2134.08 191.028 2132.51 189.593 Q2130.95 188.158 2127.39 187.44 L2124.54 186.885 Q2119.31 185.843 2116.97 183.621 Q2114.63 181.398 2114.63 177.44 Q2114.63 172.857 2117.85 170.218 Q2121.09 167.579 2126.76 167.579 Q2129.19 167.579 2131.72 168.019 Q2134.24 168.459 2136.88 169.338 Z" fill="#000000" fill-rule="evenodd" fill-opacity="1" /><polyline clip-path="url(#clip010)" style="stroke:#e26f46; stroke-width:4; stroke-opacity:1; fill:none" points="
  1953.35,245.964 2091.59,245.964 
  "/>
<path clip-path="url(#clip010)" d="M 0 0 M2114.63 228.684 L2119.31 228.684 L2119.31 263.244 L2114.63 263.244 L2114.63 228.684 Z" fill="#000000" fill-rule="evenodd" fill-opacity="1" /><polyline clip-path="url(#clip010)" style="stroke:#3da44d; stroke-width:4; stroke-opacity:1; fill:none" points="
  1953.35,306.444 2091.59,306.444 
  "/>
<path clip-path="url(#clip010)" d="M 0 0 M2131.02 307.52 Q2132.53 308.03 2133.94 309.696 Q2135.38 311.363 2136.81 314.28 L2141.56 323.724 L2136.53 323.724 L2132.11 314.858 Q2130.4 311.386 2128.78 310.252 Q2127.18 309.118 2124.4 309.118 L2119.31 309.118 L2119.31 323.724 L2114.63 323.724 L2114.63 289.164 L2125.19 289.164 Q2131.12 289.164 2134.03 291.641 Q2136.95 294.118 2136.95 299.118 Q2136.95 302.382 2135.42 304.534 Q2133.92 306.687 2131.02 307.52 M2119.31 293.007 L2119.31 305.275 L2125.19 305.275 Q2128.57 305.275 2130.28 303.724 Q2132.02 302.15 2132.02 299.118 Q2132.02 296.085 2130.28 294.558 Q2128.57 293.007 2125.19 293.007 L2119.31 293.007 Z" fill="#000000" fill-rule="evenodd" fill-opacity="1" /></svg>
