<?xml version="1.0" encoding="utf-8"?>
<svg xmlns="http://www.w3.org/2000/svg" xmlns:xlink="http://www.w3.org/1999/xlink" width="576" height="384" viewBox="0 0 2304 1536">
<defs>
  <clipPath id="clip650">
    <rect x="0" y="0" width="2304" height="1536"/>
  </clipPath>
</defs>
<path clip-path="url(#clip650)" d="
M0 1536 L2304 1536 L2304 0 L0 0  Z
  " fill="#ffffff" fill-rule="evenodd" fill-opacity="1"/>
<defs>
  <clipPath id="clip651">
    <rect x="460" y="0" width="1614" height="1536"/>
  </clipPath>
</defs>
<path clip-path="url(#clip650)" d="
M250.92 1359.82 L2256.76 1359.82 L2256.76 123.472 L250.92 123.472  Z
  " fill="#ffffff" fill-rule="evenodd" fill-opacity="1"/>
<defs>
  <clipPath id="clip652">
    <rect x="250" y="123" width="2007" height="1237"/>
  </clipPath>
</defs>
<polyline clip-path="url(#clip652)" style="stroke:#000000; stroke-width:2; stroke-opacity:0.1; fill:none" points="
  307.689,1359.82 307.689,123.472 
  "/>
<polyline clip-path="url(#clip652)" style="stroke:#000000; stroke-width:2; stroke-opacity:0.1; fill:none" points="
  780.763,1359.82 780.763,123.472 
  "/>
<polyline clip-path="url(#clip652)" style="stroke:#000000; stroke-width:2; stroke-opacity:0.1; fill:none" points="
  1253.84,1359.82 1253.84,123.472 
  "/>
<polyline clip-path="url(#clip652)" style="stroke:#000000; stroke-width:2; stroke-opacity:0.1; fill:none" points="
  1726.91,1359.82 1726.91,123.472 
  "/>
<polyline clip-path="url(#clip652)" style="stroke:#000000; stroke-width:2; stroke-opacity:0.1; fill:none" points="
  2199.99,1359.82 2199.99,123.472 
  "/>
<polyline clip-path="url(#clip652)" style="stroke:#000000; stroke-width:2; stroke-opacity:0.1; fill:none" points="
  250.92,1324.83 2256.76,1324.83 
  "/>
<polyline clip-path="url(#clip652)" style="stroke:#000000; stroke-width:2; stroke-opacity:0.1; fill:none" points="
  250.92,1030.29 2256.76,1030.29 
  "/>
<polyline clip-path="url(#clip652)" style="stroke:#000000; stroke-width:2; stroke-opacity:0.1; fill:none" points="
  250.92,735.755 2256.76,735.755 
  "/>
<polyline clip-path="url(#clip652)" style="stroke:#000000; stroke-width:2; stroke-opacity:0.1; fill:none" points="
  250.92,441.218 2256.76,441.218 
  "/>
<polyline clip-path="url(#clip652)" style="stroke:#000000; stroke-width:2; stroke-opacity:0.1; fill:none" points="
  250.92,146.682 2256.76,146.682 
  "/>
<polyline clip-path="url(#clip650)" style="stroke:#000000; stroke-width:4; stroke-opacity:1; fill:none" points="
  250.92,1359.82 2256.76,1359.82 
  "/>
<polyline clip-path="url(#clip650)" style="stroke:#000000; stroke-width:4; stroke-opacity:1; fill:none" points="
  250.92,1359.82 250.92,123.472 
  "/>
<polyline clip-path="url(#clip650)" style="stroke:#000000; stroke-width:4; stroke-opacity:1; fill:none" points="
  307.689,1359.82 307.689,1344.98 
  "/>
<polyline clip-path="url(#clip650)" style="stroke:#000000; stroke-width:4; stroke-opacity:1; fill:none" points="
  780.763,1359.82 780.763,1344.98 
  "/>
<polyline clip-path="url(#clip650)" style="stroke:#000000; stroke-width:4; stroke-opacity:1; fill:none" points="
  1253.84,1359.82 1253.84,1344.98 
  "/>
<polyline clip-path="url(#clip650)" style="stroke:#000000; stroke-width:4; stroke-opacity:1; fill:none" points="
  1726.91,1359.82 1726.91,1344.98 
  "/>
<polyline clip-path="url(#clip650)" style="stroke:#000000; stroke-width:4; stroke-opacity:1; fill:none" points="
  2199.99,1359.82 2199.99,1344.98 
  "/>
<polyline clip-path="url(#clip650)" style="stroke:#000000; stroke-width:4; stroke-opacity:1; fill:none" points="
  250.92,1324.83 274.99,1324.83 
  "/>
<polyline clip-path="url(#clip650)" style="stroke:#000000; stroke-width:4; stroke-opacity:1; fill:none" points="
  250.92,1030.29 274.99,1030.29 
  "/>
<polyline clip-path="url(#clip650)" style="stroke:#000000; stroke-width:4; stroke-opacity:1; fill:none" points="
  250.92,735.755 274.99,735.755 
  "/>
<polyline clip-path="url(#clip650)" style="stroke:#000000; stroke-width:4; stroke-opacity:1; fill:none" points="
  250.92,441.218 274.99,441.218 
  "/>
<polyline clip-path="url(#clip650)" style="stroke:#000000; stroke-width:4; stroke-opacity:1; fill:none" points="
  250.92,146.682 274.99,146.682 
  "/>
<path clip-path="url(#clip650)" d="M 0 0 M307.689 1381.33 Q304.078 1381.33 302.249 1384.9 Q300.444 1388.44 300.444 1395.57 Q300.444 1402.67 302.249 1406.24 Q304.078 1409.78 307.689 1409.78 Q311.323 1409.78 313.129 1406.24 Q314.957 1402.67 314.957 1395.57 Q314.957 1388.44 313.129 1384.9 Q311.323 1381.33 307.689 1381.33 M307.689 1377.63 Q313.499 1377.63 316.555 1382.23 Q319.633 1386.82 319.633 1395.57 Q319.633 1404.29 316.555 1408.9 Q313.499 1413.48 307.689 1413.48 Q301.879 1413.48 298.8 1408.9 Q295.745 1404.29 295.745 1395.57 Q295.745 1386.82 298.8 1382.23 Q301.879 1377.63 307.689 1377.63 Z" fill="#000000" fill-rule="evenodd" fill-opacity="1" /><path clip-path="url(#clip650)" d="M 0 0 M757.639 1408.88 L765.277 1408.88 L765.277 1382.51 L756.967 1384.18 L756.967 1379.92 L765.231 1378.25 L769.907 1378.25 L769.907 1408.88 L777.546 1408.88 L777.546 1412.81 L757.639 1412.81 L757.639 1408.88 Z" fill="#000000" fill-rule="evenodd" fill-opacity="1" /><path clip-path="url(#clip650)" d="M 0 0 M792.615 1381.33 Q789.004 1381.33 787.175 1384.9 Q785.37 1388.44 785.37 1395.57 Q785.37 1402.67 787.175 1406.24 Q789.004 1409.78 792.615 1409.78 Q796.249 1409.78 798.055 1406.24 Q799.884 1402.67 799.884 1395.57 Q799.884 1388.44 798.055 1384.9 Q796.249 1381.33 792.615 1381.33 M792.615 1377.63 Q798.425 1377.63 801.481 1382.23 Q804.56 1386.82 804.56 1395.57 Q804.56 1404.29 801.481 1408.9 Q798.425 1413.48 792.615 1413.48 Q786.805 1413.48 783.726 1408.9 Q780.671 1404.29 780.671 1395.57 Q780.671 1386.82 783.726 1382.23 Q786.805 1377.63 792.615 1377.63 Z" fill="#000000" fill-rule="evenodd" fill-opacity="1" /><path clip-path="url(#clip650)" d="M 0 0 M1234.98 1408.88 L1251.3 1408.88 L1251.3 1412.81 L1229.36 1412.81 L1229.36 1408.88 Q1232.02 1406.12 1236.6 1401.49 Q1241.21 1396.84 1242.39 1395.5 Q1244.64 1392.97 1245.52 1391.24 Q1246.42 1389.48 1246.42 1387.79 Q1246.42 1385.03 1244.47 1383.3 Q1242.55 1381.56 1239.45 1381.56 Q1237.25 1381.56 1234.8 1382.33 Q1232.37 1383.09 1229.59 1384.64 L1229.59 1379.92 Q1232.41 1378.78 1234.87 1378.21 Q1237.32 1377.63 1239.36 1377.63 Q1244.73 1377.63 1247.92 1380.31 Q1251.12 1383 1251.12 1387.49 Q1251.12 1389.62 1250.31 1391.54 Q1249.52 1393.44 1247.41 1396.03 Q1246.84 1396.7 1243.73 1399.92 Q1240.63 1403.11 1234.98 1408.88 Z" fill="#000000" fill-rule="evenodd" fill-opacity="1" /><path clip-path="url(#clip650)" d="M 0 0 M1266.37 1381.33 Q1262.76 1381.33 1260.93 1384.9 Q1259.13 1388.44 1259.13 1395.57 Q1259.13 1402.67 1260.93 1406.24 Q1262.76 1409.78 1266.37 1409.78 Q1270.01 1409.78 1271.81 1406.24 Q1273.64 1402.67 1273.64 1395.57 Q1273.64 1388.44 1271.81 1384.9 Q1270.01 1381.33 1266.37 1381.33 M1266.37 1377.63 Q1272.18 1377.63 1275.24 1382.23 Q1278.32 1386.82 1278.32 1395.57 Q1278.32 1404.29 1275.24 1408.9 Q1272.18 1413.48 1266.37 1413.48 Q1260.56 1413.48 1257.48 1408.9 Q1254.43 1404.29 1254.43 1395.57 Q1254.43 1386.82 1257.48 1382.23 Q1260.56 1377.63 1266.37 1377.63 Z" fill="#000000" fill-rule="evenodd" fill-opacity="1" /><path clip-path="url(#clip650)" d="M 0 0 M1717.65 1394.18 Q1721.01 1394.9 1722.88 1397.16 Q1724.78 1399.43 1724.78 1402.77 Q1724.78 1407.88 1721.26 1410.68 Q1717.75 1413.48 1711.26 1413.48 Q1709.09 1413.48 1706.77 1413.04 Q1704.48 1412.63 1702.03 1411.77 L1702.03 1407.26 Q1703.97 1408.39 1706.29 1408.97 Q1708.6 1409.55 1711.13 1409.55 Q1715.52 1409.55 1717.82 1407.81 Q1720.13 1406.08 1720.13 1402.77 Q1720.13 1399.71 1717.98 1398 Q1715.85 1396.26 1712.03 1396.26 L1708 1396.26 L1708 1392.42 L1712.21 1392.42 Q1715.66 1392.42 1717.49 1391.05 Q1719.32 1389.66 1719.32 1387.07 Q1719.32 1384.41 1717.42 1383 Q1715.55 1381.56 1712.03 1381.56 Q1710.11 1381.56 1707.91 1381.98 Q1705.71 1382.4 1703.07 1383.27 L1703.07 1379.11 Q1705.73 1378.37 1708.05 1378 Q1710.38 1377.63 1712.44 1377.63 Q1717.77 1377.63 1720.87 1380.06 Q1723.97 1382.46 1723.97 1386.59 Q1723.97 1389.46 1722.33 1391.45 Q1720.69 1393.41 1717.65 1394.18 Z" fill="#000000" fill-rule="evenodd" fill-opacity="1" /><path clip-path="url(#clip650)" d="M 0 0 M1739.85 1381.33 Q1736.24 1381.33 1734.41 1384.9 Q1732.61 1388.44 1732.61 1395.57 Q1732.61 1402.67 1734.41 1406.24 Q1736.24 1409.78 1739.85 1409.78 Q1743.49 1409.78 1745.29 1406.24 Q1747.12 1402.67 1747.12 1395.57 Q1747.12 1388.44 1745.29 1384.9 Q1743.49 1381.33 1739.85 1381.33 M1739.85 1377.63 Q1745.66 1377.63 1748.72 1382.23 Q1751.8 1386.82 1751.8 1395.57 Q1751.8 1404.29 1748.72 1408.9 Q1745.66 1413.48 1739.85 1413.48 Q1734.04 1413.48 1730.96 1408.9 Q1727.91 1404.29 1727.91 1395.57 Q1727.91 1386.82 1730.96 1382.23 Q1734.04 1377.63 1739.85 1377.63 Z" fill="#000000" fill-rule="evenodd" fill-opacity="1" /><path clip-path="url(#clip650)" d="M 0 0 M2189.49 1382.33 L2177.68 1400.77 L2189.49 1400.77 L2189.49 1382.33 M2188.26 1378.25 L2194.14 1378.25 L2194.14 1400.77 L2199.07 1400.77 L2199.07 1404.66 L2194.14 1404.66 L2194.14 1412.81 L2189.49 1412.81 L2189.49 1404.66 L2173.89 1404.66 L2173.89 1400.15 L2188.26 1378.25 Z" fill="#000000" fill-rule="evenodd" fill-opacity="1" /><path clip-path="url(#clip650)" d="M 0 0 M2214.14 1381.33 Q2210.53 1381.33 2208.7 1384.9 Q2206.9 1388.44 2206.9 1395.57 Q2206.9 1402.67 2208.7 1406.24 Q2210.53 1409.78 2214.14 1409.78 Q2217.78 1409.78 2219.58 1406.24 Q2221.41 1402.67 2221.41 1395.57 Q2221.41 1388.44 2219.58 1384.9 Q2217.78 1381.33 2214.14 1381.33 M2214.14 1377.63 Q2219.95 1377.63 2223.01 1382.23 Q2226.09 1386.82 2226.09 1395.57 Q2226.09 1404.29 2223.01 1408.9 Q2219.95 1413.48 2214.14 1413.48 Q2208.33 1413.48 2205.25 1408.9 Q2202.2 1404.29 2202.2 1395.57 Q2202.2 1386.82 2205.25 1382.23 Q2208.33 1377.63 2214.14 1377.63 Z" fill="#000000" fill-rule="evenodd" fill-opacity="1" /><path clip-path="url(#clip650)" d="M 0 0 M215.936 1310.63 Q212.325 1310.63 210.496 1314.19 Q208.69 1317.73 208.69 1324.86 Q208.69 1331.97 210.496 1335.53 Q212.325 1339.08 215.936 1339.08 Q219.57 1339.08 221.375 1335.53 Q223.204 1331.97 223.204 1324.86 Q223.204 1317.73 221.375 1314.19 Q219.57 1310.63 215.936 1310.63 M215.936 1306.92 Q221.746 1306.92 224.801 1311.53 Q227.88 1316.11 227.88 1324.86 Q227.88 1333.59 224.801 1338.2 Q221.746 1342.78 215.936 1342.78 Q210.125 1342.78 207.047 1338.2 Q203.991 1333.59 203.991 1324.86 Q203.991 1316.11 207.047 1311.53 Q210.125 1306.92 215.936 1306.92 Z" fill="#000000" fill-rule="evenodd" fill-opacity="1" /><path clip-path="url(#clip650)" d="M 0 0 M158.529 1043.64 L174.848 1043.64 L174.848 1047.57 L152.904 1047.57 L152.904 1043.64 Q155.566 1040.88 160.149 1036.25 Q164.755 1031.6 165.936 1030.26 Q168.181 1027.73 169.061 1026 Q169.964 1024.24 169.964 1022.55 Q169.964 1019.79 168.019 1018.06 Q166.098 1016.32 162.996 1016.32 Q160.797 1016.32 158.343 1017.09 Q155.913 1017.85 153.135 1019.4 L153.135 1014.68 Q155.959 1013.54 158.413 1012.97 Q160.866 1012.39 162.903 1012.39 Q168.274 1012.39 171.468 1015.07 Q174.663 1017.76 174.663 1022.25 Q174.663 1024.38 173.852 1026.3 Q173.065 1028.2 170.959 1030.79 Q170.38 1031.46 167.278 1034.68 Q164.177 1037.87 158.529 1043.64 Z" fill="#000000" fill-rule="evenodd" fill-opacity="1" /><path clip-path="url(#clip650)" d="M 0 0 M179.964 1013.01 L198.32 1013.01 L198.32 1016.95 L184.246 1016.95 L184.246 1025.42 Q185.264 1025.07 186.283 1024.91 Q187.301 1024.72 188.32 1024.72 Q194.107 1024.72 197.487 1027.9 Q200.866 1031.07 200.866 1036.48 Q200.866 1042.06 197.394 1045.16 Q193.922 1048.24 187.602 1048.24 Q185.427 1048.24 183.158 1047.87 Q180.913 1047.5 178.505 1046.76 L178.505 1042.06 Q180.589 1043.2 182.811 1043.75 Q185.033 1044.31 187.51 1044.31 Q191.514 1044.31 193.852 1042.2 Q196.19 1040.1 196.19 1036.48 Q196.19 1032.87 193.852 1030.77 Q191.514 1028.66 187.51 1028.66 Q185.635 1028.66 183.76 1029.08 Q181.908 1029.49 179.964 1030.37 L179.964 1013.01 Z" fill="#000000" fill-rule="evenodd" fill-opacity="1" /><path clip-path="url(#clip650)" d="M 0 0 M215.936 1016.09 Q212.325 1016.09 210.496 1019.66 Q208.69 1023.2 208.69 1030.33 Q208.69 1037.43 210.496 1041 Q212.325 1044.54 215.936 1044.54 Q219.57 1044.54 221.375 1041 Q223.204 1037.43 223.204 1030.33 Q223.204 1023.2 221.375 1019.66 Q219.57 1016.09 215.936 1016.09 M215.936 1012.39 Q221.746 1012.39 224.801 1016.99 Q227.88 1021.58 227.88 1030.33 Q227.88 1039.05 224.801 1043.66 Q221.746 1048.24 215.936 1048.24 Q210.125 1048.24 207.047 1043.66 Q203.991 1039.05 203.991 1030.33 Q203.991 1021.58 207.047 1016.99 Q210.125 1012.39 215.936 1012.39 Z" fill="#000000" fill-rule="evenodd" fill-opacity="1" /><path clip-path="url(#clip650)" d="M 0 0 M152.95 718.475 L171.306 718.475 L171.306 722.41 L157.232 722.41 L157.232 730.883 Q158.251 730.535 159.269 730.373 Q160.288 730.188 161.306 730.188 Q167.093 730.188 170.473 733.359 Q173.852 736.531 173.852 741.947 Q173.852 747.526 170.38 750.628 Q166.908 753.707 160.589 753.707 Q158.413 753.707 156.144 753.336 Q153.899 752.966 151.492 752.225 L151.492 747.526 Q153.575 748.66 155.797 749.216 Q158.019 749.771 160.496 749.771 Q164.501 749.771 166.839 747.665 Q169.177 745.558 169.177 741.947 Q169.177 738.336 166.839 736.23 Q164.501 734.123 160.496 734.123 Q158.621 734.123 156.746 734.54 Q154.894 734.957 152.95 735.836 L152.95 718.475 Z" fill="#000000" fill-rule="evenodd" fill-opacity="1" /><path clip-path="url(#clip650)" d="M 0 0 M188.922 721.554 Q185.311 721.554 183.482 725.119 Q181.677 728.66 181.677 735.79 Q181.677 742.896 183.482 746.461 Q185.311 750.003 188.922 750.003 Q192.556 750.003 194.362 746.461 Q196.19 742.896 196.19 735.79 Q196.19 728.66 194.362 725.119 Q192.556 721.554 188.922 721.554 M188.922 717.85 Q194.732 717.85 197.788 722.457 Q200.866 727.04 200.866 735.79 Q200.866 744.517 197.788 749.123 Q194.732 753.707 188.922 753.707 Q183.112 753.707 180.033 749.123 Q176.977 744.517 176.977 735.79 Q176.977 727.04 180.033 722.457 Q183.112 717.85 188.922 717.85 Z" fill="#000000" fill-rule="evenodd" fill-opacity="1" /><path clip-path="url(#clip650)" d="M 0 0 M215.936 721.554 Q212.325 721.554 210.496 725.119 Q208.69 728.66 208.69 735.79 Q208.69 742.896 210.496 746.461 Q212.325 750.003 215.936 750.003 Q219.57 750.003 221.375 746.461 Q223.204 742.896 223.204 735.79 Q223.204 728.66 221.375 725.119 Q219.57 721.554 215.936 721.554 M215.936 717.85 Q221.746 717.85 224.801 722.457 Q227.88 727.04 227.88 735.79 Q227.88 744.517 224.801 749.123 Q221.746 753.707 215.936 753.707 Q210.125 753.707 207.047 749.123 Q203.991 744.517 203.991 735.79 Q203.991 727.04 207.047 722.457 Q210.125 717.85 215.936 717.85 Z" fill="#000000" fill-rule="evenodd" fill-opacity="1" /><path clip-path="url(#clip650)" d="M 0 0 M152.626 423.938 L174.848 423.938 L174.848 425.929 L162.302 458.498 L157.417 458.498 L169.223 427.874 L152.626 427.874 L152.626 423.938 Z" fill="#000000" fill-rule="evenodd" fill-opacity="1" /><path clip-path="url(#clip650)" d="M 0 0 M179.964 423.938 L198.32 423.938 L198.32 427.874 L184.246 427.874 L184.246 436.346 Q185.264 435.999 186.283 435.837 Q187.301 435.651 188.32 435.651 Q194.107 435.651 197.487 438.823 Q200.866 441.994 200.866 447.411 Q200.866 452.989 197.394 456.091 Q193.922 459.17 187.602 459.17 Q185.427 459.17 183.158 458.799 Q180.913 458.429 178.505 457.688 L178.505 452.989 Q180.589 454.123 182.811 454.679 Q185.033 455.235 187.51 455.235 Q191.514 455.235 193.852 453.128 Q196.19 451.022 196.19 447.411 Q196.19 443.799 193.852 441.693 Q191.514 439.587 187.51 439.587 Q185.635 439.587 183.76 440.003 Q181.908 440.42 179.964 441.299 L179.964 423.938 Z" fill="#000000" fill-rule="evenodd" fill-opacity="1" /><path clip-path="url(#clip650)" d="M 0 0 M215.936 427.017 Q212.325 427.017 210.496 430.582 Q208.69 434.124 208.69 441.253 Q208.69 448.36 210.496 451.924 Q212.325 455.466 215.936 455.466 Q219.57 455.466 221.375 451.924 Q223.204 448.36 223.204 441.253 Q223.204 434.124 221.375 430.582 Q219.57 427.017 215.936 427.017 M215.936 423.313 Q221.746 423.313 224.801 427.92 Q227.88 432.503 227.88 441.253 Q227.88 449.98 224.801 454.586 Q221.746 459.17 215.936 459.17 Q210.125 459.17 207.047 454.586 Q203.991 449.98 203.991 441.253 Q203.991 432.503 207.047 427.92 Q210.125 423.313 215.936 423.313 Z" fill="#000000" fill-rule="evenodd" fill-opacity="1" /><path clip-path="url(#clip650)" d="M 0 0 M126.931 160.026 L134.57 160.026 L134.57 133.661 L126.26 135.328 L126.26 131.068 L134.524 129.402 L139.2 129.402 L139.2 160.026 L146.839 160.026 L146.839 163.962 L126.931 163.962 L126.931 160.026 Z" fill="#000000" fill-rule="evenodd" fill-opacity="1" /><path clip-path="url(#clip650)" d="M 0 0 M161.908 132.48 Q158.297 132.48 156.468 136.045 Q154.663 139.587 154.663 146.716 Q154.663 153.823 156.468 157.388 Q158.297 160.929 161.908 160.929 Q165.542 160.929 167.348 157.388 Q169.177 153.823 169.177 146.716 Q169.177 139.587 167.348 136.045 Q165.542 132.48 161.908 132.48 M161.908 128.777 Q167.718 128.777 170.774 133.383 Q173.852 137.966 173.852 146.716 Q173.852 155.443 170.774 160.05 Q167.718 164.633 161.908 164.633 Q156.098 164.633 153.019 160.05 Q149.964 155.443 149.964 146.716 Q149.964 137.966 153.019 133.383 Q156.098 128.777 161.908 128.777 Z" fill="#000000" fill-rule="evenodd" fill-opacity="1" /><path clip-path="url(#clip650)" d="M 0 0 M188.922 132.48 Q185.311 132.48 183.482 136.045 Q181.677 139.587 181.677 146.716 Q181.677 153.823 183.482 157.388 Q185.311 160.929 188.922 160.929 Q192.556 160.929 194.362 157.388 Q196.19 153.823 196.19 146.716 Q196.19 139.587 194.362 136.045 Q192.556 132.48 188.922 132.48 M188.922 128.777 Q194.732 128.777 197.788 133.383 Q200.866 137.966 200.866 146.716 Q200.866 155.443 197.788 160.05 Q194.732 164.633 188.922 164.633 Q183.112 164.633 180.033 160.05 Q176.977 155.443 176.977 146.716 Q176.977 137.966 180.033 133.383 Q183.112 128.777 188.922 128.777 Z" fill="#000000" fill-rule="evenodd" fill-opacity="1" /><path clip-path="url(#clip650)" d="M 0 0 M215.936 132.48 Q212.325 132.48 210.496 136.045 Q208.69 139.587 208.69 146.716 Q208.69 153.823 210.496 157.388 Q212.325 160.929 215.936 160.929 Q219.57 160.929 221.375 157.388 Q223.204 153.823 223.204 146.716 Q223.204 139.587 221.375 136.045 Q219.57 132.48 215.936 132.48 M215.936 128.777 Q221.746 128.777 224.801 133.383 Q227.88 137.966 227.88 146.716 Q227.88 155.443 224.801 160.05 Q221.746 164.633 215.936 164.633 Q210.125 164.633 207.047 160.05 Q203.991 155.443 203.991 146.716 Q203.991 137.966 207.047 133.383 Q210.125 128.777 215.936 128.777 Z" fill="#000000" fill-rule="evenodd" fill-opacity="1" /><path clip-path="url(#clip650)" d="M 0 0 M1117.14 12.096 L1125.32 12.096 L1125.32 72.576 L1117.14 72.576 L1117.14 12.096 Z" fill="#000000" fill-rule="evenodd" fill-opacity="1" /><path clip-path="url(#clip650)" d="M 0 0 M1170.86 45.1919 L1170.86 72.576 L1163.4 72.576 L1163.4 45.4349 Q1163.4 38.994 1160.89 35.7938 Q1158.38 32.5936 1153.36 32.5936 Q1147.32 32.5936 1143.84 36.4419 Q1140.35 40.2903 1140.35 46.9338 L1140.35 72.576 L1132.86 72.576 L1132.86 27.2059 L1140.35 27.2059 L1140.35 34.2544 Q1143.03 30.163 1146.63 28.1376 Q1150.28 26.1121 1155.02 26.1121 Q1162.83 26.1121 1166.84 30.9732 Q1170.86 35.7938 1170.86 45.1919 Z" fill="#000000" fill-rule="evenodd" fill-opacity="1" /><path clip-path="url(#clip650)" d="M 0 0 M1174.91 46.5287 L1196.74 46.5287 L1196.74 53.1722 L1174.91 53.1722 L1174.91 46.5287 Z" fill="#000000" fill-rule="evenodd" fill-opacity="1" /><path clip-path="url(#clip650)" d="M 0 0 M1211.77 65.7705 L1211.77 89.8329 L1204.28 89.8329 L1204.28 27.2059 L1211.77 27.2059 L1211.77 34.0924 Q1214.12 30.0415 1217.68 28.0971 Q1221.29 26.1121 1226.27 26.1121 Q1234.54 26.1121 1239.68 32.6746 Q1244.87 39.2371 1244.87 49.9314 Q1244.87 60.6258 1239.68 67.1883 Q1234.54 73.7508 1226.27 73.7508 Q1221.29 73.7508 1217.68 71.8063 Q1214.12 69.8214 1211.77 65.7705 M1237.13 49.9314 Q1237.13 41.7081 1233.73 37.0496 Q1230.36 32.3505 1224.45 32.3505 Q1218.53 32.3505 1215.13 37.0496 Q1211.77 41.7081 1211.77 49.9314 Q1211.77 58.1548 1215.13 62.8538 Q1218.53 67.5124 1224.45 67.5124 Q1230.36 67.5124 1233.73 62.8538 Q1237.13 58.1548 1237.13 49.9314 Z" fill="#000000" fill-rule="evenodd" fill-opacity="1" /><path clip-path="url(#clip650)" d="M 0 0 M1252.68 9.54393 L1260.14 9.54393 L1260.14 72.576 L1252.68 72.576 L1252.68 9.54393 Z" fill="#000000" fill-rule="evenodd" fill-opacity="1" /><path clip-path="url(#clip650)" d="M 0 0 M1288.57 49.7694 Q1279.54 49.7694 1276.06 51.8354 Q1272.57 53.9013 1272.57 58.8839 Q1272.57 62.8538 1275.17 65.2034 Q1277.8 67.5124 1282.3 67.5124 Q1288.49 67.5124 1292.22 63.1374 Q1295.99 58.7219 1295.99 51.4303 L1295.99 49.7694 L1288.57 49.7694 M1303.44 46.6907 L1303.44 72.576 L1295.99 72.576 L1295.99 65.6895 Q1293.44 69.8214 1289.63 71.8063 Q1285.82 73.7508 1280.31 73.7508 Q1273.34 73.7508 1269.21 69.8619 Q1265.12 65.9325 1265.12 59.3701 Q1265.12 51.7138 1270.22 47.825 Q1275.37 43.9361 1285.54 43.9361 L1295.99 43.9361 L1295.99 43.2069 Q1295.99 38.0623 1292.58 35.2672 Q1289.22 32.4315 1283.11 32.4315 Q1279.22 32.4315 1275.53 33.3632 Q1271.84 34.295 1268.44 36.1584 L1268.44 29.2718 Q1272.53 27.692 1276.38 26.9223 Q1280.23 26.1121 1283.88 26.1121 Q1293.72 26.1121 1298.58 31.2163 Q1303.44 36.3204 1303.44 46.6907 Z" fill="#000000" fill-rule="evenodd" fill-opacity="1" /><path clip-path="url(#clip650)" d="M 0 0 M1343.91 28.9478 L1343.91 35.9153 Q1340.75 34.1734 1337.55 33.3227 Q1334.39 32.4315 1331.15 32.4315 Q1323.9 32.4315 1319.89 37.0496 Q1315.88 41.6271 1315.88 49.9314 Q1315.88 58.2358 1319.89 62.8538 Q1323.9 67.4314 1331.15 67.4314 Q1334.39 67.4314 1337.55 66.5807 Q1340.75 65.6895 1343.91 63.9476 L1343.91 70.8341 Q1340.79 72.2924 1337.43 73.0216 Q1334.11 73.7508 1330.34 73.7508 Q1320.09 73.7508 1314.05 67.3098 Q1308.02 60.8689 1308.02 49.9314 Q1308.02 38.832 1314.1 32.472 Q1320.21 26.1121 1330.83 26.1121 Q1334.27 26.1121 1337.55 26.8413 Q1340.83 27.5299 1343.91 28.9478 Z" fill="#000000" fill-rule="evenodd" fill-opacity="1" /><path clip-path="url(#clip650)" d="M 0 0 M1390.54 48.0275 L1390.54 51.6733 L1356.27 51.6733 Q1356.75 59.3701 1360.88 63.421 Q1365.06 67.4314 1372.47 67.4314 Q1376.76 67.4314 1380.77 66.3781 Q1384.82 65.3249 1388.79 63.2184 L1388.79 70.267 Q1384.78 71.9684 1380.57 72.8596 Q1376.36 73.7508 1372.02 73.7508 Q1361.17 73.7508 1354.81 67.4314 Q1348.49 61.1119 1348.49 50.3365 Q1348.49 39.1965 1354.48 32.6746 Q1360.52 26.1121 1370.73 26.1121 Q1379.88 26.1121 1385.19 32.0264 Q1390.54 37.9003 1390.54 48.0275 M1383.08 45.84 Q1383 39.7232 1379.64 36.0774 Q1376.32 32.4315 1370.81 32.4315 Q1364.57 32.4315 1360.8 35.9558 Q1357.08 39.4801 1356.51 45.8805 L1383.08 45.84 Z" fill="#000000" fill-rule="evenodd" fill-opacity="1" /><path clip-path="url(#clip650)" d="M 0 0 M1181.44 1444.2 L1221.64 1444.2 L1221.64 1449.61 L1204.77 1449.61 L1204.77 1491.72 L1198.31 1491.72 L1198.31 1449.61 L1181.44 1449.61 L1181.44 1444.2 Z" fill="#000000" fill-rule="evenodd" fill-opacity="1" /><path clip-path="url(#clip650)" d="M 0 0 M1225.78 1456.08 L1231.64 1456.08 L1231.64 1491.72 L1225.78 1491.72 L1225.78 1456.08 M1225.78 1442.2 L1231.64 1442.2 L1231.64 1449.61 L1225.78 1449.61 L1225.78 1442.2 Z" fill="#000000" fill-rule="evenodd" fill-opacity="1" /><path clip-path="url(#clip650)" d="M 0 0 M1265.53 1462.92 Q1267.73 1458.97 1270.79 1457.09 Q1273.84 1455.22 1277.98 1455.22 Q1283.55 1455.22 1286.57 1459.13 Q1289.6 1463.01 1289.6 1470.21 L1289.6 1491.72 L1283.71 1491.72 L1283.71 1470.4 Q1283.71 1465.27 1281.89 1462.79 Q1280.08 1460.31 1276.36 1460.31 Q1271.81 1460.31 1269.16 1463.33 Q1266.52 1466.36 1266.52 1471.58 L1266.52 1491.72 L1260.63 1491.72 L1260.63 1470.4 Q1260.63 1465.24 1258.82 1462.79 Q1257 1460.31 1253.22 1460.31 Q1248.73 1460.31 1246.09 1463.36 Q1243.45 1466.39 1243.45 1471.58 L1243.45 1491.72 L1237.56 1491.72 L1237.56 1456.08 L1243.45 1456.08 L1243.45 1461.61 Q1245.45 1458.34 1248.25 1456.78 Q1251.05 1455.22 1254.9 1455.22 Q1258.79 1455.22 1261.49 1457.19 Q1264.23 1459.16 1265.53 1462.92 Z" fill="#000000" fill-rule="evenodd" fill-opacity="1" /><path clip-path="url(#clip650)" d="M 0 0 M1326.23 1472.44 L1326.23 1475.3 L1299.31 1475.3 Q1299.69 1481.35 1302.93 1484.53 Q1306.21 1487.68 1312.04 1487.68 Q1315.41 1487.68 1318.56 1486.85 Q1321.74 1486.03 1324.86 1484.37 L1324.86 1489.91 Q1321.71 1491.25 1318.4 1491.95 Q1315.09 1492.65 1311.69 1492.65 Q1303.16 1492.65 1298.16 1487.68 Q1293.19 1482.72 1293.19 1474.25 Q1293.19 1465.5 1297.9 1460.37 Q1302.65 1455.22 1310.67 1455.22 Q1317.86 1455.22 1322.03 1459.86 Q1326.23 1464.48 1326.23 1472.44 M1320.38 1470.72 Q1320.31 1465.91 1317.67 1463.05 Q1315.06 1460.18 1310.73 1460.18 Q1305.83 1460.18 1302.87 1462.95 Q1299.94 1465.72 1299.5 1470.75 L1320.38 1470.72 Z" fill="#000000" fill-rule="evenodd" fill-opacity="1" /><path clip-path="url(#clip650)" d="M 0 0 M41.4442 856.929 L41.4442 848.272 L81.198 827.201 L41.4442 827.201 L41.4442 820.963 L88.9642 820.963 L88.9642 829.62 L49.2103 850.691 L88.9642 850.691 L88.9642 856.929 L41.4442 856.929 Z" fill="#000000" fill-rule="evenodd" fill-opacity="1" /><path clip-path="url(#clip650)" d="M 0 0 M74.8959 815.425 L53.3162 815.425 L53.3162 809.568 L74.6731 809.568 Q79.7339 809.568 82.2802 807.595 Q84.7946 805.621 84.7946 801.675 Q84.7946 796.932 81.7709 794.195 Q78.7472 791.426 73.5273 791.426 L53.3162 791.426 L53.3162 785.569 L88.9642 785.569 L88.9642 791.426 L83.4896 791.426 Q86.7362 793.558 88.3276 796.391 Q89.8872 799.192 89.8872 802.916 Q89.8872 809.059 86.0678 812.242 Q82.2483 815.425 74.8959 815.425 M52.4568 800.688 L52.4568 800.688 Z" fill="#000000" fill-rule="evenodd" fill-opacity="1" /><path clip-path="url(#clip650)" d="M 0 0 M60.1593 751.672 Q56.2126 749.476 54.3347 746.42 Q52.4568 743.365 52.4568 739.227 Q52.4568 733.657 56.3717 730.633 Q60.2548 727.61 67.4481 727.61 L88.9642 727.61 L88.9642 733.498 L67.639 733.498 Q62.5146 733.498 60.032 735.312 Q57.5494 737.126 57.5494 740.85 Q57.5494 745.402 60.5731 748.044 Q63.5968 750.685 68.8167 750.685 L88.9642 750.685 L88.9642 756.574 L67.639 756.574 Q62.4828 756.574 60.032 758.388 Q57.5494 760.202 57.5494 763.99 Q57.5494 768.477 60.6049 771.119 Q63.6286 773.761 68.8167 773.761 L88.9642 773.761 L88.9642 779.649 L53.3162 779.649 L53.3162 773.761 L58.8544 773.761 Q55.576 771.756 54.0164 768.955 Q52.4568 766.154 52.4568 762.303 Q52.4568 758.42 54.4302 755.714 Q56.4036 752.977 60.1593 751.672 Z" fill="#000000" fill-rule="evenodd" fill-opacity="1" /><path clip-path="url(#clip650)" d="M 0 0 M71.172 695.877 Q64.7108 695.877 61.0505 698.55 Q57.3584 701.192 57.3584 705.839 Q57.3584 710.486 61.0505 713.159 Q64.7108 715.801 71.172 715.801 Q77.6332 715.801 81.3253 713.159 Q84.9856 710.486 84.9856 705.839 Q84.9856 701.192 81.3253 698.55 Q77.6332 695.877 71.172 695.877 M58.7271 715.801 Q55.5442 713.955 54.0164 711.154 Q52.4568 708.322 52.4568 704.407 Q52.4568 697.914 57.6131 693.871 Q62.7693 689.797 71.172 689.797 Q79.5747 689.797 84.731 693.871 Q89.8872 697.914 89.8872 704.407 Q89.8872 708.322 88.3594 711.154 Q86.7998 713.955 83.617 715.801 L88.9642 715.801 L88.9642 721.689 L39.439 721.689 L39.439 715.801 L58.7271 715.801 Z" fill="#000000" fill-rule="evenodd" fill-opacity="1" /><path clip-path="url(#clip650)" d="M 0 0 M69.6761 653.163 L72.5406 653.163 L72.5406 680.09 Q78.5881 679.708 81.7709 676.461 Q84.9219 673.183 84.9219 667.358 Q84.9219 663.984 84.0944 660.833 Q83.2669 657.65 81.6118 654.531 L87.1499 654.531 Q88.4867 657.682 89.187 660.992 Q89.8872 664.303 89.8872 667.708 Q89.8872 676.238 84.9219 681.235 Q79.9567 686.201 71.4903 686.201 Q62.7374 686.201 57.6131 681.49 Q52.4568 676.748 52.4568 668.727 Q52.4568 661.534 57.1038 657.364 Q61.7189 653.163 69.6761 653.163 M67.9573 659.019 Q63.1512 659.083 60.2866 661.725 Q57.4221 664.334 57.4221 668.663 Q57.4221 673.565 60.1912 676.525 Q62.9602 679.453 67.9892 679.899 L67.9573 659.019 Z" fill="#000000" fill-rule="evenodd" fill-opacity="1" /><path clip-path="url(#clip650)" d="M 0 0 M58.7907 626.363 Q58.2178 627.35 57.9632 628.527 Q57.6767 629.673 57.6767 631.074 Q57.6767 636.039 60.9232 638.713 Q64.1379 641.354 70.1853 641.354 L88.9642 641.354 L88.9642 647.243 L53.3162 647.243 L53.3162 641.354 L58.8544 641.354 Q55.6079 639.508 54.0483 636.548 Q52.4568 633.588 52.4568 629.355 Q52.4568 628.75 52.5523 628.018 Q52.616 627.286 52.7751 626.395 L58.7907 626.363 Z" fill="#000000" fill-rule="evenodd" fill-opacity="1" /><polyline clip-path="url(#clip652)" style="stroke:#009af9; stroke-width:4; stroke-opacity:1; fill:none" points="
  307.689,158.463 312.42,158.463 317.15,158.463 321.881,158.463 326.612,158.463 331.343,158.463 336.073,158.463 340.804,160.819 345.535,161.998 350.266,163.176 
  354.996,165.532 359.727,165.532 364.458,165.532 369.189,166.71 373.919,166.71 378.65,166.71 383.381,166.71 388.112,166.71 392.842,166.71 397.573,166.71 
  402.304,169.066 407.035,169.066 411.765,169.066 416.496,169.066 421.227,169.066 425.958,169.066 430.688,169.066 435.419,170.245 440.15,171.423 444.881,173.779 
  449.611,174.957 454.342,174.957 459.073,177.313 463.804,178.492 468.534,178.492 473.265,179.67 477.996,180.848 482.726,183.204 487.457,185.56 492.188,187.917 
  496.919,190.273 501.649,191.451 506.38,192.629 511.111,194.986 515.842,197.342 520.572,198.52 525.303,202.055 530.034,204.411 534.765,205.589 539.495,206.767 
  544.226,209.123 548.957,209.123 553.688,211.48 558.418,212.658 563.149,215.014 567.88,217.37 572.611,218.549 577.341,219.727 582.072,222.083 586.803,229.152 
  591.534,230.33 596.264,236.221 600.995,236.221 605.726,243.29 610.457,245.646 615.187,246.824 619.918,248.002 624.649,255.071 629.38,256.249 634.11,260.962 
  638.841,263.318 643.572,264.496 648.303,266.853 653.033,268.031 657.764,272.743 662.495,276.278 667.226,279.812 671.956,282.169 676.687,284.525 681.418,291.594 
  686.149,293.95 690.879,296.306 695.61,298.663 700.341,305.732 705.072,308.088 709.802,309.266 714.533,315.157 719.264,317.513 723.994,325.76 728.725,330.473 
  733.456,334.007 738.187,337.541 742.917,339.898 747.648,345.789 752.379,351.679 757.11,356.392 761.84,361.104 766.571,365.817 771.302,369.351 776.033,377.598 
  780.763,382.311 785.494,390.558 790.225,398.805 794.956,407.052 799.686,414.121 804.417,415.299 809.148,422.368 813.879,427.081 818.609,431.793 823.34,440.04 
  828.071,444.753 832.802,454.178 837.532,457.712 842.263,462.425 846.994,473.028 851.725,481.275 856.455,494.235 861.186,498.948 865.917,508.373 870.648,516.62 
  875.378,520.154 880.109,528.401 884.84,537.827 889.571,544.895 894.301,556.677 899.032,563.746 903.763,568.458 908.494,571.993 913.224,576.705 917.955,582.596 
  922.686,589.665 927.417,599.09 932.147,602.625 936.878,608.515 941.609,615.584 946.34,623.831 951.07,633.256 955.801,637.969 960.532,646.216 965.262,653.285 
  969.993,659.176 974.724,672.135 979.455,678.026 984.185,687.451 988.916,695.698 993.647,702.767 998.378,707.48 1003.11,716.905 1007.84,725.152 1012.57,735.755 
  1017.3,746.359 1022.03,748.715 1026.76,753.427 1031.49,760.496 1036.22,769.922 1040.95,772.278 1045.69,776.99 1050.42,781.703 1055.15,786.416 1059.88,792.306 
  1064.61,795.841 1069.34,804.088 1074.07,808.8 1078.8,818.226 1083.53,824.116 1088.26,827.651 1092.99,834.72 1097.72,837.076 1102.45,837.076 1107.18,841.788 
  1111.92,850.036 1116.65,855.926 1121.38,860.639 1126.11,865.351 1130.84,872.42 1135.57,874.777 1140.3,877.133 1145.03,885.38 1149.76,890.093 1154.49,893.627 
  1159.22,897.161 1163.95,899.518 1168.68,907.765 1173.42,908.943 1178.15,914.834 1182.88,916.012 1187.61,919.546 1192.34,924.259 1197.07,927.793 1201.8,928.971 
  1206.53,931.328 1211.26,932.506 1215.99,936.04 1220.72,939.575 1225.45,939.575 1230.18,940.753 1234.91,941.931 1239.65,945.465 1244.38,946.644 1249.11,951.356 
  1253.84,954.891 1258.57,954.891 1263.3,956.069 1268.03,957.247 1272.76,958.425 1277.49,959.603 1282.22,960.781 1286.95,964.316 1291.68,965.494 1296.41,967.85 
  1301.15,971.385 1305.88,972.563 1310.61,974.919 1315.34,974.919 1320.07,977.275 1324.8,979.632 1329.53,980.81 1334.26,981.988 1338.99,983.166 1343.72,984.344 
  1348.45,987.879 1353.18,991.413 1357.91,991.413 1362.65,993.769 1367.38,996.126 1372.11,997.304 1376.84,998.482 1381.57,999.66 1386.3,999.66 1391.03,999.66 
  1395.76,1000.84 1400.49,1003.19 1405.22,1004.37 1409.95,1006.73 1414.68,1007.91 1419.41,1011.44 1424.14,1012.62 1428.88,1012.62 1433.61,1016.15 1438.34,1018.51 
  1443.07,1023.22 1447.8,1025.58 1452.53,1027.94 1457.26,1031.47 1461.99,1033.83 1466.72,1038.54 1471.45,1042.07 1476.18,1042.07 1480.91,1043.25 1485.64,1044.43 
  1490.38,1044.43 1495.11,1044.43 1499.84,1044.43 1504.57,1046.79 1509.3,1046.79 1514.03,1046.79 1518.76,1049.14 1523.49,1051.5 1528.22,1052.68 1532.95,1055.03 
  1537.68,1055.03 1542.41,1055.03 1547.14,1057.39 1551.87,1058.57 1556.61,1058.57 1561.34,1059.75 1566.07,1059.75 1570.8,1059.75 1575.53,1059.75 1580.26,1060.92 
  1584.99,1060.92 1589.72,1060.92 1594.45,1063.28 1599.18,1064.46 1603.91,1065.64 1608.64,1067.99 1613.37,1070.35 1618.11,1073.88 1622.84,1073.88 1627.57,1073.88 
  1632.3,1073.88 1637.03,1075.06 1641.76,1076.24 1646.49,1078.6 1651.22,1079.77 1655.95,1079.77 1660.68,1079.77 1665.41,1079.77 1670.14,1082.13 1674.87,1083.31 
  1679.61,1084.49 1684.34,1085.66 1689.07,1085.66 1693.8,1085.66 1698.53,1086.84 1703.26,1088.02 1707.99,1088.02 1712.72,1088.02 1717.45,1089.2 1722.18,1089.2 
  1726.91,1091.56 1731.64,1091.56 1736.37,1092.73 1741.1,1092.73 1745.84,1092.73 1750.57,1093.91 1755.3,1093.91 1760.03,1095.09 1764.76,1095.09 1769.49,1096.27 
  1774.22,1098.62 1778.95,1098.62 1783.68,1099.8 1788.41,1099.8 1793.14,1100.98 1797.87,1100.98 1802.6,1100.98 1807.34,1102.16 1812.07,1102.16 1816.8,1102.16 
  1821.53,1102.16 1826.26,1102.16 1830.99,1102.16 1835.72,1103.34 1840.45,1104.52 1845.18,1105.69 1849.91,1106.87 1854.64,1106.87 1859.37,1106.87 1864.1,1106.87 
  1868.83,1108.05 1873.57,1108.05 1878.3,1108.05 1883.03,1108.05 1887.76,1108.05 1892.49,1108.05 1897.22,1108.05 1901.95,1108.05 1906.68,1108.05 1911.41,1108.05 
  1916.14,1108.05 1920.87,1108.05 1925.6,1108.05 1930.33,1108.05 1935.07,1108.05 1939.8,1109.23 1944.53,1109.23 1949.26,1109.23 1953.99,1110.41 1958.72,1110.41 
  1963.45,1110.41 1968.18,1110.41 1972.91,1110.41 1977.64,1110.41 1982.37,1111.58 1987.1,1111.58 1991.83,1111.58 1996.56,1111.58 2001.3,1111.58 2006.03,1112.76 
  2010.76,1112.76 2015.49,1112.76 2020.22,1112.76 2024.95,1112.76 2029.68,1112.76 2034.41,1112.76 2039.14,1113.94 2043.87,1113.94 2048.6,1113.94 2053.33,1115.12 
  2058.06,1115.12 2062.8,1116.3 2067.53,1116.3 2072.26,1116.3 2076.99,1116.3 2081.72,1118.65 2086.45,1118.65 2091.18,1118.65 2095.91,1118.65 2100.64,1118.65 
  2105.37,1118.65 2110.1,1118.65 2114.83,1118.65 2119.56,1118.65 2124.3,1119.83 2129.03,1119.83 2133.76,1121.01 2138.49,1121.01 2143.22,1122.19 2147.95,1122.19 
  2152.68,1122.19 2157.41,1122.19 2162.14,1124.54 2166.87,1124.54 2171.6,1125.72 2176.33,1125.72 2181.06,1125.72 2185.79,1125.72 2190.53,1125.72 2195.26,1126.9 
  2199.99,1126.9 
  "/>
<polyline clip-path="url(#clip652)" style="stroke:#e26f46; stroke-width:4; stroke-opacity:1; fill:none" points="
  307.689,1313.05 312.42,1313.05 317.15,1314.23 321.881,1314.23 326.612,1314.23 331.343,1315.4 336.073,1315.4 340.804,1313.05 345.535,1311.87 350.266,1310.69 
  354.996,1308.33 359.727,1309.51 364.458,1309.51 369.189,1308.33 373.919,1308.33 378.65,1308.33 383.381,1308.33 388.112,1309.51 392.842,1309.51 397.573,1310.69 
  402.304,1308.33 407.035,1308.33 411.765,1309.51 416.496,1310.69 421.227,1310.69 425.958,1310.69 430.688,1311.87 435.419,1310.69 440.15,1311.87 444.881,1310.69 
  449.611,1310.69 454.342,1310.69 459.073,1308.33 463.804,1307.16 468.534,1307.16 473.265,1305.98 477.996,1304.8 482.726,1302.44 487.457,1300.09 492.188,1297.73 
  496.919,1295.38 501.649,1294.2 506.38,1295.38 511.111,1294.2 515.842,1291.84 520.572,1290.66 525.303,1287.13 530.034,1284.77 534.765,1283.59 539.495,1282.42 
  544.226,1281.24 548.957,1284.77 553.688,1283.59 558.418,1282.42 563.149,1281.24 567.88,1278.88 572.611,1280.06 577.341,1280.06 582.072,1280.06 586.803,1275.35 
  591.534,1274.17 596.264,1269.46 600.995,1271.81 605.726,1268.28 610.457,1268.28 615.187,1268.28 619.918,1268.28 624.649,1262.39 629.38,1262.39 634.11,1258.85 
  638.841,1258.85 643.572,1260.03 648.303,1258.85 653.033,1258.85 657.764,1256.5 662.495,1254.14 667.226,1251.78 671.956,1251.78 676.687,1251.78 681.418,1247.07 
  686.149,1244.71 690.879,1244.71 695.61,1242.36 700.341,1237.65 705.072,1235.29 709.802,1235.29 714.533,1229.4 719.264,1227.04 723.994,1221.15 728.725,1217.62 
  733.456,1215.26 738.187,1214.08 742.917,1212.9 747.648,1209.37 752.379,1204.66 757.11,1199.95 761.84,1199.95 766.571,1199.95 771.302,1198.77 776.033,1192.88 
  780.763,1194.05 785.494,1190.52 790.225,1183.45 794.956,1179.92 799.686,1176.38 804.417,1181.09 809.148,1176.38 813.879,1175.2 818.609,1175.2 823.34,1168.14 
  828.071,1164.6 832.802,1158.71 837.532,1162.24 842.263,1161.07 846.994,1152.82 851.725,1149.28 856.455,1141.04 861.186,1141.04 865.917,1138.68 870.648,1136.33 
  875.378,1136.33 880.109,1131.61 884.84,1123.37 889.571,1122.19 894.301,1115.12 899.032,1112.76 903.763,1115.12 908.494,1117.47 913.224,1117.47 917.955,1115.12 
  922.686,1112.76 927.417,1110.41 932.147,1110.41 936.878,1110.41 941.609,1111.58 946.34,1110.41 951.07,1103.34 955.801,1104.52 960.532,1100.98 965.262,1096.27 
  969.993,1093.91 974.724,1084.49 979.455,1080.95 984.185,1075.06 988.916,1075.06 993.647,1083.31 998.378,1082.13 1003.11,1077.42 1007.84,1077.42 1012.57,1070.35 
  1017.3,1067.99 1022.03,1071.53 1026.76,1071.53 1031.49,1072.71 1036.22,1071.53 1040.95,1079.77 1045.69,1080.95 1050.42,1080.95 1055.15,1082.13 1059.88,1083.31 
  1064.61,1083.31 1069.34,1078.6 1074.07,1082.13 1078.8,1075.06 1083.53,1079.77 1088.26,1084.49 1092.99,1084.49 1097.72,1089.2 1102.45,1100.98 1107.18,1105.69 
  1111.92,1102.16 1116.65,1099.8 1121.38,1100.98 1126.11,1096.27 1130.84,1102.16 1135.57,1105.69 1140.3,1109.23 1145.03,1110.41 1149.76,1112.76 1154.49,1117.47 
  1159.22,1116.3 1163.95,1118.65 1168.68,1115.12 1173.42,1117.47 1178.15,1116.3 1182.88,1119.83 1187.61,1119.83 1192.34,1123.37 1197.07,1126.9 1201.8,1135.15 
  1206.53,1138.68 1211.26,1142.22 1215.99,1145.75 1220.72,1142.22 1225.45,1150.46 1230.18,1156.35 1234.91,1158.71 1239.65,1159.89 1244.38,1164.6 1249.11,1165.78 
  1253.84,1164.6 1258.57,1164.6 1263.3,1168.14 1268.03,1168.14 1272.76,1170.49 1277.49,1172.85 1282.22,1176.38 1286.95,1177.56 1291.68,1179.92 1296.41,1189.34 
  1301.15,1186.99 1305.88,1188.16 1310.61,1190.52 1315.34,1192.88 1320.07,1195.23 1324.8,1196.41 1329.53,1197.59 1334.26,1201.12 1338.99,1202.3 1343.72,1204.66 
  1348.45,1202.3 1353.18,1202.3 1357.91,1203.48 1362.65,1207.01 1367.38,1207.01 1372.11,1205.84 1376.84,1207.01 1381.57,1207.01 1386.3,1208.19 1391.03,1208.19 
  1395.76,1207.01 1400.49,1209.37 1405.22,1209.37 1409.95,1209.37 1414.68,1210.55 1419.41,1209.37 1424.14,1210.55 1428.88,1211.73 1433.61,1210.55 1438.34,1208.19 
  1443.07,1205.84 1447.8,1205.84 1452.53,1209.37 1457.26,1207.01 1461.99,1207.01 1466.72,1207.01 1471.45,1203.48 1476.18,1205.84 1480.91,1208.19 1485.64,1210.55 
  1490.38,1211.73 1495.11,1215.26 1499.84,1219.97 1504.57,1219.97 1509.3,1222.33 1514.03,1225.86 1518.76,1228.22 1523.49,1232.93 1528.22,1234.11 1532.95,1231.76 
  1537.68,1238.82 1542.41,1243.54 1547.14,1241.18 1551.87,1243.54 1556.61,1245.89 1561.34,1247.07 1566.07,1248.25 1570.8,1249.43 1575.53,1250.61 1580.26,1250.61 
  1584.99,1252.96 1589.72,1255.32 1594.45,1254.14 1599.18,1252.96 1603.91,1255.32 1608.64,1252.96 1613.37,1252.96 1618.11,1252.96 1622.84,1256.5 1627.57,1257.67 
  1632.3,1257.67 1637.03,1257.67 1641.76,1257.67 1646.49,1255.32 1651.22,1255.32 1655.95,1255.32 1660.68,1256.5 1665.41,1260.03 1670.14,1258.85 1674.87,1260.03 
  1679.61,1260.03 1684.34,1258.85 1689.07,1260.03 1693.8,1262.39 1698.53,1263.57 1703.26,1263.57 1707.99,1264.74 1712.72,1264.74 1717.45,1264.74 1722.18,1265.92 
  1726.91,1264.74 1731.64,1267.1 1736.37,1267.1 1741.1,1268.28 1745.84,1268.28 1750.57,1269.46 1755.3,1270.63 1760.03,1270.63 1764.76,1271.81 1769.49,1270.63 
  1774.22,1270.63 1778.95,1270.63 1783.68,1275.35 1788.41,1277.7 1793.14,1277.7 1797.87,1278.88 1802.6,1278.88 1807.34,1277.7 1812.07,1280.06 1816.8,1280.06 
  1821.53,1282.42 1826.26,1285.95 1830.99,1287.13 1835.72,1287.13 1840.45,1285.95 1845.18,1284.77 1849.91,1283.59 1854.64,1285.95 1859.37,1285.95 1864.1,1287.13 
  1868.83,1288.31 1873.57,1288.31 1878.3,1288.31 1883.03,1289.48 1887.76,1291.84 1892.49,1291.84 1897.22,1291.84 1901.95,1291.84 1906.68,1293.02 1911.41,1293.02 
  1916.14,1294.2 1920.87,1294.2 1925.6,1294.2 1930.33,1296.55 1935.07,1297.73 1939.8,1296.55 1944.53,1296.55 1949.26,1296.55 1953.99,1296.55 1958.72,1296.55 
  1963.45,1297.73 1968.18,1297.73 1972.91,1298.91 1977.64,1298.91 1982.37,1298.91 1987.1,1298.91 1991.83,1298.91 1996.56,1298.91 2001.3,1298.91 2006.03,1298.91 
  2010.76,1298.91 2015.49,1298.91 2020.22,1300.09 2024.95,1300.09 2029.68,1300.09 2034.41,1301.27 2039.14,1300.09 2043.87,1301.27 2048.6,1301.27 2053.33,1300.09 
  2058.06,1300.09 2062.8,1301.27 2067.53,1301.27 2072.26,1301.27 2076.99,1302.44 2081.72,1300.09 2086.45,1300.09 2091.18,1301.27 2095.91,1302.44 2100.64,1302.44 
  2105.37,1302.44 2110.1,1302.44 2114.83,1303.62 2119.56,1303.62 2124.3,1302.44 2129.03,1302.44 2133.76,1302.44 2138.49,1302.44 2143.22,1301.27 2147.95,1302.44 
  2152.68,1302.44 2157.41,1302.44 2162.14,1300.09 2166.87,1301.27 2171.6,1300.09 2176.33,1302.44 2181.06,1302.44 2185.79,1303.62 2190.53,1303.62 2195.26,1303.62 
  2199.99,1303.62 
  "/>
<polyline clip-path="url(#clip652)" style="stroke:#3da44d; stroke-width:4; stroke-opacity:1; fill:none" points="
  307.689,1324.83 312.42,1324.83 317.15,1323.65 321.881,1323.65 326.612,1323.65 331.343,1322.47 336.073,1322.47 340.804,1322.47 345.535,1322.47 350.266,1322.47 
  354.996,1322.47 359.727,1321.29 364.458,1321.29 369.189,1321.29 373.919,1321.29 378.65,1321.29 383.381,1321.29 388.112,1320.12 392.842,1320.12 397.573,1318.94 
  402.304,1318.94 407.035,1318.94 411.765,1317.76 416.496,1316.58 421.227,1316.58 425.958,1316.58 430.688,1315.4 435.419,1315.4 440.15,1313.05 444.881,1311.87 
  449.611,1310.69 454.342,1310.69 459.073,1310.69 463.804,1310.69 468.534,1310.69 473.265,1310.69 477.996,1310.69 482.726,1310.69 487.457,1310.69 492.188,1310.69 
  496.919,1310.69 501.649,1310.69 506.38,1308.33 511.111,1307.16 515.842,1307.16 520.572,1307.16 525.303,1307.16 530.034,1307.16 534.765,1307.16 539.495,1307.16 
  544.226,1305.98 548.957,1302.44 553.688,1301.27 558.418,1301.27 563.149,1300.09 567.88,1300.09 572.611,1297.73 577.341,1296.55 582.072,1294.2 586.803,1291.84 
  591.534,1291.84 596.264,1290.66 600.995,1288.31 605.726,1284.77 610.457,1282.42 615.187,1281.24 619.918,1280.06 624.649,1278.88 629.38,1277.7 634.11,1276.52 
  638.841,1274.17 643.572,1271.81 648.303,1270.63 653.033,1269.46 657.764,1267.1 662.495,1265.92 667.226,1264.74 671.956,1262.39 676.687,1260.03 681.418,1257.67 
  686.149,1257.67 690.879,1255.32 695.61,1255.32 700.341,1252.96 705.072,1252.96 709.802,1251.78 714.533,1251.78 719.264,1251.78 723.994,1249.43 728.725,1248.25 
  733.456,1247.07 738.187,1244.71 742.917,1243.54 747.648,1241.18 752.379,1240 757.11,1240 761.84,1235.29 766.571,1230.58 771.302,1228.22 776.033,1225.86 
  780.763,1219.97 785.494,1215.26 790.225,1214.08 794.956,1209.37 799.686,1205.84 804.417,1199.95 809.148,1197.59 813.879,1194.05 818.609,1189.34 823.34,1188.16 
  828.071,1186.99 832.802,1183.45 837.532,1176.38 842.263,1172.85 846.994,1170.49 851.725,1165.78 856.455,1161.07 861.186,1156.35 865.917,1149.28 870.648,1143.39 
  875.378,1139.86 880.109,1136.33 884.84,1135.15 889.571,1129.26 894.301,1124.54 899.032,1119.83 903.763,1112.76 908.494,1106.87 913.224,1102.16 917.955,1098.62 
  922.686,1093.91 927.417,1086.84 932.147,1083.31 936.878,1077.42 941.609,1069.17 946.34,1062.1 951.07,1059.75 955.801,1053.86 960.532,1049.14 965.262,1046.79 
  969.993,1043.25 974.724,1039.72 979.455,1037.36 984.185,1033.83 988.916,1025.58 993.647,1010.26 998.378,1006.73 1003.11,1002.02 1007.84,993.769 1012.57,990.235 
  1017.3,981.988 1022.03,976.097 1026.76,971.385 1031.49,963.138 1036.22,954.891 1040.95,944.287 1045.69,938.397 1050.42,933.684 1055.15,927.793 1059.88,920.724 
  1064.61,917.19 1069.34,913.655 1074.07,905.408 1078.8,903.052 1083.53,892.449 1088.26,884.202 1092.99,877.133 1097.72,870.064 1102.45,858.283 1107.18,848.857 
  1111.92,844.145 1116.65,840.61 1121.38,834.72 1126.11,834.72 1130.84,821.76 1135.57,815.869 1140.3,809.979 1145.03,800.553 1149.76,793.484 1154.49,785.237 
  1159.22,782.881 1163.95,778.169 1168.68,773.456 1173.42,769.922 1178.15,765.209 1182.88,760.496 1187.61,756.962 1192.34,748.715 1197.07,741.646 1201.8,732.221 
  1206.53,726.33 1211.26,721.617 1215.99,714.549 1220.72,714.549 1225.45,706.302 1230.18,699.233 1234.91,695.698 1239.65,690.986 1244.38,685.095 1249.11,679.204 
  1253.84,676.848 1258.57,676.848 1263.3,672.135 1268.03,670.957 1272.76,667.423 1277.49,663.888 1282.22,659.176 1286.95,654.463 1291.68,650.929 1296.41,639.147 
  1301.15,637.969 1305.88,635.613 1310.61,630.9 1315.34,628.544 1320.07,623.831 1324.8,620.297 1329.53,617.941 1334.26,613.228 1338.99,610.872 1343.72,607.337 
  1348.45,606.159 1353.18,602.625 1357.91,601.446 1362.65,595.556 1367.38,593.199 1372.11,593.199 1376.84,590.843 1381.57,589.665 1386.3,588.487 1391.03,588.487 
  1395.76,588.487 1400.49,583.774 1405.22,582.596 1409.95,580.24 1414.68,577.884 1419.41,575.527 1424.14,573.171 1428.88,571.993 1433.61,569.636 1438.34,569.636 
  1443.07,567.28 1447.8,564.924 1452.53,559.033 1457.26,557.855 1461.99,555.499 1466.72,550.786 1471.45,550.786 1476.18,548.43 1480.91,544.895 1485.64,541.361 
  1490.38,540.183 1495.11,536.648 1499.84,531.936 1504.57,529.579 1509.3,527.223 1514.03,523.689 1518.76,518.976 1523.49,511.907 1528.22,509.551 1532.95,509.551 
  1537.68,502.482 1542.41,497.77 1547.14,497.77 1551.87,494.235 1556.61,491.879 1561.34,489.522 1566.07,488.344 1570.8,487.166 1575.53,485.988 1580.26,484.81 
  1584.99,482.454 1589.72,480.097 1594.45,478.919 1599.18,478.919 1603.91,475.385 1608.64,475.385 1613.37,473.028 1618.11,469.494 1622.84,465.96 1627.57,464.781 
  1632.3,464.781 1637.03,463.603 1641.76,462.425 1646.49,462.425 1651.22,461.247 1655.95,461.247 1660.68,460.069 1665.41,456.534 1670.14,455.356 1674.87,453 
  1679.61,451.822 1684.34,451.822 1689.07,450.644 1693.8,448.287 1698.53,445.931 1703.26,444.753 1707.99,443.575 1712.72,443.575 1717.45,442.397 1722.18,441.218 
  1726.91,440.04 1731.64,437.684 1736.37,436.506 1741.1,435.328 1745.84,435.328 1750.57,432.971 1755.3,431.793 1760.03,430.615 1764.76,429.437 1769.49,429.437 
  1774.22,427.081 1778.95,427.081 1783.68,421.19 1788.41,418.834 1793.14,417.655 1797.87,416.477 1802.6,416.477 1807.34,416.477 1812.07,414.121 1816.8,414.121 
  1821.53,411.765 1826.26,408.23 1830.99,407.052 1835.72,405.874 1840.45,405.874 1845.18,405.874 1849.91,405.874 1854.64,403.518 1859.37,403.518 1864.1,402.34 
  1868.83,399.983 1873.57,399.983 1878.3,399.983 1883.03,398.805 1887.76,396.449 1892.49,396.449 1897.22,396.449 1901.95,396.449 1906.68,395.271 1911.41,395.271 
  1916.14,394.093 1920.87,394.093 1925.6,394.093 1930.33,391.736 1935.07,390.558 1939.8,390.558 1944.53,390.558 1949.26,390.558 1953.99,389.38 1958.72,389.38 
  1963.45,388.202 1968.18,388.202 1972.91,387.024 1977.64,387.024 1982.37,385.846 1987.1,385.846 1991.83,385.846 1996.56,385.846 2001.3,385.846 2006.03,384.667 
  2010.76,384.667 2015.49,384.667 2020.22,383.489 2024.95,383.489 2029.68,383.489 2034.41,382.311 2039.14,382.311 2043.87,381.133 2048.6,381.133 2053.33,381.133 
  2058.06,381.133 2062.8,378.777 2067.53,378.777 2072.26,378.777 2076.99,377.598 2081.72,377.598 2086.45,377.598 2091.18,376.42 2095.91,375.242 2100.64,375.242 
  2105.37,375.242 2110.1,375.242 2114.83,374.064 2119.56,374.064 2124.3,374.064 2129.03,374.064 2133.76,372.886 2138.49,372.886 2143.22,372.886 2147.95,371.708 
  2152.68,371.708 2157.41,371.708 2162.14,371.708 2166.87,370.53 2171.6,370.53 2176.33,368.173 2181.06,368.173 2185.79,366.995 2190.53,366.995 2195.26,365.817 
  2199.99,365.817 
  "/>
<path clip-path="url(#clip650)" d="
M1930.31 443.152 L2187.64 443.152 L2187.64 201.232 L1930.31 201.232  Z
  " fill="#ffffff" fill-rule="evenodd" fill-opacity="1"/>
<polyline clip-path="url(#clip650)" style="stroke:#000000; stroke-width:4; stroke-opacity:1; fill:none" points="
  1930.31,443.152 2187.64,443.152 2187.64,201.232 1930.31,201.232 1930.31,443.152 
  "/>
<polyline clip-path="url(#clip650)" style="stroke:#009af9; stroke-width:4; stroke-opacity:1; fill:none" points="
  1953.35,261.712 2091.59,261.712 
  "/>
<path clip-path="url(#clip650)" d="M 0 0 M2136.88 245.566 L2136.88 250.127 Q2134.22 248.853 2131.86 248.228 Q2129.5 247.603 2127.3 247.603 Q2123.48 247.603 2121.39 249.085 Q2119.33 250.566 2119.33 253.298 Q2119.33 255.589 2120.7 256.77 Q2122.09 257.927 2125.93 258.645 L2128.76 259.224 Q2133.99 260.219 2136.46 262.742 Q2138.96 265.242 2138.96 269.455 Q2138.96 274.478 2135.58 277.071 Q2132.23 279.663 2125.72 279.663 Q2123.27 279.663 2120.49 279.108 Q2117.74 278.552 2114.77 277.464 L2114.77 272.65 Q2117.62 274.247 2120.35 275.057 Q2123.08 275.867 2125.72 275.867 Q2129.73 275.867 2131.9 274.293 Q2134.08 272.719 2134.08 269.802 Q2134.08 267.256 2132.51 265.821 Q2130.95 264.386 2127.39 263.668 L2124.54 263.113 Q2119.31 262.071 2116.97 259.849 Q2114.63 257.626 2114.63 253.668 Q2114.63 249.085 2117.85 246.446 Q2121.09 243.807 2126.76 243.807 Q2129.19 243.807 2131.72 244.247 Q2134.24 244.687 2136.88 245.566 Z" fill="#000000" fill-rule="evenodd" fill-opacity="1" /><polyline clip-path="url(#clip650)" style="stroke:#e26f46; stroke-width:4; stroke-opacity:1; fill:none" points="
  1953.35,322.192 2091.59,322.192 
  "/>
<path clip-path="url(#clip650)" d="M 0 0 M2114.63 304.912 L2119.31 304.912 L2119.31 339.472 L2114.63 339.472 L2114.63 304.912 Z" fill="#000000" fill-rule="evenodd" fill-opacity="1" /><polyline clip-path="url(#clip650)" style="stroke:#3da44d; stroke-width:4; stroke-opacity:1; fill:none" points="
  1953.35,382.672 2091.59,382.672 
  "/>
<path clip-path="url(#clip650)" d="M 0 0 M2131.02 383.749 Q2132.53 384.258 2133.94 385.924 Q2135.38 387.591 2136.81 390.508 L2141.56 399.952 L2136.53 399.952 L2132.11 391.086 Q2130.4 387.614 2128.78 386.48 Q2127.18 385.346 2124.4 385.346 L2119.31 385.346 L2119.31 399.952 L2114.63 399.952 L2114.63 365.392 L2125.19 365.392 Q2131.12 365.392 2134.03 367.869 Q2136.95 370.346 2136.95 375.346 Q2136.95 378.61 2135.42 380.762 Q2133.92 382.915 2131.02 383.749 M2119.31 369.235 L2119.31 381.503 L2125.19 381.503 Q2128.57 381.503 2130.28 379.952 Q2132.02 378.378 2132.02 375.346 Q2132.02 372.313 2130.28 370.786 Q2128.57 369.235 2125.19 369.235 L2119.31 369.235 Z" fill="#000000" fill-rule="evenodd" fill-opacity="1" /></svg>
