<?xml version="1.0" encoding="utf-8"?>
<svg xmlns="http://www.w3.org/2000/svg" xmlns:xlink="http://www.w3.org/1999/xlink" width="576" height="384" viewBox="0 0 2304 1536">
<defs>
  <clipPath id="clip200">
    <rect x="0" y="0" width="2304" height="1536"/>
  </clipPath>
</defs>
<path clip-path="url(#clip200)" d="
M0 1536 L2304 1536 L2304 0 L0 0  Z
  " fill="#ffffff" fill-rule="evenodd" fill-opacity="1"/>
<defs>
  <clipPath id="clip201">
    <rect x="460" y="0" width="1614" height="1536"/>
  </clipPath>
</defs>
<path clip-path="url(#clip200)" d="
M233.165 1359.82 L2256.76 1359.82 L2256.76 47.2441 L233.165 47.2441  Z
  " fill="#ffffff" fill-rule="evenodd" fill-opacity="1"/>
<defs>
  <clipPath id="clip202">
    <rect x="233" y="47" width="2025" height="1314"/>
  </clipPath>
</defs>
<polyline clip-path="url(#clip202)" style="stroke:#000000; stroke-linecap:butt; stroke-linejoin:round; stroke-width:2; stroke-opacity:0.1; fill:none" points="
  524.565,1359.82 524.565,47.2441 
  "/>
<polyline clip-path="url(#clip202)" style="stroke:#000000; stroke-linecap:butt; stroke-linejoin:round; stroke-width:2; stroke-opacity:0.1; fill:none" points="
  884.763,1359.82 884.763,47.2441 
  "/>
<polyline clip-path="url(#clip202)" style="stroke:#000000; stroke-linecap:butt; stroke-linejoin:round; stroke-width:2; stroke-opacity:0.1; fill:none" points="
  1244.96,1359.82 1244.96,47.2441 
  "/>
<polyline clip-path="url(#clip202)" style="stroke:#000000; stroke-linecap:butt; stroke-linejoin:round; stroke-width:2; stroke-opacity:0.1; fill:none" points="
  1605.16,1359.82 1605.16,47.2441 
  "/>
<polyline clip-path="url(#clip202)" style="stroke:#000000; stroke-linecap:butt; stroke-linejoin:round; stroke-width:2; stroke-opacity:0.1; fill:none" points="
  1965.36,1359.82 1965.36,47.2441 
  "/>
<polyline clip-path="url(#clip200)" style="stroke:#000000; stroke-linecap:butt; stroke-linejoin:round; stroke-width:4; stroke-opacity:1; fill:none" points="
  233.165,1359.82 2256.76,1359.82 
  "/>
<polyline clip-path="url(#clip200)" style="stroke:#000000; stroke-linecap:butt; stroke-linejoin:round; stroke-width:4; stroke-opacity:1; fill:none" points="
  524.565,1359.82 524.565,1340.92 
  "/>
<polyline clip-path="url(#clip200)" style="stroke:#000000; stroke-linecap:butt; stroke-linejoin:round; stroke-width:4; stroke-opacity:1; fill:none" points="
  884.763,1359.82 884.763,1340.92 
  "/>
<polyline clip-path="url(#clip200)" style="stroke:#000000; stroke-linecap:butt; stroke-linejoin:round; stroke-width:4; stroke-opacity:1; fill:none" points="
  1244.96,1359.82 1244.96,1340.92 
  "/>
<polyline clip-path="url(#clip200)" style="stroke:#000000; stroke-linecap:butt; stroke-linejoin:round; stroke-width:4; stroke-opacity:1; fill:none" points="
  1605.16,1359.82 1605.16,1340.92 
  "/>
<polyline clip-path="url(#clip200)" style="stroke:#000000; stroke-linecap:butt; stroke-linejoin:round; stroke-width:4; stroke-opacity:1; fill:none" points="
  1965.36,1359.82 1965.36,1340.92 
  "/>
<path clip-path="url(#clip200)" d="M503.339 1417.52 L519.658 1417.52 L519.658 1421.45 L497.714 1421.45 L497.714 1417.52 Q500.376 1414.76 504.959 1410.13 Q509.565 1405.48 510.746 1404.14 Q512.991 1401.61 513.871 1399.88 Q514.774 1398.12 514.774 1396.43 Q514.774 1393.67 512.829 1391.94 Q510.908 1390.2 507.806 1390.2 Q505.607 1390.2 503.153 1390.97 Q500.723 1391.73 497.945 1393.28 L497.945 1388.56 Q500.769 1387.42 503.223 1386.85 Q505.677 1386.27 507.714 1386.27 Q513.084 1386.27 516.278 1388.95 Q519.473 1391.64 519.473 1396.13 Q519.473 1398.26 518.663 1400.18 Q517.876 1402.08 515.769 1404.67 Q515.19 1405.34 512.089 1408.56 Q508.987 1411.75 503.339 1417.52 Z" fill="#000000" fill-rule="evenodd" fill-opacity="1" /><path clip-path="url(#clip200)" d="M539.473 1389.97 Q535.862 1389.97 534.033 1393.54 Q532.227 1397.08 532.227 1404.21 Q532.227 1411.31 534.033 1414.88 Q535.862 1418.42 539.473 1418.42 Q543.107 1418.42 544.912 1414.88 Q546.741 1411.31 546.741 1404.21 Q546.741 1397.08 544.912 1393.54 Q543.107 1389.97 539.473 1389.97 M539.473 1386.27 Q545.283 1386.27 548.338 1390.87 Q551.417 1395.46 551.417 1404.21 Q551.417 1412.93 548.338 1417.54 Q545.283 1422.12 539.473 1422.12 Q533.663 1422.12 530.584 1417.54 Q527.528 1412.93 527.528 1404.21 Q527.528 1395.46 530.584 1390.87 Q533.663 1386.27 539.473 1386.27 Z" fill="#000000" fill-rule="evenodd" fill-opacity="1" /><path clip-path="url(#clip200)" d="M872.934 1390.97 L861.129 1409.41 L872.934 1409.41 L872.934 1390.97 M871.708 1386.89 L877.587 1386.89 L877.587 1409.41 L882.518 1409.41 L882.518 1413.3 L877.587 1413.3 L877.587 1421.45 L872.934 1421.45 L872.934 1413.3 L857.333 1413.3 L857.333 1408.79 L871.708 1386.89 Z" fill="#000000" fill-rule="evenodd" fill-opacity="1" /><path clip-path="url(#clip200)" d="M900.249 1389.97 Q896.638 1389.97 894.809 1393.54 Q893.004 1397.08 893.004 1404.21 Q893.004 1411.31 894.809 1414.88 Q896.638 1418.42 900.249 1418.42 Q903.883 1418.42 905.689 1414.88 Q907.518 1411.31 907.518 1404.21 Q907.518 1397.08 905.689 1393.54 Q903.883 1389.97 900.249 1389.97 M900.249 1386.27 Q906.059 1386.27 909.115 1390.87 Q912.193 1395.46 912.193 1404.21 Q912.193 1412.93 909.115 1417.54 Q906.059 1422.12 900.249 1422.12 Q894.439 1422.12 891.36 1417.54 Q888.305 1412.93 888.305 1404.21 Q888.305 1395.46 891.36 1390.87 Q894.439 1386.27 900.249 1386.27 Z" fill="#000000" fill-rule="evenodd" fill-opacity="1" /><path clip-path="url(#clip200)" d="M1230.37 1402.31 Q1227.22 1402.31 1225.37 1404.46 Q1223.54 1406.61 1223.54 1410.36 Q1223.54 1414.09 1225.37 1416.27 Q1227.22 1418.42 1230.37 1418.42 Q1233.51 1418.42 1235.34 1416.27 Q1237.19 1414.09 1237.19 1410.36 Q1237.19 1406.61 1235.34 1404.46 Q1233.51 1402.31 1230.37 1402.31 M1239.65 1387.66 L1239.65 1391.91 Q1237.89 1391.08 1236.08 1390.64 Q1234.3 1390.2 1232.54 1390.2 Q1227.91 1390.2 1225.46 1393.33 Q1223.03 1396.45 1222.68 1402.77 Q1224.05 1400.76 1226.11 1399.69 Q1228.17 1398.6 1230.64 1398.6 Q1235.85 1398.6 1238.86 1401.78 Q1241.89 1404.92 1241.89 1410.36 Q1241.89 1415.69 1238.75 1418.91 Q1235.6 1422.12 1230.37 1422.12 Q1224.37 1422.12 1221.2 1417.54 Q1218.03 1412.93 1218.03 1404.21 Q1218.03 1396.01 1221.92 1391.15 Q1225.81 1386.27 1232.36 1386.27 Q1234.12 1386.27 1235.9 1386.61 Q1237.7 1386.96 1239.65 1387.66 Z" fill="#000000" fill-rule="evenodd" fill-opacity="1" /><path clip-path="url(#clip200)" d="M1259.95 1389.97 Q1256.34 1389.97 1254.51 1393.54 Q1252.7 1397.08 1252.7 1404.21 Q1252.7 1411.31 1254.51 1414.88 Q1256.34 1418.42 1259.95 1418.42 Q1263.58 1418.42 1265.39 1414.88 Q1267.22 1411.31 1267.22 1404.21 Q1267.22 1397.08 1265.39 1393.54 Q1263.58 1389.97 1259.95 1389.97 M1259.95 1386.27 Q1265.76 1386.27 1268.81 1390.87 Q1271.89 1395.46 1271.89 1404.21 Q1271.89 1412.93 1268.81 1417.54 Q1265.76 1422.12 1259.95 1422.12 Q1254.14 1422.12 1251.06 1417.54 Q1248 1412.93 1248 1404.21 Q1248 1395.46 1251.06 1390.87 Q1254.14 1386.27 1259.95 1386.27 Z" fill="#000000" fill-rule="evenodd" fill-opacity="1" /><path clip-path="url(#clip200)" d="M1590.03 1405.04 Q1586.7 1405.04 1584.78 1406.82 Q1582.88 1408.6 1582.88 1411.73 Q1582.88 1414.85 1584.78 1416.64 Q1586.7 1418.42 1590.03 1418.42 Q1593.36 1418.42 1595.29 1416.64 Q1597.21 1414.83 1597.21 1411.73 Q1597.21 1408.6 1595.29 1406.82 Q1593.39 1405.04 1590.03 1405.04 M1585.36 1403.05 Q1582.35 1402.31 1580.66 1400.25 Q1578.99 1398.19 1578.99 1395.23 Q1578.99 1391.08 1581.93 1388.67 Q1584.89 1386.27 1590.03 1386.27 Q1595.19 1386.27 1598.13 1388.67 Q1601.07 1391.08 1601.07 1395.23 Q1601.07 1398.19 1599.38 1400.25 Q1597.72 1402.31 1594.73 1403.05 Q1598.11 1403.84 1599.98 1406.13 Q1601.88 1408.42 1601.88 1411.73 Q1601.88 1416.75 1598.8 1419.44 Q1595.75 1422.12 1590.03 1422.12 Q1584.31 1422.12 1581.23 1419.44 Q1578.18 1416.75 1578.18 1411.73 Q1578.18 1408.42 1580.08 1406.13 Q1581.98 1403.84 1585.36 1403.05 M1583.64 1395.66 Q1583.64 1398.35 1585.31 1399.85 Q1587 1401.36 1590.03 1401.36 Q1593.04 1401.36 1594.73 1399.85 Q1596.44 1398.35 1596.44 1395.66 Q1596.44 1392.98 1594.73 1391.48 Q1593.04 1389.97 1590.03 1389.97 Q1587 1389.97 1585.31 1391.48 Q1583.64 1392.98 1583.64 1395.66 Z" fill="#000000" fill-rule="evenodd" fill-opacity="1" /><path clip-path="url(#clip200)" d="M1620.19 1389.97 Q1616.58 1389.97 1614.75 1393.54 Q1612.95 1397.08 1612.95 1404.21 Q1612.95 1411.31 1614.75 1414.88 Q1616.58 1418.42 1620.19 1418.42 Q1623.83 1418.42 1625.63 1414.88 Q1627.46 1411.31 1627.46 1404.21 Q1627.46 1397.08 1625.63 1393.54 Q1623.83 1389.97 1620.19 1389.97 M1620.19 1386.27 Q1626 1386.27 1629.06 1390.87 Q1632.14 1395.46 1632.14 1404.21 Q1632.14 1412.93 1629.06 1417.54 Q1626 1422.12 1620.19 1422.12 Q1614.38 1422.12 1611.3 1417.54 Q1608.25 1412.93 1608.25 1404.21 Q1608.25 1395.46 1611.3 1390.87 Q1614.38 1386.27 1620.19 1386.27 Z" fill="#000000" fill-rule="evenodd" fill-opacity="1" /><path clip-path="url(#clip200)" d="M1924.96 1417.52 L1932.6 1417.52 L1932.6 1391.15 L1924.29 1392.82 L1924.29 1388.56 L1932.56 1386.89 L1937.23 1386.89 L1937.23 1417.52 L1944.87 1417.52 L1944.87 1421.45 L1924.96 1421.45 L1924.96 1417.52 Z" fill="#000000" fill-rule="evenodd" fill-opacity="1" /><path clip-path="url(#clip200)" d="M1964.31 1389.97 Q1960.7 1389.97 1958.87 1393.54 Q1957.07 1397.08 1957.07 1404.21 Q1957.07 1411.31 1958.87 1414.88 Q1960.7 1418.42 1964.31 1418.42 Q1967.95 1418.42 1969.75 1414.88 Q1971.58 1411.31 1971.58 1404.21 Q1971.58 1397.08 1969.75 1393.54 Q1967.95 1389.97 1964.31 1389.97 M1964.31 1386.27 Q1970.12 1386.27 1973.18 1390.87 Q1976.26 1395.46 1976.26 1404.21 Q1976.26 1412.93 1973.18 1417.54 Q1970.12 1422.12 1964.31 1422.12 Q1958.5 1422.12 1955.43 1417.54 Q1952.37 1412.93 1952.37 1404.21 Q1952.37 1395.46 1955.43 1390.87 Q1958.5 1386.27 1964.31 1386.27 Z" fill="#000000" fill-rule="evenodd" fill-opacity="1" /><path clip-path="url(#clip200)" d="M1994.48 1389.97 Q1990.87 1389.97 1989.04 1393.54 Q1987.23 1397.08 1987.23 1404.21 Q1987.23 1411.31 1989.04 1414.88 Q1990.87 1418.42 1994.48 1418.42 Q1998.11 1418.42 1999.92 1414.88 Q2001.74 1411.31 2001.74 1404.21 Q2001.74 1397.08 1999.92 1393.54 Q1998.11 1389.97 1994.48 1389.97 M1994.48 1386.27 Q2000.29 1386.27 2003.34 1390.87 Q2006.42 1395.46 2006.42 1404.21 Q2006.42 1412.93 2003.34 1417.54 Q2000.29 1422.12 1994.48 1422.12 Q1988.67 1422.12 1985.59 1417.54 Q1982.53 1412.93 1982.53 1404.21 Q1982.53 1395.46 1985.59 1390.87 Q1988.67 1386.27 1994.48 1386.27 Z" fill="#000000" fill-rule="evenodd" fill-opacity="1" /><path clip-path="url(#clip200)" d="M937.354 1455.72 L964.663 1455.72 L964.663 1461.13 L943.783 1461.13 L943.783 1475.14 L962.626 1475.14 L962.626 1480.55 L943.783 1480.55 L943.783 1503.24 L937.354 1503.24 L937.354 1455.72 Z" fill="#000000" fill-rule="evenodd" fill-opacity="1" /><path clip-path="url(#clip200)" d="M969.851 1467.6 L975.707 1467.6 L975.707 1503.24 L969.851 1503.24 L969.851 1467.6 M969.851 1453.72 L975.707 1453.72 L975.707 1461.13 L969.851 1461.13 L969.851 1453.72 Z" fill="#000000" fill-rule="evenodd" fill-opacity="1" /><path clip-path="url(#clip200)" d="M1017.59 1481.73 L1017.59 1503.24 L1011.74 1503.24 L1011.74 1481.92 Q1011.74 1476.86 1009.76 1474.34 Q1007.79 1471.83 1003.84 1471.83 Q999.101 1471.83 996.364 1474.85 Q993.627 1477.88 993.627 1483.1 L993.627 1503.24 L987.738 1503.24 L987.738 1467.6 L993.627 1467.6 L993.627 1473.13 Q995.727 1469.92 998.56 1468.33 Q1001.42 1466.74 1005.15 1466.74 Q1011.29 1466.74 1014.44 1470.56 Q1017.59 1474.34 1017.59 1481.73 Z" fill="#000000" fill-rule="evenodd" fill-opacity="1" /><path clip-path="url(#clip200)" d="M1045.48 1485.32 Q1038.38 1485.32 1035.64 1486.95 Q1032.9 1488.57 1032.9 1492.49 Q1032.9 1495.6 1034.94 1497.45 Q1037.01 1499.27 1040.54 1499.27 Q1045.41 1499.27 1048.34 1495.83 Q1051.3 1492.36 1051.3 1486.63 L1051.3 1485.32 L1045.48 1485.32 M1057.16 1482.91 L1057.16 1503.24 L1051.3 1503.24 L1051.3 1497.83 Q1049.29 1501.08 1046.3 1502.64 Q1043.31 1504.17 1038.98 1504.17 Q1033.51 1504.17 1030.26 1501.11 Q1027.05 1498.02 1027.05 1492.87 Q1027.05 1486.85 1031.06 1483.8 Q1035.1 1480.74 1043.09 1480.74 L1051.3 1480.74 L1051.3 1480.17 Q1051.3 1476.13 1048.63 1473.93 Q1045.98 1471.7 1041.18 1471.7 Q1038.12 1471.7 1035.23 1472.43 Q1032.33 1473.17 1029.66 1474.63 L1029.66 1469.22 Q1032.87 1467.98 1035.89 1467.37 Q1038.92 1466.74 1041.78 1466.74 Q1049.52 1466.74 1053.34 1470.75 Q1057.16 1474.76 1057.16 1482.91 Z" fill="#000000" fill-rule="evenodd" fill-opacity="1" /><path clip-path="url(#clip200)" d="M1069.22 1453.72 L1075.08 1453.72 L1075.08 1503.24 L1069.22 1503.24 L1069.22 1453.72 Z" fill="#000000" fill-rule="evenodd" fill-opacity="1" /><path clip-path="url(#clip200)" d="M1108.3 1455.72 L1138.35 1455.72 L1138.35 1461.13 L1114.73 1461.13 L1114.73 1475.2 L1137.36 1475.2 L1137.36 1480.61 L1114.73 1480.61 L1114.73 1497.83 L1138.92 1497.83 L1138.92 1503.24 L1108.3 1503.24 L1108.3 1455.72 Z" fill="#000000" fill-rule="evenodd" fill-opacity="1" /><path clip-path="url(#clip200)" d="M1154.9 1497.9 L1154.9 1516.8 L1149.01 1516.8 L1149.01 1467.6 L1154.9 1467.6 L1154.9 1473.01 Q1156.75 1469.82 1159.55 1468.3 Q1162.38 1466.74 1166.3 1466.74 Q1172.79 1466.74 1176.83 1471.89 Q1180.91 1477.05 1180.91 1485.45 Q1180.91 1493.85 1176.83 1499.01 Q1172.79 1504.17 1166.3 1504.17 Q1162.38 1504.17 1159.55 1502.64 Q1156.75 1501.08 1154.9 1497.9 M1174.83 1485.45 Q1174.83 1478.99 1172.15 1475.33 Q1169.51 1471.64 1164.86 1471.64 Q1160.22 1471.64 1157.54 1475.33 Q1154.9 1478.99 1154.9 1485.45 Q1154.9 1491.91 1157.54 1495.6 Q1160.22 1499.27 1164.86 1499.27 Q1169.51 1499.27 1172.15 1495.6 Q1174.83 1491.91 1174.83 1485.45 Z" fill="#000000" fill-rule="evenodd" fill-opacity="1" /><path clip-path="url(#clip200)" d="M1190.61 1467.6 L1196.47 1467.6 L1196.47 1503.24 L1190.61 1503.24 L1190.61 1467.6 M1190.61 1453.72 L1196.47 1453.72 L1196.47 1461.13 L1190.61 1461.13 L1190.61 1453.72 Z" fill="#000000" fill-rule="evenodd" fill-opacity="1" /><path clip-path="url(#clip200)" d="M1232.18 1473.01 L1232.18 1453.72 L1238.04 1453.72 L1238.04 1503.24 L1232.18 1503.24 L1232.18 1497.9 Q1230.34 1501.08 1227.5 1502.64 Q1224.7 1504.17 1220.76 1504.17 Q1214.29 1504.17 1210.22 1499.01 Q1206.18 1493.85 1206.18 1485.45 Q1206.18 1477.05 1210.22 1471.89 Q1214.29 1466.74 1220.76 1466.74 Q1224.7 1466.74 1227.5 1468.3 Q1230.34 1469.82 1232.18 1473.01 M1212.23 1485.45 Q1212.23 1491.91 1214.87 1495.6 Q1217.54 1499.27 1222.19 1499.27 Q1226.83 1499.27 1229.51 1495.6 Q1232.18 1491.91 1232.18 1485.45 Q1232.18 1478.99 1229.51 1475.33 Q1226.83 1471.64 1222.19 1471.64 Q1217.54 1471.64 1214.87 1475.33 Q1212.23 1478.99 1212.23 1485.45 Z" fill="#000000" fill-rule="evenodd" fill-opacity="1" /><path clip-path="url(#clip200)" d="M1280.59 1483.96 L1280.59 1486.82 L1253.67 1486.82 Q1254.05 1492.87 1257.29 1496.05 Q1260.57 1499.2 1266.4 1499.2 Q1269.77 1499.2 1272.92 1498.37 Q1276.1 1497.55 1279.22 1495.89 L1279.22 1501.43 Q1276.07 1502.77 1272.76 1503.47 Q1269.45 1504.17 1266.05 1504.17 Q1257.52 1504.17 1252.52 1499.2 Q1247.55 1494.24 1247.55 1485.77 Q1247.55 1477.02 1252.27 1471.89 Q1257.01 1466.74 1265.03 1466.74 Q1272.22 1466.74 1276.39 1471.38 Q1280.59 1476 1280.59 1483.96 M1274.74 1482.24 Q1274.67 1477.43 1272.03 1474.57 Q1269.42 1471.7 1265.09 1471.7 Q1260.19 1471.7 1257.23 1474.47 Q1254.3 1477.24 1253.86 1482.27 L1274.74 1482.24 Z" fill="#000000" fill-rule="evenodd" fill-opacity="1" /><path clip-path="url(#clip200)" d="M1317.96 1474.44 Q1320.16 1470.49 1323.21 1468.61 Q1326.27 1466.74 1330.4 1466.74 Q1335.97 1466.74 1339 1470.65 Q1342.02 1474.53 1342.02 1481.73 L1342.02 1503.24 L1336.13 1503.24 L1336.13 1481.92 Q1336.13 1476.79 1334.32 1474.31 Q1332.51 1471.83 1328.78 1471.83 Q1324.23 1471.83 1321.59 1474.85 Q1318.95 1477.88 1318.95 1483.1 L1318.95 1503.24 L1313.06 1503.24 L1313.06 1481.92 Q1313.06 1476.76 1311.24 1474.31 Q1309.43 1471.83 1305.64 1471.83 Q1301.15 1471.83 1298.51 1474.88 Q1295.87 1477.91 1295.87 1483.1 L1295.87 1503.24 L1289.98 1503.24 L1289.98 1467.6 L1295.87 1467.6 L1295.87 1473.13 Q1297.88 1469.86 1300.68 1468.3 Q1303.48 1466.74 1307.33 1466.74 Q1311.21 1466.74 1313.92 1468.71 Q1316.65 1470.68 1317.96 1474.44 Z" fill="#000000" fill-rule="evenodd" fill-opacity="1" /><path clip-path="url(#clip200)" d="M1353.7 1467.6 L1359.56 1467.6 L1359.56 1503.24 L1353.7 1503.24 L1353.7 1467.6 M1353.7 1453.72 L1359.56 1453.72 L1359.56 1461.13 L1353.7 1461.13 L1353.7 1453.72 Z" fill="#000000" fill-rule="evenodd" fill-opacity="1" /><path clip-path="url(#clip200)" d="M1397.47 1468.96 L1397.47 1474.44 Q1394.98 1473.07 1392.47 1472.4 Q1389.99 1471.7 1387.44 1471.7 Q1381.74 1471.7 1378.59 1475.33 Q1375.44 1478.93 1375.44 1485.45 Q1375.44 1491.98 1378.59 1495.6 Q1381.74 1499.2 1387.44 1499.2 Q1389.99 1499.2 1392.47 1498.53 Q1394.98 1497.83 1397.47 1496.46 L1397.47 1501.88 Q1395.02 1503.02 1392.37 1503.59 Q1389.76 1504.17 1386.8 1504.17 Q1378.75 1504.17 1374.01 1499.11 Q1369.27 1494.05 1369.27 1485.45 Q1369.27 1476.73 1374.04 1471.73 Q1378.85 1466.74 1387.19 1466.74 Q1389.89 1466.74 1392.47 1467.31 Q1395.05 1467.85 1397.47 1468.96 Z" fill="#000000" fill-rule="evenodd" fill-opacity="1" /><path clip-path="url(#clip200)" d="M1457.11 1457.28 L1457.11 1463.55 Q1453.45 1461.8 1450.21 1460.94 Q1446.96 1460.08 1443.94 1460.08 Q1438.69 1460.08 1435.82 1462.12 Q1432.99 1464.16 1432.99 1467.91 Q1432.99 1471.07 1434.87 1472.69 Q1436.78 1474.28 1442.06 1475.27 L1445.94 1476.06 Q1453.14 1477.43 1456.54 1480.9 Q1459.98 1484.34 1459.98 1490.13 Q1459.98 1497.04 1455.33 1500.6 Q1450.72 1504.17 1441.77 1504.17 Q1438.4 1504.17 1434.58 1503.4 Q1430.79 1502.64 1426.72 1501.14 L1426.72 1494.52 Q1430.63 1496.72 1434.39 1497.83 Q1438.14 1498.95 1441.77 1498.95 Q1447.28 1498.95 1450.27 1496.78 Q1453.26 1494.62 1453.26 1490.61 Q1453.26 1487.11 1451.1 1485.13 Q1448.97 1483.16 1444.06 1482.17 L1440.15 1481.41 Q1432.96 1479.98 1429.74 1476.92 Q1426.53 1473.87 1426.53 1468.42 Q1426.53 1462.12 1430.95 1458.49 Q1435.41 1454.86 1443.2 1454.86 Q1446.55 1454.86 1450.02 1455.47 Q1453.49 1456.07 1457.11 1457.28 Z" fill="#000000" fill-rule="evenodd" fill-opacity="1" /><path clip-path="url(#clip200)" d="M1469.75 1467.6 L1475.61 1467.6 L1475.61 1503.24 L1469.75 1503.24 L1469.75 1467.6 M1469.75 1453.72 L1475.61 1453.72 L1475.61 1461.13 L1469.75 1461.13 L1469.75 1453.72 Z" fill="#000000" fill-rule="evenodd" fill-opacity="1" /><path clip-path="url(#clip200)" d="M1485.31 1467.6 L1513.13 1467.6 L1513.13 1472.94 L1491.11 1498.57 L1513.13 1498.57 L1513.13 1503.24 L1484.52 1503.24 L1484.52 1497.9 L1506.54 1472.27 L1485.31 1472.27 L1485.31 1467.6 Z" fill="#000000" fill-rule="evenodd" fill-opacity="1" /><path clip-path="url(#clip200)" d="M1552.57 1483.96 L1552.57 1486.82 L1525.64 1486.82 Q1526.02 1492.87 1529.27 1496.05 Q1532.55 1499.2 1538.37 1499.2 Q1541.75 1499.2 1544.9 1498.37 Q1548.08 1497.55 1551.2 1495.89 L1551.2 1501.43 Q1548.05 1502.77 1544.74 1503.47 Q1541.43 1504.17 1538.02 1504.17 Q1529.49 1504.17 1524.49 1499.2 Q1519.53 1494.24 1519.53 1485.77 Q1519.53 1477.02 1524.24 1471.89 Q1528.98 1466.74 1537 1466.74 Q1544.2 1466.74 1548.37 1471.38 Q1552.57 1476 1552.57 1483.96 M1546.71 1482.24 Q1546.65 1477.43 1544.01 1474.57 Q1541.4 1471.7 1537.07 1471.7 Q1532.17 1471.7 1529.21 1474.47 Q1526.28 1477.24 1525.83 1482.27 L1546.71 1482.24 Z" fill="#000000" fill-rule="evenodd" fill-opacity="1" /><polyline clip-path="url(#clip202)" style="stroke:#000000; stroke-linecap:butt; stroke-linejoin:round; stroke-width:2; stroke-opacity:0.1; fill:none" points="
  233.165,1322.67 2256.76,1322.67 
  "/>
<polyline clip-path="url(#clip202)" style="stroke:#000000; stroke-linecap:butt; stroke-linejoin:round; stroke-width:2; stroke-opacity:0.1; fill:none" points="
  233.165,1076.98 2256.76,1076.98 
  "/>
<polyline clip-path="url(#clip202)" style="stroke:#000000; stroke-linecap:butt; stroke-linejoin:round; stroke-width:2; stroke-opacity:0.1; fill:none" points="
  233.165,831.291 2256.76,831.291 
  "/>
<polyline clip-path="url(#clip202)" style="stroke:#000000; stroke-linecap:butt; stroke-linejoin:round; stroke-width:2; stroke-opacity:0.1; fill:none" points="
  233.165,585.601 2256.76,585.601 
  "/>
<polyline clip-path="url(#clip202)" style="stroke:#000000; stroke-linecap:butt; stroke-linejoin:round; stroke-width:2; stroke-opacity:0.1; fill:none" points="
  233.165,339.91 2256.76,339.91 
  "/>
<polyline clip-path="url(#clip202)" style="stroke:#000000; stroke-linecap:butt; stroke-linejoin:round; stroke-width:2; stroke-opacity:0.1; fill:none" points="
  233.165,94.2201 2256.76,94.2201 
  "/>
<polyline clip-path="url(#clip200)" style="stroke:#000000; stroke-linecap:butt; stroke-linejoin:round; stroke-width:4; stroke-opacity:1; fill:none" points="
  233.165,1359.82 233.165,47.2441 
  "/>
<polyline clip-path="url(#clip200)" style="stroke:#000000; stroke-linecap:butt; stroke-linejoin:round; stroke-width:4; stroke-opacity:1; fill:none" points="
  233.165,1322.67 252.063,1322.67 
  "/>
<polyline clip-path="url(#clip200)" style="stroke:#000000; stroke-linecap:butt; stroke-linejoin:round; stroke-width:4; stroke-opacity:1; fill:none" points="
  233.165,1076.98 252.063,1076.98 
  "/>
<polyline clip-path="url(#clip200)" style="stroke:#000000; stroke-linecap:butt; stroke-linejoin:round; stroke-width:4; stroke-opacity:1; fill:none" points="
  233.165,831.291 252.063,831.291 
  "/>
<polyline clip-path="url(#clip200)" style="stroke:#000000; stroke-linecap:butt; stroke-linejoin:round; stroke-width:4; stroke-opacity:1; fill:none" points="
  233.165,585.601 252.063,585.601 
  "/>
<polyline clip-path="url(#clip200)" style="stroke:#000000; stroke-linecap:butt; stroke-linejoin:round; stroke-width:4; stroke-opacity:1; fill:none" points="
  233.165,339.91 252.063,339.91 
  "/>
<polyline clip-path="url(#clip200)" style="stroke:#000000; stroke-linecap:butt; stroke-linejoin:round; stroke-width:4; stroke-opacity:1; fill:none" points="
  233.165,94.2201 252.063,94.2201 
  "/>
<path clip-path="url(#clip200)" d="M186.661 1308.47 Q183.05 1308.47 181.221 1312.03 Q179.416 1315.58 179.416 1322.71 Q179.416 1329.81 181.221 1333.38 Q183.05 1336.92 186.661 1336.92 Q190.295 1336.92 192.101 1333.38 Q193.93 1329.81 193.93 1322.71 Q193.93 1315.58 192.101 1312.03 Q190.295 1308.47 186.661 1308.47 M186.661 1304.77 Q192.471 1304.77 195.527 1309.37 Q198.605 1313.96 198.605 1322.71 Q198.605 1331.43 195.527 1336.04 Q192.471 1340.62 186.661 1340.62 Q180.851 1340.62 177.772 1336.04 Q174.717 1331.43 174.717 1322.71 Q174.717 1313.96 177.772 1309.37 Q180.851 1304.77 186.661 1304.77 Z" fill="#000000" fill-rule="evenodd" fill-opacity="1" /><path clip-path="url(#clip200)" d="M146.546 1059.7 L164.902 1059.7 L164.902 1063.64 L150.828 1063.64 L150.828 1072.11 Q151.846 1071.76 152.865 1071.6 Q153.883 1071.41 154.902 1071.41 Q160.689 1071.41 164.069 1074.59 Q167.448 1077.76 167.448 1083.17 Q167.448 1088.75 163.976 1091.85 Q160.504 1094.93 154.184 1094.93 Q152.008 1094.93 149.74 1094.56 Q147.495 1094.19 145.087 1093.45 L145.087 1088.75 Q147.171 1089.89 149.393 1090.44 Q151.615 1091 154.092 1091 Q158.096 1091 160.434 1088.89 Q162.772 1086.78 162.772 1083.17 Q162.772 1079.56 160.434 1077.46 Q158.096 1075.35 154.092 1075.35 Q152.217 1075.35 150.342 1075.77 Q148.49 1076.18 146.546 1077.06 L146.546 1059.7 Z" fill="#000000" fill-rule="evenodd" fill-opacity="1" /><path clip-path="url(#clip200)" d="M186.661 1062.78 Q183.05 1062.78 181.221 1066.34 Q179.416 1069.89 179.416 1077.02 Q179.416 1084.12 181.221 1087.69 Q183.05 1091.23 186.661 1091.23 Q190.295 1091.23 192.101 1087.69 Q193.93 1084.12 193.93 1077.02 Q193.93 1069.89 192.101 1066.34 Q190.295 1062.78 186.661 1062.78 M186.661 1059.08 Q192.471 1059.08 195.527 1063.68 Q198.605 1068.27 198.605 1077.02 Q198.605 1085.74 195.527 1090.35 Q192.471 1094.93 186.661 1094.93 Q180.851 1094.93 177.772 1090.35 Q174.717 1085.74 174.717 1077.02 Q174.717 1068.27 177.772 1063.68 Q180.851 1059.08 186.661 1059.08 Z" fill="#000000" fill-rule="evenodd" fill-opacity="1" /><path clip-path="url(#clip200)" d="M117.148 844.636 L124.786 844.636 L124.786 818.27 L116.476 819.937 L116.476 815.678 L124.74 814.011 L129.416 814.011 L129.416 844.636 L137.055 844.636 L137.055 848.571 L117.148 848.571 L117.148 844.636 Z" fill="#000000" fill-rule="evenodd" fill-opacity="1" /><path clip-path="url(#clip200)" d="M156.499 817.09 Q152.888 817.09 151.059 820.654 Q149.254 824.196 149.254 831.326 Q149.254 838.432 151.059 841.997 Q152.888 845.539 156.499 845.539 Q160.133 845.539 161.939 841.997 Q163.768 838.432 163.768 831.326 Q163.768 824.196 161.939 820.654 Q160.133 817.09 156.499 817.09 M156.499 813.386 Q162.309 813.386 165.365 817.992 Q168.444 822.576 168.444 831.326 Q168.444 840.052 165.365 844.659 Q162.309 849.242 156.499 849.242 Q150.689 849.242 147.61 844.659 Q144.555 840.052 144.555 831.326 Q144.555 822.576 147.61 817.992 Q150.689 813.386 156.499 813.386 Z" fill="#000000" fill-rule="evenodd" fill-opacity="1" /><path clip-path="url(#clip200)" d="M186.661 817.09 Q183.05 817.09 181.221 820.654 Q179.416 824.196 179.416 831.326 Q179.416 838.432 181.221 841.997 Q183.05 845.539 186.661 845.539 Q190.295 845.539 192.101 841.997 Q193.93 838.432 193.93 831.326 Q193.93 824.196 192.101 820.654 Q190.295 817.09 186.661 817.09 M186.661 813.386 Q192.471 813.386 195.527 817.992 Q198.605 822.576 198.605 831.326 Q198.605 840.052 195.527 844.659 Q192.471 849.242 186.661 849.242 Q180.851 849.242 177.772 844.659 Q174.717 840.052 174.717 831.326 Q174.717 822.576 177.772 817.992 Q180.851 813.386 186.661 813.386 Z" fill="#000000" fill-rule="evenodd" fill-opacity="1" /><path clip-path="url(#clip200)" d="M117.148 598.945 L124.786 598.945 L124.786 572.58 L116.476 574.247 L116.476 569.987 L124.74 568.321 L129.416 568.321 L129.416 598.945 L137.055 598.945 L137.055 602.881 L117.148 602.881 L117.148 598.945 Z" fill="#000000" fill-rule="evenodd" fill-opacity="1" /><path clip-path="url(#clip200)" d="M146.546 568.321 L164.902 568.321 L164.902 572.256 L150.828 572.256 L150.828 580.728 Q151.846 580.381 152.865 580.219 Q153.883 580.034 154.902 580.034 Q160.689 580.034 164.069 583.205 Q167.448 586.376 167.448 591.793 Q167.448 597.371 163.976 600.473 Q160.504 603.552 154.184 603.552 Q152.008 603.552 149.74 603.182 Q147.495 602.811 145.087 602.07 L145.087 597.371 Q147.171 598.506 149.393 599.061 Q151.615 599.617 154.092 599.617 Q158.096 599.617 160.434 597.51 Q162.772 595.404 162.772 591.793 Q162.772 588.182 160.434 586.075 Q158.096 583.969 154.092 583.969 Q152.217 583.969 150.342 584.385 Q148.49 584.802 146.546 585.682 L146.546 568.321 Z" fill="#000000" fill-rule="evenodd" fill-opacity="1" /><path clip-path="url(#clip200)" d="M186.661 571.399 Q183.05 571.399 181.221 574.964 Q179.416 578.506 179.416 585.635 Q179.416 592.742 181.221 596.307 Q183.05 599.848 186.661 599.848 Q190.295 599.848 192.101 596.307 Q193.93 592.742 193.93 585.635 Q193.93 578.506 192.101 574.964 Q190.295 571.399 186.661 571.399 M186.661 567.696 Q192.471 567.696 195.527 572.302 Q198.605 576.885 198.605 585.635 Q198.605 594.362 195.527 598.969 Q192.471 603.552 186.661 603.552 Q180.851 603.552 177.772 598.969 Q174.717 594.362 174.717 585.635 Q174.717 576.885 177.772 572.302 Q180.851 567.696 186.661 567.696 Z" fill="#000000" fill-rule="evenodd" fill-opacity="1" /><path clip-path="url(#clip200)" d="M120.365 353.255 L136.684 353.255 L136.684 357.19 L114.74 357.19 L114.74 353.255 Q117.402 350.501 121.985 345.871 Q126.592 341.218 127.772 339.876 Q130.018 337.352 130.897 335.616 Q131.8 333.857 131.8 332.167 Q131.8 329.413 129.856 327.677 Q127.935 325.941 124.833 325.941 Q122.634 325.941 120.18 326.704 Q117.749 327.468 114.972 329.019 L114.972 324.297 Q117.796 323.163 120.249 322.584 Q122.703 322.005 124.74 322.005 Q130.11 322.005 133.305 324.691 Q136.499 327.376 136.499 331.866 Q136.499 333.996 135.689 335.917 Q134.902 337.815 132.796 340.408 Q132.217 341.079 129.115 344.297 Q126.013 347.491 120.365 353.255 Z" fill="#000000" fill-rule="evenodd" fill-opacity="1" /><path clip-path="url(#clip200)" d="M156.499 325.709 Q152.888 325.709 151.059 329.274 Q149.254 332.815 149.254 339.945 Q149.254 347.052 151.059 350.616 Q152.888 354.158 156.499 354.158 Q160.133 354.158 161.939 350.616 Q163.768 347.052 163.768 339.945 Q163.768 332.815 161.939 329.274 Q160.133 325.709 156.499 325.709 M156.499 322.005 Q162.309 322.005 165.365 326.612 Q168.444 331.195 168.444 339.945 Q168.444 348.672 165.365 353.278 Q162.309 357.862 156.499 357.862 Q150.689 357.862 147.61 353.278 Q144.555 348.672 144.555 339.945 Q144.555 331.195 147.61 326.612 Q150.689 322.005 156.499 322.005 Z" fill="#000000" fill-rule="evenodd" fill-opacity="1" /><path clip-path="url(#clip200)" d="M186.661 325.709 Q183.05 325.709 181.221 329.274 Q179.416 332.815 179.416 339.945 Q179.416 347.052 181.221 350.616 Q183.05 354.158 186.661 354.158 Q190.295 354.158 192.101 350.616 Q193.93 347.052 193.93 339.945 Q193.93 332.815 192.101 329.274 Q190.295 325.709 186.661 325.709 M186.661 322.005 Q192.471 322.005 195.527 326.612 Q198.605 331.195 198.605 339.945 Q198.605 348.672 195.527 353.278 Q192.471 357.862 186.661 357.862 Q180.851 357.862 177.772 353.278 Q174.717 348.672 174.717 339.945 Q174.717 331.195 177.772 326.612 Q180.851 322.005 186.661 322.005 Z" fill="#000000" fill-rule="evenodd" fill-opacity="1" /><path clip-path="url(#clip200)" d="M120.365 107.565 L136.684 107.565 L136.684 111.5 L114.74 111.5 L114.74 107.565 Q117.402 104.81 121.985 100.181 Q126.592 95.5279 127.772 94.1854 Q130.018 91.6622 130.897 89.9261 Q131.8 88.1669 131.8 86.4771 Q131.8 83.7224 129.856 81.9863 Q127.935 80.2502 124.833 80.2502 Q122.634 80.2502 120.18 81.0141 Q117.749 81.778 114.972 83.3289 L114.972 78.6067 Q117.796 77.4725 120.249 76.8938 Q122.703 76.3151 124.74 76.3151 Q130.11 76.3151 133.305 79.0003 Q136.499 81.6854 136.499 86.1761 Q136.499 88.3058 135.689 90.227 Q134.902 92.1252 132.796 94.7178 Q132.217 95.3891 129.115 98.6066 Q126.013 101.801 120.365 107.565 Z" fill="#000000" fill-rule="evenodd" fill-opacity="1" /><path clip-path="url(#clip200)" d="M146.546 76.9401 L164.902 76.9401 L164.902 80.8752 L150.828 80.8752 L150.828 89.3474 Q151.846 89.0002 152.865 88.8382 Q153.883 88.653 154.902 88.653 Q160.689 88.653 164.069 91.8243 Q167.448 94.9955 167.448 100.412 Q167.448 105.991 163.976 109.093 Q160.504 112.171 154.184 112.171 Q152.008 112.171 149.74 111.801 Q147.495 111.431 145.087 110.69 L145.087 105.991 Q147.171 107.125 149.393 107.681 Q151.615 108.236 154.092 108.236 Q158.096 108.236 160.434 106.13 Q162.772 104.023 162.772 100.412 Q162.772 96.8011 160.434 94.6946 Q158.096 92.5881 154.092 92.5881 Q152.217 92.5881 150.342 93.0048 Q148.49 93.4215 146.546 94.3011 L146.546 76.9401 Z" fill="#000000" fill-rule="evenodd" fill-opacity="1" /><path clip-path="url(#clip200)" d="M186.661 80.0188 Q183.05 80.0188 181.221 83.5836 Q179.416 87.1252 179.416 94.2548 Q179.416 101.361 181.221 104.926 Q183.05 108.468 186.661 108.468 Q190.295 108.468 192.101 104.926 Q193.93 101.361 193.93 94.2548 Q193.93 87.1252 192.101 83.5836 Q190.295 80.0188 186.661 80.0188 M186.661 76.3151 Q192.471 76.3151 195.527 80.9215 Q198.605 85.5048 198.605 94.2548 Q198.605 102.982 195.527 107.588 Q192.471 112.171 186.661 112.171 Q180.851 112.171 177.772 107.588 Q174.717 102.982 174.717 94.2548 Q174.717 85.5048 177.772 80.9215 Q180.851 76.3151 186.661 76.3151 Z" fill="#000000" fill-rule="evenodd" fill-opacity="1" /><path clip-path="url(#clip200)" d="M18.4042 867.735 L18.4042 840.426 L23.815 840.426 L23.815 861.306 L37.8196 861.306 L37.8196 842.464 L43.2304 842.464 L43.2304 861.306 L65.9242 861.306 L65.9242 867.735 L18.4042 867.735 Z" fill="#000000" fill-rule="evenodd" fill-opacity="1" /><path clip-path="url(#clip200)" d="M35.7507 814.582 Q35.1778 815.568 34.9232 816.746 Q34.6367 817.892 34.6367 819.292 Q34.6367 824.258 37.8832 826.931 Q41.0979 829.573 47.1453 829.573 L65.9242 829.573 L65.9242 835.461 L30.2762 835.461 L30.2762 829.573 L35.8144 829.573 Q32.5679 827.727 31.0083 824.767 Q29.4168 821.807 29.4168 817.574 Q29.4168 816.969 29.5123 816.237 Q29.576 815.505 29.7351 814.614 L35.7507 814.582 Z" fill="#000000" fill-rule="evenodd" fill-opacity="1" /><path clip-path="url(#clip200)" d="M46.6361 779.379 L49.5006 779.379 L49.5006 806.306 Q55.5481 805.924 58.7309 802.678 Q61.8819 799.4 61.8819 793.575 Q61.8819 790.201 61.0544 787.05 Q60.2269 783.867 58.5718 780.748 L64.1099 780.748 Q65.4467 783.899 66.147 787.209 Q66.8472 790.519 66.8472 793.925 Q66.8472 802.455 61.8819 807.452 Q56.9167 812.417 48.4503 812.417 Q39.6974 812.417 34.5731 807.707 Q29.4168 802.964 29.4168 794.944 Q29.4168 787.75 34.0638 783.581 Q38.6789 779.379 46.6361 779.379 M44.9173 785.236 Q40.1112 785.299 37.2466 787.941 Q34.3821 790.551 34.3821 794.88 Q34.3821 799.781 37.1512 802.742 Q39.9202 805.67 44.9492 806.115 L44.9173 785.236 Z" fill="#000000" fill-rule="evenodd" fill-opacity="1" /><path clip-path="url(#clip200)" d="M48.132 766.266 Q54.5932 766.266 58.2853 763.624 Q61.9456 760.951 61.9456 756.304 Q61.9456 751.657 58.2853 748.983 Q54.5932 746.31 48.132 746.31 Q41.6708 746.31 38.0105 748.983 Q34.3184 751.657 34.3184 756.304 Q34.3184 760.951 38.0105 763.624 Q41.6708 766.266 48.132 766.266 M60.577 746.31 Q63.7598 748.156 65.3194 750.988 Q66.8472 753.789 66.8472 757.736 Q66.8472 764.197 61.691 768.271 Q56.5347 772.313 48.132 772.313 Q39.7293 772.313 34.5731 768.271 Q29.4168 764.197 29.4168 757.736 Q29.4168 753.789 30.9764 750.988 Q32.5042 748.156 35.6871 746.31 L30.2762 746.31 L30.2762 740.453 L79.4831 740.453 L79.4831 746.31 L60.577 746.31 Z" fill="#000000" fill-rule="evenodd" fill-opacity="1" /><path clip-path="url(#clip200)" d="M51.8559 728.995 L30.2762 728.995 L30.2762 723.138 L51.6331 723.138 Q56.6939 723.138 59.2402 721.165 Q61.7546 719.192 61.7546 715.245 Q61.7546 710.502 58.7309 707.765 Q55.7072 704.996 50.4873 704.996 L30.2762 704.996 L30.2762 699.14 L65.9242 699.14 L65.9242 704.996 L60.4496 704.996 Q63.6962 707.129 65.2876 709.961 Q66.8472 712.762 66.8472 716.486 Q66.8472 722.629 63.0278 725.812 Q59.2083 728.995 51.8559 728.995 M29.4168 714.258 L29.4168 714.258 Z" fill="#000000" fill-rule="evenodd" fill-opacity="1" /><path clip-path="url(#clip200)" d="M46.6361 656.585 L49.5006 656.585 L49.5006 683.512 Q55.5481 683.13 58.7309 679.883 Q61.8819 676.605 61.8819 670.78 Q61.8819 667.407 61.0544 664.256 Q60.2269 661.073 58.5718 657.954 L64.1099 657.954 Q65.4467 661.105 66.147 664.415 Q66.8472 667.725 66.8472 671.131 Q66.8472 679.661 61.8819 684.658 Q56.9167 689.623 48.4503 689.623 Q39.6974 689.623 34.5731 684.912 Q29.4168 680.17 29.4168 672.149 Q29.4168 664.956 34.0638 660.786 Q38.6789 656.585 46.6361 656.585 M44.9173 662.441 Q40.1112 662.505 37.2466 665.147 Q34.3821 667.757 34.3821 672.085 Q34.3821 676.987 37.1512 679.947 Q39.9202 682.875 44.9492 683.321 L44.9173 662.441 Z" fill="#000000" fill-rule="evenodd" fill-opacity="1" /><path clip-path="url(#clip200)" d="M44.4081 617.34 L65.9242 617.34 L65.9242 623.197 L44.599 623.197 Q39.5383 623.197 37.0238 625.17 Q34.5094 627.143 34.5094 631.09 Q34.5094 635.833 37.5331 638.57 Q40.5568 641.307 45.7767 641.307 L65.9242 641.307 L65.9242 647.195 L30.2762 647.195 L30.2762 641.307 L35.8144 641.307 Q32.5997 639.207 31.0083 636.374 Q29.4168 633.509 29.4168 629.785 Q29.4168 623.642 33.2363 620.491 Q37.0238 617.34 44.4081 617.34 Z" fill="#000000" fill-rule="evenodd" fill-opacity="1" /><path clip-path="url(#clip200)" d="M31.6448 580.005 L37.1193 580.005 Q35.7507 582.488 35.0823 585.003 Q34.3821 587.485 34.3821 590.031 Q34.3821 595.729 38.0105 598.88 Q41.6072 602.031 48.132 602.031 Q54.6569 602.031 58.2853 598.88 Q61.8819 595.729 61.8819 590.031 Q61.8819 587.485 61.2135 585.003 Q60.5133 582.488 59.1447 580.005 L64.5555 580.005 Q65.7014 582.456 66.2743 585.098 Q66.8472 587.708 66.8472 590.668 Q66.8472 598.721 61.7864 603.463 Q56.7257 608.206 48.132 608.206 Q39.411 608.206 34.4139 603.431 Q29.4168 598.625 29.4168 590.286 Q29.4168 587.581 29.9897 585.003 Q30.5308 582.424 31.6448 580.005 Z" fill="#000000" fill-rule="evenodd" fill-opacity="1" /><path clip-path="url(#clip200)" d="M69.2343 554.988 Q75.6 557.471 77.5416 559.826 Q79.4831 562.181 79.4831 566.128 L79.4831 570.807 L74.5815 570.807 L74.5815 567.37 Q74.5815 564.951 73.4357 563.614 Q72.2899 562.277 68.0248 560.654 L65.3512 559.603 L30.2762 574.022 L30.2762 567.815 L58.158 556.675 L30.2762 545.535 L30.2762 539.329 L69.2343 554.988 Z" fill="#000000" fill-rule="evenodd" fill-opacity="1" /><path clip-path="url(#clip202)" d="
M344.467 1317.76 L344.467 1322.67 L434.516 1322.67 L434.516 1317.76 L344.467 1317.76 L344.467 1317.76  Z
  " fill="#009af9" fill-rule="evenodd" fill-opacity="1"/>
<polyline clip-path="url(#clip202)" style="stroke:#000000; stroke-linecap:butt; stroke-linejoin:round; stroke-width:4; stroke-opacity:1; fill:none" points="
  344.467,1317.76 344.467,1322.67 434.516,1322.67 434.516,1317.76 344.467,1317.76 
  "/>
<path clip-path="url(#clip202)" d="
M434.516 1322.67 L434.516 1322.67 L524.565 1322.67 L524.565 1322.67 L434.516 1322.67 L434.516 1322.67  Z
  " fill="#009af9" fill-rule="evenodd" fill-opacity="1"/>
<polyline clip-path="url(#clip202)" style="stroke:#000000; stroke-linecap:butt; stroke-linejoin:round; stroke-width:4; stroke-opacity:1; fill:none" points="
  434.516,1322.67 434.516,1322.67 524.565,1322.67 434.516,1322.67 
  "/>
<path clip-path="url(#clip202)" d="
M524.565 1317.76 L524.565 1322.67 L614.615 1322.67 L614.615 1317.76 L524.565 1317.76 L524.565 1317.76  Z
  " fill="#009af9" fill-rule="evenodd" fill-opacity="1"/>
<polyline clip-path="url(#clip202)" style="stroke:#000000; stroke-linecap:butt; stroke-linejoin:round; stroke-width:4; stroke-opacity:1; fill:none" points="
  524.565,1317.76 524.565,1322.67 614.615,1322.67 614.615,1317.76 524.565,1317.76 
  "/>
<path clip-path="url(#clip202)" d="
M614.615 1312.84 L614.615 1322.67 L704.664 1322.67 L704.664 1312.84 L614.615 1312.84 L614.615 1312.84  Z
  " fill="#009af9" fill-rule="evenodd" fill-opacity="1"/>
<polyline clip-path="url(#clip202)" style="stroke:#000000; stroke-linecap:butt; stroke-linejoin:round; stroke-width:4; stroke-opacity:1; fill:none" points="
  614.615,1312.84 614.615,1322.67 704.664,1322.67 704.664,1312.84 614.615,1312.84 
  "/>
<path clip-path="url(#clip202)" d="
M704.664 1317.76 L704.664 1322.67 L794.714 1322.67 L794.714 1317.76 L704.664 1317.76 L704.664 1317.76  Z
  " fill="#009af9" fill-rule="evenodd" fill-opacity="1"/>
<polyline clip-path="url(#clip202)" style="stroke:#000000; stroke-linecap:butt; stroke-linejoin:round; stroke-width:4; stroke-opacity:1; fill:none" points="
  704.664,1317.76 704.664,1322.67 794.714,1322.67 794.714,1317.76 704.664,1317.76 
  "/>
<path clip-path="url(#clip202)" d="
M794.714 1303.02 L794.714 1322.67 L884.763 1322.67 L884.763 1303.02 L794.714 1303.02 L794.714 1303.02  Z
  " fill="#009af9" fill-rule="evenodd" fill-opacity="1"/>
<polyline clip-path="url(#clip202)" style="stroke:#000000; stroke-linecap:butt; stroke-linejoin:round; stroke-width:4; stroke-opacity:1; fill:none" points="
  794.714,1303.02 794.714,1322.67 884.763,1322.67 884.763,1303.02 794.714,1303.02 
  "/>
<path clip-path="url(#clip202)" d="
M884.763 1322.67 L884.763 1322.67 L974.812 1322.67 L974.812 1322.67 L884.763 1322.67 L884.763 1322.67  Z
  " fill="#009af9" fill-rule="evenodd" fill-opacity="1"/>
<polyline clip-path="url(#clip202)" style="stroke:#000000; stroke-linecap:butt; stroke-linejoin:round; stroke-width:4; stroke-opacity:1; fill:none" points="
  884.763,1322.67 884.763,1322.67 974.812,1322.67 884.763,1322.67 
  "/>
<path clip-path="url(#clip202)" d="
M974.812 1303.02 L974.812 1322.67 L1064.86 1322.67 L1064.86 1303.02 L974.812 1303.02 L974.812 1303.02  Z
  " fill="#009af9" fill-rule="evenodd" fill-opacity="1"/>
<polyline clip-path="url(#clip202)" style="stroke:#000000; stroke-linecap:butt; stroke-linejoin:round; stroke-width:4; stroke-opacity:1; fill:none" points="
  974.812,1303.02 974.812,1322.67 1064.86,1322.67 1064.86,1303.02 974.812,1303.02 
  "/>
<path clip-path="url(#clip202)" d="
M1064.86 1312.84 L1064.86 1322.67 L1154.91 1322.67 L1154.91 1312.84 L1064.86 1312.84 L1064.86 1312.84  Z
  " fill="#009af9" fill-rule="evenodd" fill-opacity="1"/>
<polyline clip-path="url(#clip202)" style="stroke:#000000; stroke-linecap:butt; stroke-linejoin:round; stroke-width:4; stroke-opacity:1; fill:none" points="
  1064.86,1312.84 1064.86,1322.67 1154.91,1322.67 1154.91,1312.84 1064.86,1312.84 
  "/>
<path clip-path="url(#clip202)" d="
M1154.91 1298.1 L1154.91 1322.67 L1244.96 1322.67 L1244.96 1298.1 L1154.91 1298.1 L1154.91 1298.1  Z
  " fill="#009af9" fill-rule="evenodd" fill-opacity="1"/>
<polyline clip-path="url(#clip202)" style="stroke:#000000; stroke-linecap:butt; stroke-linejoin:round; stroke-width:4; stroke-opacity:1; fill:none" points="
  1154.91,1298.1 1154.91,1322.67 1244.96,1322.67 1244.96,1298.1 1154.91,1298.1 
  "/>
<path clip-path="url(#clip202)" d="
M1244.96 1293.19 L1244.96 1322.67 L1335.01 1322.67 L1335.01 1293.19 L1244.96 1293.19 L1244.96 1293.19  Z
  " fill="#009af9" fill-rule="evenodd" fill-opacity="1"/>
<polyline clip-path="url(#clip202)" style="stroke:#000000; stroke-linecap:butt; stroke-linejoin:round; stroke-width:4; stroke-opacity:1; fill:none" points="
  1244.96,1293.19 1244.96,1322.67 1335.01,1322.67 1335.01,1293.19 1244.96,1293.19 
  "/>
<path clip-path="url(#clip202)" d="
M1335.01 1288.27 L1335.01 1322.67 L1425.06 1322.67 L1425.06 1288.27 L1335.01 1288.27 L1335.01 1288.27  Z
  " fill="#009af9" fill-rule="evenodd" fill-opacity="1"/>
<polyline clip-path="url(#clip202)" style="stroke:#000000; stroke-linecap:butt; stroke-linejoin:round; stroke-width:4; stroke-opacity:1; fill:none" points="
  1335.01,1288.27 1335.01,1322.67 1425.06,1322.67 1425.06,1288.27 1335.01,1288.27 
  "/>
<path clip-path="url(#clip202)" d="
M1425.06 1106.46 L1425.06 1322.67 L1515.11 1322.67 L1515.11 1106.46 L1425.06 1106.46 L1425.06 1106.46  Z
  " fill="#009af9" fill-rule="evenodd" fill-opacity="1"/>
<polyline clip-path="url(#clip202)" style="stroke:#000000; stroke-linecap:butt; stroke-linejoin:round; stroke-width:4; stroke-opacity:1; fill:none" points="
  1425.06,1106.46 1425.06,1322.67 1515.11,1322.67 1515.11,1106.46 1425.06,1106.46 
  "/>
<path clip-path="url(#clip202)" d="
M1515.11 988.533 L1515.11 1322.67 L1605.16 1322.67 L1605.16 988.533 L1515.11 988.533 L1515.11 988.533  Z
  " fill="#009af9" fill-rule="evenodd" fill-opacity="1"/>
<polyline clip-path="url(#clip202)" style="stroke:#000000; stroke-linecap:butt; stroke-linejoin:round; stroke-width:4; stroke-opacity:1; fill:none" points="
  1515.11,988.533 1515.11,1322.67 1605.16,1322.67 1605.16,988.533 1515.11,988.533 
  "/>
<path clip-path="url(#clip202)" d="
M1605.16 728.101 L1605.16 1322.67 L1695.21 1322.67 L1695.21 728.101 L1605.16 728.101 L1605.16 728.101  Z
  " fill="#009af9" fill-rule="evenodd" fill-opacity="1"/>
<polyline clip-path="url(#clip202)" style="stroke:#000000; stroke-linecap:butt; stroke-linejoin:round; stroke-width:4; stroke-opacity:1; fill:none" points="
  1605.16,728.101 1605.16,1322.67 1695.21,1322.67 1695.21,728.101 1605.16,728.101 
  "/>
<path clip-path="url(#clip202)" d="
M1695.21 276.031 L1695.21 1322.67 L1785.26 1322.67 L1785.26 276.031 L1695.21 276.031 L1695.21 276.031  Z
  " fill="#009af9" fill-rule="evenodd" fill-opacity="1"/>
<polyline clip-path="url(#clip202)" style="stroke:#000000; stroke-linecap:butt; stroke-linejoin:round; stroke-width:4; stroke-opacity:1; fill:none" points="
  1695.21,276.031 1695.21,1322.67 1785.26,1322.67 1785.26,276.031 1695.21,276.031 
  "/>
<path clip-path="url(#clip202)" d="
M1785.26 84.3925 L1785.26 1322.67 L1875.31 1322.67 L1875.31 84.3925 L1785.26 84.3925 L1785.26 84.3925  Z
  " fill="#009af9" fill-rule="evenodd" fill-opacity="1"/>
<polyline clip-path="url(#clip202)" style="stroke:#000000; stroke-linecap:butt; stroke-linejoin:round; stroke-width:4; stroke-opacity:1; fill:none" points="
  1785.26,84.3925 1785.26,1322.67 1875.31,1322.67 1875.31,84.3925 1785.26,84.3925 
  "/>
<path clip-path="url(#clip202)" d="
M1875.31 452.928 L1875.31 1322.67 L1965.36 1322.67 L1965.36 452.928 L1875.31 452.928 L1875.31 452.928  Z
  " fill="#009af9" fill-rule="evenodd" fill-opacity="1"/>
<polyline clip-path="url(#clip202)" style="stroke:#000000; stroke-linecap:butt; stroke-linejoin:round; stroke-width:4; stroke-opacity:1; fill:none" points="
  1875.31,452.928 1875.31,1322.67 1965.36,1322.67 1965.36,452.928 1875.31,452.928 
  "/>
<path clip-path="url(#clip202)" d="
M1965.36 909.912 L1965.36 1322.67 L2055.41 1322.67 L2055.41 909.912 L1965.36 909.912 L1965.36 909.912  Z
  " fill="#009af9" fill-rule="evenodd" fill-opacity="1"/>
<polyline clip-path="url(#clip202)" style="stroke:#000000; stroke-linecap:butt; stroke-linejoin:round; stroke-width:4; stroke-opacity:1; fill:none" points="
  1965.36,909.912 1965.36,1322.67 2055.41,1322.67 2055.41,909.912 1965.36,909.912 
  "/>
<path clip-path="url(#clip202)" d="
M2055.41 1283.36 L2055.41 1322.67 L2145.45 1322.67 L2145.45 1283.36 L2055.41 1283.36 L2055.41 1283.36  Z
  " fill="#009af9" fill-rule="evenodd" fill-opacity="1"/>
<polyline clip-path="url(#clip202)" style="stroke:#000000; stroke-linecap:butt; stroke-linejoin:round; stroke-width:4; stroke-opacity:1; fill:none" points="
  2055.41,1283.36 2055.41,1322.67 2145.45,1322.67 2145.45,1283.36 2055.41,1283.36 
  "/>
<circle clip-path="url(#clip202)" style="fill:#009af9; stroke:none; fill-opacity:0" cx="389.491" cy="1317.76" r="2"/>
<circle clip-path="url(#clip202)" style="fill:#009af9; stroke:none; fill-opacity:0" cx="479.541" cy="1322.67" r="2"/>
<circle clip-path="url(#clip202)" style="fill:#009af9; stroke:none; fill-opacity:0" cx="569.59" cy="1317.76" r="2"/>
<circle clip-path="url(#clip202)" style="fill:#009af9; stroke:none; fill-opacity:0" cx="659.639" cy="1312.84" r="2"/>
<circle clip-path="url(#clip202)" style="fill:#009af9; stroke:none; fill-opacity:0" cx="749.689" cy="1317.76" r="2"/>
<circle clip-path="url(#clip202)" style="fill:#009af9; stroke:none; fill-opacity:0" cx="839.738" cy="1303.02" r="2"/>
<circle clip-path="url(#clip202)" style="fill:#009af9; stroke:none; fill-opacity:0" cx="929.788" cy="1322.67" r="2"/>
<circle clip-path="url(#clip202)" style="fill:#009af9; stroke:none; fill-opacity:0" cx="1019.84" cy="1303.02" r="2"/>
<circle clip-path="url(#clip202)" style="fill:#009af9; stroke:none; fill-opacity:0" cx="1109.89" cy="1312.84" r="2"/>
<circle clip-path="url(#clip202)" style="fill:#009af9; stroke:none; fill-opacity:0" cx="1199.94" cy="1298.1" r="2"/>
<circle clip-path="url(#clip202)" style="fill:#009af9; stroke:none; fill-opacity:0" cx="1289.99" cy="1293.19" r="2"/>
<circle clip-path="url(#clip202)" style="fill:#009af9; stroke:none; fill-opacity:0" cx="1380.03" cy="1288.27" r="2"/>
<circle clip-path="url(#clip202)" style="fill:#009af9; stroke:none; fill-opacity:0" cx="1470.08" cy="1106.46" r="2"/>
<circle clip-path="url(#clip202)" style="fill:#009af9; stroke:none; fill-opacity:0" cx="1560.13" cy="988.533" r="2"/>
<circle clip-path="url(#clip202)" style="fill:#009af9; stroke:none; fill-opacity:0" cx="1650.18" cy="728.101" r="2"/>
<circle clip-path="url(#clip202)" style="fill:#009af9; stroke:none; fill-opacity:0" cx="1740.23" cy="276.031" r="2"/>
<circle clip-path="url(#clip202)" style="fill:#009af9; stroke:none; fill-opacity:0" cx="1830.28" cy="84.3925" r="2"/>
<circle clip-path="url(#clip202)" style="fill:#009af9; stroke:none; fill-opacity:0" cx="1920.33" cy="452.928" r="2"/>
<circle clip-path="url(#clip202)" style="fill:#009af9; stroke:none; fill-opacity:0" cx="2010.38" cy="909.912" r="2"/>
<circle clip-path="url(#clip202)" style="fill:#009af9; stroke:none; fill-opacity:0" cx="2100.43" cy="1283.36" r="2"/>
</svg>
