<?xml version="1.0" encoding="utf-8"?>
<svg xmlns="http://www.w3.org/2000/svg" xmlns:xlink="http://www.w3.org/1999/xlink" width="576" height="384" viewBox="0 0 2304 1536">
<defs>
  <clipPath id="clip990">
    <rect x="0" y="0" width="2304" height="1536"/>
  </clipPath>
</defs>
<path clip-path="url(#clip990)" d="
M0 1536 L2304 1536 L2304 0 L0 0  Z
  " fill="#ffffff" fill-rule="evenodd" fill-opacity="1"/>
<defs>
  <clipPath id="clip991">
    <rect x="460" y="0" width="1614" height="1536"/>
  </clipPath>
</defs>
<path clip-path="url(#clip990)" d="
M261.591 1359.82 L2256.76 1359.82 L2256.76 47.2441 L261.591 47.2441  Z
  " fill="#ffffff" fill-rule="evenodd" fill-opacity="1"/>
<defs>
  <clipPath id="clip992">
    <rect x="261" y="47" width="1996" height="1314"/>
  </clipPath>
</defs>
<polyline clip-path="url(#clip992)" style="stroke:#000000; stroke-linecap:butt; stroke-linejoin:round; stroke-width:2; stroke-opacity:0.1; fill:none" points="
  318.058,1359.82 318.058,47.2441 
  "/>
<polyline clip-path="url(#clip992)" style="stroke:#000000; stroke-linecap:butt; stroke-linejoin:round; stroke-width:2; stroke-opacity:0.1; fill:none" points="
  788.616,1359.82 788.616,47.2441 
  "/>
<polyline clip-path="url(#clip992)" style="stroke:#000000; stroke-linecap:butt; stroke-linejoin:round; stroke-width:2; stroke-opacity:0.1; fill:none" points="
  1259.17,1359.82 1259.17,47.2441 
  "/>
<polyline clip-path="url(#clip992)" style="stroke:#000000; stroke-linecap:butt; stroke-linejoin:round; stroke-width:2; stroke-opacity:0.1; fill:none" points="
  1729.73,1359.82 1729.73,47.2441 
  "/>
<polyline clip-path="url(#clip992)" style="stroke:#000000; stroke-linecap:butt; stroke-linejoin:round; stroke-width:2; stroke-opacity:0.1; fill:none" points="
  2200.29,1359.82 2200.29,47.2441 
  "/>
<polyline clip-path="url(#clip990)" style="stroke:#000000; stroke-linecap:butt; stroke-linejoin:round; stroke-width:4; stroke-opacity:1; fill:none" points="
  261.591,1359.82 2256.76,1359.82 
  "/>
<polyline clip-path="url(#clip990)" style="stroke:#000000; stroke-linecap:butt; stroke-linejoin:round; stroke-width:4; stroke-opacity:1; fill:none" points="
  318.058,1359.82 318.058,1340.92 
  "/>
<polyline clip-path="url(#clip990)" style="stroke:#000000; stroke-linecap:butt; stroke-linejoin:round; stroke-width:4; stroke-opacity:1; fill:none" points="
  788.616,1359.82 788.616,1340.92 
  "/>
<polyline clip-path="url(#clip990)" style="stroke:#000000; stroke-linecap:butt; stroke-linejoin:round; stroke-width:4; stroke-opacity:1; fill:none" points="
  1259.17,1359.82 1259.17,1340.92 
  "/>
<polyline clip-path="url(#clip990)" style="stroke:#000000; stroke-linecap:butt; stroke-linejoin:round; stroke-width:4; stroke-opacity:1; fill:none" points="
  1729.73,1359.82 1729.73,1340.92 
  "/>
<polyline clip-path="url(#clip990)" style="stroke:#000000; stroke-linecap:butt; stroke-linejoin:round; stroke-width:4; stroke-opacity:1; fill:none" points="
  2200.29,1359.82 2200.29,1340.92 
  "/>
<path clip-path="url(#clip990)" d="M318.058 1389.97 Q314.447 1389.97 312.618 1393.54 Q310.813 1397.08 310.813 1404.21 Q310.813 1411.31 312.618 1414.88 Q314.447 1418.42 318.058 1418.42 Q321.692 1418.42 323.498 1414.88 Q325.327 1411.31 325.327 1404.21 Q325.327 1397.08 323.498 1393.54 Q321.692 1389.97 318.058 1389.97 M318.058 1386.27 Q323.868 1386.27 326.924 1390.87 Q330.003 1395.46 330.003 1404.21 Q330.003 1412.93 326.924 1417.54 Q323.868 1422.12 318.058 1422.12 Q312.248 1422.12 309.169 1417.54 Q306.114 1412.93 306.114 1404.21 Q306.114 1395.46 309.169 1390.87 Q312.248 1386.27 318.058 1386.27 Z" fill="#000000" fill-rule="evenodd" fill-opacity="1" /><path clip-path="url(#clip990)" d="M763.303 1417.52 L770.942 1417.52 L770.942 1391.15 L762.632 1392.82 L762.632 1388.56 L770.896 1386.89 L775.572 1386.89 L775.572 1417.52 L783.211 1417.52 L783.211 1421.45 L763.303 1421.45 L763.303 1417.52 Z" fill="#000000" fill-rule="evenodd" fill-opacity="1" /><path clip-path="url(#clip990)" d="M802.655 1389.97 Q799.044 1389.97 797.215 1393.54 Q795.41 1397.08 795.41 1404.21 Q795.41 1411.31 797.215 1414.88 Q799.044 1418.42 802.655 1418.42 Q806.289 1418.42 808.095 1414.88 Q809.924 1411.31 809.924 1404.21 Q809.924 1397.08 808.095 1393.54 Q806.289 1389.97 802.655 1389.97 M802.655 1386.27 Q808.465 1386.27 811.521 1390.87 Q814.6 1395.46 814.6 1404.21 Q814.6 1412.93 811.521 1417.54 Q808.465 1422.12 802.655 1422.12 Q796.845 1422.12 793.766 1417.54 Q790.711 1412.93 790.711 1404.21 Q790.711 1395.46 793.766 1390.87 Q796.845 1386.27 802.655 1386.27 Z" fill="#000000" fill-rule="evenodd" fill-opacity="1" /><path clip-path="url(#clip990)" d="M1237.95 1417.52 L1254.27 1417.52 L1254.27 1421.45 L1232.32 1421.45 L1232.32 1417.52 Q1234.98 1414.76 1239.57 1410.13 Q1244.17 1405.48 1245.35 1404.14 Q1247.6 1401.61 1248.48 1399.88 Q1249.38 1398.12 1249.38 1396.43 Q1249.38 1393.67 1247.44 1391.94 Q1245.52 1390.2 1242.41 1390.2 Q1240.22 1390.2 1237.76 1390.97 Q1235.33 1391.73 1232.55 1393.28 L1232.55 1388.56 Q1235.38 1387.42 1237.83 1386.85 Q1240.28 1386.27 1242.32 1386.27 Q1247.69 1386.27 1250.89 1388.95 Q1254.08 1391.64 1254.08 1396.13 Q1254.08 1398.26 1253.27 1400.18 Q1252.48 1402.08 1250.38 1404.67 Q1249.8 1405.34 1246.7 1408.56 Q1243.59 1411.75 1237.95 1417.52 Z" fill="#000000" fill-rule="evenodd" fill-opacity="1" /><path clip-path="url(#clip990)" d="M1274.08 1389.97 Q1270.47 1389.97 1268.64 1393.54 Q1266.84 1397.08 1266.84 1404.21 Q1266.84 1411.31 1268.64 1414.88 Q1270.47 1418.42 1274.08 1418.42 Q1277.72 1418.42 1279.52 1414.88 Q1281.35 1411.31 1281.35 1404.21 Q1281.35 1397.08 1279.52 1393.54 Q1277.72 1389.97 1274.08 1389.97 M1274.08 1386.27 Q1279.89 1386.27 1282.95 1390.87 Q1286.03 1395.46 1286.03 1404.21 Q1286.03 1412.93 1282.95 1417.54 Q1279.89 1422.12 1274.08 1422.12 Q1268.27 1422.12 1265.19 1417.54 Q1262.14 1412.93 1262.14 1404.21 Q1262.14 1395.46 1265.19 1390.87 Q1268.27 1386.27 1274.08 1386.27 Z" fill="#000000" fill-rule="evenodd" fill-opacity="1" /><path clip-path="url(#clip990)" d="M1718.57 1402.82 Q1721.93 1403.54 1723.81 1405.8 Q1725.7 1408.07 1725.7 1411.41 Q1725.7 1416.52 1722.19 1419.32 Q1718.67 1422.12 1712.19 1422.12 Q1710.01 1422.12 1707.69 1421.68 Q1705.4 1421.27 1702.95 1420.41 L1702.95 1415.9 Q1704.89 1417.03 1707.21 1417.61 Q1709.52 1418.19 1712.05 1418.19 Q1716.44 1418.19 1718.74 1416.45 Q1721.05 1414.72 1721.05 1411.41 Q1721.05 1408.35 1718.9 1406.64 Q1716.77 1404.9 1712.95 1404.9 L1708.92 1404.9 L1708.92 1401.06 L1713.13 1401.06 Q1716.58 1401.06 1718.41 1399.69 Q1720.24 1398.3 1720.24 1395.71 Q1720.24 1393.05 1718.34 1391.64 Q1716.47 1390.2 1712.95 1390.2 Q1711.03 1390.2 1708.83 1390.62 Q1706.63 1391.04 1703.99 1391.91 L1703.99 1387.75 Q1706.65 1387.01 1708.97 1386.64 Q1711.31 1386.27 1713.37 1386.27 Q1718.69 1386.27 1721.79 1388.7 Q1724.89 1391.1 1724.89 1395.23 Q1724.89 1398.1 1723.25 1400.09 Q1721.61 1402.05 1718.57 1402.82 Z" fill="#000000" fill-rule="evenodd" fill-opacity="1" /><path clip-path="url(#clip990)" d="M1744.57 1389.97 Q1740.96 1389.97 1739.13 1393.54 Q1737.32 1397.08 1737.32 1404.21 Q1737.32 1411.31 1739.13 1414.88 Q1740.96 1418.42 1744.57 1418.42 Q1748.2 1418.42 1750.01 1414.88 Q1751.84 1411.31 1751.84 1404.21 Q1751.84 1397.08 1750.01 1393.54 Q1748.2 1389.97 1744.57 1389.97 M1744.57 1386.27 Q1750.38 1386.27 1753.43 1390.87 Q1756.51 1395.46 1756.51 1404.21 Q1756.51 1412.93 1753.43 1417.54 Q1750.38 1422.12 1744.57 1422.12 Q1738.76 1422.12 1735.68 1417.54 Q1732.62 1412.93 1732.62 1404.21 Q1732.62 1395.46 1735.68 1390.87 Q1738.76 1386.27 1744.57 1386.27 Z" fill="#000000" fill-rule="evenodd" fill-opacity="1" /><path clip-path="url(#clip990)" d="M2188.46 1390.97 L2176.65 1409.41 L2188.46 1409.41 L2188.46 1390.97 M2187.23 1386.89 L2193.11 1386.89 L2193.11 1409.41 L2198.04 1409.41 L2198.04 1413.3 L2193.11 1413.3 L2193.11 1421.45 L2188.46 1421.45 L2188.46 1413.3 L2172.86 1413.3 L2172.86 1408.79 L2187.23 1386.89 Z" fill="#000000" fill-rule="evenodd" fill-opacity="1" /><path clip-path="url(#clip990)" d="M2215.78 1389.97 Q2212.16 1389.97 2210.34 1393.54 Q2208.53 1397.08 2208.53 1404.21 Q2208.53 1411.31 2210.34 1414.88 Q2212.16 1418.42 2215.78 1418.42 Q2219.41 1418.42 2221.21 1414.88 Q2223.04 1411.31 2223.04 1404.21 Q2223.04 1397.08 2221.21 1393.54 Q2219.41 1389.97 2215.78 1389.97 M2215.78 1386.27 Q2221.59 1386.27 2224.64 1390.87 Q2227.72 1395.46 2227.72 1404.21 Q2227.72 1412.93 2224.64 1417.54 Q2221.59 1422.12 2215.78 1422.12 Q2209.96 1422.12 2206.89 1417.54 Q2203.83 1412.93 2203.83 1404.21 Q2203.83 1395.46 2206.89 1390.87 Q2209.96 1386.27 2215.78 1386.27 Z" fill="#000000" fill-rule="evenodd" fill-opacity="1" /><path clip-path="url(#clip990)" d="M1181.05 1455.72 L1221.25 1455.72 L1221.25 1461.13 L1204.38 1461.13 L1204.38 1503.24 L1197.92 1503.24 L1197.92 1461.13 L1181.05 1461.13 L1181.05 1455.72 Z" fill="#000000" fill-rule="evenodd" fill-opacity="1" /><path clip-path="url(#clip990)" d="M1225.2 1467.6 L1231.05 1467.6 L1231.05 1503.24 L1225.2 1503.24 L1225.2 1467.6 M1225.2 1453.72 L1231.05 1453.72 L1231.05 1461.13 L1225.2 1461.13 L1225.2 1453.72 Z" fill="#000000" fill-rule="evenodd" fill-opacity="1" /><path clip-path="url(#clip990)" d="M1271.06 1474.44 Q1273.26 1470.49 1276.31 1468.61 Q1279.37 1466.74 1283.51 1466.74 Q1289.08 1466.74 1292.1 1470.65 Q1295.12 1474.53 1295.12 1481.73 L1295.12 1503.24 L1289.24 1503.24 L1289.24 1481.92 Q1289.24 1476.79 1287.42 1474.31 Q1285.61 1471.83 1281.88 1471.83 Q1277.33 1471.83 1274.69 1474.85 Q1272.05 1477.88 1272.05 1483.1 L1272.05 1503.24 L1266.16 1503.24 L1266.16 1481.92 Q1266.16 1476.76 1264.35 1474.31 Q1262.53 1471.83 1258.74 1471.83 Q1254.26 1471.83 1251.61 1474.88 Q1248.97 1477.91 1248.97 1483.1 L1248.97 1503.24 L1243.08 1503.24 L1243.08 1467.6 L1248.97 1467.6 L1248.97 1473.13 Q1250.98 1469.86 1253.78 1468.3 Q1256.58 1466.74 1260.43 1466.74 Q1264.31 1466.74 1267.02 1468.71 Q1269.76 1470.68 1271.06 1474.44 Z" fill="#000000" fill-rule="evenodd" fill-opacity="1" /><path clip-path="url(#clip990)" d="M1337.3 1483.96 L1337.3 1486.82 L1310.37 1486.82 Q1310.75 1492.87 1314 1496.05 Q1317.28 1499.2 1323.1 1499.2 Q1326.47 1499.2 1329.63 1498.37 Q1332.81 1497.55 1335.93 1495.89 L1335.93 1501.43 Q1332.78 1502.77 1329.47 1503.47 Q1326.16 1504.17 1322.75 1504.17 Q1314.22 1504.17 1309.22 1499.2 Q1304.26 1494.24 1304.26 1485.77 Q1304.26 1477.02 1308.97 1471.89 Q1313.71 1466.74 1321.73 1466.74 Q1328.93 1466.74 1333.1 1471.38 Q1337.3 1476 1337.3 1483.96 M1331.44 1482.24 Q1331.38 1477.43 1328.73 1474.57 Q1326.12 1471.7 1321.8 1471.7 Q1316.89 1471.7 1313.93 1474.47 Q1311.01 1477.24 1310.56 1482.27 L1331.44 1482.24 Z" fill="#000000" fill-rule="evenodd" fill-opacity="1" /><polyline clip-path="url(#clip992)" style="stroke:#000000; stroke-linecap:butt; stroke-linejoin:round; stroke-width:2; stroke-opacity:0.1; fill:none" points="
  261.591,1322.67 2256.76,1322.67 
  "/>
<polyline clip-path="url(#clip992)" style="stroke:#000000; stroke-linecap:butt; stroke-linejoin:round; stroke-width:2; stroke-opacity:0.1; fill:none" points="
  261.591,1009.97 2256.76,1009.97 
  "/>
<polyline clip-path="url(#clip992)" style="stroke:#000000; stroke-linecap:butt; stroke-linejoin:round; stroke-width:2; stroke-opacity:0.1; fill:none" points="
  261.591,697.278 2256.76,697.278 
  "/>
<polyline clip-path="url(#clip992)" style="stroke:#000000; stroke-linecap:butt; stroke-linejoin:round; stroke-width:2; stroke-opacity:0.1; fill:none" points="
  261.591,384.581 2256.76,384.581 
  "/>
<polyline clip-path="url(#clip992)" style="stroke:#000000; stroke-linecap:butt; stroke-linejoin:round; stroke-width:2; stroke-opacity:0.1; fill:none" points="
  261.591,71.8846 2256.76,71.8846 
  "/>
<polyline clip-path="url(#clip990)" style="stroke:#000000; stroke-linecap:butt; stroke-linejoin:round; stroke-width:4; stroke-opacity:1; fill:none" points="
  261.591,1359.82 261.591,47.2441 
  "/>
<polyline clip-path="url(#clip990)" style="stroke:#000000; stroke-linecap:butt; stroke-linejoin:round; stroke-width:4; stroke-opacity:1; fill:none" points="
  261.591,1322.67 280.489,1322.67 
  "/>
<polyline clip-path="url(#clip990)" style="stroke:#000000; stroke-linecap:butt; stroke-linejoin:round; stroke-width:4; stroke-opacity:1; fill:none" points="
  261.591,1009.97 280.489,1009.97 
  "/>
<polyline clip-path="url(#clip990)" style="stroke:#000000; stroke-linecap:butt; stroke-linejoin:round; stroke-width:4; stroke-opacity:1; fill:none" points="
  261.591,697.278 280.489,697.278 
  "/>
<polyline clip-path="url(#clip990)" style="stroke:#000000; stroke-linecap:butt; stroke-linejoin:round; stroke-width:4; stroke-opacity:1; fill:none" points="
  261.591,384.581 280.489,384.581 
  "/>
<polyline clip-path="url(#clip990)" style="stroke:#000000; stroke-linecap:butt; stroke-linejoin:round; stroke-width:4; stroke-opacity:1; fill:none" points="
  261.591,71.8846 280.489,71.8846 
  "/>
<path clip-path="url(#clip990)" d="M215.087 1308.47 Q211.476 1308.47 209.647 1312.03 Q207.842 1315.58 207.842 1322.71 Q207.842 1329.81 209.647 1333.38 Q211.476 1336.92 215.087 1336.92 Q218.721 1336.92 220.527 1333.38 Q222.355 1329.81 222.355 1322.71 Q222.355 1315.58 220.527 1312.03 Q218.721 1308.47 215.087 1308.47 M215.087 1304.77 Q220.897 1304.77 223.953 1309.37 Q227.031 1313.96 227.031 1322.71 Q227.031 1331.43 223.953 1336.04 Q220.897 1340.62 215.087 1340.62 Q209.277 1340.62 206.198 1336.04 Q203.142 1331.43 203.142 1322.71 Q203.142 1313.96 206.198 1309.37 Q209.277 1304.77 215.087 1304.77 Z" fill="#000000" fill-rule="evenodd" fill-opacity="1" /><path clip-path="url(#clip990)" d="M148.791 1023.32 L165.11 1023.32 L165.11 1027.25 L143.166 1027.25 L143.166 1023.32 Q145.828 1020.56 150.411 1015.94 Q155.018 1011.28 156.198 1009.94 Q158.444 1007.42 159.323 1005.68 Q160.226 1003.92 160.226 1002.23 Q160.226 999.477 158.282 997.741 Q156.36 996.005 153.258 996.005 Q151.059 996.005 148.606 996.769 Q146.175 997.533 143.397 999.084 L143.397 994.361 Q146.221 993.227 148.675 992.648 Q151.129 992.07 153.166 992.07 Q158.536 992.07 161.731 994.755 Q164.925 997.44 164.925 1001.93 Q164.925 1004.06 164.115 1005.98 Q163.328 1007.88 161.221 1010.47 Q160.643 1011.14 157.541 1014.36 Q154.439 1017.56 148.791 1023.32 Z" fill="#000000" fill-rule="evenodd" fill-opacity="1" /><path clip-path="url(#clip990)" d="M174.971 992.695 L193.328 992.695 L193.328 996.63 L179.254 996.63 L179.254 1005.1 Q180.272 1004.75 181.291 1004.59 Q182.309 1004.41 183.328 1004.41 Q189.115 1004.41 192.494 1007.58 Q195.874 1010.75 195.874 1016.17 Q195.874 1021.75 192.402 1024.85 Q188.93 1027.93 182.61 1027.93 Q180.434 1027.93 178.166 1027.56 Q175.92 1027.19 173.513 1026.44 L173.513 1021.75 Q175.596 1022.88 177.819 1023.44 Q180.041 1023.99 182.518 1023.99 Q186.522 1023.99 188.86 1021.88 Q191.198 1019.78 191.198 1016.17 Q191.198 1012.56 188.86 1010.45 Q186.522 1008.34 182.518 1008.34 Q180.643 1008.34 178.768 1008.76 Q176.916 1009.18 174.971 1010.06 L174.971 992.695 Z" fill="#000000" fill-rule="evenodd" fill-opacity="1" /><path clip-path="url(#clip990)" d="M215.087 995.773 Q211.476 995.773 209.647 999.338 Q207.842 1002.88 207.842 1010.01 Q207.842 1017.12 209.647 1020.68 Q211.476 1024.22 215.087 1024.22 Q218.721 1024.22 220.527 1020.68 Q222.355 1017.12 222.355 1010.01 Q222.355 1002.88 220.527 999.338 Q218.721 995.773 215.087 995.773 M215.087 992.07 Q220.897 992.07 223.953 996.676 Q227.031 1001.26 227.031 1010.01 Q227.031 1018.74 223.953 1023.34 Q220.897 1027.93 215.087 1027.93 Q209.277 1027.93 206.198 1023.34 Q203.142 1018.74 203.142 1010.01 Q203.142 1001.26 206.198 996.676 Q209.277 992.07 215.087 992.07 Z" fill="#000000" fill-rule="evenodd" fill-opacity="1" /><path clip-path="url(#clip990)" d="M144.809 679.998 L163.166 679.998 L163.166 683.933 L149.092 683.933 L149.092 692.405 Q150.11 692.058 151.129 691.896 Q152.147 691.711 153.166 691.711 Q158.953 691.711 162.332 694.882 Q165.712 698.053 165.712 703.47 Q165.712 709.049 162.24 712.151 Q158.768 715.229 152.448 715.229 Q150.272 715.229 148.004 714.859 Q145.759 714.489 143.351 713.748 L143.351 709.049 Q145.434 710.183 147.657 710.739 Q149.879 711.294 152.356 711.294 Q156.36 711.294 158.698 709.188 Q161.036 707.081 161.036 703.47 Q161.036 699.859 158.698 697.753 Q156.36 695.646 152.356 695.646 Q150.481 695.646 148.606 696.063 Q146.754 696.479 144.809 697.359 L144.809 679.998 Z" fill="#000000" fill-rule="evenodd" fill-opacity="1" /><path clip-path="url(#clip990)" d="M184.925 683.077 Q181.314 683.077 179.485 686.642 Q177.68 690.183 177.68 697.313 Q177.68 704.419 179.485 707.984 Q181.314 711.526 184.925 711.526 Q188.559 711.526 190.365 707.984 Q192.193 704.419 192.193 697.313 Q192.193 690.183 190.365 686.642 Q188.559 683.077 184.925 683.077 M184.925 679.373 Q190.735 679.373 193.791 683.979 Q196.869 688.563 196.869 697.313 Q196.869 706.04 193.791 710.646 Q190.735 715.229 184.925 715.229 Q179.115 715.229 176.036 710.646 Q172.981 706.04 172.981 697.313 Q172.981 688.563 176.036 683.979 Q179.115 679.373 184.925 679.373 Z" fill="#000000" fill-rule="evenodd" fill-opacity="1" /><path clip-path="url(#clip990)" d="M215.087 683.077 Q211.476 683.077 209.647 686.642 Q207.842 690.183 207.842 697.313 Q207.842 704.419 209.647 707.984 Q211.476 711.526 215.087 711.526 Q218.721 711.526 220.527 707.984 Q222.355 704.419 222.355 697.313 Q222.355 690.183 220.527 686.642 Q218.721 683.077 215.087 683.077 M215.087 679.373 Q220.897 679.373 223.953 683.979 Q227.031 688.563 227.031 697.313 Q227.031 706.04 223.953 710.646 Q220.897 715.229 215.087 715.229 Q209.277 715.229 206.198 710.646 Q203.142 706.04 203.142 697.313 Q203.142 688.563 206.198 683.979 Q209.277 679.373 215.087 679.373 Z" fill="#000000" fill-rule="evenodd" fill-opacity="1" /><path clip-path="url(#clip990)" d="M143.583 367.301 L165.805 367.301 L165.805 369.292 L153.258 401.861 L148.374 401.861 L160.18 371.236 L143.583 371.236 L143.583 367.301 Z" fill="#000000" fill-rule="evenodd" fill-opacity="1" /><path clip-path="url(#clip990)" d="M174.971 367.301 L193.328 367.301 L193.328 371.236 L179.254 371.236 L179.254 379.709 Q180.272 379.361 181.291 379.199 Q182.309 379.014 183.328 379.014 Q189.115 379.014 192.494 382.185 Q195.874 385.357 195.874 390.773 Q195.874 396.352 192.402 399.454 Q188.93 402.533 182.61 402.533 Q180.434 402.533 178.166 402.162 Q175.92 401.792 173.513 401.051 L173.513 396.352 Q175.596 397.486 177.819 398.042 Q180.041 398.597 182.518 398.597 Q186.522 398.597 188.86 396.491 Q191.198 394.385 191.198 390.773 Q191.198 387.162 188.86 385.056 Q186.522 382.949 182.518 382.949 Q180.643 382.949 178.768 383.366 Q176.916 383.783 174.971 384.662 L174.971 367.301 Z" fill="#000000" fill-rule="evenodd" fill-opacity="1" /><path clip-path="url(#clip990)" d="M215.087 370.38 Q211.476 370.38 209.647 373.945 Q207.842 377.486 207.842 384.616 Q207.842 391.722 209.647 395.287 Q211.476 398.829 215.087 398.829 Q218.721 398.829 220.527 395.287 Q222.355 391.722 222.355 384.616 Q222.355 377.486 220.527 373.945 Q218.721 370.38 215.087 370.38 M215.087 366.676 Q220.897 366.676 223.953 371.283 Q227.031 375.866 227.031 384.616 Q227.031 393.343 223.953 397.949 Q220.897 402.533 215.087 402.533 Q209.277 402.533 206.198 397.949 Q203.142 393.343 203.142 384.616 Q203.142 375.866 206.198 371.283 Q209.277 366.676 215.087 366.676 Z" fill="#000000" fill-rule="evenodd" fill-opacity="1" /><path clip-path="url(#clip990)" d="M115.411 85.2294 L123.05 85.2294 L123.05 58.8638 L114.74 60.5305 L114.74 56.2713 L123.004 54.6046 L127.68 54.6046 L127.68 85.2294 L135.319 85.2294 L135.319 89.1646 L115.411 89.1646 L115.411 85.2294 Z" fill="#000000" fill-rule="evenodd" fill-opacity="1" /><path clip-path="url(#clip990)" d="M154.763 57.6833 Q151.152 57.6833 149.323 61.2481 Q147.518 64.7897 147.518 71.9193 Q147.518 79.0258 149.323 82.5906 Q151.152 86.1322 154.763 86.1322 Q158.397 86.1322 160.203 82.5906 Q162.032 79.0258 162.032 71.9193 Q162.032 64.7897 160.203 61.2481 Q158.397 57.6833 154.763 57.6833 M154.763 53.9796 Q160.573 53.9796 163.629 58.5861 Q166.707 63.1694 166.707 71.9193 Q166.707 80.6461 163.629 85.2526 Q160.573 89.8359 154.763 89.8359 Q148.953 89.8359 145.874 85.2526 Q142.819 80.6461 142.819 71.9193 Q142.819 63.1694 145.874 58.5861 Q148.953 53.9796 154.763 53.9796 Z" fill="#000000" fill-rule="evenodd" fill-opacity="1" /><path clip-path="url(#clip990)" d="M184.925 57.6833 Q181.314 57.6833 179.485 61.2481 Q177.68 64.7897 177.68 71.9193 Q177.68 79.0258 179.485 82.5906 Q181.314 86.1322 184.925 86.1322 Q188.559 86.1322 190.365 82.5906 Q192.193 79.0258 192.193 71.9193 Q192.193 64.7897 190.365 61.2481 Q188.559 57.6833 184.925 57.6833 M184.925 53.9796 Q190.735 53.9796 193.791 58.5861 Q196.869 63.1694 196.869 71.9193 Q196.869 80.6461 193.791 85.2526 Q190.735 89.8359 184.925 89.8359 Q179.115 89.8359 176.036 85.2526 Q172.981 80.6461 172.981 71.9193 Q172.981 63.1694 176.036 58.5861 Q179.115 53.9796 184.925 53.9796 Z" fill="#000000" fill-rule="evenodd" fill-opacity="1" /><path clip-path="url(#clip990)" d="M215.087 57.6833 Q211.476 57.6833 209.647 61.2481 Q207.842 64.7897 207.842 71.9193 Q207.842 79.0258 209.647 82.5906 Q211.476 86.1322 215.087 86.1322 Q218.721 86.1322 220.527 82.5906 Q222.355 79.0258 222.355 71.9193 Q222.355 64.7897 220.527 61.2481 Q218.721 57.6833 215.087 57.6833 M215.087 53.9796 Q220.897 53.9796 223.953 58.5861 Q227.031 63.1694 227.031 71.9193 Q227.031 80.6461 223.953 85.2526 Q220.897 89.8359 215.087 89.8359 Q209.277 89.8359 206.198 85.2526 Q203.142 80.6461 203.142 71.9193 Q203.142 63.1694 206.198 58.5861 Q209.277 53.9796 215.087 53.9796 Z" fill="#000000" fill-rule="evenodd" fill-opacity="1" /><path clip-path="url(#clip990)" d="M18.4042 831.26 L18.4042 822.603 L58.158 801.532 L18.4042 801.532 L18.4042 795.294 L65.9242 795.294 L65.9242 803.951 L26.1703 825.021 L65.9242 825.021 L65.9242 831.26 L18.4042 831.26 Z" fill="#000000" fill-rule="evenodd" fill-opacity="1" /><path clip-path="url(#clip990)" d="M51.8559 783.358 L30.2762 783.358 L30.2762 777.501 L51.6331 777.501 Q56.6939 777.501 59.2402 775.528 Q61.7546 773.555 61.7546 769.608 Q61.7546 764.866 58.7309 762.128 Q55.7072 759.359 50.4873 759.359 L30.2762 759.359 L30.2762 753.503 L65.9242 753.503 L65.9242 759.359 L60.4496 759.359 Q63.6962 761.492 65.2876 764.324 Q66.8472 767.125 66.8472 770.849 Q66.8472 776.992 63.0278 780.175 Q59.2083 783.358 51.8559 783.358 M29.4168 768.621 L29.4168 768.621 Z" fill="#000000" fill-rule="evenodd" fill-opacity="1" /><path clip-path="url(#clip990)" d="M37.1193 713.685 Q33.1726 711.489 31.2947 708.434 Q29.4168 705.378 29.4168 701.24 Q29.4168 695.67 33.3317 692.647 Q37.2148 689.623 44.4081 689.623 L65.9242 689.623 L65.9242 695.511 L44.599 695.511 Q39.4746 695.511 36.992 697.325 Q34.5094 699.14 34.5094 702.864 Q34.5094 707.415 37.5331 710.057 Q40.5568 712.699 45.7767 712.699 L65.9242 712.699 L65.9242 718.587 L44.599 718.587 Q39.4428 718.587 36.992 720.401 Q34.5094 722.215 34.5094 726.003 Q34.5094 730.491 37.5649 733.133 Q40.5886 735.774 45.7767 735.774 L65.9242 735.774 L65.9242 741.663 L30.2762 741.663 L30.2762 735.774 L35.8144 735.774 Q32.536 733.769 30.9764 730.968 Q29.4168 728.167 29.4168 724.316 Q29.4168 720.433 31.3902 717.727 Q33.3636 714.99 37.1193 713.685 Z" fill="#000000" fill-rule="evenodd" fill-opacity="1" /><path clip-path="url(#clip990)" d="M48.132 652.352 Q41.6708 652.352 38.0105 655.025 Q34.3184 657.667 34.3184 662.314 Q34.3184 666.961 38.0105 669.635 Q41.6708 672.276 48.132 672.276 Q54.5932 672.276 58.2853 669.635 Q61.9456 666.961 61.9456 662.314 Q61.9456 657.667 58.2853 655.025 Q54.5932 652.352 48.132 652.352 M35.6871 672.276 Q32.5042 670.43 30.9764 667.629 Q29.4168 664.797 29.4168 660.882 Q29.4168 654.389 34.5731 650.346 Q39.7293 646.272 48.132 646.272 Q56.5347 646.272 61.691 650.346 Q66.8472 654.389 66.8472 660.882 Q66.8472 664.797 65.3194 667.629 Q63.7598 670.43 60.577 672.276 L65.9242 672.276 L65.9242 678.165 L16.399 678.165 L16.399 672.276 L35.6871 672.276 Z" fill="#000000" fill-rule="evenodd" fill-opacity="1" /><path clip-path="url(#clip990)" d="M46.6361 606.073 L49.5006 606.073 L49.5006 633 Q55.5481 632.618 58.7309 629.371 Q61.8819 626.093 61.8819 620.269 Q61.8819 616.895 61.0544 613.744 Q60.2269 610.561 58.5718 607.442 L64.1099 607.442 Q65.4467 610.593 66.147 613.903 Q66.8472 617.213 66.8472 620.619 Q66.8472 629.149 61.8819 634.146 Q56.9167 639.111 48.4503 639.111 Q39.6974 639.111 34.5731 634.4 Q29.4168 629.658 29.4168 621.637 Q29.4168 614.444 34.0638 610.274 Q38.6789 606.073 46.6361 606.073 M44.9173 611.929 Q40.1112 611.993 37.2466 614.635 Q34.3821 617.245 34.3821 621.573 Q34.3821 626.475 37.1512 629.435 Q39.9202 632.363 44.9492 632.809 L44.9173 611.929 Z" fill="#000000" fill-rule="evenodd" fill-opacity="1" /><path clip-path="url(#clip990)" d="M35.7507 575.804 Q35.1778 576.791 34.9232 577.968 Q34.6367 579.114 34.6367 580.515 Q34.6367 585.48 37.8832 588.154 Q41.0979 590.795 47.1453 590.795 L65.9242 590.795 L65.9242 596.684 L30.2762 596.684 L30.2762 590.795 L35.8144 590.795 Q32.5679 588.949 31.0083 585.989 Q29.4168 583.029 29.4168 578.796 Q29.4168 578.191 29.5123 577.459 Q29.576 576.727 29.7351 575.836 L35.7507 575.804 Z" fill="#000000" fill-rule="evenodd" fill-opacity="1" /><polyline clip-path="url(#clip992)" style="stroke:#009af9; stroke-linecap:butt; stroke-linejoin:round; stroke-width:4; stroke-opacity:1; fill:none" points="
  318.058,84.3925 322.764,84.3925 327.469,84.3925 332.175,86.894 336.88,89.3956 341.586,89.3956 346.292,90.6464 350.997,90.6464 355.703,93.148 360.408,94.3988 
  365.114,94.3988 369.819,94.3988 374.525,95.6495 379.231,96.9003 383.936,100.653 388.642,101.903 393.347,103.154 398.053,103.154 402.759,103.154 407.464,103.154 
  412.17,103.154 416.875,103.154 421.581,103.154 426.286,104.405 430.992,104.405 435.698,104.405 440.403,104.405 445.109,106.907 449.814,109.408 454.52,109.408 
  459.225,111.91 463.931,111.91 468.637,111.91 473.342,113.161 478.048,114.411 482.753,114.411 487.459,115.662 492.164,120.665 496.87,120.665 501.576,123.167 
  506.281,124.418 510.987,124.418 515.692,129.421 520.398,129.421 525.104,130.672 529.809,130.672 534.515,131.922 539.22,133.173 543.926,135.675 548.631,139.427 
  553.337,144.43 558.043,145.681 562.748,145.681 567.454,149.433 572.159,150.684 576.865,151.935 581.57,154.437 586.276,155.687 590.982,158.189 595.687,161.941 
  600.393,163.192 605.098,164.443 609.804,164.443 614.51,165.694 619.215,168.195 623.921,169.446 628.626,171.948 633.332,174.449 638.037,178.201 642.743,179.452 
  647.449,181.954 652.154,184.455 656.86,185.706 661.565,186.957 666.271,186.957 670.976,188.208 675.682,188.208 680.388,190.709 685.093,193.211 689.799,193.211 
  694.504,194.462 699.21,195.712 703.915,195.712 708.621,196.963 713.327,199.465 718.032,204.468 722.738,205.719 727.443,206.97 732.149,209.471 736.855,209.471 
  741.56,210.722 746.266,214.474 750.971,214.474 755.677,218.227 760.382,219.477 765.088,220.728 769.794,225.731 774.499,225.731 779.205,228.233 783.91,229.484 
  788.616,234.487 793.321,235.738 798.027,239.49 802.733,240.741 807.438,241.992 812.144,246.995 816.849,249.496 821.555,250.747 826.26,250.747 830.966,251.998 
  835.672,254.499 840.377,258.252 845.083,260.753 849.788,269.509 854.494,273.261 859.2,278.264 863.905,280.766 868.611,282.017 873.316,282.017 878.022,285.769 
  882.727,287.02 887.433,289.522 892.139,292.023 896.844,297.026 901.55,300.779 906.255,308.283 910.961,312.036 915.666,314.537 920.372,315.788 925.078,318.29 
  929.783,320.791 934.489,325.794 939.194,333.299 943.9,338.302 948.605,339.553 953.311,342.055 958.017,344.556 962.722,345.807 967.428,360.816 972.133,365.82 
  976.839,369.572 981.545,374.575 986.25,378.327 990.956,385.832 995.661,388.334 1000.37,390.835 1005.07,395.838 1009.78,400.842 1014.48,404.594 1019.19,410.848 
  1023.89,414.6 1028.6,419.603 1033.31,422.105 1038.01,425.857 1042.72,427.108 1047.42,429.61 1052.13,435.864 1056.83,442.118 1061.54,449.622 1066.24,457.127 
  1070.95,459.629 1075.66,464.632 1080.36,469.635 1085.07,477.14 1089.77,482.143 1094.48,494.651 1099.18,499.654 1103.89,503.406 1108.6,505.908 1113.3,513.412 
  1118.01,519.666 1122.71,524.669 1127.42,528.422 1132.12,532.174 1136.83,537.177 1141.53,539.679 1146.24,544.682 1150.95,548.434 1155.65,554.688 1160.36,558.441 
  1165.06,562.193 1169.77,565.945 1174.47,568.447 1179.18,569.698 1183.88,575.952 1188.59,579.704 1193.3,585.958 1198,590.961 1202.71,595.964 1207.41,600.967 
  1212.12,603.469 1216.82,607.221 1221.53,610.974 1226.23,614.726 1230.94,618.478 1235.65,619.729 1240.35,622.231 1245.06,627.234 1249.76,634.739 1254.47,638.491 
  1259.17,645.996 1263.88,649.748 1268.58,656.002 1273.29,659.754 1278,661.005 1282.7,661.005 1287.41,666.008 1292.11,669.761 1296.82,674.764 1301.52,677.265 
  1306.23,679.767 1310.93,684.77 1315.64,688.523 1320.35,691.024 1325.05,693.526 1329.76,699.78 1334.46,704.783 1339.17,709.786 1343.87,712.287 1348.58,713.538 
  1353.29,713.538 1357.99,717.291 1362.7,719.792 1367.4,726.046 1372.11,728.548 1376.81,728.548 1381.52,731.049 1386.22,737.303 1390.93,738.554 1395.64,744.808 
  1400.34,747.31 1405.05,749.811 1409.75,756.065 1414.46,763.57 1419.16,767.322 1423.87,772.325 1428.57,774.827 1433.28,779.83 1437.99,781.081 1442.69,786.084 
  1447.4,787.335 1452.1,788.585 1456.81,791.087 1461.51,797.341 1466.22,802.344 1470.92,804.846 1475.63,806.096 1480.34,808.598 1485.04,808.598 1489.75,809.849 
  1494.45,809.849 1499.16,812.35 1503.86,813.601 1508.57,814.852 1513.27,818.604 1517.98,822.357 1522.69,826.109 1527.39,826.109 1532.1,827.36 1536.8,831.112 
  1541.51,832.363 1546.21,834.865 1550.92,836.115 1555.62,838.617 1560.33,843.62 1565.04,843.62 1569.74,846.122 1574.45,848.623 1579.15,849.874 1583.86,849.874 
  1588.56,853.626 1593.27,854.877 1597.98,854.877 1602.68,857.379 1607.39,858.63 1612.09,861.131 1616.8,866.134 1621.5,869.887 1626.21,872.388 1630.91,873.639 
  1635.62,874.89 1640.33,878.642 1645.03,878.642 1649.74,879.893 1654.44,879.893 1659.15,879.893 1663.85,882.394 1668.56,883.645 1673.26,886.147 1677.97,886.147 
  1682.68,891.15 1687.38,894.902 1692.09,896.153 1696.79,896.153 1701.5,899.906 1706.2,901.156 1710.91,902.407 1715.61,903.658 1720.32,907.41 1725.03,908.661 
  1729.73,912.413 1734.44,912.413 1739.14,913.664 1743.85,913.664 1748.55,913.664 1753.26,914.915 1757.96,914.915 1762.67,917.417 1767.38,918.667 1772.08,918.667 
  1776.79,921.169 1781.49,921.169 1786.2,921.169 1790.9,921.169 1795.61,921.169 1800.31,923.67 1805.02,923.67 1809.73,927.423 1814.43,929.924 1819.14,931.175 
  1823.84,931.175 1828.55,933.677 1833.25,933.677 1837.96,934.928 1842.67,934.928 1847.37,936.178 1852.08,936.178 1856.78,936.178 1861.49,937.429 1866.19,939.931 
  1870.9,939.931 1875.6,941.181 1880.31,941.181 1885.02,943.683 1889.72,944.934 1894.43,944.934 1899.13,944.934 1903.84,944.934 1908.54,947.435 1913.25,948.686 
  1917.95,948.686 1922.66,948.686 1927.37,949.937 1932.07,951.188 1936.78,953.689 1941.48,953.689 1946.19,953.689 1950.89,956.191 1955.6,957.442 1960.3,958.692 
  1965.01,958.692 1969.72,958.692 1974.42,959.943 1979.13,959.943 1983.83,961.194 1988.54,962.445 1993.24,962.445 1997.95,963.696 2002.65,964.946 2007.36,964.946 
  2012.07,964.946 2016.77,964.946 2021.48,966.197 2026.18,966.197 2030.89,966.197 2035.59,966.197 2040.3,966.197 2045,966.197 2049.71,966.197 2054.42,966.197 
  2059.12,966.197 2063.83,967.448 2068.53,967.448 2073.24,967.448 2077.94,968.699 2082.65,969.95 2087.36,969.95 2092.06,971.2 2096.77,972.451 2101.47,972.451 
  2106.18,972.451 2110.88,972.451 2115.59,972.451 2120.29,972.451 2125,972.451 2129.71,972.451 2134.41,973.702 2139.12,973.702 2143.82,973.702 2148.53,973.702 
  2153.23,973.702 2157.94,974.953 2162.64,974.953 2167.35,974.953 2172.06,974.953 2176.76,974.953 2181.47,974.953 2186.17,974.953 2190.88,974.953 2195.58,977.454 
  2200.29,978.705 
  "/>
<polyline clip-path="url(#clip992)" style="stroke:#e26f46; stroke-linecap:butt; stroke-linejoin:round; stroke-width:4; stroke-opacity:1; fill:none" points="
  318.058,1310.16 322.764,1310.16 327.469,1310.16 332.175,1307.66 336.88,1305.16 341.586,1305.16 346.292,1303.91 350.997,1303.91 355.703,1302.66 360.408,1302.66 
  365.114,1302.66 369.819,1302.66 374.525,1301.41 379.231,1300.16 383.936,1296.4 388.642,1295.15 393.347,1293.9 398.053,1295.15 402.759,1295.15 407.464,1295.15 
  412.17,1295.15 416.875,1297.66 421.581,1300.16 426.286,1298.91 430.992,1298.91 435.698,1298.91 440.403,1298.91 445.109,1296.4 449.814,1293.9 454.52,1295.15 
  459.225,1292.65 463.931,1297.66 468.637,1297.66 473.342,1296.4 478.048,1295.15 482.753,1297.66 487.459,1296.4 492.164,1292.65 496.87,1293.9 501.576,1295.15 
  506.281,1293.9 510.987,1293.9 515.692,1288.9 520.398,1288.9 525.104,1290.15 529.809,1291.4 534.515,1292.65 539.22,1291.4 543.926,1288.9 548.631,1285.15 
  553.337,1281.4 558.043,1281.4 562.748,1283.9 567.454,1281.4 572.159,1280.14 576.865,1280.14 581.57,1277.64 586.276,1278.89 590.982,1276.39 595.687,1273.89 
  600.393,1275.14 605.098,1275.14 609.804,1276.39 614.51,1275.14 619.215,1275.14 623.921,1275.14 628.626,1276.39 633.332,1276.39 638.037,1272.64 642.743,1272.64 
  647.449,1273.89 652.154,1272.64 656.86,1272.64 661.565,1271.39 666.271,1271.39 670.976,1270.14 675.682,1270.14 680.388,1267.64 685.093,1265.14 689.799,1265.14 
  694.504,1263.88 699.21,1263.88 703.915,1268.89 708.621,1268.89 713.327,1268.89 718.032,1266.39 722.738,1265.14 727.443,1263.88 732.149,1261.38 736.855,1263.88 
  741.56,1266.39 746.266,1265.14 750.971,1265.14 755.677,1266.39 760.382,1267.64 765.088,1266.39 769.794,1262.63 774.499,1263.88 779.205,1266.39 783.91,1265.14 
  788.616,1260.13 793.321,1262.63 798.027,1261.38 802.733,1262.63 807.438,1262.63 812.144,1258.88 816.849,1258.88 821.555,1258.88 826.26,1261.38 830.966,1261.38 
  835.672,1258.88 840.377,1256.38 845.083,1255.13 849.788,1248.88 854.494,1247.62 859.2,1242.62 863.905,1243.87 868.611,1246.37 873.316,1246.37 878.022,1243.87 
  882.727,1245.12 887.433,1247.62 892.139,1245.12 896.844,1242.62 901.55,1240.12 906.255,1232.61 910.961,1231.36 915.666,1231.36 920.372,1231.36 925.078,1231.36 
  929.783,1230.11 934.489,1231.36 939.194,1225.11 943.9,1223.86 948.605,1226.36 953.311,1225.11 958.017,1222.61 962.722,1222.61 967.428,1207.6 972.133,1205.1 
  976.839,1202.6 981.545,1201.35 986.25,1200.09 990.956,1193.84 995.661,1195.09 1000.37,1197.59 1005.07,1193.84 1009.78,1193.84 1014.48,1192.59 1019.19,1188.84 
  1023.89,1188.84 1028.6,1187.59 1033.31,1187.59 1038.01,1190.09 1042.72,1193.84 1047.42,1195.09 1052.13,1191.34 1056.83,1188.84 1061.54,1183.83 1066.24,1180.08 
  1070.95,1180.08 1075.66,1182.58 1080.36,1180.08 1085.07,1176.33 1089.77,1172.58 1094.48,1166.32 1099.18,1163.82 1103.89,1162.57 1108.6,1167.57 1113.3,1165.07 
  1118.01,1163.82 1122.71,1163.82 1127.42,1161.32 1132.12,1157.57 1136.83,1162.57 1141.53,1166.32 1146.24,1166.32 1150.95,1167.57 1155.65,1162.57 1160.36,1162.57 
  1165.06,1160.07 1169.77,1162.57 1174.47,1165.07 1179.18,1171.33 1183.88,1168.82 1188.59,1168.82 1193.3,1171.33 1198,1168.82 1202.71,1165.07 1207.41,1167.57 
  1212.12,1166.32 1216.82,1168.82 1221.53,1166.32 1226.23,1165.07 1230.94,1165.07 1235.65,1168.82 1240.35,1175.08 1245.06,1171.33 1249.76,1165.07 1254.47,1162.57 
  1259.17,1161.32 1263.88,1163.82 1268.58,1161.32 1273.29,1163.82 1278,1166.32 1282.7,1168.82 1287.41,1167.57 1292.11,1168.82 1296.82,1168.82 1301.52,1171.33 
  1306.23,1170.08 1310.93,1168.82 1315.64,1170.08 1320.35,1171.33 1325.05,1172.58 1329.76,1168.82 1334.46,1172.58 1339.17,1173.83 1343.87,1176.33 1348.58,1178.83 
  1353.29,1181.33 1357.99,1180.08 1362.7,1181.33 1367.4,1178.83 1372.11,1176.33 1376.81,1183.83 1381.52,1181.33 1386.22,1177.58 1390.93,1183.83 1395.64,1181.33 
  1400.34,1186.34 1405.05,1187.59 1409.75,1183.83 1414.46,1177.58 1419.16,1176.33 1423.87,1172.58 1428.57,1175.08 1433.28,1172.58 1437.99,1173.83 1442.69,1175.08 
  1447.4,1176.33 1452.1,1180.08 1456.81,1183.83 1461.51,1178.83 1466.22,1176.33 1470.92,1175.08 1475.63,1178.83 1480.34,1181.33 1485.04,1185.08 1489.75,1188.84 
  1494.45,1190.09 1499.16,1192.59 1503.86,1193.84 1508.57,1195.09 1513.27,1196.34 1517.98,1200.09 1522.69,1197.59 1527.39,1200.09 1532.1,1202.6 1536.8,1202.6 
  1541.51,1208.85 1546.21,1207.6 1550.92,1207.6 1555.62,1207.6 1560.33,1205.1 1565.04,1208.85 1569.74,1210.1 1574.45,1207.6 1579.15,1212.6 1583.86,1212.6 
  1588.56,1211.35 1593.27,1212.6 1597.98,1212.6 1602.68,1215.1 1607.39,1221.36 1612.09,1220.11 1616.8,1216.35 1621.5,1215.1 1626.21,1212.6 1630.91,1212.6 
  1635.62,1222.61 1640.33,1218.86 1645.03,1223.86 1649.74,1227.61 1654.44,1230.11 1659.15,1233.87 1663.85,1233.87 1668.56,1237.62 1673.26,1237.62 1677.97,1240.12 
  1682.68,1241.37 1687.38,1238.87 1692.09,1238.87 1696.79,1241.37 1701.5,1245.12 1706.2,1243.87 1710.91,1242.62 1715.61,1242.62 1720.32,1240.12 1725.03,1238.87 
  1729.73,1237.62 1734.44,1238.87 1739.14,1240.12 1743.85,1240.12 1748.55,1240.12 1753.26,1241.37 1757.96,1242.62 1762.67,1242.62 1767.38,1243.87 1772.08,1247.62 
  1776.79,1246.37 1781.49,1246.37 1786.2,1248.88 1790.9,1250.13 1795.61,1251.38 1800.31,1252.63 1805.02,1253.88 1809.73,1252.63 1814.43,1255.13 1819.14,1253.88 
  1823.84,1256.38 1828.55,1256.38 1833.25,1256.38 1837.96,1257.63 1842.67,1258.88 1847.37,1260.13 1852.08,1262.63 1856.78,1263.88 1861.49,1265.14 1866.19,1262.63 
  1870.9,1263.88 1875.6,1263.88 1880.31,1265.14 1885.02,1263.88 1889.72,1266.39 1894.43,1267.64 1899.13,1270.14 1903.84,1271.39 1908.54,1270.14 1913.25,1268.89 
  1917.95,1273.89 1922.66,1276.39 1927.37,1277.64 1932.07,1278.89 1936.78,1277.64 1941.48,1277.64 1946.19,1277.64 1950.89,1276.39 1955.6,1276.39 1960.3,1276.39 
  1965.01,1276.39 1969.72,1276.39 1974.42,1275.14 1979.13,1277.64 1983.83,1277.64 1988.54,1281.4 1993.24,1282.65 1997.95,1282.65 2002.65,1281.4 2007.36,1285.15 
  2012.07,1291.4 2016.77,1292.65 2021.48,1291.4 2026.18,1291.4 2030.89,1292.65 2035.59,1293.9 2040.3,1293.9 2045,1293.9 2049.71,1296.4 2054.42,1296.4 
  2059.12,1296.4 2063.83,1295.15 2068.53,1295.15 2073.24,1296.4 2077.94,1297.66 2082.65,1297.66 2087.36,1298.91 2092.06,1298.91 2096.77,1297.66 2101.47,1297.66 
  2106.18,1297.66 2110.88,1297.66 2115.59,1297.66 2120.29,1297.66 2125,1298.91 2129.71,1298.91 2134.41,1297.66 2139.12,1297.66 2143.82,1297.66 2148.53,1301.41 
  2153.23,1301.41 2157.94,1301.41 2162.64,1301.41 2167.35,1301.41 2172.06,1301.41 2176.76,1301.41 2181.47,1301.41 2186.17,1301.41 2190.88,1301.41 2195.58,1300.16 
  2200.29,1298.91 
  "/>
<polyline clip-path="url(#clip992)" style="stroke:#3da44d; stroke-linecap:butt; stroke-linejoin:round; stroke-width:4; stroke-opacity:1; fill:none" points="
  318.058,1322.67 322.764,1322.67 327.469,1322.67 332.175,1322.67 336.88,1322.67 341.586,1322.67 346.292,1322.67 350.997,1322.67 355.703,1321.42 360.408,1320.17 
  365.114,1320.17 369.819,1320.17 374.525,1320.17 379.231,1320.17 383.936,1320.17 388.642,1320.17 393.347,1320.17 398.053,1318.92 402.759,1318.92 407.464,1318.92 
  412.17,1318.92 416.875,1316.42 421.581,1313.92 426.286,1313.92 430.992,1313.92 435.698,1313.92 440.403,1313.92 445.109,1313.92 449.814,1313.92 454.52,1312.67 
  459.225,1312.67 463.931,1307.66 468.637,1307.66 473.342,1307.66 478.048,1307.66 482.753,1305.16 487.459,1305.16 492.164,1303.91 496.87,1302.66 501.576,1298.91 
  506.281,1298.91 510.987,1298.91 515.692,1298.91 520.398,1298.91 525.104,1296.4 529.809,1295.15 534.515,1292.65 539.22,1292.65 543.926,1292.65 548.631,1292.65 
  553.337,1291.4 558.043,1290.15 562.748,1287.65 567.454,1286.4 572.159,1286.4 576.865,1285.15 581.57,1285.15 586.276,1282.65 590.982,1282.65 595.687,1281.4 
  600.393,1278.89 605.098,1277.64 609.804,1276.39 614.51,1276.39 619.215,1273.89 623.921,1272.64 628.626,1268.89 633.332,1266.39 638.037,1266.39 642.743,1265.14 
  647.449,1261.38 652.154,1260.13 656.86,1258.88 661.565,1258.88 666.271,1258.88 670.976,1258.88 675.682,1258.88 680.388,1258.88 685.093,1258.88 689.799,1258.88 
  694.504,1258.88 699.21,1257.63 703.915,1252.63 708.621,1251.38 713.327,1248.88 718.032,1246.37 722.738,1246.37 727.443,1246.37 732.149,1246.37 736.855,1243.87 
  741.56,1240.12 746.266,1237.62 750.971,1237.62 755.677,1232.61 760.382,1230.11 765.088,1230.11 769.794,1228.86 774.499,1227.61 779.205,1222.61 783.91,1222.61 
  788.616,1222.61 793.321,1218.86 798.027,1216.35 802.733,1213.85 807.438,1212.6 812.144,1211.35 816.849,1208.85 821.555,1207.6 826.26,1205.1 830.966,1203.85 
  835.672,1203.85 840.377,1202.6 845.083,1201.35 849.788,1198.84 854.494,1196.34 859.2,1196.34 863.905,1192.59 868.611,1188.84 873.316,1188.84 878.022,1187.59 
  882.727,1185.08 887.433,1180.08 892.139,1180.08 896.844,1177.58 901.55,1176.33 906.255,1176.33 910.961,1173.83 915.666,1171.33 920.372,1170.08 925.078,1167.57 
  929.783,1166.32 934.489,1160.07 939.194,1158.82 943.9,1155.07 948.605,1151.31 953.311,1150.06 958.017,1150.06 962.722,1148.81 967.428,1148.81 972.133,1146.31 
  976.839,1145.06 981.545,1141.31 986.25,1138.81 990.956,1137.56 995.661,1133.8 1000.37,1128.8 1005.07,1127.55 1009.78,1122.55 1014.48,1120.04 1019.19,1117.54 
  1023.89,1113.79 1028.6,1110.04 1033.31,1107.54 1038.01,1101.28 1042.72,1096.28 1047.42,1092.53 1052.13,1090.03 1056.83,1086.27 1061.54,1083.77 1066.24,1080.02 
  1070.95,1077.52 1075.66,1070.01 1080.36,1067.51 1085.07,1063.76 1089.77,1062.51 1094.48,1056.25 1099.18,1053.75 1103.89,1051.25 1108.6,1043.75 1113.3,1038.74 
  1118.01,1033.74 1122.71,1028.74 1127.42,1027.49 1132.12,1027.49 1136.83,1017.48 1141.53,1011.23 1146.24,1006.22 1150.95,1001.22 1155.65,999.968 1160.36,996.216 
  1165.06,994.965 1169.77,988.711 1174.47,983.708 1179.18,976.204 1183.88,972.451 1188.59,968.699 1193.3,959.943 1198,957.442 1202.71,956.191 1207.41,948.686 
  1212.12,947.435 1216.82,941.181 1221.53,939.931 1226.23,937.429 1230.94,933.677 1235.65,928.674 1240.35,919.918 1245.06,918.667 1249.76,917.417 1254.47,916.166 
  1259.17,909.912 1263.88,903.658 1268.58,899.906 1273.29,893.652 1278,889.899 1282.7,887.398 1287.41,883.645 1292.11,878.642 1296.82,873.639 1301.52,868.636 
  1306.23,867.385 1310.93,863.633 1315.64,858.63 1320.35,854.877 1325.05,851.125 1329.76,848.623 1334.46,839.868 1339.17,833.614 1343.87,828.611 1348.58,824.858 
  1353.29,822.357 1357.99,819.855 1362.7,816.103 1367.4,812.35 1372.11,812.35 1376.81,804.846 1381.52,804.846 1386.22,802.344 1390.93,794.839 1395.64,791.087 
  1400.34,783.582 1405.05,779.83 1409.75,777.328 1414.46,776.078 1419.16,773.576 1423.87,772.325 1428.57,767.322 1433.28,764.821 1437.99,762.319 1442.69,756.065 
  1447.4,753.563 1452.1,748.56 1456.81,742.306 1461.51,741.056 1466.22,738.554 1470.92,737.303 1475.63,732.3 1480.34,727.297 1485.04,723.545 1489.75,718.541 
  1494.45,717.291 1499.16,712.287 1503.86,709.786 1508.57,707.284 1513.27,702.281 1517.98,694.776 1522.69,693.526 1527.39,691.024 1532.1,687.272 1536.8,683.519 
  1541.51,676.015 1546.21,674.764 1550.92,673.513 1555.62,671.012 1560.33,668.51 1565.04,664.758 1569.74,661.005 1574.45,661.005 1579.15,654.751 1583.86,654.751 
  1588.56,652.25 1593.27,649.748 1597.98,649.748 1602.68,644.745 1607.39,637.24 1612.09,635.989 1616.8,634.739 1621.5,632.237 1626.21,632.237 1630.91,630.986 
  1635.62,619.729 1640.33,619.729 1645.03,614.726 1649.74,609.723 1654.44,607.221 1659.15,603.469 1663.85,600.967 1668.56,595.964 1673.26,593.463 1677.97,590.961 
  1682.68,584.707 1687.38,583.456 1692.09,582.206 1696.79,579.704 1701.5,572.199 1706.2,572.199 1710.91,572.199 1715.61,570.949 1720.32,569.698 1725.03,569.698 
  1729.73,567.196 1734.44,565.945 1739.14,563.444 1743.85,563.444 1748.55,563.444 1753.26,560.942 1757.96,559.691 1762.67,557.19 1767.38,554.688 1772.08,550.936 
  1776.79,549.685 1781.49,549.685 1786.2,547.184 1790.9,545.933 1795.61,544.682 1800.31,540.93 1805.02,539.679 1809.73,537.177 1814.43,532.174 1819.14,532.174 
  1823.84,529.673 1828.55,527.171 1833.25,527.171 1837.96,524.669 1842.67,523.419 1847.37,520.917 1852.08,518.416 1856.78,517.165 1861.49,514.663 1866.19,514.663 
  1870.9,513.412 1875.6,512.162 1880.31,510.911 1885.02,509.66 1889.72,505.908 1894.43,504.657 1899.13,502.155 1903.84,500.904 1908.54,499.654 1913.25,499.654 
  1917.95,494.651 1922.66,492.149 1927.37,489.647 1932.07,487.146 1936.78,485.895 1941.48,485.895 1946.19,485.895 1950.89,484.644 1955.6,483.393 1960.3,482.143 
  1965.01,482.143 1969.72,482.143 1974.42,482.143 1979.13,479.641 1983.83,478.39 1988.54,473.387 1993.24,472.136 1997.95,470.886 2002.65,470.886 2007.36,467.133 
  2012.07,460.879 2016.77,459.629 2021.48,459.629 2026.18,459.629 2030.89,458.378 2035.59,457.127 2040.3,457.127 2045,457.127 2049.71,454.625 2054.42,454.625 
  2059.12,454.625 2063.83,454.625 2068.53,454.625 2073.24,453.375 2077.94,450.873 2082.65,449.622 2087.36,448.371 2092.06,447.121 2096.77,447.121 2101.47,447.121 
  2106.18,447.121 2110.88,447.121 2115.59,447.121 2120.29,447.121 2125,445.87 2129.71,445.87 2134.41,445.87 2139.12,445.87 2143.82,445.87 2148.53,442.118 
  2153.23,442.118 2157.94,440.867 2162.64,440.867 2167.35,440.867 2172.06,440.867 2176.76,440.867 2181.47,440.867 2186.17,440.867 2190.88,440.867 2195.58,439.616 
  2200.29,439.616 
  "/>
<path clip-path="url(#clip990)" d="
M1941.64 298.357 L2190.25 298.357 L2190.25 90.9966 L1941.64 90.9966  Z
  " fill="#ffffff" fill-rule="evenodd" fill-opacity="1"/>
<polyline clip-path="url(#clip990)" style="stroke:#000000; stroke-linecap:butt; stroke-linejoin:round; stroke-width:4; stroke-opacity:1; fill:none" points="
  1941.64,298.357 2190.25,298.357 2190.25,90.9966 1941.64,90.9966 1941.64,298.357 
  "/>
<polyline clip-path="url(#clip990)" style="stroke:#009af9; stroke-linecap:butt; stroke-linejoin:round; stroke-width:4; stroke-opacity:1; fill:none" points="
  1963.81,142.837 2096.82,142.837 
  "/>
<path clip-path="url(#clip990)" d="M2141.24 126.691 L2141.24 131.251 Q2138.58 129.978 2136.21 129.353 Q2133.85 128.728 2131.65 128.728 Q2127.83 128.728 2125.75 130.209 Q2123.69 131.691 2123.69 134.422 Q2123.69 136.714 2125.06 137.895 Q2126.45 139.052 2130.29 139.77 L2133.11 140.348 Q2138.34 141.344 2140.82 143.867 Q2143.32 146.367 2143.32 150.58 Q2143.32 155.603 2139.94 158.195 Q2136.58 160.788 2130.08 160.788 Q2127.63 160.788 2124.85 160.232 Q2122.09 159.677 2119.13 158.589 L2119.13 153.774 Q2121.98 155.371 2124.71 156.181 Q2127.44 156.992 2130.08 156.992 Q2134.08 156.992 2136.26 155.418 Q2138.44 153.844 2138.44 150.927 Q2138.44 148.381 2136.86 146.945 Q2135.31 145.51 2131.75 144.793 L2128.9 144.237 Q2123.67 143.195 2121.33 140.973 Q2118.99 138.751 2118.99 134.793 Q2118.99 130.209 2122.21 127.57 Q2125.45 124.932 2131.12 124.932 Q2133.55 124.932 2136.08 125.371 Q2138.6 125.811 2141.24 126.691 Z" fill="#000000" fill-rule="evenodd" fill-opacity="1" /><polyline clip-path="url(#clip990)" style="stroke:#e26f46; stroke-linecap:butt; stroke-linejoin:round; stroke-width:4; stroke-opacity:1; fill:none" points="
  1963.81,194.677 2096.82,194.677 
  "/>
<path clip-path="url(#clip990)" d="M2118.99 177.397 L2123.67 177.397 L2123.67 211.957 L2118.99 211.957 L2118.99 177.397 Z" fill="#000000" fill-rule="evenodd" fill-opacity="1" /><polyline clip-path="url(#clip990)" style="stroke:#3da44d; stroke-linecap:butt; stroke-linejoin:round; stroke-width:4; stroke-opacity:1; fill:none" points="
  1963.81,246.517 2096.82,246.517 
  "/>
<path clip-path="url(#clip990)" d="M2135.38 247.593 Q2136.89 248.102 2138.3 249.769 Q2139.73 251.436 2141.17 254.352 L2145.91 263.797 L2140.89 263.797 L2136.47 254.931 Q2134.76 251.459 2133.14 250.324 Q2131.54 249.19 2128.76 249.19 L2123.67 249.19 L2123.67 263.797 L2118.99 263.797 L2118.99 229.237 L2129.55 229.237 Q2135.47 229.237 2138.39 231.713 Q2141.31 234.19 2141.31 239.19 Q2141.31 242.454 2139.78 244.607 Q2138.27 246.76 2135.38 247.593 M2123.67 233.079 L2123.67 245.348 L2129.55 245.348 Q2132.93 245.348 2134.64 243.797 Q2136.38 242.223 2136.38 239.19 Q2136.38 236.158 2134.64 234.63 Q2132.93 233.079 2129.55 233.079 L2123.67 233.079 Z" fill="#000000" fill-rule="evenodd" fill-opacity="1" /></svg>
