<?xml version="1.0" encoding="utf-8"?>
<svg xmlns="http://www.w3.org/2000/svg" xmlns:xlink="http://www.w3.org/1999/xlink" width="576" height="384" viewBox="0 0 2304 1536">
<defs>
  <clipPath id="clip180">
    <rect x="0" y="0" width="2304" height="1536"/>
  </clipPath>
</defs>
<path clip-path="url(#clip180)" d="
M0 1536 L2304 1536 L2304 0 L0 0  Z
  " fill="#ffffff" fill-rule="evenodd" fill-opacity="1"/>
<defs>
  <clipPath id="clip181">
    <rect x="460" y="0" width="1614" height="1536"/>
  </clipPath>
</defs>
<path clip-path="url(#clip180)" d="
M250.92 1359.82 L2256.76 1359.82 L2256.76 123.472 L250.92 123.472  Z
  " fill="#ffffff" fill-rule="evenodd" fill-opacity="1"/>
<defs>
  <clipPath id="clip182">
    <rect x="250" y="123" width="2007" height="1237"/>
  </clipPath>
</defs>
<polyline clip-path="url(#clip182)" style="stroke:#000000; stroke-width:2; stroke-opacity:0.1; fill:none" points="
  307.689,1359.82 307.689,123.472 
  "/>
<polyline clip-path="url(#clip182)" style="stroke:#000000; stroke-width:2; stroke-opacity:0.1; fill:none" points="
  780.763,1359.82 780.763,123.472 
  "/>
<polyline clip-path="url(#clip182)" style="stroke:#000000; stroke-width:2; stroke-opacity:0.1; fill:none" points="
  1253.84,1359.82 1253.84,123.472 
  "/>
<polyline clip-path="url(#clip182)" style="stroke:#000000; stroke-width:2; stroke-opacity:0.1; fill:none" points="
  1726.91,1359.82 1726.91,123.472 
  "/>
<polyline clip-path="url(#clip182)" style="stroke:#000000; stroke-width:2; stroke-opacity:0.1; fill:none" points="
  2199.99,1359.82 2199.99,123.472 
  "/>
<polyline clip-path="url(#clip182)" style="stroke:#000000; stroke-width:2; stroke-opacity:0.1; fill:none" points="
  250.92,1324.83 2256.76,1324.83 
  "/>
<polyline clip-path="url(#clip182)" style="stroke:#000000; stroke-width:2; stroke-opacity:0.1; fill:none" points="
  250.92,1030.29 2256.76,1030.29 
  "/>
<polyline clip-path="url(#clip182)" style="stroke:#000000; stroke-width:2; stroke-opacity:0.1; fill:none" points="
  250.92,735.755 2256.76,735.755 
  "/>
<polyline clip-path="url(#clip182)" style="stroke:#000000; stroke-width:2; stroke-opacity:0.1; fill:none" points="
  250.92,441.218 2256.76,441.218 
  "/>
<polyline clip-path="url(#clip182)" style="stroke:#000000; stroke-width:2; stroke-opacity:0.1; fill:none" points="
  250.92,146.682 2256.76,146.682 
  "/>
<polyline clip-path="url(#clip180)" style="stroke:#000000; stroke-width:4; stroke-opacity:1; fill:none" points="
  250.92,1359.82 2256.76,1359.82 
  "/>
<polyline clip-path="url(#clip180)" style="stroke:#000000; stroke-width:4; stroke-opacity:1; fill:none" points="
  250.92,1359.82 250.92,123.472 
  "/>
<polyline clip-path="url(#clip180)" style="stroke:#000000; stroke-width:4; stroke-opacity:1; fill:none" points="
  307.689,1359.82 307.689,1344.98 
  "/>
<polyline clip-path="url(#clip180)" style="stroke:#000000; stroke-width:4; stroke-opacity:1; fill:none" points="
  780.763,1359.82 780.763,1344.98 
  "/>
<polyline clip-path="url(#clip180)" style="stroke:#000000; stroke-width:4; stroke-opacity:1; fill:none" points="
  1253.84,1359.82 1253.84,1344.98 
  "/>
<polyline clip-path="url(#clip180)" style="stroke:#000000; stroke-width:4; stroke-opacity:1; fill:none" points="
  1726.91,1359.82 1726.91,1344.98 
  "/>
<polyline clip-path="url(#clip180)" style="stroke:#000000; stroke-width:4; stroke-opacity:1; fill:none" points="
  2199.99,1359.82 2199.99,1344.98 
  "/>
<polyline clip-path="url(#clip180)" style="stroke:#000000; stroke-width:4; stroke-opacity:1; fill:none" points="
  250.92,1324.83 274.99,1324.83 
  "/>
<polyline clip-path="url(#clip180)" style="stroke:#000000; stroke-width:4; stroke-opacity:1; fill:none" points="
  250.92,1030.29 274.99,1030.29 
  "/>
<polyline clip-path="url(#clip180)" style="stroke:#000000; stroke-width:4; stroke-opacity:1; fill:none" points="
  250.92,735.755 274.99,735.755 
  "/>
<polyline clip-path="url(#clip180)" style="stroke:#000000; stroke-width:4; stroke-opacity:1; fill:none" points="
  250.92,441.218 274.99,441.218 
  "/>
<polyline clip-path="url(#clip180)" style="stroke:#000000; stroke-width:4; stroke-opacity:1; fill:none" points="
  250.92,146.682 274.99,146.682 
  "/>
<path clip-path="url(#clip180)" d="M 0 0 M307.689 1381.33 Q304.078 1381.33 302.249 1384.9 Q300.444 1388.44 300.444 1395.57 Q300.444 1402.67 302.249 1406.24 Q304.078 1409.78 307.689 1409.78 Q311.323 1409.78 313.129 1406.24 Q314.957 1402.67 314.957 1395.57 Q314.957 1388.44 313.129 1384.9 Q311.323 1381.33 307.689 1381.33 M307.689 1377.63 Q313.499 1377.63 316.555 1382.23 Q319.633 1386.82 319.633 1395.57 Q319.633 1404.29 316.555 1408.9 Q313.499 1413.48 307.689 1413.48 Q301.879 1413.48 298.8 1408.9 Q295.745 1404.29 295.745 1395.57 Q295.745 1386.82 298.8 1382.23 Q301.879 1377.63 307.689 1377.63 Z" fill="#000000" fill-rule="evenodd" fill-opacity="1" /><path clip-path="url(#clip180)" d="M 0 0 M757.639 1408.88 L765.277 1408.88 L765.277 1382.51 L756.967 1384.18 L756.967 1379.92 L765.231 1378.25 L769.907 1378.25 L769.907 1408.88 L777.546 1408.88 L777.546 1412.81 L757.639 1412.81 L757.639 1408.88 Z" fill="#000000" fill-rule="evenodd" fill-opacity="1" /><path clip-path="url(#clip180)" d="M 0 0 M792.615 1381.33 Q789.004 1381.33 787.175 1384.9 Q785.37 1388.44 785.37 1395.57 Q785.37 1402.67 787.175 1406.24 Q789.004 1409.78 792.615 1409.78 Q796.249 1409.78 798.055 1406.24 Q799.884 1402.67 799.884 1395.57 Q799.884 1388.44 798.055 1384.9 Q796.249 1381.33 792.615 1381.33 M792.615 1377.63 Q798.425 1377.63 801.481 1382.23 Q804.56 1386.82 804.56 1395.57 Q804.56 1404.29 801.481 1408.9 Q798.425 1413.48 792.615 1413.48 Q786.805 1413.48 783.726 1408.9 Q780.671 1404.29 780.671 1395.57 Q780.671 1386.82 783.726 1382.23 Q786.805 1377.63 792.615 1377.63 Z" fill="#000000" fill-rule="evenodd" fill-opacity="1" /><path clip-path="url(#clip180)" d="M 0 0 M1234.98 1408.88 L1251.3 1408.88 L1251.3 1412.81 L1229.36 1412.81 L1229.36 1408.88 Q1232.02 1406.12 1236.6 1401.49 Q1241.21 1396.84 1242.39 1395.5 Q1244.64 1392.97 1245.52 1391.24 Q1246.42 1389.48 1246.42 1387.79 Q1246.42 1385.03 1244.47 1383.3 Q1242.55 1381.56 1239.45 1381.56 Q1237.25 1381.56 1234.8 1382.33 Q1232.37 1383.09 1229.59 1384.64 L1229.59 1379.92 Q1232.41 1378.78 1234.87 1378.21 Q1237.32 1377.63 1239.36 1377.63 Q1244.73 1377.63 1247.92 1380.31 Q1251.12 1383 1251.12 1387.49 Q1251.12 1389.62 1250.31 1391.54 Q1249.52 1393.44 1247.41 1396.03 Q1246.84 1396.7 1243.73 1399.92 Q1240.63 1403.11 1234.98 1408.88 Z" fill="#000000" fill-rule="evenodd" fill-opacity="1" /><path clip-path="url(#clip180)" d="M 0 0 M1266.37 1381.33 Q1262.76 1381.33 1260.93 1384.9 Q1259.13 1388.44 1259.13 1395.57 Q1259.13 1402.67 1260.93 1406.24 Q1262.76 1409.78 1266.37 1409.78 Q1270.01 1409.78 1271.81 1406.24 Q1273.64 1402.67 1273.64 1395.57 Q1273.64 1388.44 1271.81 1384.9 Q1270.01 1381.33 1266.37 1381.33 M1266.37 1377.63 Q1272.18 1377.63 1275.24 1382.23 Q1278.32 1386.82 1278.32 1395.57 Q1278.32 1404.29 1275.24 1408.9 Q1272.18 1413.48 1266.37 1413.48 Q1260.56 1413.48 1257.48 1408.9 Q1254.43 1404.29 1254.43 1395.57 Q1254.43 1386.82 1257.48 1382.23 Q1260.56 1377.63 1266.37 1377.63 Z" fill="#000000" fill-rule="evenodd" fill-opacity="1" /><path clip-path="url(#clip180)" d="M 0 0 M1717.65 1394.18 Q1721.01 1394.9 1722.88 1397.16 Q1724.78 1399.43 1724.78 1402.77 Q1724.78 1407.88 1721.26 1410.68 Q1717.75 1413.48 1711.26 1413.48 Q1709.09 1413.48 1706.77 1413.04 Q1704.48 1412.63 1702.03 1411.77 L1702.03 1407.26 Q1703.97 1408.39 1706.29 1408.97 Q1708.6 1409.55 1711.13 1409.55 Q1715.52 1409.55 1717.82 1407.81 Q1720.13 1406.08 1720.13 1402.77 Q1720.13 1399.71 1717.98 1398 Q1715.85 1396.26 1712.03 1396.26 L1708 1396.26 L1708 1392.42 L1712.21 1392.42 Q1715.66 1392.42 1717.49 1391.05 Q1719.32 1389.66 1719.32 1387.07 Q1719.32 1384.41 1717.42 1383 Q1715.55 1381.56 1712.03 1381.56 Q1710.11 1381.56 1707.91 1381.98 Q1705.71 1382.4 1703.07 1383.27 L1703.07 1379.11 Q1705.73 1378.37 1708.05 1378 Q1710.38 1377.63 1712.44 1377.63 Q1717.77 1377.63 1720.87 1380.06 Q1723.97 1382.46 1723.97 1386.59 Q1723.97 1389.46 1722.33 1391.45 Q1720.69 1393.41 1717.65 1394.18 Z" fill="#000000" fill-rule="evenodd" fill-opacity="1" /><path clip-path="url(#clip180)" d="M 0 0 M1739.85 1381.33 Q1736.24 1381.33 1734.41 1384.9 Q1732.61 1388.44 1732.61 1395.57 Q1732.61 1402.67 1734.41 1406.24 Q1736.24 1409.78 1739.85 1409.78 Q1743.49 1409.78 1745.29 1406.24 Q1747.12 1402.67 1747.12 1395.57 Q1747.12 1388.44 1745.29 1384.9 Q1743.49 1381.33 1739.85 1381.33 M1739.85 1377.63 Q1745.66 1377.63 1748.72 1382.23 Q1751.8 1386.82 1751.8 1395.57 Q1751.8 1404.29 1748.72 1408.9 Q1745.66 1413.48 1739.85 1413.48 Q1734.04 1413.48 1730.96 1408.9 Q1727.91 1404.29 1727.91 1395.57 Q1727.91 1386.82 1730.96 1382.23 Q1734.04 1377.63 1739.85 1377.63 Z" fill="#000000" fill-rule="evenodd" fill-opacity="1" /><path clip-path="url(#clip180)" d="M 0 0 M2189.49 1382.33 L2177.68 1400.77 L2189.49 1400.77 L2189.49 1382.33 M2188.26 1378.25 L2194.14 1378.25 L2194.14 1400.77 L2199.07 1400.77 L2199.07 1404.66 L2194.14 1404.66 L2194.14 1412.81 L2189.49 1412.81 L2189.49 1404.66 L2173.89 1404.66 L2173.89 1400.15 L2188.26 1378.25 Z" fill="#000000" fill-rule="evenodd" fill-opacity="1" /><path clip-path="url(#clip180)" d="M 0 0 M2214.14 1381.33 Q2210.53 1381.33 2208.7 1384.9 Q2206.9 1388.44 2206.9 1395.57 Q2206.9 1402.67 2208.7 1406.24 Q2210.53 1409.78 2214.14 1409.78 Q2217.78 1409.78 2219.58 1406.24 Q2221.41 1402.67 2221.41 1395.57 Q2221.41 1388.44 2219.58 1384.9 Q2217.78 1381.33 2214.14 1381.33 M2214.14 1377.63 Q2219.95 1377.63 2223.01 1382.23 Q2226.09 1386.82 2226.09 1395.57 Q2226.09 1404.29 2223.01 1408.9 Q2219.95 1413.48 2214.14 1413.48 Q2208.33 1413.48 2205.25 1408.9 Q2202.2 1404.29 2202.2 1395.57 Q2202.2 1386.82 2205.25 1382.23 Q2208.33 1377.63 2214.14 1377.63 Z" fill="#000000" fill-rule="evenodd" fill-opacity="1" /><path clip-path="url(#clip180)" d="M 0 0 M215.936 1310.63 Q212.325 1310.63 210.496 1314.19 Q208.69 1317.73 208.69 1324.86 Q208.69 1331.97 210.496 1335.53 Q212.325 1339.08 215.936 1339.08 Q219.57 1339.08 221.375 1335.53 Q223.204 1331.97 223.204 1324.86 Q223.204 1317.73 221.375 1314.19 Q219.57 1310.63 215.936 1310.63 M215.936 1306.92 Q221.746 1306.92 224.801 1311.53 Q227.88 1316.11 227.88 1324.86 Q227.88 1333.59 224.801 1338.2 Q221.746 1342.78 215.936 1342.78 Q210.125 1342.78 207.047 1338.2 Q203.991 1333.59 203.991 1324.86 Q203.991 1316.11 207.047 1311.53 Q210.125 1306.92 215.936 1306.92 Z" fill="#000000" fill-rule="evenodd" fill-opacity="1" /><path clip-path="url(#clip180)" d="M 0 0 M158.529 1043.64 L174.848 1043.64 L174.848 1047.57 L152.904 1047.57 L152.904 1043.64 Q155.566 1040.88 160.149 1036.25 Q164.755 1031.6 165.936 1030.26 Q168.181 1027.73 169.061 1026 Q169.964 1024.24 169.964 1022.55 Q169.964 1019.79 168.019 1018.06 Q166.098 1016.32 162.996 1016.32 Q160.797 1016.32 158.343 1017.09 Q155.913 1017.85 153.135 1019.4 L153.135 1014.68 Q155.959 1013.54 158.413 1012.97 Q160.866 1012.39 162.903 1012.39 Q168.274 1012.39 171.468 1015.07 Q174.663 1017.76 174.663 1022.25 Q174.663 1024.38 173.852 1026.3 Q173.065 1028.2 170.959 1030.79 Q170.38 1031.46 167.278 1034.68 Q164.177 1037.87 158.529 1043.64 Z" fill="#000000" fill-rule="evenodd" fill-opacity="1" /><path clip-path="url(#clip180)" d="M 0 0 M179.964 1013.01 L198.32 1013.01 L198.32 1016.95 L184.246 1016.95 L184.246 1025.42 Q185.264 1025.07 186.283 1024.91 Q187.301 1024.72 188.32 1024.72 Q194.107 1024.72 197.487 1027.9 Q200.866 1031.07 200.866 1036.48 Q200.866 1042.06 197.394 1045.16 Q193.922 1048.24 187.602 1048.24 Q185.427 1048.24 183.158 1047.87 Q180.913 1047.5 178.505 1046.76 L178.505 1042.06 Q180.589 1043.2 182.811 1043.75 Q185.033 1044.31 187.51 1044.31 Q191.514 1044.31 193.852 1042.2 Q196.19 1040.1 196.19 1036.48 Q196.19 1032.87 193.852 1030.77 Q191.514 1028.66 187.51 1028.66 Q185.635 1028.66 183.76 1029.08 Q181.908 1029.49 179.964 1030.37 L179.964 1013.01 Z" fill="#000000" fill-rule="evenodd" fill-opacity="1" /><path clip-path="url(#clip180)" d="M 0 0 M215.936 1016.09 Q212.325 1016.09 210.496 1019.66 Q208.69 1023.2 208.69 1030.33 Q208.69 1037.43 210.496 1041 Q212.325 1044.54 215.936 1044.54 Q219.57 1044.54 221.375 1041 Q223.204 1037.43 223.204 1030.33 Q223.204 1023.2 221.375 1019.66 Q219.57 1016.09 215.936 1016.09 M215.936 1012.39 Q221.746 1012.39 224.801 1016.99 Q227.88 1021.58 227.88 1030.33 Q227.88 1039.05 224.801 1043.66 Q221.746 1048.24 215.936 1048.24 Q210.125 1048.24 207.047 1043.66 Q203.991 1039.05 203.991 1030.33 Q203.991 1021.58 207.047 1016.99 Q210.125 1012.39 215.936 1012.39 Z" fill="#000000" fill-rule="evenodd" fill-opacity="1" /><path clip-path="url(#clip180)" d="M 0 0 M152.95 718.475 L171.306 718.475 L171.306 722.41 L157.232 722.41 L157.232 730.883 Q158.251 730.535 159.269 730.373 Q160.288 730.188 161.306 730.188 Q167.093 730.188 170.473 733.359 Q173.852 736.531 173.852 741.947 Q173.852 747.526 170.38 750.628 Q166.908 753.707 160.589 753.707 Q158.413 753.707 156.144 753.336 Q153.899 752.966 151.492 752.225 L151.492 747.526 Q153.575 748.66 155.797 749.216 Q158.019 749.771 160.496 749.771 Q164.501 749.771 166.839 747.665 Q169.177 745.558 169.177 741.947 Q169.177 738.336 166.839 736.23 Q164.501 734.123 160.496 734.123 Q158.621 734.123 156.746 734.54 Q154.894 734.957 152.95 735.836 L152.95 718.475 Z" fill="#000000" fill-rule="evenodd" fill-opacity="1" /><path clip-path="url(#clip180)" d="M 0 0 M188.922 721.554 Q185.311 721.554 183.482 725.119 Q181.677 728.66 181.677 735.79 Q181.677 742.896 183.482 746.461 Q185.311 750.003 188.922 750.003 Q192.556 750.003 194.362 746.461 Q196.19 742.896 196.19 735.79 Q196.19 728.66 194.362 725.119 Q192.556 721.554 188.922 721.554 M188.922 717.85 Q194.732 717.85 197.788 722.457 Q200.866 727.04 200.866 735.79 Q200.866 744.517 197.788 749.123 Q194.732 753.707 188.922 753.707 Q183.112 753.707 180.033 749.123 Q176.977 744.517 176.977 735.79 Q176.977 727.04 180.033 722.457 Q183.112 717.85 188.922 717.85 Z" fill="#000000" fill-rule="evenodd" fill-opacity="1" /><path clip-path="url(#clip180)" d="M 0 0 M215.936 721.554 Q212.325 721.554 210.496 725.119 Q208.69 728.66 208.69 735.79 Q208.69 742.896 210.496 746.461 Q212.325 750.003 215.936 750.003 Q219.57 750.003 221.375 746.461 Q223.204 742.896 223.204 735.79 Q223.204 728.66 221.375 725.119 Q219.57 721.554 215.936 721.554 M215.936 717.85 Q221.746 717.85 224.801 722.457 Q227.88 727.04 227.88 735.79 Q227.88 744.517 224.801 749.123 Q221.746 753.707 215.936 753.707 Q210.125 753.707 207.047 749.123 Q203.991 744.517 203.991 735.79 Q203.991 727.04 207.047 722.457 Q210.125 717.85 215.936 717.85 Z" fill="#000000" fill-rule="evenodd" fill-opacity="1" /><path clip-path="url(#clip180)" d="M 0 0 M152.626 423.938 L174.848 423.938 L174.848 425.929 L162.302 458.498 L157.417 458.498 L169.223 427.874 L152.626 427.874 L152.626 423.938 Z" fill="#000000" fill-rule="evenodd" fill-opacity="1" /><path clip-path="url(#clip180)" d="M 0 0 M179.964 423.938 L198.32 423.938 L198.32 427.874 L184.246 427.874 L184.246 436.346 Q185.264 435.999 186.283 435.837 Q187.301 435.651 188.32 435.651 Q194.107 435.651 197.487 438.823 Q200.866 441.994 200.866 447.411 Q200.866 452.989 197.394 456.091 Q193.922 459.17 187.602 459.17 Q185.427 459.17 183.158 458.799 Q180.913 458.429 178.505 457.688 L178.505 452.989 Q180.589 454.123 182.811 454.679 Q185.033 455.235 187.51 455.235 Q191.514 455.235 193.852 453.128 Q196.19 451.022 196.19 447.411 Q196.19 443.799 193.852 441.693 Q191.514 439.587 187.51 439.587 Q185.635 439.587 183.76 440.003 Q181.908 440.42 179.964 441.299 L179.964 423.938 Z" fill="#000000" fill-rule="evenodd" fill-opacity="1" /><path clip-path="url(#clip180)" d="M 0 0 M215.936 427.017 Q212.325 427.017 210.496 430.582 Q208.69 434.124 208.69 441.253 Q208.69 448.36 210.496 451.924 Q212.325 455.466 215.936 455.466 Q219.57 455.466 221.375 451.924 Q223.204 448.36 223.204 441.253 Q223.204 434.124 221.375 430.582 Q219.57 427.017 215.936 427.017 M215.936 423.313 Q221.746 423.313 224.801 427.92 Q227.88 432.503 227.88 441.253 Q227.88 449.98 224.801 454.586 Q221.746 459.17 215.936 459.17 Q210.125 459.17 207.047 454.586 Q203.991 449.98 203.991 441.253 Q203.991 432.503 207.047 427.92 Q210.125 423.313 215.936 423.313 Z" fill="#000000" fill-rule="evenodd" fill-opacity="1" /><path clip-path="url(#clip180)" d="M 0 0 M126.931 160.026 L134.57 160.026 L134.57 133.661 L126.26 135.328 L126.26 131.068 L134.524 129.402 L139.2 129.402 L139.2 160.026 L146.839 160.026 L146.839 163.962 L126.931 163.962 L126.931 160.026 Z" fill="#000000" fill-rule="evenodd" fill-opacity="1" /><path clip-path="url(#clip180)" d="M 0 0 M161.908 132.48 Q158.297 132.48 156.468 136.045 Q154.663 139.587 154.663 146.716 Q154.663 153.823 156.468 157.388 Q158.297 160.929 161.908 160.929 Q165.542 160.929 167.348 157.388 Q169.177 153.823 169.177 146.716 Q169.177 139.587 167.348 136.045 Q165.542 132.48 161.908 132.48 M161.908 128.777 Q167.718 128.777 170.774 133.383 Q173.852 137.966 173.852 146.716 Q173.852 155.443 170.774 160.05 Q167.718 164.633 161.908 164.633 Q156.098 164.633 153.019 160.05 Q149.964 155.443 149.964 146.716 Q149.964 137.966 153.019 133.383 Q156.098 128.777 161.908 128.777 Z" fill="#000000" fill-rule="evenodd" fill-opacity="1" /><path clip-path="url(#clip180)" d="M 0 0 M188.922 132.48 Q185.311 132.48 183.482 136.045 Q181.677 139.587 181.677 146.716 Q181.677 153.823 183.482 157.388 Q185.311 160.929 188.922 160.929 Q192.556 160.929 194.362 157.388 Q196.19 153.823 196.19 146.716 Q196.19 139.587 194.362 136.045 Q192.556 132.48 188.922 132.48 M188.922 128.777 Q194.732 128.777 197.788 133.383 Q200.866 137.966 200.866 146.716 Q200.866 155.443 197.788 160.05 Q194.732 164.633 188.922 164.633 Q183.112 164.633 180.033 160.05 Q176.977 155.443 176.977 146.716 Q176.977 137.966 180.033 133.383 Q183.112 128.777 188.922 128.777 Z" fill="#000000" fill-rule="evenodd" fill-opacity="1" /><path clip-path="url(#clip180)" d="M 0 0 M215.936 132.48 Q212.325 132.48 210.496 136.045 Q208.69 139.587 208.69 146.716 Q208.69 153.823 210.496 157.388 Q212.325 160.929 215.936 160.929 Q219.57 160.929 221.375 157.388 Q223.204 153.823 223.204 146.716 Q223.204 139.587 221.375 136.045 Q219.57 132.48 215.936 132.48 M215.936 128.777 Q221.746 128.777 224.801 133.383 Q227.88 137.966 227.88 146.716 Q227.88 155.443 224.801 160.05 Q221.746 164.633 215.936 164.633 Q210.125 164.633 207.047 160.05 Q203.991 155.443 203.991 146.716 Q203.991 137.966 207.047 133.383 Q210.125 128.777 215.936 128.777 Z" fill="#000000" fill-rule="evenodd" fill-opacity="1" /><path clip-path="url(#clip180)" d="M 0 0 M1067.17 12.096 L1078.19 12.096 L1105.01 62.6918 L1105.01 12.096 L1112.95 12.096 L1112.95 72.576 L1101.93 72.576 L1075.11 21.9802 L1075.11 72.576 L1067.17 72.576 L1067.17 12.096 Z" fill="#000000" fill-rule="evenodd" fill-opacity="1" /><path clip-path="url(#clip180)" d="M 0 0 M1159.57 48.0275 L1159.57 51.6733 L1125.3 51.6733 Q1125.79 59.3701 1129.92 63.421 Q1134.09 67.4314 1141.51 67.4314 Q1145.8 67.4314 1149.81 66.3781 Q1153.86 65.3249 1157.83 63.2184 L1157.83 70.267 Q1153.82 71.9684 1149.61 72.8596 Q1145.4 73.7508 1141.06 73.7508 Q1130.2 73.7508 1123.84 67.4314 Q1117.53 61.1119 1117.53 50.3365 Q1117.53 39.1965 1123.52 32.6746 Q1129.56 26.1121 1139.76 26.1121 Q1148.92 26.1121 1154.23 32.0264 Q1159.57 37.9003 1159.57 48.0275 M1152.12 45.84 Q1152.04 39.7232 1148.68 36.0774 Q1145.35 32.4315 1139.85 32.4315 Q1133.61 32.4315 1129.84 35.9558 Q1126.11 39.4801 1125.55 45.8805 L1152.12 45.84 Z" fill="#000000" fill-rule="evenodd" fill-opacity="1" /><path clip-path="url(#clip180)" d="M 0 0 M1163.06 27.2059 L1170.51 27.2059 L1179.83 62.6108 L1189.1 27.2059 L1197.89 27.2059 L1207.21 62.6108 L1216.49 27.2059 L1223.94 27.2059 L1212.07 72.576 L1203.28 72.576 L1193.52 35.3887 L1183.72 72.576 L1174.93 72.576 L1163.06 27.2059 Z" fill="#000000" fill-rule="evenodd" fill-opacity="1" /><path clip-path="url(#clip180)" d="M 0 0 M1287.06 28.5427 L1287.06 35.5912 Q1283.9 33.9709 1280.49 33.1607 Q1277.09 32.3505 1273.44 32.3505 Q1267.89 32.3505 1265.1 34.0519 Q1262.34 35.7533 1262.34 39.156 Q1262.34 41.7486 1264.33 43.2475 Q1266.31 44.7058 1272.31 46.0426 L1274.86 46.6097 Q1282.8 48.3111 1286.12 51.4303 Q1289.49 54.509 1289.49 60.0587 Q1289.49 66.3781 1284.46 70.0644 Q1279.48 73.7508 1270.73 73.7508 Q1267.08 73.7508 1263.11 73.0216 Q1259.19 72.3329 1254.81 70.9151 L1254.81 63.2184 Q1258.94 65.3654 1262.95 66.4591 Q1266.96 67.5124 1270.89 67.5124 Q1276.16 67.5124 1278.99 65.73 Q1281.83 63.9071 1281.83 60.6258 Q1281.83 57.5877 1279.76 55.9673 Q1277.74 54.3469 1270.81 52.8481 L1268.22 52.2405 Q1261.29 50.7821 1258.21 47.7845 Q1255.13 44.7463 1255.13 39.4801 Q1255.13 33.0797 1259.67 29.5959 Q1264.21 26.1121 1272.55 26.1121 Q1276.69 26.1121 1280.33 26.7198 Q1283.98 27.3274 1287.06 28.5427 Z" fill="#000000" fill-rule="evenodd" fill-opacity="1" /><path clip-path="url(#clip180)" d="M 0 0 M1304.68 14.324 L1304.68 27.2059 L1320.03 27.2059 L1320.03 32.9987 L1304.68 32.9987 L1304.68 57.6282 Q1304.68 63.1779 1306.18 64.7578 Q1307.71 66.3376 1312.37 66.3376 L1320.03 66.3376 L1320.03 72.576 L1312.37 72.576 Q1303.75 72.576 1300.46 69.3758 Q1297.18 66.1351 1297.18 57.6282 L1297.18 32.9987 L1291.71 32.9987 L1291.71 27.2059 L1297.18 27.2059 L1297.18 14.324 L1304.68 14.324 Z" fill="#000000" fill-rule="evenodd" fill-opacity="1" /><path clip-path="url(#clip180)" d="M 0 0 M1348.47 49.7694 Q1339.43 49.7694 1335.95 51.8354 Q1332.47 53.9013 1332.47 58.8839 Q1332.47 62.8538 1335.06 65.2034 Q1337.69 67.5124 1342.19 67.5124 Q1348.39 67.5124 1352.11 63.1374 Q1355.88 58.7219 1355.88 51.4303 L1355.88 49.7694 L1348.47 49.7694 M1363.33 46.6907 L1363.33 72.576 L1355.88 72.576 L1355.88 65.6895 Q1353.33 69.8214 1349.52 71.8063 Q1345.71 73.7508 1340.2 73.7508 Q1333.24 73.7508 1329.1 69.8619 Q1325.01 65.9325 1325.01 59.3701 Q1325.01 51.7138 1330.12 47.825 Q1335.26 43.9361 1345.43 43.9361 L1355.88 43.9361 L1355.88 43.2069 Q1355.88 38.0623 1352.48 35.2672 Q1349.12 32.4315 1343 32.4315 Q1339.11 32.4315 1335.42 33.3632 Q1331.74 34.295 1328.33 36.1584 L1328.33 29.2718 Q1332.43 27.692 1336.27 26.9223 Q1340.12 26.1121 1343.77 26.1121 Q1353.61 26.1121 1358.47 31.2163 Q1363.33 36.3204 1363.33 46.6907 Z" fill="#000000" fill-rule="evenodd" fill-opacity="1" /><path clip-path="url(#clip180)" d="M 0 0 M1378.52 14.324 L1378.52 27.2059 L1393.88 27.2059 L1393.88 32.9987 L1378.52 32.9987 L1378.52 57.6282 Q1378.52 63.1779 1380.02 64.7578 Q1381.56 66.3376 1386.22 66.3376 L1393.88 66.3376 L1393.88 72.576 L1386.22 72.576 Q1377.59 72.576 1374.31 69.3758 Q1371.03 66.1351 1371.03 57.6282 L1371.03 32.9987 L1365.56 32.9987 L1365.56 27.2059 L1371.03 27.2059 L1371.03 14.324 L1378.52 14.324 Z" fill="#000000" fill-rule="evenodd" fill-opacity="1" /><path clip-path="url(#clip180)" d="M 0 0 M1440.5 48.0275 L1440.5 51.6733 L1406.23 51.6733 Q1406.72 59.3701 1410.85 63.421 Q1415.02 67.4314 1422.44 67.4314 Q1426.73 67.4314 1430.74 66.3781 Q1434.79 65.3249 1438.76 63.2184 L1438.76 70.267 Q1434.75 71.9684 1430.54 72.8596 Q1426.33 73.7508 1421.99 73.7508 Q1411.13 73.7508 1404.77 67.4314 Q1398.46 61.1119 1398.46 50.3365 Q1398.46 39.1965 1404.45 32.6746 Q1410.49 26.1121 1420.69 26.1121 Q1429.85 26.1121 1435.16 32.0264 Q1440.5 37.9003 1440.5 48.0275 M1433.05 45.84 Q1432.97 39.7232 1429.61 36.0774 Q1426.28 32.4315 1420.78 32.4315 Q1414.54 32.4315 1410.77 35.9558 Q1407.04 39.4801 1406.48 45.8805 L1433.05 45.84 Z" fill="#000000" fill-rule="evenodd" fill-opacity="1" /><path clip-path="url(#clip180)" d="M 0 0 M1181.44 1444.2 L1221.64 1444.2 L1221.64 1449.61 L1204.77 1449.61 L1204.77 1491.72 L1198.31 1491.72 L1198.31 1449.61 L1181.44 1449.61 L1181.44 1444.2 Z" fill="#000000" fill-rule="evenodd" fill-opacity="1" /><path clip-path="url(#clip180)" d="M 0 0 M1225.78 1456.08 L1231.64 1456.08 L1231.64 1491.72 L1225.78 1491.72 L1225.78 1456.08 M1225.78 1442.2 L1231.64 1442.2 L1231.64 1449.61 L1225.78 1449.61 L1225.78 1442.2 Z" fill="#000000" fill-rule="evenodd" fill-opacity="1" /><path clip-path="url(#clip180)" d="M 0 0 M1265.53 1462.92 Q1267.73 1458.97 1270.79 1457.09 Q1273.84 1455.22 1277.98 1455.22 Q1283.55 1455.22 1286.57 1459.13 Q1289.6 1463.01 1289.6 1470.21 L1289.6 1491.72 L1283.71 1491.72 L1283.71 1470.4 Q1283.71 1465.27 1281.89 1462.79 Q1280.08 1460.31 1276.36 1460.31 Q1271.81 1460.31 1269.16 1463.33 Q1266.52 1466.36 1266.52 1471.58 L1266.52 1491.72 L1260.63 1491.72 L1260.63 1470.4 Q1260.63 1465.24 1258.82 1462.79 Q1257 1460.31 1253.22 1460.31 Q1248.73 1460.31 1246.09 1463.36 Q1243.45 1466.39 1243.45 1471.58 L1243.45 1491.72 L1237.56 1491.72 L1237.56 1456.08 L1243.45 1456.08 L1243.45 1461.61 Q1245.45 1458.34 1248.25 1456.78 Q1251.05 1455.22 1254.9 1455.22 Q1258.79 1455.22 1261.49 1457.19 Q1264.23 1459.16 1265.53 1462.92 Z" fill="#000000" fill-rule="evenodd" fill-opacity="1" /><path clip-path="url(#clip180)" d="M 0 0 M1326.23 1472.44 L1326.23 1475.3 L1299.31 1475.3 Q1299.69 1481.35 1302.93 1484.53 Q1306.21 1487.68 1312.04 1487.68 Q1315.41 1487.68 1318.56 1486.85 Q1321.74 1486.03 1324.86 1484.37 L1324.86 1489.91 Q1321.71 1491.25 1318.4 1491.95 Q1315.09 1492.65 1311.69 1492.65 Q1303.16 1492.65 1298.16 1487.68 Q1293.19 1482.72 1293.19 1474.25 Q1293.19 1465.5 1297.9 1460.37 Q1302.65 1455.22 1310.67 1455.22 Q1317.86 1455.22 1322.03 1459.86 Q1326.23 1464.48 1326.23 1472.44 M1320.38 1470.72 Q1320.31 1465.91 1317.67 1463.05 Q1315.06 1460.18 1310.73 1460.18 Q1305.83 1460.18 1302.87 1462.95 Q1299.94 1465.72 1299.5 1470.75 L1320.38 1470.72 Z" fill="#000000" fill-rule="evenodd" fill-opacity="1" /><path clip-path="url(#clip180)" d="M 0 0 M41.4442 856.929 L41.4442 848.272 L81.198 827.201 L41.4442 827.201 L41.4442 820.963 L88.9642 820.963 L88.9642 829.62 L49.2103 850.691 L88.9642 850.691 L88.9642 856.929 L41.4442 856.929 Z" fill="#000000" fill-rule="evenodd" fill-opacity="1" /><path clip-path="url(#clip180)" d="M 0 0 M74.8959 815.425 L53.3162 815.425 L53.3162 809.568 L74.6731 809.568 Q79.7339 809.568 82.2802 807.595 Q84.7946 805.621 84.7946 801.675 Q84.7946 796.932 81.7709 794.195 Q78.7472 791.426 73.5273 791.426 L53.3162 791.426 L53.3162 785.569 L88.9642 785.569 L88.9642 791.426 L83.4896 791.426 Q86.7362 793.558 88.3276 796.391 Q89.8872 799.192 89.8872 802.916 Q89.8872 809.059 86.0678 812.242 Q82.2483 815.425 74.8959 815.425 M52.4568 800.688 L52.4568 800.688 Z" fill="#000000" fill-rule="evenodd" fill-opacity="1" /><path clip-path="url(#clip180)" d="M 0 0 M60.1593 751.672 Q56.2126 749.476 54.3347 746.42 Q52.4568 743.365 52.4568 739.227 Q52.4568 733.657 56.3717 730.633 Q60.2548 727.61 67.4481 727.61 L88.9642 727.61 L88.9642 733.498 L67.639 733.498 Q62.5146 733.498 60.032 735.312 Q57.5494 737.126 57.5494 740.85 Q57.5494 745.402 60.5731 748.044 Q63.5968 750.685 68.8167 750.685 L88.9642 750.685 L88.9642 756.574 L67.639 756.574 Q62.4828 756.574 60.032 758.388 Q57.5494 760.202 57.5494 763.99 Q57.5494 768.477 60.6049 771.119 Q63.6286 773.761 68.8167 773.761 L88.9642 773.761 L88.9642 779.649 L53.3162 779.649 L53.3162 773.761 L58.8544 773.761 Q55.576 771.756 54.0164 768.955 Q52.4568 766.154 52.4568 762.303 Q52.4568 758.42 54.4302 755.714 Q56.4036 752.977 60.1593 751.672 Z" fill="#000000" fill-rule="evenodd" fill-opacity="1" /><path clip-path="url(#clip180)" d="M 0 0 M71.172 695.877 Q64.7108 695.877 61.0505 698.55 Q57.3584 701.192 57.3584 705.839 Q57.3584 710.486 61.0505 713.159 Q64.7108 715.801 71.172 715.801 Q77.6332 715.801 81.3253 713.159 Q84.9856 710.486 84.9856 705.839 Q84.9856 701.192 81.3253 698.55 Q77.6332 695.877 71.172 695.877 M58.7271 715.801 Q55.5442 713.955 54.0164 711.154 Q52.4568 708.322 52.4568 704.407 Q52.4568 697.914 57.6131 693.871 Q62.7693 689.797 71.172 689.797 Q79.5747 689.797 84.731 693.871 Q89.8872 697.914 89.8872 704.407 Q89.8872 708.322 88.3594 711.154 Q86.7998 713.955 83.617 715.801 L88.9642 715.801 L88.9642 721.689 L39.439 721.689 L39.439 715.801 L58.7271 715.801 Z" fill="#000000" fill-rule="evenodd" fill-opacity="1" /><path clip-path="url(#clip180)" d="M 0 0 M69.6761 653.163 L72.5406 653.163 L72.5406 680.09 Q78.5881 679.708 81.7709 676.461 Q84.9219 673.183 84.9219 667.358 Q84.9219 663.984 84.0944 660.833 Q83.2669 657.65 81.6118 654.531 L87.1499 654.531 Q88.4867 657.682 89.187 660.992 Q89.8872 664.303 89.8872 667.708 Q89.8872 676.238 84.9219 681.235 Q79.9567 686.201 71.4903 686.201 Q62.7374 686.201 57.6131 681.49 Q52.4568 676.748 52.4568 668.727 Q52.4568 661.534 57.1038 657.364 Q61.7189 653.163 69.6761 653.163 M67.9573 659.019 Q63.1512 659.083 60.2866 661.725 Q57.4221 664.334 57.4221 668.663 Q57.4221 673.565 60.1912 676.525 Q62.9602 679.453 67.9892 679.899 L67.9573 659.019 Z" fill="#000000" fill-rule="evenodd" fill-opacity="1" /><path clip-path="url(#clip180)" d="M 0 0 M58.7907 626.363 Q58.2178 627.35 57.9632 628.527 Q57.6767 629.673 57.6767 631.074 Q57.6767 636.039 60.9232 638.713 Q64.1379 641.354 70.1853 641.354 L88.9642 641.354 L88.9642 647.243 L53.3162 647.243 L53.3162 641.354 L58.8544 641.354 Q55.6079 639.508 54.0483 636.548 Q52.4568 633.588 52.4568 629.355 Q52.4568 628.75 52.5523 628.018 Q52.616 627.286 52.7751 626.395 L58.7907 626.363 Z" fill="#000000" fill-rule="evenodd" fill-opacity="1" /><polyline clip-path="url(#clip182)" style="stroke:#009af9; stroke-width:4; stroke-opacity:1; fill:none" points="
  307.689,158.463 312.42,158.463 317.15,158.463 321.881,158.463 326.612,158.463 331.343,158.463 336.073,158.463 340.804,160.819 345.535,163.176 350.266,164.354 
  354.996,165.532 359.727,166.71 364.458,166.71 369.189,167.888 373.919,167.888 378.65,169.066 383.381,170.245 388.112,170.245 392.842,171.423 397.573,171.423 
  402.304,173.779 407.035,176.135 411.765,177.313 416.496,178.492 421.227,180.848 425.958,180.848 430.688,182.026 435.419,182.026 440.15,184.382 444.881,184.382 
  449.611,184.382 454.342,184.382 459.073,184.382 463.804,184.382 468.534,184.382 473.265,184.382 477.996,186.739 482.726,186.739 487.457,187.917 492.188,190.273 
  496.919,191.451 501.649,192.629 506.38,196.164 511.111,197.342 515.842,198.52 520.572,200.876 525.303,200.876 530.034,200.876 534.765,203.233 539.495,206.767 
  544.226,206.767 548.957,209.123 553.688,210.302 558.418,213.836 563.149,215.014 567.88,217.37 572.611,217.37 577.341,218.549 582.072,219.727 586.803,220.905 
  591.534,220.905 596.264,222.083 600.995,224.439 605.726,225.617 610.457,226.796 615.187,230.33 619.918,231.508 624.649,236.221 629.38,238.577 634.11,238.577 
  638.841,240.933 643.572,242.112 648.303,242.112 653.033,244.468 657.764,246.824 662.495,249.18 667.226,251.537 671.956,258.606 676.687,259.784 681.418,262.14 
  686.149,265.674 690.879,268.031 695.61,269.209 700.341,270.387 705.072,272.743 709.802,273.922 714.533,275.1 719.264,277.456 723.994,282.169 728.725,286.881 
  733.456,289.237 738.187,291.594 742.917,296.306 747.648,301.019 752.379,303.375 757.11,306.91 761.84,312.8 766.571,317.513 771.302,319.869 776.033,323.404 
  780.763,325.76 785.494,328.116 790.225,331.651 794.956,334.007 799.686,336.363 804.417,342.254 809.148,344.61 813.879,346.967 818.609,350.501 823.34,352.857 
  828.071,358.748 832.802,358.748 837.532,366.995 842.263,370.53 846.994,375.242 851.725,387.024 856.455,388.202 861.186,391.736 865.917,396.449 870.648,403.518 
  875.378,405.874 880.109,410.587 884.84,416.477 889.571,424.724 894.301,430.615 899.032,432.971 903.763,437.684 908.494,445.931 913.224,453 917.955,455.356 
  922.686,463.603 927.417,468.316 932.147,469.494 936.878,476.563 941.609,484.81 946.34,495.413 951.07,503.66 955.801,509.551 960.532,515.442 965.262,522.511 
  969.993,527.223 974.724,533.114 979.455,541.361 984.185,542.539 988.916,544.895 993.647,549.608 998.378,555.499 1003.11,562.568 1007.84,564.924 1012.57,568.458 
  1017.3,570.815 1022.03,575.527 1026.76,579.062 1031.49,582.596 1036.22,584.952 1040.95,588.487 1045.69,595.556 1050.42,595.556 1055.15,597.912 1059.88,601.446 
  1064.61,606.159 1069.34,609.693 1074.07,615.584 1078.8,619.119 1083.53,625.009 1088.26,627.366 1092.99,634.435 1097.72,640.325 1102.45,645.038 1107.18,650.929 
  1111.92,653.285 1116.65,653.285 1121.38,653.285 1126.11,657.998 1130.84,661.532 1135.57,666.245 1140.3,674.492 1145.03,679.204 1149.76,685.095 1154.49,693.342 
  1159.22,695.698 1163.95,698.055 1168.68,701.589 1173.42,703.945 1178.15,705.123 1182.88,706.302 1187.61,711.014 1192.34,713.37 1197.07,716.905 1201.8,718.083 
  1206.53,721.617 1211.26,723.974 1215.99,725.152 1220.72,732.221 1225.45,734.577 1230.18,736.933 1234.91,741.646 1239.65,741.646 1244.38,748.715 1249.11,749.893 
  1253.84,753.427 1258.57,758.14 1263.3,765.209 1268.03,769.922 1272.76,772.278 1277.49,776.99 1282.22,784.059 1286.95,787.594 1291.68,789.95 1296.41,793.484 
  1301.15,795.841 1305.88,800.553 1310.61,805.266 1315.34,806.444 1320.07,811.157 1324.8,814.691 1329.53,818.226 1334.26,820.582 1338.99,822.938 1343.72,825.294 
  1348.45,828.829 1353.18,831.185 1357.91,834.72 1362.65,837.076 1367.38,841.788 1372.11,845.323 1376.84,845.323 1381.57,851.214 1386.3,855.926 1391.03,859.461 
  1395.76,860.639 1400.49,867.708 1405.22,867.708 1409.95,871.242 1414.68,874.777 1419.41,881.846 1424.14,885.38 1428.88,886.558 1433.61,890.093 1438.34,890.093 
  1443.07,893.627 1447.8,893.627 1452.53,894.805 1457.26,898.34 1461.99,901.874 1466.72,906.587 1471.45,914.834 1476.18,917.19 1480.91,918.368 1485.64,918.368 
  1490.38,918.368 1495.11,920.724 1499.84,926.615 1504.57,930.15 1509.3,932.506 1514.03,934.862 1518.76,938.397 1523.49,943.109 1528.22,945.465 1532.95,947.822 
  1537.68,951.356 1542.41,953.712 1547.14,953.712 1551.87,954.891 1556.61,958.425 1561.34,959.603 1566.07,961.96 1570.8,966.672 1575.53,967.85 1580.26,970.207 
  1584.99,971.385 1589.72,971.385 1594.45,973.741 1599.18,974.919 1603.91,976.097 1608.64,977.275 1613.37,979.632 1618.11,983.166 1622.84,984.344 1627.57,985.522 
  1632.3,987.879 1637.03,992.591 1641.76,993.769 1646.49,994.948 1651.22,996.126 1655.95,996.126 1660.68,997.304 1665.41,998.482 1670.14,999.66 1674.87,999.66 
  1679.61,999.66 1684.34,1000.84 1689.07,1000.84 1693.8,1000.84 1698.53,1003.19 1703.26,1003.19 1707.99,1003.19 1712.72,1004.37 1717.45,1004.37 1722.18,1005.55 
  1726.91,1006.73 1731.64,1009.09 1736.37,1010.26 1741.1,1010.26 1745.84,1010.26 1750.57,1011.44 1755.3,1011.44 1760.03,1012.62 1764.76,1013.8 1769.49,1013.8 
  1774.22,1014.98 1778.95,1016.15 1783.68,1019.69 1788.41,1019.69 1793.14,1020.87 1797.87,1020.87 1802.6,1022.05 1807.34,1022.05 1812.07,1022.05 1816.8,1022.05 
  1821.53,1022.05 1826.26,1023.22 1830.99,1024.4 1835.72,1024.4 1840.45,1024.4 1845.18,1026.76 1849.91,1026.76 1854.64,1027.94 1859.37,1027.94 1864.1,1027.94 
  1868.83,1027.94 1873.57,1027.94 1878.3,1029.11 1883.03,1029.11 1887.76,1029.11 1892.49,1029.11 1897.22,1029.11 1901.95,1029.11 1906.68,1029.11 1911.41,1030.29 
  1916.14,1030.29 1920.87,1030.29 1925.6,1031.47 1930.33,1032.65 1935.07,1032.65 1939.8,1032.65 1944.53,1032.65 1949.26,1033.83 1953.99,1033.83 1958.72,1035 
  1963.45,1035 1968.18,1035 1972.91,1036.18 1977.64,1036.18 1982.37,1036.18 1987.1,1037.36 1991.83,1037.36 1996.56,1037.36 2001.3,1042.07 2006.03,1042.07 
  2010.76,1042.07 2015.49,1043.25 2020.22,1043.25 2024.95,1043.25 2029.68,1043.25 2034.41,1044.43 2039.14,1044.43 2043.87,1046.79 2048.6,1049.14 2053.33,1049.14 
  2058.06,1049.14 2062.8,1049.14 2067.53,1050.32 2072.26,1050.32 2076.99,1050.32 2081.72,1050.32 2086.45,1050.32 2091.18,1050.32 2095.91,1050.32 2100.64,1050.32 
  2105.37,1050.32 2110.1,1050.32 2114.83,1050.32 2119.56,1050.32 2124.3,1050.32 2129.03,1050.32 2133.76,1050.32 2138.49,1050.32 2143.22,1051.5 2147.95,1051.5 
  2152.68,1051.5 2157.41,1051.5 2162.14,1051.5 2166.87,1051.5 2171.6,1051.5 2176.33,1052.68 2181.06,1052.68 2185.79,1052.68 2190.53,1052.68 2195.26,1052.68 
  2199.99,1052.68 
  "/>
<polyline clip-path="url(#clip182)" style="stroke:#e26f46; stroke-width:4; stroke-opacity:1; fill:none" points="
  307.689,1313.05 312.42,1313.05 317.15,1314.23 321.881,1314.23 326.612,1315.4 331.343,1315.4 336.073,1315.4 340.804,1313.05 345.535,1310.69 350.266,1309.51 
  354.996,1308.33 359.727,1307.16 364.458,1307.16 369.189,1305.98 373.919,1308.33 378.65,1307.16 383.381,1305.98 388.112,1305.98 392.842,1308.33 397.573,1308.33 
  402.304,1305.98 407.035,1305.98 411.765,1304.8 416.496,1303.62 421.227,1301.27 425.958,1302.44 430.688,1302.44 435.419,1302.44 440.15,1301.27 444.881,1301.27 
  449.611,1301.27 454.342,1302.44 459.073,1302.44 463.804,1302.44 468.534,1303.62 473.265,1303.62 477.996,1303.62 482.726,1304.8 487.457,1303.62 492.188,1301.27 
  496.919,1300.09 501.649,1298.91 506.38,1295.38 511.111,1296.55 515.842,1295.38 520.572,1293.02 525.303,1294.2 530.034,1294.2 534.765,1294.2 539.495,1290.66 
  544.226,1290.66 548.957,1289.48 553.688,1289.48 558.418,1287.13 563.149,1285.95 567.88,1284.77 572.611,1287.13 577.341,1287.13 582.072,1287.13 586.803,1285.95 
  591.534,1289.48 596.264,1289.48 600.995,1287.13 605.726,1287.13 610.457,1285.95 615.187,1283.59 619.918,1283.59 624.649,1278.88 629.38,1277.7 634.11,1278.88 
  638.841,1277.7 643.572,1277.7 648.303,1277.7 653.033,1276.52 657.764,1277.7 662.495,1276.52 667.226,1276.52 671.956,1270.63 676.687,1270.63 681.418,1269.46 
  686.149,1269.46 690.879,1269.46 695.61,1268.28 700.341,1268.28 705.072,1267.1 709.802,1267.1 714.533,1267.1 719.264,1268.28 723.994,1267.1 728.725,1265.92 
  733.456,1267.1 738.187,1264.74 742.917,1264.74 747.648,1260.03 752.379,1261.21 757.11,1260.03 761.84,1254.14 766.571,1250.61 771.302,1252.96 776.033,1250.61 
  780.763,1248.25 785.494,1248.25 790.225,1248.25 794.956,1245.89 799.686,1244.71 804.417,1238.82 809.148,1236.47 813.879,1238.82 818.609,1236.47 823.34,1236.47 
  828.071,1232.93 832.802,1236.47 837.532,1229.4 842.263,1231.76 846.994,1229.4 851.725,1217.62 856.455,1219.97 861.186,1217.62 865.917,1217.62 870.648,1212.9 
  875.378,1212.9 880.109,1210.55 884.84,1205.84 889.571,1198.77 894.301,1197.59 899.032,1198.77 903.763,1195.23 908.494,1190.52 913.224,1188.16 917.955,1190.52 
  922.686,1184.63 927.417,1181.09 932.147,1185.81 936.878,1183.45 941.609,1177.56 946.34,1171.67 951.07,1168.14 955.801,1165.78 960.532,1164.6 965.262,1158.71 
  969.993,1158.71 974.724,1158.71 979.455,1154 984.185,1157.53 988.916,1165.78 993.647,1164.6 998.378,1163.42 1003.11,1159.89 1007.84,1158.71 1012.57,1157.53 
  1017.3,1157.53 1022.03,1155.18 1026.76,1158.71 1031.49,1158.71 1036.22,1162.24 1040.95,1161.07 1045.69,1158.71 1050.42,1163.42 1055.15,1164.6 1059.88,1163.42 
  1064.61,1161.07 1069.34,1163.42 1074.07,1161.07 1078.8,1159.89 1083.53,1157.53 1088.26,1162.24 1092.99,1159.89 1097.72,1157.53 1102.45,1159.89 1107.18,1157.53 
  1111.92,1162.24 1116.65,1165.78 1121.38,1169.31 1126.11,1171.67 1130.84,1170.49 1135.57,1171.67 1140.3,1166.96 1145.03,1162.24 1149.76,1159.89 1154.49,1157.53 
  1159.22,1156.35 1163.95,1156.35 1168.68,1155.18 1173.42,1158.71 1178.15,1158.71 1182.88,1161.07 1187.61,1158.71 1192.34,1159.89 1197.07,1163.42 1201.8,1169.31 
  1206.53,1170.49 1211.26,1169.31 1215.99,1172.85 1220.72,1169.31 1225.45,1166.96 1230.18,1168.14 1234.91,1166.96 1239.65,1171.67 1244.38,1170.49 1249.11,1170.49 
  1253.84,1171.67 1258.57,1169.31 1263.3,1166.96 1268.03,1164.6 1272.76,1165.78 1277.49,1162.24 1282.22,1158.71 1286.95,1159.89 1291.68,1159.89 1296.41,1159.89 
  1301.15,1162.24 1305.88,1164.6 1310.61,1161.07 1315.34,1159.89 1320.07,1158.71 1324.8,1162.24 1329.53,1162.24 1334.26,1164.6 1338.99,1165.78 1343.72,1165.78 
  1348.45,1165.78 1353.18,1169.31 1357.91,1169.31 1362.65,1170.49 1367.38,1168.14 1372.11,1168.14 1376.84,1174.03 1381.57,1172.85 1386.3,1172.85 1391.03,1170.49 
  1395.76,1174.03 1400.49,1168.14 1405.22,1171.67 1409.95,1171.67 1414.68,1171.67 1419.41,1169.31 1424.14,1170.49 1428.88,1171.67 1433.61,1168.14 1438.34,1172.85 
  1443.07,1176.38 1447.8,1178.74 1452.53,1178.74 1457.26,1177.56 1461.99,1176.38 1466.72,1171.67 1471.45,1170.49 1476.18,1172.85 1480.91,1174.03 1485.64,1176.38 
  1490.38,1179.92 1495.11,1182.27 1499.84,1177.56 1504.57,1177.56 1509.3,1177.56 1514.03,1178.74 1518.76,1177.56 1523.49,1178.74 1528.22,1178.74 1532.95,1179.92 
  1537.68,1184.63 1542.41,1184.63 1547.14,1184.63 1551.87,1189.34 1556.61,1186.99 1561.34,1186.99 1566.07,1185.81 1570.8,1183.45 1575.53,1188.16 1580.26,1190.52 
  1584.99,1190.52 1589.72,1191.7 1594.45,1191.7 1599.18,1195.23 1603.91,1201.12 1608.64,1203.48 1613.37,1203.48 1618.11,1203.48 1622.84,1207.01 1627.57,1211.73 
  1632.3,1217.62 1637.03,1217.62 1641.76,1221.15 1646.49,1224.69 1651.22,1224.69 1655.95,1225.86 1660.68,1225.86 1665.41,1227.04 1670.14,1228.22 1674.87,1231.76 
  1679.61,1237.65 1684.34,1237.65 1689.07,1238.82 1693.8,1240 1698.53,1238.82 1703.26,1242.36 1707.99,1244.71 1712.72,1247.07 1717.45,1249.43 1722.18,1250.61 
  1726.91,1249.43 1731.64,1250.61 1736.37,1250.61 1741.1,1251.78 1745.84,1251.78 1750.57,1252.96 1755.3,1255.32 1760.03,1255.32 1764.76,1254.14 1769.49,1256.5 
  1774.22,1255.32 1778.95,1255.32 1783.68,1252.96 1788.41,1255.32 1793.14,1254.14 1797.87,1254.14 1802.6,1257.67 1807.34,1261.21 1812.07,1263.57 1816.8,1265.92 
  1821.53,1267.1 1826.26,1267.1 1830.99,1267.1 1835.72,1267.1 1840.45,1270.63 1845.18,1270.63 1849.91,1275.35 1854.64,1274.17 1859.37,1274.17 1864.1,1275.35 
  1868.83,1276.52 1873.57,1276.52 1878.3,1277.7 1883.03,1280.06 1887.76,1280.06 1892.49,1280.06 1897.22,1280.06 1901.95,1280.06 1906.68,1281.24 1911.41,1282.42 
  1916.14,1283.59 1920.87,1284.77 1925.6,1287.13 1930.33,1287.13 1935.07,1287.13 1939.8,1287.13 1944.53,1288.31 1949.26,1289.48 1953.99,1290.66 1958.72,1289.48 
  1963.45,1293.02 1968.18,1293.02 1972.91,1291.84 1977.64,1293.02 1982.37,1294.2 1987.1,1293.02 1991.83,1295.38 1996.56,1295.38 2001.3,1290.66 2006.03,1290.66 
  2010.76,1290.66 2015.49,1289.48 2020.22,1290.66 2024.95,1291.84 2029.68,1291.84 2034.41,1291.84 2039.14,1294.2 2043.87,1293.02 2048.6,1291.84 2053.33,1294.2 
  2058.06,1295.38 2062.8,1296.55 2067.53,1295.38 2072.26,1295.38 2076.99,1296.55 2081.72,1297.73 2086.45,1297.73 2091.18,1297.73 2095.91,1300.09 2100.64,1300.09 
  2105.37,1300.09 2110.1,1300.09 2114.83,1300.09 2119.56,1300.09 2124.3,1300.09 2129.03,1300.09 2133.76,1301.27 2138.49,1303.62 2143.22,1303.62 2147.95,1303.62 
  2152.68,1303.62 2157.41,1303.62 2162.14,1303.62 2166.87,1303.62 2171.6,1304.8 2176.33,1304.8 2181.06,1304.8 2185.79,1304.8 2190.53,1309.51 2195.26,1309.51 
  2199.99,1309.51 
  "/>
<polyline clip-path="url(#clip182)" style="stroke:#3da44d; stroke-width:4; stroke-opacity:1; fill:none" points="
  307.689,1324.83 312.42,1324.83 317.15,1323.65 321.881,1323.65 326.612,1322.47 331.343,1322.47 336.073,1322.47 340.804,1322.47 345.535,1322.47 350.266,1322.47 
  354.996,1322.47 359.727,1322.47 364.458,1322.47 369.189,1322.47 373.919,1320.12 378.65,1320.12 383.381,1320.12 388.112,1320.12 392.842,1316.58 397.573,1316.58 
  402.304,1316.58 407.035,1314.23 411.765,1314.23 416.496,1314.23 421.227,1314.23 425.958,1313.05 430.688,1311.87 435.419,1311.87 440.15,1310.69 444.881,1310.69 
  449.611,1310.69 454.342,1309.51 459.073,1309.51 463.804,1309.51 468.534,1308.33 473.265,1308.33 477.996,1305.98 482.726,1304.8 487.457,1304.8 492.188,1304.8 
  496.919,1304.8 501.649,1304.8 506.38,1304.8 511.111,1302.44 515.842,1302.44 520.572,1302.44 525.303,1301.27 530.034,1301.27 534.765,1298.91 539.495,1298.91 
  544.226,1298.91 548.957,1297.73 553.688,1296.55 558.418,1295.38 563.149,1295.38 567.88,1294.2 572.611,1291.84 577.341,1290.66 582.072,1289.48 586.803,1289.48 
  591.534,1285.95 596.264,1284.77 600.995,1284.77 605.726,1283.59 610.457,1283.59 615.187,1282.42 619.918,1281.24 624.649,1281.24 629.38,1280.06 634.11,1278.88 
  638.841,1277.7 643.572,1276.52 648.303,1276.52 653.033,1275.35 657.764,1271.81 662.495,1270.63 667.226,1268.28 671.956,1267.1 676.687,1265.92 681.418,1264.74 
  686.149,1261.21 690.879,1258.85 695.61,1258.85 700.341,1257.67 705.072,1256.5 709.802,1255.32 714.533,1254.14 719.264,1250.61 723.994,1247.07 728.725,1243.54 
  733.456,1240 738.187,1240 742.917,1235.29 747.648,1235.29 752.379,1231.76 757.11,1229.4 761.84,1229.4 766.571,1228.22 771.302,1223.51 776.033,1222.33 
  780.763,1222.33 785.494,1219.97 790.225,1216.44 794.956,1216.44 799.686,1215.26 804.417,1215.26 809.148,1215.26 813.879,1210.55 818.609,1209.37 823.34,1207.01 
  828.071,1204.66 832.802,1201.12 837.532,1199.95 842.263,1194.05 846.994,1191.7 851.725,1191.7 856.455,1188.16 861.186,1186.99 865.917,1182.27 870.648,1179.92 
  875.378,1177.56 880.109,1175.2 884.84,1174.03 889.571,1172.85 894.301,1168.14 899.032,1164.6 903.763,1163.42 908.494,1159.89 913.224,1155.18 917.955,1150.46 
  922.686,1148.11 927.417,1146.93 932.147,1141.04 936.878,1136.33 941.609,1133.97 946.34,1129.26 951.07,1124.54 955.801,1121.01 960.532,1116.3 965.262,1115.12 
  969.993,1110.41 974.724,1104.52 979.455,1100.98 984.185,1096.27 988.916,1085.66 993.647,1082.13 998.378,1077.42 1003.11,1073.88 1007.84,1072.71 1012.57,1070.35 
  1017.3,1067.99 1022.03,1065.64 1026.76,1058.57 1031.49,1055.03 1036.22,1049.14 1040.95,1046.79 1045.69,1042.07 1050.42,1037.36 1055.15,1033.83 1059.88,1031.47 
  1064.61,1029.11 1069.34,1023.22 1074.07,1019.69 1078.8,1017.33 1083.53,1013.8 1088.26,1006.73 1092.99,1002.02 1097.72,998.482 1102.45,991.413 1107.18,987.879 
  1111.92,980.81 1116.65,977.275 1121.38,973.741 1126.11,966.672 1130.84,964.316 1135.57,958.425 1140.3,954.891 1145.03,954.891 1149.76,951.356 1154.49,945.465 
  1159.22,944.287 1163.95,941.931 1168.68,939.575 1173.42,933.684 1178.15,932.506 1182.88,928.971 1187.61,926.615 1192.34,923.081 1197.07,916.012 1201.8,908.943 
  1206.53,904.23 1211.26,903.052 1215.99,898.34 1220.72,894.805 1225.45,894.805 1230.18,891.271 1234.91,887.736 1239.65,883.024 1244.38,877.133 1249.11,875.955 
  1253.84,871.242 1258.57,868.886 1263.3,864.173 1268.03,861.817 1272.76,858.283 1277.49,857.104 1282.22,853.57 1286.95,848.857 1291.68,846.501 1296.41,842.967 
  1301.15,838.254 1305.88,831.185 1310.61,830.007 1315.34,830.007 1320.07,826.473 1324.8,819.404 1329.53,815.869 1334.26,811.157 1338.99,807.622 1343.72,805.266 
  1348.45,801.731 1353.18,795.841 1357.91,792.306 1362.65,788.772 1367.38,786.416 1372.11,782.881 1376.84,776.99 1381.57,772.278 1386.3,767.565 1391.03,766.387 
  1395.76,761.674 1400.49,760.496 1405.22,756.962 1409.95,753.427 1414.68,749.893 1419.41,745.18 1424.14,740.468 1428.88,738.112 1433.61,738.112 1438.34,733.399 
  1443.07,726.33 1447.8,723.974 1452.53,722.796 1457.26,720.439 1461.99,718.083 1466.72,718.083 1471.45,711.014 1476.18,706.302 1480.91,703.945 1485.64,701.589 
  1490.38,698.055 1495.11,693.342 1499.84,692.164 1504.57,688.629 1509.3,686.273 1514.03,682.739 1518.76,680.382 1523.49,674.492 1528.22,672.135 1532.95,668.601 
  1537.68,660.354 1542.41,657.998 1547.14,657.998 1551.87,652.107 1556.61,650.929 1561.34,649.75 1566.07,648.572 1570.8,646.216 1575.53,640.325 1580.26,635.613 
  1584.99,634.435 1589.72,633.256 1594.45,630.9 1599.18,626.188 1603.91,619.119 1608.64,615.584 1613.37,613.228 1618.11,609.693 1622.84,604.981 1627.57,599.09 
  1632.3,590.843 1637.03,586.131 1641.76,581.418 1646.49,576.705 1651.22,575.527 1655.95,574.349 1660.68,573.171 1665.41,570.815 1670.14,568.458 1674.87,564.924 
  1679.61,559.033 1684.34,557.855 1689.07,556.677 1693.8,555.499 1698.53,554.321 1703.26,550.786 1707.99,548.43 1712.72,544.895 1717.45,542.539 1722.18,540.183 
  1726.91,540.183 1731.64,536.648 1736.37,535.47 1741.1,534.292 1745.84,534.292 1750.57,531.936 1755.3,529.579 1760.03,528.401 1764.76,528.401 1769.49,526.045 
  1774.22,526.045 1778.95,524.867 1783.68,523.689 1788.41,521.332 1793.14,521.332 1797.87,521.332 1802.6,516.62 1807.34,513.085 1812.07,510.729 1816.8,508.373 
  1821.53,507.195 1826.26,506.017 1830.99,504.838 1835.72,504.838 1840.45,501.304 1845.18,498.948 1849.91,494.235 1854.64,494.235 1859.37,494.235 1864.1,493.057 
  1868.83,491.879 1873.57,491.879 1878.3,489.522 1883.03,487.166 1887.76,487.166 1892.49,487.166 1897.22,487.166 1901.95,487.166 1906.68,485.988 1911.41,483.632 
  1916.14,482.454 1920.87,481.275 1925.6,477.741 1930.33,476.563 1935.07,476.563 1939.8,476.563 1944.53,475.385 1949.26,473.028 1953.99,471.85 1958.72,471.85 
  1963.45,468.316 1968.18,468.316 1972.91,468.316 1977.64,467.138 1982.37,465.96 1987.1,465.96 1991.83,463.603 1996.56,463.603 2001.3,463.603 2006.03,463.603 
  2010.76,463.603 2015.49,463.603 2020.22,462.425 2024.95,461.247 2029.68,461.247 2034.41,460.069 2039.14,457.712 2043.87,456.534 2048.6,455.356 2053.33,453 
  2058.06,451.822 2062.8,450.644 2067.53,450.644 2072.26,450.644 2076.99,449.465 2081.72,448.287 2086.45,448.287 2091.18,448.287 2095.91,445.931 2100.64,445.931 
  2105.37,445.931 2110.1,445.931 2114.83,445.931 2119.56,445.931 2124.3,445.931 2129.03,445.931 2133.76,444.753 2138.49,442.397 2143.22,441.218 2147.95,441.218 
  2152.68,441.218 2157.41,441.218 2162.14,441.218 2166.87,441.218 2171.6,440.04 2176.33,438.862 2181.06,438.862 2185.79,438.862 2190.53,434.15 2195.26,434.15 
  2199.99,434.15 
  "/>
<path clip-path="url(#clip180)" d="
M1930.31 443.152 L2187.64 443.152 L2187.64 201.232 L1930.31 201.232  Z
  " fill="#ffffff" fill-rule="evenodd" fill-opacity="1"/>
<polyline clip-path="url(#clip180)" style="stroke:#000000; stroke-width:4; stroke-opacity:1; fill:none" points="
  1930.31,443.152 2187.64,443.152 2187.64,201.232 1930.31,201.232 1930.31,443.152 
  "/>
<polyline clip-path="url(#clip180)" style="stroke:#009af9; stroke-width:4; stroke-opacity:1; fill:none" points="
  1953.35,261.712 2091.59,261.712 
  "/>
<path clip-path="url(#clip180)" d="M 0 0 M2136.88 245.566 L2136.88 250.127 Q2134.22 248.853 2131.86 248.228 Q2129.5 247.603 2127.3 247.603 Q2123.48 247.603 2121.39 249.085 Q2119.33 250.566 2119.33 253.298 Q2119.33 255.589 2120.7 256.77 Q2122.09 257.927 2125.93 258.645 L2128.76 259.224 Q2133.99 260.219 2136.46 262.742 Q2138.96 265.242 2138.96 269.455 Q2138.96 274.478 2135.58 277.071 Q2132.23 279.663 2125.72 279.663 Q2123.27 279.663 2120.49 279.108 Q2117.74 278.552 2114.77 277.464 L2114.77 272.65 Q2117.62 274.247 2120.35 275.057 Q2123.08 275.867 2125.72 275.867 Q2129.73 275.867 2131.9 274.293 Q2134.08 272.719 2134.08 269.802 Q2134.08 267.256 2132.51 265.821 Q2130.95 264.386 2127.39 263.668 L2124.54 263.113 Q2119.31 262.071 2116.97 259.849 Q2114.63 257.626 2114.63 253.668 Q2114.63 249.085 2117.85 246.446 Q2121.09 243.807 2126.76 243.807 Q2129.19 243.807 2131.72 244.247 Q2134.24 244.687 2136.88 245.566 Z" fill="#000000" fill-rule="evenodd" fill-opacity="1" /><polyline clip-path="url(#clip180)" style="stroke:#e26f46; stroke-width:4; stroke-opacity:1; fill:none" points="
  1953.35,322.192 2091.59,322.192 
  "/>
<path clip-path="url(#clip180)" d="M 0 0 M2114.63 304.912 L2119.31 304.912 L2119.31 339.472 L2114.63 339.472 L2114.63 304.912 Z" fill="#000000" fill-rule="evenodd" fill-opacity="1" /><polyline clip-path="url(#clip180)" style="stroke:#3da44d; stroke-width:4; stroke-opacity:1; fill:none" points="
  1953.35,382.672 2091.59,382.672 
  "/>
<path clip-path="url(#clip180)" d="M 0 0 M2131.02 383.749 Q2132.53 384.258 2133.94 385.924 Q2135.38 387.591 2136.81 390.508 L2141.56 399.952 L2136.53 399.952 L2132.11 391.086 Q2130.4 387.614 2128.78 386.48 Q2127.18 385.346 2124.4 385.346 L2119.31 385.346 L2119.31 399.952 L2114.63 399.952 L2114.63 365.392 L2125.19 365.392 Q2131.12 365.392 2134.03 367.869 Q2136.95 370.346 2136.95 375.346 Q2136.95 378.61 2135.42 380.762 Q2133.92 382.915 2131.02 383.749 M2119.31 369.235 L2119.31 381.503 L2125.19 381.503 Q2128.57 381.503 2130.28 379.952 Q2132.02 378.378 2132.02 375.346 Q2132.02 372.313 2130.28 370.786 Q2128.57 369.235 2125.19 369.235 L2119.31 369.235 Z" fill="#000000" fill-rule="evenodd" fill-opacity="1" /></svg>
