<?xml version="1.0" encoding="utf-8"?>
<svg xmlns="http://www.w3.org/2000/svg" xmlns:xlink="http://www.w3.org/1999/xlink" width="576" height="384" viewBox="0 0 2304 1536">
<defs>
  <clipPath id="clip890">
    <rect x="0" y="0" width="2304" height="1536"/>
  </clipPath>
</defs>
<path clip-path="url(#clip890)" d="
M0 1536 L2304 1536 L2304 0 L0 0  Z
  " fill="#ffffff" fill-rule="evenodd" fill-opacity="1"/>
<defs>
  <clipPath id="clip891">
    <rect x="460" y="0" width="1614" height="1536"/>
  </clipPath>
</defs>
<path clip-path="url(#clip890)" d="
M261.591 1359.82 L2256.76 1359.82 L2256.76 47.2441 L261.591 47.2441  Z
  " fill="#ffffff" fill-rule="evenodd" fill-opacity="1"/>
<defs>
  <clipPath id="clip892">
    <rect x="261" y="47" width="1996" height="1314"/>
  </clipPath>
</defs>
<polyline clip-path="url(#clip892)" style="stroke:#000000; stroke-linecap:butt; stroke-linejoin:round; stroke-width:2; stroke-opacity:0.1; fill:none" points="
  318.058,1359.82 318.058,47.2441 
  "/>
<polyline clip-path="url(#clip892)" style="stroke:#000000; stroke-linecap:butt; stroke-linejoin:round; stroke-width:2; stroke-opacity:0.1; fill:none" points="
  788.616,1359.82 788.616,47.2441 
  "/>
<polyline clip-path="url(#clip892)" style="stroke:#000000; stroke-linecap:butt; stroke-linejoin:round; stroke-width:2; stroke-opacity:0.1; fill:none" points="
  1259.17,1359.82 1259.17,47.2441 
  "/>
<polyline clip-path="url(#clip892)" style="stroke:#000000; stroke-linecap:butt; stroke-linejoin:round; stroke-width:2; stroke-opacity:0.1; fill:none" points="
  1729.73,1359.82 1729.73,47.2441 
  "/>
<polyline clip-path="url(#clip892)" style="stroke:#000000; stroke-linecap:butt; stroke-linejoin:round; stroke-width:2; stroke-opacity:0.1; fill:none" points="
  2200.29,1359.82 2200.29,47.2441 
  "/>
<polyline clip-path="url(#clip890)" style="stroke:#000000; stroke-linecap:butt; stroke-linejoin:round; stroke-width:4; stroke-opacity:1; fill:none" points="
  261.591,1359.82 2256.76,1359.82 
  "/>
<polyline clip-path="url(#clip890)" style="stroke:#000000; stroke-linecap:butt; stroke-linejoin:round; stroke-width:4; stroke-opacity:1; fill:none" points="
  318.058,1359.82 318.058,1340.92 
  "/>
<polyline clip-path="url(#clip890)" style="stroke:#000000; stroke-linecap:butt; stroke-linejoin:round; stroke-width:4; stroke-opacity:1; fill:none" points="
  788.616,1359.82 788.616,1340.92 
  "/>
<polyline clip-path="url(#clip890)" style="stroke:#000000; stroke-linecap:butt; stroke-linejoin:round; stroke-width:4; stroke-opacity:1; fill:none" points="
  1259.17,1359.82 1259.17,1340.92 
  "/>
<polyline clip-path="url(#clip890)" style="stroke:#000000; stroke-linecap:butt; stroke-linejoin:round; stroke-width:4; stroke-opacity:1; fill:none" points="
  1729.73,1359.82 1729.73,1340.92 
  "/>
<polyline clip-path="url(#clip890)" style="stroke:#000000; stroke-linecap:butt; stroke-linejoin:round; stroke-width:4; stroke-opacity:1; fill:none" points="
  2200.29,1359.82 2200.29,1340.92 
  "/>
<path clip-path="url(#clip890)" d="M318.058 1389.97 Q314.447 1389.97 312.618 1393.54 Q310.813 1397.08 310.813 1404.21 Q310.813 1411.31 312.618 1414.88 Q314.447 1418.42 318.058 1418.42 Q321.692 1418.42 323.498 1414.88 Q325.327 1411.31 325.327 1404.21 Q325.327 1397.08 323.498 1393.54 Q321.692 1389.97 318.058 1389.97 M318.058 1386.27 Q323.868 1386.27 326.924 1390.87 Q330.003 1395.46 330.003 1404.21 Q330.003 1412.93 326.924 1417.54 Q323.868 1422.12 318.058 1422.12 Q312.248 1422.12 309.169 1417.54 Q306.114 1412.93 306.114 1404.21 Q306.114 1395.46 309.169 1390.87 Q312.248 1386.27 318.058 1386.27 Z" fill="#000000" fill-rule="evenodd" fill-opacity="1" /><path clip-path="url(#clip890)" d="M763.303 1417.52 L770.942 1417.52 L770.942 1391.15 L762.632 1392.82 L762.632 1388.56 L770.896 1386.89 L775.572 1386.89 L775.572 1417.52 L783.211 1417.52 L783.211 1421.45 L763.303 1421.45 L763.303 1417.52 Z" fill="#000000" fill-rule="evenodd" fill-opacity="1" /><path clip-path="url(#clip890)" d="M802.655 1389.97 Q799.044 1389.97 797.215 1393.54 Q795.41 1397.08 795.41 1404.21 Q795.41 1411.31 797.215 1414.88 Q799.044 1418.42 802.655 1418.42 Q806.289 1418.42 808.095 1414.88 Q809.924 1411.31 809.924 1404.21 Q809.924 1397.08 808.095 1393.54 Q806.289 1389.97 802.655 1389.97 M802.655 1386.27 Q808.465 1386.27 811.521 1390.87 Q814.6 1395.46 814.6 1404.21 Q814.6 1412.93 811.521 1417.54 Q808.465 1422.12 802.655 1422.12 Q796.845 1422.12 793.766 1417.54 Q790.711 1412.93 790.711 1404.21 Q790.711 1395.46 793.766 1390.87 Q796.845 1386.27 802.655 1386.27 Z" fill="#000000" fill-rule="evenodd" fill-opacity="1" /><path clip-path="url(#clip890)" d="M1237.95 1417.52 L1254.27 1417.52 L1254.27 1421.45 L1232.32 1421.45 L1232.32 1417.52 Q1234.98 1414.76 1239.57 1410.13 Q1244.17 1405.48 1245.35 1404.14 Q1247.6 1401.61 1248.48 1399.88 Q1249.38 1398.12 1249.38 1396.43 Q1249.38 1393.67 1247.44 1391.94 Q1245.52 1390.2 1242.41 1390.2 Q1240.22 1390.2 1237.76 1390.97 Q1235.33 1391.73 1232.55 1393.28 L1232.55 1388.56 Q1235.38 1387.42 1237.83 1386.85 Q1240.28 1386.27 1242.32 1386.27 Q1247.69 1386.27 1250.89 1388.95 Q1254.08 1391.64 1254.08 1396.13 Q1254.08 1398.26 1253.27 1400.18 Q1252.48 1402.08 1250.38 1404.67 Q1249.8 1405.34 1246.7 1408.56 Q1243.59 1411.75 1237.95 1417.52 Z" fill="#000000" fill-rule="evenodd" fill-opacity="1" /><path clip-path="url(#clip890)" d="M1274.08 1389.97 Q1270.47 1389.97 1268.64 1393.54 Q1266.84 1397.08 1266.84 1404.21 Q1266.84 1411.31 1268.64 1414.88 Q1270.47 1418.42 1274.08 1418.42 Q1277.72 1418.42 1279.52 1414.88 Q1281.35 1411.31 1281.35 1404.21 Q1281.35 1397.08 1279.52 1393.54 Q1277.72 1389.97 1274.08 1389.97 M1274.08 1386.27 Q1279.89 1386.27 1282.95 1390.87 Q1286.03 1395.46 1286.03 1404.21 Q1286.03 1412.93 1282.95 1417.54 Q1279.89 1422.12 1274.08 1422.12 Q1268.27 1422.12 1265.19 1417.54 Q1262.14 1412.93 1262.14 1404.21 Q1262.14 1395.46 1265.19 1390.87 Q1268.27 1386.27 1274.08 1386.27 Z" fill="#000000" fill-rule="evenodd" fill-opacity="1" /><path clip-path="url(#clip890)" d="M1718.57 1402.82 Q1721.93 1403.54 1723.81 1405.8 Q1725.7 1408.07 1725.7 1411.41 Q1725.7 1416.52 1722.19 1419.32 Q1718.67 1422.12 1712.19 1422.12 Q1710.01 1422.12 1707.69 1421.68 Q1705.4 1421.27 1702.95 1420.41 L1702.95 1415.9 Q1704.89 1417.03 1707.21 1417.61 Q1709.52 1418.19 1712.05 1418.19 Q1716.44 1418.19 1718.74 1416.45 Q1721.05 1414.72 1721.05 1411.41 Q1721.05 1408.35 1718.9 1406.64 Q1716.77 1404.9 1712.95 1404.9 L1708.92 1404.9 L1708.92 1401.06 L1713.13 1401.06 Q1716.58 1401.06 1718.41 1399.69 Q1720.24 1398.3 1720.24 1395.71 Q1720.24 1393.05 1718.34 1391.64 Q1716.47 1390.2 1712.95 1390.2 Q1711.03 1390.2 1708.83 1390.62 Q1706.63 1391.04 1703.99 1391.91 L1703.99 1387.75 Q1706.65 1387.01 1708.97 1386.64 Q1711.31 1386.27 1713.37 1386.27 Q1718.69 1386.27 1721.79 1388.7 Q1724.89 1391.1 1724.89 1395.23 Q1724.89 1398.1 1723.25 1400.09 Q1721.61 1402.05 1718.57 1402.82 Z" fill="#000000" fill-rule="evenodd" fill-opacity="1" /><path clip-path="url(#clip890)" d="M1744.57 1389.97 Q1740.96 1389.97 1739.13 1393.54 Q1737.32 1397.08 1737.32 1404.21 Q1737.32 1411.31 1739.13 1414.88 Q1740.96 1418.42 1744.57 1418.42 Q1748.2 1418.42 1750.01 1414.88 Q1751.84 1411.31 1751.84 1404.21 Q1751.84 1397.08 1750.01 1393.54 Q1748.2 1389.97 1744.57 1389.97 M1744.57 1386.27 Q1750.38 1386.27 1753.43 1390.87 Q1756.51 1395.46 1756.51 1404.21 Q1756.51 1412.93 1753.43 1417.54 Q1750.38 1422.12 1744.57 1422.12 Q1738.76 1422.12 1735.68 1417.54 Q1732.62 1412.93 1732.62 1404.21 Q1732.62 1395.46 1735.68 1390.87 Q1738.76 1386.27 1744.57 1386.27 Z" fill="#000000" fill-rule="evenodd" fill-opacity="1" /><path clip-path="url(#clip890)" d="M2188.46 1390.97 L2176.65 1409.41 L2188.46 1409.41 L2188.46 1390.97 M2187.23 1386.89 L2193.11 1386.89 L2193.11 1409.41 L2198.04 1409.41 L2198.04 1413.3 L2193.11 1413.3 L2193.11 1421.45 L2188.46 1421.45 L2188.46 1413.3 L2172.86 1413.3 L2172.86 1408.79 L2187.23 1386.89 Z" fill="#000000" fill-rule="evenodd" fill-opacity="1" /><path clip-path="url(#clip890)" d="M2215.78 1389.97 Q2212.16 1389.97 2210.34 1393.54 Q2208.53 1397.08 2208.53 1404.21 Q2208.53 1411.31 2210.34 1414.88 Q2212.16 1418.42 2215.78 1418.42 Q2219.41 1418.42 2221.21 1414.88 Q2223.04 1411.31 2223.04 1404.21 Q2223.04 1397.08 2221.21 1393.54 Q2219.41 1389.97 2215.78 1389.97 M2215.78 1386.27 Q2221.59 1386.27 2224.64 1390.87 Q2227.72 1395.46 2227.72 1404.21 Q2227.72 1412.93 2224.64 1417.54 Q2221.59 1422.12 2215.78 1422.12 Q2209.96 1422.12 2206.89 1417.54 Q2203.83 1412.93 2203.83 1404.21 Q2203.83 1395.46 2206.89 1390.87 Q2209.96 1386.27 2215.78 1386.27 Z" fill="#000000" fill-rule="evenodd" fill-opacity="1" /><path clip-path="url(#clip890)" d="M1181.05 1455.72 L1221.25 1455.72 L1221.25 1461.13 L1204.38 1461.13 L1204.38 1503.24 L1197.92 1503.24 L1197.92 1461.13 L1181.05 1461.13 L1181.05 1455.72 Z" fill="#000000" fill-rule="evenodd" fill-opacity="1" /><path clip-path="url(#clip890)" d="M1225.2 1467.6 L1231.05 1467.6 L1231.05 1503.24 L1225.2 1503.24 L1225.2 1467.6 M1225.2 1453.72 L1231.05 1453.72 L1231.05 1461.13 L1225.2 1461.13 L1225.2 1453.72 Z" fill="#000000" fill-rule="evenodd" fill-opacity="1" /><path clip-path="url(#clip890)" d="M1271.06 1474.44 Q1273.26 1470.49 1276.31 1468.61 Q1279.37 1466.74 1283.51 1466.74 Q1289.08 1466.74 1292.1 1470.65 Q1295.12 1474.53 1295.12 1481.73 L1295.12 1503.24 L1289.24 1503.24 L1289.24 1481.92 Q1289.24 1476.79 1287.42 1474.31 Q1285.61 1471.83 1281.88 1471.83 Q1277.33 1471.83 1274.69 1474.85 Q1272.05 1477.88 1272.05 1483.1 L1272.05 1503.24 L1266.16 1503.24 L1266.16 1481.92 Q1266.16 1476.76 1264.35 1474.31 Q1262.53 1471.83 1258.74 1471.83 Q1254.26 1471.83 1251.61 1474.88 Q1248.97 1477.91 1248.97 1483.1 L1248.97 1503.24 L1243.08 1503.24 L1243.08 1467.6 L1248.97 1467.6 L1248.97 1473.13 Q1250.98 1469.86 1253.78 1468.3 Q1256.58 1466.74 1260.43 1466.74 Q1264.31 1466.74 1267.02 1468.71 Q1269.76 1470.68 1271.06 1474.44 Z" fill="#000000" fill-rule="evenodd" fill-opacity="1" /><path clip-path="url(#clip890)" d="M1337.3 1483.96 L1337.3 1486.82 L1310.37 1486.82 Q1310.75 1492.87 1314 1496.05 Q1317.28 1499.2 1323.1 1499.2 Q1326.47 1499.2 1329.63 1498.37 Q1332.81 1497.55 1335.93 1495.89 L1335.93 1501.43 Q1332.78 1502.77 1329.47 1503.47 Q1326.16 1504.17 1322.75 1504.17 Q1314.22 1504.17 1309.22 1499.2 Q1304.26 1494.24 1304.26 1485.77 Q1304.26 1477.02 1308.97 1471.89 Q1313.71 1466.74 1321.73 1466.74 Q1328.93 1466.74 1333.1 1471.38 Q1337.3 1476 1337.3 1483.96 M1331.44 1482.24 Q1331.38 1477.43 1328.73 1474.57 Q1326.12 1471.7 1321.8 1471.7 Q1316.89 1471.7 1313.93 1474.47 Q1311.01 1477.24 1310.56 1482.27 L1331.44 1482.24 Z" fill="#000000" fill-rule="evenodd" fill-opacity="1" /><polyline clip-path="url(#clip892)" style="stroke:#000000; stroke-linecap:butt; stroke-linejoin:round; stroke-width:2; stroke-opacity:0.1; fill:none" points="
  261.591,1322.67 2256.76,1322.67 
  "/>
<polyline clip-path="url(#clip892)" style="stroke:#000000; stroke-linecap:butt; stroke-linejoin:round; stroke-width:2; stroke-opacity:0.1; fill:none" points="
  261.591,1009.97 2256.76,1009.97 
  "/>
<polyline clip-path="url(#clip892)" style="stroke:#000000; stroke-linecap:butt; stroke-linejoin:round; stroke-width:2; stroke-opacity:0.1; fill:none" points="
  261.591,697.278 2256.76,697.278 
  "/>
<polyline clip-path="url(#clip892)" style="stroke:#000000; stroke-linecap:butt; stroke-linejoin:round; stroke-width:2; stroke-opacity:0.1; fill:none" points="
  261.591,384.581 2256.76,384.581 
  "/>
<polyline clip-path="url(#clip892)" style="stroke:#000000; stroke-linecap:butt; stroke-linejoin:round; stroke-width:2; stroke-opacity:0.1; fill:none" points="
  261.591,71.8846 2256.76,71.8846 
  "/>
<polyline clip-path="url(#clip890)" style="stroke:#000000; stroke-linecap:butt; stroke-linejoin:round; stroke-width:4; stroke-opacity:1; fill:none" points="
  261.591,1359.82 261.591,47.2441 
  "/>
<polyline clip-path="url(#clip890)" style="stroke:#000000; stroke-linecap:butt; stroke-linejoin:round; stroke-width:4; stroke-opacity:1; fill:none" points="
  261.591,1322.67 280.489,1322.67 
  "/>
<polyline clip-path="url(#clip890)" style="stroke:#000000; stroke-linecap:butt; stroke-linejoin:round; stroke-width:4; stroke-opacity:1; fill:none" points="
  261.591,1009.97 280.489,1009.97 
  "/>
<polyline clip-path="url(#clip890)" style="stroke:#000000; stroke-linecap:butt; stroke-linejoin:round; stroke-width:4; stroke-opacity:1; fill:none" points="
  261.591,697.278 280.489,697.278 
  "/>
<polyline clip-path="url(#clip890)" style="stroke:#000000; stroke-linecap:butt; stroke-linejoin:round; stroke-width:4; stroke-opacity:1; fill:none" points="
  261.591,384.581 280.489,384.581 
  "/>
<polyline clip-path="url(#clip890)" style="stroke:#000000; stroke-linecap:butt; stroke-linejoin:round; stroke-width:4; stroke-opacity:1; fill:none" points="
  261.591,71.8846 280.489,71.8846 
  "/>
<path clip-path="url(#clip890)" d="M215.087 1308.47 Q211.476 1308.47 209.647 1312.03 Q207.842 1315.58 207.842 1322.71 Q207.842 1329.81 209.647 1333.38 Q211.476 1336.92 215.087 1336.92 Q218.721 1336.92 220.527 1333.38 Q222.355 1329.81 222.355 1322.71 Q222.355 1315.58 220.527 1312.03 Q218.721 1308.47 215.087 1308.47 M215.087 1304.77 Q220.897 1304.77 223.953 1309.37 Q227.031 1313.96 227.031 1322.71 Q227.031 1331.43 223.953 1336.04 Q220.897 1340.62 215.087 1340.62 Q209.277 1340.62 206.198 1336.04 Q203.142 1331.43 203.142 1322.71 Q203.142 1313.96 206.198 1309.37 Q209.277 1304.77 215.087 1304.77 Z" fill="#000000" fill-rule="evenodd" fill-opacity="1" /><path clip-path="url(#clip890)" d="M148.791 1023.32 L165.11 1023.32 L165.11 1027.25 L143.166 1027.25 L143.166 1023.32 Q145.828 1020.56 150.411 1015.94 Q155.018 1011.28 156.198 1009.94 Q158.444 1007.42 159.323 1005.68 Q160.226 1003.92 160.226 1002.23 Q160.226 999.477 158.282 997.741 Q156.36 996.005 153.258 996.005 Q151.059 996.005 148.606 996.769 Q146.175 997.533 143.397 999.084 L143.397 994.361 Q146.221 993.227 148.675 992.648 Q151.129 992.07 153.166 992.07 Q158.536 992.07 161.731 994.755 Q164.925 997.44 164.925 1001.93 Q164.925 1004.06 164.115 1005.98 Q163.328 1007.88 161.221 1010.47 Q160.643 1011.14 157.541 1014.36 Q154.439 1017.56 148.791 1023.32 Z" fill="#000000" fill-rule="evenodd" fill-opacity="1" /><path clip-path="url(#clip890)" d="M174.971 992.695 L193.328 992.695 L193.328 996.63 L179.254 996.63 L179.254 1005.1 Q180.272 1004.75 181.291 1004.59 Q182.309 1004.41 183.328 1004.41 Q189.115 1004.41 192.494 1007.58 Q195.874 1010.75 195.874 1016.17 Q195.874 1021.75 192.402 1024.85 Q188.93 1027.93 182.61 1027.93 Q180.434 1027.93 178.166 1027.56 Q175.92 1027.19 173.513 1026.44 L173.513 1021.75 Q175.596 1022.88 177.819 1023.44 Q180.041 1023.99 182.518 1023.99 Q186.522 1023.99 188.86 1021.88 Q191.198 1019.78 191.198 1016.17 Q191.198 1012.56 188.86 1010.45 Q186.522 1008.34 182.518 1008.34 Q180.643 1008.34 178.768 1008.76 Q176.916 1009.18 174.971 1010.06 L174.971 992.695 Z" fill="#000000" fill-rule="evenodd" fill-opacity="1" /><path clip-path="url(#clip890)" d="M215.087 995.773 Q211.476 995.773 209.647 999.338 Q207.842 1002.88 207.842 1010.01 Q207.842 1017.12 209.647 1020.68 Q211.476 1024.22 215.087 1024.22 Q218.721 1024.22 220.527 1020.68 Q222.355 1017.12 222.355 1010.01 Q222.355 1002.88 220.527 999.338 Q218.721 995.773 215.087 995.773 M215.087 992.07 Q220.897 992.07 223.953 996.676 Q227.031 1001.26 227.031 1010.01 Q227.031 1018.74 223.953 1023.34 Q220.897 1027.93 215.087 1027.93 Q209.277 1027.93 206.198 1023.34 Q203.142 1018.74 203.142 1010.01 Q203.142 1001.26 206.198 996.676 Q209.277 992.07 215.087 992.07 Z" fill="#000000" fill-rule="evenodd" fill-opacity="1" /><path clip-path="url(#clip890)" d="M144.809 679.998 L163.166 679.998 L163.166 683.933 L149.092 683.933 L149.092 692.405 Q150.11 692.058 151.129 691.896 Q152.147 691.711 153.166 691.711 Q158.953 691.711 162.332 694.882 Q165.712 698.053 165.712 703.47 Q165.712 709.049 162.24 712.151 Q158.768 715.229 152.448 715.229 Q150.272 715.229 148.004 714.859 Q145.759 714.489 143.351 713.748 L143.351 709.049 Q145.434 710.183 147.657 710.739 Q149.879 711.294 152.356 711.294 Q156.36 711.294 158.698 709.188 Q161.036 707.081 161.036 703.47 Q161.036 699.859 158.698 697.753 Q156.36 695.646 152.356 695.646 Q150.481 695.646 148.606 696.063 Q146.754 696.479 144.809 697.359 L144.809 679.998 Z" fill="#000000" fill-rule="evenodd" fill-opacity="1" /><path clip-path="url(#clip890)" d="M184.925 683.077 Q181.314 683.077 179.485 686.642 Q177.68 690.183 177.68 697.313 Q177.68 704.419 179.485 707.984 Q181.314 711.526 184.925 711.526 Q188.559 711.526 190.365 707.984 Q192.193 704.419 192.193 697.313 Q192.193 690.183 190.365 686.642 Q188.559 683.077 184.925 683.077 M184.925 679.373 Q190.735 679.373 193.791 683.979 Q196.869 688.563 196.869 697.313 Q196.869 706.04 193.791 710.646 Q190.735 715.229 184.925 715.229 Q179.115 715.229 176.036 710.646 Q172.981 706.04 172.981 697.313 Q172.981 688.563 176.036 683.979 Q179.115 679.373 184.925 679.373 Z" fill="#000000" fill-rule="evenodd" fill-opacity="1" /><path clip-path="url(#clip890)" d="M215.087 683.077 Q211.476 683.077 209.647 686.642 Q207.842 690.183 207.842 697.313 Q207.842 704.419 209.647 707.984 Q211.476 711.526 215.087 711.526 Q218.721 711.526 220.527 707.984 Q222.355 704.419 222.355 697.313 Q222.355 690.183 220.527 686.642 Q218.721 683.077 215.087 683.077 M215.087 679.373 Q220.897 679.373 223.953 683.979 Q227.031 688.563 227.031 697.313 Q227.031 706.04 223.953 710.646 Q220.897 715.229 215.087 715.229 Q209.277 715.229 206.198 710.646 Q203.142 706.04 203.142 697.313 Q203.142 688.563 206.198 683.979 Q209.277 679.373 215.087 679.373 Z" fill="#000000" fill-rule="evenodd" fill-opacity="1" /><path clip-path="url(#clip890)" d="M143.583 367.301 L165.805 367.301 L165.805 369.292 L153.258 401.861 L148.374 401.861 L160.18 371.236 L143.583 371.236 L143.583 367.301 Z" fill="#000000" fill-rule="evenodd" fill-opacity="1" /><path clip-path="url(#clip890)" d="M174.971 367.301 L193.328 367.301 L193.328 371.236 L179.254 371.236 L179.254 379.709 Q180.272 379.361 181.291 379.199 Q182.309 379.014 183.328 379.014 Q189.115 379.014 192.494 382.185 Q195.874 385.357 195.874 390.773 Q195.874 396.352 192.402 399.454 Q188.93 402.533 182.61 402.533 Q180.434 402.533 178.166 402.162 Q175.92 401.792 173.513 401.051 L173.513 396.352 Q175.596 397.486 177.819 398.042 Q180.041 398.597 182.518 398.597 Q186.522 398.597 188.86 396.491 Q191.198 394.385 191.198 390.773 Q191.198 387.162 188.86 385.056 Q186.522 382.949 182.518 382.949 Q180.643 382.949 178.768 383.366 Q176.916 383.783 174.971 384.662 L174.971 367.301 Z" fill="#000000" fill-rule="evenodd" fill-opacity="1" /><path clip-path="url(#clip890)" d="M215.087 370.38 Q211.476 370.38 209.647 373.945 Q207.842 377.486 207.842 384.616 Q207.842 391.722 209.647 395.287 Q211.476 398.829 215.087 398.829 Q218.721 398.829 220.527 395.287 Q222.355 391.722 222.355 384.616 Q222.355 377.486 220.527 373.945 Q218.721 370.38 215.087 370.38 M215.087 366.676 Q220.897 366.676 223.953 371.283 Q227.031 375.866 227.031 384.616 Q227.031 393.343 223.953 397.949 Q220.897 402.533 215.087 402.533 Q209.277 402.533 206.198 397.949 Q203.142 393.343 203.142 384.616 Q203.142 375.866 206.198 371.283 Q209.277 366.676 215.087 366.676 Z" fill="#000000" fill-rule="evenodd" fill-opacity="1" /><path clip-path="url(#clip890)" d="M115.411 85.2294 L123.05 85.2294 L123.05 58.8638 L114.74 60.5305 L114.74 56.2713 L123.004 54.6046 L127.68 54.6046 L127.68 85.2294 L135.319 85.2294 L135.319 89.1646 L115.411 89.1646 L115.411 85.2294 Z" fill="#000000" fill-rule="evenodd" fill-opacity="1" /><path clip-path="url(#clip890)" d="M154.763 57.6833 Q151.152 57.6833 149.323 61.2481 Q147.518 64.7897 147.518 71.9193 Q147.518 79.0258 149.323 82.5906 Q151.152 86.1322 154.763 86.1322 Q158.397 86.1322 160.203 82.5906 Q162.032 79.0258 162.032 71.9193 Q162.032 64.7897 160.203 61.2481 Q158.397 57.6833 154.763 57.6833 M154.763 53.9796 Q160.573 53.9796 163.629 58.5861 Q166.707 63.1694 166.707 71.9193 Q166.707 80.6461 163.629 85.2526 Q160.573 89.8359 154.763 89.8359 Q148.953 89.8359 145.874 85.2526 Q142.819 80.6461 142.819 71.9193 Q142.819 63.1694 145.874 58.5861 Q148.953 53.9796 154.763 53.9796 Z" fill="#000000" fill-rule="evenodd" fill-opacity="1" /><path clip-path="url(#clip890)" d="M184.925 57.6833 Q181.314 57.6833 179.485 61.2481 Q177.68 64.7897 177.68 71.9193 Q177.68 79.0258 179.485 82.5906 Q181.314 86.1322 184.925 86.1322 Q188.559 86.1322 190.365 82.5906 Q192.193 79.0258 192.193 71.9193 Q192.193 64.7897 190.365 61.2481 Q188.559 57.6833 184.925 57.6833 M184.925 53.9796 Q190.735 53.9796 193.791 58.5861 Q196.869 63.1694 196.869 71.9193 Q196.869 80.6461 193.791 85.2526 Q190.735 89.8359 184.925 89.8359 Q179.115 89.8359 176.036 85.2526 Q172.981 80.6461 172.981 71.9193 Q172.981 63.1694 176.036 58.5861 Q179.115 53.9796 184.925 53.9796 Z" fill="#000000" fill-rule="evenodd" fill-opacity="1" /><path clip-path="url(#clip890)" d="M215.087 57.6833 Q211.476 57.6833 209.647 61.2481 Q207.842 64.7897 207.842 71.9193 Q207.842 79.0258 209.647 82.5906 Q211.476 86.1322 215.087 86.1322 Q218.721 86.1322 220.527 82.5906 Q222.355 79.0258 222.355 71.9193 Q222.355 64.7897 220.527 61.2481 Q218.721 57.6833 215.087 57.6833 M215.087 53.9796 Q220.897 53.9796 223.953 58.5861 Q227.031 63.1694 227.031 71.9193 Q227.031 80.6461 223.953 85.2526 Q220.897 89.8359 215.087 89.8359 Q209.277 89.8359 206.198 85.2526 Q203.142 80.6461 203.142 71.9193 Q203.142 63.1694 206.198 58.5861 Q209.277 53.9796 215.087 53.9796 Z" fill="#000000" fill-rule="evenodd" fill-opacity="1" /><path clip-path="url(#clip890)" d="M18.4042 831.26 L18.4042 822.603 L58.158 801.532 L18.4042 801.532 L18.4042 795.294 L65.9242 795.294 L65.9242 803.951 L26.1703 825.021 L65.9242 825.021 L65.9242 831.26 L18.4042 831.26 Z" fill="#000000" fill-rule="evenodd" fill-opacity="1" /><path clip-path="url(#clip890)" d="M51.8559 783.358 L30.2762 783.358 L30.2762 777.501 L51.6331 777.501 Q56.6939 777.501 59.2402 775.528 Q61.7546 773.555 61.7546 769.608 Q61.7546 764.866 58.7309 762.128 Q55.7072 759.359 50.4873 759.359 L30.2762 759.359 L30.2762 753.503 L65.9242 753.503 L65.9242 759.359 L60.4496 759.359 Q63.6962 761.492 65.2876 764.324 Q66.8472 767.125 66.8472 770.849 Q66.8472 776.992 63.0278 780.175 Q59.2083 783.358 51.8559 783.358 M29.4168 768.621 L29.4168 768.621 Z" fill="#000000" fill-rule="evenodd" fill-opacity="1" /><path clip-path="url(#clip890)" d="M37.1193 713.685 Q33.1726 711.489 31.2947 708.434 Q29.4168 705.378 29.4168 701.24 Q29.4168 695.67 33.3317 692.647 Q37.2148 689.623 44.4081 689.623 L65.9242 689.623 L65.9242 695.511 L44.599 695.511 Q39.4746 695.511 36.992 697.325 Q34.5094 699.14 34.5094 702.864 Q34.5094 707.415 37.5331 710.057 Q40.5568 712.699 45.7767 712.699 L65.9242 712.699 L65.9242 718.587 L44.599 718.587 Q39.4428 718.587 36.992 720.401 Q34.5094 722.215 34.5094 726.003 Q34.5094 730.491 37.5649 733.133 Q40.5886 735.774 45.7767 735.774 L65.9242 735.774 L65.9242 741.663 L30.2762 741.663 L30.2762 735.774 L35.8144 735.774 Q32.536 733.769 30.9764 730.968 Q29.4168 728.167 29.4168 724.316 Q29.4168 720.433 31.3902 717.727 Q33.3636 714.99 37.1193 713.685 Z" fill="#000000" fill-rule="evenodd" fill-opacity="1" /><path clip-path="url(#clip890)" d="M48.132 652.352 Q41.6708 652.352 38.0105 655.025 Q34.3184 657.667 34.3184 662.314 Q34.3184 666.961 38.0105 669.635 Q41.6708 672.276 48.132 672.276 Q54.5932 672.276 58.2853 669.635 Q61.9456 666.961 61.9456 662.314 Q61.9456 657.667 58.2853 655.025 Q54.5932 652.352 48.132 652.352 M35.6871 672.276 Q32.5042 670.43 30.9764 667.629 Q29.4168 664.797 29.4168 660.882 Q29.4168 654.389 34.5731 650.346 Q39.7293 646.272 48.132 646.272 Q56.5347 646.272 61.691 650.346 Q66.8472 654.389 66.8472 660.882 Q66.8472 664.797 65.3194 667.629 Q63.7598 670.43 60.577 672.276 L65.9242 672.276 L65.9242 678.165 L16.399 678.165 L16.399 672.276 L35.6871 672.276 Z" fill="#000000" fill-rule="evenodd" fill-opacity="1" /><path clip-path="url(#clip890)" d="M46.6361 606.073 L49.5006 606.073 L49.5006 633 Q55.5481 632.618 58.7309 629.371 Q61.8819 626.093 61.8819 620.269 Q61.8819 616.895 61.0544 613.744 Q60.2269 610.561 58.5718 607.442 L64.1099 607.442 Q65.4467 610.593 66.147 613.903 Q66.8472 617.213 66.8472 620.619 Q66.8472 629.149 61.8819 634.146 Q56.9167 639.111 48.4503 639.111 Q39.6974 639.111 34.5731 634.4 Q29.4168 629.658 29.4168 621.637 Q29.4168 614.444 34.0638 610.274 Q38.6789 606.073 46.6361 606.073 M44.9173 611.929 Q40.1112 611.993 37.2466 614.635 Q34.3821 617.245 34.3821 621.573 Q34.3821 626.475 37.1512 629.435 Q39.9202 632.363 44.9492 632.809 L44.9173 611.929 Z" fill="#000000" fill-rule="evenodd" fill-opacity="1" /><path clip-path="url(#clip890)" d="M35.7507 575.804 Q35.1778 576.791 34.9232 577.968 Q34.6367 579.114 34.6367 580.515 Q34.6367 585.48 37.8832 588.154 Q41.0979 590.795 47.1453 590.795 L65.9242 590.795 L65.9242 596.684 L30.2762 596.684 L30.2762 590.795 L35.8144 590.795 Q32.5679 588.949 31.0083 585.989 Q29.4168 583.029 29.4168 578.796 Q29.4168 578.191 29.5123 577.459 Q29.576 576.727 29.7351 575.836 L35.7507 575.804 Z" fill="#000000" fill-rule="evenodd" fill-opacity="1" /><polyline clip-path="url(#clip892)" style="stroke:#009af9; stroke-linecap:butt; stroke-linejoin:round; stroke-width:4; stroke-opacity:1; fill:none" points="
  318.058,84.3925 322.764,84.3925 327.469,84.3925 332.175,84.3925 336.88,84.3925 341.586,84.3925 346.292,84.3925 350.997,85.6433 355.703,85.6433 360.408,86.894 
  365.114,88.1448 369.819,88.1448 374.525,89.3956 379.231,90.6464 383.936,91.8972 388.642,95.6495 393.347,96.9003 398.053,96.9003 402.759,100.653 407.464,100.653 
  412.17,101.903 416.875,103.154 421.581,106.907 426.286,108.157 430.992,108.157 435.698,109.408 440.403,109.408 445.109,110.659 449.814,110.659 454.52,110.659 
  459.225,111.91 463.931,114.411 468.637,116.913 473.342,119.414 478.048,123.167 482.753,123.167 487.459,126.919 492.164,130.672 496.87,131.922 501.576,133.173 
  506.281,133.173 510.987,134.424 515.692,135.675 520.398,135.675 525.104,139.427 529.809,139.427 534.515,141.929 539.22,149.433 543.926,149.433 548.631,153.186 
  553.337,154.437 558.043,156.938 562.748,158.189 567.454,159.44 572.159,163.192 576.865,171.948 581.57,175.7 586.276,178.201 590.982,178.201 595.687,183.205 
  600.393,186.957 605.098,188.208 609.804,190.709 614.51,194.462 619.215,198.214 623.921,198.214 628.626,198.214 633.332,205.719 638.037,209.471 642.743,213.224 
  647.449,214.474 652.154,216.976 656.86,219.477 661.565,221.979 666.271,229.484 670.976,234.487 675.682,241.992 680.388,244.493 685.093,249.496 689.799,253.249 
  694.504,258.252 699.21,260.753 703.915,265.757 708.621,272.01 713.327,279.515 718.032,284.518 722.738,290.772 727.443,299.528 732.149,304.531 736.855,314.537 
  741.56,317.039 746.266,320.791 750.971,328.296 755.677,335.801 760.382,339.553 765.088,342.055 769.794,348.308 774.499,352.061 779.205,357.064 783.91,363.318 
  788.616,372.073 793.321,377.077 798.027,387.083 802.733,392.086 807.438,400.842 812.144,408.346 816.849,414.6 821.555,420.854 826.26,425.857 830.966,435.864 
  835.672,448.371 840.377,459.629 845.083,467.133 849.788,470.886 854.494,477.14 859.2,479.641 863.905,494.651 868.611,503.406 873.316,510.911 878.022,519.666 
  882.727,524.669 887.433,530.923 892.139,542.18 896.844,544.682 901.55,547.184 906.255,555.939 910.961,560.942 915.666,563.444 920.372,570.949 925.078,578.453 
  929.783,593.463 934.489,598.466 939.194,608.472 943.9,610.974 948.605,613.475 953.311,620.98 958.017,625.983 962.722,629.736 967.428,630.986 972.133,642.243 
  976.839,645.996 981.545,654.751 986.25,657.253 990.956,663.507 995.661,666.008 1000.37,669.761 1005.07,672.262 1009.78,678.516 1014.48,691.024 1019.19,697.278 
  1023.89,699.78 1028.6,703.532 1033.31,708.535 1038.01,709.786 1042.72,714.789 1047.42,718.541 1052.13,727.297 1056.83,736.052 1061.54,742.306 1066.24,747.31 
  1070.95,751.062 1075.66,759.817 1080.36,762.319 1085.07,768.573 1089.77,772.325 1094.48,777.328 1099.18,784.833 1103.89,793.589 1108.6,798.592 1113.3,798.592 
  1118.01,806.096 1122.71,811.1 1127.42,816.103 1132.12,826.109 1136.83,828.611 1141.53,837.366 1146.24,842.369 1150.95,848.623 1155.65,852.376 1160.36,856.128 
  1165.06,859.88 1169.77,866.134 1174.47,868.636 1179.18,872.388 1183.88,879.893 1188.59,882.394 1193.3,888.648 1198,889.899 1202.71,894.902 1207.41,903.658 
  1212.12,907.41 1216.82,911.163 1221.53,912.413 1226.23,913.664 1230.94,914.915 1235.65,919.918 1240.35,924.921 1245.06,928.674 1249.76,932.426 1254.47,933.677 
  1259.17,938.68 1263.88,941.181 1268.58,943.683 1273.29,948.686 1278,951.188 1282.7,952.439 1287.41,953.689 1292.11,954.94 1296.82,959.943 1301.52,964.946 
  1306.23,967.448 1310.93,967.448 1315.64,968.699 1320.35,972.451 1325.05,976.204 1329.76,977.454 1334.46,977.454 1339.17,978.705 1343.87,983.708 1348.58,984.959 
  1353.29,987.461 1357.99,992.464 1362.7,993.715 1367.4,993.715 1372.11,997.467 1376.81,999.968 1381.52,1001.22 1386.22,1002.47 1390.93,1004.97 1395.64,1006.22 
  1400.34,1007.47 1405.05,1011.23 1409.75,1011.23 1414.46,1013.73 1419.16,1016.23 1423.87,1019.98 1428.57,1021.23 1433.28,1024.98 1437.99,1024.98 1442.69,1026.23 
  1447.4,1029.99 1452.1,1029.99 1456.81,1033.74 1461.51,1036.24 1466.22,1037.49 1470.92,1037.49 1475.63,1037.49 1480.34,1038.74 1485.04,1045 1489.75,1045 
  1494.45,1045 1499.16,1045 1503.86,1045 1508.57,1046.25 1513.27,1046.25 1517.98,1046.25 1522.69,1046.25 1527.39,1046.25 1532.1,1048.75 1536.8,1052.5 
  1541.51,1053.75 1546.21,1055 1550.92,1055 1555.62,1055 1560.33,1056.25 1565.04,1057.5 1569.74,1057.5 1574.45,1060.01 1579.15,1062.51 1583.86,1063.76 
  1588.56,1063.76 1593.27,1065.01 1597.98,1066.26 1602.68,1068.76 1607.39,1070.01 1612.09,1070.01 1616.8,1070.01 1621.5,1072.51 1626.21,1073.76 1630.91,1073.76 
  1635.62,1073.76 1640.33,1073.76 1645.03,1073.76 1649.74,1075.02 1654.44,1075.02 1659.15,1075.02 1663.85,1076.27 1668.56,1076.27 1673.26,1076.27 1677.97,1076.27 
  1682.68,1076.27 1687.38,1076.27 1692.09,1076.27 1696.79,1076.27 1701.5,1076.27 1706.2,1078.77 1710.91,1080.02 1715.61,1081.27 1720.32,1083.77 1725.03,1083.77 
  1729.73,1085.02 1734.44,1086.27 1739.14,1087.52 1743.85,1087.52 1748.55,1087.52 1753.26,1087.52 1757.96,1087.52 1762.67,1087.52 1767.38,1087.52 1772.08,1087.52 
  1776.79,1087.52 1781.49,1087.52 1786.2,1087.52 1790.9,1087.52 1795.61,1087.52 1800.31,1087.52 1805.02,1087.52 1809.73,1088.77 1814.43,1090.03 1819.14,1090.03 
  1823.84,1091.28 1828.55,1091.28 1833.25,1092.53 1837.96,1092.53 1842.67,1092.53 1847.37,1092.53 1852.08,1092.53 1856.78,1092.53 1861.49,1092.53 1866.19,1093.78 
  1870.9,1095.03 1875.6,1096.28 1880.31,1096.28 1885.02,1097.53 1889.72,1097.53 1894.43,1098.78 1899.13,1098.78 1903.84,1098.78 1908.54,1098.78 1913.25,1098.78 
  1917.95,1098.78 1922.66,1098.78 1927.37,1098.78 1932.07,1098.78 1936.78,1098.78 1941.48,1100.03 1946.19,1100.03 1950.89,1100.03 1955.6,1100.03 1960.3,1100.03 
  1965.01,1100.03 1969.72,1100.03 1974.42,1100.03 1979.13,1101.28 1983.83,1101.28 1988.54,1101.28 1993.24,1101.28 1997.95,1101.28 2002.65,1101.28 2007.36,1102.53 
  2012.07,1102.53 2016.77,1102.53 2021.48,1102.53 2026.18,1102.53 2030.89,1102.53 2035.59,1102.53 2040.3,1102.53 2045,1102.53 2049.71,1102.53 2054.42,1103.78 
  2059.12,1103.78 2063.83,1105.03 2068.53,1105.03 2073.24,1105.03 2077.94,1105.03 2082.65,1105.03 2087.36,1105.03 2092.06,1106.29 2096.77,1106.29 2101.47,1106.29 
  2106.18,1106.29 2110.88,1106.29 2115.59,1106.29 2120.29,1106.29 2125,1106.29 2129.71,1106.29 2134.41,1107.54 2139.12,1107.54 2143.82,1107.54 2148.53,1108.79 
  2153.23,1108.79 2157.94,1108.79 2162.64,1108.79 2167.35,1108.79 2172.06,1108.79 2176.76,1108.79 2181.47,1108.79 2186.17,1108.79 2190.88,1108.79 2195.58,1108.79 
  2200.29,1108.79 
  "/>
<polyline clip-path="url(#clip892)" style="stroke:#e26f46; stroke-linecap:butt; stroke-linejoin:round; stroke-width:4; stroke-opacity:1; fill:none" points="
  318.058,1310.16 322.764,1310.16 327.469,1310.16 332.175,1310.16 336.88,1310.16 341.586,1312.67 346.292,1312.67 350.997,1311.41 355.703,1311.41 360.408,1310.16 
  365.114,1308.91 369.819,1308.91 374.525,1308.91 379.231,1307.66 383.936,1307.66 388.642,1303.91 393.347,1302.66 398.053,1302.66 402.759,1298.91 407.464,1298.91 
  412.17,1297.66 416.875,1296.4 421.581,1292.65 426.286,1293.9 430.992,1293.9 435.698,1292.65 440.403,1292.65 445.109,1291.4 449.814,1292.65 454.52,1295.15 
  459.225,1296.4 463.931,1293.9 468.637,1291.4 473.342,1290.15 478.048,1286.4 482.753,1288.9 487.459,1286.4 492.164,1283.9 496.87,1282.65 501.576,1282.65 
  506.281,1282.65 510.987,1282.65 515.692,1282.65 520.398,1282.65 525.104,1280.14 529.809,1281.4 534.515,1280.14 539.22,1275.14 543.926,1276.39 548.631,1272.64 
  553.337,1272.64 558.043,1272.64 562.748,1271.39 567.454,1270.14 572.159,1266.39 576.865,1257.63 581.57,1253.88 586.276,1252.63 590.982,1253.88 595.687,1251.38 
  600.393,1247.62 605.098,1246.37 609.804,1247.62 614.51,1243.87 619.215,1245.12 623.921,1246.37 628.626,1248.88 633.332,1241.37 638.037,1238.87 642.743,1235.12 
  647.449,1236.37 652.154,1235.12 656.86,1233.87 661.565,1231.36 666.271,1225.11 670.976,1222.61 675.682,1215.1 680.388,1215.1 685.093,1212.6 689.799,1208.85 
  694.504,1205.1 699.21,1205.1 703.915,1202.6 708.621,1200.09 713.327,1193.84 718.032,1193.84 722.738,1188.84 727.443,1182.58 732.149,1177.58 736.855,1172.58 
  741.56,1173.83 746.266,1176.33 750.971,1177.58 755.677,1170.08 760.382,1173.83 765.088,1173.83 769.794,1173.83 774.499,1173.83 779.205,1171.33 783.91,1166.32 
  788.616,1161.32 793.321,1161.32 798.027,1155.07 802.733,1152.56 807.438,1148.81 812.144,1143.81 816.849,1141.31 821.555,1146.31 826.26,1146.31 830.966,1142.56 
  835.672,1132.55 840.377,1127.55 845.083,1130.05 849.788,1127.55 854.494,1122.55 859.2,1122.55 863.905,1112.54 868.611,1111.29 873.316,1106.29 878.022,1102.53 
  882.727,1105.03 887.433,1106.29 892.139,1097.53 896.844,1101.28 901.55,1107.54 906.255,1103.78 910.961,1103.78 915.666,1106.29 920.372,1106.29 925.078,1102.53 
  929.783,1095.03 934.489,1096.28 939.194,1096.28 943.9,1101.28 948.605,1103.78 953.311,1100.03 958.017,1098.78 962.722,1098.78 967.428,1103.78 972.133,1098.78 
  976.839,1101.28 981.545,1097.53 986.25,1101.28 990.956,1098.78 995.661,1101.28 1000.37,1103.78 1005.07,1106.29 1009.78,1105.03 1014.48,1100.03 1019.19,1102.53 
  1023.89,1106.29 1028.6,1106.29 1033.31,1106.29 1038.01,1111.29 1042.72,1108.79 1047.42,1112.54 1052.13,1106.29 1056.83,1097.53 1061.54,1098.78 1066.24,1097.53 
  1070.95,1101.28 1075.66,1098.78 1080.36,1101.28 1085.07,1103.78 1089.77,1105.03 1094.48,1103.78 1099.18,1101.28 1103.89,1097.53 1108.6,1096.28 1113.3,1098.78 
  1118.01,1096.28 1122.71,1098.78 1127.42,1101.28 1132.12,1098.78 1136.83,1102.53 1141.53,1097.53 1146.24,1100.03 1150.95,1100.03 1155.65,1098.78 1160.36,1098.78 
  1165.06,1100.03 1169.77,1096.28 1174.47,1102.53 1179.18,1103.78 1183.88,1103.78 1188.59,1110.04 1193.3,1110.04 1198,1112.54 1202.71,1113.79 1207.41,1106.29 
  1212.12,1108.79 1216.82,1110.04 1221.53,1115.04 1226.23,1118.79 1230.94,1121.29 1235.65,1121.29 1240.35,1120.04 1245.06,1121.29 1249.76,1123.8 1254.47,1127.55 
  1259.17,1123.8 1263.88,1123.8 1268.58,1125.05 1273.29,1122.55 1278,1125.05 1282.7,1125.05 1287.41,1132.55 1292.11,1135.05 1296.82,1135.05 1301.52,1132.55 
  1306.23,1137.56 1310.93,1143.81 1315.64,1147.56 1320.35,1148.81 1325.05,1148.81 1329.76,1150.06 1334.46,1151.31 1339.17,1158.82 1343.87,1155.07 1348.58,1157.57 
  1353.29,1161.32 1357.99,1158.82 1362.7,1158.82 1367.4,1161.32 1372.11,1161.32 1376.81,1166.32 1381.52,1172.58 1386.22,1175.08 1390.93,1177.58 1395.64,1178.83 
  1400.34,1185.08 1405.05,1183.83 1409.75,1185.08 1414.46,1182.58 1419.16,1185.08 1423.87,1182.58 1428.57,1185.08 1433.28,1185.08 1437.99,1191.34 1442.69,1191.34 
  1447.4,1191.34 1452.1,1196.34 1456.81,1197.59 1461.51,1200.09 1466.22,1203.85 1470.92,1208.85 1475.63,1212.6 1480.34,1213.85 1485.04,1210.1 1489.75,1212.6 
  1494.45,1215.1 1499.16,1218.86 1503.86,1223.86 1508.57,1222.61 1513.27,1226.36 1517.98,1227.61 1522.69,1230.11 1527.39,1232.61 1532.1,1231.36 1536.8,1228.86 
  1541.51,1231.36 1546.21,1235.12 1550.92,1236.37 1555.62,1240.12 1560.33,1242.62 1565.04,1241.37 1569.74,1241.37 1574.45,1241.37 1579.15,1242.62 1583.86,1242.62 
  1588.56,1243.87 1593.27,1245.12 1597.98,1245.12 1602.68,1243.87 1607.39,1246.37 1612.09,1250.13 1616.8,1250.13 1621.5,1247.62 1626.21,1247.62 1630.91,1248.88 
  1635.62,1252.63 1640.33,1255.13 1645.03,1256.38 1649.74,1256.38 1654.44,1258.88 1659.15,1260.13 1663.85,1262.63 1668.56,1263.88 1673.26,1265.14 1677.97,1265.14 
  1682.68,1267.64 1687.38,1267.64 1692.09,1268.89 1696.79,1268.89 1701.5,1271.39 1706.2,1270.14 1710.91,1270.14 1715.61,1270.14 1720.32,1268.89 1725.03,1270.14 
  1729.73,1268.89 1734.44,1268.89 1739.14,1268.89 1743.85,1268.89 1748.55,1268.89 1753.26,1268.89 1757.96,1271.39 1762.67,1271.39 1767.38,1271.39 1772.08,1273.89 
  1776.79,1273.89 1781.49,1273.89 1786.2,1275.14 1790.9,1275.14 1795.61,1277.64 1800.31,1278.89 1805.02,1280.14 1809.73,1281.4 1814.43,1280.14 1819.14,1280.14 
  1823.84,1278.89 1828.55,1280.14 1833.25,1281.4 1837.96,1281.4 1842.67,1283.9 1847.37,1286.4 1852.08,1287.65 1856.78,1287.65 1861.49,1288.9 1866.19,1287.65 
  1870.9,1286.4 1875.6,1286.4 1880.31,1286.4 1885.02,1287.65 1889.72,1287.65 1894.43,1288.9 1899.13,1288.9 1903.84,1288.9 1908.54,1288.9 1913.25,1293.9 
  1917.95,1295.15 1922.66,1296.4 1927.37,1296.4 1932.07,1296.4 1936.78,1297.66 1941.48,1297.66 1946.19,1297.66 1950.89,1297.66 1955.6,1300.16 1960.3,1301.41 
  1965.01,1301.41 1969.72,1301.41 1974.42,1302.66 1979.13,1301.41 1983.83,1301.41 1988.54,1302.66 1993.24,1302.66 1997.95,1302.66 2002.65,1303.91 2007.36,1306.41 
  2012.07,1307.66 2016.77,1307.66 2021.48,1307.66 2026.18,1307.66 2030.89,1308.91 2035.59,1308.91 2040.3,1310.16 2045,1310.16 2049.71,1310.16 2054.42,1310.16 
  2059.12,1310.16 2063.83,1308.91 2068.53,1308.91 2073.24,1308.91 2077.94,1308.91 2082.65,1308.91 2087.36,1310.16 2092.06,1308.91 2096.77,1308.91 2101.47,1310.16 
  2106.18,1310.16 2110.88,1310.16 2115.59,1310.16 2120.29,1310.16 2125,1310.16 2129.71,1310.16 2134.41,1308.91 2139.12,1310.16 2143.82,1311.41 2148.53,1310.16 
  2153.23,1311.41 2157.94,1311.41 2162.64,1311.41 2167.35,1311.41 2172.06,1311.41 2176.76,1311.41 2181.47,1312.67 2186.17,1312.67 2190.88,1313.92 2195.58,1313.92 
  2200.29,1313.92 
  "/>
<polyline clip-path="url(#clip892)" style="stroke:#3da44d; stroke-linecap:butt; stroke-linejoin:round; stroke-width:4; stroke-opacity:1; fill:none" points="
  318.058,1322.67 322.764,1322.67 327.469,1322.67 332.175,1322.67 336.88,1322.67 341.586,1320.17 346.292,1320.17 350.997,1320.17 355.703,1320.17 360.408,1320.17 
  365.114,1320.17 369.819,1320.17 374.525,1318.92 379.231,1318.92 383.936,1317.67 388.642,1317.67 393.347,1317.67 398.053,1317.67 402.759,1317.67 407.464,1317.67 
  412.17,1317.67 416.875,1317.67 421.581,1317.67 426.286,1315.17 430.992,1315.17 435.698,1315.17 440.403,1315.17 445.109,1315.17 449.814,1313.92 454.52,1311.41 
  459.225,1308.91 463.931,1308.91 468.637,1308.91 473.342,1307.66 478.048,1307.66 482.753,1305.16 487.459,1303.91 492.164,1302.66 496.87,1302.66 501.576,1301.41 
  506.281,1301.41 510.987,1300.16 515.692,1298.91 520.398,1298.91 525.104,1297.66 529.809,1296.4 534.515,1295.15 539.22,1292.65 543.926,1291.4 548.631,1291.4 
  553.337,1290.15 558.043,1287.65 562.748,1287.65 567.454,1287.65 572.159,1287.65 576.865,1287.65 581.57,1287.65 586.276,1286.4 590.982,1285.15 595.687,1282.65 
  600.393,1282.65 605.098,1282.65 609.804,1278.89 614.51,1278.89 619.215,1273.89 623.921,1272.64 628.626,1270.14 633.332,1270.14 638.037,1268.89 642.743,1268.89 
  647.449,1266.39 652.154,1265.14 656.86,1263.88 661.565,1263.88 666.271,1262.63 670.976,1260.13 675.682,1260.13 680.388,1257.63 685.093,1255.13 689.799,1255.13 
  694.504,1253.88 699.21,1251.38 703.915,1248.88 708.621,1245.12 713.327,1243.87 718.032,1238.87 722.738,1237.62 727.443,1235.12 732.149,1235.12 736.855,1230.11 
  741.56,1226.36 746.266,1220.11 750.971,1211.35 755.677,1211.35 760.382,1203.85 765.088,1201.35 769.794,1195.09 774.499,1191.34 779.205,1188.84 783.91,1187.59 
  788.616,1183.83 793.321,1178.83 798.027,1175.08 802.733,1172.58 807.438,1167.57 812.144,1165.07 816.849,1161.32 821.555,1150.06 826.26,1145.06 830.966,1138.81 
  835.672,1136.3 840.377,1130.05 845.083,1120.04 849.788,1118.79 854.494,1117.54 859.2,1115.04 863.905,1110.04 868.611,1102.53 873.316,1100.03 878.022,1095.03 
  882.727,1087.52 887.433,1080.02 892.139,1077.52 896.844,1071.26 901.55,1062.51 906.255,1057.5 910.961,1052.5 915.666,1047.5 920.372,1039.99 925.078,1036.24 
  929.783,1028.74 934.489,1022.48 939.194,1012.48 943.9,1004.97 948.605,999.968 953.311,996.216 958.017,992.464 962.722,988.711 967.428,982.457 972.133,976.204 
  976.839,969.95 981.545,964.946 986.25,958.692 990.956,954.94 995.661,949.937 1000.37,943.683 1005.07,938.68 1009.78,933.677 1014.48,926.172 1019.19,917.417 
  1023.89,911.163 1028.6,907.41 1033.31,902.407 1038.01,896.153 1042.72,893.652 1047.42,886.147 1052.13,883.645 1056.83,883.645 1061.54,876.141 1066.24,872.388 
  1070.95,864.883 1075.66,858.63 1080.36,853.626 1085.07,844.871 1089.77,839.868 1094.48,836.115 1099.18,831.112 1103.89,826.109 1108.6,822.357 1113.3,819.855 
  1118.01,814.852 1122.71,807.347 1127.42,799.843 1132.12,792.338 1136.83,786.084 1141.53,782.332 1146.24,774.827 1150.95,768.573 1155.65,766.071 1160.36,762.319 
  1165.06,757.316 1169.77,754.814 1174.47,746.059 1179.18,741.056 1183.88,733.551 1188.59,724.795 1193.3,718.541 1198,714.789 1202.71,708.535 1207.41,707.284 
  1212.12,701.03 1216.82,696.027 1221.53,689.773 1226.23,684.77 1230.94,681.018 1235.65,676.015 1240.35,672.262 1245.06,667.259 1249.76,661.005 1254.47,656.002 
  1259.17,654.751 1263.88,652.25 1268.58,648.497 1273.29,645.996 1278,640.993 1282.7,639.742 1287.41,630.986 1292.11,627.234 1296.82,622.231 1301.52,619.729 
  1306.23,612.225 1310.93,605.971 1315.64,600.967 1320.35,595.964 1325.05,592.212 1329.76,589.71 1334.46,588.46 1339.17,579.704 1343.87,578.453 1348.58,574.701 
  1353.29,568.447 1357.99,565.945 1362.7,564.695 1367.4,562.193 1372.11,558.441 1376.81,550.936 1381.52,543.431 1386.22,539.679 1390.93,534.676 1395.64,532.174 
  1400.34,524.669 1405.05,522.168 1409.75,520.917 1414.46,520.917 1419.16,515.914 1423.87,514.663 1428.57,510.911 1433.28,507.158 1437.99,500.904 1442.69,499.654 
  1447.4,495.901 1452.1,490.898 1456.81,485.895 1461.51,480.892 1466.22,475.889 1470.92,470.886 1475.63,467.133 1480.34,464.632 1485.04,462.13 1489.75,459.629 
  1494.45,457.127 1499.16,453.375 1503.86,448.371 1508.57,448.371 1513.27,444.619 1517.98,443.368 1522.69,440.867 1527.39,438.365 1532.1,437.114 1536.8,435.864 
  1541.51,432.111 1546.21,427.108 1550.92,425.857 1555.62,422.105 1560.33,418.353 1565.04,418.353 1569.74,418.353 1574.45,415.851 1579.15,412.099 1583.86,410.848 
  1588.56,409.597 1593.27,407.095 1597.98,405.845 1602.68,404.594 1607.39,400.842 1612.09,397.089 1616.8,397.089 1621.5,397.089 1626.21,395.838 1630.91,394.588 
  1635.62,390.835 1640.33,388.334 1645.03,387.083 1649.74,385.832 1654.44,383.331 1659.15,382.08 1663.85,378.327 1668.56,377.077 1673.26,375.826 1677.97,375.826 
  1682.68,373.324 1687.38,373.324 1692.09,372.073 1696.79,372.073 1701.5,369.572 1706.2,368.321 1710.91,367.07 1715.61,365.82 1720.32,364.569 1725.03,363.318 
  1729.73,363.318 1734.44,362.067 1739.14,360.816 1743.85,360.816 1748.55,360.816 1753.26,360.816 1757.96,358.315 1762.67,358.315 1767.38,358.315 1772.08,355.813 
  1776.79,355.813 1781.49,355.813 1786.2,354.562 1790.9,354.562 1795.61,352.061 1800.31,350.81 1805.02,349.559 1809.73,347.058 1814.43,347.058 1819.14,347.058 
  1823.84,347.058 1828.55,345.807 1833.25,343.305 1837.96,343.305 1842.67,340.804 1847.37,338.302 1852.08,337.051 1856.78,337.051 1861.49,335.801 1866.19,335.801 
  1870.9,335.801 1875.6,334.55 1880.31,334.55 1885.02,332.048 1889.72,332.048 1894.43,329.547 1899.13,329.547 1903.84,329.547 1908.54,329.547 1913.25,324.544 
  1917.95,323.293 1922.66,322.042 1927.37,322.042 1932.07,322.042 1936.78,320.791 1941.48,319.54 1946.19,319.54 1950.89,319.54 1955.6,317.039 1960.3,315.788 
  1965.01,315.788 1969.72,315.788 1974.42,314.537 1979.13,314.537 1983.83,314.537 1988.54,313.286 1993.24,313.286 1997.95,313.286 2002.65,312.036 2007.36,308.283 
  2012.07,307.033 2016.77,307.033 2021.48,307.033 2026.18,307.033 2030.89,305.782 2035.59,305.782 2040.3,304.531 2045,304.531 2049.71,304.531 2054.42,303.28 
  2059.12,303.28 2063.83,303.28 2068.53,303.28 2073.24,303.28 2077.94,303.28 2082.65,303.28 2087.36,302.029 2092.06,302.029 2096.77,302.029 2101.47,300.779 
  2106.18,300.779 2110.88,300.779 2115.59,300.779 2120.29,300.779 2125,300.779 2129.71,300.779 2134.41,300.779 2139.12,299.528 2143.82,298.277 2148.53,298.277 
  2153.23,297.026 2157.94,297.026 2162.64,297.026 2167.35,297.026 2172.06,297.026 2176.76,297.026 2181.47,295.775 2186.17,295.775 2190.88,294.525 2195.58,294.525 
  2200.29,294.525 
  "/>
<path clip-path="url(#clip890)" d="
M1941.64 298.357 L2190.25 298.357 L2190.25 90.9966 L1941.64 90.9966  Z
  " fill="#ffffff" fill-rule="evenodd" fill-opacity="1"/>
<polyline clip-path="url(#clip890)" style="stroke:#000000; stroke-linecap:butt; stroke-linejoin:round; stroke-width:4; stroke-opacity:1; fill:none" points="
  1941.64,298.357 2190.25,298.357 2190.25,90.9966 1941.64,90.9966 1941.64,298.357 
  "/>
<polyline clip-path="url(#clip890)" style="stroke:#009af9; stroke-linecap:butt; stroke-linejoin:round; stroke-width:4; stroke-opacity:1; fill:none" points="
  1963.81,142.837 2096.82,142.837 
  "/>
<path clip-path="url(#clip890)" d="M2141.24 126.691 L2141.24 131.251 Q2138.58 129.978 2136.21 129.353 Q2133.85 128.728 2131.65 128.728 Q2127.83 128.728 2125.75 130.209 Q2123.69 131.691 2123.69 134.422 Q2123.69 136.714 2125.06 137.895 Q2126.45 139.052 2130.29 139.77 L2133.11 140.348 Q2138.34 141.344 2140.82 143.867 Q2143.32 146.367 2143.32 150.58 Q2143.32 155.603 2139.94 158.195 Q2136.58 160.788 2130.08 160.788 Q2127.63 160.788 2124.85 160.232 Q2122.09 159.677 2119.13 158.589 L2119.13 153.774 Q2121.98 155.371 2124.71 156.181 Q2127.44 156.992 2130.08 156.992 Q2134.08 156.992 2136.26 155.418 Q2138.44 153.844 2138.44 150.927 Q2138.44 148.381 2136.86 146.945 Q2135.31 145.51 2131.75 144.793 L2128.9 144.237 Q2123.67 143.195 2121.33 140.973 Q2118.99 138.751 2118.99 134.793 Q2118.99 130.209 2122.21 127.57 Q2125.45 124.932 2131.12 124.932 Q2133.55 124.932 2136.08 125.371 Q2138.6 125.811 2141.24 126.691 Z" fill="#000000" fill-rule="evenodd" fill-opacity="1" /><polyline clip-path="url(#clip890)" style="stroke:#e26f46; stroke-linecap:butt; stroke-linejoin:round; stroke-width:4; stroke-opacity:1; fill:none" points="
  1963.81,194.677 2096.82,194.677 
  "/>
<path clip-path="url(#clip890)" d="M2118.99 177.397 L2123.67 177.397 L2123.67 211.957 L2118.99 211.957 L2118.99 177.397 Z" fill="#000000" fill-rule="evenodd" fill-opacity="1" /><polyline clip-path="url(#clip890)" style="stroke:#3da44d; stroke-linecap:butt; stroke-linejoin:round; stroke-width:4; stroke-opacity:1; fill:none" points="
  1963.81,246.517 2096.82,246.517 
  "/>
<path clip-path="url(#clip890)" d="M2135.38 247.593 Q2136.89 248.102 2138.3 249.769 Q2139.73 251.436 2141.17 254.352 L2145.91 263.797 L2140.89 263.797 L2136.47 254.931 Q2134.76 251.459 2133.14 250.324 Q2131.54 249.19 2128.76 249.19 L2123.67 249.19 L2123.67 263.797 L2118.99 263.797 L2118.99 229.237 L2129.55 229.237 Q2135.47 229.237 2138.39 231.713 Q2141.31 234.19 2141.31 239.19 Q2141.31 242.454 2139.78 244.607 Q2138.27 246.76 2135.38 247.593 M2123.67 233.079 L2123.67 245.348 L2129.55 245.348 Q2132.93 245.348 2134.64 243.797 Q2136.38 242.223 2136.38 239.19 Q2136.38 236.158 2134.64 234.63 Q2132.93 233.079 2129.55 233.079 L2123.67 233.079 Z" fill="#000000" fill-rule="evenodd" fill-opacity="1" /></svg>
