<?xml version="1.0" encoding="utf-8"?>
<svg xmlns="http://www.w3.org/2000/svg" xmlns:xlink="http://www.w3.org/1999/xlink" width="576" height="384" viewBox="0 0 2304 1536">
<defs>
  <clipPath id="clip930">
    <rect x="0" y="0" width="2304" height="1536"/>
  </clipPath>
</defs>
<path clip-path="url(#clip930)" d="
M0 1536 L2304 1536 L2304 0 L0 0  Z
  " fill="#ffffff" fill-rule="evenodd" fill-opacity="1"/>
<defs>
  <clipPath id="clip931">
    <rect x="460" y="0" width="1614" height="1536"/>
  </clipPath>
</defs>
<path clip-path="url(#clip930)" d="
M234.323 1359.82 L2256.76 1359.82 L2256.76 47.2441 L234.323 47.2441  Z
  " fill="#ffffff" fill-rule="evenodd" fill-opacity="1"/>
<defs>
  <clipPath id="clip932">
    <rect x="234" y="47" width="2023" height="1314"/>
  </clipPath>
</defs>
<polyline clip-path="url(#clip932)" style="stroke:#000000; stroke-linecap:butt; stroke-linejoin:round; stroke-width:2; stroke-opacity:0.1; fill:none" points="
  412.225,1359.82 412.225,47.2441 
  "/>
<polyline clip-path="url(#clip932)" style="stroke:#000000; stroke-linecap:butt; stroke-linejoin:round; stroke-width:2; stroke-opacity:0.1; fill:none" points="
  578.888,1359.82 578.888,47.2441 
  "/>
<polyline clip-path="url(#clip932)" style="stroke:#000000; stroke-linecap:butt; stroke-linejoin:round; stroke-width:2; stroke-opacity:0.1; fill:none" points="
  745.551,1359.82 745.551,47.2441 
  "/>
<polyline clip-path="url(#clip932)" style="stroke:#000000; stroke-linecap:butt; stroke-linejoin:round; stroke-width:2; stroke-opacity:0.1; fill:none" points="
  912.214,1359.82 912.214,47.2441 
  "/>
<polyline clip-path="url(#clip932)" style="stroke:#000000; stroke-linecap:butt; stroke-linejoin:round; stroke-width:2; stroke-opacity:0.1; fill:none" points="
  1078.88,1359.82 1078.88,47.2441 
  "/>
<polyline clip-path="url(#clip932)" style="stroke:#000000; stroke-linecap:butt; stroke-linejoin:round; stroke-width:2; stroke-opacity:0.1; fill:none" points="
  1245.54,1359.82 1245.54,47.2441 
  "/>
<polyline clip-path="url(#clip932)" style="stroke:#000000; stroke-linecap:butt; stroke-linejoin:round; stroke-width:2; stroke-opacity:0.1; fill:none" points="
  1412.2,1359.82 1412.2,47.2441 
  "/>
<polyline clip-path="url(#clip932)" style="stroke:#000000; stroke-linecap:butt; stroke-linejoin:round; stroke-width:2; stroke-opacity:0.1; fill:none" points="
  1578.86,1359.82 1578.86,47.2441 
  "/>
<polyline clip-path="url(#clip932)" style="stroke:#000000; stroke-linecap:butt; stroke-linejoin:round; stroke-width:2; stroke-opacity:0.1; fill:none" points="
  1745.53,1359.82 1745.53,47.2441 
  "/>
<polyline clip-path="url(#clip932)" style="stroke:#000000; stroke-linecap:butt; stroke-linejoin:round; stroke-width:2; stroke-opacity:0.1; fill:none" points="
  1912.19,1359.82 1912.19,47.2441 
  "/>
<polyline clip-path="url(#clip932)" style="stroke:#000000; stroke-linecap:butt; stroke-linejoin:round; stroke-width:2; stroke-opacity:0.1; fill:none" points="
  2078.85,1359.82 2078.85,47.2441 
  "/>
<polyline clip-path="url(#clip930)" style="stroke:#000000; stroke-linecap:butt; stroke-linejoin:round; stroke-width:4; stroke-opacity:1; fill:none" points="
  234.323,1359.82 2256.76,1359.82 
  "/>
<polyline clip-path="url(#clip930)" style="stroke:#000000; stroke-linecap:butt; stroke-linejoin:round; stroke-width:4; stroke-opacity:1; fill:none" points="
  412.225,1359.82 412.225,1340.92 
  "/>
<polyline clip-path="url(#clip930)" style="stroke:#000000; stroke-linecap:butt; stroke-linejoin:round; stroke-width:4; stroke-opacity:1; fill:none" points="
  578.888,1359.82 578.888,1340.92 
  "/>
<polyline clip-path="url(#clip930)" style="stroke:#000000; stroke-linecap:butt; stroke-linejoin:round; stroke-width:4; stroke-opacity:1; fill:none" points="
  745.551,1359.82 745.551,1340.92 
  "/>
<polyline clip-path="url(#clip930)" style="stroke:#000000; stroke-linecap:butt; stroke-linejoin:round; stroke-width:4; stroke-opacity:1; fill:none" points="
  912.214,1359.82 912.214,1340.92 
  "/>
<polyline clip-path="url(#clip930)" style="stroke:#000000; stroke-linecap:butt; stroke-linejoin:round; stroke-width:4; stroke-opacity:1; fill:none" points="
  1078.88,1359.82 1078.88,1340.92 
  "/>
<polyline clip-path="url(#clip930)" style="stroke:#000000; stroke-linecap:butt; stroke-linejoin:round; stroke-width:4; stroke-opacity:1; fill:none" points="
  1245.54,1359.82 1245.54,1340.92 
  "/>
<polyline clip-path="url(#clip930)" style="stroke:#000000; stroke-linecap:butt; stroke-linejoin:round; stroke-width:4; stroke-opacity:1; fill:none" points="
  1412.2,1359.82 1412.2,1340.92 
  "/>
<polyline clip-path="url(#clip930)" style="stroke:#000000; stroke-linecap:butt; stroke-linejoin:round; stroke-width:4; stroke-opacity:1; fill:none" points="
  1578.86,1359.82 1578.86,1340.92 
  "/>
<polyline clip-path="url(#clip930)" style="stroke:#000000; stroke-linecap:butt; stroke-linejoin:round; stroke-width:4; stroke-opacity:1; fill:none" points="
  1745.53,1359.82 1745.53,1340.92 
  "/>
<polyline clip-path="url(#clip930)" style="stroke:#000000; stroke-linecap:butt; stroke-linejoin:round; stroke-width:4; stroke-opacity:1; fill:none" points="
  1912.19,1359.82 1912.19,1340.92 
  "/>
<polyline clip-path="url(#clip930)" style="stroke:#000000; stroke-linecap:butt; stroke-linejoin:round; stroke-width:4; stroke-opacity:1; fill:none" points="
  2078.85,1359.82 2078.85,1340.92 
  "/>
<path clip-path="url(#clip930)" d="M412.225 1389.97 Q408.614 1389.97 406.786 1393.54 Q404.98 1397.08 404.98 1404.21 Q404.98 1411.31 406.786 1414.88 Q408.614 1418.42 412.225 1418.42 Q415.86 1418.42 417.665 1414.88 Q419.494 1411.31 419.494 1404.21 Q419.494 1397.08 417.665 1393.54 Q415.86 1389.97 412.225 1389.97 M412.225 1386.27 Q418.036 1386.27 421.091 1390.87 Q424.17 1395.46 424.17 1404.21 Q424.17 1412.93 421.091 1417.54 Q418.036 1422.12 412.225 1422.12 Q406.415 1422.12 403.337 1417.54 Q400.281 1412.93 400.281 1404.21 Q400.281 1395.46 403.337 1390.87 Q406.415 1386.27 412.225 1386.27 Z" fill="#000000" fill-rule="evenodd" fill-opacity="1" /><path clip-path="url(#clip930)" d="M569.27 1417.52 L576.909 1417.52 L576.909 1391.15 L568.599 1392.82 L568.599 1388.56 L576.863 1386.89 L581.539 1386.89 L581.539 1417.52 L589.177 1417.52 L589.177 1421.45 L569.27 1421.45 L569.27 1417.52 Z" fill="#000000" fill-rule="evenodd" fill-opacity="1" /><path clip-path="url(#clip930)" d="M740.204 1417.52 L756.523 1417.52 L756.523 1421.45 L734.579 1421.45 L734.579 1417.52 Q737.241 1414.76 741.824 1410.13 Q746.431 1405.48 747.611 1404.14 Q749.857 1401.61 750.736 1399.88 Q751.639 1398.12 751.639 1396.43 Q751.639 1393.67 749.694 1391.94 Q747.773 1390.2 744.671 1390.2 Q742.472 1390.2 740.019 1390.97 Q737.588 1391.73 734.81 1393.28 L734.81 1388.56 Q737.634 1387.42 740.088 1386.85 Q742.542 1386.27 744.579 1386.27 Q749.949 1386.27 753.144 1388.95 Q756.338 1391.64 756.338 1396.13 Q756.338 1398.26 755.528 1400.18 Q754.741 1402.08 752.634 1404.67 Q752.056 1405.34 748.954 1408.56 Q745.852 1411.75 740.204 1417.52 Z" fill="#000000" fill-rule="evenodd" fill-opacity="1" /><path clip-path="url(#clip930)" d="M916.461 1402.82 Q919.818 1403.54 921.693 1405.8 Q923.591 1408.07 923.591 1411.41 Q923.591 1416.52 920.073 1419.32 Q916.554 1422.12 910.073 1422.12 Q907.897 1422.12 905.582 1421.68 Q903.29 1421.27 900.837 1420.41 L900.837 1415.9 Q902.781 1417.03 905.096 1417.61 Q907.411 1418.19 909.934 1418.19 Q914.332 1418.19 916.623 1416.45 Q918.938 1414.72 918.938 1411.41 Q918.938 1408.35 916.786 1406.64 Q914.656 1404.9 910.836 1404.9 L906.809 1404.9 L906.809 1401.06 L911.022 1401.06 Q914.471 1401.06 916.299 1399.69 Q918.128 1398.3 918.128 1395.71 Q918.128 1393.05 916.23 1391.64 Q914.355 1390.2 910.836 1390.2 Q908.915 1390.2 906.716 1390.62 Q904.517 1391.04 901.878 1391.91 L901.878 1387.75 Q904.54 1387.01 906.855 1386.64 Q909.193 1386.27 911.253 1386.27 Q916.577 1386.27 919.679 1388.7 Q922.781 1391.1 922.781 1395.23 Q922.781 1398.1 921.137 1400.09 Q919.494 1402.05 916.461 1402.82 Z" fill="#000000" fill-rule="evenodd" fill-opacity="1" /><path clip-path="url(#clip930)" d="M1081.89 1390.97 L1070.08 1409.41 L1081.89 1409.41 L1081.89 1390.97 M1080.66 1386.89 L1086.54 1386.89 L1086.54 1409.41 L1091.47 1409.41 L1091.47 1413.3 L1086.54 1413.3 L1086.54 1421.45 L1081.89 1421.45 L1081.89 1413.3 L1066.28 1413.3 L1066.28 1408.79 L1080.66 1386.89 Z" fill="#000000" fill-rule="evenodd" fill-opacity="1" /><path clip-path="url(#clip930)" d="M1235.82 1386.89 L1254.17 1386.89 L1254.17 1390.83 L1240.1 1390.83 L1240.1 1399.3 Q1241.12 1398.95 1242.14 1398.79 Q1243.16 1398.6 1244.17 1398.6 Q1249.96 1398.6 1253.34 1401.78 Q1256.72 1404.95 1256.72 1410.36 Q1256.72 1415.94 1253.25 1419.04 Q1249.78 1422.12 1243.46 1422.12 Q1241.28 1422.12 1239.01 1421.75 Q1236.77 1421.38 1234.36 1420.64 L1234.36 1415.94 Q1236.44 1417.08 1238.66 1417.63 Q1240.89 1418.19 1243.36 1418.19 Q1247.37 1418.19 1249.71 1416.08 Q1252.04 1413.98 1252.04 1410.36 Q1252.04 1406.75 1249.71 1404.65 Q1247.37 1402.54 1243.36 1402.54 Q1241.49 1402.54 1239.61 1402.96 Q1237.76 1403.37 1235.82 1404.25 L1235.82 1386.89 Z" fill="#000000" fill-rule="evenodd" fill-opacity="1" /><path clip-path="url(#clip930)" d="M1412.61 1402.31 Q1409.46 1402.31 1407.61 1404.46 Q1405.78 1406.61 1405.78 1410.36 Q1405.78 1414.09 1407.61 1416.27 Q1409.46 1418.42 1412.61 1418.42 Q1415.76 1418.42 1417.58 1416.27 Q1419.44 1414.09 1419.44 1410.36 Q1419.44 1406.61 1417.58 1404.46 Q1415.76 1402.31 1412.61 1402.31 M1421.89 1387.66 L1421.89 1391.91 Q1420.13 1391.08 1418.32 1390.64 Q1416.54 1390.2 1414.78 1390.2 Q1410.15 1390.2 1407.7 1393.33 Q1405.27 1396.45 1404.92 1402.77 Q1406.29 1400.76 1408.35 1399.69 Q1410.41 1398.6 1412.89 1398.6 Q1418.09 1398.6 1421.1 1401.78 Q1424.13 1404.92 1424.13 1410.36 Q1424.13 1415.69 1420.99 1418.91 Q1417.84 1422.12 1412.61 1422.12 Q1406.61 1422.12 1403.44 1417.54 Q1400.27 1412.93 1400.27 1404.21 Q1400.27 1396.01 1404.16 1391.15 Q1408.05 1386.27 1414.6 1386.27 Q1416.36 1386.27 1418.14 1386.61 Q1419.95 1386.96 1421.89 1387.66 Z" fill="#000000" fill-rule="evenodd" fill-opacity="1" /><path clip-path="url(#clip930)" d="M1567.75 1386.89 L1589.98 1386.89 L1589.98 1388.88 L1577.43 1421.45 L1572.55 1421.45 L1584.35 1390.83 L1567.75 1390.83 L1567.75 1386.89 Z" fill="#000000" fill-rule="evenodd" fill-opacity="1" /><path clip-path="url(#clip930)" d="M1745.53 1405.04 Q1742.19 1405.04 1740.27 1406.82 Q1738.38 1408.6 1738.38 1411.73 Q1738.38 1414.85 1740.27 1416.64 Q1742.19 1418.42 1745.53 1418.42 Q1748.86 1418.42 1750.78 1416.64 Q1752.7 1414.83 1752.7 1411.73 Q1752.7 1408.6 1750.78 1406.82 Q1748.88 1405.04 1745.53 1405.04 M1740.85 1403.05 Q1737.84 1402.31 1736.15 1400.25 Q1734.49 1398.19 1734.49 1395.23 Q1734.49 1391.08 1737.43 1388.67 Q1740.39 1386.27 1745.53 1386.27 Q1750.69 1386.27 1753.63 1388.67 Q1756.57 1391.08 1756.57 1395.23 Q1756.57 1398.19 1754.88 1400.25 Q1753.21 1402.31 1750.23 1403.05 Q1753.61 1403.84 1755.48 1406.13 Q1757.38 1408.42 1757.38 1411.73 Q1757.38 1416.75 1754.3 1419.44 Q1751.25 1422.12 1745.53 1422.12 Q1739.81 1422.12 1736.73 1419.44 Q1733.68 1416.75 1733.68 1411.73 Q1733.68 1408.42 1735.57 1406.13 Q1737.47 1403.84 1740.85 1403.05 M1739.14 1395.66 Q1739.14 1398.35 1740.81 1399.85 Q1742.5 1401.36 1745.53 1401.36 Q1748.54 1401.36 1750.23 1399.85 Q1751.94 1398.35 1751.94 1395.66 Q1751.94 1392.98 1750.23 1391.48 Q1748.54 1389.97 1745.53 1389.97 Q1742.5 1389.97 1740.81 1391.48 Q1739.14 1392.98 1739.14 1395.66 Z" fill="#000000" fill-rule="evenodd" fill-opacity="1" /><path clip-path="url(#clip930)" d="M1902.49 1420.73 L1902.49 1416.48 Q1904.25 1417.31 1906.06 1417.75 Q1907.86 1418.19 1909.6 1418.19 Q1914.23 1418.19 1916.66 1415.09 Q1919.11 1411.96 1919.46 1405.62 Q1918.12 1407.61 1916.06 1408.67 Q1914 1409.74 1911.5 1409.74 Q1906.31 1409.74 1903.28 1406.61 Q1900.27 1403.47 1900.27 1398.03 Q1900.27 1392.7 1903.42 1389.48 Q1906.57 1386.27 1911.8 1386.27 Q1917.79 1386.27 1920.94 1390.87 Q1924.11 1395.46 1924.11 1404.21 Q1924.11 1412.38 1920.22 1417.26 Q1916.36 1422.12 1909.81 1422.12 Q1908.05 1422.12 1906.24 1421.78 Q1904.44 1421.43 1902.49 1420.73 M1911.8 1406.08 Q1914.95 1406.08 1916.77 1403.93 Q1918.63 1401.78 1918.63 1398.03 Q1918.63 1394.3 1916.77 1392.15 Q1914.95 1389.97 1911.8 1389.97 Q1908.65 1389.97 1906.8 1392.15 Q1904.97 1394.3 1904.97 1398.03 Q1904.97 1401.78 1906.8 1403.93 Q1908.65 1406.08 1911.8 1406.08 Z" fill="#000000" fill-rule="evenodd" fill-opacity="1" /><path clip-path="url(#clip930)" d="M2053.54 1417.52 L2061.18 1417.52 L2061.18 1391.15 L2052.87 1392.82 L2052.87 1388.56 L2061.13 1386.89 L2065.81 1386.89 L2065.81 1417.52 L2073.45 1417.52 L2073.45 1421.45 L2053.54 1421.45 L2053.54 1417.52 Z" fill="#000000" fill-rule="evenodd" fill-opacity="1" /><path clip-path="url(#clip930)" d="M2092.89 1389.97 Q2089.28 1389.97 2087.45 1393.54 Q2085.65 1397.08 2085.65 1404.21 Q2085.65 1411.31 2087.45 1414.88 Q2089.28 1418.42 2092.89 1418.42 Q2096.53 1418.42 2098.33 1414.88 Q2100.16 1411.31 2100.16 1404.21 Q2100.16 1397.08 2098.33 1393.54 Q2096.53 1389.97 2092.89 1389.97 M2092.89 1386.27 Q2098.7 1386.27 2101.76 1390.87 Q2104.84 1395.46 2104.84 1404.21 Q2104.84 1412.93 2101.76 1417.54 Q2098.7 1422.12 2092.89 1422.12 Q2087.08 1422.12 2084 1417.54 Q2080.95 1412.93 2080.95 1404.21 Q2080.95 1395.46 2084 1390.87 Q2087.08 1386.27 2092.89 1386.27 Z" fill="#000000" fill-rule="evenodd" fill-opacity="1" /><path clip-path="url(#clip930)" d="M1117.81 1455.72 L1126.47 1455.72 L1147.54 1495.48 L1147.54 1455.72 L1153.78 1455.72 L1153.78 1503.24 L1145.12 1503.24 L1124.05 1463.49 L1124.05 1503.24 L1117.81 1503.24 L1117.81 1455.72 Z" fill="#000000" fill-rule="evenodd" fill-opacity="1" /><path clip-path="url(#clip930)" d="M1165.71 1489.18 L1165.71 1467.6 L1171.57 1467.6 L1171.57 1488.95 Q1171.57 1494.01 1173.54 1496.56 Q1175.52 1499.07 1179.46 1499.07 Q1184.21 1499.07 1186.94 1496.05 Q1189.71 1493.03 1189.71 1487.81 L1189.71 1467.6 L1195.57 1467.6 L1195.57 1503.24 L1189.71 1503.24 L1189.71 1497.77 Q1187.58 1501.02 1184.75 1502.61 Q1181.95 1504.17 1178.22 1504.17 Q1172.08 1504.17 1168.9 1500.35 Q1165.71 1496.53 1165.71 1489.18 M1180.45 1466.74 L1180.45 1466.74 Z" fill="#000000" fill-rule="evenodd" fill-opacity="1" /><path clip-path="url(#clip930)" d="M1235.39 1474.44 Q1237.58 1470.49 1240.64 1468.61 Q1243.69 1466.74 1247.83 1466.74 Q1253.4 1466.74 1256.42 1470.65 Q1259.45 1474.53 1259.45 1481.73 L1259.45 1503.24 L1253.56 1503.24 L1253.56 1481.92 Q1253.56 1476.79 1251.75 1474.31 Q1249.93 1471.83 1246.21 1471.83 Q1241.66 1471.83 1239.01 1474.85 Q1236.37 1477.88 1236.37 1483.1 L1236.37 1503.24 L1230.48 1503.24 L1230.48 1481.92 Q1230.48 1476.76 1228.67 1474.31 Q1226.86 1471.83 1223.07 1471.83 Q1218.58 1471.83 1215.94 1474.88 Q1213.3 1477.91 1213.3 1483.1 L1213.3 1503.24 L1207.41 1503.24 L1207.41 1467.6 L1213.3 1467.6 L1213.3 1473.13 Q1215.3 1469.86 1218.1 1468.3 Q1220.9 1466.74 1224.76 1466.74 Q1228.64 1466.74 1231.34 1468.71 Q1234.08 1470.68 1235.39 1474.44 Z" fill="#000000" fill-rule="evenodd" fill-opacity="1" /><path clip-path="url(#clip930)" d="M1296.72 1485.45 Q1296.72 1478.99 1294.05 1475.33 Q1291.4 1471.64 1286.76 1471.64 Q1282.11 1471.64 1279.44 1475.33 Q1276.79 1478.99 1276.79 1485.45 Q1276.79 1491.91 1279.44 1495.6 Q1282.11 1499.27 1286.76 1499.27 Q1291.4 1499.27 1294.05 1495.6 Q1296.72 1491.91 1296.72 1485.45 M1276.79 1473.01 Q1278.64 1469.82 1281.44 1468.3 Q1284.27 1466.74 1288.19 1466.74 Q1294.68 1466.74 1298.72 1471.89 Q1302.8 1477.05 1302.8 1485.45 Q1302.8 1493.85 1298.72 1499.01 Q1294.68 1504.17 1288.19 1504.17 Q1284.27 1504.17 1281.44 1502.64 Q1278.64 1501.08 1276.79 1497.9 L1276.79 1503.24 L1270.91 1503.24 L1270.91 1453.72 L1276.79 1453.72 L1276.79 1473.01 Z" fill="#000000" fill-rule="evenodd" fill-opacity="1" /><path clip-path="url(#clip930)" d="M1343 1483.96 L1343 1486.82 L1316.07 1486.82 Q1316.45 1492.87 1319.7 1496.05 Q1322.98 1499.2 1328.8 1499.2 Q1332.18 1499.2 1335.33 1498.37 Q1338.51 1497.55 1341.63 1495.89 L1341.63 1501.43 Q1338.48 1502.77 1335.17 1503.47 Q1331.86 1504.17 1328.45 1504.17 Q1319.92 1504.17 1314.93 1499.2 Q1309.96 1494.24 1309.96 1485.77 Q1309.96 1477.02 1314.67 1471.89 Q1319.41 1466.74 1327.43 1466.74 Q1334.63 1466.74 1338.8 1471.38 Q1343 1476 1343 1483.96 M1337.14 1482.24 Q1337.08 1477.43 1334.44 1474.57 Q1331.83 1471.7 1327.5 1471.7 Q1322.6 1471.7 1319.64 1474.47 Q1316.71 1477.24 1316.26 1482.27 L1337.14 1482.24 Z" fill="#000000" fill-rule="evenodd" fill-opacity="1" /><path clip-path="url(#clip930)" d="M1373.27 1473.07 Q1372.28 1472.5 1371.1 1472.24 Q1369.96 1471.96 1368.56 1471.96 Q1363.59 1471.96 1360.92 1475.2 Q1358.28 1478.42 1358.28 1484.47 L1358.28 1503.24 L1352.39 1503.24 L1352.39 1467.6 L1358.28 1467.6 L1358.28 1473.13 Q1360.12 1469.89 1363.08 1468.33 Q1366.04 1466.74 1370.28 1466.74 Q1370.88 1466.74 1371.61 1466.83 Q1372.34 1466.9 1373.24 1467.05 L1373.27 1473.07 Z" fill="#000000" fill-rule="evenodd" fill-opacity="1" /><polyline clip-path="url(#clip932)" style="stroke:#000000; stroke-linecap:butt; stroke-linejoin:round; stroke-width:2; stroke-opacity:0.1; fill:none" points="
  234.323,1322.67 2256.76,1322.67 
  "/>
<polyline clip-path="url(#clip932)" style="stroke:#000000; stroke-linecap:butt; stroke-linejoin:round; stroke-width:2; stroke-opacity:0.1; fill:none" points="
  234.323,1022.12 2256.76,1022.12 
  "/>
<polyline clip-path="url(#clip932)" style="stroke:#000000; stroke-linecap:butt; stroke-linejoin:round; stroke-width:2; stroke-opacity:0.1; fill:none" points="
  234.323,721.565 2256.76,721.565 
  "/>
<polyline clip-path="url(#clip932)" style="stroke:#000000; stroke-linecap:butt; stroke-linejoin:round; stroke-width:2; stroke-opacity:0.1; fill:none" points="
  234.323,421.012 2256.76,421.012 
  "/>
<polyline clip-path="url(#clip932)" style="stroke:#000000; stroke-linecap:butt; stroke-linejoin:round; stroke-width:2; stroke-opacity:0.1; fill:none" points="
  234.323,120.459 2256.76,120.459 
  "/>
<polyline clip-path="url(#clip930)" style="stroke:#000000; stroke-linecap:butt; stroke-linejoin:round; stroke-width:4; stroke-opacity:1; fill:none" points="
  234.323,1359.82 234.323,47.2441 
  "/>
<polyline clip-path="url(#clip930)" style="stroke:#000000; stroke-linecap:butt; stroke-linejoin:round; stroke-width:4; stroke-opacity:1; fill:none" points="
  234.323,1322.67 253.22,1322.67 
  "/>
<polyline clip-path="url(#clip930)" style="stroke:#000000; stroke-linecap:butt; stroke-linejoin:round; stroke-width:4; stroke-opacity:1; fill:none" points="
  234.323,1022.12 253.22,1022.12 
  "/>
<polyline clip-path="url(#clip930)" style="stroke:#000000; stroke-linecap:butt; stroke-linejoin:round; stroke-width:4; stroke-opacity:1; fill:none" points="
  234.323,721.565 253.22,721.565 
  "/>
<polyline clip-path="url(#clip930)" style="stroke:#000000; stroke-linecap:butt; stroke-linejoin:round; stroke-width:4; stroke-opacity:1; fill:none" points="
  234.323,421.012 253.22,421.012 
  "/>
<polyline clip-path="url(#clip930)" style="stroke:#000000; stroke-linecap:butt; stroke-linejoin:round; stroke-width:4; stroke-opacity:1; fill:none" points="
  234.323,120.459 253.22,120.459 
  "/>
<path clip-path="url(#clip930)" d="M187.818 1308.47 Q184.207 1308.47 182.379 1312.03 Q180.573 1315.58 180.573 1322.71 Q180.573 1329.81 182.379 1333.38 Q184.207 1336.92 187.818 1336.92 Q191.453 1336.92 193.258 1333.38 Q195.087 1329.81 195.087 1322.71 Q195.087 1315.58 193.258 1312.03 Q191.453 1308.47 187.818 1308.47 M187.818 1304.77 Q193.629 1304.77 196.684 1309.37 Q199.763 1313.96 199.763 1322.71 Q199.763 1331.43 196.684 1336.04 Q193.629 1340.62 187.818 1340.62 Q182.008 1340.62 178.93 1336.04 Q175.874 1331.43 175.874 1322.71 Q175.874 1313.96 178.93 1309.37 Q182.008 1304.77 187.818 1304.77 Z" fill="#000000" fill-rule="evenodd" fill-opacity="1" /><path clip-path="url(#clip930)" d="M118.305 1035.46 L125.944 1035.46 L125.944 1009.1 L117.634 1010.76 L117.634 1006.5 L125.898 1004.84 L130.573 1004.84 L130.573 1035.46 L138.212 1035.46 L138.212 1039.4 L118.305 1039.4 L118.305 1035.46 Z" fill="#000000" fill-rule="evenodd" fill-opacity="1" /><path clip-path="url(#clip930)" d="M157.657 1007.92 Q154.046 1007.92 152.217 1011.48 Q150.411 1015.02 150.411 1022.15 Q150.411 1029.26 152.217 1032.82 Q154.046 1036.37 157.657 1036.37 Q161.291 1036.37 163.096 1032.82 Q164.925 1029.26 164.925 1022.15 Q164.925 1015.02 163.096 1011.48 Q161.291 1007.92 157.657 1007.92 M157.657 1004.21 Q163.467 1004.21 166.522 1008.82 Q169.601 1013.4 169.601 1022.15 Q169.601 1030.88 166.522 1035.49 Q163.467 1040.07 157.657 1040.07 Q151.846 1040.07 148.768 1035.49 Q145.712 1030.88 145.712 1022.15 Q145.712 1013.4 148.768 1008.82 Q151.846 1004.21 157.657 1004.21 Z" fill="#000000" fill-rule="evenodd" fill-opacity="1" /><path clip-path="url(#clip930)" d="M187.818 1007.92 Q184.207 1007.92 182.379 1011.48 Q180.573 1015.02 180.573 1022.15 Q180.573 1029.26 182.379 1032.82 Q184.207 1036.37 187.818 1036.37 Q191.453 1036.37 193.258 1032.82 Q195.087 1029.26 195.087 1022.15 Q195.087 1015.02 193.258 1011.48 Q191.453 1007.92 187.818 1007.92 M187.818 1004.21 Q193.629 1004.21 196.684 1008.82 Q199.763 1013.4 199.763 1022.15 Q199.763 1030.88 196.684 1035.49 Q193.629 1040.07 187.818 1040.07 Q182.008 1040.07 178.93 1035.49 Q175.874 1030.88 175.874 1022.15 Q175.874 1013.4 178.93 1008.82 Q182.008 1004.21 187.818 1004.21 Z" fill="#000000" fill-rule="evenodd" fill-opacity="1" /><path clip-path="url(#clip930)" d="M121.523 734.91 L137.842 734.91 L137.842 738.845 L115.898 738.845 L115.898 734.91 Q118.56 732.155 123.143 727.526 Q127.749 722.873 128.93 721.53 Q131.175 719.007 132.055 717.271 Q132.958 715.512 132.958 713.822 Q132.958 711.068 131.013 709.331 Q129.092 707.595 125.99 707.595 Q123.791 707.595 121.337 708.359 Q118.907 709.123 116.129 710.674 L116.129 705.952 Q118.953 704.818 121.407 704.239 Q123.86 703.66 125.898 703.66 Q131.268 703.66 134.462 706.345 Q137.657 709.031 137.657 713.521 Q137.657 715.651 136.847 717.572 Q136.059 719.47 133.953 722.063 Q133.374 722.734 130.272 725.952 Q127.171 729.146 121.523 734.91 Z" fill="#000000" fill-rule="evenodd" fill-opacity="1" /><path clip-path="url(#clip930)" d="M157.657 707.364 Q154.046 707.364 152.217 710.929 Q150.411 714.47 150.411 721.6 Q150.411 728.706 152.217 732.271 Q154.046 735.813 157.657 735.813 Q161.291 735.813 163.096 732.271 Q164.925 728.706 164.925 721.6 Q164.925 714.47 163.096 710.929 Q161.291 707.364 157.657 707.364 M157.657 703.66 Q163.467 703.66 166.522 708.267 Q169.601 712.85 169.601 721.6 Q169.601 730.327 166.522 734.933 Q163.467 739.516 157.657 739.516 Q151.846 739.516 148.768 734.933 Q145.712 730.327 145.712 721.6 Q145.712 712.85 148.768 708.267 Q151.846 703.66 157.657 703.66 Z" fill="#000000" fill-rule="evenodd" fill-opacity="1" /><path clip-path="url(#clip930)" d="M187.818 707.364 Q184.207 707.364 182.379 710.929 Q180.573 714.47 180.573 721.6 Q180.573 728.706 182.379 732.271 Q184.207 735.813 187.818 735.813 Q191.453 735.813 193.258 732.271 Q195.087 728.706 195.087 721.6 Q195.087 714.47 193.258 710.929 Q191.453 707.364 187.818 707.364 M187.818 703.66 Q193.629 703.66 196.684 708.267 Q199.763 712.85 199.763 721.6 Q199.763 730.327 196.684 734.933 Q193.629 739.516 187.818 739.516 Q182.008 739.516 178.93 734.933 Q175.874 730.327 175.874 721.6 Q175.874 712.85 178.93 708.267 Q182.008 703.66 187.818 703.66 Z" fill="#000000" fill-rule="evenodd" fill-opacity="1" /><path clip-path="url(#clip930)" d="M131.661 419.658 Q135.018 420.375 136.893 422.644 Q138.791 424.912 138.791 428.246 Q138.791 433.361 135.272 436.162 Q131.754 438.963 125.273 438.963 Q123.097 438.963 120.782 438.523 Q118.49 438.107 116.036 437.25 L116.036 432.736 Q117.981 433.871 120.296 434.449 Q122.61 435.028 125.134 435.028 Q129.532 435.028 131.823 433.292 Q134.138 431.556 134.138 428.246 Q134.138 425.19 131.985 423.477 Q129.856 421.741 126.036 421.741 L122.009 421.741 L122.009 417.899 L126.222 417.899 Q129.671 417.899 131.499 416.533 Q133.328 415.144 133.328 412.551 Q133.328 409.889 131.43 408.477 Q129.555 407.042 126.036 407.042 Q124.115 407.042 121.916 407.459 Q119.717 407.875 117.078 408.755 L117.078 404.588 Q119.74 403.848 122.055 403.477 Q124.393 403.107 126.453 403.107 Q131.777 403.107 134.879 405.538 Q137.981 407.945 137.981 412.065 Q137.981 414.936 136.337 416.926 Q134.694 418.894 131.661 419.658 Z" fill="#000000" fill-rule="evenodd" fill-opacity="1" /><path clip-path="url(#clip930)" d="M157.657 406.811 Q154.046 406.811 152.217 410.375 Q150.411 413.917 150.411 421.047 Q150.411 428.153 152.217 431.718 Q154.046 435.26 157.657 435.26 Q161.291 435.26 163.096 431.718 Q164.925 428.153 164.925 421.047 Q164.925 413.917 163.096 410.375 Q161.291 406.811 157.657 406.811 M157.657 403.107 Q163.467 403.107 166.522 407.713 Q169.601 412.297 169.601 421.047 Q169.601 429.774 166.522 434.38 Q163.467 438.963 157.657 438.963 Q151.846 438.963 148.768 434.38 Q145.712 429.774 145.712 421.047 Q145.712 412.297 148.768 407.713 Q151.846 403.107 157.657 403.107 Z" fill="#000000" fill-rule="evenodd" fill-opacity="1" /><path clip-path="url(#clip930)" d="M187.818 406.811 Q184.207 406.811 182.379 410.375 Q180.573 413.917 180.573 421.047 Q180.573 428.153 182.379 431.718 Q184.207 435.26 187.818 435.26 Q191.453 435.26 193.258 431.718 Q195.087 428.153 195.087 421.047 Q195.087 413.917 193.258 410.375 Q191.453 406.811 187.818 406.811 M187.818 403.107 Q193.629 403.107 196.684 407.713 Q199.763 412.297 199.763 421.047 Q199.763 429.774 196.684 434.38 Q193.629 438.963 187.818 438.963 Q182.008 438.963 178.93 434.38 Q175.874 429.774 175.874 421.047 Q175.874 412.297 178.93 407.713 Q182.008 403.107 187.818 403.107 Z" fill="#000000" fill-rule="evenodd" fill-opacity="1" /><path clip-path="url(#clip930)" d="M130.342 107.253 L118.536 125.702 L130.342 125.702 L130.342 107.253 M129.115 103.179 L134.995 103.179 L134.995 125.702 L139.925 125.702 L139.925 129.591 L134.995 129.591 L134.995 137.739 L130.342 137.739 L130.342 129.591 L114.74 129.591 L114.74 125.077 L129.115 103.179 Z" fill="#000000" fill-rule="evenodd" fill-opacity="1" /><path clip-path="url(#clip930)" d="M157.657 106.258 Q154.046 106.258 152.217 109.822 Q150.411 113.364 150.411 120.494 Q150.411 127.6 152.217 131.165 Q154.046 134.706 157.657 134.706 Q161.291 134.706 163.096 131.165 Q164.925 127.6 164.925 120.494 Q164.925 113.364 163.096 109.822 Q161.291 106.258 157.657 106.258 M157.657 102.554 Q163.467 102.554 166.522 107.16 Q169.601 111.744 169.601 120.494 Q169.601 129.22 166.522 133.827 Q163.467 138.41 157.657 138.41 Q151.846 138.41 148.768 133.827 Q145.712 129.22 145.712 120.494 Q145.712 111.744 148.768 107.16 Q151.846 102.554 157.657 102.554 Z" fill="#000000" fill-rule="evenodd" fill-opacity="1" /><path clip-path="url(#clip930)" d="M187.818 106.258 Q184.207 106.258 182.379 109.822 Q180.573 113.364 180.573 120.494 Q180.573 127.6 182.379 131.165 Q184.207 134.706 187.818 134.706 Q191.453 134.706 193.258 131.165 Q195.087 127.6 195.087 120.494 Q195.087 113.364 193.258 109.822 Q191.453 106.258 187.818 106.258 M187.818 102.554 Q193.629 102.554 196.684 107.16 Q199.763 111.744 199.763 120.494 Q199.763 129.22 196.684 133.827 Q193.629 138.41 187.818 138.41 Q182.008 138.41 178.93 133.827 Q175.874 129.22 175.874 120.494 Q175.874 111.744 178.93 107.16 Q182.008 102.554 187.818 102.554 Z" fill="#000000" fill-rule="evenodd" fill-opacity="1" /><path clip-path="url(#clip930)" d="M18.4042 867.735 L18.4042 840.426 L23.815 840.426 L23.815 861.306 L37.8196 861.306 L37.8196 842.464 L43.2304 842.464 L43.2304 861.306 L65.9242 861.306 L65.9242 867.735 L18.4042 867.735 Z" fill="#000000" fill-rule="evenodd" fill-opacity="1" /><path clip-path="url(#clip930)" d="M35.7507 814.582 Q35.1778 815.568 34.9232 816.746 Q34.6367 817.892 34.6367 819.292 Q34.6367 824.258 37.8832 826.931 Q41.0979 829.573 47.1453 829.573 L65.9242 829.573 L65.9242 835.461 L30.2762 835.461 L30.2762 829.573 L35.8144 829.573 Q32.5679 827.727 31.0083 824.767 Q29.4168 821.807 29.4168 817.574 Q29.4168 816.969 29.5123 816.237 Q29.576 815.505 29.7351 814.614 L35.7507 814.582 Z" fill="#000000" fill-rule="evenodd" fill-opacity="1" /><path clip-path="url(#clip930)" d="M46.6361 779.379 L49.5006 779.379 L49.5006 806.306 Q55.5481 805.924 58.7309 802.678 Q61.8819 799.4 61.8819 793.575 Q61.8819 790.201 61.0544 787.05 Q60.2269 783.867 58.5718 780.748 L64.1099 780.748 Q65.4467 783.899 66.147 787.209 Q66.8472 790.519 66.8472 793.925 Q66.8472 802.455 61.8819 807.452 Q56.9167 812.417 48.4503 812.417 Q39.6974 812.417 34.5731 807.707 Q29.4168 802.964 29.4168 794.944 Q29.4168 787.75 34.0638 783.581 Q38.6789 779.379 46.6361 779.379 M44.9173 785.236 Q40.1112 785.299 37.2466 787.941 Q34.3821 790.551 34.3821 794.88 Q34.3821 799.781 37.1512 802.742 Q39.9202 805.67 44.9492 806.115 L44.9173 785.236 Z" fill="#000000" fill-rule="evenodd" fill-opacity="1" /><path clip-path="url(#clip930)" d="M48.132 766.266 Q54.5932 766.266 58.2853 763.624 Q61.9456 760.951 61.9456 756.304 Q61.9456 751.657 58.2853 748.983 Q54.5932 746.31 48.132 746.31 Q41.6708 746.31 38.0105 748.983 Q34.3184 751.657 34.3184 756.304 Q34.3184 760.951 38.0105 763.624 Q41.6708 766.266 48.132 766.266 M60.577 746.31 Q63.7598 748.156 65.3194 750.988 Q66.8472 753.789 66.8472 757.736 Q66.8472 764.197 61.691 768.271 Q56.5347 772.313 48.132 772.313 Q39.7293 772.313 34.5731 768.271 Q29.4168 764.197 29.4168 757.736 Q29.4168 753.789 30.9764 750.988 Q32.5042 748.156 35.6871 746.31 L30.2762 746.31 L30.2762 740.453 L79.4831 740.453 L79.4831 746.31 L60.577 746.31 Z" fill="#000000" fill-rule="evenodd" fill-opacity="1" /><path clip-path="url(#clip930)" d="M51.8559 728.995 L30.2762 728.995 L30.2762 723.138 L51.6331 723.138 Q56.6939 723.138 59.2402 721.165 Q61.7546 719.192 61.7546 715.245 Q61.7546 710.502 58.7309 707.765 Q55.7072 704.996 50.4873 704.996 L30.2762 704.996 L30.2762 699.14 L65.9242 699.14 L65.9242 704.996 L60.4496 704.996 Q63.6962 707.129 65.2876 709.961 Q66.8472 712.762 66.8472 716.486 Q66.8472 722.629 63.0278 725.812 Q59.2083 728.995 51.8559 728.995 M29.4168 714.258 L29.4168 714.258 Z" fill="#000000" fill-rule="evenodd" fill-opacity="1" /><path clip-path="url(#clip930)" d="M46.6361 656.585 L49.5006 656.585 L49.5006 683.512 Q55.5481 683.13 58.7309 679.883 Q61.8819 676.605 61.8819 670.78 Q61.8819 667.407 61.0544 664.256 Q60.2269 661.073 58.5718 657.954 L64.1099 657.954 Q65.4467 661.105 66.147 664.415 Q66.8472 667.725 66.8472 671.131 Q66.8472 679.661 61.8819 684.658 Q56.9167 689.623 48.4503 689.623 Q39.6974 689.623 34.5731 684.912 Q29.4168 680.17 29.4168 672.149 Q29.4168 664.956 34.0638 660.786 Q38.6789 656.585 46.6361 656.585 M44.9173 662.441 Q40.1112 662.505 37.2466 665.147 Q34.3821 667.757 34.3821 672.085 Q34.3821 676.987 37.1512 679.947 Q39.9202 682.875 44.9492 683.321 L44.9173 662.441 Z" fill="#000000" fill-rule="evenodd" fill-opacity="1" /><path clip-path="url(#clip930)" d="M44.4081 617.34 L65.9242 617.34 L65.9242 623.197 L44.599 623.197 Q39.5383 623.197 37.0238 625.17 Q34.5094 627.143 34.5094 631.09 Q34.5094 635.833 37.5331 638.57 Q40.5568 641.307 45.7767 641.307 L65.9242 641.307 L65.9242 647.195 L30.2762 647.195 L30.2762 641.307 L35.8144 641.307 Q32.5997 639.207 31.0083 636.374 Q29.4168 633.509 29.4168 629.785 Q29.4168 623.642 33.2363 620.491 Q37.0238 617.34 44.4081 617.34 Z" fill="#000000" fill-rule="evenodd" fill-opacity="1" /><path clip-path="url(#clip930)" d="M31.6448 580.005 L37.1193 580.005 Q35.7507 582.488 35.0823 585.003 Q34.3821 587.485 34.3821 590.031 Q34.3821 595.729 38.0105 598.88 Q41.6072 602.031 48.132 602.031 Q54.6569 602.031 58.2853 598.88 Q61.8819 595.729 61.8819 590.031 Q61.8819 587.485 61.2135 585.003 Q60.5133 582.488 59.1447 580.005 L64.5555 580.005 Q65.7014 582.456 66.2743 585.098 Q66.8472 587.708 66.8472 590.668 Q66.8472 598.721 61.7864 603.463 Q56.7257 608.206 48.132 608.206 Q39.411 608.206 34.4139 603.431 Q29.4168 598.625 29.4168 590.286 Q29.4168 587.581 29.9897 585.003 Q30.5308 582.424 31.6448 580.005 Z" fill="#000000" fill-rule="evenodd" fill-opacity="1" /><path clip-path="url(#clip930)" d="M69.2343 554.988 Q75.6 557.471 77.5416 559.826 Q79.4831 562.181 79.4831 566.128 L79.4831 570.807 L74.5815 570.807 L74.5815 567.37 Q74.5815 564.951 73.4357 563.614 Q72.2899 562.277 68.0248 560.654 L65.3512 559.603 L30.2762 574.022 L30.2762 567.815 L58.158 556.675 L30.2762 545.535 L30.2762 539.329 L69.2343 554.988 Z" fill="#000000" fill-rule="evenodd" fill-opacity="1" /><path clip-path="url(#clip932)" d="
M345.56 84.3925 L345.56 1322.67 L478.891 1322.67 L478.891 84.3925 L345.56 84.3925 L345.56 84.3925  Z
  " fill="#009af9" fill-rule="evenodd" fill-opacity="1"/>
<polyline clip-path="url(#clip932)" style="stroke:#000000; stroke-linecap:butt; stroke-linejoin:round; stroke-width:4; stroke-opacity:1; fill:none" points="
  345.56,84.3925 345.56,1322.67 478.891,1322.67 478.891,84.3925 345.56,84.3925 
  "/>
<path clip-path="url(#clip932)" d="
M512.223 706.538 L512.223 1322.67 L645.553 1322.67 L645.553 706.538 L512.223 706.538 L512.223 706.538  Z
  " fill="#e26f46" fill-rule="evenodd" fill-opacity="1"/>
<polyline clip-path="url(#clip932)" style="stroke:#000000; stroke-linecap:butt; stroke-linejoin:round; stroke-width:4; stroke-opacity:1; fill:none" points="
  512.223,706.538 512.223,1322.67 645.553,1322.67 645.553,706.538 512.223,706.538 
  "/>
<path clip-path="url(#clip932)" d="
M678.886 1001.08 L678.886 1322.67 L812.216 1322.67 L812.216 1001.08 L678.886 1001.08 L678.886 1001.08  Z
  " fill="#3da44d" fill-rule="evenodd" fill-opacity="1"/>
<polyline clip-path="url(#clip932)" style="stroke:#000000; stroke-linecap:butt; stroke-linejoin:round; stroke-width:4; stroke-opacity:1; fill:none" points="
  678.886,1001.08 678.886,1322.67 812.216,1322.67 812.216,1001.08 678.886,1001.08 
  "/>
<path clip-path="url(#clip932)" d="
M845.549 1184.42 L845.549 1322.67 L978.879 1322.67 L978.879 1184.42 L845.549 1184.42 L845.549 1184.42  Z
  " fill="#c271d2" fill-rule="evenodd" fill-opacity="1"/>
<polyline clip-path="url(#clip932)" style="stroke:#000000; stroke-linecap:butt; stroke-linejoin:round; stroke-width:4; stroke-opacity:1; fill:none" points="
  845.549,1184.42 845.549,1322.67 978.879,1322.67 978.879,1184.42 845.549,1184.42 
  "/>
<path clip-path="url(#clip932)" d="
M1012.21 1244.53 L1012.21 1322.67 L1145.54 1322.67 L1145.54 1244.53 L1012.21 1244.53 L1012.21 1244.53  Z
  " fill="#ac8d18" fill-rule="evenodd" fill-opacity="1"/>
<polyline clip-path="url(#clip932)" style="stroke:#000000; stroke-linecap:butt; stroke-linejoin:round; stroke-width:4; stroke-opacity:1; fill:none" points="
  1012.21,1244.53 1012.21,1322.67 1145.54,1322.67 1145.54,1244.53 1012.21,1244.53 
  "/>
<path clip-path="url(#clip932)" d="
M1178.87 1286.61 L1178.87 1322.67 L1312.2 1322.67 L1312.2 1286.61 L1178.87 1286.61 L1178.87 1286.61  Z
  " fill="#00a9ad" fill-rule="evenodd" fill-opacity="1"/>
<polyline clip-path="url(#clip932)" style="stroke:#000000; stroke-linecap:butt; stroke-linejoin:round; stroke-width:4; stroke-opacity:1; fill:none" points="
  1178.87,1286.61 1178.87,1322.67 1312.2,1322.67 1312.2,1286.61 1178.87,1286.61 
  "/>
<path clip-path="url(#clip932)" d="
M1345.54 1289.61 L1345.54 1322.67 L1478.87 1322.67 L1478.87 1289.61 L1345.54 1289.61 L1345.54 1289.61  Z
  " fill="#ed5d92" fill-rule="evenodd" fill-opacity="1"/>
<polyline clip-path="url(#clip932)" style="stroke:#000000; stroke-linecap:butt; stroke-linejoin:round; stroke-width:4; stroke-opacity:1; fill:none" points="
  1345.54,1289.61 1345.54,1322.67 1478.87,1322.67 1478.87,1289.61 1345.54,1289.61 
  "/>
<path clip-path="url(#clip932)" d="
M1512.2 1316.66 L1512.2 1322.67 L1645.53 1322.67 L1645.53 1316.66 L1512.2 1316.66 L1512.2 1316.66  Z
  " fill="#c68125" fill-rule="evenodd" fill-opacity="1"/>
<polyline clip-path="url(#clip932)" style="stroke:#000000; stroke-linecap:butt; stroke-linejoin:round; stroke-width:4; stroke-opacity:1; fill:none" points="
  1512.2,1316.66 1512.2,1322.67 1645.53,1322.67 1645.53,1316.66 1512.2,1316.66 
  "/>
<path clip-path="url(#clip932)" d="
M1678.86 1322.67 L1678.86 1322.67 L1812.19 1322.67 L1812.19 1322.67 L1678.86 1322.67 L1678.86 1322.67  Z
  " fill="#00a98d" fill-rule="evenodd" fill-opacity="1"/>
<polyline clip-path="url(#clip932)" style="stroke:#000000; stroke-linecap:butt; stroke-linejoin:round; stroke-width:4; stroke-opacity:1; fill:none" points="
  1678.86,1322.67 1678.86,1322.67 1812.19,1322.67 1678.86,1322.67 
  "/>
<path clip-path="url(#clip932)" d="
M1845.53 1322.67 L1845.53 1322.67 L1978.86 1322.67 L1978.86 1322.67 L1845.53 1322.67 L1845.53 1322.67  Z
  " fill="#8e971d" fill-rule="evenodd" fill-opacity="1"/>
<polyline clip-path="url(#clip932)" style="stroke:#000000; stroke-linecap:butt; stroke-linejoin:round; stroke-width:4; stroke-opacity:1; fill:none" points="
  1845.53,1322.67 1845.53,1322.67 1978.86,1322.67 1845.53,1322.67 
  "/>
<path clip-path="url(#clip932)" d="
M2012.19 1319.67 L2012.19 1322.67 L2145.52 1322.67 L2145.52 1319.67 L2012.19 1319.67 L2012.19 1319.67  Z
  " fill="#00a8cb" fill-rule="evenodd" fill-opacity="1"/>
<polyline clip-path="url(#clip932)" style="stroke:#000000; stroke-linecap:butt; stroke-linejoin:round; stroke-width:4; stroke-opacity:1; fill:none" points="
  2012.19,1319.67 2012.19,1322.67 2145.52,1322.67 2145.52,1319.67 2012.19,1319.67 
  "/>
<circle clip-path="url(#clip932)" style="fill:#009af9; stroke:none; fill-opacity:0" cx="412.225" cy="84.3925" r="2"/>
<circle clip-path="url(#clip932)" style="fill:#e26f46; stroke:none; fill-opacity:0" cx="578.888" cy="706.538" r="2"/>
<circle clip-path="url(#clip932)" style="fill:#3da44d; stroke:none; fill-opacity:0" cx="745.551" cy="1001.08" r="2"/>
<circle clip-path="url(#clip932)" style="fill:#c271d2; stroke:none; fill-opacity:0" cx="912.214" cy="1184.42" r="2"/>
<circle clip-path="url(#clip932)" style="fill:#ac8d18; stroke:none; fill-opacity:0" cx="1078.88" cy="1244.53" r="2"/>
<circle clip-path="url(#clip932)" style="fill:#00a9ad; stroke:none; fill-opacity:0" cx="1245.54" cy="1286.61" r="2"/>
<circle clip-path="url(#clip932)" style="fill:#ed5d92; stroke:none; fill-opacity:0" cx="1412.2" cy="1289.61" r="2"/>
<circle clip-path="url(#clip932)" style="fill:#c68125; stroke:none; fill-opacity:0" cx="1578.86" cy="1316.66" r="2"/>
<circle clip-path="url(#clip932)" style="fill:#00a98d; stroke:none; fill-opacity:0" cx="1745.53" cy="1322.67" r="2"/>
<circle clip-path="url(#clip932)" style="fill:#8e971d; stroke:none; fill-opacity:0" cx="1912.19" cy="1322.67" r="2"/>
<circle clip-path="url(#clip932)" style="fill:#00a8cb; stroke:none; fill-opacity:0" cx="2078.85" cy="1319.67" r="2"/>
</svg>
