<?xml version="1.0" encoding="utf-8"?>
<svg xmlns="http://www.w3.org/2000/svg" xmlns:xlink="http://www.w3.org/1999/xlink" width="576" height="384" viewBox="0 0 2304 1536">
<defs>
  <clipPath id="clip780">
    <rect x="0" y="0" width="2304" height="1536"/>
  </clipPath>
</defs>
<path clip-path="url(#clip780)" d="
M0 1536 L2304 1536 L2304 0 L0 0  Z
  " fill="#ffffff" fill-rule="evenodd" fill-opacity="1"/>
<defs>
  <clipPath id="clip781">
    <rect x="460" y="0" width="1614" height="1536"/>
  </clipPath>
</defs>
<path clip-path="url(#clip780)" d="
M250.92 1359.82 L2256.76 1359.82 L2256.76 47.2441 L250.92 47.2441  Z
  " fill="#ffffff" fill-rule="evenodd" fill-opacity="1"/>
<defs>
  <clipPath id="clip782">
    <rect x="250" y="47" width="2007" height="1314"/>
  </clipPath>
</defs>
<polyline clip-path="url(#clip782)" style="stroke:#000000; stroke-width:2; stroke-opacity:0.1; fill:none" points="
  307.689,1359.82 307.689,47.2441 
  "/>
<polyline clip-path="url(#clip782)" style="stroke:#000000; stroke-width:2; stroke-opacity:0.1; fill:none" points="
  780.763,1359.82 780.763,47.2441 
  "/>
<polyline clip-path="url(#clip782)" style="stroke:#000000; stroke-width:2; stroke-opacity:0.1; fill:none" points="
  1253.84,1359.82 1253.84,47.2441 
  "/>
<polyline clip-path="url(#clip782)" style="stroke:#000000; stroke-width:2; stroke-opacity:0.1; fill:none" points="
  1726.91,1359.82 1726.91,47.2441 
  "/>
<polyline clip-path="url(#clip782)" style="stroke:#000000; stroke-width:2; stroke-opacity:0.1; fill:none" points="
  2199.99,1359.82 2199.99,47.2441 
  "/>
<polyline clip-path="url(#clip782)" style="stroke:#000000; stroke-width:2; stroke-opacity:0.1; fill:none" points="
  250.92,1322.67 2256.76,1322.67 
  "/>
<polyline clip-path="url(#clip782)" style="stroke:#000000; stroke-width:2; stroke-opacity:0.1; fill:none" points="
  250.92,1009.97 2256.76,1009.97 
  "/>
<polyline clip-path="url(#clip782)" style="stroke:#000000; stroke-width:2; stroke-opacity:0.1; fill:none" points="
  250.92,697.278 2256.76,697.278 
  "/>
<polyline clip-path="url(#clip782)" style="stroke:#000000; stroke-width:2; stroke-opacity:0.1; fill:none" points="
  250.92,384.581 2256.76,384.581 
  "/>
<polyline clip-path="url(#clip782)" style="stroke:#000000; stroke-width:2; stroke-opacity:0.1; fill:none" points="
  250.92,71.8846 2256.76,71.8846 
  "/>
<polyline clip-path="url(#clip780)" style="stroke:#000000; stroke-width:4; stroke-opacity:1; fill:none" points="
  250.92,1359.82 2256.76,1359.82 
  "/>
<polyline clip-path="url(#clip780)" style="stroke:#000000; stroke-width:4; stroke-opacity:1; fill:none" points="
  250.92,1359.82 250.92,47.2441 
  "/>
<polyline clip-path="url(#clip780)" style="stroke:#000000; stroke-width:4; stroke-opacity:1; fill:none" points="
  307.689,1359.82 307.689,1344.07 
  "/>
<polyline clip-path="url(#clip780)" style="stroke:#000000; stroke-width:4; stroke-opacity:1; fill:none" points="
  780.763,1359.82 780.763,1344.07 
  "/>
<polyline clip-path="url(#clip780)" style="stroke:#000000; stroke-width:4; stroke-opacity:1; fill:none" points="
  1253.84,1359.82 1253.84,1344.07 
  "/>
<polyline clip-path="url(#clip780)" style="stroke:#000000; stroke-width:4; stroke-opacity:1; fill:none" points="
  1726.91,1359.82 1726.91,1344.07 
  "/>
<polyline clip-path="url(#clip780)" style="stroke:#000000; stroke-width:4; stroke-opacity:1; fill:none" points="
  2199.99,1359.82 2199.99,1344.07 
  "/>
<polyline clip-path="url(#clip780)" style="stroke:#000000; stroke-width:4; stroke-opacity:1; fill:none" points="
  250.92,1322.67 274.99,1322.67 
  "/>
<polyline clip-path="url(#clip780)" style="stroke:#000000; stroke-width:4; stroke-opacity:1; fill:none" points="
  250.92,1009.97 274.99,1009.97 
  "/>
<polyline clip-path="url(#clip780)" style="stroke:#000000; stroke-width:4; stroke-opacity:1; fill:none" points="
  250.92,697.278 274.99,697.278 
  "/>
<polyline clip-path="url(#clip780)" style="stroke:#000000; stroke-width:4; stroke-opacity:1; fill:none" points="
  250.92,384.581 274.99,384.581 
  "/>
<polyline clip-path="url(#clip780)" style="stroke:#000000; stroke-width:4; stroke-opacity:1; fill:none" points="
  250.92,71.8846 274.99,71.8846 
  "/>
<path clip-path="url(#clip780)" d="M 0 0 M307.689 1381.33 Q304.078 1381.33 302.249 1384.9 Q300.444 1388.44 300.444 1395.57 Q300.444 1402.67 302.249 1406.24 Q304.078 1409.78 307.689 1409.78 Q311.323 1409.78 313.129 1406.24 Q314.957 1402.67 314.957 1395.57 Q314.957 1388.44 313.129 1384.9 Q311.323 1381.33 307.689 1381.33 M307.689 1377.63 Q313.499 1377.63 316.555 1382.23 Q319.633 1386.82 319.633 1395.57 Q319.633 1404.29 316.555 1408.9 Q313.499 1413.48 307.689 1413.48 Q301.879 1413.48 298.8 1408.9 Q295.745 1404.29 295.745 1395.57 Q295.745 1386.82 298.8 1382.23 Q301.879 1377.63 307.689 1377.63 Z" fill="#000000" fill-rule="evenodd" fill-opacity="1" /><path clip-path="url(#clip780)" d="M 0 0 M757.639 1408.88 L765.277 1408.88 L765.277 1382.51 L756.967 1384.18 L756.967 1379.92 L765.231 1378.25 L769.907 1378.25 L769.907 1408.88 L777.546 1408.88 L777.546 1412.81 L757.639 1412.81 L757.639 1408.88 Z" fill="#000000" fill-rule="evenodd" fill-opacity="1" /><path clip-path="url(#clip780)" d="M 0 0 M792.615 1381.33 Q789.004 1381.33 787.175 1384.9 Q785.37 1388.44 785.37 1395.57 Q785.37 1402.67 787.175 1406.24 Q789.004 1409.78 792.615 1409.78 Q796.249 1409.78 798.055 1406.24 Q799.884 1402.67 799.884 1395.57 Q799.884 1388.44 798.055 1384.9 Q796.249 1381.33 792.615 1381.33 M792.615 1377.63 Q798.425 1377.63 801.481 1382.23 Q804.56 1386.82 804.56 1395.57 Q804.56 1404.29 801.481 1408.9 Q798.425 1413.48 792.615 1413.48 Q786.805 1413.48 783.726 1408.9 Q780.671 1404.29 780.671 1395.57 Q780.671 1386.82 783.726 1382.23 Q786.805 1377.63 792.615 1377.63 Z" fill="#000000" fill-rule="evenodd" fill-opacity="1" /><path clip-path="url(#clip780)" d="M 0 0 M1234.98 1408.88 L1251.3 1408.88 L1251.3 1412.81 L1229.36 1412.81 L1229.36 1408.88 Q1232.02 1406.12 1236.6 1401.49 Q1241.21 1396.84 1242.39 1395.5 Q1244.64 1392.97 1245.52 1391.24 Q1246.42 1389.48 1246.42 1387.79 Q1246.42 1385.03 1244.47 1383.3 Q1242.55 1381.56 1239.45 1381.56 Q1237.25 1381.56 1234.8 1382.33 Q1232.37 1383.09 1229.59 1384.64 L1229.59 1379.92 Q1232.41 1378.78 1234.87 1378.21 Q1237.32 1377.63 1239.36 1377.63 Q1244.73 1377.63 1247.92 1380.31 Q1251.12 1383 1251.12 1387.49 Q1251.12 1389.62 1250.31 1391.54 Q1249.52 1393.44 1247.41 1396.03 Q1246.84 1396.7 1243.73 1399.92 Q1240.63 1403.11 1234.98 1408.88 Z" fill="#000000" fill-rule="evenodd" fill-opacity="1" /><path clip-path="url(#clip780)" d="M 0 0 M1266.37 1381.33 Q1262.76 1381.33 1260.93 1384.9 Q1259.13 1388.44 1259.13 1395.57 Q1259.13 1402.67 1260.93 1406.24 Q1262.76 1409.78 1266.37 1409.78 Q1270.01 1409.78 1271.81 1406.24 Q1273.64 1402.67 1273.64 1395.57 Q1273.64 1388.44 1271.81 1384.9 Q1270.01 1381.33 1266.37 1381.33 M1266.37 1377.63 Q1272.18 1377.63 1275.24 1382.23 Q1278.32 1386.82 1278.32 1395.57 Q1278.32 1404.29 1275.24 1408.9 Q1272.18 1413.48 1266.37 1413.48 Q1260.56 1413.48 1257.48 1408.9 Q1254.43 1404.29 1254.43 1395.57 Q1254.43 1386.82 1257.48 1382.23 Q1260.56 1377.63 1266.37 1377.63 Z" fill="#000000" fill-rule="evenodd" fill-opacity="1" /><path clip-path="url(#clip780)" d="M 0 0 M1717.65 1394.18 Q1721.01 1394.9 1722.88 1397.16 Q1724.78 1399.43 1724.78 1402.77 Q1724.78 1407.88 1721.26 1410.68 Q1717.75 1413.48 1711.26 1413.48 Q1709.09 1413.48 1706.77 1413.04 Q1704.48 1412.63 1702.03 1411.77 L1702.03 1407.26 Q1703.97 1408.39 1706.29 1408.97 Q1708.6 1409.55 1711.13 1409.55 Q1715.52 1409.55 1717.82 1407.81 Q1720.13 1406.08 1720.13 1402.77 Q1720.13 1399.71 1717.98 1398 Q1715.85 1396.26 1712.03 1396.26 L1708 1396.26 L1708 1392.42 L1712.21 1392.42 Q1715.66 1392.42 1717.49 1391.05 Q1719.32 1389.66 1719.32 1387.07 Q1719.32 1384.41 1717.42 1383 Q1715.55 1381.56 1712.03 1381.56 Q1710.11 1381.56 1707.91 1381.98 Q1705.71 1382.4 1703.07 1383.27 L1703.07 1379.11 Q1705.73 1378.37 1708.05 1378 Q1710.38 1377.63 1712.44 1377.63 Q1717.77 1377.63 1720.87 1380.06 Q1723.97 1382.46 1723.97 1386.59 Q1723.97 1389.46 1722.33 1391.45 Q1720.69 1393.41 1717.65 1394.18 Z" fill="#000000" fill-rule="evenodd" fill-opacity="1" /><path clip-path="url(#clip780)" d="M 0 0 M1739.85 1381.33 Q1736.24 1381.33 1734.41 1384.9 Q1732.61 1388.44 1732.61 1395.57 Q1732.61 1402.67 1734.41 1406.24 Q1736.24 1409.78 1739.85 1409.78 Q1743.49 1409.78 1745.29 1406.24 Q1747.12 1402.67 1747.12 1395.57 Q1747.12 1388.44 1745.29 1384.9 Q1743.49 1381.33 1739.85 1381.33 M1739.85 1377.63 Q1745.66 1377.63 1748.72 1382.23 Q1751.8 1386.82 1751.8 1395.57 Q1751.8 1404.29 1748.72 1408.9 Q1745.66 1413.48 1739.85 1413.48 Q1734.04 1413.48 1730.96 1408.9 Q1727.91 1404.29 1727.91 1395.57 Q1727.91 1386.82 1730.96 1382.23 Q1734.04 1377.63 1739.85 1377.63 Z" fill="#000000" fill-rule="evenodd" fill-opacity="1" /><path clip-path="url(#clip780)" d="M 0 0 M2189.49 1382.33 L2177.68 1400.77 L2189.49 1400.77 L2189.49 1382.33 M2188.26 1378.25 L2194.14 1378.25 L2194.14 1400.77 L2199.07 1400.77 L2199.07 1404.66 L2194.14 1404.66 L2194.14 1412.81 L2189.49 1412.81 L2189.49 1404.66 L2173.89 1404.66 L2173.89 1400.15 L2188.26 1378.25 Z" fill="#000000" fill-rule="evenodd" fill-opacity="1" /><path clip-path="url(#clip780)" d="M 0 0 M2214.14 1381.33 Q2210.53 1381.33 2208.7 1384.9 Q2206.9 1388.44 2206.9 1395.57 Q2206.9 1402.67 2208.7 1406.24 Q2210.53 1409.78 2214.14 1409.78 Q2217.78 1409.78 2219.58 1406.24 Q2221.41 1402.67 2221.41 1395.57 Q2221.41 1388.44 2219.58 1384.9 Q2217.78 1381.33 2214.14 1381.33 M2214.14 1377.63 Q2219.95 1377.63 2223.01 1382.23 Q2226.09 1386.82 2226.09 1395.57 Q2226.09 1404.29 2223.01 1408.9 Q2219.95 1413.48 2214.14 1413.48 Q2208.33 1413.48 2205.25 1408.9 Q2202.2 1404.29 2202.2 1395.57 Q2202.2 1386.82 2205.25 1382.23 Q2208.33 1377.63 2214.14 1377.63 Z" fill="#000000" fill-rule="evenodd" fill-opacity="1" /><path clip-path="url(#clip780)" d="M 0 0 M215.936 1308.47 Q212.325 1308.47 210.496 1312.03 Q208.69 1315.58 208.69 1322.71 Q208.69 1329.81 210.496 1333.38 Q212.325 1336.92 215.936 1336.92 Q219.57 1336.92 221.375 1333.38 Q223.204 1329.81 223.204 1322.71 Q223.204 1315.58 221.375 1312.03 Q219.57 1308.47 215.936 1308.47 M215.936 1304.77 Q221.746 1304.77 224.801 1309.37 Q227.88 1313.96 227.88 1322.71 Q227.88 1331.43 224.801 1336.04 Q221.746 1340.62 215.936 1340.62 Q210.125 1340.62 207.047 1336.04 Q203.991 1331.43 203.991 1322.71 Q203.991 1313.96 207.047 1309.37 Q210.125 1304.77 215.936 1304.77 Z" fill="#000000" fill-rule="evenodd" fill-opacity="1" /><path clip-path="url(#clip780)" d="M 0 0 M158.529 1023.32 L174.848 1023.32 L174.848 1027.25 L152.904 1027.25 L152.904 1023.32 Q155.566 1020.56 160.149 1015.94 Q164.755 1011.28 165.936 1009.94 Q168.181 1007.42 169.061 1005.68 Q169.964 1003.92 169.964 1002.23 Q169.964 999.477 168.019 997.741 Q166.098 996.005 162.996 996.005 Q160.797 996.005 158.343 996.769 Q155.913 997.533 153.135 999.084 L153.135 994.361 Q155.959 993.227 158.413 992.648 Q160.866 992.07 162.903 992.07 Q168.274 992.07 171.468 994.755 Q174.663 997.44 174.663 1001.93 Q174.663 1004.06 173.852 1005.98 Q173.065 1007.88 170.959 1010.47 Q170.38 1011.14 167.278 1014.36 Q164.177 1017.56 158.529 1023.32 Z" fill="#000000" fill-rule="evenodd" fill-opacity="1" /><path clip-path="url(#clip780)" d="M 0 0 M179.964 992.695 L198.32 992.695 L198.32 996.63 L184.246 996.63 L184.246 1005.1 Q185.264 1004.75 186.283 1004.59 Q187.301 1004.41 188.32 1004.41 Q194.107 1004.41 197.487 1007.58 Q200.866 1010.75 200.866 1016.17 Q200.866 1021.75 197.394 1024.85 Q193.922 1027.93 187.602 1027.93 Q185.427 1027.93 183.158 1027.56 Q180.913 1027.19 178.505 1026.44 L178.505 1021.75 Q180.589 1022.88 182.811 1023.44 Q185.033 1023.99 187.51 1023.99 Q191.514 1023.99 193.852 1021.88 Q196.19 1019.78 196.19 1016.17 Q196.19 1012.56 193.852 1010.45 Q191.514 1008.34 187.51 1008.34 Q185.635 1008.34 183.76 1008.76 Q181.908 1009.18 179.964 1010.06 L179.964 992.695 Z" fill="#000000" fill-rule="evenodd" fill-opacity="1" /><path clip-path="url(#clip780)" d="M 0 0 M215.936 995.773 Q212.325 995.773 210.496 999.338 Q208.69 1002.88 208.69 1010.01 Q208.69 1017.12 210.496 1020.68 Q212.325 1024.22 215.936 1024.22 Q219.57 1024.22 221.375 1020.68 Q223.204 1017.12 223.204 1010.01 Q223.204 1002.88 221.375 999.338 Q219.57 995.773 215.936 995.773 M215.936 992.07 Q221.746 992.07 224.801 996.676 Q227.88 1001.26 227.88 1010.01 Q227.88 1018.74 224.801 1023.34 Q221.746 1027.93 215.936 1027.93 Q210.125 1027.93 207.047 1023.34 Q203.991 1018.74 203.991 1010.01 Q203.991 1001.26 207.047 996.676 Q210.125 992.07 215.936 992.07 Z" fill="#000000" fill-rule="evenodd" fill-opacity="1" /><path clip-path="url(#clip780)" d="M 0 0 M152.95 679.998 L171.306 679.998 L171.306 683.933 L157.232 683.933 L157.232 692.405 Q158.251 692.058 159.269 691.896 Q160.288 691.711 161.306 691.711 Q167.093 691.711 170.473 694.882 Q173.852 698.053 173.852 703.47 Q173.852 709.049 170.38 712.151 Q166.908 715.229 160.589 715.229 Q158.413 715.229 156.144 714.859 Q153.899 714.489 151.492 713.748 L151.492 709.049 Q153.575 710.183 155.797 710.739 Q158.019 711.294 160.496 711.294 Q164.501 711.294 166.839 709.188 Q169.177 707.081 169.177 703.47 Q169.177 699.859 166.839 697.753 Q164.501 695.646 160.496 695.646 Q158.621 695.646 156.746 696.063 Q154.894 696.479 152.95 697.359 L152.95 679.998 Z" fill="#000000" fill-rule="evenodd" fill-opacity="1" /><path clip-path="url(#clip780)" d="M 0 0 M188.922 683.077 Q185.311 683.077 183.482 686.642 Q181.677 690.183 181.677 697.313 Q181.677 704.419 183.482 707.984 Q185.311 711.526 188.922 711.526 Q192.556 711.526 194.362 707.984 Q196.19 704.419 196.19 697.313 Q196.19 690.183 194.362 686.642 Q192.556 683.077 188.922 683.077 M188.922 679.373 Q194.732 679.373 197.788 683.979 Q200.866 688.563 200.866 697.313 Q200.866 706.04 197.788 710.646 Q194.732 715.229 188.922 715.229 Q183.112 715.229 180.033 710.646 Q176.977 706.04 176.977 697.313 Q176.977 688.563 180.033 683.979 Q183.112 679.373 188.922 679.373 Z" fill="#000000" fill-rule="evenodd" fill-opacity="1" /><path clip-path="url(#clip780)" d="M 0 0 M215.936 683.077 Q212.325 683.077 210.496 686.642 Q208.69 690.183 208.69 697.313 Q208.69 704.419 210.496 707.984 Q212.325 711.526 215.936 711.526 Q219.57 711.526 221.375 707.984 Q223.204 704.419 223.204 697.313 Q223.204 690.183 221.375 686.642 Q219.57 683.077 215.936 683.077 M215.936 679.373 Q221.746 679.373 224.801 683.979 Q227.88 688.563 227.88 697.313 Q227.88 706.04 224.801 710.646 Q221.746 715.229 215.936 715.229 Q210.125 715.229 207.047 710.646 Q203.991 706.04 203.991 697.313 Q203.991 688.563 207.047 683.979 Q210.125 679.373 215.936 679.373 Z" fill="#000000" fill-rule="evenodd" fill-opacity="1" /><path clip-path="url(#clip780)" d="M 0 0 M152.626 367.301 L174.848 367.301 L174.848 369.292 L162.302 401.861 L157.417 401.861 L169.223 371.236 L152.626 371.236 L152.626 367.301 Z" fill="#000000" fill-rule="evenodd" fill-opacity="1" /><path clip-path="url(#clip780)" d="M 0 0 M179.964 367.301 L198.32 367.301 L198.32 371.236 L184.246 371.236 L184.246 379.709 Q185.264 379.361 186.283 379.199 Q187.301 379.014 188.32 379.014 Q194.107 379.014 197.487 382.185 Q200.866 385.357 200.866 390.773 Q200.866 396.352 197.394 399.454 Q193.922 402.533 187.602 402.533 Q185.427 402.533 183.158 402.162 Q180.913 401.792 178.505 401.051 L178.505 396.352 Q180.589 397.486 182.811 398.042 Q185.033 398.597 187.51 398.597 Q191.514 398.597 193.852 396.491 Q196.19 394.385 196.19 390.773 Q196.19 387.162 193.852 385.056 Q191.514 382.949 187.51 382.949 Q185.635 382.949 183.76 383.366 Q181.908 383.783 179.964 384.662 L179.964 367.301 Z" fill="#000000" fill-rule="evenodd" fill-opacity="1" /><path clip-path="url(#clip780)" d="M 0 0 M215.936 370.38 Q212.325 370.38 210.496 373.945 Q208.69 377.486 208.69 384.616 Q208.69 391.722 210.496 395.287 Q212.325 398.829 215.936 398.829 Q219.57 398.829 221.375 395.287 Q223.204 391.722 223.204 384.616 Q223.204 377.486 221.375 373.945 Q219.57 370.38 215.936 370.38 M215.936 366.676 Q221.746 366.676 224.801 371.283 Q227.88 375.866 227.88 384.616 Q227.88 393.343 224.801 397.949 Q221.746 402.533 215.936 402.533 Q210.125 402.533 207.047 397.949 Q203.991 393.343 203.991 384.616 Q203.991 375.866 207.047 371.283 Q210.125 366.676 215.936 366.676 Z" fill="#000000" fill-rule="evenodd" fill-opacity="1" /><path clip-path="url(#clip780)" d="M 0 0 M126.931 85.2294 L134.57 85.2294 L134.57 58.8638 L126.26 60.5305 L126.26 56.2713 L134.524 54.6046 L139.2 54.6046 L139.2 85.2294 L146.839 85.2294 L146.839 89.1646 L126.931 89.1646 L126.931 85.2294 Z" fill="#000000" fill-rule="evenodd" fill-opacity="1" /><path clip-path="url(#clip780)" d="M 0 0 M161.908 57.6833 Q158.297 57.6833 156.468 61.2481 Q154.663 64.7897 154.663 71.9193 Q154.663 79.0258 156.468 82.5906 Q158.297 86.1322 161.908 86.1322 Q165.542 86.1322 167.348 82.5906 Q169.177 79.0258 169.177 71.9193 Q169.177 64.7897 167.348 61.2481 Q165.542 57.6833 161.908 57.6833 M161.908 53.9796 Q167.718 53.9796 170.774 58.5861 Q173.852 63.1694 173.852 71.9193 Q173.852 80.6461 170.774 85.2526 Q167.718 89.8359 161.908 89.8359 Q156.098 89.8359 153.019 85.2526 Q149.964 80.6461 149.964 71.9193 Q149.964 63.1694 153.019 58.5861 Q156.098 53.9796 161.908 53.9796 Z" fill="#000000" fill-rule="evenodd" fill-opacity="1" /><path clip-path="url(#clip780)" d="M 0 0 M188.922 57.6833 Q185.311 57.6833 183.482 61.2481 Q181.677 64.7897 181.677 71.9193 Q181.677 79.0258 183.482 82.5906 Q185.311 86.1322 188.922 86.1322 Q192.556 86.1322 194.362 82.5906 Q196.19 79.0258 196.19 71.9193 Q196.19 64.7897 194.362 61.2481 Q192.556 57.6833 188.922 57.6833 M188.922 53.9796 Q194.732 53.9796 197.788 58.5861 Q200.866 63.1694 200.866 71.9193 Q200.866 80.6461 197.788 85.2526 Q194.732 89.8359 188.922 89.8359 Q183.112 89.8359 180.033 85.2526 Q176.977 80.6461 176.977 71.9193 Q176.977 63.1694 180.033 58.5861 Q183.112 53.9796 188.922 53.9796 Z" fill="#000000" fill-rule="evenodd" fill-opacity="1" /><path clip-path="url(#clip780)" d="M 0 0 M215.936 57.6833 Q212.325 57.6833 210.496 61.2481 Q208.69 64.7897 208.69 71.9193 Q208.69 79.0258 210.496 82.5906 Q212.325 86.1322 215.936 86.1322 Q219.57 86.1322 221.375 82.5906 Q223.204 79.0258 223.204 71.9193 Q223.204 64.7897 221.375 61.2481 Q219.57 57.6833 215.936 57.6833 M215.936 53.9796 Q221.746 53.9796 224.801 58.5861 Q227.88 63.1694 227.88 71.9193 Q227.88 80.6461 224.801 85.2526 Q221.746 89.8359 215.936 89.8359 Q210.125 89.8359 207.047 85.2526 Q203.991 80.6461 203.991 71.9193 Q203.991 63.1694 207.047 58.5861 Q210.125 53.9796 215.936 53.9796 Z" fill="#000000" fill-rule="evenodd" fill-opacity="1" /><path clip-path="url(#clip780)" d="M 0 0 M1181.44 1444.2 L1221.64 1444.2 L1221.64 1449.61 L1204.77 1449.61 L1204.77 1491.72 L1198.31 1491.72 L1198.31 1449.61 L1181.44 1449.61 L1181.44 1444.2 Z" fill="#000000" fill-rule="evenodd" fill-opacity="1" /><path clip-path="url(#clip780)" d="M 0 0 M1225.78 1456.08 L1231.64 1456.08 L1231.64 1491.72 L1225.78 1491.72 L1225.78 1456.08 M1225.78 1442.2 L1231.64 1442.2 L1231.64 1449.61 L1225.78 1449.61 L1225.78 1442.2 Z" fill="#000000" fill-rule="evenodd" fill-opacity="1" /><path clip-path="url(#clip780)" d="M 0 0 M1265.53 1462.92 Q1267.73 1458.97 1270.79 1457.09 Q1273.84 1455.22 1277.98 1455.22 Q1283.55 1455.22 1286.57 1459.13 Q1289.6 1463.01 1289.6 1470.21 L1289.6 1491.72 L1283.71 1491.72 L1283.71 1470.4 Q1283.71 1465.27 1281.89 1462.79 Q1280.08 1460.31 1276.36 1460.31 Q1271.81 1460.31 1269.16 1463.33 Q1266.52 1466.36 1266.52 1471.58 L1266.52 1491.72 L1260.63 1491.72 L1260.63 1470.4 Q1260.63 1465.24 1258.82 1462.79 Q1257 1460.31 1253.22 1460.31 Q1248.73 1460.31 1246.09 1463.36 Q1243.45 1466.39 1243.45 1471.58 L1243.45 1491.72 L1237.56 1491.72 L1237.56 1456.08 L1243.45 1456.08 L1243.45 1461.61 Q1245.45 1458.34 1248.25 1456.78 Q1251.05 1455.22 1254.9 1455.22 Q1258.79 1455.22 1261.49 1457.19 Q1264.23 1459.16 1265.53 1462.92 Z" fill="#000000" fill-rule="evenodd" fill-opacity="1" /><path clip-path="url(#clip780)" d="M 0 0 M1326.23 1472.44 L1326.23 1475.3 L1299.31 1475.3 Q1299.69 1481.35 1302.93 1484.53 Q1306.21 1487.68 1312.04 1487.68 Q1315.41 1487.68 1318.56 1486.85 Q1321.74 1486.03 1324.86 1484.37 L1324.86 1489.91 Q1321.71 1491.25 1318.4 1491.95 Q1315.09 1492.65 1311.69 1492.65 Q1303.16 1492.65 1298.16 1487.68 Q1293.19 1482.72 1293.19 1474.25 Q1293.19 1465.5 1297.9 1460.37 Q1302.65 1455.22 1310.67 1455.22 Q1317.86 1455.22 1322.03 1459.86 Q1326.23 1464.48 1326.23 1472.44 M1320.38 1470.72 Q1320.31 1465.91 1317.67 1463.05 Q1315.06 1460.18 1310.73 1460.18 Q1305.83 1460.18 1302.87 1462.95 Q1299.94 1465.72 1299.5 1470.75 L1320.38 1470.72 Z" fill="#000000" fill-rule="evenodd" fill-opacity="1" /><path clip-path="url(#clip780)" d="M 0 0 M41.4442 818.815 L41.4442 810.158 L81.198 789.087 L41.4442 789.087 L41.4442 782.849 L88.9642 782.849 L88.9642 791.506 L49.2103 812.577 L88.9642 812.577 L88.9642 818.815 L41.4442 818.815 Z" fill="#000000" fill-rule="evenodd" fill-opacity="1" /><path clip-path="url(#clip780)" d="M 0 0 M74.8959 777.311 L53.3162 777.311 L53.3162 771.454 L74.6731 771.454 Q79.7339 771.454 82.2802 769.481 Q84.7946 767.507 84.7946 763.561 Q84.7946 758.818 81.7709 756.081 Q78.7472 753.312 73.5273 753.312 L53.3162 753.312 L53.3162 747.455 L88.9642 747.455 L88.9642 753.312 L83.4896 753.312 Q86.7362 755.444 88.3276 758.277 Q89.8872 761.078 89.8872 764.802 Q89.8872 770.945 86.0678 774.128 Q82.2483 777.311 74.8959 777.311 M52.4568 762.574 L52.4568 762.574 Z" fill="#000000" fill-rule="evenodd" fill-opacity="1" /><path clip-path="url(#clip780)" d="M 0 0 M60.1593 713.558 Q56.2126 711.362 54.3347 708.306 Q52.4568 705.251 52.4568 701.113 Q52.4568 695.543 56.3717 692.519 Q60.2548 689.496 67.4481 689.496 L88.9642 689.496 L88.9642 695.384 L67.639 695.384 Q62.5146 695.384 60.032 697.198 Q57.5494 699.012 57.5494 702.736 Q57.5494 707.288 60.5731 709.93 Q63.5968 712.571 68.8167 712.571 L88.9642 712.571 L88.9642 718.46 L67.639 718.46 Q62.4828 718.46 60.032 720.274 Q57.5494 722.088 57.5494 725.876 Q57.5494 730.363 60.6049 733.005 Q63.6286 735.647 68.8167 735.647 L88.9642 735.647 L88.9642 741.535 L53.3162 741.535 L53.3162 735.647 L58.8544 735.647 Q55.576 733.642 54.0164 730.841 Q52.4568 728.04 52.4568 724.189 Q52.4568 720.306 54.4302 717.6 Q56.4036 714.863 60.1593 713.558 Z" fill="#000000" fill-rule="evenodd" fill-opacity="1" /><path clip-path="url(#clip780)" d="M 0 0 M71.172 657.763 Q64.7108 657.763 61.0505 660.436 Q57.3584 663.078 57.3584 667.725 Q57.3584 672.372 61.0505 675.045 Q64.7108 677.687 71.172 677.687 Q77.6332 677.687 81.3253 675.045 Q84.9856 672.372 84.9856 667.725 Q84.9856 663.078 81.3253 660.436 Q77.6332 657.763 71.172 657.763 M58.7271 677.687 Q55.5442 675.841 54.0164 673.04 Q52.4568 670.207 52.4568 666.293 Q52.4568 659.8 57.6131 655.757 Q62.7693 651.683 71.172 651.683 Q79.5747 651.683 84.731 655.757 Q89.8872 659.8 89.8872 666.293 Q89.8872 670.207 88.3594 673.04 Q86.7998 675.841 83.617 677.687 L88.9642 677.687 L88.9642 683.575 L39.439 683.575 L39.439 677.687 L58.7271 677.687 Z" fill="#000000" fill-rule="evenodd" fill-opacity="1" /><path clip-path="url(#clip780)" d="M 0 0 M69.6761 615.049 L72.5406 615.049 L72.5406 641.976 Q78.5881 641.594 81.7709 638.347 Q84.9219 635.069 84.9219 629.244 Q84.9219 625.87 84.0944 622.719 Q83.2669 619.536 81.6118 616.417 L87.1499 616.417 Q88.4867 619.568 89.187 622.878 Q89.8872 626.189 89.8872 629.594 Q89.8872 638.124 84.9219 643.121 Q79.9567 648.087 71.4903 648.087 Q62.7374 648.087 57.6131 643.376 Q52.4568 638.634 52.4568 630.613 Q52.4568 623.42 57.1038 619.25 Q61.7189 615.049 69.6761 615.049 M67.9573 620.905 Q63.1512 620.969 60.2866 623.611 Q57.4221 626.22 57.4221 630.549 Q57.4221 635.451 60.1912 638.411 Q62.9602 641.339 67.9892 641.785 L67.9573 620.905 Z" fill="#000000" fill-rule="evenodd" fill-opacity="1" /><path clip-path="url(#clip780)" d="M 0 0 M58.7907 588.249 Q58.2178 589.236 57.9632 590.413 Q57.6767 591.559 57.6767 592.96 Q57.6767 597.925 60.9232 600.598 Q64.1379 603.24 70.1853 603.24 L88.9642 603.24 L88.9642 609.129 L53.3162 609.129 L53.3162 603.24 L58.8544 603.24 Q55.6079 601.394 54.0483 598.434 Q52.4568 595.474 52.4568 591.241 Q52.4568 590.636 52.5523 589.904 Q52.616 589.172 52.7751 588.281 L58.7907 588.249 Z" fill="#000000" fill-rule="evenodd" fill-opacity="1" /><polyline clip-path="url(#clip782)" style="stroke:#009af9; stroke-width:4; stroke-opacity:1; fill:none" points="
  307.689,84.3925 312.42,85.2406 317.15,85.5557 321.881,86.0111 326.612,88.068 331.343,88.9834 336.073,90.2435 340.804,90.4867 345.535,91.3731 350.266,91.9726 
  354.996,91.4381 359.727,90.4171 364.458,91.3763 369.189,92.2478 373.919,92.5697 378.65,93.0938 383.381,92.2687 388.112,94.0744 392.842,95.8872 397.573,96.8266 
  402.304,97.5521 407.035,97.8239 411.765,99.1033 416.496,98.8116 421.227,99.5139 425.958,101.629 430.688,101.945 435.419,104.261 440.15,104.566 444.881,105.522 
  449.611,106.415 454.342,107.776 459.073,108.569 463.804,109.239 468.534,109.601 473.265,110.181 477.996,113.629 482.726,114.655 487.457,114.455 492.188,114.197 
  496.919,114.095 501.649,114.035 506.38,117.215 511.111,119.083 515.842,120.224 520.572,120.937 525.303,120.876 530.034,120.494 534.765,120.916 539.495,123.095 
  544.226,123.695 548.957,125.271 553.688,126.643 558.418,127.842 563.149,128.644 567.88,130.533 572.611,133.024 577.341,134.128 582.072,136.266 586.803,137.142 
  591.534,136.544 596.264,136.348 600.995,137.583 605.726,137.992 610.457,140.326 615.187,144.176 619.918,146.281 624.649,147.707 629.38,148.687 634.11,150.275 
  638.841,152.562 643.572,155.999 648.303,159.156 653.033,162.121 657.764,164.667 662.495,167.103 667.226,170.341 671.956,173.816 676.687,176.513 681.418,178.417 
  686.149,180.321 690.879,183.398 695.61,186.557 700.341,189.714 705.072,192.83 709.802,195.945 714.533,199.061 719.264,202.126 723.994,205.181 728.725,208.235 
  733.456,211.205 738.187,213.753 742.917,216.3 747.648,218.847 752.379,221.387 757.11,223.817 761.84,226.247 766.571,228.677 771.302,231.107 776.033,233.803 
  780.763,236.825 785.494,239.847 790.225,242.87 794.956,245.892 799.686,248.859 804.417,251.669 809.148,254.478 813.879,257.288 818.609,260.097 823.34,262.94 
  828.071,266.05 832.802,269.16 837.532,272.27 842.263,275.38 846.994,278.49 851.725,281.593 856.455,284.683 861.186,287.772 865.917,290.862 870.648,293.951 
  875.378,297.041 880.109,300.13 884.84,303.591 889.571,307.144 894.301,310.696 899.032,314.249 903.763,317.801 908.494,321.354 913.224,324.906 917.955,328.56 
  922.686,332.326 927.417,336.092 932.147,339.859 936.878,343.625 941.609,347.391 946.34,351.158 951.07,354.924 955.801,359.004 960.532,364.165 965.262,369.326 
  969.993,374.486 974.724,379.647 979.455,384.807 984.185,389.81 988.916,394.458 993.647,399.106 998.378,403.754 1003.11,408.402 1007.84,413.05 1012.57,417.698 
  1017.3,422.833 1022.03,428.227 1026.76,433.621 1031.49,439.015 1036.22,444.409 1040.95,449.803 1045.69,454.001 1050.42,458.151 1055.15,462.3 1059.88,466.45 
  1064.61,470.6 1069.34,474.75 1074.07,479.558 1078.8,484.888 1083.53,490.217 1088.26,495.547 1092.99,500.876 1097.72,506.206 1102.45,511.535 1107.18,516.477 
  1111.92,520.716 1116.65,524.956 1121.38,529.195 1126.11,533.434 1130.84,537.673 1135.57,541.912 1140.3,546.151 1145.03,550.314 1149.76,554.247 1154.49,558.18 
  1159.22,562.113 1163.95,566.046 1168.68,569.98 1173.42,573.913 1178.15,577.846 1182.88,581.779 1187.61,585.877 1192.34,591.032 1197.07,596.187 1201.8,601.342 
  1206.53,606.497 1211.26,611.651 1215.99,616.806 1220.72,621.961 1225.45,627.116 1230.18,632.271 1234.91,637.426 1239.65,641.303 1244.38,645.004 1249.11,648.705 
  1253.84,652.406 1258.57,656.106 1263.3,659.807 1268.03,663.508 1272.76,667.209 1277.49,670.91 1282.22,674.611 1286.95,678.312 1291.68,682.872 1296.41,687.674 
  1301.15,692.476 1305.88,697.278 1310.61,702.08 1315.34,706.882 1320.07,711.684 1324.8,716.486 1329.53,721.288 1334.26,726.09 1338.99,730.892 1343.72,735.694 
  1348.45,738.373 1353.18,740.865 1357.91,743.358 1362.65,745.85 1367.38,748.342 1372.11,750.835 1376.84,753.327 1381.57,755.819 1386.3,758.312 1391.03,760.804 
  1395.76,763.296 1400.49,765.791 1405.22,768.398 1409.95,771.006 1414.68,773.613 1419.41,776.221 1424.14,778.828 1428.88,781.435 1433.61,784.043 1438.34,786.65 
  1443.07,789.258 1447.8,791.865 1452.53,794.472 1457.26,797.03 1461.99,799.375 1466.72,801.72 1471.45,804.064 1476.18,806.409 1480.91,808.754 1485.64,811.099 
  1490.38,813.443 1495.11,815.788 1499.84,818.133 1504.57,820.477 1509.3,822.822 1514.03,825.167 1518.76,827.511 1523.49,829.935 1528.22,832.37 1532.95,834.805 
  1537.68,837.24 1542.41,839.676 1547.14,842.111 1551.87,844.546 1556.61,846.981 1561.34,849.416 1566.07,851.851 1570.8,854.286 1575.53,856.721 1580.26,859.156 
  1584.99,861.591 1589.72,864.026 1594.45,866.671 1599.18,869.339 1603.91,872.007 1608.64,874.675 1613.37,877.343 1618.11,880.011 1622.84,882.679 1627.57,885.347 
  1632.3,888.015 1637.03,890.684 1641.76,893.352 1646.49,896.02 1651.22,898.688 1655.95,901.356 1660.68,904.024 1665.41,906.692 1670.14,909.306 1674.87,910.979 
  1679.61,912.652 1684.34,914.324 1689.07,915.997 1693.8,917.67 1698.53,919.342 1703.26,921.015 1707.99,922.688 1712.72,924.36 1717.45,926.033 1722.18,927.706 
  1726.91,929.378 1731.64,931.051 1736.37,932.723 1741.1,934.396 1745.84,936.069 1750.57,937.741 1755.3,939.414 1760.03,941.029 1764.76,942.129 1769.49,943.229 
  1774.22,944.329 1778.95,945.429 1783.68,946.529 1788.41,947.629 1793.14,948.729 1797.87,949.829 1802.6,950.929 1807.34,952.029 1812.07,953.129 1816.8,954.229 
  1821.53,955.329 1826.26,956.429 1830.99,957.529 1835.72,958.629 1840.45,959.729 1845.18,960.829 1849.91,961.929 1854.64,963.029 1859.37,964.129 1864.1,964.947 
  1868.83,965.684 1873.57,966.421 1878.3,967.158 1883.03,967.895 1887.76,968.633 1892.49,969.37 1897.22,970.107 1901.95,970.844 1906.68,971.581 1911.41,972.319 
  1916.14,973.056 1920.87,973.793 1925.6,974.53 1930.33,975.317 1935.07,976.495 1939.8,977.672 1944.53,978.85 1949.26,980.027 1953.99,981.205 1958.72,982.383 
  1963.45,983.56 1968.18,984.738 1972.91,985.915 1977.64,987.093 1982.37,988.27 1987.1,989.448 1991.83,990.625 1996.56,991.803 2001.3,992.98 2006.03,994.158 
  2010.76,995.219 2015.49,996.208 2020.22,997.198 2024.95,998.187 2029.68,999.176 2034.41,1000.17 2039.14,1001.15 2043.87,1002.14 2048.6,1003.13 2053.33,1004.12 
  2058.06,1005.11 2062.8,1006.1 2067.53,1007.09 2072.26,1008.08 2076.99,1008.94 2081.72,1009.76 2086.45,1010.59 2091.18,1011.41 2095.91,1012.24 2100.64,1013.06 
  2105.37,1013.89 2110.1,1014.71 2114.83,1015.53 2119.56,1016.36 2124.3,1017.18 2129.03,1018.01 2133.76,1018.83 2138.49,1019.65 2143.22,1020.48 2147.95,1021.23 
  2152.68,1021.67 2157.41,1022.11 2162.14,1022.55 2166.87,1022.99 2171.6,1023.43 2176.33,1023.87 2181.06,1024.32 2185.79,1024.76 2190.53,1025.2 2195.26,1025.64 
  2199.99,1026.46 
  "/>
<polyline clip-path="url(#clip782)" style="stroke:#e26f46; stroke-width:4; stroke-opacity:1; fill:none" points="
  307.689,1310.16 312.42,1309.44 317.15,1309.42 321.881,1309.78 326.612,1308.41 331.343,1307.91 336.073,1307.64 340.804,1308.43 345.535,1308.2 350.266,1307.6 
  354.996,1308.06 359.727,1311.19 364.458,1311.4 369.189,1310.72 373.919,1311.35 378.65,1311.79 383.381,1312.39 388.112,1310.73 392.842,1310.14 397.573,1310.37 
  402.304,1310.11 407.035,1310.39 411.765,1310.2 416.496,1309.48 421.227,1309.77 425.958,1307.73 430.688,1306.52 435.419,1304.6 440.15,1303.99 444.881,1304.4 
  449.611,1304.02 454.342,1303.27 459.073,1301.92 463.804,1302.4 468.534,1300.4 473.265,1300.11 477.996,1296.37 482.726,1296 487.457,1296.46 492.188,1297.53 
  496.919,1298.59 501.649,1299.97 506.38,1297.47 511.111,1295.84 515.842,1295.23 520.572,1295.42 525.303,1296.29 530.034,1298.73 534.765,1300.69 539.495,1299.71 
  544.226,1301.12 548.957,1300.49 553.688,1299 558.418,1298.09 563.149,1297.13 567.88,1295.65 572.611,1293.54 577.341,1293.11 582.072,1291.07 586.803,1290.1 
  591.534,1290.49 596.264,1292.06 600.995,1291.74 605.726,1292.64 610.457,1290.36 615.187,1287.43 619.918,1284.92 624.649,1283.96 629.38,1282.77 634.11,1281.86 
  638.841,1280.78 643.572,1278.16 648.303,1275.64 653.033,1273.19 657.764,1271.86 662.495,1270.83 667.226,1269.8 671.956,1268.79 676.687,1268.07 681.418,1267.64 
  686.149,1267.21 690.879,1265.94 695.61,1264.6 700.341,1263.26 705.072,1261.86 709.802,1260.46 714.533,1259.06 719.264,1257.14 723.994,1255.11 728.725,1253.07 
  733.456,1251.34 738.187,1251.14 742.917,1250.94 747.648,1250.73 752.379,1250.52 757.11,1250.12 761.84,1249.73 766.571,1249.33 771.302,1248.93 776.033,1248.12 
  780.763,1246.8 785.494,1245.47 790.225,1244.15 794.956,1242.83 799.686,1241.93 804.417,1242.26 809.148,1242.59 813.879,1242.91 818.609,1243.24 823.34,1243.39 
  828.071,1242.09 832.802,1240.79 837.532,1239.49 842.263,1238.19 846.994,1236.89 851.725,1235.7 856.455,1234.73 861.186,1233.77 865.917,1232.81 870.648,1231.84 
  875.378,1230.88 880.109,1229.92 884.84,1228.31 889.571,1226.55 894.301,1224.79 899.032,1223.02 903.763,1221.26 908.494,1219.5 913.224,1217.73 917.955,1216.11 
  922.686,1214.63 927.417,1213.16 932.147,1211.69 936.878,1210.21 941.609,1208.74 946.34,1207.27 951.07,1205.79 955.801,1204.31 960.532,1202.79 965.262,1201.26 
  969.993,1199.74 974.724,1198.22 979.455,1196.69 984.185,1195.59 988.916,1195.42 993.647,1195.25 998.378,1195.08 1003.11,1194.92 1007.84,1194.75 1012.57,1194.58 
  1017.3,1193.02 1022.03,1190.73 1026.76,1188.44 1031.49,1186.15 1036.22,1183.86 1040.95,1181.56 1045.69,1180.66 1050.42,1179.81 1055.15,1178.96 1059.88,1178.11 
  1064.61,1177.26 1069.34,1176.41 1074.07,1175.49 1078.8,1174.51 1083.53,1173.53 1088.26,1172.54 1092.99,1171.56 1097.72,1170.58 1102.45,1169.6 1107.18,1169.14 
  1111.92,1169.65 1116.65,1170.15 1121.38,1170.66 1126.11,1171.16 1130.84,1171.66 1135.57,1172.17 1140.3,1172.67 1145.03,1173.18 1149.76,1173.68 1154.49,1174.19 
  1159.22,1174.7 1163.95,1175.2 1168.68,1175.71 1173.42,1176.21 1178.15,1176.72 1182.88,1177.22 1187.61,1177.5 1192.34,1176.31 1197.07,1175.12 1201.8,1173.94 
  1206.53,1172.75 1211.26,1171.56 1215.99,1170.37 1220.72,1169.19 1225.45,1168 1230.18,1166.81 1234.91,1165.62 1239.65,1165.16 1244.38,1164.8 1249.11,1164.43 
  1253.84,1164.07 1258.57,1163.7 1263.3,1163.34 1268.03,1162.98 1272.76,1162.61 1277.49,1162.25 1282.22,1161.89 1286.95,1161.52 1291.68,1161.15 1296.41,1160.78 
  1301.15,1160.4 1305.88,1160.03 1310.61,1159.65 1315.34,1159.28 1320.07,1158.9 1324.8,1158.53 1329.53,1158.15 1334.26,1157.78 1338.99,1157.4 1343.72,1157.03 
  1348.45,1158.5 1353.18,1160.14 1357.91,1161.78 1362.65,1163.42 1367.38,1165.05 1372.11,1166.69 1376.84,1168.33 1381.57,1169.97 1386.3,1171.61 1391.03,1173.24 
  1395.76,1174.88 1400.49,1176.51 1405.22,1177.62 1409.95,1178.72 1414.68,1179.83 1419.41,1180.93 1424.14,1182.04 1428.88,1183.15 1433.61,1184.25 1438.34,1185.36 
  1443.07,1186.46 1447.8,1187.57 1452.53,1188.67 1457.26,1189.67 1461.99,1190.21 1466.72,1190.75 1471.45,1191.28 1476.18,1191.82 1480.91,1192.35 1485.64,1192.89 
  1490.38,1193.43 1495.11,1193.96 1499.84,1194.5 1504.57,1195.03 1509.3,1195.57 1514.03,1196.11 1518.76,1196.64 1523.49,1197.07 1528.22,1197.48 1532.95,1197.89 
  1537.68,1198.3 1542.41,1198.71 1547.14,1199.11 1551.87,1199.52 1556.61,1199.93 1561.34,1200.34 1566.07,1200.75 1570.8,1201.16 1575.53,1201.57 1580.26,1201.98 
  1584.99,1202.39 1589.72,1202.8 1594.45,1203.59 1599.18,1204.42 1603.91,1205.26 1608.64,1206.09 1613.37,1206.92 1618.11,1207.75 1622.84,1208.58 1627.57,1209.42 
  1632.3,1210.25 1637.03,1211.08 1641.76,1211.91 1646.49,1212.75 1651.22,1213.58 1655.95,1214.41 1660.68,1215.24 1665.41,1216.08 1670.14,1216.92 1674.87,1218.05 
  1679.61,1219.17 1684.34,1220.29 1689.07,1221.42 1693.8,1222.54 1698.53,1223.66 1703.26,1224.79 1707.99,1225.91 1712.72,1227.03 1717.45,1228.16 1722.18,1229.28 
  1726.91,1230.4 1731.64,1231.53 1736.37,1232.65 1741.1,1233.77 1745.84,1234.9 1750.57,1236.02 1755.3,1237.14 1760.03,1238.23 1764.76,1238.94 1769.49,1239.65 
  1774.22,1240.37 1778.95,1241.08 1783.68,1241.79 1788.41,1242.5 1793.14,1243.22 1797.87,1243.93 1802.6,1244.64 1807.34,1245.36 1812.07,1246.07 1816.8,1246.78 
  1821.53,1247.5 1826.26,1248.21 1830.99,1248.92 1835.72,1249.64 1840.45,1250.35 1845.18,1251.06 1849.91,1251.78 1854.64,1252.49 1859.37,1253.2 1864.1,1253.83 
  1868.83,1254.43 1873.57,1255.03 1878.3,1255.63 1883.03,1256.23 1887.76,1256.83 1892.49,1257.43 1897.22,1258.03 1901.95,1258.63 1906.68,1259.23 1911.41,1259.83 
  1916.14,1260.43 1920.87,1261.04 1925.6,1261.64 1930.33,1262.18 1935.07,1262.27 1939.8,1262.36 1944.53,1262.45 1949.26,1262.55 1953.99,1262.64 1958.72,1262.73 
  1963.45,1262.82 1968.18,1262.91 1972.91,1263 1977.64,1263.09 1982.37,1263.19 1987.1,1263.28 1991.83,1263.37 1996.56,1263.46 2001.3,1263.55 2006.03,1263.64 
  2010.76,1263.96 2015.49,1264.43 2020.22,1264.89 2024.95,1265.36 2029.68,1265.82 2034.41,1266.29 2039.14,1266.75 2043.87,1267.22 2048.6,1267.68 2053.33,1268.15 
  2058.06,1268.61 2062.8,1269.08 2067.53,1269.54 2072.26,1270.01 2076.99,1270.74 2081.72,1271.55 2086.45,1272.36 2091.18,1273.17 2095.91,1273.99 2100.64,1274.8 
  2105.37,1275.61 2110.1,1276.42 2114.83,1277.23 2119.56,1278.04 2124.3,1278.86 2129.03,1279.67 2133.76,1280.48 2138.49,1281.29 2143.22,1282.1 2147.95,1282.94 
  2152.68,1283.88 2157.41,1284.83 2162.14,1285.77 2166.87,1286.72 2171.6,1287.66 2176.33,1288.61 2181.06,1289.56 2185.79,1290.5 2190.53,1291.45 2195.26,1292.39 
  2199.99,1293.01 
  "/>
<polyline clip-path="url(#clip782)" style="stroke:#3da44d; stroke-width:4; stroke-opacity:1; fill:none" points="
  307.689,1322.67 312.42,1322.55 317.15,1322.25 321.881,1321.44 326.612,1320.75 331.343,1320.34 336.073,1319.35 340.804,1318.31 345.535,1317.65 350.266,1317.66 
  354.996,1317.73 359.727,1315.63 364.458,1314.45 369.189,1314.26 373.919,1313.3 378.65,1312.34 383.381,1312.57 388.112,1312.42 392.842,1311.2 397.573,1310.03 
  402.304,1309.56 407.035,1309.01 411.765,1307.92 416.496,1308.94 421.227,1307.94 425.958,1307.87 430.688,1308.76 435.419,1308.37 440.15,1308.67 444.881,1307.31 
  449.611,1306.79 454.342,1306.18 459.073,1306.74 463.804,1305.59 468.534,1307.22 473.265,1306.94 477.996,1307.23 482.726,1306.57 487.457,1306.32 492.188,1305.5 
  496.919,1304.54 501.649,1303.22 506.38,1302.54 511.111,1302.3 515.842,1301.77 520.572,1300.87 525.303,1300.06 530.034,1298 534.765,1295.63 539.495,1294.43 
  544.226,1292.41 548.957,1291.46 553.688,1291.58 558.418,1291.29 563.149,1291.46 567.88,1291.05 572.611,1290.66 577.341,1289.99 582.072,1289.89 586.803,1289.99 
  591.534,1290.2 596.264,1288.82 600.995,1287.9 605.726,1286.59 610.457,1286.54 615.187,1285.62 619.918,1286.03 624.649,1285.56 629.38,1285.77 634.11,1285.09 
  638.841,1283.89 643.572,1283.07 648.303,1282.43 653.033,1281.91 657.764,1280.7 662.495,1279.3 667.226,1277.08 671.956,1274.62 676.687,1272.65 681.418,1271.17 
  686.149,1269.69 690.879,1267.89 695.61,1266.07 700.341,1264.26 705.072,1262.54 709.802,1260.82 714.533,1259.11 719.264,1257.96 723.994,1256.94 728.725,1255.92 
  733.456,1254.69 738.187,1252.34 742.917,1249.99 747.648,1247.65 752.379,1245.32 757.11,1243.29 761.84,1241.25 766.571,1239.22 771.302,1237.19 776.033,1235.31 
  780.763,1233.61 785.494,1231.91 790.225,1230.21 794.956,1228.51 799.686,1226.44 804.417,1223.3 809.148,1220.16 813.879,1217.03 818.609,1213.89 823.34,1210.9 
  828.071,1209.09 832.802,1207.28 837.532,1205.47 842.263,1203.66 846.994,1201.85 851.725,1199.94 856.455,1197.81 861.186,1195.69 865.917,1193.56 870.648,1191.43 
  875.378,1189.31 880.109,1187.18 884.84,1185.32 889.571,1183.53 894.301,1181.74 899.032,1179.96 903.763,1178.17 908.494,1176.38 913.224,1174.59 917.955,1172.56 
  922.686,1170.27 927.417,1167.97 932.147,1165.68 936.878,1163.39 941.609,1161.1 946.34,1158.8 951.07,1156.51 955.801,1153.91 960.532,1150.28 965.262,1146.64 
  969.993,1143 974.724,1139.36 979.455,1135.73 984.185,1131.83 988.916,1127.35 993.647,1122.87 998.378,1118.39 1003.11,1113.91 1007.84,1109.43 1012.57,1104.95 
  1017.3,1101.37 1022.03,1098.27 1026.76,1095.17 1031.49,1092.06 1036.22,1088.96 1040.95,1085.86 1045.69,1082.57 1050.42,1079.27 1055.15,1075.97 1059.88,1072.67 
  1064.61,1069.36 1069.34,1066.06 1074.07,1062.18 1078.8,1057.83 1083.53,1053.48 1088.26,1049.14 1092.99,1044.79 1097.72,1040.44 1102.45,1036.1 1107.18,1031.61 
  1111.92,1026.86 1116.65,1022.12 1121.38,1017.38 1126.11,1012.63 1130.84,1007.89 1135.57,1003.15 1140.3,998.403 1145.03,993.736 1149.76,989.297 1154.49,984.858 
  1159.22,980.419 1163.95,975.98 1168.68,971.541 1173.42,967.103 1178.15,962.664 1182.88,958.225 1187.61,953.85 1192.34,949.883 1197.07,945.916 1201.8,941.949 
  1206.53,937.982 1211.26,934.015 1215.99,930.048 1220.72,926.081 1225.45,922.114 1230.18,918.147 1234.91,914.18 1239.65,910.766 1244.38,907.429 1249.11,904.091 
  1253.84,900.754 1258.57,897.416 1263.3,894.079 1268.03,890.741 1272.76,887.404 1277.49,884.067 1282.22,880.729 1286.95,877.392 1291.68,873.204 1296.41,868.777 
  1301.15,864.35 1305.88,859.923 1310.61,855.496 1315.34,851.069 1320.07,846.642 1324.8,842.214 1329.53,837.787 1334.26,833.36 1338.99,828.933 1343.72,824.506 
  1348.45,820.352 1353.18,816.222 1357.91,812.091 1362.65,807.961 1367.38,803.831 1372.11,799.7 1376.84,795.57 1381.57,791.44 1386.3,787.309 1391.03,783.179 
  1395.76,779.049 1400.49,774.927 1405.22,771.213 1409.95,767.5 1414.68,763.787 1419.41,760.074 1424.14,756.36 1428.88,752.647 1433.61,748.934 1438.34,745.221 
  1443.07,741.507 1447.8,737.794 1452.53,734.081 1457.26,730.524 1461.99,727.643 1466.72,724.762 1471.45,721.882 1476.18,719.001 1480.91,716.12 1485.64,713.239 
  1490.38,710.359 1495.11,707.478 1499.84,704.597 1504.57,701.716 1509.3,698.836 1514.03,695.955 1518.76,693.074 1523.49,690.225 1528.22,687.38 1532.95,684.536 
  1537.68,681.691 1542.41,678.847 1547.14,676.002 1551.87,673.158 1556.61,670.313 1561.34,667.468 1566.07,664.624 1570.8,661.779 1575.53,658.935 1580.26,656.09 
  1584.99,653.245 1589.72,650.401 1594.45,646.966 1599.18,643.465 1603.91,639.965 1608.64,636.465 1613.37,632.964 1618.11,629.464 1622.84,625.964 1627.57,622.463 
  1632.3,618.963 1637.03,615.462 1641.76,611.962 1646.49,608.462 1651.22,604.961 1655.95,601.461 1660.68,597.961 1665.41,594.46 1670.14,590.998 1674.87,588.202 
  1679.61,585.406 1684.34,582.61 1689.07,579.814 1693.8,577.018 1698.53,574.222 1703.26,571.426 1707.99,568.63 1712.72,565.834 1717.45,563.038 1722.18,560.242 
  1726.91,557.446 1731.64,554.65 1736.37,551.854 1741.1,549.058 1745.84,546.262 1750.57,543.466 1755.3,540.67 1760.03,537.972 1764.76,536.159 1769.49,534.346 
  1774.22,532.533 1778.95,530.72 1783.68,528.907 1788.41,527.094 1793.14,525.281 1797.87,523.467 1802.6,521.654 1807.34,519.841 1812.07,518.028 1816.8,516.215 
  1821.53,514.402 1826.26,512.589 1830.99,510.776 1835.72,508.962 1840.45,507.149 1845.18,505.336 1849.91,503.523 1854.64,501.71 1859.37,499.897 1864.1,498.454 
  1868.83,497.116 1873.57,495.778 1878.3,494.44 1883.03,493.102 1887.76,491.764 1892.49,490.426 1897.22,489.088 1901.95,487.751 1906.68,486.413 1911.41,485.075 
  1916.14,483.737 1920.87,482.399 1925.6,481.061 1930.33,479.731 1935.07,478.462 1939.8,477.193 1944.53,475.924 1949.26,474.655 1953.99,473.386 1958.72,472.117 
  1963.45,470.848 1968.18,469.579 1972.91,468.31 1977.64,467.041 1982.37,465.772 1987.1,464.503 1991.83,463.234 1996.56,461.965 2001.3,460.696 2006.03,459.427 
  2010.76,458.044 2015.49,456.59 2020.22,455.136 2024.95,453.682 2029.68,452.228 2034.41,450.774 2039.14,449.319 2043.87,447.865 2048.6,446.411 2053.33,444.957 
  2058.06,443.503 2062.8,442.049 2067.53,440.595 2072.26,439.141 2076.99,437.547 2081.72,435.912 2086.45,434.276 2091.18,432.64 2095.91,431.005 2100.64,429.369 
  2105.37,427.733 2110.1,426.098 2114.83,424.462 2119.56,422.826 2124.3,421.191 2129.03,419.555 2133.76,417.919 2138.49,416.284 2143.22,414.648 2147.95,413.06 
  2152.68,411.674 2157.41,410.288 2162.14,408.902 2166.87,407.515 2171.6,406.129 2176.33,404.743 2181.06,403.357 2185.79,401.971 2190.53,400.585 2195.26,399.199 
  2199.99,397.759 
  "/>
<path clip-path="url(#clip780)" d="
M1999.43 272.437 L2256.76 272.437 L2256.76 30.5166 L1999.43 30.5166  Z
  " fill="#ffffff" fill-rule="evenodd" fill-opacity="1"/>
<polyline clip-path="url(#clip780)" style="stroke:#000000; stroke-width:4; stroke-opacity:1; fill:none" points="
  1999.43,272.437 2256.76,272.437 2256.76,30.5166 1999.43,30.5166 1999.43,272.437 
  "/>
<polyline clip-path="url(#clip780)" style="stroke:#009af9; stroke-width:4; stroke-opacity:1; fill:none" points="
  2022.47,90.9966 2160.71,90.9966 
  "/>
<path clip-path="url(#clip780)" d="M 0 0 M2206 74.8509 L2206 79.411 Q2203.34 78.1379 2200.98 77.5129 Q2198.62 76.8879 2196.42 76.8879 Q2192.6 76.8879 2190.51 78.3694 Q2188.45 79.8508 2188.45 82.5823 Q2188.45 84.874 2189.82 86.0545 Q2191.21 87.2119 2195.05 87.9295 L2197.88 88.5082 Q2203.11 89.5036 2205.58 92.0267 Q2208.08 94.5267 2208.08 98.7396 Q2208.08 103.763 2204.7 106.355 Q2201.35 108.948 2194.84 108.948 Q2192.39 108.948 2189.61 108.392 Q2186.86 107.837 2183.89 106.749 L2183.89 101.934 Q2186.74 103.531 2189.47 104.341 Q2192.2 105.152 2194.84 105.152 Q2198.85 105.152 2201.02 103.578 Q2203.2 102.004 2203.2 99.0869 Q2203.2 96.5406 2201.63 95.1054 Q2200.07 93.6702 2196.51 92.9526 L2193.66 92.3971 Q2188.43 91.3554 2186.09 89.1332 Q2183.75 86.911 2183.75 82.9527 Q2183.75 78.3694 2186.97 75.7305 Q2190.21 73.0916 2195.88 73.0916 Q2198.31 73.0916 2200.84 73.5314 Q2203.36 73.9712 2206 74.8509 Z" fill="#000000" fill-rule="evenodd" fill-opacity="1" /><polyline clip-path="url(#clip780)" style="stroke:#e26f46; stroke-width:4; stroke-opacity:1; fill:none" points="
  2022.47,151.477 2160.71,151.477 
  "/>
<path clip-path="url(#clip780)" d="M 0 0 M2183.75 134.197 L2188.43 134.197 L2188.43 168.757 L2183.75 168.757 L2183.75 134.197 Z" fill="#000000" fill-rule="evenodd" fill-opacity="1" /><polyline clip-path="url(#clip780)" style="stroke:#3da44d; stroke-width:4; stroke-opacity:1; fill:none" points="
  2022.47,211.957 2160.71,211.957 
  "/>
<path clip-path="url(#clip780)" d="M 0 0 M2200.14 213.033 Q2201.65 213.542 2203.06 215.209 Q2204.5 216.876 2205.93 219.792 L2210.68 229.237 L2205.65 229.237 L2201.23 220.371 Q2199.52 216.899 2197.9 215.764 Q2196.3 214.63 2193.52 214.63 L2188.43 214.63 L2188.43 229.237 L2183.75 229.237 L2183.75 194.677 L2194.31 194.677 Q2200.24 194.677 2203.15 197.153 Q2206.07 199.63 2206.07 204.63 Q2206.07 207.894 2204.54 210.047 Q2203.04 212.2 2200.14 213.033 M2188.43 198.519 L2188.43 210.788 L2194.31 210.788 Q2197.69 210.788 2199.4 209.237 Q2201.14 207.663 2201.14 204.63 Q2201.14 201.598 2199.4 200.07 Q2197.69 198.519 2194.31 198.519 L2188.43 198.519 Z" fill="#000000" fill-rule="evenodd" fill-opacity="1" /></svg>
