<?xml version="1.0" encoding="utf-8"?>
<svg xmlns="http://www.w3.org/2000/svg" xmlns:xlink="http://www.w3.org/1999/xlink" width="576" height="384" viewBox="0 0 2304 1536">
<defs>
  <clipPath id="clip420">
    <rect x="0" y="0" width="2304" height="1536"/>
  </clipPath>
</defs>
<path clip-path="url(#clip420)" d="
M0 1536 L2304 1536 L2304 0 L0 0  Z
  " fill="#ffffff" fill-rule="evenodd" fill-opacity="1"/>
<defs>
  <clipPath id="clip421">
    <rect x="460" y="0" width="1614" height="1536"/>
  </clipPath>
</defs>
<path clip-path="url(#clip420)" d="
M250.92 1359.82 L2256.76 1359.82 L2256.76 47.2441 L250.92 47.2441  Z
  " fill="#ffffff" fill-rule="evenodd" fill-opacity="1"/>
<defs>
  <clipPath id="clip422">
    <rect x="250" y="47" width="2007" height="1314"/>
  </clipPath>
</defs>
<polyline clip-path="url(#clip422)" style="stroke:#000000; stroke-width:2; stroke-opacity:0.1; fill:none" points="
  307.689,1359.82 307.689,47.2441 
  "/>
<polyline clip-path="url(#clip422)" style="stroke:#000000; stroke-width:2; stroke-opacity:0.1; fill:none" points="
  780.763,1359.82 780.763,47.2441 
  "/>
<polyline clip-path="url(#clip422)" style="stroke:#000000; stroke-width:2; stroke-opacity:0.1; fill:none" points="
  1253.84,1359.82 1253.84,47.2441 
  "/>
<polyline clip-path="url(#clip422)" style="stroke:#000000; stroke-width:2; stroke-opacity:0.1; fill:none" points="
  1726.91,1359.82 1726.91,47.2441 
  "/>
<polyline clip-path="url(#clip422)" style="stroke:#000000; stroke-width:2; stroke-opacity:0.1; fill:none" points="
  2199.99,1359.82 2199.99,47.2441 
  "/>
<polyline clip-path="url(#clip422)" style="stroke:#000000; stroke-width:2; stroke-opacity:0.1; fill:none" points="
  250.92,1322.67 2256.76,1322.67 
  "/>
<polyline clip-path="url(#clip422)" style="stroke:#000000; stroke-width:2; stroke-opacity:0.1; fill:none" points="
  250.92,1009.97 2256.76,1009.97 
  "/>
<polyline clip-path="url(#clip422)" style="stroke:#000000; stroke-width:2; stroke-opacity:0.1; fill:none" points="
  250.92,697.278 2256.76,697.278 
  "/>
<polyline clip-path="url(#clip422)" style="stroke:#000000; stroke-width:2; stroke-opacity:0.1; fill:none" points="
  250.92,384.581 2256.76,384.581 
  "/>
<polyline clip-path="url(#clip422)" style="stroke:#000000; stroke-width:2; stroke-opacity:0.1; fill:none" points="
  250.92,71.8846 2256.76,71.8846 
  "/>
<polyline clip-path="url(#clip420)" style="stroke:#000000; stroke-width:4; stroke-opacity:1; fill:none" points="
  250.92,1359.82 2256.76,1359.82 
  "/>
<polyline clip-path="url(#clip420)" style="stroke:#000000; stroke-width:4; stroke-opacity:1; fill:none" points="
  250.92,1359.82 250.92,47.2441 
  "/>
<polyline clip-path="url(#clip420)" style="stroke:#000000; stroke-width:4; stroke-opacity:1; fill:none" points="
  307.689,1359.82 307.689,1344.07 
  "/>
<polyline clip-path="url(#clip420)" style="stroke:#000000; stroke-width:4; stroke-opacity:1; fill:none" points="
  780.763,1359.82 780.763,1344.07 
  "/>
<polyline clip-path="url(#clip420)" style="stroke:#000000; stroke-width:4; stroke-opacity:1; fill:none" points="
  1253.84,1359.82 1253.84,1344.07 
  "/>
<polyline clip-path="url(#clip420)" style="stroke:#000000; stroke-width:4; stroke-opacity:1; fill:none" points="
  1726.91,1359.82 1726.91,1344.07 
  "/>
<polyline clip-path="url(#clip420)" style="stroke:#000000; stroke-width:4; stroke-opacity:1; fill:none" points="
  2199.99,1359.82 2199.99,1344.07 
  "/>
<polyline clip-path="url(#clip420)" style="stroke:#000000; stroke-width:4; stroke-opacity:1; fill:none" points="
  250.92,1322.67 274.99,1322.67 
  "/>
<polyline clip-path="url(#clip420)" style="stroke:#000000; stroke-width:4; stroke-opacity:1; fill:none" points="
  250.92,1009.97 274.99,1009.97 
  "/>
<polyline clip-path="url(#clip420)" style="stroke:#000000; stroke-width:4; stroke-opacity:1; fill:none" points="
  250.92,697.278 274.99,697.278 
  "/>
<polyline clip-path="url(#clip420)" style="stroke:#000000; stroke-width:4; stroke-opacity:1; fill:none" points="
  250.92,384.581 274.99,384.581 
  "/>
<polyline clip-path="url(#clip420)" style="stroke:#000000; stroke-width:4; stroke-opacity:1; fill:none" points="
  250.92,71.8846 274.99,71.8846 
  "/>
<path clip-path="url(#clip420)" d="M 0 0 M307.689 1381.33 Q304.078 1381.33 302.249 1384.9 Q300.444 1388.44 300.444 1395.57 Q300.444 1402.67 302.249 1406.24 Q304.078 1409.78 307.689 1409.78 Q311.323 1409.78 313.129 1406.24 Q314.957 1402.67 314.957 1395.57 Q314.957 1388.44 313.129 1384.9 Q311.323 1381.33 307.689 1381.33 M307.689 1377.63 Q313.499 1377.63 316.555 1382.23 Q319.633 1386.82 319.633 1395.57 Q319.633 1404.29 316.555 1408.9 Q313.499 1413.48 307.689 1413.48 Q301.879 1413.48 298.8 1408.9 Q295.745 1404.29 295.745 1395.57 Q295.745 1386.82 298.8 1382.23 Q301.879 1377.63 307.689 1377.63 Z" fill="#000000" fill-rule="evenodd" fill-opacity="1" /><path clip-path="url(#clip420)" d="M 0 0 M757.639 1408.88 L765.277 1408.88 L765.277 1382.51 L756.967 1384.18 L756.967 1379.92 L765.231 1378.25 L769.907 1378.25 L769.907 1408.88 L777.546 1408.88 L777.546 1412.81 L757.639 1412.81 L757.639 1408.88 Z" fill="#000000" fill-rule="evenodd" fill-opacity="1" /><path clip-path="url(#clip420)" d="M 0 0 M792.615 1381.33 Q789.004 1381.33 787.175 1384.9 Q785.37 1388.44 785.37 1395.57 Q785.37 1402.67 787.175 1406.24 Q789.004 1409.78 792.615 1409.78 Q796.249 1409.78 798.055 1406.24 Q799.884 1402.67 799.884 1395.57 Q799.884 1388.44 798.055 1384.9 Q796.249 1381.33 792.615 1381.33 M792.615 1377.63 Q798.425 1377.63 801.481 1382.23 Q804.56 1386.82 804.56 1395.57 Q804.56 1404.29 801.481 1408.9 Q798.425 1413.48 792.615 1413.48 Q786.805 1413.48 783.726 1408.9 Q780.671 1404.29 780.671 1395.57 Q780.671 1386.82 783.726 1382.23 Q786.805 1377.63 792.615 1377.63 Z" fill="#000000" fill-rule="evenodd" fill-opacity="1" /><path clip-path="url(#clip420)" d="M 0 0 M1234.98 1408.88 L1251.3 1408.88 L1251.3 1412.81 L1229.36 1412.81 L1229.36 1408.88 Q1232.02 1406.12 1236.6 1401.49 Q1241.21 1396.84 1242.39 1395.5 Q1244.64 1392.97 1245.52 1391.24 Q1246.42 1389.48 1246.42 1387.79 Q1246.42 1385.03 1244.47 1383.3 Q1242.55 1381.56 1239.45 1381.56 Q1237.25 1381.56 1234.8 1382.33 Q1232.37 1383.09 1229.59 1384.64 L1229.59 1379.92 Q1232.41 1378.78 1234.87 1378.21 Q1237.32 1377.63 1239.36 1377.63 Q1244.73 1377.63 1247.92 1380.31 Q1251.12 1383 1251.12 1387.49 Q1251.12 1389.62 1250.31 1391.54 Q1249.52 1393.44 1247.41 1396.03 Q1246.84 1396.7 1243.73 1399.92 Q1240.63 1403.11 1234.98 1408.88 Z" fill="#000000" fill-rule="evenodd" fill-opacity="1" /><path clip-path="url(#clip420)" d="M 0 0 M1266.37 1381.33 Q1262.76 1381.33 1260.93 1384.9 Q1259.13 1388.44 1259.13 1395.57 Q1259.13 1402.67 1260.93 1406.24 Q1262.76 1409.78 1266.37 1409.78 Q1270.01 1409.78 1271.81 1406.24 Q1273.64 1402.67 1273.64 1395.57 Q1273.64 1388.44 1271.81 1384.9 Q1270.01 1381.33 1266.37 1381.33 M1266.37 1377.63 Q1272.18 1377.63 1275.24 1382.23 Q1278.32 1386.82 1278.32 1395.57 Q1278.32 1404.29 1275.24 1408.9 Q1272.18 1413.48 1266.37 1413.48 Q1260.56 1413.48 1257.48 1408.9 Q1254.43 1404.29 1254.43 1395.57 Q1254.43 1386.82 1257.48 1382.23 Q1260.56 1377.63 1266.37 1377.63 Z" fill="#000000" fill-rule="evenodd" fill-opacity="1" /><path clip-path="url(#clip420)" d="M 0 0 M1717.65 1394.18 Q1721.01 1394.9 1722.88 1397.16 Q1724.78 1399.43 1724.78 1402.77 Q1724.78 1407.88 1721.26 1410.68 Q1717.75 1413.48 1711.26 1413.48 Q1709.09 1413.48 1706.77 1413.04 Q1704.48 1412.63 1702.03 1411.77 L1702.03 1407.26 Q1703.97 1408.39 1706.29 1408.97 Q1708.6 1409.55 1711.13 1409.55 Q1715.52 1409.55 1717.82 1407.81 Q1720.13 1406.08 1720.13 1402.77 Q1720.13 1399.71 1717.98 1398 Q1715.85 1396.26 1712.03 1396.26 L1708 1396.26 L1708 1392.42 L1712.21 1392.42 Q1715.66 1392.42 1717.49 1391.05 Q1719.32 1389.66 1719.32 1387.07 Q1719.32 1384.41 1717.42 1383 Q1715.55 1381.56 1712.03 1381.56 Q1710.11 1381.56 1707.91 1381.98 Q1705.71 1382.4 1703.07 1383.27 L1703.07 1379.11 Q1705.73 1378.37 1708.05 1378 Q1710.38 1377.63 1712.44 1377.63 Q1717.77 1377.63 1720.87 1380.06 Q1723.97 1382.46 1723.97 1386.59 Q1723.97 1389.46 1722.33 1391.45 Q1720.69 1393.41 1717.65 1394.18 Z" fill="#000000" fill-rule="evenodd" fill-opacity="1" /><path clip-path="url(#clip420)" d="M 0 0 M1739.85 1381.33 Q1736.24 1381.33 1734.41 1384.9 Q1732.61 1388.44 1732.61 1395.57 Q1732.61 1402.67 1734.41 1406.24 Q1736.24 1409.78 1739.85 1409.78 Q1743.49 1409.78 1745.29 1406.24 Q1747.12 1402.67 1747.12 1395.57 Q1747.12 1388.44 1745.29 1384.9 Q1743.49 1381.33 1739.85 1381.33 M1739.85 1377.63 Q1745.66 1377.63 1748.72 1382.23 Q1751.8 1386.82 1751.8 1395.57 Q1751.8 1404.29 1748.72 1408.9 Q1745.66 1413.48 1739.85 1413.48 Q1734.04 1413.48 1730.96 1408.9 Q1727.91 1404.29 1727.91 1395.57 Q1727.91 1386.82 1730.96 1382.23 Q1734.04 1377.63 1739.85 1377.63 Z" fill="#000000" fill-rule="evenodd" fill-opacity="1" /><path clip-path="url(#clip420)" d="M 0 0 M2189.49 1382.33 L2177.68 1400.77 L2189.49 1400.77 L2189.49 1382.33 M2188.26 1378.25 L2194.14 1378.25 L2194.14 1400.77 L2199.07 1400.77 L2199.07 1404.66 L2194.14 1404.66 L2194.14 1412.81 L2189.49 1412.81 L2189.49 1404.66 L2173.89 1404.66 L2173.89 1400.15 L2188.26 1378.25 Z" fill="#000000" fill-rule="evenodd" fill-opacity="1" /><path clip-path="url(#clip420)" d="M 0 0 M2214.14 1381.33 Q2210.53 1381.33 2208.7 1384.9 Q2206.9 1388.44 2206.9 1395.57 Q2206.9 1402.67 2208.7 1406.24 Q2210.53 1409.78 2214.14 1409.78 Q2217.78 1409.78 2219.58 1406.24 Q2221.41 1402.67 2221.41 1395.57 Q2221.41 1388.44 2219.58 1384.9 Q2217.78 1381.33 2214.14 1381.33 M2214.14 1377.63 Q2219.95 1377.63 2223.01 1382.23 Q2226.09 1386.82 2226.09 1395.57 Q2226.09 1404.29 2223.01 1408.9 Q2219.95 1413.48 2214.14 1413.48 Q2208.33 1413.48 2205.25 1408.9 Q2202.2 1404.29 2202.2 1395.57 Q2202.2 1386.82 2205.25 1382.23 Q2208.33 1377.63 2214.14 1377.63 Z" fill="#000000" fill-rule="evenodd" fill-opacity="1" /><path clip-path="url(#clip420)" d="M 0 0 M215.936 1308.47 Q212.325 1308.47 210.496 1312.03 Q208.69 1315.58 208.69 1322.71 Q208.69 1329.81 210.496 1333.38 Q212.325 1336.92 215.936 1336.92 Q219.57 1336.92 221.375 1333.38 Q223.204 1329.81 223.204 1322.71 Q223.204 1315.58 221.375 1312.03 Q219.57 1308.47 215.936 1308.47 M215.936 1304.77 Q221.746 1304.77 224.801 1309.37 Q227.88 1313.96 227.88 1322.71 Q227.88 1331.43 224.801 1336.04 Q221.746 1340.62 215.936 1340.62 Q210.125 1340.62 207.047 1336.04 Q203.991 1331.43 203.991 1322.71 Q203.991 1313.96 207.047 1309.37 Q210.125 1304.77 215.936 1304.77 Z" fill="#000000" fill-rule="evenodd" fill-opacity="1" /><path clip-path="url(#clip420)" d="M 0 0 M158.529 1023.32 L174.848 1023.32 L174.848 1027.25 L152.904 1027.25 L152.904 1023.32 Q155.566 1020.56 160.149 1015.94 Q164.755 1011.28 165.936 1009.94 Q168.181 1007.42 169.061 1005.68 Q169.964 1003.92 169.964 1002.23 Q169.964 999.477 168.019 997.741 Q166.098 996.005 162.996 996.005 Q160.797 996.005 158.343 996.769 Q155.913 997.533 153.135 999.084 L153.135 994.361 Q155.959 993.227 158.413 992.648 Q160.866 992.07 162.903 992.07 Q168.274 992.07 171.468 994.755 Q174.663 997.44 174.663 1001.93 Q174.663 1004.06 173.852 1005.98 Q173.065 1007.88 170.959 1010.47 Q170.38 1011.14 167.278 1014.36 Q164.177 1017.56 158.529 1023.32 Z" fill="#000000" fill-rule="evenodd" fill-opacity="1" /><path clip-path="url(#clip420)" d="M 0 0 M179.964 992.695 L198.32 992.695 L198.32 996.63 L184.246 996.63 L184.246 1005.1 Q185.264 1004.75 186.283 1004.59 Q187.301 1004.41 188.32 1004.41 Q194.107 1004.41 197.487 1007.58 Q200.866 1010.75 200.866 1016.17 Q200.866 1021.75 197.394 1024.85 Q193.922 1027.93 187.602 1027.93 Q185.427 1027.93 183.158 1027.56 Q180.913 1027.19 178.505 1026.44 L178.505 1021.75 Q180.589 1022.88 182.811 1023.44 Q185.033 1023.99 187.51 1023.99 Q191.514 1023.99 193.852 1021.88 Q196.19 1019.78 196.19 1016.17 Q196.19 1012.56 193.852 1010.45 Q191.514 1008.34 187.51 1008.34 Q185.635 1008.34 183.76 1008.76 Q181.908 1009.18 179.964 1010.06 L179.964 992.695 Z" fill="#000000" fill-rule="evenodd" fill-opacity="1" /><path clip-path="url(#clip420)" d="M 0 0 M215.936 995.773 Q212.325 995.773 210.496 999.338 Q208.69 1002.88 208.69 1010.01 Q208.69 1017.12 210.496 1020.68 Q212.325 1024.22 215.936 1024.22 Q219.57 1024.22 221.375 1020.68 Q223.204 1017.12 223.204 1010.01 Q223.204 1002.88 221.375 999.338 Q219.57 995.773 215.936 995.773 M215.936 992.07 Q221.746 992.07 224.801 996.676 Q227.88 1001.26 227.88 1010.01 Q227.88 1018.74 224.801 1023.34 Q221.746 1027.93 215.936 1027.93 Q210.125 1027.93 207.047 1023.34 Q203.991 1018.74 203.991 1010.01 Q203.991 1001.26 207.047 996.676 Q210.125 992.07 215.936 992.07 Z" fill="#000000" fill-rule="evenodd" fill-opacity="1" /><path clip-path="url(#clip420)" d="M 0 0 M152.95 679.998 L171.306 679.998 L171.306 683.933 L157.232 683.933 L157.232 692.405 Q158.251 692.058 159.269 691.896 Q160.288 691.711 161.306 691.711 Q167.093 691.711 170.473 694.882 Q173.852 698.053 173.852 703.47 Q173.852 709.049 170.38 712.151 Q166.908 715.229 160.589 715.229 Q158.413 715.229 156.144 714.859 Q153.899 714.489 151.492 713.748 L151.492 709.049 Q153.575 710.183 155.797 710.739 Q158.019 711.294 160.496 711.294 Q164.501 711.294 166.839 709.188 Q169.177 707.081 169.177 703.47 Q169.177 699.859 166.839 697.753 Q164.501 695.646 160.496 695.646 Q158.621 695.646 156.746 696.063 Q154.894 696.479 152.95 697.359 L152.95 679.998 Z" fill="#000000" fill-rule="evenodd" fill-opacity="1" /><path clip-path="url(#clip420)" d="M 0 0 M188.922 683.077 Q185.311 683.077 183.482 686.642 Q181.677 690.183 181.677 697.313 Q181.677 704.419 183.482 707.984 Q185.311 711.526 188.922 711.526 Q192.556 711.526 194.362 707.984 Q196.19 704.419 196.19 697.313 Q196.19 690.183 194.362 686.642 Q192.556 683.077 188.922 683.077 M188.922 679.373 Q194.732 679.373 197.788 683.979 Q200.866 688.563 200.866 697.313 Q200.866 706.04 197.788 710.646 Q194.732 715.229 188.922 715.229 Q183.112 715.229 180.033 710.646 Q176.977 706.04 176.977 697.313 Q176.977 688.563 180.033 683.979 Q183.112 679.373 188.922 679.373 Z" fill="#000000" fill-rule="evenodd" fill-opacity="1" /><path clip-path="url(#clip420)" d="M 0 0 M215.936 683.077 Q212.325 683.077 210.496 686.642 Q208.69 690.183 208.69 697.313 Q208.69 704.419 210.496 707.984 Q212.325 711.526 215.936 711.526 Q219.57 711.526 221.375 707.984 Q223.204 704.419 223.204 697.313 Q223.204 690.183 221.375 686.642 Q219.57 683.077 215.936 683.077 M215.936 679.373 Q221.746 679.373 224.801 683.979 Q227.88 688.563 227.88 697.313 Q227.88 706.04 224.801 710.646 Q221.746 715.229 215.936 715.229 Q210.125 715.229 207.047 710.646 Q203.991 706.04 203.991 697.313 Q203.991 688.563 207.047 683.979 Q210.125 679.373 215.936 679.373 Z" fill="#000000" fill-rule="evenodd" fill-opacity="1" /><path clip-path="url(#clip420)" d="M 0 0 M152.626 367.301 L174.848 367.301 L174.848 369.292 L162.302 401.861 L157.417 401.861 L169.223 371.236 L152.626 371.236 L152.626 367.301 Z" fill="#000000" fill-rule="evenodd" fill-opacity="1" /><path clip-path="url(#clip420)" d="M 0 0 M179.964 367.301 L198.32 367.301 L198.32 371.236 L184.246 371.236 L184.246 379.709 Q185.264 379.361 186.283 379.199 Q187.301 379.014 188.32 379.014 Q194.107 379.014 197.487 382.185 Q200.866 385.357 200.866 390.773 Q200.866 396.352 197.394 399.454 Q193.922 402.533 187.602 402.533 Q185.427 402.533 183.158 402.162 Q180.913 401.792 178.505 401.051 L178.505 396.352 Q180.589 397.486 182.811 398.042 Q185.033 398.597 187.51 398.597 Q191.514 398.597 193.852 396.491 Q196.19 394.385 196.19 390.773 Q196.19 387.162 193.852 385.056 Q191.514 382.949 187.51 382.949 Q185.635 382.949 183.76 383.366 Q181.908 383.783 179.964 384.662 L179.964 367.301 Z" fill="#000000" fill-rule="evenodd" fill-opacity="1" /><path clip-path="url(#clip420)" d="M 0 0 M215.936 370.38 Q212.325 370.38 210.496 373.945 Q208.69 377.486 208.69 384.616 Q208.69 391.722 210.496 395.287 Q212.325 398.829 215.936 398.829 Q219.57 398.829 221.375 395.287 Q223.204 391.722 223.204 384.616 Q223.204 377.486 221.375 373.945 Q219.57 370.38 215.936 370.38 M215.936 366.676 Q221.746 366.676 224.801 371.283 Q227.88 375.866 227.88 384.616 Q227.88 393.343 224.801 397.949 Q221.746 402.533 215.936 402.533 Q210.125 402.533 207.047 397.949 Q203.991 393.343 203.991 384.616 Q203.991 375.866 207.047 371.283 Q210.125 366.676 215.936 366.676 Z" fill="#000000" fill-rule="evenodd" fill-opacity="1" /><path clip-path="url(#clip420)" d="M 0 0 M126.931 85.2294 L134.57 85.2294 L134.57 58.8638 L126.26 60.5305 L126.26 56.2713 L134.524 54.6046 L139.2 54.6046 L139.2 85.2294 L146.839 85.2294 L146.839 89.1646 L126.931 89.1646 L126.931 85.2294 Z" fill="#000000" fill-rule="evenodd" fill-opacity="1" /><path clip-path="url(#clip420)" d="M 0 0 M161.908 57.6833 Q158.297 57.6833 156.468 61.2481 Q154.663 64.7897 154.663 71.9193 Q154.663 79.0258 156.468 82.5906 Q158.297 86.1322 161.908 86.1322 Q165.542 86.1322 167.348 82.5906 Q169.177 79.0258 169.177 71.9193 Q169.177 64.7897 167.348 61.2481 Q165.542 57.6833 161.908 57.6833 M161.908 53.9796 Q167.718 53.9796 170.774 58.5861 Q173.852 63.1694 173.852 71.9193 Q173.852 80.6461 170.774 85.2526 Q167.718 89.8359 161.908 89.8359 Q156.098 89.8359 153.019 85.2526 Q149.964 80.6461 149.964 71.9193 Q149.964 63.1694 153.019 58.5861 Q156.098 53.9796 161.908 53.9796 Z" fill="#000000" fill-rule="evenodd" fill-opacity="1" /><path clip-path="url(#clip420)" d="M 0 0 M188.922 57.6833 Q185.311 57.6833 183.482 61.2481 Q181.677 64.7897 181.677 71.9193 Q181.677 79.0258 183.482 82.5906 Q185.311 86.1322 188.922 86.1322 Q192.556 86.1322 194.362 82.5906 Q196.19 79.0258 196.19 71.9193 Q196.19 64.7897 194.362 61.2481 Q192.556 57.6833 188.922 57.6833 M188.922 53.9796 Q194.732 53.9796 197.788 58.5861 Q200.866 63.1694 200.866 71.9193 Q200.866 80.6461 197.788 85.2526 Q194.732 89.8359 188.922 89.8359 Q183.112 89.8359 180.033 85.2526 Q176.977 80.6461 176.977 71.9193 Q176.977 63.1694 180.033 58.5861 Q183.112 53.9796 188.922 53.9796 Z" fill="#000000" fill-rule="evenodd" fill-opacity="1" /><path clip-path="url(#clip420)" d="M 0 0 M215.936 57.6833 Q212.325 57.6833 210.496 61.2481 Q208.69 64.7897 208.69 71.9193 Q208.69 79.0258 210.496 82.5906 Q212.325 86.1322 215.936 86.1322 Q219.57 86.1322 221.375 82.5906 Q223.204 79.0258 223.204 71.9193 Q223.204 64.7897 221.375 61.2481 Q219.57 57.6833 215.936 57.6833 M215.936 53.9796 Q221.746 53.9796 224.801 58.5861 Q227.88 63.1694 227.88 71.9193 Q227.88 80.6461 224.801 85.2526 Q221.746 89.8359 215.936 89.8359 Q210.125 89.8359 207.047 85.2526 Q203.991 80.6461 203.991 71.9193 Q203.991 63.1694 207.047 58.5861 Q210.125 53.9796 215.936 53.9796 Z" fill="#000000" fill-rule="evenodd" fill-opacity="1" /><path clip-path="url(#clip420)" d="M 0 0 M1181.44 1444.2 L1221.64 1444.2 L1221.64 1449.61 L1204.77 1449.61 L1204.77 1491.72 L1198.31 1491.72 L1198.31 1449.61 L1181.44 1449.61 L1181.44 1444.2 Z" fill="#000000" fill-rule="evenodd" fill-opacity="1" /><path clip-path="url(#clip420)" d="M 0 0 M1225.78 1456.08 L1231.64 1456.08 L1231.64 1491.72 L1225.78 1491.72 L1225.78 1456.08 M1225.78 1442.2 L1231.64 1442.2 L1231.64 1449.61 L1225.78 1449.61 L1225.78 1442.2 Z" fill="#000000" fill-rule="evenodd" fill-opacity="1" /><path clip-path="url(#clip420)" d="M 0 0 M1265.53 1462.92 Q1267.73 1458.97 1270.79 1457.09 Q1273.84 1455.22 1277.98 1455.22 Q1283.55 1455.22 1286.57 1459.13 Q1289.6 1463.01 1289.6 1470.21 L1289.6 1491.72 L1283.71 1491.72 L1283.71 1470.4 Q1283.71 1465.27 1281.89 1462.79 Q1280.08 1460.31 1276.36 1460.31 Q1271.81 1460.31 1269.16 1463.33 Q1266.52 1466.36 1266.52 1471.58 L1266.52 1491.72 L1260.63 1491.72 L1260.63 1470.4 Q1260.63 1465.24 1258.82 1462.79 Q1257 1460.31 1253.22 1460.31 Q1248.73 1460.31 1246.09 1463.36 Q1243.45 1466.39 1243.45 1471.58 L1243.45 1491.72 L1237.56 1491.72 L1237.56 1456.08 L1243.45 1456.08 L1243.45 1461.61 Q1245.45 1458.34 1248.25 1456.78 Q1251.05 1455.22 1254.9 1455.22 Q1258.79 1455.22 1261.49 1457.19 Q1264.23 1459.16 1265.53 1462.92 Z" fill="#000000" fill-rule="evenodd" fill-opacity="1" /><path clip-path="url(#clip420)" d="M 0 0 M1326.23 1472.44 L1326.23 1475.3 L1299.31 1475.3 Q1299.69 1481.35 1302.93 1484.53 Q1306.21 1487.68 1312.04 1487.68 Q1315.41 1487.68 1318.56 1486.85 Q1321.74 1486.03 1324.86 1484.37 L1324.86 1489.91 Q1321.71 1491.25 1318.4 1491.95 Q1315.09 1492.65 1311.69 1492.65 Q1303.16 1492.65 1298.16 1487.68 Q1293.19 1482.72 1293.19 1474.25 Q1293.19 1465.5 1297.9 1460.37 Q1302.65 1455.22 1310.67 1455.22 Q1317.86 1455.22 1322.03 1459.86 Q1326.23 1464.48 1326.23 1472.44 M1320.38 1470.72 Q1320.31 1465.91 1317.67 1463.05 Q1315.06 1460.18 1310.73 1460.18 Q1305.83 1460.18 1302.87 1462.95 Q1299.94 1465.72 1299.5 1470.75 L1320.38 1470.72 Z" fill="#000000" fill-rule="evenodd" fill-opacity="1" /><path clip-path="url(#clip420)" d="M 0 0 M41.4442 818.815 L41.4442 810.158 L81.198 789.087 L41.4442 789.087 L41.4442 782.849 L88.9642 782.849 L88.9642 791.506 L49.2103 812.577 L88.9642 812.577 L88.9642 818.815 L41.4442 818.815 Z" fill="#000000" fill-rule="evenodd" fill-opacity="1" /><path clip-path="url(#clip420)" d="M 0 0 M74.8959 777.311 L53.3162 777.311 L53.3162 771.454 L74.6731 771.454 Q79.7339 771.454 82.2802 769.481 Q84.7946 767.507 84.7946 763.561 Q84.7946 758.818 81.7709 756.081 Q78.7472 753.312 73.5273 753.312 L53.3162 753.312 L53.3162 747.455 L88.9642 747.455 L88.9642 753.312 L83.4896 753.312 Q86.7362 755.444 88.3276 758.277 Q89.8872 761.078 89.8872 764.802 Q89.8872 770.945 86.0678 774.128 Q82.2483 777.311 74.8959 777.311 M52.4568 762.574 L52.4568 762.574 Z" fill="#000000" fill-rule="evenodd" fill-opacity="1" /><path clip-path="url(#clip420)" d="M 0 0 M60.1593 713.558 Q56.2126 711.362 54.3347 708.306 Q52.4568 705.251 52.4568 701.113 Q52.4568 695.543 56.3717 692.519 Q60.2548 689.496 67.4481 689.496 L88.9642 689.496 L88.9642 695.384 L67.639 695.384 Q62.5146 695.384 60.032 697.198 Q57.5494 699.012 57.5494 702.736 Q57.5494 707.288 60.5731 709.93 Q63.5968 712.571 68.8167 712.571 L88.9642 712.571 L88.9642 718.46 L67.639 718.46 Q62.4828 718.46 60.032 720.274 Q57.5494 722.088 57.5494 725.876 Q57.5494 730.363 60.6049 733.005 Q63.6286 735.647 68.8167 735.647 L88.9642 735.647 L88.9642 741.535 L53.3162 741.535 L53.3162 735.647 L58.8544 735.647 Q55.576 733.642 54.0164 730.841 Q52.4568 728.04 52.4568 724.189 Q52.4568 720.306 54.4302 717.6 Q56.4036 714.863 60.1593 713.558 Z" fill="#000000" fill-rule="evenodd" fill-opacity="1" /><path clip-path="url(#clip420)" d="M 0 0 M71.172 657.763 Q64.7108 657.763 61.0505 660.436 Q57.3584 663.078 57.3584 667.725 Q57.3584 672.372 61.0505 675.045 Q64.7108 677.687 71.172 677.687 Q77.6332 677.687 81.3253 675.045 Q84.9856 672.372 84.9856 667.725 Q84.9856 663.078 81.3253 660.436 Q77.6332 657.763 71.172 657.763 M58.7271 677.687 Q55.5442 675.841 54.0164 673.04 Q52.4568 670.207 52.4568 666.293 Q52.4568 659.8 57.6131 655.757 Q62.7693 651.683 71.172 651.683 Q79.5747 651.683 84.731 655.757 Q89.8872 659.8 89.8872 666.293 Q89.8872 670.207 88.3594 673.04 Q86.7998 675.841 83.617 677.687 L88.9642 677.687 L88.9642 683.575 L39.439 683.575 L39.439 677.687 L58.7271 677.687 Z" fill="#000000" fill-rule="evenodd" fill-opacity="1" /><path clip-path="url(#clip420)" d="M 0 0 M69.6761 615.049 L72.5406 615.049 L72.5406 641.976 Q78.5881 641.594 81.7709 638.347 Q84.9219 635.069 84.9219 629.244 Q84.9219 625.87 84.0944 622.719 Q83.2669 619.536 81.6118 616.417 L87.1499 616.417 Q88.4867 619.568 89.187 622.878 Q89.8872 626.189 89.8872 629.594 Q89.8872 638.124 84.9219 643.121 Q79.9567 648.087 71.4903 648.087 Q62.7374 648.087 57.6131 643.376 Q52.4568 638.634 52.4568 630.613 Q52.4568 623.42 57.1038 619.25 Q61.7189 615.049 69.6761 615.049 M67.9573 620.905 Q63.1512 620.969 60.2866 623.611 Q57.4221 626.22 57.4221 630.549 Q57.4221 635.451 60.1912 638.411 Q62.9602 641.339 67.9892 641.785 L67.9573 620.905 Z" fill="#000000" fill-rule="evenodd" fill-opacity="1" /><path clip-path="url(#clip420)" d="M 0 0 M58.7907 588.249 Q58.2178 589.236 57.9632 590.413 Q57.6767 591.559 57.6767 592.96 Q57.6767 597.925 60.9232 600.598 Q64.1379 603.24 70.1853 603.24 L88.9642 603.24 L88.9642 609.129 L53.3162 609.129 L53.3162 603.24 L58.8544 603.24 Q55.6079 601.394 54.0483 598.434 Q52.4568 595.474 52.4568 591.241 Q52.4568 590.636 52.5523 589.904 Q52.616 589.172 52.7751 588.281 L58.7907 588.249 Z" fill="#000000" fill-rule="evenodd" fill-opacity="1" /><polyline clip-path="url(#clip422)" style="stroke:#009af9; stroke-width:4; stroke-opacity:1; fill:none" points="
  307.689,84.3925 312.42,85.0114 317.15,85.6455 321.881,86.2948 326.612,86.9599 331.343,87.6411 336.073,88.3387 340.804,89.0531 345.535,89.7847 350.266,90.5338 
  354.996,91.3009 359.727,92.0863 364.458,92.8904 369.189,93.7137 373.919,94.5565 378.65,95.4194 383.381,96.3026 388.112,97.2067 392.842,98.1321 397.573,99.0792 
  402.304,100.049 407.035,101.041 411.765,102.056 416.496,103.094 421.227,104.157 425.958,105.245 430.688,106.357 435.419,107.495 440.15,108.66 444.881,109.85 
  449.611,111.068 454.342,112.314 459.073,113.588 463.804,114.891 468.534,116.223 473.265,117.584 477.996,118.977 482.726,120.4 487.457,121.855 492.188,123.342 
  496.919,124.861 501.649,126.414 506.38,128.001 511.111,129.623 515.842,131.279 520.572,132.971 525.303,134.699 530.034,136.465 534.765,138.267 539.495,140.108 
  544.226,141.987 548.957,143.906 553.688,145.865 558.418,147.864 563.149,149.904 567.88,151.986 572.611,154.11 577.341,156.277 582.072,158.488 586.803,160.742 
  591.534,163.041 596.264,165.386 600.995,167.776 605.726,170.213 610.457,172.696 615.187,175.227 619.918,177.806 624.649,180.434 629.38,183.11 634.11,185.836 
  638.841,188.612 643.572,191.438 648.303,194.316 653.033,197.244 657.764,200.225 662.495,203.258 667.226,206.343 671.956,209.481 676.687,212.673 681.418,215.918 
  686.149,219.217 690.879,222.57 695.61,225.977 700.341,229.44 705.072,232.957 709.802,236.529 714.533,240.156 719.264,243.838 723.994,247.575 728.725,251.368 
  733.456,255.217 738.187,259.12 742.917,263.079 747.648,267.093 752.379,271.162 757.11,275.285 761.84,279.463 766.571,283.696 771.302,287.983 776.033,292.323 
  780.763,296.716 785.494,301.163 790.225,305.662 794.956,310.213 799.686,314.815 804.417,319.468 809.148,324.171 813.879,328.924 818.609,333.726 823.34,338.575 
  828.071,343.472 832.802,348.415 837.532,353.403 842.263,358.437 846.994,363.513 851.725,368.632 856.455,373.793 861.186,378.994 865.917,384.234 870.648,389.513 
  875.378,394.828 880.109,400.179 884.84,405.564 889.571,410.982 894.301,416.432 899.032,421.912 903.763,427.422 908.494,432.958 913.224,438.521 917.955,444.108 
  922.686,449.718 927.417,455.35 932.147,461.002 936.878,466.672 941.609,472.359 946.34,478.061 951.07,483.777 955.801,489.505 960.532,495.243 965.262,500.99 
  969.993,506.744 974.724,512.503 979.455,518.267 984.185,524.032 988.916,529.798 993.647,535.564 998.378,541.326 1003.11,547.084 1007.84,552.837 1012.57,558.582 
  1017.3,564.318 1022.03,570.044 1026.76,575.757 1031.49,581.457 1036.22,587.142 1040.95,592.811 1045.69,598.462 1050.42,604.093 1055.15,609.703 1059.88,615.292 
  1064.61,620.857 1069.34,626.398 1074.07,631.912 1078.8,637.4 1083.53,642.859 1088.26,648.288 1092.99,653.687 1097.72,659.054 1102.45,664.389 1107.18,669.69 
  1111.92,674.956 1116.65,680.186 1121.38,685.38 1126.11,690.536 1130.84,695.654 1135.57,700.733 1140.3,705.773 1145.03,710.772 1149.76,715.729 1154.49,720.645 
  1159.22,725.519 1163.95,730.349 1168.68,735.136 1173.42,739.88 1178.15,744.579 1182.88,749.233 1187.61,753.842 1192.34,758.405 1197.07,762.923 1201.8,767.394 
  1206.53,771.819 1211.26,776.198 1215.99,780.53 1220.72,784.815 1225.45,789.053 1230.18,793.243 1234.91,797.387 1239.65,801.484 1244.38,805.533 1249.11,809.535 
  1253.84,813.49 1258.57,817.397 1263.3,821.258 1268.03,825.072 1272.76,828.839 1277.49,832.559 1282.22,836.233 1286.95,839.86 1291.68,843.442 1296.41,846.977 
  1301.15,850.467 1305.88,853.911 1310.61,857.31 1315.34,860.665 1320.07,863.974 1324.8,867.24 1329.53,870.461 1334.26,873.639 1338.99,876.773 1343.72,879.864 
  1348.45,882.913 1353.18,885.92 1357.91,888.884 1362.65,891.808 1367.38,894.69 1372.11,897.531 1376.84,900.332 1381.57,903.093 1386.3,905.814 1391.03,908.496 
  1395.76,911.14 1400.49,913.745 1405.22,916.312 1409.95,918.842 1414.68,921.335 1419.41,923.791 1424.14,926.211 1428.88,928.596 1433.61,930.944 1438.34,933.258 
  1443.07,935.538 1447.8,937.783 1452.53,939.995 1457.26,942.174 1461.99,944.32 1466.72,946.433 1471.45,948.514 1476.18,950.564 1480.91,952.583 1485.64,954.571 
  1490.38,956.529 1495.11,958.457 1499.84,960.356 1504.57,962.226 1509.3,964.066 1514.03,965.879 1518.76,967.664 1523.49,969.421 1528.22,971.151 1532.95,972.855 
  1537.68,974.532 1542.41,976.183 1547.14,977.809 1551.87,979.41 1556.61,980.986 1561.34,982.537 1566.07,984.064 1570.8,985.568 1575.53,987.048 1580.26,988.505 
  1584.99,989.939 1589.72,991.351 1594.45,992.741 1599.18,994.11 1603.91,995.457 1608.64,996.783 1613.37,998.088 1618.11,999.373 1622.84,1000.64 1627.57,1001.88 
  1632.3,1003.11 1637.03,1004.31 1641.76,1005.5 1646.49,1006.67 1651.22,1007.82 1655.95,1008.95 1660.68,1010.07 1665.41,1011.17 1670.14,1012.25 1674.87,1013.31 
  1679.61,1014.36 1684.34,1015.39 1689.07,1016.4 1693.8,1017.4 1698.53,1018.38 1703.26,1019.35 1707.99,1020.3 1712.72,1021.24 1717.45,1022.16 1722.18,1023.07 
  1726.91,1023.96 1731.64,1024.84 1736.37,1025.71 1741.1,1026.56 1745.84,1027.4 1750.57,1028.23 1755.3,1029.04 1760.03,1029.84 1764.76,1030.63 1769.49,1031.4 
  1774.22,1032.17 1778.95,1032.92 1783.68,1033.66 1788.41,1034.39 1793.14,1035.1 1797.87,1035.81 1802.6,1036.5 1807.34,1037.19 1812.07,1037.86 1816.8,1038.52 
  1821.53,1039.17 1826.26,1039.82 1830.99,1040.45 1835.72,1041.07 1840.45,1041.68 1845.18,1042.29 1849.91,1042.88 1854.64,1043.46 1859.37,1044.04 1864.1,1044.6 
  1868.83,1045.16 1873.57,1045.71 1878.3,1046.25 1883.03,1046.78 1887.76,1047.31 1892.49,1047.82 1897.22,1048.33 1901.95,1048.83 1906.68,1049.32 1911.41,1049.81 
  1916.14,1050.28 1920.87,1050.75 1925.6,1051.21 1930.33,1051.67 1935.07,1052.12 1939.8,1052.56 1944.53,1052.99 1949.26,1053.42 1953.99,1053.84 1958.72,1054.25 
  1963.45,1054.66 1968.18,1055.06 1972.91,1055.46 1977.64,1055.85 1982.37,1056.23 1987.1,1056.61 1991.83,1056.98 1996.56,1057.35 2001.3,1057.71 2006.03,1058.06 
  2010.76,1058.41 2015.49,1058.75 2020.22,1059.09 2024.95,1059.42 2029.68,1059.75 2034.41,1060.08 2039.14,1060.39 2043.87,1060.71 2048.6,1061.01 2053.33,1061.32 
  2058.06,1061.62 2062.8,1061.91 2067.53,1062.2 2072.26,1062.49 2076.99,1062.77 2081.72,1063.04 2086.45,1063.32 2091.18,1063.59 2095.91,1063.85 2100.64,1064.11 
  2105.37,1064.37 2110.1,1064.62 2114.83,1064.87 2119.56,1065.11 2124.3,1065.35 2129.03,1065.59 2133.76,1065.82 2138.49,1066.05 2143.22,1066.28 2147.95,1066.5 
  2152.68,1066.72 2157.41,1066.94 2162.14,1067.15 2166.87,1067.36 2171.6,1067.56 2176.33,1067.77 2181.06,1067.97 2185.79,1068.17 2190.53,1068.36 2195.26,1068.55 
  2199.99,1068.74 
  "/>
<polyline clip-path="url(#clip422)" style="stroke:#e26f46; stroke-width:4; stroke-opacity:1; fill:none" points="
  307.689,1310.16 312.42,1309.85 317.15,1309.54 321.881,1309.21 326.612,1308.88 331.343,1308.54 336.073,1308.19 340.804,1307.83 345.535,1307.47 350.266,1307.09 
  354.996,1306.71 359.727,1306.32 364.458,1305.92 369.189,1305.51 373.919,1305.09 378.65,1304.66 383.381,1304.22 388.112,1303.77 392.842,1303.32 397.573,1302.85 
  402.304,1302.37 407.035,1301.88 411.765,1301.37 416.496,1300.86 421.227,1300.34 425.958,1299.8 430.688,1299.25 435.419,1298.69 440.15,1298.12 444.881,1297.54 
  449.611,1296.94 454.342,1296.33 459.073,1295.7 463.804,1295.07 468.534,1294.42 473.265,1293.75 477.996,1293.08 482.726,1292.38 487.457,1291.68 492.188,1290.95 
  496.919,1290.22 501.649,1289.47 506.38,1288.7 511.111,1287.92 515.842,1287.12 520.572,1286.3 525.303,1285.47 530.034,1284.63 534.765,1283.76 539.495,1282.88 
  544.226,1281.99 548.957,1281.07 553.688,1280.14 558.418,1279.19 563.149,1278.22 567.88,1277.24 572.611,1276.24 577.341,1275.22 582.072,1274.18 586.803,1273.12 
  591.534,1272.05 596.264,1270.95 600.995,1269.84 605.726,1268.71 610.457,1267.55 615.187,1266.38 619.918,1265.19 624.649,1263.99 629.38,1262.76 634.11,1261.51 
  638.841,1260.25 643.572,1258.96 648.303,1257.66 653.033,1256.33 657.764,1254.99 662.495,1253.63 667.226,1252.25 671.956,1250.85 676.687,1249.43 681.418,1247.99 
  686.149,1246.54 690.879,1245.07 695.61,1243.57 700.341,1242.06 705.072,1240.54 709.802,1238.99 714.533,1237.43 719.264,1235.86 723.994,1234.26 728.725,1232.65 
  733.456,1231.03 738.187,1229.38 742.917,1227.73 747.648,1226.06 752.379,1224.38 757.11,1222.68 761.84,1220.97 766.571,1219.25 771.302,1217.52 776.033,1215.77 
  780.763,1214.02 785.494,1212.25 790.225,1210.48 794.956,1208.7 799.686,1206.91 804.417,1205.12 809.148,1203.32 813.879,1201.51 818.609,1199.7 823.34,1197.89 
  828.071,1196.07 832.802,1194.25 837.532,1192.44 842.263,1190.62 846.994,1188.8 851.725,1186.99 856.455,1185.18 861.186,1183.37 865.917,1181.57 870.648,1179.78 
  875.378,1177.99 880.109,1176.21 884.84,1174.44 889.571,1172.68 894.301,1170.94 899.032,1169.2 903.763,1167.48 908.494,1165.78 913.224,1164.09 917.955,1162.42 
  922.686,1160.76 927.417,1159.13 932.147,1157.51 936.878,1155.92 941.609,1154.35 946.34,1152.81 951.07,1151.28 955.801,1149.79 960.532,1148.32 965.262,1146.88 
  969.993,1145.46 974.724,1144.08 979.455,1142.72 984.185,1141.4 988.916,1140.11 993.647,1138.85 998.378,1137.63 1003.11,1136.44 1007.84,1135.29 1012.57,1134.17 
  1017.3,1133.08 1022.03,1132.04 1026.76,1131.03 1031.49,1130.06 1036.22,1129.14 1040.95,1128.25 1045.69,1127.39 1050.42,1126.58 1055.15,1125.82 1059.88,1125.09 
  1064.61,1124.4 1069.34,1123.76 1074.07,1123.15 1078.8,1122.59 1083.53,1122.07 1088.26,1121.6 1092.99,1121.16 1097.72,1120.77 1102.45,1120.42 1107.18,1120.11 
  1111.92,1119.85 1116.65,1119.62 1121.38,1119.44 1126.11,1119.31 1130.84,1119.21 1135.57,1119.15 1140.3,1119.14 1145.03,1119.17 1149.76,1119.23 1154.49,1119.34 
  1159.22,1119.49 1163.95,1119.67 1168.68,1119.9 1173.42,1120.16 1178.15,1120.46 1182.88,1120.8 1187.61,1121.17 1192.34,1121.59 1197.07,1122.03 1201.8,1122.52 
  1206.53,1123.03 1211.26,1123.58 1215.99,1124.17 1220.72,1124.78 1225.45,1125.43 1230.18,1126.11 1234.91,1126.82 1239.65,1127.56 1244.38,1128.33 1249.11,1129.12 
  1253.84,1129.95 1258.57,1130.8 1263.3,1131.67 1268.03,1132.58 1272.76,1133.5 1277.49,1134.45 1282.22,1135.43 1286.95,1136.42 1291.68,1137.44 1296.41,1138.48 
  1301.15,1139.54 1305.88,1140.61 1310.61,1141.71 1315.34,1142.82 1320.07,1143.95 1324.8,1145.1 1329.53,1146.26 1334.26,1147.44 1338.99,1148.63 1343.72,1149.84 
  1348.45,1151.06 1353.18,1152.29 1357.91,1153.53 1362.65,1154.78 1367.38,1156.05 1372.11,1157.32 1376.84,1158.6 1381.57,1159.89 1386.3,1161.19 1391.03,1162.49 
  1395.76,1163.8 1400.49,1165.12 1405.22,1166.44 1409.95,1167.77 1414.68,1169.1 1419.41,1170.44 1424.14,1171.78 1428.88,1173.12 1433.61,1174.46 1438.34,1175.81 
  1443.07,1177.15 1447.8,1178.5 1452.53,1179.85 1457.26,1181.2 1461.99,1182.54 1466.72,1183.89 1471.45,1185.24 1476.18,1186.58 1480.91,1187.92 1485.64,1189.26 
  1490.38,1190.59 1495.11,1191.93 1499.84,1193.26 1504.57,1194.58 1509.3,1195.9 1514.03,1197.22 1518.76,1198.53 1523.49,1199.84 1528.22,1201.14 1532.95,1202.44 
  1537.68,1203.73 1542.41,1205.02 1547.14,1206.3 1551.87,1207.57 1556.61,1208.84 1561.34,1210.1 1566.07,1211.35 1570.8,1212.59 1575.53,1213.83 1580.26,1215.06 
  1584.99,1216.28 1589.72,1217.5 1594.45,1218.7 1599.18,1219.9 1603.91,1221.09 1608.64,1222.28 1613.37,1223.45 1618.11,1224.61 1622.84,1225.77 1627.57,1226.92 
  1632.3,1228.06 1637.03,1229.19 1641.76,1230.31 1646.49,1231.42 1651.22,1232.52 1655.95,1233.61 1660.68,1234.7 1665.41,1235.77 1670.14,1236.84 1674.87,1237.89 
  1679.61,1238.94 1684.34,1239.98 1689.07,1241 1693.8,1242.02 1698.53,1243.03 1703.26,1244.03 1707.99,1245.02 1712.72,1246 1717.45,1246.97 1722.18,1247.93 
  1726.91,1248.88 1731.64,1249.83 1736.37,1250.76 1741.1,1251.68 1745.84,1252.59 1750.57,1253.5 1755.3,1254.39 1760.03,1255.28 1764.76,1256.16 1769.49,1257.02 
  1774.22,1257.88 1778.95,1258.73 1783.68,1259.57 1788.41,1260.4 1793.14,1261.22 1797.87,1262.03 1802.6,1262.83 1807.34,1263.63 1812.07,1264.41 1816.8,1265.19 
  1821.53,1265.95 1826.26,1266.71 1830.99,1267.46 1835.72,1268.2 1840.45,1268.94 1845.18,1269.66 1849.91,1270.37 1854.64,1271.08 1859.37,1271.78 1864.1,1272.47 
  1868.83,1273.15 1873.57,1273.83 1878.3,1274.49 1883.03,1275.15 1887.76,1275.8 1892.49,1276.44 1897.22,1277.07 1901.95,1277.7 1906.68,1278.32 1911.41,1278.93 
  1916.14,1279.53 1920.87,1280.13 1925.6,1280.72 1930.33,1281.3 1935.07,1281.87 1939.8,1282.44 1944.53,1283 1949.26,1283.55 1953.99,1284.1 1958.72,1284.63 
  1963.45,1285.16 1968.18,1285.69 1972.91,1286.21 1977.64,1286.72 1982.37,1287.22 1987.1,1287.72 1991.83,1288.21 1996.56,1288.7 2001.3,1289.18 2006.03,1289.65 
  2010.76,1290.11 2015.49,1290.57 2020.22,1291.03 2024.95,1291.48 2029.68,1291.92 2034.41,1292.36 2039.14,1292.79 2043.87,1293.21 2048.6,1293.63 2053.33,1294.04 
  2058.06,1294.45 2062.8,1294.85 2067.53,1295.25 2072.26,1295.64 2076.99,1296.03 2081.72,1296.41 2086.45,1296.79 2091.18,1297.16 2095.91,1297.52 2100.64,1297.88 
  2105.37,1298.24 2110.1,1298.59 2114.83,1298.94 2119.56,1299.28 2124.3,1299.61 2129.03,1299.95 2133.76,1300.27 2138.49,1300.6 2143.22,1300.92 2147.95,1301.23 
  2152.68,1301.54 2157.41,1301.85 2162.14,1302.15 2166.87,1302.44 2171.6,1302.74 2176.33,1303.03 2181.06,1303.31 2185.79,1303.59 2190.53,1303.87 2195.26,1304.14 
  2199.99,1304.41 
  "/>
<polyline clip-path="url(#clip422)" style="stroke:#3da44d; stroke-width:4; stroke-opacity:1; fill:none" points="
  307.689,1322.67 312.42,1322.36 317.15,1322.05 321.881,1321.72 326.612,1321.39 331.343,1321.05 336.073,1320.7 340.804,1320.34 345.535,1319.98 350.266,1319.6 
  354.996,1319.22 359.727,1318.82 364.458,1318.42 369.189,1318 373.919,1317.58 378.65,1317.15 383.381,1316.7 388.112,1316.25 392.842,1315.78 397.573,1315.3 
  402.304,1314.81 407.035,1314.31 411.765,1313.8 416.496,1313.27 421.227,1312.73 425.958,1312.18 430.688,1311.62 435.419,1311.04 440.15,1310.45 444.881,1309.84 
  449.611,1309.22 454.342,1308.59 459.073,1307.93 463.804,1307.27 468.534,1306.59 473.265,1305.89 477.996,1305.18 482.726,1304.44 487.457,1303.7 492.188,1302.93 
  496.919,1302.15 501.649,1301.35 506.38,1300.53 511.111,1299.69 515.842,1298.83 520.572,1297.95 525.303,1297.05 530.034,1296.14 534.765,1295.2 539.495,1294.24 
  544.226,1293.25 548.957,1292.25 553.688,1291.22 558.418,1290.17 563.149,1289.1 567.88,1288 572.611,1286.88 577.341,1285.73 582.072,1284.56 586.803,1283.36 
  591.534,1282.14 596.264,1280.89 600.995,1279.61 605.726,1278.31 610.457,1276.98 615.187,1275.62 619.918,1274.23 624.649,1272.81 629.38,1271.36 634.11,1269.88 
  638.841,1268.37 643.572,1266.83 648.303,1265.25 653.033,1263.65 657.764,1262.01 662.495,1260.34 667.226,1258.64 671.956,1256.9 676.687,1255.12 681.418,1253.32 
  686.149,1251.47 690.879,1249.59 695.61,1247.68 700.341,1245.72 705.072,1243.73 709.802,1241.71 714.533,1239.64 719.264,1237.53 723.994,1235.39 728.725,1233.21 
  733.456,1230.99 738.187,1228.72 742.917,1226.42 747.648,1224.08 752.379,1221.69 757.11,1219.26 761.84,1216.79 766.571,1214.28 771.302,1211.73 776.033,1209.13 
  780.763,1206.49 785.494,1203.81 790.225,1201.09 794.956,1198.32 799.686,1195.5 804.417,1192.64 809.148,1189.74 813.879,1186.79 818.609,1183.8 823.34,1180.77 
  828.071,1177.69 832.802,1174.56 837.532,1171.39 842.263,1168.17 846.994,1164.91 851.725,1161.61 856.455,1158.26 861.186,1154.86 865.917,1151.42 870.648,1147.94 
  875.378,1144.41 880.109,1140.84 884.84,1137.22 889.571,1133.56 894.301,1129.86 899.032,1126.11 903.763,1122.32 908.494,1118.49 913.224,1114.62 917.955,1110.7 
  922.686,1106.75 927.417,1102.75 932.147,1098.71 936.878,1094.63 941.609,1090.52 946.34,1086.36 951.07,1082.17 955.801,1077.94 960.532,1073.67 965.262,1069.36 
  969.993,1065.02 974.724,1060.65 979.455,1056.24 984.185,1051.79 988.916,1047.32 993.647,1042.81 998.378,1038.27 1003.11,1033.7 1007.84,1029.11 1012.57,1024.48 
  1017.3,1019.82 1022.03,1015.14 1026.76,1010.44 1031.49,1005.71 1036.22,1000.95 1040.95,996.172 1045.69,991.371 1050.42,986.55 1055.15,981.708 1059.88,976.848 
  1064.61,971.97 1069.34,967.074 1074.07,962.163 1078.8,957.237 1083.53,952.297 1088.26,947.344 1092.99,942.379 1097.72,937.404 1102.45,932.419 1107.18,927.426 
  1111.92,922.424 1116.65,917.417 1121.38,912.403 1126.11,907.386 1130.84,902.365 1135.57,897.341 1140.3,892.316 1145.03,887.291 1149.76,882.266 1154.49,877.243 
  1159.22,872.223 1163.95,867.206 1168.68,862.194 1173.42,857.188 1178.15,852.188 1182.88,847.195 1187.61,842.211 1192.34,837.236 1197.07,832.271 1201.8,827.317 
  1206.53,822.376 1211.26,817.446 1215.99,812.531 1220.72,807.63 1225.45,802.744 1230.18,797.874 1234.91,793.021 1239.65,788.185 1244.38,783.368 1249.11,778.57 
  1253.84,773.791 1258.57,769.033 1263.3,764.295 1268.03,759.579 1272.76,754.886 1277.49,750.215 1282.22,745.568 1286.95,740.945 1291.68,736.347 1296.41,731.773 
  1301.15,727.225 1305.88,722.704 1310.61,718.209 1315.34,713.741 1320.07,709.3 1324.8,704.888 1329.53,700.503 1334.26,696.148 1338.99,691.821 1343.72,687.524 
  1348.45,683.257 1353.18,679.02 1357.91,674.813 1362.65,670.637 1367.38,666.492 1372.11,662.378 1376.84,658.295 1381.57,654.244 1386.3,650.225 1391.03,646.238 
  1395.76,642.283 1400.49,638.361 1405.22,634.471 1409.95,630.614 1414.68,626.789 1419.41,622.998 1424.14,619.239 1428.88,615.513 1433.61,611.821 1438.34,608.162 
  1443.07,604.536 1447.8,600.943 1452.53,597.383 1457.26,593.857 1461.99,590.364 1466.72,586.904 1471.45,583.478 1476.18,580.084 1480.91,576.724 1485.64,573.397 
  1490.38,570.103 1495.11,566.842 1499.84,563.614 1504.57,560.419 1509.3,557.256 1514.03,554.126 1518.76,551.029 1523.49,547.964 1528.22,544.932 1532.95,541.931 
  1537.68,538.963 1542.41,536.026 1547.14,533.121 1551.87,530.248 1556.61,527.406 1561.34,524.595 1566.07,521.816 1570.8,519.067 1575.53,516.349 1580.26,513.662 
  1584.99,511.005 1589.72,508.378 1594.45,505.782 1599.18,503.215 1603.91,500.677 1608.64,498.169 1613.37,495.691 1618.11,493.241 1622.84,490.82 1627.57,488.427 
  1632.3,486.063 1637.03,483.727 1641.76,481.419 1646.49,479.138 1651.22,476.885 1655.95,474.659 1660.68,472.461 1665.41,470.288 1670.14,468.143 1674.87,466.024 
  1679.61,463.931 1684.34,461.863 1689.07,459.821 1693.8,457.805 1698.53,455.814 1703.26,453.848 1707.99,451.906 1712.72,449.989 1717.45,448.096 1722.18,446.227 
  1726.91,444.381 1731.64,442.56 1736.37,440.761 1741.1,438.985 1745.84,437.233 1750.57,435.502 1755.3,433.795 1760.03,432.109 1764.76,430.445 1769.49,428.803 
  1774.22,427.182 1778.95,425.582 1783.68,424.003 1788.41,422.445 1793.14,420.908 1797.87,419.39 1802.6,417.893 1807.34,416.416 1812.07,414.958 1816.8,413.519 
  1821.53,412.1 1826.26,410.7 1830.99,409.318 1835.72,407.955 1840.45,406.61 1845.18,405.283 1849.91,403.974 1854.64,402.683 1859.37,401.409 1864.1,400.153 
  1868.83,398.913 1873.57,397.691 1878.3,396.485 1883.03,395.295 1887.76,394.122 1892.49,392.965 1897.22,391.823 1901.95,390.697 1906.68,389.587 1911.41,388.492 
  1916.14,387.412 1920.87,386.347 1925.6,385.297 1930.33,384.261 1935.07,383.239 1939.8,382.232 1944.53,381.239 1949.26,380.259 1953.99,379.293 1958.72,378.341 
  1963.45,377.401 1968.18,376.475 1972.91,375.562 1977.64,374.662 1982.37,373.774 1987.1,372.899 1991.83,372.036 1996.56,371.185 2001.3,370.347 2006.03,369.52 
  2010.76,368.704 2015.49,367.9 2020.22,367.108 2024.95,366.327 2029.68,365.556 2034.41,364.797 2039.14,364.049 2043.87,363.311 2048.6,362.583 2053.33,361.866 
  2058.06,361.159 2062.8,360.463 2067.53,359.776 2072.26,359.099 2076.99,358.431 2081.72,357.774 2086.45,357.125 2091.18,356.486 2095.91,355.856 2100.64,355.235 
  2105.37,354.623 2110.1,354.02 2114.83,353.425 2119.56,352.839 2124.3,352.262 2129.03,351.692 2133.76,351.131 2138.49,350.578 2143.22,350.033 2147.95,349.496 
  2152.68,348.967 2157.41,348.445 2162.14,347.931 2166.87,347.424 2171.6,346.925 2176.33,346.433 2181.06,345.948 2185.79,345.47 2190.53,344.999 2195.26,344.534 
  2199.99,344.077 
  "/>
<path clip-path="url(#clip420)" d="
M1930.31 366.924 L2187.64 366.924 L2187.64 125.004 L1930.31 125.004  Z
  " fill="#ffffff" fill-rule="evenodd" fill-opacity="1"/>
<polyline clip-path="url(#clip420)" style="stroke:#000000; stroke-width:4; stroke-opacity:1; fill:none" points="
  1930.31,366.924 2187.64,366.924 2187.64,125.004 1930.31,125.004 1930.31,366.924 
  "/>
<polyline clip-path="url(#clip420)" style="stroke:#009af9; stroke-width:4; stroke-opacity:1; fill:none" points="
  1953.35,185.484 2091.59,185.484 
  "/>
<path clip-path="url(#clip420)" d="M 0 0 M2136.88 169.338 L2136.88 173.899 Q2134.22 172.625 2131.86 172 Q2129.5 171.375 2127.3 171.375 Q2123.48 171.375 2121.39 172.857 Q2119.33 174.338 2119.33 177.07 Q2119.33 179.361 2120.7 180.542 Q2122.09 181.699 2125.93 182.417 L2128.76 182.996 Q2133.99 183.991 2136.46 186.514 Q2138.96 189.014 2138.96 193.227 Q2138.96 198.25 2135.58 200.843 Q2132.23 203.435 2125.72 203.435 Q2123.27 203.435 2120.49 202.88 Q2117.74 202.324 2114.77 201.236 L2114.77 196.422 Q2117.62 198.019 2120.35 198.829 Q2123.08 199.639 2125.72 199.639 Q2129.73 199.639 2131.9 198.065 Q2134.08 196.491 2134.08 193.574 Q2134.08 191.028 2132.51 189.593 Q2130.95 188.158 2127.39 187.44 L2124.54 186.885 Q2119.31 185.843 2116.97 183.621 Q2114.63 181.398 2114.63 177.44 Q2114.63 172.857 2117.85 170.218 Q2121.09 167.579 2126.76 167.579 Q2129.19 167.579 2131.72 168.019 Q2134.24 168.459 2136.88 169.338 Z" fill="#000000" fill-rule="evenodd" fill-opacity="1" /><polyline clip-path="url(#clip420)" style="stroke:#e26f46; stroke-width:4; stroke-opacity:1; fill:none" points="
  1953.35,245.964 2091.59,245.964 
  "/>
<path clip-path="url(#clip420)" d="M 0 0 M2114.63 228.684 L2119.31 228.684 L2119.31 263.244 L2114.63 263.244 L2114.63 228.684 Z" fill="#000000" fill-rule="evenodd" fill-opacity="1" /><polyline clip-path="url(#clip420)" style="stroke:#3da44d; stroke-width:4; stroke-opacity:1; fill:none" points="
  1953.35,306.444 2091.59,306.444 
  "/>
<path clip-path="url(#clip420)" d="M 0 0 M2131.02 307.52 Q2132.53 308.03 2133.94 309.696 Q2135.38 311.363 2136.81 314.28 L2141.56 323.724 L2136.53 323.724 L2132.11 314.858 Q2130.4 311.386 2128.78 310.252 Q2127.18 309.118 2124.4 309.118 L2119.31 309.118 L2119.31 323.724 L2114.63 323.724 L2114.63 289.164 L2125.19 289.164 Q2131.12 289.164 2134.03 291.641 Q2136.95 294.118 2136.95 299.118 Q2136.95 302.382 2135.42 304.534 Q2133.92 306.687 2131.02 307.52 M2119.31 293.007 L2119.31 305.275 L2125.19 305.275 Q2128.57 305.275 2130.28 303.724 Q2132.02 302.15 2132.02 299.118 Q2132.02 296.085 2130.28 294.558 Q2128.57 293.007 2125.19 293.007 L2119.31 293.007 Z" fill="#000000" fill-rule="evenodd" fill-opacity="1" /></svg>
