<?xml version="1.0" encoding="utf-8"?>
<svg xmlns="http://www.w3.org/2000/svg" xmlns:xlink="http://www.w3.org/1999/xlink" width="576" height="384" viewBox="0 0 2304 1536">
<defs>
  <clipPath id="clip120">
    <rect x="0" y="0" width="2304" height="1536"/>
  </clipPath>
</defs>
<path clip-path="url(#clip120)" d="
M0 1536 L2304 1536 L2304 0 L0 0  Z
  " fill="#ffffff" fill-rule="evenodd" fill-opacity="1"/>
<defs>
  <clipPath id="clip121">
    <rect x="460" y="0" width="1614" height="1536"/>
  </clipPath>
</defs>
<path clip-path="url(#clip120)" d="
M250.92 1359.82 L2256.76 1359.82 L2256.76 47.2441 L250.92 47.2441  Z
  " fill="#ffffff" fill-rule="evenodd" fill-opacity="1"/>
<defs>
  <clipPath id="clip122">
    <rect x="250" y="47" width="2007" height="1314"/>
  </clipPath>
</defs>
<polyline clip-path="url(#clip122)" style="stroke:#000000; stroke-width:2; stroke-opacity:0.1; fill:none" points="
  307.689,1359.82 307.689,47.2441 
  "/>
<polyline clip-path="url(#clip122)" style="stroke:#000000; stroke-width:2; stroke-opacity:0.1; fill:none" points="
  783.037,1359.82 783.037,47.2441 
  "/>
<polyline clip-path="url(#clip122)" style="stroke:#000000; stroke-width:2; stroke-opacity:0.1; fill:none" points="
  1258.38,1359.82 1258.38,47.2441 
  "/>
<polyline clip-path="url(#clip122)" style="stroke:#000000; stroke-width:2; stroke-opacity:0.1; fill:none" points="
  1733.73,1359.82 1733.73,47.2441 
  "/>
<polyline clip-path="url(#clip122)" style="stroke:#000000; stroke-width:2; stroke-opacity:0.1; fill:none" points="
  2209.08,1359.82 2209.08,47.2441 
  "/>
<polyline clip-path="url(#clip122)" style="stroke:#000000; stroke-width:2; stroke-opacity:0.1; fill:none" points="
  250.92,1322.67 2256.76,1322.67 
  "/>
<polyline clip-path="url(#clip122)" style="stroke:#000000; stroke-width:2; stroke-opacity:0.1; fill:none" points="
  250.92,1009.97 2256.76,1009.97 
  "/>
<polyline clip-path="url(#clip122)" style="stroke:#000000; stroke-width:2; stroke-opacity:0.1; fill:none" points="
  250.92,697.278 2256.76,697.278 
  "/>
<polyline clip-path="url(#clip122)" style="stroke:#000000; stroke-width:2; stroke-opacity:0.1; fill:none" points="
  250.92,384.581 2256.76,384.581 
  "/>
<polyline clip-path="url(#clip122)" style="stroke:#000000; stroke-width:2; stroke-opacity:0.1; fill:none" points="
  250.92,71.8846 2256.76,71.8846 
  "/>
<polyline clip-path="url(#clip120)" style="stroke:#000000; stroke-width:4; stroke-opacity:1; fill:none" points="
  250.92,1359.82 2256.76,1359.82 
  "/>
<polyline clip-path="url(#clip120)" style="stroke:#000000; stroke-width:4; stroke-opacity:1; fill:none" points="
  250.92,1359.82 250.92,47.2441 
  "/>
<polyline clip-path="url(#clip120)" style="stroke:#000000; stroke-width:4; stroke-opacity:1; fill:none" points="
  307.689,1359.82 307.689,1344.07 
  "/>
<polyline clip-path="url(#clip120)" style="stroke:#000000; stroke-width:4; stroke-opacity:1; fill:none" points="
  783.037,1359.82 783.037,1344.07 
  "/>
<polyline clip-path="url(#clip120)" style="stroke:#000000; stroke-width:4; stroke-opacity:1; fill:none" points="
  1258.38,1359.82 1258.38,1344.07 
  "/>
<polyline clip-path="url(#clip120)" style="stroke:#000000; stroke-width:4; stroke-opacity:1; fill:none" points="
  1733.73,1359.82 1733.73,1344.07 
  "/>
<polyline clip-path="url(#clip120)" style="stroke:#000000; stroke-width:4; stroke-opacity:1; fill:none" points="
  2209.08,1359.82 2209.08,1344.07 
  "/>
<polyline clip-path="url(#clip120)" style="stroke:#000000; stroke-width:4; stroke-opacity:1; fill:none" points="
  250.92,1322.67 274.99,1322.67 
  "/>
<polyline clip-path="url(#clip120)" style="stroke:#000000; stroke-width:4; stroke-opacity:1; fill:none" points="
  250.92,1009.97 274.99,1009.97 
  "/>
<polyline clip-path="url(#clip120)" style="stroke:#000000; stroke-width:4; stroke-opacity:1; fill:none" points="
  250.92,697.278 274.99,697.278 
  "/>
<polyline clip-path="url(#clip120)" style="stroke:#000000; stroke-width:4; stroke-opacity:1; fill:none" points="
  250.92,384.581 274.99,384.581 
  "/>
<polyline clip-path="url(#clip120)" style="stroke:#000000; stroke-width:4; stroke-opacity:1; fill:none" points="
  250.92,71.8846 274.99,71.8846 
  "/>
<path clip-path="url(#clip120)" d="M 0 0 M307.689 1381.33 Q304.078 1381.33 302.249 1384.9 Q300.444 1388.44 300.444 1395.57 Q300.444 1402.67 302.249 1406.24 Q304.078 1409.78 307.689 1409.78 Q311.323 1409.78 313.129 1406.24 Q314.957 1402.67 314.957 1395.57 Q314.957 1388.44 313.129 1384.9 Q311.323 1381.33 307.689 1381.33 M307.689 1377.63 Q313.499 1377.63 316.555 1382.23 Q319.633 1386.82 319.633 1395.57 Q319.633 1404.29 316.555 1408.9 Q313.499 1413.48 307.689 1413.48 Q301.879 1413.48 298.8 1408.9 Q295.745 1404.29 295.745 1395.57 Q295.745 1386.82 298.8 1382.23 Q301.879 1377.63 307.689 1377.63 Z" fill="#000000" fill-rule="evenodd" fill-opacity="1" /><path clip-path="url(#clip120)" d="M 0 0 M759.912 1408.88 L767.551 1408.88 L767.551 1382.51 L759.241 1384.18 L759.241 1379.92 L767.504 1378.25 L772.18 1378.25 L772.18 1408.88 L779.819 1408.88 L779.819 1412.81 L759.912 1412.81 L759.912 1408.88 Z" fill="#000000" fill-rule="evenodd" fill-opacity="1" /><path clip-path="url(#clip120)" d="M 0 0 M794.889 1381.33 Q791.277 1381.33 789.449 1384.9 Q787.643 1388.44 787.643 1395.57 Q787.643 1402.67 789.449 1406.24 Q791.277 1409.78 794.889 1409.78 Q798.523 1409.78 800.328 1406.24 Q802.157 1402.67 802.157 1395.57 Q802.157 1388.44 800.328 1384.9 Q798.523 1381.33 794.889 1381.33 M794.889 1377.63 Q800.699 1377.63 803.754 1382.23 Q806.833 1386.82 806.833 1395.57 Q806.833 1404.29 803.754 1408.9 Q800.699 1413.48 794.889 1413.48 Q789.078 1413.48 786 1408.9 Q782.944 1404.29 782.944 1395.57 Q782.944 1386.82 786 1382.23 Q789.078 1377.63 794.889 1377.63 Z" fill="#000000" fill-rule="evenodd" fill-opacity="1" /><path clip-path="url(#clip120)" d="M 0 0 M1239.53 1408.88 L1255.85 1408.88 L1255.85 1412.81 L1233.91 1412.81 L1233.91 1408.88 Q1236.57 1406.12 1241.15 1401.49 Q1245.76 1396.84 1246.94 1395.5 Q1249.18 1392.97 1250.06 1391.24 Q1250.97 1389.48 1250.97 1387.79 Q1250.97 1385.03 1249.02 1383.3 Q1247.1 1381.56 1244 1381.56 Q1241.8 1381.56 1239.35 1382.33 Q1236.91 1383.09 1234.14 1384.64 L1234.14 1379.92 Q1236.96 1378.78 1239.41 1378.21 Q1241.87 1377.63 1243.91 1377.63 Q1249.28 1377.63 1252.47 1380.31 Q1255.66 1383 1255.66 1387.49 Q1255.66 1389.62 1254.85 1391.54 Q1254.07 1393.44 1251.96 1396.03 Q1251.38 1396.7 1248.28 1399.92 Q1245.18 1403.11 1239.53 1408.88 Z" fill="#000000" fill-rule="evenodd" fill-opacity="1" /><path clip-path="url(#clip120)" d="M 0 0 M1270.92 1381.33 Q1267.31 1381.33 1265.48 1384.9 Q1263.67 1388.44 1263.67 1395.57 Q1263.67 1402.67 1265.48 1406.24 Q1267.31 1409.78 1270.92 1409.78 Q1274.55 1409.78 1276.36 1406.24 Q1278.19 1402.67 1278.19 1395.57 Q1278.19 1388.44 1276.36 1384.9 Q1274.55 1381.33 1270.92 1381.33 M1270.92 1377.63 Q1276.73 1377.63 1279.79 1382.23 Q1282.86 1386.82 1282.86 1395.57 Q1282.86 1404.29 1279.79 1408.9 Q1276.73 1413.48 1270.92 1413.48 Q1265.11 1413.48 1262.03 1408.9 Q1258.97 1404.29 1258.97 1395.57 Q1258.97 1386.82 1262.03 1382.23 Q1265.11 1377.63 1270.92 1377.63 Z" fill="#000000" fill-rule="evenodd" fill-opacity="1" /><path clip-path="url(#clip120)" d="M 0 0 M1724.47 1394.18 Q1727.83 1394.9 1729.7 1397.16 Q1731.6 1399.43 1731.6 1402.77 Q1731.6 1407.88 1728.08 1410.68 Q1724.57 1413.48 1718.08 1413.48 Q1715.91 1413.48 1713.59 1413.04 Q1711.3 1412.63 1708.85 1411.77 L1708.85 1407.26 Q1710.79 1408.39 1713.11 1408.97 Q1715.42 1409.55 1717.95 1409.55 Q1722.34 1409.55 1724.64 1407.81 Q1726.95 1406.08 1726.95 1402.77 Q1726.95 1399.71 1724.8 1398 Q1722.67 1396.26 1718.85 1396.26 L1714.82 1396.26 L1714.82 1392.42 L1719.03 1392.42 Q1722.48 1392.42 1724.31 1391.05 Q1726.14 1389.66 1726.14 1387.07 Q1726.14 1384.41 1724.24 1383 Q1722.37 1381.56 1718.85 1381.56 Q1716.93 1381.56 1714.73 1381.98 Q1712.53 1382.4 1709.89 1383.27 L1709.89 1379.11 Q1712.55 1378.37 1714.87 1378 Q1717.2 1377.63 1719.27 1377.63 Q1724.59 1377.63 1727.69 1380.06 Q1730.79 1382.46 1730.79 1386.59 Q1730.79 1389.46 1729.15 1391.45 Q1727.51 1393.41 1724.47 1394.18 Z" fill="#000000" fill-rule="evenodd" fill-opacity="1" /><path clip-path="url(#clip120)" d="M 0 0 M1746.67 1381.33 Q1743.06 1381.33 1741.23 1384.9 Q1739.43 1388.44 1739.43 1395.57 Q1739.43 1402.67 1741.23 1406.24 Q1743.06 1409.78 1746.67 1409.78 Q1750.31 1409.78 1752.11 1406.24 Q1753.94 1402.67 1753.94 1395.57 Q1753.94 1388.44 1752.11 1384.9 Q1750.31 1381.33 1746.67 1381.33 M1746.67 1377.63 Q1752.48 1377.63 1755.54 1382.23 Q1758.62 1386.82 1758.62 1395.57 Q1758.62 1404.29 1755.54 1408.9 Q1752.48 1413.48 1746.67 1413.48 Q1740.86 1413.48 1737.78 1408.9 Q1734.73 1404.29 1734.73 1395.57 Q1734.73 1386.82 1737.78 1382.23 Q1740.86 1377.63 1746.67 1377.63 Z" fill="#000000" fill-rule="evenodd" fill-opacity="1" /><path clip-path="url(#clip120)" d="M 0 0 M2198.58 1382.33 L2186.78 1400.77 L2198.58 1400.77 L2198.58 1382.33 M2197.36 1378.25 L2203.24 1378.25 L2203.24 1400.77 L2208.17 1400.77 L2208.17 1404.66 L2203.24 1404.66 L2203.24 1412.81 L2198.58 1412.81 L2198.58 1404.66 L2182.98 1404.66 L2182.98 1400.15 L2197.36 1378.25 Z" fill="#000000" fill-rule="evenodd" fill-opacity="1" /><path clip-path="url(#clip120)" d="M 0 0 M2223.24 1381.33 Q2219.62 1381.33 2217.8 1384.9 Q2215.99 1388.44 2215.99 1395.57 Q2215.99 1402.67 2217.8 1406.24 Q2219.62 1409.78 2223.24 1409.78 Q2226.87 1409.78 2228.68 1406.24 Q2230.5 1402.67 2230.5 1395.57 Q2230.5 1388.44 2228.68 1384.9 Q2226.87 1381.33 2223.24 1381.33 M2223.24 1377.63 Q2229.05 1377.63 2232.1 1382.23 Q2235.18 1386.82 2235.18 1395.57 Q2235.18 1404.29 2232.1 1408.9 Q2229.05 1413.48 2223.24 1413.48 Q2217.43 1413.48 2214.35 1408.9 Q2211.29 1404.29 2211.29 1395.57 Q2211.29 1386.82 2214.35 1382.23 Q2217.43 1377.63 2223.24 1377.63 Z" fill="#000000" fill-rule="evenodd" fill-opacity="1" /><path clip-path="url(#clip120)" d="M 0 0 M215.936 1308.47 Q212.325 1308.47 210.496 1312.03 Q208.69 1315.58 208.69 1322.71 Q208.69 1329.81 210.496 1333.38 Q212.325 1336.92 215.936 1336.92 Q219.57 1336.92 221.375 1333.38 Q223.204 1329.81 223.204 1322.71 Q223.204 1315.58 221.375 1312.03 Q219.57 1308.47 215.936 1308.47 M215.936 1304.77 Q221.746 1304.77 224.801 1309.37 Q227.88 1313.96 227.88 1322.71 Q227.88 1331.43 224.801 1336.04 Q221.746 1340.62 215.936 1340.62 Q210.125 1340.62 207.047 1336.04 Q203.991 1331.43 203.991 1322.71 Q203.991 1313.96 207.047 1309.37 Q210.125 1304.77 215.936 1304.77 Z" fill="#000000" fill-rule="evenodd" fill-opacity="1" /><path clip-path="url(#clip120)" d="M 0 0 M158.529 1023.32 L174.848 1023.32 L174.848 1027.25 L152.904 1027.25 L152.904 1023.32 Q155.566 1020.56 160.149 1015.94 Q164.755 1011.28 165.936 1009.94 Q168.181 1007.42 169.061 1005.68 Q169.964 1003.92 169.964 1002.23 Q169.964 999.477 168.019 997.741 Q166.098 996.005 162.996 996.005 Q160.797 996.005 158.343 996.769 Q155.913 997.533 153.135 999.084 L153.135 994.361 Q155.959 993.227 158.413 992.648 Q160.866 992.07 162.903 992.07 Q168.274 992.07 171.468 994.755 Q174.663 997.44 174.663 1001.93 Q174.663 1004.06 173.852 1005.98 Q173.065 1007.88 170.959 1010.47 Q170.38 1011.14 167.278 1014.36 Q164.177 1017.56 158.529 1023.32 Z" fill="#000000" fill-rule="evenodd" fill-opacity="1" /><path clip-path="url(#clip120)" d="M 0 0 M179.964 992.695 L198.32 992.695 L198.32 996.63 L184.246 996.63 L184.246 1005.1 Q185.264 1004.75 186.283 1004.59 Q187.301 1004.41 188.32 1004.41 Q194.107 1004.41 197.487 1007.58 Q200.866 1010.75 200.866 1016.17 Q200.866 1021.75 197.394 1024.85 Q193.922 1027.93 187.602 1027.93 Q185.427 1027.93 183.158 1027.56 Q180.913 1027.19 178.505 1026.44 L178.505 1021.75 Q180.589 1022.88 182.811 1023.44 Q185.033 1023.99 187.51 1023.99 Q191.514 1023.99 193.852 1021.88 Q196.19 1019.78 196.19 1016.17 Q196.19 1012.56 193.852 1010.45 Q191.514 1008.34 187.51 1008.34 Q185.635 1008.34 183.76 1008.76 Q181.908 1009.18 179.964 1010.06 L179.964 992.695 Z" fill="#000000" fill-rule="evenodd" fill-opacity="1" /><path clip-path="url(#clip120)" d="M 0 0 M215.936 995.773 Q212.325 995.773 210.496 999.338 Q208.69 1002.88 208.69 1010.01 Q208.69 1017.12 210.496 1020.68 Q212.325 1024.22 215.936 1024.22 Q219.57 1024.22 221.375 1020.68 Q223.204 1017.12 223.204 1010.01 Q223.204 1002.88 221.375 999.338 Q219.57 995.773 215.936 995.773 M215.936 992.07 Q221.746 992.07 224.801 996.676 Q227.88 1001.26 227.88 1010.01 Q227.88 1018.74 224.801 1023.34 Q221.746 1027.93 215.936 1027.93 Q210.125 1027.93 207.047 1023.34 Q203.991 1018.74 203.991 1010.01 Q203.991 1001.26 207.047 996.676 Q210.125 992.07 215.936 992.07 Z" fill="#000000" fill-rule="evenodd" fill-opacity="1" /><path clip-path="url(#clip120)" d="M 0 0 M152.95 679.998 L171.306 679.998 L171.306 683.933 L157.232 683.933 L157.232 692.405 Q158.251 692.058 159.269 691.896 Q160.288 691.711 161.306 691.711 Q167.093 691.711 170.473 694.882 Q173.852 698.053 173.852 703.47 Q173.852 709.049 170.38 712.151 Q166.908 715.229 160.589 715.229 Q158.413 715.229 156.144 714.859 Q153.899 714.489 151.492 713.748 L151.492 709.049 Q153.575 710.183 155.797 710.739 Q158.019 711.294 160.496 711.294 Q164.501 711.294 166.839 709.188 Q169.177 707.081 169.177 703.47 Q169.177 699.859 166.839 697.753 Q164.501 695.646 160.496 695.646 Q158.621 695.646 156.746 696.063 Q154.894 696.479 152.95 697.359 L152.95 679.998 Z" fill="#000000" fill-rule="evenodd" fill-opacity="1" /><path clip-path="url(#clip120)" d="M 0 0 M188.922 683.077 Q185.311 683.077 183.482 686.642 Q181.677 690.183 181.677 697.313 Q181.677 704.419 183.482 707.984 Q185.311 711.526 188.922 711.526 Q192.556 711.526 194.362 707.984 Q196.19 704.419 196.19 697.313 Q196.19 690.183 194.362 686.642 Q192.556 683.077 188.922 683.077 M188.922 679.373 Q194.732 679.373 197.788 683.979 Q200.866 688.563 200.866 697.313 Q200.866 706.04 197.788 710.646 Q194.732 715.229 188.922 715.229 Q183.112 715.229 180.033 710.646 Q176.977 706.04 176.977 697.313 Q176.977 688.563 180.033 683.979 Q183.112 679.373 188.922 679.373 Z" fill="#000000" fill-rule="evenodd" fill-opacity="1" /><path clip-path="url(#clip120)" d="M 0 0 M215.936 683.077 Q212.325 683.077 210.496 686.642 Q208.69 690.183 208.69 697.313 Q208.69 704.419 210.496 707.984 Q212.325 711.526 215.936 711.526 Q219.57 711.526 221.375 707.984 Q223.204 704.419 223.204 697.313 Q223.204 690.183 221.375 686.642 Q219.57 683.077 215.936 683.077 M215.936 679.373 Q221.746 679.373 224.801 683.979 Q227.88 688.563 227.88 697.313 Q227.88 706.04 224.801 710.646 Q221.746 715.229 215.936 715.229 Q210.125 715.229 207.047 710.646 Q203.991 706.04 203.991 697.313 Q203.991 688.563 207.047 683.979 Q210.125 679.373 215.936 679.373 Z" fill="#000000" fill-rule="evenodd" fill-opacity="1" /><path clip-path="url(#clip120)" d="M 0 0 M152.626 367.301 L174.848 367.301 L174.848 369.292 L162.302 401.861 L157.417 401.861 L169.223 371.236 L152.626 371.236 L152.626 367.301 Z" fill="#000000" fill-rule="evenodd" fill-opacity="1" /><path clip-path="url(#clip120)" d="M 0 0 M179.964 367.301 L198.32 367.301 L198.32 371.236 L184.246 371.236 L184.246 379.709 Q185.264 379.361 186.283 379.199 Q187.301 379.014 188.32 379.014 Q194.107 379.014 197.487 382.185 Q200.866 385.357 200.866 390.773 Q200.866 396.352 197.394 399.454 Q193.922 402.533 187.602 402.533 Q185.427 402.533 183.158 402.162 Q180.913 401.792 178.505 401.051 L178.505 396.352 Q180.589 397.486 182.811 398.042 Q185.033 398.597 187.51 398.597 Q191.514 398.597 193.852 396.491 Q196.19 394.385 196.19 390.773 Q196.19 387.162 193.852 385.056 Q191.514 382.949 187.51 382.949 Q185.635 382.949 183.76 383.366 Q181.908 383.783 179.964 384.662 L179.964 367.301 Z" fill="#000000" fill-rule="evenodd" fill-opacity="1" /><path clip-path="url(#clip120)" d="M 0 0 M215.936 370.38 Q212.325 370.38 210.496 373.945 Q208.69 377.486 208.69 384.616 Q208.69 391.722 210.496 395.287 Q212.325 398.829 215.936 398.829 Q219.57 398.829 221.375 395.287 Q223.204 391.722 223.204 384.616 Q223.204 377.486 221.375 373.945 Q219.57 370.38 215.936 370.38 M215.936 366.676 Q221.746 366.676 224.801 371.283 Q227.88 375.866 227.88 384.616 Q227.88 393.343 224.801 397.949 Q221.746 402.533 215.936 402.533 Q210.125 402.533 207.047 397.949 Q203.991 393.343 203.991 384.616 Q203.991 375.866 207.047 371.283 Q210.125 366.676 215.936 366.676 Z" fill="#000000" fill-rule="evenodd" fill-opacity="1" /><path clip-path="url(#clip120)" d="M 0 0 M126.931 85.2294 L134.57 85.2294 L134.57 58.8638 L126.26 60.5305 L126.26 56.2713 L134.524 54.6046 L139.2 54.6046 L139.2 85.2294 L146.839 85.2294 L146.839 89.1646 L126.931 89.1646 L126.931 85.2294 Z" fill="#000000" fill-rule="evenodd" fill-opacity="1" /><path clip-path="url(#clip120)" d="M 0 0 M161.908 57.6833 Q158.297 57.6833 156.468 61.2481 Q154.663 64.7897 154.663 71.9193 Q154.663 79.0258 156.468 82.5906 Q158.297 86.1322 161.908 86.1322 Q165.542 86.1322 167.348 82.5906 Q169.177 79.0258 169.177 71.9193 Q169.177 64.7897 167.348 61.2481 Q165.542 57.6833 161.908 57.6833 M161.908 53.9796 Q167.718 53.9796 170.774 58.5861 Q173.852 63.1694 173.852 71.9193 Q173.852 80.6461 170.774 85.2526 Q167.718 89.8359 161.908 89.8359 Q156.098 89.8359 153.019 85.2526 Q149.964 80.6461 149.964 71.9193 Q149.964 63.1694 153.019 58.5861 Q156.098 53.9796 161.908 53.9796 Z" fill="#000000" fill-rule="evenodd" fill-opacity="1" /><path clip-path="url(#clip120)" d="M 0 0 M188.922 57.6833 Q185.311 57.6833 183.482 61.2481 Q181.677 64.7897 181.677 71.9193 Q181.677 79.0258 183.482 82.5906 Q185.311 86.1322 188.922 86.1322 Q192.556 86.1322 194.362 82.5906 Q196.19 79.0258 196.19 71.9193 Q196.19 64.7897 194.362 61.2481 Q192.556 57.6833 188.922 57.6833 M188.922 53.9796 Q194.732 53.9796 197.788 58.5861 Q200.866 63.1694 200.866 71.9193 Q200.866 80.6461 197.788 85.2526 Q194.732 89.8359 188.922 89.8359 Q183.112 89.8359 180.033 85.2526 Q176.977 80.6461 176.977 71.9193 Q176.977 63.1694 180.033 58.5861 Q183.112 53.9796 188.922 53.9796 Z" fill="#000000" fill-rule="evenodd" fill-opacity="1" /><path clip-path="url(#clip120)" d="M 0 0 M215.936 57.6833 Q212.325 57.6833 210.496 61.2481 Q208.69 64.7897 208.69 71.9193 Q208.69 79.0258 210.496 82.5906 Q212.325 86.1322 215.936 86.1322 Q219.57 86.1322 221.375 82.5906 Q223.204 79.0258 223.204 71.9193 Q223.204 64.7897 221.375 61.2481 Q219.57 57.6833 215.936 57.6833 M215.936 53.9796 Q221.746 53.9796 224.801 58.5861 Q227.88 63.1694 227.88 71.9193 Q227.88 80.6461 224.801 85.2526 Q221.746 89.8359 215.936 89.8359 Q210.125 89.8359 207.047 85.2526 Q203.991 80.6461 203.991 71.9193 Q203.991 63.1694 207.047 58.5861 Q210.125 53.9796 215.936 53.9796 Z" fill="#000000" fill-rule="evenodd" fill-opacity="1" /><path clip-path="url(#clip120)" d="M 0 0 M1181.44 1444.2 L1221.64 1444.2 L1221.64 1449.61 L1204.77 1449.61 L1204.77 1491.72 L1198.31 1491.72 L1198.31 1449.61 L1181.44 1449.61 L1181.44 1444.2 Z" fill="#000000" fill-rule="evenodd" fill-opacity="1" /><path clip-path="url(#clip120)" d="M 0 0 M1225.78 1456.08 L1231.64 1456.08 L1231.64 1491.72 L1225.78 1491.72 L1225.78 1456.08 M1225.78 1442.2 L1231.64 1442.2 L1231.64 1449.61 L1225.78 1449.61 L1225.78 1442.2 Z" fill="#000000" fill-rule="evenodd" fill-opacity="1" /><path clip-path="url(#clip120)" d="M 0 0 M1265.53 1462.92 Q1267.73 1458.97 1270.79 1457.09 Q1273.84 1455.22 1277.98 1455.22 Q1283.55 1455.22 1286.57 1459.13 Q1289.6 1463.01 1289.6 1470.21 L1289.6 1491.72 L1283.71 1491.72 L1283.71 1470.4 Q1283.71 1465.27 1281.89 1462.79 Q1280.08 1460.31 1276.36 1460.31 Q1271.81 1460.31 1269.16 1463.33 Q1266.52 1466.36 1266.52 1471.58 L1266.52 1491.72 L1260.63 1491.72 L1260.63 1470.4 Q1260.63 1465.24 1258.82 1462.79 Q1257 1460.31 1253.22 1460.31 Q1248.73 1460.31 1246.09 1463.36 Q1243.45 1466.39 1243.45 1471.58 L1243.45 1491.72 L1237.56 1491.72 L1237.56 1456.08 L1243.45 1456.08 L1243.45 1461.61 Q1245.45 1458.34 1248.25 1456.78 Q1251.05 1455.22 1254.9 1455.22 Q1258.79 1455.22 1261.49 1457.19 Q1264.23 1459.16 1265.53 1462.92 Z" fill="#000000" fill-rule="evenodd" fill-opacity="1" /><path clip-path="url(#clip120)" d="M 0 0 M1326.23 1472.44 L1326.23 1475.3 L1299.31 1475.3 Q1299.69 1481.35 1302.93 1484.53 Q1306.21 1487.68 1312.04 1487.68 Q1315.41 1487.68 1318.56 1486.85 Q1321.74 1486.03 1324.86 1484.37 L1324.86 1489.91 Q1321.71 1491.25 1318.4 1491.95 Q1315.09 1492.65 1311.69 1492.65 Q1303.16 1492.65 1298.16 1487.68 Q1293.19 1482.72 1293.19 1474.25 Q1293.19 1465.5 1297.9 1460.37 Q1302.65 1455.22 1310.67 1455.22 Q1317.86 1455.22 1322.03 1459.86 Q1326.23 1464.48 1326.23 1472.44 M1320.38 1470.72 Q1320.31 1465.91 1317.67 1463.05 Q1315.06 1460.18 1310.73 1460.18 Q1305.83 1460.18 1302.87 1462.95 Q1299.94 1465.72 1299.5 1470.75 L1320.38 1470.72 Z" fill="#000000" fill-rule="evenodd" fill-opacity="1" /><path clip-path="url(#clip120)" d="M 0 0 M41.4442 818.815 L41.4442 810.158 L81.198 789.087 L41.4442 789.087 L41.4442 782.849 L88.9642 782.849 L88.9642 791.506 L49.2103 812.577 L88.9642 812.577 L88.9642 818.815 L41.4442 818.815 Z" fill="#000000" fill-rule="evenodd" fill-opacity="1" /><path clip-path="url(#clip120)" d="M 0 0 M74.8959 777.311 L53.3162 777.311 L53.3162 771.454 L74.6731 771.454 Q79.7339 771.454 82.2802 769.481 Q84.7946 767.507 84.7946 763.561 Q84.7946 758.818 81.7709 756.081 Q78.7472 753.312 73.5273 753.312 L53.3162 753.312 L53.3162 747.455 L88.9642 747.455 L88.9642 753.312 L83.4896 753.312 Q86.7362 755.444 88.3276 758.277 Q89.8872 761.078 89.8872 764.802 Q89.8872 770.945 86.0678 774.128 Q82.2483 777.311 74.8959 777.311 M52.4568 762.574 L52.4568 762.574 Z" fill="#000000" fill-rule="evenodd" fill-opacity="1" /><path clip-path="url(#clip120)" d="M 0 0 M60.1593 713.558 Q56.2126 711.362 54.3347 708.306 Q52.4568 705.251 52.4568 701.113 Q52.4568 695.543 56.3717 692.519 Q60.2548 689.496 67.4481 689.496 L88.9642 689.496 L88.9642 695.384 L67.639 695.384 Q62.5146 695.384 60.032 697.198 Q57.5494 699.012 57.5494 702.736 Q57.5494 707.288 60.5731 709.93 Q63.5968 712.571 68.8167 712.571 L88.9642 712.571 L88.9642 718.46 L67.639 718.46 Q62.4828 718.46 60.032 720.274 Q57.5494 722.088 57.5494 725.876 Q57.5494 730.363 60.6049 733.005 Q63.6286 735.647 68.8167 735.647 L88.9642 735.647 L88.9642 741.535 L53.3162 741.535 L53.3162 735.647 L58.8544 735.647 Q55.576 733.642 54.0164 730.841 Q52.4568 728.04 52.4568 724.189 Q52.4568 720.306 54.4302 717.6 Q56.4036 714.863 60.1593 713.558 Z" fill="#000000" fill-rule="evenodd" fill-opacity="1" /><path clip-path="url(#clip120)" d="M 0 0 M71.172 657.763 Q64.7108 657.763 61.0505 660.436 Q57.3584 663.078 57.3584 667.725 Q57.3584 672.372 61.0505 675.045 Q64.7108 677.687 71.172 677.687 Q77.6332 677.687 81.3253 675.045 Q84.9856 672.372 84.9856 667.725 Q84.9856 663.078 81.3253 660.436 Q77.6332 657.763 71.172 657.763 M58.7271 677.687 Q55.5442 675.841 54.0164 673.04 Q52.4568 670.207 52.4568 666.293 Q52.4568 659.8 57.6131 655.757 Q62.7693 651.683 71.172 651.683 Q79.5747 651.683 84.731 655.757 Q89.8872 659.8 89.8872 666.293 Q89.8872 670.207 88.3594 673.04 Q86.7998 675.841 83.617 677.687 L88.9642 677.687 L88.9642 683.575 L39.439 683.575 L39.439 677.687 L58.7271 677.687 Z" fill="#000000" fill-rule="evenodd" fill-opacity="1" /><path clip-path="url(#clip120)" d="M 0 0 M69.6761 615.049 L72.5406 615.049 L72.5406 641.976 Q78.5881 641.594 81.7709 638.347 Q84.9219 635.069 84.9219 629.244 Q84.9219 625.87 84.0944 622.719 Q83.2669 619.536 81.6118 616.417 L87.1499 616.417 Q88.4867 619.568 89.187 622.878 Q89.8872 626.189 89.8872 629.594 Q89.8872 638.124 84.9219 643.121 Q79.9567 648.087 71.4903 648.087 Q62.7374 648.087 57.6131 643.376 Q52.4568 638.634 52.4568 630.613 Q52.4568 623.42 57.1038 619.25 Q61.7189 615.049 69.6761 615.049 M67.9573 620.905 Q63.1512 620.969 60.2866 623.611 Q57.4221 626.22 57.4221 630.549 Q57.4221 635.451 60.1912 638.411 Q62.9602 641.339 67.9892 641.785 L67.9573 620.905 Z" fill="#000000" fill-rule="evenodd" fill-opacity="1" /><path clip-path="url(#clip120)" d="M 0 0 M58.7907 588.249 Q58.2178 589.236 57.9632 590.413 Q57.6767 591.559 57.6767 592.96 Q57.6767 597.925 60.9232 600.598 Q64.1379 603.24 70.1853 603.24 L88.9642 603.24 L88.9642 609.129 L53.3162 609.129 L53.3162 603.24 L58.8544 603.24 Q55.6079 601.394 54.0483 598.434 Q52.4568 595.474 52.4568 591.241 Q52.4568 590.636 52.5523 589.904 Q52.616 589.172 52.7751 588.281 L58.7907 588.249 Z" fill="#000000" fill-rule="evenodd" fill-opacity="1" /><polyline clip-path="url(#clip122)" style="stroke:#009af9; stroke-width:4; stroke-opacity:1; fill:none" points="
  307.689,84.3925 320.131,85.6433 331.928,86.894 333.522,86.894 344.361,86.894 346.586,86.894 357.977,88.1448 367.049,88.1448 370.777,89.3956 390.182,90.6464 
  394.168,90.6464 408.362,91.8972 415.853,93.148 416.269,93.148 423.726,93.148 425.754,94.3988 431.535,94.3988 449.573,95.6495 458.989,95.6495 466.599,96.9003 
  475.361,96.9003 478.867,96.9003 482.594,98.1511 490.322,99.4019 497.173,100.653 519.382,100.653 529.316,101.903 529.567,101.903 533.03,103.154 533.83,104.405 
  538.079,105.656 539.202,106.907 545.548,106.907 559.762,108.157 570.571,109.408 577.79,109.408 577.881,110.659 580.599,111.91 583.116,113.161 598.2,113.161 
  602.713,114.411 607.773,115.662 608.143,115.662 608.595,116.913 610.915,116.913 612.682,116.913 613.777,116.913 614.929,118.164 619.003,119.414 619.455,119.414 
  620.695,119.414 621.792,120.665 625.259,120.665 626.23,121.916 627.56,121.916 632.881,123.167 637.662,124.418 638.273,124.418 639.444,125.668 643.289,126.919 
  649.069,128.17 650.073,129.421 654.673,130.672 655.576,131.922 656.248,131.922 657.094,133.173 657.763,134.424 659.493,135.675 670.36,135.675 670.425,136.926 
  673.611,136.926 674.885,138.176 676.785,138.176 678.182,139.427 678.697,140.678 679.583,140.678 681.941,140.678 685.307,140.678 688.588,141.929 690.086,143.179 
  690.451,144.43 698.985,145.681 699.245,145.681 700.088,145.681 703.206,146.932 704.547,146.932 706.49,148.183 710.182,148.183 710.486,148.183 716.071,149.433 
  717.752,150.684 725.653,151.935 727.292,153.186 731.778,154.437 733.206,155.687 741.574,156.938 743.904,158.189 746.858,158.189 750.205,158.189 750.929,159.44 
  752.657,160.69 752.68,160.69 753.782,161.941 758.651,163.192 760.172,163.192 762.039,164.443 763.082,165.694 764.276,166.944 768.738,168.195 769.876,168.195 
  772.227,168.195 775.634,169.446 777.653,170.697 779.812,171.948 782.512,173.198 785.037,173.198 788.244,174.449 790.87,175.7 794.064,176.951 796.04,176.951 
  800.264,178.201 804.634,179.452 805.11,179.452 809.952,179.452 812.324,179.452 812.979,180.703 815.09,181.954 815.17,181.954 818.541,183.205 822.347,183.205 
  826.52,184.455 828.634,184.455 829.137,184.455 831.643,184.455 835.764,185.706 837.516,186.957 837.938,188.208 838.368,188.208 839.29,189.459 840.127,190.709 
  842.189,191.96 843.15,193.211 844.53,193.211 844.914,194.462 847.595,195.712 848.491,196.963 850.317,198.214 851.598,199.465 853.208,200.716 853.913,201.966 
  855.622,203.217 857.19,204.468 858.697,204.468 858.752,205.719 859.052,205.719 860.184,206.97 860.76,206.97 864.017,206.97 864.228,206.97 864.833,208.22 
  865.859,209.471 866.174,210.722 866.862,211.973 868.881,213.224 871.979,214.474 874.591,214.474 876.419,215.725 877.751,215.725 880.509,215.725 881.192,216.976 
  881.206,216.976 881.31,218.227 881.463,218.227 882.062,219.477 882.388,219.477 883.052,220.728 883.432,221.979 886.046,223.23 886.955,223.23 888.925,224.481 
  888.995,225.731 890.726,226.982 892.367,228.233 892.617,229.484 892.641,230.735 893.386,231.985 893.86,231.985 893.928,231.985 894.335,231.985 895.185,231.985 
  895.9,231.985 897.506,233.236 898.124,234.487 898.601,235.738 898.649,236.988 899.741,238.239 900.468,239.49 905.684,239.49 906.186,240.741 906.355,241.992 
  906.502,243.242 906.713,244.493 909.671,244.493 909.741,245.744 911.774,246.995 912.516,246.995 913.152,248.246 913.678,249.496 915.346,249.496 915.791,249.496 
  917.199,249.496 917.716,250.747 919.153,251.998 920.434,253.249 921.072,254.499 922.488,255.75 923.738,255.75 924.77,257.001 924.906,258.252 926.829,258.252 
  929.182,259.503 932.264,260.753 933.055,262.004 933.095,262.004 935.506,263.255 935.58,264.506 936.315,265.757 937.96,267.007 940.759,268.258 941.199,269.509 
  942.822,270.76 943.267,270.76 944.823,272.01 946.201,273.261 948.293,273.261 949.616,274.512 951.633,275.763 953.423,277.014 953.493,277.014 953.91,278.264 
  954.795,279.515 955.545,280.766 955.65,280.766 956.165,280.766 957.615,282.017 957.689,283.268 958.153,284.518 961.695,285.769 962.825,287.02 963.212,287.02 
  963.423,288.271 964.852,288.271 965.399,288.271 966.46,288.271 966.899,288.271 967.079,288.271 967.318,289.522 967.849,290.772 970.271,290.772 972.193,292.023 
  972.316,292.023 972.797,293.274 973.53,294.525 975.753,295.775 979.204,295.775 979.58,297.026 979.619,298.277 979.83,298.277 979.982,298.277 980.683,299.528 
  980.693,299.528 980.916,300.779 983.99,300.779 984.222,300.779 985.813,302.029 987.969,303.28 988.864,304.531 989.107,304.531 990.694,305.782 991.547,307.033 
  991.58,308.283 992.963,309.534 993.776,309.534 994.76,310.785 995.129,312.036 996.426,313.286 999.407,314.537 1000.24,315.788 1001.65,317.039 1003,318.29 
  1003.91,318.29 1006.02,319.54 1006.74,320.791 1007.44,322.042 1007.58,323.293 1008.42,324.544 1008.65,324.544 1009.58,325.794 1009.81,327.045 1014.34,328.296 
  1014.83,329.547 1014.84,329.547 1015.4,329.547 1016.15,330.797 1016.72,330.797 1017.44,330.797 1017.99,330.797 1018.18,332.048 1018.27,333.299 1019.2,334.55 
  1021.31,335.801 1021.99,335.801 1022.76,337.051 1023.54,338.302 1023.58,339.553 1023.94,340.804 1024.54,342.055 1024.82,342.055 1025.37,343.305 1026.23,343.305 
  1027.6,344.556 1028.27,344.556 1030.31,344.556 1032.28,344.556 1033.36,344.556 1033.8,344.556 1035.61,344.556 1037.09,345.807 1037.36,347.058 1038.17,348.308 
  1039.01,349.559 1039.91,350.81 1039.95,352.061 1040.26,352.061 1040.83,353.312 1040.85,354.562 1041.03,355.813 1041.06,357.064 1041.3,357.064 1041.51,358.315 
  1042.75,358.315 1043.25,359.566 1043.94,359.566 1044.28,359.566 1045.48,359.566 1046.2,360.816 1047.75,362.067 1047.93,363.318 1049.25,363.318 1049.98,364.569 
  1050.88,365.82 1051.21,367.07 1051.32,368.321 1051.62,369.572 1052.33,370.823 1052.56,372.073 1053.05,372.073 1053.57,373.324 1055.6,373.324 1055.66,373.324 
  1056.34,373.324 1056.59,374.575 1057.26,375.826 1057.31,375.826 1058.81,377.077 1059.48,377.077 1062.12,378.327 1063.35,378.327 1064.32,379.578 1064.73,380.829 
  1065.16,380.829 1065.19,380.829 1065.38,380.829 1066.44,380.829 1066.8,382.08 1067,383.331 1067.91,383.331 1067.97,384.581 1068.26,384.581 1068.35,385.832 
  1068.94,385.832 1069.42,385.832 1070.24,387.083 1070.45,387.083 1070.73,388.334 1071.63,389.584 1072.31,389.584 1073.13,389.584 1074.61,389.584 1074.88,389.584 
  1074.93,390.835 1075.56,392.086 1076.01,393.337 1076.07,394.588 1076.61,395.838 1076.77,395.838 1077.15,395.838 1078.13,397.089 1078.68,398.34 1079.47,398.34 
  1080.73,399.591 1081.51,399.591 1081.86,400.842 1083.42,402.092 1083.45,402.092 1085.03,403.343 1085.48,404.594 1085.95,405.845 1086.62,405.845 1087.34,407.095 
  1088.45,408.346 1089.43,409.597 1090.55,409.597 1090.83,410.848 1090.88,412.099 1091.05,413.349 1091.17,414.6 1091.27,414.6 1091.41,415.851 1092.37,417.102 
  1092.65,417.102 1092.7,417.102 1093.01,417.102 1093.37,418.353 1093.82,418.353 1094.17,419.603 1094.96,420.854 1095.04,420.854 1096.51,420.854 1096.89,422.105 
  1097.07,422.105 1097.77,423.356 1098.23,424.606 1098.53,424.606 1099.66,425.857 1100.13,425.857 1100.29,427.108 1100.45,428.359 1100.73,428.359 1101.31,429.61 
  1102.33,429.61 1103.26,430.86 1104.11,432.111 1104.32,433.362 1106.44,434.613 1107.3,435.864 1107.31,437.114 1107.47,438.365 1107.81,439.616 1108.15,439.616 
  1108.15,440.867 1108.49,442.118 1109,443.368 1110.85,444.619 1111.93,444.619 1112.13,445.87 1112.9,447.121 1114.15,447.121 1115.17,448.371 1116.05,448.371 
  1116.96,448.371 1119.24,448.371 1119.64,449.622 1120.36,449.622 1120.53,449.622 1120.66,450.873 1121.27,452.124 1121.5,453.375 1122.41,454.625 1123.93,455.876 
  1124.07,457.127 1124.18,457.127 1124.81,457.127 1125.24,458.378 1126.03,459.629 1127.44,459.629 1127.65,460.879 1128.11,460.879 1128.82,460.879 1128.99,462.13 
  1129.24,463.381 1129.3,464.632 1129.33,465.882 1129.71,467.133 1130.53,467.133 1131.36,467.133 1131.73,467.133 1135.74,468.384 1135.98,469.635 1136.33,470.886 
  1136.55,470.886 1136.83,472.136 1138.41,473.387 1138.46,474.638 1138.55,474.638 1138.91,475.889 1139.24,477.14 1140.44,477.14 1140.73,478.39 1141.22,479.641 
  1141.52,479.641 1141.64,480.892 1141.98,482.143 1142.04,482.143 1145.19,483.393 1145.79,484.644 1146.02,484.644 1146.29,485.895 1146.45,487.146 1146.61,487.146 
  1146.99,488.397 1148.2,489.647 1151.48,490.898 1151.71,492.149 1151.88,493.4 1151.94,493.4 1154.1,494.651 1154.48,494.651 1154.73,494.651 1155.27,495.901 
  1155.37,497.152 1157.19,498.403 1157.23,498.403 1157.28,499.654 1157.59,500.904 1158.14,500.904 1158.56,502.155 1158.6,502.155 1159.08,503.406 1159.75,503.406 
  1162.32,503.406 1162.37,504.657 1163.06,504.657 1163.61,505.908 1164.06,505.908 1164.23,505.908 1165.98,505.908 1166.61,505.908 1167.77,505.908 1167.93,507.158 
  1168.27,507.158 1168.52,508.409 1168.78,508.409 1169.14,508.409 1169.92,509.66 1171.4,509.66 1171.92,510.911 1171.97,512.162 1173.54,513.412 1174.22,513.412 
  1174.58,514.663 1176.21,515.914 1177.01,517.165 1177.17,518.416 1177.5,518.416 1177.91,519.666 1180.52,519.666 1181.1,520.917 1181.16,522.168 1181.46,523.419 
  1182.02,524.669 1182.34,525.92 1183.02,525.92 1183.16,527.171 1183.38,528.422 1185.73,528.422 1186.48,529.673 1187.32,530.923 1187.72,532.174 1188.14,533.425 
  1189.16,533.425 1189.19,533.425 1190.12,534.676 1191.98,535.927 1192.36,535.927 1194.35,535.927 1194.4,537.177 1195.54,537.177 1196.51,538.428 1197.1,538.428 
  1197.51,538.428 1198.21,539.679 1199.89,540.93 1200.52,540.93 1202.42,540.93 1202.9,540.93 1203.42,542.18 1204.09,542.18 1204.6,543.431 1205.4,543.431 
  1205.89,544.682 1205.98,545.933 1206.24,545.933 1207.14,547.184 1207.46,548.434 1207.64,548.434 1207.76,549.685 1208.43,549.685 1208.91,549.685 1209.43,550.936 
  1209.47,552.187 1209.53,552.187 1210.07,553.438 1210.11,554.688 1210.3,554.688 1210.65,555.939 1211.1,555.939 1211.16,555.939 1211.31,555.939 1211.32,555.939 
  1211.34,555.939 1213.36,557.19 1214.84,557.19 1215.58,557.19 1216.01,558.441 1217.09,559.691 1217.44,560.942 1218.01,562.193 1218.63,562.193 1219.68,562.193 
  1219.99,562.193 1220,563.444 1220.12,563.444 1220.64,563.444 1221.09,563.444 1221.87,564.695 1221.98,565.945 1221.99,565.945 1222.03,567.196 1222.04,567.196 
  1222.16,568.447 1222.68,568.447 1224.37,569.698 1224.93,569.698 1225.24,569.698 1226.75,570.949 1226.86,572.199 1227.23,573.45 1227.69,574.701 1227.83,574.701 
  1228.68,575.952 1228.98,575.952 1229.18,575.952 1231.7,577.202 1233.07,578.453 1233.29,578.453 1233.79,578.453 1236.22,578.453 1237.21,578.453 1237.47,578.453 
  1237.6,579.704 1238.34,580.955 1240.01,582.206 1240.21,582.206 1242.16,582.206 1242.55,583.456 1243.27,583.456 1243.95,584.707 1245.22,585.958 1245.32,587.209 
  1245.43,588.46 1245.89,588.46 1246.13,588.46 1246.21,589.71 1246.5,589.71 1246.95,589.71 1247.68,590.961 1248.29,592.212 1248.94,593.463 1249.72,593.463 
  1249.97,593.463 1251.46,594.714 1252.04,595.964 1252.25,597.215 1252.58,598.466 1253.06,598.466 1253.72,598.466 1254.07,598.466 1254.15,598.466 1255.06,598.466 
  1255.42,599.717 1255.59,600.967 1255.98,602.218 1257.56,603.469 1258.1,604.72 1258.28,605.971 1258.33,607.221 1258.61,607.221 1258.77,608.472 1258.86,608.472 
  1259.3,609.723 1259.83,609.723 1260.67,610.974 1261.04,610.974 1262.23,610.974 1262.37,610.974 1263.65,610.974 1264.67,610.974 1264.84,612.225 1264.95,613.475 
  1265.57,614.726 1265.75,615.977 1266.14,615.977 1266.68,615.977 1266.78,617.228 1267.33,618.478 1267.62,619.729 1268.47,620.98 1268.73,620.98 1269.98,622.231 
  1271.07,623.482 1271.22,623.482 1272.36,623.482 1272.9,624.732 1273.16,625.983 1273.21,625.983 1273.76,625.983 1274.44,627.234 1274.77,627.234 1275.64,628.485 
  1276.47,629.736 1277.17,630.986 1277.71,632.237 1278.48,633.488 1278.88,634.739 1279.3,634.739 1279.48,634.739 1279.62,635.989 1280.25,637.24 1281.5,638.491 
  1282.18,638.491 1282.27,639.742 1282.82,639.742 1283.71,640.993 1284.11,640.993 1285.06,640.993 1285.3,640.993 1285.59,640.993 1285.72,640.993 1286.05,642.243 
  1286.22,642.243 1286.66,643.494 1286.85,643.494 1287.75,644.745 1288.25,645.996 1290.02,645.996 1290.23,647.247 1290.23,648.497 1290.44,648.497 1291.09,649.748 
  1291.2,649.748 1292.34,649.748 1292.91,649.748 1293.63,649.748 1294.13,649.748 1294.27,650.999 1294.8,652.25 1295.31,652.25 1295.7,653.5 1295.73,654.751 
  1296.89,656.002 1298.27,656.002 1299.82,657.253 1299.9,657.253 1301.66,657.253 1302.72,658.504 1303.19,658.504 1304,659.754 1304.49,659.754 1306.82,661.005 
  1307.28,661.005 1307.72,662.256 1308.14,663.507 1309.4,663.507 1309.49,664.758 1309.56,666.008 1309.81,666.008 1310.02,666.008 1310.17,666.008 1310.42,666.008 
  1310.63,666.008 1310.71,667.259 1311.24,668.51 1311.42,669.761 1311.48,669.761 1311.82,671.012 1312.04,672.262 1312.42,673.513 1312.44,673.513 1312.48,674.764 
  1313.18,676.015 1313.21,676.015 1313.43,677.265 1313.58,677.265 1314.86,677.265 1315.44,677.265 1315.96,677.265 1318.1,678.516 1319.18,678.516 1319.61,679.767 
  1319.76,679.767 1319.8,679.767 1320.37,681.018 1321.23,682.269 1321.32,682.269 1321.57,683.519 1323.41,683.519 1323.84,684.77 1323.89,686.021 1325.22,687.272 
  1325.36,687.272 1325.37,688.523 1325.55,688.523 1326.19,689.773 1326.34,689.773 1327.67,691.024 1328.67,691.024 1328.77,691.024 1329.41,691.024 1330.05,692.275 
  1330.4,692.275 1330.97,693.526 1331.45,693.526 1333.1,694.776 1333.44,696.027 1336.85,696.027 1337.93,696.027 1338.27,696.027 1338.99,697.278 1339.06,698.529 
  1339.23,699.78 1339.89,699.78 1343.48,701.03 1343.5,702.281 1345.11,703.532 1345.97,703.532 1346.13,704.783 1346.73,704.783 1347.73,706.034 1348.6,706.034 
  1348.98,706.034 1349.14,706.034 1349.5,706.034 1349.95,706.034 1350.61,707.284 1350.9,707.284 1351.47,708.535 1352.52,709.786 1352.86,709.786 1352.91,709.786 
  1352.98,709.786 1353.14,711.037 1353.42,711.037 1353.77,711.037 1354.25,711.037 1354.42,712.287 1354.55,712.287 1354.76,712.287 1355.64,712.287 1356.59,712.287 
  1357.52,713.538 1357.64,713.538 1357.86,714.789 1357.99,714.789 1358.23,714.789 1359.09,716.04 1360.1,717.291 1360.56,718.541 1361.08,719.792 1361.7,721.043 
  1361.81,721.043 1365.32,721.043 1365.64,722.294 1366.59,723.545 1366.85,723.545 1367.92,724.795 1367.94,724.795 1368.75,724.795 1369.1,726.046 1369.7,727.297 
  1370.03,728.548 1370.28,728.548 1370.49,728.548 1370.59,728.548 1370.8,728.548 1371.31,728.548 1371.58,728.548 1372,729.798 1372.76,729.798 1372.82,729.798 
  1373.5,731.049 1374.22,732.3 1376.63,733.551 1377.09,734.802 1378,734.802 1378.74,736.052 1378.95,737.303 1379.32,737.303 1379.37,738.554 1380.58,739.805 
  1380.68,739.805 1382.44,741.056 1382.78,741.056 1383.67,742.306 1384.39,743.557 1384.46,743.557 1384.5,743.557 1384.57,743.557 1384.95,744.808 1385.71,746.059 
  1386.34,746.059 1387.07,746.059 1387.12,747.31 1387.29,748.56 1387.33,749.811 1387.83,749.811 1387.95,751.062 1388.93,752.313 1388.99,752.313 1389.14,753.563 
  1389.68,753.563 1389.95,753.563 1390.15,754.814 1390.43,754.814 1391.17,756.065 1391.56,756.065 1392.62,756.065 1393.22,757.316 1393.55,757.316 1393.98,757.316 
  1394.24,758.567 1396.25,759.817 1396.77,759.817 1396.98,759.817 1398.54,761.068 1399.78,762.319 1400.29,763.57 1402.34,764.821 1402.91,766.071 1404.1,766.071 
  1404.5,766.071 1404.72,767.322 1405.09,768.573 1405.34,769.824 1405.4,769.824 1405.76,771.074 1406.57,771.074 1406.71,772.325 1407.09,772.325 1407.71,772.325 
  1407.82,773.576 1408.66,774.827 1409.36,776.078 1410.01,776.078 1410.53,776.078 1411.6,776.078 1411.85,777.328 1411.93,778.579 1412.58,779.83 1414.13,781.081 
  1414.23,781.081 1414.31,781.081 1414.53,782.332 1416.98,783.582 1417.7,783.582 1418.35,784.833 1418.43,786.084 1420.05,787.335 1421.22,787.335 1421.62,787.335 
  1423.52,787.335 1423.66,787.335 1423.72,787.335 1423.93,788.585 1424.03,788.585 1424.7,788.585 1425.27,788.585 1426.41,788.585 1427.35,788.585 1427.64,788.585 
  1427.91,789.836 1428.02,791.087 1428.26,792.338 1428.91,792.338 1429.09,793.589 1429.62,794.839 1429.86,794.839 1430.11,796.09 1431.03,796.09 1432.3,796.09 
  1432.57,797.341 1432.71,798.592 1434.85,798.592 1437.54,799.843 1438.41,799.843 1438.74,799.843 1438.86,801.093 1441.11,801.093 1441.74,802.344 1441.84,802.344 
  1442.2,802.344 1443.06,802.344 1445.67,802.344 1446.15,802.344 1446.62,802.344 1447.49,802.344 1447.7,802.344 1448.4,802.344 1449.5,802.344 1450.74,802.344 
  1450.82,803.595 1450.95,803.595 1451.24,803.595 1451.47,803.595 1452.22,803.595 1452.43,803.595 1452.82,803.595 1453.71,803.595 1455.67,803.595 1455.96,803.595 
  1455.99,803.595 1456.31,803.595 1457.74,804.846 1458.13,806.096 1459.12,806.096 1459.41,807.347 1460.24,808.598 1460.52,809.849 1462.51,811.1 1462.78,812.35 
  1464.55,813.601 1466.42,814.852 1467.51,816.103 1467.92,816.103 1468.46,816.103 1468.89,816.103 1469.04,817.354 1471.5,817.354 1474.14,818.604 1474.38,819.855 
  1475.91,821.106 1476.46,822.357 1476.53,823.608 1476.73,823.608 1476.78,823.608 1477.08,823.608 1477.73,823.608 1478.9,824.858 1479.45,826.109 1479.51,826.109 
  1481.84,827.36 1482.08,827.36 1482.43,827.36 1483.41,827.36 1483.41,827.36 1486.69,828.611 1486.74,829.861 1487.13,829.861 1487.18,829.861 1488.08,831.112 
  1488.64,831.112 1488.82,831.112 1489.04,832.363 1490.72,832.363 1491.07,832.363 1492.31,832.363 1492.51,833.614 1492.58,833.614 1493.76,833.614 1493.82,833.614 
  1494.03,833.614 1494.38,833.614 1494.7,833.614 1496.12,833.614 1496.51,833.614 1497.38,834.865 1498.04,836.115 1498.82,836.115 1499.24,836.115 1499.67,836.115 
  1503.59,836.115 1504.1,836.115 1504.43,837.366 1504.48,837.366 1507.03,838.617 1507.32,839.868 1507.81,839.868 1508.32,839.868 1509.47,839.868 1509.8,841.119 
  1511.67,842.369 1511.94,842.369 1512.73,842.369 1512.78,842.369 1513.06,843.62 1513.07,843.62 1513.2,843.62 1515.09,843.62 1517.93,844.871 1518.57,846.122 
  1518.68,846.122 1521.32,846.122 1521.77,846.122 1523.36,847.372 1524.32,848.623 1524.87,849.874 1525.15,851.125 1528.87,851.125 1528.87,852.376 1529.07,853.626 
  1529.79,854.877 1530.79,854.877 1531.28,854.877 1531.92,856.128 1532.41,856.128 1535.86,856.128 1536.85,857.379 1538.15,858.63 1538.26,858.63 1540.91,859.88 
  1541.39,859.88 1542.03,859.88 1542.87,859.88 1542.93,861.131 1543.13,861.131 1543.13,861.131 1544.94,862.382 1545.11,862.382 1547.52,862.382 1548.1,862.382 
  1549.22,862.382 1549.37,863.633 1549.49,863.633 1551.76,864.883 1552.04,866.134 1553.48,866.134 1553.57,866.134 1553.77,866.134 1555.25,866.134 1555.67,867.385 
  1555.98,867.385 1556.89,867.385 1556.94,867.385 1558.3,868.636 1558.48,868.636 1559.09,868.636 1561.43,868.636 1562.67,869.887 1562.9,869.887 1565.6,871.137 
  1566.12,871.137 1566.88,871.137 1568.27,872.388 1568.72,873.639 1570.93,873.639 1571.44,873.639 1572.62,874.89 1572.97,874.89 1574.01,876.141 1574.54,876.141 
  1574.87,876.141 1576.09,876.141 1576.95,877.391 1577.12,878.642 1578.91,878.642 1579.31,879.893 1579.91,879.893 1580.69,881.144 1580.9,882.394 1580.98,882.394 
  1581.06,882.394 1581.49,883.645 1582.96,883.645 1583.01,883.645 1583.54,883.645 1584.98,883.645 1586.54,884.896 1588.42,886.147 1591.4,886.147 1591.75,886.147 
  1593.03,887.398 1593.86,887.398 1594.62,888.648 1594.83,889.899 1594.98,889.899 1595.34,889.899 1595.59,889.899 1595.91,891.15 1598.28,891.15 1599.31,891.15 
  1599.45,892.401 1600.46,892.401 1600.62,893.652 1601.01,894.902 1601.17,894.902 1601.8,894.902 1602.3,896.153 1603.61,896.153 1604.93,897.404 1604.97,898.655 
  1605.93,898.655 1606.32,899.906 1607.37,901.156 1610.83,901.156 1612.45,902.407 1613.26,902.407 1614.22,902.407 1614.29,902.407 1615.26,902.407 1617.75,902.407 
  1620.1,902.407 1620.12,902.407 1622.33,902.407 1622.47,903.658 1624.02,904.909 1627.15,904.909 1627.97,904.909 1628.23,906.159 1630.13,906.159 1632.22,906.159 
  1633.06,906.159 1634.14,906.159 1635.17,907.41 1637.34,907.41 1641.51,907.41 1642.06,908.661 1642.57,908.661 1642.86,908.661 1642.9,908.661 1644.52,909.912 
  1645.26,909.912 1645.88,911.163 1647.81,912.413 1650.18,912.413 1653.46,913.664 1653.61,913.664 1656.83,913.664 1657.46,913.664 1657.63,914.915 1658.38,916.166 
  1661.02,916.166 1662.37,916.166 1663.52,916.166 1664.94,917.417 1666.37,917.417 1667.11,917.417 1668.17,917.417 1668.33,918.667 1669.57,918.667 1672.11,918.667 
  1672.51,918.667 1673.01,918.667 1673.28,919.918 1673.9,919.918 1674.66,919.918 1677.27,919.918 1682.26,921.169 1683.05,921.169 1684.11,921.169 1684.93,921.169 
  1685.34,921.169 1685.42,921.169 1686.77,921.169 1691.76,921.169 1692.76,921.169 1693.8,921.169 1697.76,921.169 1697.99,921.169 1699.57,921.169 1700.48,921.169 
  1701.63,922.42 1705.15,923.67 1706.62,924.921 1706.92,924.921 1707.81,926.172 1708.04,926.172 1714.93,927.423 1721.74,927.423 1721.74,927.423 1723.23,927.423 
  1723.36,928.674 1723.78,928.674 1725.75,928.674 1727.61,929.924 1728.62,929.924 1728.98,929.924 1729.29,929.924 1731.22,931.175 1731.82,931.175 1733.06,932.426 
  1734.25,933.677 1736.72,933.677 1737.04,933.677 1738.14,934.928 1739.95,936.178 1740.43,936.178 1740.43,937.429 1740.5,938.68 1740.52,938.68 1741.79,938.68 
  1747.5,938.68 1749.03,939.931 1751,939.931 1754.9,941.181 1754.91,941.181 1755.13,941.181 1756.1,941.181 1756.47,941.181 1759.19,942.432 1759.56,942.432 
  1760.85,943.683 1763.19,943.683 1764.6,943.683 1764.93,944.934 1765.32,944.934 1767.13,944.934 1767.38,944.934 1779.06,946.185 1782.32,947.435 1784.77,947.435 
  1786.71,947.435 1788.51,947.435 1791.89,948.686 1792.26,948.686 1793.84,949.937 1794.87,949.937 1794.94,949.937 1795.38,949.937 1795.49,951.188 1796.5,951.188 
  1797.04,952.439 1798.75,953.689 1801.53,954.94 1801.67,954.94 1804.54,954.94 1805.35,954.94 1808.96,954.94 1809.37,954.94 1810.56,954.94 1812.47,954.94 
  1813.4,954.94 1813.77,954.94 1815.07,956.191 1817.89,957.442 1818.23,958.692 1819.59,958.692 1820.15,959.943 1820.71,959.943 1822.19,961.194 1826.75,962.445 
  1827.78,962.445 1832,962.445 1833.48,963.696 1834.18,964.946 1835.69,964.946 1835.75,964.946 1837.5,964.946 1837.79,966.197 1837.93,967.448 1838.88,967.448 
  1840.38,967.448 1842.93,968.699 1843.41,968.699 1844.49,969.95 1845.21,971.2 1845.55,971.2 1845.73,972.451 1858.28,972.451 1861.77,973.702 1862.78,973.702 
  1864.88,973.702 1865.94,973.702 1866.92,974.953 1868.64,976.204 1870.17,977.454 1872.68,977.454 1872.84,977.454 1872.99,977.454 1876.64,977.454 1878.69,977.454 
  1885.17,977.454 1886.7,977.454 1888.69,978.705 1890.17,979.956 1895.81,979.956 1895.93,981.207 1897.68,981.207 1902.34,981.207 1903.49,982.457 1904.93,982.457 
  1909.6,982.457 1912.61,982.457 1913.25,982.457 1914.32,982.457 1914.36,982.457 1915.36,983.708 1916,983.708 1916.32,984.959 1916.36,986.21 1916.88,986.21 
  1917.99,987.461 1919,988.711 1920.21,988.711 1920.73,989.962 1922.14,989.962 1923.95,991.213 1925.32,992.464 1929.02,992.464 1930.62,993.715 1933.21,993.715 
  1939.85,993.715 1941.8,994.965 1944.87,996.216 1945.95,997.467 1946.9,997.467 1948.05,998.718 1954.04,999.968 1954.99,999.968 1955.64,999.968 1957.48,999.968 
  1960.52,999.968 1961.68,999.968 1963.83,999.968 1965.81,999.968 1965.9,999.968 1966.05,1001.22 1966.1,1002.47 1969.52,1003.72 1970.28,1004.97 1970.72,1004.97 
  1973.49,1004.97 1973.81,1004.97 1975.99,1004.97 1979.17,1004.97 1980.45,1004.97 1984.03,1004.97 1984.85,1006.22 1984.87,1006.22 1987.96,1007.47 1990.48,1007.47 
  1992.77,1007.47 2003.25,1007.47 2010.52,1008.72 2013,1008.72 2016.46,1008.72 2018.8,1008.72 2023.27,1009.97 2023.51,1009.97 2024.15,1011.23 2024.44,1012.48 
  2025.2,1012.48 2027.55,1013.73 2028.2,1013.73 2029.97,1013.73 2030.44,1013.73 2034.49,1013.73 2038,1014.98 2038.44,1014.98 2041.57,1014.98 2044.84,1016.23 
  2045.24,1016.23 2046.73,1016.23 2057.09,1016.23 2057.93,1016.23 2062.18,1016.23 2066.57,1016.23 2069.2,1016.23 2069.34,1016.23 2070.61,1016.23 2072.23,1016.23 
  2082.31,1016.23 2085.04,1017.48 2087.91,1017.48 2091.62,1017.48 2094.2,1018.73 2095.58,1018.73 2099.52,1018.73 2105.33,1018.73 2106.56,1018.73 2107.94,1018.73 
  2112.5,1018.73 2112.7,1018.73 2119.29,1019.98 2119.48,1021.23 2122.74,1021.23 2126.31,1022.48 2129.52,1022.48 2134.84,1022.48 2135.71,1023.73 2139.05,1023.73 
  2139.79,1023.73 2146.12,1023.73 2160.83,1024.98 2162.68,1026.23 2164.88,1026.23 2172.43,1027.49 2173.23,1027.49 2174.04,1027.49 2180.02,1028.74 2189.02,1028.74 
  2195.16,1029.99 2198.93,1031.24 2199.74,1031.24 2199.99,1032.49 
  "/>
<polyline clip-path="url(#clip122)" style="stroke:#e26f46; stroke-width:4; stroke-opacity:1; fill:none" points="
  307.689,1310.16 320.131,1308.91 331.928,1307.66 333.522,1308.91 344.361,1310.16 346.586,1311.41 357.977,1310.16 367.049,1311.41 370.777,1310.16 390.182,1308.91 
  394.168,1310.16 408.362,1308.91 415.853,1307.66 416.269,1308.91 423.726,1310.16 425.754,1308.91 431.535,1310.16 449.573,1308.91 458.989,1310.16 466.599,1308.91 
  475.361,1310.16 478.867,1311.41 482.594,1310.16 490.322,1308.91 497.173,1307.66 519.382,1308.91 529.316,1307.66 529.567,1308.91 533.03,1307.66 533.83,1306.41 
  538.079,1305.16 539.202,1303.91 545.548,1305.16 559.762,1303.91 570.571,1302.66 577.79,1303.91 577.881,1302.66 580.599,1301.41 583.116,1300.16 598.2,1301.41 
  602.713,1300.16 607.773,1298.91 608.143,1300.16 608.595,1298.91 610.915,1300.16 612.682,1301.41 613.777,1302.66 614.929,1301.41 619.003,1300.16 619.455,1301.41 
  620.695,1302.66 621.792,1301.41 625.259,1302.66 626.23,1301.41 627.56,1302.66 632.881,1301.41 637.662,1300.16 638.273,1301.41 639.444,1300.16 643.289,1298.91 
  649.069,1297.66 650.073,1296.4 654.673,1295.15 655.576,1293.9 656.248,1295.15 657.094,1293.9 657.763,1292.65 659.493,1291.4 670.36,1292.65 670.425,1291.4 
  673.611,1292.65 674.885,1291.4 676.785,1292.65 678.182,1291.4 678.697,1290.15 679.583,1291.4 681.941,1292.65 685.307,1293.9 688.588,1292.65 690.086,1291.4 
  690.451,1290.15 698.985,1288.9 699.245,1290.15 700.088,1291.4 703.206,1290.15 704.547,1291.4 706.49,1290.15 710.182,1291.4 710.486,1292.65 716.071,1291.4 
  717.752,1290.15 725.653,1288.9 727.292,1287.65 731.778,1286.4 733.206,1285.15 741.574,1283.9 743.904,1282.65 746.858,1283.9 750.205,1285.15 750.929,1283.9 
  752.657,1282.65 752.68,1283.9 753.782,1282.65 758.651,1281.4 760.172,1282.65 762.039,1281.4 763.082,1280.14 764.276,1278.89 768.738,1277.64 769.876,1278.89 
  772.227,1280.14 775.634,1278.89 777.653,1277.64 779.812,1276.39 782.512,1275.14 785.037,1276.39 788.244,1275.14 790.87,1273.89 794.064,1272.64 796.04,1273.89 
  800.264,1272.64 804.634,1271.39 805.11,1272.64 809.952,1273.89 812.324,1275.14 812.979,1273.89 815.09,1272.64 815.17,1273.89 818.541,1272.64 822.347,1273.89 
  826.52,1272.64 828.634,1273.89 829.137,1275.14 831.643,1276.39 835.764,1275.14 837.516,1273.89 837.938,1272.64 838.368,1273.89 839.29,1272.64 840.127,1271.39 
  842.189,1270.14 843.15,1268.89 844.53,1270.14 844.914,1268.89 847.595,1267.64 848.491,1266.39 850.317,1265.14 851.598,1263.88 853.208,1262.63 853.913,1261.38 
  855.622,1260.13 857.19,1258.88 858.697,1260.13 858.752,1258.88 859.052,1260.13 860.184,1258.88 860.76,1260.13 864.017,1261.38 864.228,1262.63 864.833,1261.38 
  865.859,1260.13 866.174,1258.88 866.862,1257.63 868.881,1256.38 871.979,1255.13 874.591,1256.38 876.419,1255.13 877.751,1256.38 880.509,1257.63 881.192,1256.38 
  881.206,1257.63 881.31,1256.38 881.463,1257.63 882.062,1256.38 882.388,1257.63 883.052,1256.38 883.432,1255.13 886.046,1253.88 886.955,1255.13 888.925,1253.88 
  888.995,1252.63 890.726,1251.38 892.367,1250.13 892.617,1248.88 892.641,1247.62 893.386,1246.37 893.86,1247.62 893.928,1248.88 894.335,1250.13 895.185,1251.38 
  895.9,1252.63 897.506,1251.38 898.124,1250.13 898.601,1248.88 898.649,1247.62 899.741,1246.37 900.468,1245.12 905.684,1246.37 906.186,1245.12 906.355,1243.87 
  906.502,1242.62 906.713,1241.37 909.671,1242.62 909.741,1241.37 911.774,1240.12 912.516,1241.37 913.152,1240.12 913.678,1238.87 915.346,1240.12 915.791,1241.37 
  917.199,1242.62 917.716,1241.37 919.153,1240.12 920.434,1238.87 921.072,1237.62 922.488,1236.37 923.738,1237.62 924.77,1236.37 924.906,1235.12 926.829,1236.37 
  929.182,1235.12 932.264,1233.87 933.055,1232.61 933.095,1233.87 935.506,1232.61 935.58,1231.36 936.315,1230.11 937.96,1228.86 940.759,1227.61 941.199,1226.36 
  942.822,1225.11 943.267,1226.36 944.823,1225.11 946.201,1223.86 948.293,1225.11 949.616,1223.86 951.633,1222.61 953.423,1221.36 953.493,1222.61 953.91,1221.36 
  954.795,1220.11 955.545,1218.86 955.65,1220.11 956.165,1221.36 957.615,1220.11 957.689,1218.86 958.153,1217.61 961.695,1216.35 962.825,1215.1 963.212,1216.35 
  963.423,1215.1 964.852,1216.35 965.399,1217.61 966.46,1218.86 966.899,1220.11 967.079,1221.36 967.318,1220.11 967.849,1218.86 970.271,1220.11 972.193,1218.86 
  972.316,1220.11 972.797,1218.86 973.53,1217.61 975.753,1216.35 979.204,1217.61 979.58,1216.35 979.619,1215.1 979.83,1216.35 979.982,1217.61 980.683,1216.35 
  980.693,1217.61 980.916,1216.35 983.99,1217.61 984.222,1218.86 985.813,1217.61 987.969,1216.35 988.864,1215.1 989.107,1216.35 990.694,1215.1 991.547,1213.85 
  991.58,1212.6 992.963,1211.35 993.776,1212.6 994.76,1211.35 995.129,1210.1 996.426,1208.85 999.407,1207.6 1000.24,1206.35 1001.65,1205.1 1003,1203.85 
  1003.91,1205.1 1006.02,1203.85 1006.74,1202.6 1007.44,1201.35 1007.58,1200.09 1008.42,1198.84 1008.65,1200.09 1009.58,1198.84 1009.81,1197.59 1014.34,1196.34 
  1014.83,1195.09 1014.84,1196.34 1015.4,1197.59 1016.15,1196.34 1016.72,1197.59 1017.44,1198.84 1017.99,1200.09 1018.18,1198.84 1018.27,1197.59 1019.2,1196.34 
  1021.31,1195.09 1021.99,1196.34 1022.76,1195.09 1023.54,1193.84 1023.58,1192.59 1023.94,1191.34 1024.54,1190.09 1024.82,1191.34 1025.37,1190.09 1026.23,1191.34 
  1027.6,1190.09 1028.27,1191.34 1030.31,1192.59 1032.28,1193.84 1033.36,1195.09 1033.8,1196.34 1035.61,1197.59 1037.09,1196.34 1037.36,1195.09 1038.17,1193.84 
  1039.01,1192.59 1039.91,1191.34 1039.95,1190.09 1040.26,1191.34 1040.83,1190.09 1040.85,1188.84 1041.03,1187.59 1041.06,1186.34 1041.3,1187.59 1041.51,1186.34 
  1042.75,1187.59 1043.25,1186.34 1043.94,1187.59 1044.28,1188.84 1045.48,1190.09 1046.2,1188.84 1047.75,1187.59 1047.93,1186.34 1049.25,1187.59 1049.98,1186.34 
  1050.88,1185.08 1051.21,1183.83 1051.32,1182.58 1051.62,1181.33 1052.33,1180.08 1052.56,1178.83 1053.05,1180.08 1053.57,1178.83 1055.6,1180.08 1055.66,1181.33 
  1056.34,1182.58 1056.59,1181.33 1057.26,1180.08 1057.31,1181.33 1058.81,1180.08 1059.48,1181.33 1062.12,1180.08 1063.35,1181.33 1064.32,1180.08 1064.73,1178.83 
  1065.16,1180.08 1065.19,1181.33 1065.38,1182.58 1066.44,1183.83 1066.8,1182.58 1067,1181.33 1067.91,1182.58 1067.97,1181.33 1068.26,1182.58 1068.35,1181.33 
  1068.94,1182.58 1069.42,1183.83 1070.24,1182.58 1070.45,1183.83 1070.73,1182.58 1071.63,1181.33 1072.31,1182.58 1073.13,1183.83 1074.61,1185.08 1074.88,1186.34 
  1074.93,1185.08 1075.56,1183.83 1076.01,1182.58 1076.07,1181.33 1076.61,1180.08 1076.77,1181.33 1077.15,1182.58 1078.13,1181.33 1078.68,1180.08 1079.47,1181.33 
  1080.73,1180.08 1081.51,1181.33 1081.86,1180.08 1083.42,1178.83 1083.45,1180.08 1085.03,1178.83 1085.48,1177.58 1085.95,1176.33 1086.62,1177.58 1087.34,1176.33 
  1088.45,1175.08 1089.43,1173.83 1090.55,1175.08 1090.83,1173.83 1090.88,1172.58 1091.05,1171.33 1091.17,1170.08 1091.27,1171.33 1091.41,1170.08 1092.37,1168.82 
  1092.65,1170.08 1092.7,1171.33 1093.01,1172.58 1093.37,1171.33 1093.82,1172.58 1094.17,1171.33 1094.96,1170.08 1095.04,1171.33 1096.51,1172.58 1096.89,1171.33 
  1097.07,1172.58 1097.77,1171.33 1098.23,1170.08 1098.53,1171.33 1099.66,1170.08 1100.13,1171.33 1100.29,1170.08 1100.45,1168.82 1100.73,1170.08 1101.31,1168.82 
  1102.33,1170.08 1103.26,1168.82 1104.11,1167.57 1104.32,1166.32 1106.44,1165.07 1107.3,1163.82 1107.31,1162.57 1107.47,1161.32 1107.81,1160.07 1108.15,1161.32 
  1108.15,1160.07 1108.49,1158.82 1109,1157.57 1110.85,1156.32 1111.93,1157.57 1112.13,1156.32 1112.9,1155.07 1114.15,1156.32 1115.17,1155.07 1116.05,1156.32 
  1116.96,1157.57 1119.24,1158.82 1119.64,1157.57 1120.36,1158.82 1120.53,1160.07 1120.66,1158.82 1121.27,1157.57 1121.5,1156.32 1122.41,1155.07 1123.93,1153.82 
  1124.07,1152.56 1124.18,1153.82 1124.81,1155.07 1125.24,1153.82 1126.03,1152.56 1127.44,1153.82 1127.65,1152.56 1128.11,1153.82 1128.82,1155.07 1128.99,1153.82 
  1129.24,1152.56 1129.3,1151.31 1129.33,1150.06 1129.71,1148.81 1130.53,1150.06 1131.36,1151.31 1131.73,1152.56 1135.74,1151.31 1135.98,1150.06 1136.33,1148.81 
  1136.55,1150.06 1136.83,1148.81 1138.41,1147.56 1138.46,1146.31 1138.55,1147.56 1138.91,1146.31 1139.24,1145.06 1140.44,1146.31 1140.73,1145.06 1141.22,1143.81 
  1141.52,1145.06 1141.64,1143.81 1141.98,1142.56 1142.04,1143.81 1145.19,1142.56 1145.79,1141.31 1146.02,1142.56 1146.29,1141.31 1146.45,1140.06 1146.61,1141.31 
  1146.99,1140.06 1148.2,1138.81 1151.48,1137.56 1151.71,1136.3 1151.88,1135.05 1151.94,1136.3 1154.1,1135.05 1154.48,1136.3 1154.73,1137.56 1155.27,1136.3 
  1155.37,1135.05 1157.19,1133.8 1157.23,1135.05 1157.28,1133.8 1157.59,1132.55 1158.14,1133.8 1158.56,1132.55 1158.6,1133.8 1159.08,1132.55 1159.75,1133.8 
  1162.32,1135.05 1162.37,1133.8 1163.06,1135.05 1163.61,1133.8 1164.06,1135.05 1164.23,1136.3 1165.98,1137.56 1166.61,1138.81 1167.77,1140.06 1167.93,1138.81 
  1168.27,1140.06 1168.52,1138.81 1168.78,1140.06 1169.14,1141.31 1169.92,1140.06 1171.4,1141.31 1171.92,1140.06 1171.97,1138.81 1173.54,1137.56 1174.22,1138.81 
  1174.58,1137.56 1176.21,1136.3 1177.01,1135.05 1177.17,1133.8 1177.5,1135.05 1177.91,1133.8 1180.52,1135.05 1181.1,1133.8 1181.16,1132.55 1181.46,1131.3 
  1182.02,1130.05 1182.34,1128.8 1183.02,1130.05 1183.16,1128.8 1183.38,1127.55 1185.73,1128.8 1186.48,1127.55 1187.32,1126.3 1187.72,1125.05 1188.14,1123.8 
  1189.16,1125.05 1189.19,1126.3 1190.12,1125.05 1191.98,1123.8 1192.36,1125.05 1194.35,1126.3 1194.4,1125.05 1195.54,1126.3 1196.51,1125.05 1197.1,1126.3 
  1197.51,1127.55 1198.21,1126.3 1199.89,1125.05 1200.52,1126.3 1202.42,1127.55 1202.9,1128.8 1203.42,1127.55 1204.09,1128.8 1204.6,1127.55 1205.4,1128.8 
  1205.89,1127.55 1205.98,1126.3 1206.24,1127.55 1207.14,1126.3 1207.46,1125.05 1207.64,1126.3 1207.76,1125.05 1208.43,1126.3 1208.91,1127.55 1209.43,1126.3 
  1209.47,1125.05 1209.53,1126.3 1210.07,1125.05 1210.11,1123.8 1210.3,1125.05 1210.65,1123.8 1211.1,1125.05 1211.16,1126.3 1211.31,1127.55 1211.32,1128.8 
  1211.34,1130.05 1213.36,1128.8 1214.84,1130.05 1215.58,1131.3 1216.01,1130.05 1217.09,1128.8 1217.44,1127.55 1218.01,1126.3 1218.63,1127.55 1219.68,1128.8 
  1219.99,1130.05 1220,1128.8 1220.12,1130.05 1220.64,1131.3 1221.09,1132.55 1221.87,1131.3 1221.98,1130.05 1221.99,1131.3 1222.03,1130.05 1222.04,1131.3 
  1222.16,1130.05 1222.68,1131.3 1224.37,1130.05 1224.93,1131.3 1225.24,1132.55 1226.75,1131.3 1226.86,1130.05 1227.23,1128.8 1227.69,1127.55 1227.83,1128.8 
  1228.68,1127.55 1228.98,1128.8 1229.18,1130.05 1231.7,1128.8 1233.07,1127.55 1233.29,1128.8 1233.79,1130.05 1236.22,1131.3 1237.21,1132.55 1237.47,1133.8 
  1237.6,1132.55 1238.34,1131.3 1240.01,1130.05 1240.21,1131.3 1242.16,1132.55 1242.55,1131.3 1243.27,1132.55 1243.95,1131.3 1245.22,1130.05 1245.32,1128.8 
  1245.43,1127.55 1245.89,1128.8 1246.13,1130.05 1246.21,1128.8 1246.5,1130.05 1246.95,1131.3 1247.68,1130.05 1248.29,1128.8 1248.94,1127.55 1249.72,1128.8 
  1249.97,1130.05 1251.46,1128.8 1252.04,1127.55 1252.25,1126.3 1252.58,1125.05 1253.06,1126.3 1253.72,1127.55 1254.07,1128.8 1254.15,1130.05 1255.06,1131.3 
  1255.42,1130.05 1255.59,1128.8 1255.98,1127.55 1257.56,1126.3 1258.1,1125.05 1258.28,1123.8 1258.33,1122.55 1258.61,1123.8 1258.77,1122.55 1258.86,1123.8 
  1259.3,1122.55 1259.83,1123.8 1260.67,1122.55 1261.04,1123.8 1262.23,1125.05 1262.37,1126.3 1263.65,1127.55 1264.67,1128.8 1264.84,1127.55 1264.95,1126.3 
  1265.57,1125.05 1265.75,1123.8 1266.14,1125.05 1266.68,1126.3 1266.78,1125.05 1267.33,1123.8 1267.62,1122.55 1268.47,1121.29 1268.73,1122.55 1269.98,1121.29 
  1271.07,1120.04 1271.22,1121.29 1272.36,1122.55 1272.9,1121.29 1273.16,1120.04 1273.21,1121.29 1273.76,1122.55 1274.44,1121.29 1274.77,1122.55 1275.64,1121.29 
  1276.47,1120.04 1277.17,1118.79 1277.71,1117.54 1278.48,1116.29 1278.88,1115.04 1279.3,1116.29 1279.48,1117.54 1279.62,1116.29 1280.25,1115.04 1281.5,1113.79 
  1282.18,1115.04 1282.27,1113.79 1282.82,1115.04 1283.71,1113.79 1284.11,1115.04 1285.06,1116.29 1285.3,1117.54 1285.59,1118.79 1285.72,1120.04 1286.05,1118.79 
  1286.22,1120.04 1286.66,1118.79 1286.85,1120.04 1287.75,1118.79 1288.25,1117.54 1290.02,1118.79 1290.23,1117.54 1290.23,1116.29 1290.44,1117.54 1291.09,1116.29 
  1291.2,1117.54 1292.34,1118.79 1292.91,1120.04 1293.63,1121.29 1294.13,1122.55 1294.27,1121.29 1294.8,1120.04 1295.31,1121.29 1295.7,1120.04 1295.73,1118.79 
  1296.89,1117.54 1298.27,1118.79 1299.82,1117.54 1299.9,1118.79 1301.66,1120.04 1302.72,1118.79 1303.19,1120.04 1304,1118.79 1304.49,1120.04 1306.82,1118.79 
  1307.28,1120.04 1307.72,1118.79 1308.14,1117.54 1309.4,1118.79 1309.49,1117.54 1309.56,1116.29 1309.81,1117.54 1310.02,1118.79 1310.17,1120.04 1310.42,1121.29 
  1310.63,1122.55 1310.71,1121.29 1311.24,1120.04 1311.42,1118.79 1311.48,1120.04 1311.82,1118.79 1312.04,1117.54 1312.42,1116.29 1312.44,1117.54 1312.48,1116.29 
  1313.18,1115.04 1313.21,1116.29 1313.43,1115.04 1313.58,1116.29 1314.86,1117.54 1315.44,1118.79 1315.96,1120.04 1318.1,1118.79 1319.18,1120.04 1319.61,1118.79 
  1319.76,1120.04 1319.8,1121.29 1320.37,1120.04 1321.23,1118.79 1321.32,1120.04 1321.57,1118.79 1323.41,1120.04 1323.84,1118.79 1323.89,1117.54 1325.22,1116.29 
  1325.36,1117.54 1325.37,1116.29 1325.55,1117.54 1326.19,1116.29 1326.34,1117.54 1327.67,1116.29 1328.67,1117.54 1328.77,1118.79 1329.41,1120.04 1330.05,1118.79 
  1330.4,1120.04 1330.97,1118.79 1331.45,1120.04 1333.1,1118.79 1333.44,1117.54 1336.85,1118.79 1337.93,1120.04 1338.27,1121.29 1338.99,1120.04 1339.06,1118.79 
  1339.23,1117.54 1339.89,1118.79 1343.48,1117.54 1343.5,1116.29 1345.11,1115.04 1345.97,1116.29 1346.13,1115.04 1346.73,1116.29 1347.73,1115.04 1348.6,1116.29 
  1348.98,1117.54 1349.14,1118.79 1349.5,1120.04 1349.95,1121.29 1350.61,1120.04 1350.9,1121.29 1351.47,1120.04 1352.52,1118.79 1352.86,1120.04 1352.91,1121.29 
  1352.98,1122.55 1353.14,1121.29 1353.42,1122.55 1353.77,1123.8 1354.25,1125.05 1354.42,1123.8 1354.55,1125.05 1354.76,1126.3 1355.64,1127.55 1356.59,1128.8 
  1357.52,1127.55 1357.64,1128.8 1357.86,1127.55 1357.99,1128.8 1358.23,1130.05 1359.09,1128.8 1360.1,1127.55 1360.56,1126.3 1361.08,1125.05 1361.7,1123.8 
  1361.81,1125.05 1365.32,1126.3 1365.64,1125.05 1366.59,1123.8 1366.85,1125.05 1367.92,1123.8 1367.94,1125.05 1368.75,1126.3 1369.1,1125.05 1369.7,1123.8 
  1370.03,1122.55 1370.28,1123.8 1370.49,1125.05 1370.59,1126.3 1370.8,1127.55 1371.31,1128.8 1371.58,1130.05 1372,1128.8 1372.76,1130.05 1372.82,1131.3 
  1373.5,1130.05 1374.22,1128.8 1376.63,1127.55 1377.09,1126.3 1378,1127.55 1378.74,1126.3 1378.95,1125.05 1379.32,1126.3 1379.37,1125.05 1380.58,1123.8 
  1380.68,1125.05 1382.44,1123.8 1382.78,1125.05 1383.67,1123.8 1384.39,1122.55 1384.46,1123.8 1384.5,1125.05 1384.57,1126.3 1384.95,1125.05 1385.71,1123.8 
  1386.34,1125.05 1387.07,1126.3 1387.12,1125.05 1387.29,1123.8 1387.33,1122.55 1387.83,1123.8 1387.95,1122.55 1388.93,1121.29 1388.99,1122.55 1389.14,1121.29 
  1389.68,1122.55 1389.95,1123.8 1390.15,1122.55 1390.43,1123.8 1391.17,1122.55 1391.56,1123.8 1392.62,1125.05 1393.22,1123.8 1393.55,1125.05 1393.98,1126.3 
  1394.24,1125.05 1396.25,1123.8 1396.77,1125.05 1396.98,1126.3 1398.54,1125.05 1399.78,1123.8 1400.29,1122.55 1402.34,1121.29 1402.91,1120.04 1404.1,1121.29 
  1404.5,1122.55 1404.72,1121.29 1405.09,1120.04 1405.34,1118.79 1405.4,1120.04 1405.76,1118.79 1406.57,1120.04 1406.71,1118.79 1407.09,1120.04 1407.71,1121.29 
  1407.82,1120.04 1408.66,1118.79 1409.36,1117.54 1410.01,1118.79 1410.53,1120.04 1411.6,1121.29 1411.85,1120.04 1411.93,1118.79 1412.58,1117.54 1414.13,1116.29 
  1414.23,1117.54 1414.31,1118.79 1414.53,1117.54 1416.98,1116.29 1417.7,1117.54 1418.35,1116.29 1418.43,1115.04 1420.05,1113.79 1421.22,1115.04 1421.62,1116.29 
  1423.52,1117.54 1423.66,1118.79 1423.72,1120.04 1423.93,1118.79 1424.03,1120.04 1424.7,1121.29 1425.27,1122.55 1426.41,1123.8 1427.35,1125.05 1427.64,1126.3 
  1427.91,1125.05 1428.02,1123.8 1428.26,1122.55 1428.91,1123.8 1429.09,1122.55 1429.62,1121.29 1429.86,1122.55 1430.11,1121.29 1431.03,1122.55 1432.3,1123.8 
  1432.57,1122.55 1432.71,1121.29 1434.85,1122.55 1437.54,1121.29 1438.41,1122.55 1438.74,1123.8 1438.86,1122.55 1441.11,1123.8 1441.74,1122.55 1441.84,1123.8 
  1442.2,1125.05 1443.06,1126.3 1445.67,1127.55 1446.15,1128.8 1446.62,1130.05 1447.49,1131.3 1447.7,1132.55 1448.4,1133.8 1449.5,1135.05 1450.74,1136.3 
  1450.82,1135.05 1450.95,1136.3 1451.24,1137.56 1451.47,1138.81 1452.22,1140.06 1452.43,1141.31 1452.82,1142.56 1453.71,1143.81 1455.67,1145.06 1455.96,1146.31 
  1455.99,1147.56 1456.31,1148.81 1457.74,1147.56 1458.13,1146.31 1459.12,1147.56 1459.41,1146.31 1460.24,1145.06 1460.52,1143.81 1462.51,1142.56 1462.78,1141.31 
  1464.55,1140.06 1466.42,1138.81 1467.51,1137.56 1467.92,1138.81 1468.46,1140.06 1468.89,1141.31 1469.04,1140.06 1471.5,1141.31 1474.14,1140.06 1474.38,1138.81 
  1475.91,1137.56 1476.46,1136.3 1476.53,1135.05 1476.73,1136.3 1476.78,1137.56 1477.08,1138.81 1477.73,1140.06 1478.9,1138.81 1479.45,1137.56 1479.51,1138.81 
  1481.84,1137.56 1482.08,1138.81 1482.43,1140.06 1483.41,1141.31 1483.41,1142.56 1486.69,1141.31 1486.74,1140.06 1487.13,1141.31 1487.18,1142.56 1488.08,1141.31 
  1488.64,1142.56 1488.82,1143.81 1489.04,1142.56 1490.72,1143.81 1491.07,1145.06 1492.31,1146.31 1492.51,1145.06 1492.58,1146.31 1493.76,1147.56 1493.82,1148.81 
  1494.03,1150.06 1494.38,1151.31 1494.7,1152.56 1496.12,1153.82 1496.51,1155.07 1497.38,1153.82 1498.04,1152.56 1498.82,1153.82 1499.24,1155.07 1499.67,1156.32 
  1503.59,1157.57 1504.1,1158.82 1504.43,1157.57 1504.48,1158.82 1507.03,1157.57 1507.32,1156.32 1507.81,1157.57 1508.32,1158.82 1509.47,1160.07 1509.8,1158.82 
  1511.67,1157.57 1511.94,1158.82 1512.73,1160.07 1512.78,1161.32 1513.06,1160.07 1513.07,1161.32 1513.2,1162.57 1515.09,1163.82 1517.93,1162.57 1518.57,1161.32 
  1518.68,1162.57 1521.32,1163.82 1521.77,1165.07 1523.36,1163.82 1524.32,1162.57 1524.87,1161.32 1525.15,1160.07 1528.87,1161.32 1528.87,1160.07 1529.07,1158.82 
  1529.79,1157.57 1530.79,1158.82 1531.28,1160.07 1531.92,1158.82 1532.41,1160.07 1535.86,1161.32 1536.85,1160.07 1538.15,1158.82 1538.26,1160.07 1540.91,1158.82 
  1541.39,1160.07 1542.03,1161.32 1542.87,1162.57 1542.93,1161.32 1543.13,1162.57 1543.13,1163.82 1544.94,1162.57 1545.11,1163.82 1547.52,1165.07 1548.1,1166.32 
  1549.22,1167.57 1549.37,1166.32 1549.49,1167.57 1551.76,1166.32 1552.04,1165.07 1553.48,1166.32 1553.57,1167.57 1553.77,1168.82 1555.25,1170.08 1555.67,1168.82 
  1555.98,1170.08 1556.89,1171.33 1556.94,1172.58 1558.3,1171.33 1558.48,1172.58 1559.09,1173.83 1561.43,1175.08 1562.67,1173.83 1562.9,1175.08 1565.6,1173.83 
  1566.12,1175.08 1566.88,1176.33 1568.27,1175.08 1568.72,1173.83 1570.93,1175.08 1571.44,1176.33 1572.62,1175.08 1572.97,1176.33 1574.01,1175.08 1574.54,1176.33 
  1574.87,1177.58 1576.09,1178.83 1576.95,1177.58 1577.12,1176.33 1578.91,1177.58 1579.31,1176.33 1579.91,1177.58 1580.69,1176.33 1580.9,1175.08 1580.98,1176.33 
  1581.06,1177.58 1581.49,1176.33 1582.96,1177.58 1583.01,1178.83 1583.54,1180.08 1584.98,1181.33 1586.54,1180.08 1588.42,1178.83 1591.4,1180.08 1591.75,1181.33 
  1593.03,1180.08 1593.86,1181.33 1594.62,1180.08 1594.83,1178.83 1594.98,1180.08 1595.34,1181.33 1595.59,1182.58 1595.91,1181.33 1598.28,1182.58 1599.31,1183.83 
  1599.45,1182.58 1600.46,1183.83 1600.62,1182.58 1601.01,1181.33 1601.17,1182.58 1601.8,1183.83 1602.3,1182.58 1603.61,1183.83 1604.93,1182.58 1604.97,1181.33 
  1605.93,1182.58 1606.32,1181.33 1607.37,1180.08 1610.83,1181.33 1612.45,1180.08 1613.26,1181.33 1614.22,1182.58 1614.29,1183.83 1615.26,1185.08 1617.75,1186.34 
  1620.1,1187.59 1620.12,1188.84 1622.33,1190.09 1622.47,1188.84 1624.02,1187.59 1627.15,1188.84 1627.97,1190.09 1628.23,1188.84 1630.13,1190.09 1632.22,1191.34 
  1633.06,1192.59 1634.14,1193.84 1635.17,1192.59 1637.34,1193.84 1641.51,1195.09 1642.06,1193.84 1642.57,1195.09 1642.86,1196.34 1642.9,1197.59 1644.52,1196.34 
  1645.26,1197.59 1645.88,1196.34 1647.81,1195.09 1650.18,1196.34 1653.46,1195.09 1653.61,1196.34 1656.83,1197.59 1657.46,1198.84 1657.63,1197.59 1658.38,1196.34 
  1661.02,1197.59 1662.37,1198.84 1663.52,1200.09 1664.94,1198.84 1666.37,1200.09 1667.11,1201.35 1668.17,1202.6 1668.33,1201.35 1669.57,1202.6 1672.11,1203.85 
  1672.51,1205.1 1673.01,1206.35 1673.28,1205.1 1673.9,1206.35 1674.66,1207.6 1677.27,1208.85 1682.26,1207.6 1683.05,1208.85 1684.11,1210.1 1684.93,1211.35 
  1685.34,1212.6 1685.42,1213.85 1686.77,1215.1 1691.76,1216.35 1692.76,1217.61 1693.8,1218.86 1697.76,1220.11 1697.99,1221.36 1699.57,1222.61 1700.48,1223.86 
  1701.63,1222.61 1705.15,1221.36 1706.62,1220.11 1706.92,1221.36 1707.81,1220.11 1708.04,1221.36 1714.93,1220.11 1721.74,1221.36 1721.74,1222.61 1723.23,1223.86 
  1723.36,1222.61 1723.78,1223.86 1725.75,1225.11 1727.61,1223.86 1728.62,1225.11 1728.98,1226.36 1729.29,1227.61 1731.22,1226.36 1731.82,1227.61 1733.06,1226.36 
  1734.25,1225.11 1736.72,1226.36 1737.04,1227.61 1738.14,1226.36 1739.95,1225.11 1740.43,1226.36 1740.43,1225.11 1740.5,1223.86 1740.52,1225.11 1741.79,1226.36 
  1747.5,1227.61 1749.03,1226.36 1751,1227.61 1754.9,1226.36 1754.91,1227.61 1755.13,1228.86 1756.1,1230.11 1756.47,1231.36 1759.19,1230.11 1759.56,1231.36 
  1760.85,1230.11 1763.19,1231.36 1764.6,1232.61 1764.93,1231.36 1765.32,1232.61 1767.13,1233.87 1767.38,1235.12 1779.06,1233.87 1782.32,1232.61 1784.77,1233.87 
  1786.71,1235.12 1788.51,1236.37 1791.89,1235.12 1792.26,1236.37 1793.84,1235.12 1794.87,1236.37 1794.94,1237.62 1795.38,1238.87 1795.49,1237.62 1796.5,1238.87 
  1797.04,1237.62 1798.75,1236.37 1801.53,1235.12 1801.67,1236.37 1804.54,1237.62 1805.35,1238.87 1808.96,1240.12 1809.37,1241.37 1810.56,1242.62 1812.47,1243.87 
  1813.4,1245.12 1813.77,1246.37 1815.07,1245.12 1817.89,1243.87 1818.23,1242.62 1819.59,1243.87 1820.15,1242.62 1820.71,1243.87 1822.19,1242.62 1826.75,1241.37 
  1827.78,1242.62 1832,1243.87 1833.48,1242.62 1834.18,1241.37 1835.69,1242.62 1835.75,1243.87 1837.5,1245.12 1837.79,1243.87 1837.93,1242.62 1838.88,1243.87 
  1840.38,1245.12 1842.93,1243.87 1843.41,1245.12 1844.49,1243.87 1845.21,1242.62 1845.55,1243.87 1845.73,1242.62 1858.28,1243.87 1861.77,1242.62 1862.78,1243.87 
  1864.88,1245.12 1865.94,1246.37 1866.92,1245.12 1868.64,1243.87 1870.17,1242.62 1872.68,1243.87 1872.84,1245.12 1872.99,1246.37 1876.64,1247.62 1878.69,1248.88 
  1885.17,1250.13 1886.7,1251.38 1888.69,1250.13 1890.17,1248.88 1895.81,1250.13 1895.93,1248.88 1897.68,1250.13 1902.34,1251.38 1903.49,1250.13 1904.93,1251.38 
  1909.6,1252.63 1912.61,1253.88 1913.25,1255.13 1914.32,1256.38 1914.36,1257.63 1915.36,1256.38 1916,1257.63 1916.32,1256.38 1916.36,1255.13 1916.88,1256.38 
  1917.99,1255.13 1919,1253.88 1920.21,1255.13 1920.73,1253.88 1922.14,1255.13 1923.95,1253.88 1925.32,1252.63 1929.02,1253.88 1930.62,1252.63 1933.21,1253.88 
  1939.85,1255.13 1941.8,1253.88 1944.87,1252.63 1945.95,1251.38 1946.9,1252.63 1948.05,1251.38 1954.04,1250.13 1954.99,1251.38 1955.64,1252.63 1957.48,1253.88 
  1960.52,1255.13 1961.68,1256.38 1963.83,1257.63 1965.81,1258.88 1965.9,1260.13 1966.05,1258.88 1966.1,1257.63 1969.52,1256.38 1970.28,1255.13 1970.72,1256.38 
  1973.49,1257.63 1973.81,1258.88 1975.99,1260.13 1979.17,1261.38 1980.45,1262.63 1984.03,1263.88 1984.85,1262.63 1984.87,1263.88 1987.96,1262.63 1990.48,1263.88 
  1992.77,1265.14 2003.25,1266.39 2010.52,1265.14 2013,1266.39 2016.46,1267.64 2018.8,1268.89 2023.27,1267.64 2023.51,1268.89 2024.15,1267.64 2024.44,1266.39 
  2025.2,1267.64 2027.55,1266.39 2028.2,1267.64 2029.97,1268.89 2030.44,1270.14 2034.49,1271.39 2038,1270.14 2038.44,1271.39 2041.57,1272.64 2044.84,1271.39 
  2045.24,1272.64 2046.73,1273.89 2057.09,1275.14 2057.93,1276.39 2062.18,1277.64 2066.57,1278.89 2069.2,1280.14 2069.34,1281.4 2070.61,1282.65 2072.23,1283.9 
  2082.31,1285.15 2085.04,1283.9 2087.91,1285.15 2091.62,1286.4 2094.2,1285.15 2095.58,1286.4 2099.52,1287.65 2105.33,1288.9 2106.56,1290.15 2107.94,1291.4 
  2112.5,1292.65 2112.7,1293.9 2119.29,1292.65 2119.48,1291.4 2122.74,1292.65 2126.31,1291.4 2129.52,1292.65 2134.84,1293.9 2135.71,1292.65 2139.05,1293.9 
  2139.79,1295.15 2146.12,1296.4 2160.83,1295.15 2162.68,1293.9 2164.88,1295.15 2172.43,1293.9 2173.23,1295.15 2174.04,1296.4 2180.02,1295.15 2189.02,1296.4 
  2195.16,1295.15 2198.93,1293.9 2199.74,1295.15 2199.99,1293.9 
  "/>
<polyline clip-path="url(#clip122)" style="stroke:#3da44d; stroke-width:4; stroke-opacity:1; fill:none" points="
  307.689,1322.67 320.131,1322.67 331.928,1322.67 333.522,1321.42 344.361,1320.17 346.586,1318.92 357.977,1318.92 367.049,1317.67 370.777,1317.67 390.182,1317.67 
  394.168,1316.42 408.362,1316.42 415.853,1316.42 416.269,1315.17 423.726,1313.92 425.754,1313.92 431.535,1312.67 449.573,1312.67 458.989,1311.41 466.599,1311.41 
  475.361,1310.16 478.867,1308.91 482.594,1308.91 490.322,1308.91 497.173,1308.91 519.382,1307.66 529.316,1307.66 529.567,1306.41 533.03,1306.41 533.83,1306.41 
  538.079,1306.41 539.202,1306.41 545.548,1305.16 559.762,1305.16 570.571,1305.16 577.79,1303.91 577.881,1303.91 580.599,1303.91 583.116,1303.91 598.2,1302.66 
  602.713,1302.66 607.773,1302.66 608.143,1301.41 608.595,1301.41 610.915,1300.16 612.682,1298.91 613.777,1297.66 614.929,1297.66 619.003,1297.66 619.455,1296.4 
  620.695,1295.15 621.792,1295.15 625.259,1293.9 626.23,1293.9 627.56,1292.65 632.881,1292.65 637.662,1292.65 638.273,1291.4 639.444,1291.4 643.289,1291.4 
  649.069,1291.4 650.073,1291.4 654.673,1291.4 655.576,1291.4 656.248,1290.15 657.094,1290.15 657.763,1290.15 659.493,1290.15 670.36,1288.9 670.425,1288.9 
  673.611,1287.65 674.885,1287.65 676.785,1286.4 678.182,1286.4 678.697,1286.4 679.583,1285.15 681.941,1283.9 685.307,1282.65 688.588,1282.65 690.086,1282.65 
  690.451,1282.65 698.985,1282.65 699.245,1281.4 700.088,1280.14 703.206,1280.14 704.547,1278.89 706.49,1278.89 710.182,1277.64 710.486,1276.39 716.071,1276.39 
  717.752,1276.39 725.653,1276.39 727.292,1276.39 731.778,1276.39 733.206,1276.39 741.574,1276.39 743.904,1276.39 746.858,1275.14 750.205,1273.89 750.929,1273.89 
  752.657,1273.89 752.68,1272.64 753.782,1272.64 758.651,1272.64 760.172,1271.39 762.039,1271.39 763.082,1271.39 764.276,1271.39 768.738,1271.39 769.876,1270.14 
  772.227,1268.89 775.634,1268.89 777.653,1268.89 779.812,1268.89 782.512,1268.89 785.037,1267.64 788.244,1267.64 790.87,1267.64 794.064,1267.64 796.04,1266.39 
  800.264,1266.39 804.634,1266.39 805.11,1265.14 809.952,1263.88 812.324,1262.63 812.979,1262.63 815.09,1262.63 815.17,1261.38 818.541,1261.38 822.347,1260.13 
  826.52,1260.13 828.634,1258.88 829.137,1257.63 831.643,1256.38 835.764,1256.38 837.516,1256.38 837.938,1256.38 838.368,1255.13 839.29,1255.13 840.127,1255.13 
  842.189,1255.13 843.15,1255.13 844.53,1253.88 844.914,1253.88 847.595,1253.88 848.491,1253.88 850.317,1253.88 851.598,1253.88 853.208,1253.88 853.913,1253.88 
  855.622,1253.88 857.19,1253.88 858.697,1252.63 858.752,1252.63 859.052,1251.38 860.184,1251.38 860.76,1250.13 864.017,1248.88 864.228,1247.62 864.833,1247.62 
  865.859,1247.62 866.174,1247.62 866.862,1247.62 868.881,1247.62 871.979,1247.62 874.591,1246.37 876.419,1246.37 877.751,1245.12 880.509,1243.87 881.192,1243.87 
  881.206,1242.62 881.31,1242.62 881.463,1241.37 882.062,1241.37 882.388,1240.12 883.052,1240.12 883.432,1240.12 886.046,1240.12 886.955,1238.87 888.925,1238.87 
  888.995,1238.87 890.726,1238.87 892.367,1238.87 892.617,1238.87 892.641,1238.87 893.386,1238.87 893.86,1237.62 893.928,1236.37 894.335,1235.12 895.185,1233.87 
  895.9,1232.61 897.506,1232.61 898.124,1232.61 898.601,1232.61 898.649,1232.61 899.741,1232.61 900.468,1232.61 905.684,1231.36 906.186,1231.36 906.355,1231.36 
  906.502,1231.36 906.713,1231.36 909.671,1230.11 909.741,1230.11 911.774,1230.11 912.516,1228.86 913.152,1228.86 913.678,1228.86 915.346,1227.61 915.791,1226.36 
  917.199,1225.11 917.716,1225.11 919.153,1225.11 920.434,1225.11 921.072,1225.11 922.488,1225.11 923.738,1223.86 924.77,1223.86 924.906,1223.86 926.829,1222.61 
  929.182,1222.61 932.264,1222.61 933.055,1222.61 933.095,1221.36 935.506,1221.36 935.58,1221.36 936.315,1221.36 937.96,1221.36 940.759,1221.36 941.199,1221.36 
  942.822,1221.36 943.267,1220.11 944.823,1220.11 946.201,1220.11 948.293,1218.86 949.616,1218.86 951.633,1218.86 953.423,1218.86 953.493,1217.61 953.91,1217.61 
  954.795,1217.61 955.545,1217.61 955.65,1216.35 956.165,1215.1 957.615,1215.1 957.689,1215.1 958.153,1215.1 961.695,1215.1 962.825,1215.1 963.212,1213.85 
  963.423,1213.85 964.852,1212.6 965.399,1211.35 966.46,1210.1 966.899,1208.85 967.079,1207.6 967.318,1207.6 967.849,1207.6 970.271,1206.35 972.193,1206.35 
  972.316,1205.1 972.797,1205.1 973.53,1205.1 975.753,1205.1 979.204,1203.85 979.58,1203.85 979.619,1203.85 979.83,1202.6 979.982,1201.35 980.683,1201.35 
  980.693,1200.09 980.916,1200.09 983.99,1198.84 984.222,1197.59 985.813,1197.59 987.969,1197.59 988.864,1197.59 989.107,1196.34 990.694,1196.34 991.547,1196.34 
  991.58,1196.34 992.963,1196.34 993.776,1195.09 994.76,1195.09 995.129,1195.09 996.426,1195.09 999.407,1195.09 1000.24,1195.09 1001.65,1195.09 1003,1195.09 
  1003.91,1193.84 1006.02,1193.84 1006.74,1193.84 1007.44,1193.84 1007.58,1193.84 1008.42,1193.84 1008.65,1192.59 1009.58,1192.59 1009.81,1192.59 1014.34,1192.59 
  1014.83,1192.59 1014.84,1191.34 1015.4,1190.09 1016.15,1190.09 1016.72,1188.84 1017.44,1187.59 1017.99,1186.34 1018.18,1186.34 1018.27,1186.34 1019.2,1186.34 
  1021.31,1186.34 1021.99,1185.08 1022.76,1185.08 1023.54,1185.08 1023.58,1185.08 1023.94,1185.08 1024.54,1185.08 1024.82,1183.83 1025.37,1183.83 1026.23,1182.58 
  1027.6,1182.58 1028.27,1181.33 1030.31,1180.08 1032.28,1178.83 1033.36,1177.58 1033.8,1176.33 1035.61,1175.08 1037.09,1175.08 1037.36,1175.08 1038.17,1175.08 
  1039.01,1175.08 1039.91,1175.08 1039.95,1175.08 1040.26,1173.83 1040.83,1173.83 1040.85,1173.83 1041.03,1173.83 1041.06,1173.83 1041.3,1172.58 1041.51,1172.58 
  1042.75,1171.33 1043.25,1171.33 1043.94,1170.08 1044.28,1168.82 1045.48,1167.57 1046.2,1167.57 1047.75,1167.57 1047.93,1167.57 1049.25,1166.32 1049.98,1166.32 
  1050.88,1166.32 1051.21,1166.32 1051.32,1166.32 1051.62,1166.32 1052.33,1166.32 1052.56,1166.32 1053.05,1165.07 1053.57,1165.07 1055.6,1163.82 1055.66,1162.57 
  1056.34,1161.32 1056.59,1161.32 1057.26,1161.32 1057.31,1160.07 1058.81,1160.07 1059.48,1158.82 1062.12,1158.82 1063.35,1157.57 1064.32,1157.57 1064.73,1157.57 
  1065.16,1156.32 1065.19,1155.07 1065.38,1153.82 1066.44,1152.56 1066.8,1152.56 1067,1152.56 1067.91,1151.31 1067.97,1151.31 1068.26,1150.06 1068.35,1150.06 
  1068.94,1148.81 1069.42,1147.56 1070.24,1147.56 1070.45,1146.31 1070.73,1146.31 1071.63,1146.31 1072.31,1145.06 1073.13,1143.81 1074.61,1142.56 1074.88,1141.31 
  1074.93,1141.31 1075.56,1141.31 1076.01,1141.31 1076.07,1141.31 1076.61,1141.31 1076.77,1140.06 1077.15,1138.81 1078.13,1138.81 1078.68,1138.81 1079.47,1137.56 
  1080.73,1137.56 1081.51,1136.3 1081.86,1136.3 1083.42,1136.3 1083.45,1135.05 1085.03,1135.05 1085.48,1135.05 1085.95,1135.05 1086.62,1133.8 1087.34,1133.8 
  1088.45,1133.8 1089.43,1133.8 1090.55,1132.55 1090.83,1132.55 1090.88,1132.55 1091.05,1132.55 1091.17,1132.55 1091.27,1131.3 1091.41,1131.3 1092.37,1131.3 
  1092.65,1130.05 1092.7,1128.8 1093.01,1127.55 1093.37,1127.55 1093.82,1126.3 1094.17,1126.3 1094.96,1126.3 1095.04,1125.05 1096.51,1123.8 1096.89,1123.8 
  1097.07,1122.55 1097.77,1122.55 1098.23,1122.55 1098.53,1121.29 1099.66,1121.29 1100.13,1120.04 1100.29,1120.04 1100.45,1120.04 1100.73,1118.79 1101.31,1118.79 
  1102.33,1117.54 1103.26,1117.54 1104.11,1117.54 1104.32,1117.54 1106.44,1117.54 1107.3,1117.54 1107.31,1117.54 1107.47,1117.54 1107.81,1117.54 1108.15,1116.29 
  1108.15,1116.29 1108.49,1116.29 1109,1116.29 1110.85,1116.29 1111.93,1115.04 1112.13,1115.04 1112.9,1115.04 1114.15,1113.79 1115.17,1113.79 1116.05,1112.54 
  1116.96,1111.29 1119.24,1110.04 1119.64,1110.04 1120.36,1108.79 1120.53,1107.54 1120.66,1107.54 1121.27,1107.54 1121.5,1107.54 1122.41,1107.54 1123.93,1107.54 
  1124.07,1107.54 1124.18,1106.29 1124.81,1105.03 1125.24,1105.03 1126.03,1105.03 1127.44,1103.78 1127.65,1103.78 1128.11,1102.53 1128.82,1101.28 1128.99,1101.28 
  1129.24,1101.28 1129.3,1101.28 1129.33,1101.28 1129.71,1101.28 1130.53,1100.03 1131.36,1098.78 1131.73,1097.53 1135.74,1097.53 1135.98,1097.53 1136.33,1097.53 
  1136.55,1096.28 1136.83,1096.28 1138.41,1096.28 1138.46,1096.28 1138.55,1095.03 1138.91,1095.03 1139.24,1095.03 1140.44,1093.78 1140.73,1093.78 1141.22,1093.78 
  1141.52,1092.53 1141.64,1092.53 1141.98,1092.53 1142.04,1091.28 1145.19,1091.28 1145.79,1091.28 1146.02,1090.03 1146.29,1090.03 1146.45,1090.03 1146.61,1088.77 
  1146.99,1088.77 1148.2,1088.77 1151.48,1088.77 1151.71,1088.77 1151.88,1088.77 1151.94,1087.52 1154.1,1087.52 1154.48,1086.27 1154.73,1085.02 1155.27,1085.02 
  1155.37,1085.02 1157.19,1085.02 1157.23,1083.77 1157.28,1083.77 1157.59,1083.77 1158.14,1082.52 1158.56,1082.52 1158.6,1081.27 1159.08,1081.27 1159.75,1080.02 
  1162.32,1078.77 1162.37,1078.77 1163.06,1077.52 1163.61,1077.52 1164.06,1076.27 1164.23,1075.02 1165.98,1073.76 1166.61,1072.51 1167.77,1071.26 1167.93,1071.26 
  1168.27,1070.01 1168.52,1070.01 1168.78,1068.76 1169.14,1067.51 1169.92,1067.51 1171.4,1066.26 1171.92,1066.26 1171.97,1066.26 1173.54,1066.26 1174.22,1065.01 
  1174.58,1065.01 1176.21,1065.01 1177.01,1065.01 1177.17,1065.01 1177.5,1063.76 1177.91,1063.76 1180.52,1062.51 1181.1,1062.51 1181.16,1062.51 1181.46,1062.51 
  1182.02,1062.51 1182.34,1062.51 1183.02,1061.26 1183.16,1061.26 1183.38,1061.26 1185.73,1060.01 1186.48,1060.01 1187.32,1060.01 1187.72,1060.01 1188.14,1060.01 
  1189.16,1058.76 1189.19,1057.5 1190.12,1057.5 1191.98,1057.5 1192.36,1056.25 1194.35,1055 1194.4,1055 1195.54,1053.75 1196.51,1053.75 1197.1,1052.5 
  1197.51,1051.25 1198.21,1051.25 1199.89,1051.25 1200.52,1050 1202.42,1048.75 1202.9,1047.5 1203.42,1047.5 1204.09,1046.25 1204.6,1046.25 1205.4,1045 
  1205.89,1045 1205.98,1045 1206.24,1043.75 1207.14,1043.75 1207.46,1043.75 1207.64,1042.5 1207.76,1042.5 1208.43,1041.24 1208.91,1039.99 1209.43,1039.99 
  1209.47,1039.99 1209.53,1038.74 1210.07,1038.74 1210.11,1038.74 1210.3,1037.49 1210.65,1037.49 1211.1,1036.24 1211.16,1034.99 1211.31,1033.74 1211.32,1032.49 
  1211.34,1031.24 1213.36,1031.24 1214.84,1029.99 1215.58,1028.74 1216.01,1028.74 1217.09,1028.74 1217.44,1028.74 1218.01,1028.74 1218.63,1027.49 1219.68,1026.23 
  1219.99,1024.98 1220,1024.98 1220.12,1023.73 1220.64,1022.48 1221.09,1021.23 1221.87,1021.23 1221.98,1021.23 1221.99,1019.98 1222.03,1019.98 1222.04,1018.73 
  1222.16,1018.73 1222.68,1017.48 1224.37,1017.48 1224.93,1016.23 1225.24,1014.98 1226.75,1014.98 1226.86,1014.98 1227.23,1014.98 1227.69,1014.98 1227.83,1013.73 
  1228.68,1013.73 1228.98,1012.48 1229.18,1011.23 1231.7,1011.23 1233.07,1011.23 1233.29,1009.97 1233.79,1008.72 1236.22,1007.47 1237.21,1006.22 1237.47,1004.97 
  1237.6,1004.97 1238.34,1004.97 1240.01,1004.97 1240.21,1003.72 1242.16,1002.47 1242.55,1002.47 1243.27,1001.22 1243.95,1001.22 1245.22,1001.22 1245.32,1001.22 
  1245.43,1001.22 1245.89,999.968 1246.13,998.718 1246.21,998.718 1246.5,997.467 1246.95,996.216 1247.68,996.216 1248.29,996.216 1248.94,996.216 1249.72,994.965 
  1249.97,993.715 1251.46,993.715 1252.04,993.715 1252.25,993.715 1252.58,993.715 1253.06,992.464 1253.72,991.213 1254.07,989.962 1254.15,988.711 1255.06,987.461 
  1255.42,987.461 1255.59,987.461 1255.98,987.461 1257.56,987.461 1258.1,987.461 1258.28,987.461 1258.33,987.461 1258.61,986.21 1258.77,986.21 1258.86,984.959 
  1259.3,984.959 1259.83,983.708 1260.67,983.708 1261.04,982.457 1262.23,981.207 1262.37,979.956 1263.65,978.705 1264.67,977.454 1264.84,977.454 1264.95,977.454 
  1265.57,977.454 1265.75,977.454 1266.14,976.204 1266.68,974.953 1266.78,974.953 1267.33,974.953 1267.62,974.953 1268.47,974.953 1268.73,973.702 1269.98,973.702 
  1271.07,973.702 1271.22,972.451 1272.36,971.2 1272.9,971.2 1273.16,971.2 1273.21,969.95 1273.76,968.699 1274.44,968.699 1274.77,967.448 1275.64,967.448 
  1276.47,967.448 1277.17,967.448 1277.71,967.448 1278.48,967.448 1278.88,967.448 1279.3,966.197 1279.48,964.946 1279.62,964.946 1280.25,964.946 1281.5,964.946 
  1282.18,963.696 1282.27,963.696 1282.82,962.445 1283.71,962.445 1284.11,961.194 1285.06,959.943 1285.3,958.692 1285.59,957.442 1285.72,956.191 1286.05,956.191 
  1286.22,954.94 1286.66,954.94 1286.85,953.689 1287.75,953.689 1288.25,953.689 1290.02,952.439 1290.23,952.439 1290.23,952.439 1290.44,951.188 1291.09,951.188 
  1291.2,949.937 1292.34,948.686 1292.91,947.435 1293.63,946.185 1294.13,944.934 1294.27,944.934 1294.8,944.934 1295.31,943.683 1295.7,943.683 1295.73,943.683 
  1296.89,943.683 1298.27,942.432 1299.82,942.432 1299.9,941.181 1301.66,939.931 1302.72,939.931 1303.19,938.68 1304,938.68 1304.49,937.429 1306.82,937.429 
  1307.28,936.178 1307.72,936.178 1308.14,936.178 1309.4,934.928 1309.49,934.928 1309.56,934.928 1309.81,933.677 1310.02,932.426 1310.17,931.175 1310.42,929.924 
  1310.63,928.674 1310.71,928.674 1311.24,928.674 1311.42,928.674 1311.48,927.423 1311.82,927.423 1312.04,927.423 1312.42,927.423 1312.44,926.172 1312.48,926.172 
  1313.18,926.172 1313.21,924.921 1313.43,924.921 1313.58,923.67 1314.86,922.42 1315.44,921.169 1315.96,919.918 1318.1,919.918 1319.18,918.667 1319.61,918.667 
  1319.76,917.417 1319.8,916.166 1320.37,916.166 1321.23,916.166 1321.32,914.915 1321.57,914.915 1323.41,913.664 1323.84,913.664 1323.89,913.664 1325.22,913.664 
  1325.36,912.413 1325.37,912.413 1325.55,911.163 1326.19,911.163 1326.34,909.912 1327.67,909.912 1328.67,908.661 1328.77,907.41 1329.41,906.159 1330.05,906.159 
  1330.4,904.909 1330.97,904.909 1331.45,903.658 1333.1,903.658 1333.44,903.658 1336.85,902.407 1337.93,901.156 1338.27,899.906 1338.99,899.906 1339.06,899.906 
  1339.23,899.906 1339.89,898.655 1343.48,898.655 1343.5,898.655 1345.11,898.655 1345.97,897.404 1346.13,897.404 1346.73,896.153 1347.73,896.153 1348.6,894.902 
  1348.98,893.652 1349.14,892.401 1349.5,891.15 1349.95,889.899 1350.61,889.899 1350.9,888.648 1351.47,888.648 1352.52,888.648 1352.86,887.398 1352.91,886.147 
  1352.98,884.896 1353.14,884.896 1353.42,883.645 1353.77,882.394 1354.25,881.144 1354.42,881.144 1354.55,879.893 1354.76,878.642 1355.64,877.391 1356.59,876.141 
  1357.52,876.141 1357.64,874.89 1357.86,874.89 1357.99,873.639 1358.23,872.388 1359.09,872.388 1360.1,872.388 1360.56,872.388 1361.08,872.388 1361.7,872.388 
  1361.81,871.137 1365.32,869.887 1365.64,869.887 1366.59,869.887 1366.85,868.636 1367.92,868.636 1367.94,867.385 1368.75,866.134 1369.1,866.134 1369.7,866.134 
  1370.03,866.134 1370.28,864.883 1370.49,863.633 1370.59,862.382 1370.8,861.131 1371.31,859.88 1371.58,858.63 1372,858.63 1372.76,857.379 1372.82,856.128 
  1373.5,856.128 1374.22,856.128 1376.63,856.128 1377.09,856.128 1378,854.877 1378.74,854.877 1378.95,854.877 1379.32,853.626 1379.37,853.626 1380.58,853.626 
  1380.68,852.376 1382.44,852.376 1382.78,851.125 1383.67,851.125 1384.39,851.125 1384.46,849.874 1384.5,848.623 1384.57,847.372 1384.95,847.372 1385.71,847.372 
  1386.34,846.122 1387.07,844.871 1387.12,844.871 1387.29,844.871 1387.33,844.871 1387.83,843.62 1387.95,843.62 1388.93,843.62 1388.99,842.369 1389.14,842.369 
  1389.68,841.119 1389.95,839.868 1390.15,839.868 1390.43,838.617 1391.17,838.617 1391.56,837.366 1392.62,836.115 1393.22,836.115 1393.55,834.865 1393.98,833.614 
  1394.24,833.614 1396.25,833.614 1396.77,832.363 1396.98,831.112 1398.54,831.112 1399.78,831.112 1400.29,831.112 1402.34,831.112 1402.91,831.112 1404.1,829.861 
  1404.5,828.611 1404.72,828.611 1405.09,828.611 1405.34,828.611 1405.4,827.36 1405.76,827.36 1406.57,826.109 1406.71,826.109 1407.09,824.858 1407.71,823.608 
  1407.82,823.608 1408.66,823.608 1409.36,823.608 1410.01,822.357 1410.53,821.106 1411.6,819.855 1411.85,819.855 1411.93,819.855 1412.58,819.855 1414.13,819.855 
  1414.23,818.604 1414.31,817.354 1414.53,817.354 1416.98,817.354 1417.7,816.103 1418.35,816.103 1418.43,816.103 1420.05,816.103 1421.22,814.852 1421.62,813.601 
  1423.52,812.35 1423.66,811.1 1423.72,809.849 1423.93,809.849 1424.03,808.598 1424.7,807.347 1425.27,806.096 1426.41,804.846 1427.35,803.595 1427.64,802.344 
  1427.91,802.344 1428.02,802.344 1428.26,802.344 1428.91,801.093 1429.09,801.093 1429.62,801.093 1429.86,799.843 1430.11,799.843 1431.03,798.592 1432.3,797.341 
  1432.57,797.341 1432.71,797.341 1434.85,796.09 1437.54,796.09 1438.41,794.839 1438.74,793.589 1438.86,793.589 1441.11,792.338 1441.74,792.338 1441.84,791.087 
  1442.2,789.836 1443.06,788.585 1445.67,787.335 1446.15,786.084 1446.62,784.833 1447.49,783.582 1447.7,782.332 1448.4,781.081 1449.5,779.83 1450.74,778.579 
  1450.82,778.579 1450.95,777.328 1451.24,776.078 1451.47,774.827 1452.22,773.576 1452.43,772.325 1452.82,771.074 1453.71,769.824 1455.67,768.573 1455.96,767.322 
  1455.99,766.071 1456.31,764.821 1457.74,764.821 1458.13,764.821 1459.12,763.57 1459.41,763.57 1460.24,763.57 1460.52,763.57 1462.51,763.57 1462.78,763.57 
  1464.55,763.57 1466.42,763.57 1467.51,763.57 1467.92,762.319 1468.46,761.068 1468.89,759.817 1469.04,759.817 1471.5,758.567 1474.14,758.567 1474.38,758.567 
  1475.91,758.567 1476.46,758.567 1476.53,758.567 1476.73,757.316 1476.78,756.065 1477.08,754.814 1477.73,753.563 1478.9,753.563 1479.45,753.563 1479.51,752.313 
  1481.84,752.313 1482.08,751.062 1482.43,749.811 1483.41,748.56 1483.41,747.31 1486.69,747.31 1486.74,747.31 1487.13,746.059 1487.18,744.808 1488.08,744.808 
  1488.64,743.557 1488.82,742.306 1489.04,742.306 1490.72,741.056 1491.07,739.805 1492.31,738.554 1492.51,738.554 1492.58,737.303 1493.76,736.052 1493.82,734.802 
  1494.03,733.551 1494.38,732.3 1494.7,731.049 1496.12,729.798 1496.51,728.548 1497.38,728.548 1498.04,728.548 1498.82,727.297 1499.24,726.046 1499.67,724.795 
  1503.59,723.545 1504.1,722.294 1504.43,722.294 1504.48,721.043 1507.03,721.043 1507.32,721.043 1507.81,719.792 1508.32,718.541 1509.47,717.291 1509.8,717.291 
  1511.67,717.291 1511.94,716.04 1512.73,714.789 1512.78,713.538 1513.06,713.538 1513.07,712.287 1513.2,711.037 1515.09,709.786 1517.93,709.786 1518.57,709.786 
  1518.68,708.535 1521.32,707.284 1521.77,706.034 1523.36,706.034 1524.32,706.034 1524.87,706.034 1525.15,706.034 1528.87,704.783 1528.87,704.783 1529.07,704.783 
  1529.79,704.783 1530.79,703.532 1531.28,702.281 1531.92,702.281 1532.41,701.03 1535.86,699.78 1536.85,699.78 1538.15,699.78 1538.26,698.529 1540.91,698.529 
  1541.39,697.278 1542.03,696.027 1542.87,694.776 1542.93,694.776 1543.13,693.526 1543.13,692.275 1544.94,692.275 1545.11,691.024 1547.52,689.773 1548.1,688.523 
  1549.22,687.272 1549.37,687.272 1549.49,686.021 1551.76,686.021 1552.04,686.021 1553.48,684.77 1553.57,683.519 1553.77,682.269 1555.25,681.018 1555.67,681.018 
  1555.98,679.767 1556.89,678.516 1556.94,677.265 1558.3,677.265 1558.48,676.015 1559.09,674.764 1561.43,673.513 1562.67,673.513 1562.9,672.262 1565.6,672.262 
  1566.12,671.012 1566.88,669.761 1568.27,669.761 1568.72,669.761 1570.93,668.51 1571.44,667.259 1572.62,667.259 1572.97,666.008 1574.01,666.008 1574.54,664.758 
  1574.87,663.507 1576.09,662.256 1576.95,662.256 1577.12,662.256 1578.91,661.005 1579.31,661.005 1579.91,659.754 1580.69,659.754 1580.9,659.754 1580.98,658.504 
  1581.06,657.253 1581.49,657.253 1582.96,656.002 1583.01,654.751 1583.54,653.5 1584.98,652.25 1586.54,652.25 1588.42,652.25 1591.4,650.999 1591.75,649.748 
  1593.03,649.748 1593.86,648.497 1594.62,648.497 1594.83,648.497 1594.98,647.247 1595.34,645.996 1595.59,644.745 1595.91,644.745 1598.28,643.494 1599.31,642.243 
  1599.45,642.243 1600.46,640.993 1600.62,640.993 1601.01,640.993 1601.17,639.742 1601.8,638.491 1602.3,638.491 1603.61,637.24 1604.93,637.24 1604.97,637.24 
  1605.93,635.989 1606.32,635.989 1607.37,635.989 1610.83,634.739 1612.45,634.739 1613.26,633.488 1614.22,632.237 1614.29,630.986 1615.26,629.736 1617.75,628.485 
  1620.1,627.234 1620.12,625.983 1622.33,624.732 1622.47,624.732 1624.02,624.732 1627.15,623.482 1627.97,622.231 1628.23,622.231 1630.13,620.98 1632.22,619.729 
  1633.06,618.478 1634.14,617.228 1635.17,617.228 1637.34,615.977 1641.51,614.726 1642.06,614.726 1642.57,613.475 1642.86,612.225 1642.9,610.974 1644.52,610.974 
  1645.26,609.723 1645.88,609.723 1647.81,609.723 1650.18,608.472 1653.46,608.472 1653.61,607.221 1656.83,605.971 1657.46,604.72 1657.63,604.72 1658.38,604.72 
  1661.02,603.469 1662.37,602.218 1663.52,600.967 1664.94,600.967 1666.37,599.717 1667.11,598.466 1668.17,597.215 1668.33,597.215 1669.57,595.964 1672.11,594.714 
  1672.51,593.463 1673.01,592.212 1673.28,592.212 1673.9,590.961 1674.66,589.71 1677.27,588.46 1682.26,588.46 1683.05,587.209 1684.11,585.958 1684.93,584.707 
  1685.34,583.456 1685.42,582.206 1686.77,580.955 1691.76,579.704 1692.76,578.453 1693.8,577.202 1697.76,575.952 1697.99,574.701 1699.57,573.45 1700.48,572.199 
  1701.63,572.199 1705.15,572.199 1706.62,572.199 1706.92,570.949 1707.81,570.949 1708.04,569.698 1714.93,569.698 1721.74,568.447 1721.74,567.196 1723.23,565.945 
  1723.36,565.945 1723.78,564.695 1725.75,563.444 1727.61,563.444 1728.62,562.193 1728.98,560.942 1729.29,559.691 1731.22,559.691 1731.82,558.441 1733.06,558.441 
  1734.25,558.441 1736.72,557.19 1737.04,555.939 1738.14,555.939 1739.95,555.939 1740.43,554.688 1740.43,554.688 1740.5,554.688 1740.52,553.438 1741.79,552.187 
  1747.5,550.936 1749.03,550.936 1751,549.685 1754.9,549.685 1754.91,548.434 1755.13,547.184 1756.1,545.933 1756.47,544.682 1759.19,544.682 1759.56,543.431 
  1760.85,543.431 1763.19,542.18 1764.6,540.93 1764.93,540.93 1765.32,539.679 1767.13,538.428 1767.38,537.177 1779.06,537.177 1782.32,537.177 1784.77,535.927 
  1786.71,534.676 1788.51,533.425 1791.89,533.425 1792.26,532.174 1793.84,532.174 1794.87,530.923 1794.94,529.673 1795.38,528.422 1795.49,528.422 1796.5,527.171 
  1797.04,527.171 1798.75,527.171 1801.53,527.171 1801.67,525.92 1804.54,524.669 1805.35,523.419 1808.96,522.168 1809.37,520.917 1810.56,519.666 1812.47,518.416 
  1813.4,517.165 1813.77,515.914 1815.07,515.914 1817.89,515.914 1818.23,515.914 1819.59,514.663 1820.15,514.663 1820.71,513.412 1822.19,513.412 1826.75,513.412 
  1827.78,512.162 1832,510.911 1833.48,510.911 1834.18,510.911 1835.69,509.66 1835.75,508.409 1837.5,507.158 1837.79,507.158 1837.93,507.158 1838.88,505.908 
  1840.38,504.657 1842.93,504.657 1843.41,503.406 1844.49,503.406 1845.21,503.406 1845.55,502.155 1845.73,502.155 1858.28,500.904 1861.77,500.904 1862.78,499.654 
  1864.88,498.403 1865.94,497.152 1866.92,497.152 1868.64,497.152 1870.17,497.152 1872.68,495.901 1872.84,494.651 1872.99,493.4 1876.64,492.149 1878.69,490.898 
  1885.17,489.647 1886.7,488.397 1888.69,488.397 1890.17,488.397 1895.81,487.146 1895.93,487.146 1897.68,485.895 1902.34,484.644 1903.49,484.644 1904.93,483.393 
  1909.6,482.143 1912.61,480.892 1913.25,479.641 1914.32,478.39 1914.36,477.14 1915.36,477.14 1916,475.889 1916.32,475.889 1916.36,475.889 1916.88,474.638 
  1917.99,474.638 1919,474.638 1920.21,473.387 1920.73,473.387 1922.14,472.136 1923.95,472.136 1925.32,472.136 1929.02,470.886 1930.62,470.886 1933.21,469.635 
  1939.85,468.384 1941.8,468.384 1944.87,468.384 1945.95,468.384 1946.9,467.133 1948.05,467.133 1954.04,467.133 1954.99,465.882 1955.64,464.632 1957.48,463.381 
  1960.52,462.13 1961.68,460.879 1963.83,459.629 1965.81,458.378 1965.9,457.127 1966.05,457.127 1966.1,457.127 1969.52,457.127 1970.28,457.127 1970.72,455.876 
  1973.49,454.625 1973.81,453.375 1975.99,452.124 1979.17,450.873 1980.45,449.622 1984.03,448.371 1984.85,448.371 1984.87,447.121 1987.96,447.121 1990.48,445.87 
  1992.77,444.619 2003.25,443.368 2010.52,443.368 2013,442.118 2016.46,440.867 2018.8,439.616 2023.27,439.616 2023.51,438.365 2024.15,438.365 2024.44,438.365 
  2025.2,437.114 2027.55,437.114 2028.2,435.864 2029.97,434.613 2030.44,433.362 2034.49,432.111 2038,432.111 2038.44,430.86 2041.57,429.61 2044.84,429.61 
  2045.24,428.359 2046.73,427.108 2057.09,425.857 2057.93,424.606 2062.18,423.356 2066.57,422.105 2069.2,420.854 2069.34,419.603 2070.61,418.353 2072.23,417.102 
  2082.31,415.851 2085.04,415.851 2087.91,414.6 2091.62,413.349 2094.2,413.349 2095.58,412.099 2099.52,410.848 2105.33,409.597 2106.56,408.346 2107.94,407.095 
  2112.5,405.845 2112.7,404.594 2119.29,404.594 2119.48,404.594 2122.74,403.343 2126.31,403.343 2129.52,402.092 2134.84,400.842 2135.71,400.842 2139.05,399.591 
  2139.79,398.34 2146.12,397.089 2160.83,397.089 2162.68,397.089 2164.88,395.838 2172.43,395.838 2173.23,394.588 2174.04,393.337 2180.02,393.337 2189.02,392.086 
  2195.16,392.086 2198.93,392.086 2199.74,390.835 2199.99,390.835 
  "/>
<path clip-path="url(#clip120)" d="
M1999.43 272.437 L2256.76 272.437 L2256.76 30.5166 L1999.43 30.5166  Z
  " fill="#ffffff" fill-rule="evenodd" fill-opacity="1"/>
<polyline clip-path="url(#clip120)" style="stroke:#000000; stroke-width:4; stroke-opacity:1; fill:none" points="
  1999.43,272.437 2256.76,272.437 2256.76,30.5166 1999.43,30.5166 1999.43,272.437 
  "/>
<polyline clip-path="url(#clip120)" style="stroke:#009af9; stroke-width:4; stroke-opacity:1; fill:none" points="
  2022.47,90.9966 2160.71,90.9966 
  "/>
<path clip-path="url(#clip120)" d="M 0 0 M2206 74.8509 L2206 79.411 Q2203.34 78.1379 2200.98 77.5129 Q2198.62 76.8879 2196.42 76.8879 Q2192.6 76.8879 2190.51 78.3694 Q2188.45 79.8508 2188.45 82.5823 Q2188.45 84.874 2189.82 86.0545 Q2191.21 87.2119 2195.05 87.9295 L2197.88 88.5082 Q2203.11 89.5036 2205.58 92.0267 Q2208.08 94.5267 2208.08 98.7396 Q2208.08 103.763 2204.7 106.355 Q2201.35 108.948 2194.84 108.948 Q2192.39 108.948 2189.61 108.392 Q2186.86 107.837 2183.89 106.749 L2183.89 101.934 Q2186.74 103.531 2189.47 104.341 Q2192.2 105.152 2194.84 105.152 Q2198.85 105.152 2201.02 103.578 Q2203.2 102.004 2203.2 99.0869 Q2203.2 96.5406 2201.63 95.1054 Q2200.07 93.6702 2196.51 92.9526 L2193.66 92.3971 Q2188.43 91.3554 2186.09 89.1332 Q2183.75 86.911 2183.75 82.9527 Q2183.75 78.3694 2186.97 75.7305 Q2190.21 73.0916 2195.88 73.0916 Q2198.31 73.0916 2200.84 73.5314 Q2203.36 73.9712 2206 74.8509 Z" fill="#000000" fill-rule="evenodd" fill-opacity="1" /><polyline clip-path="url(#clip120)" style="stroke:#e26f46; stroke-width:4; stroke-opacity:1; fill:none" points="
  2022.47,151.477 2160.71,151.477 
  "/>
<path clip-path="url(#clip120)" d="M 0 0 M2183.75 134.197 L2188.43 134.197 L2188.43 168.757 L2183.75 168.757 L2183.75 134.197 Z" fill="#000000" fill-rule="evenodd" fill-opacity="1" /><polyline clip-path="url(#clip120)" style="stroke:#3da44d; stroke-width:4; stroke-opacity:1; fill:none" points="
  2022.47,211.957 2160.71,211.957 
  "/>
<path clip-path="url(#clip120)" d="M 0 0 M2200.14 213.033 Q2201.65 213.542 2203.06 215.209 Q2204.5 216.876 2205.93 219.792 L2210.68 229.237 L2205.65 229.237 L2201.23 220.371 Q2199.52 216.899 2197.9 215.764 Q2196.3 214.63 2193.52 214.63 L2188.43 214.63 L2188.43 229.237 L2183.75 229.237 L2183.75 194.677 L2194.31 194.677 Q2200.24 194.677 2203.15 197.153 Q2206.07 199.63 2206.07 204.63 Q2206.07 207.894 2204.54 210.047 Q2203.04 212.2 2200.14 213.033 M2188.43 198.519 L2188.43 210.788 L2194.31 210.788 Q2197.69 210.788 2199.4 209.237 Q2201.14 207.663 2201.14 204.63 Q2201.14 201.598 2199.4 200.07 Q2197.69 198.519 2194.31 198.519 L2188.43 198.519 Z" fill="#000000" fill-rule="evenodd" fill-opacity="1" /></svg>
