<?xml version="1.0" encoding="utf-8"?>
<svg xmlns="http://www.w3.org/2000/svg" xmlns:xlink="http://www.w3.org/1999/xlink" width="576" height="384" viewBox="0 0 2304 1536">
<defs>
  <clipPath id="clip190">
    <rect x="0" y="0" width="2304" height="1536"/>
  </clipPath>
</defs>
<path clip-path="url(#clip190)" d="
M0 1536 L2304 1536 L2304 0 L0 0  Z
  " fill="#ffffff" fill-rule="evenodd" fill-opacity="1"/>
<defs>
  <clipPath id="clip191">
    <rect x="460" y="0" width="1614" height="1536"/>
  </clipPath>
</defs>
<path clip-path="url(#clip190)" d="
M173.902 1423.09 L2256.76 1423.09 L2256.76 47.2441 L173.902 47.2441  Z
  " fill="#ffffff" fill-rule="evenodd" fill-opacity="1"/>
<defs>
  <clipPath id="clip192">
    <rect x="173" y="47" width="2084" height="1377"/>
  </clipPath>
</defs>
<polyline clip-path="url(#clip192)" style="stroke:#000000; stroke-width:2; stroke-opacity:0.1; fill:none" points="
  182.467,1423.09 182.467,47.2441 
  "/>
<polyline clip-path="url(#clip192)" style="stroke:#000000; stroke-width:2; stroke-opacity:0.1; fill:none" points="
  686.302,1423.09 686.302,47.2441 
  "/>
<polyline clip-path="url(#clip192)" style="stroke:#000000; stroke-width:2; stroke-opacity:0.1; fill:none" points="
  1190.14,1423.09 1190.14,47.2441 
  "/>
<polyline clip-path="url(#clip192)" style="stroke:#000000; stroke-width:2; stroke-opacity:0.1; fill:none" points="
  1693.97,1423.09 1693.97,47.2441 
  "/>
<polyline clip-path="url(#clip192)" style="stroke:#000000; stroke-width:2; stroke-opacity:0.1; fill:none" points="
  2197.81,1423.09 2197.81,47.2441 
  "/>
<polyline clip-path="url(#clip192)" style="stroke:#000000; stroke-width:2; stroke-opacity:0.1; fill:none" points="
  173.902,1384.15 2256.76,1384.15 
  "/>
<polyline clip-path="url(#clip192)" style="stroke:#000000; stroke-width:2; stroke-opacity:0.1; fill:none" points="
  173.902,1059.66 2256.76,1059.66 
  "/>
<polyline clip-path="url(#clip192)" style="stroke:#000000; stroke-width:2; stroke-opacity:0.1; fill:none" points="
  173.902,735.166 2256.76,735.166 
  "/>
<polyline clip-path="url(#clip192)" style="stroke:#000000; stroke-width:2; stroke-opacity:0.1; fill:none" points="
  173.902,410.675 2256.76,410.675 
  "/>
<polyline clip-path="url(#clip192)" style="stroke:#000000; stroke-width:2; stroke-opacity:0.1; fill:none" points="
  173.902,86.1831 2256.76,86.1831 
  "/>
<polyline clip-path="url(#clip190)" style="stroke:#000000; stroke-width:4; stroke-opacity:1; fill:none" points="
  173.902,1423.09 2256.76,1423.09 
  "/>
<polyline clip-path="url(#clip190)" style="stroke:#000000; stroke-width:4; stroke-opacity:1; fill:none" points="
  173.902,1423.09 173.902,47.2441 
  "/>
<polyline clip-path="url(#clip190)" style="stroke:#000000; stroke-width:4; stroke-opacity:1; fill:none" points="
  182.467,1423.09 182.467,1406.58 
  "/>
<polyline clip-path="url(#clip190)" style="stroke:#000000; stroke-width:4; stroke-opacity:1; fill:none" points="
  686.302,1423.09 686.302,1406.58 
  "/>
<polyline clip-path="url(#clip190)" style="stroke:#000000; stroke-width:4; stroke-opacity:1; fill:none" points="
  1190.14,1423.09 1190.14,1406.58 
  "/>
<polyline clip-path="url(#clip190)" style="stroke:#000000; stroke-width:4; stroke-opacity:1; fill:none" points="
  1693.97,1423.09 1693.97,1406.58 
  "/>
<polyline clip-path="url(#clip190)" style="stroke:#000000; stroke-width:4; stroke-opacity:1; fill:none" points="
  2197.81,1423.09 2197.81,1406.58 
  "/>
<polyline clip-path="url(#clip190)" style="stroke:#000000; stroke-width:4; stroke-opacity:1; fill:none" points="
  173.902,1384.15 198.896,1384.15 
  "/>
<polyline clip-path="url(#clip190)" style="stroke:#000000; stroke-width:4; stroke-opacity:1; fill:none" points="
  173.902,1059.66 198.896,1059.66 
  "/>
<polyline clip-path="url(#clip190)" style="stroke:#000000; stroke-width:4; stroke-opacity:1; fill:none" points="
  173.902,735.166 198.896,735.166 
  "/>
<polyline clip-path="url(#clip190)" style="stroke:#000000; stroke-width:4; stroke-opacity:1; fill:none" points="
  173.902,410.675 198.896,410.675 
  "/>
<polyline clip-path="url(#clip190)" style="stroke:#000000; stroke-width:4; stroke-opacity:1; fill:none" points="
  173.902,86.1831 198.896,86.1831 
  "/>
<path clip-path="url(#clip190)" d="M 0 0 M182.467 1444.6 Q178.856 1444.6 177.027 1448.16 Q175.222 1451.71 175.222 1458.83 Q175.222 1465.94 177.027 1469.51 Q178.856 1473.05 182.467 1473.05 Q186.101 1473.05 187.907 1469.51 Q189.736 1465.94 189.736 1458.83 Q189.736 1451.71 187.907 1448.16 Q186.101 1444.6 182.467 1444.6 M182.467 1440.89 Q188.277 1440.89 191.333 1445.5 Q194.412 1450.08 194.412 1458.83 Q194.412 1467.56 191.333 1472.17 Q188.277 1476.75 182.467 1476.75 Q176.657 1476.75 173.578 1472.17 Q170.523 1467.56 170.523 1458.83 Q170.523 1450.08 173.578 1445.5 Q176.657 1440.89 182.467 1440.89 Z" fill="#000000" fill-rule="evenodd" fill-opacity="1" /><path clip-path="url(#clip190)" d="M 0 0 M663.177 1472.14 L670.816 1472.14 L670.816 1445.78 L662.506 1447.45 L662.506 1443.19 L670.77 1441.52 L675.446 1441.52 L675.446 1472.14 L683.085 1472.14 L683.085 1476.08 L663.177 1476.08 L663.177 1472.14 Z" fill="#000000" fill-rule="evenodd" fill-opacity="1" /><path clip-path="url(#clip190)" d="M 0 0 M698.154 1444.6 Q694.543 1444.6 692.714 1448.16 Q690.909 1451.71 690.909 1458.83 Q690.909 1465.94 692.714 1469.51 Q694.543 1473.05 698.154 1473.05 Q701.788 1473.05 703.594 1469.51 Q705.422 1465.94 705.422 1458.83 Q705.422 1451.71 703.594 1448.16 Q701.788 1444.6 698.154 1444.6 M698.154 1440.89 Q703.964 1440.89 707.02 1445.5 Q710.098 1450.08 710.098 1458.83 Q710.098 1467.56 707.02 1472.17 Q703.964 1476.75 698.154 1476.75 Q692.344 1476.75 689.265 1472.17 Q686.21 1467.56 686.21 1458.83 Q686.21 1450.08 689.265 1445.5 Q692.344 1440.89 698.154 1440.89 Z" fill="#000000" fill-rule="evenodd" fill-opacity="1" /><path clip-path="url(#clip190)" d="M 0 0 M1171.28 1472.14 L1187.6 1472.14 L1187.6 1476.08 L1165.66 1476.08 L1165.66 1472.14 Q1168.32 1469.39 1172.9 1464.76 Q1177.51 1460.11 1178.69 1458.77 Q1180.94 1456.24 1181.82 1454.51 Q1182.72 1452.75 1182.72 1451.06 Q1182.72 1448.3 1180.77 1446.57 Q1178.85 1444.83 1175.75 1444.83 Q1173.55 1444.83 1171.1 1445.59 Q1168.67 1446.36 1165.89 1447.91 L1165.89 1443.19 Q1168.71 1442.05 1171.17 1441.47 Q1173.62 1440.89 1175.66 1440.89 Q1181.03 1440.89 1184.22 1443.58 Q1187.42 1446.27 1187.42 1450.76 Q1187.42 1452.89 1186.61 1454.81 Q1185.82 1456.7 1183.71 1459.3 Q1183.13 1459.97 1180.03 1463.19 Q1176.93 1466.38 1171.28 1472.14 Z" fill="#000000" fill-rule="evenodd" fill-opacity="1" /><path clip-path="url(#clip190)" d="M 0 0 M1202.67 1444.6 Q1199.06 1444.6 1197.23 1448.16 Q1195.43 1451.71 1195.43 1458.83 Q1195.43 1465.94 1197.23 1469.51 Q1199.06 1473.05 1202.67 1473.05 Q1206.31 1473.05 1208.11 1469.51 Q1209.94 1465.94 1209.94 1458.83 Q1209.94 1451.71 1208.11 1448.16 Q1206.31 1444.6 1202.67 1444.6 M1202.67 1440.89 Q1208.48 1440.89 1211.54 1445.5 Q1214.62 1450.08 1214.62 1458.83 Q1214.62 1467.56 1211.54 1472.17 Q1208.48 1476.75 1202.67 1476.75 Q1196.86 1476.75 1193.78 1472.17 Q1190.73 1467.56 1190.73 1458.83 Q1190.73 1450.08 1193.78 1445.5 Q1196.86 1440.89 1202.67 1440.89 Z" fill="#000000" fill-rule="evenodd" fill-opacity="1" /><path clip-path="url(#clip190)" d="M 0 0 M1684.71 1457.45 Q1688.07 1458.16 1689.94 1460.43 Q1691.84 1462.7 1691.84 1466.03 Q1691.84 1471.15 1688.32 1473.95 Q1684.81 1476.75 1678.32 1476.75 Q1676.15 1476.75 1673.83 1476.31 Q1671.54 1475.89 1669.09 1475.04 L1669.09 1470.52 Q1671.03 1471.66 1673.35 1472.24 Q1675.66 1472.82 1678.19 1472.82 Q1682.58 1472.82 1684.88 1471.08 Q1687.19 1469.34 1687.19 1466.03 Q1687.19 1462.98 1685.04 1461.27 Q1682.91 1459.53 1679.09 1459.53 L1675.06 1459.53 L1675.06 1455.69 L1679.27 1455.69 Q1682.72 1455.69 1684.55 1454.32 Q1686.38 1452.93 1686.38 1450.34 Q1686.38 1447.68 1684.48 1446.27 Q1682.61 1444.83 1679.09 1444.83 Q1677.17 1444.83 1674.97 1445.25 Q1672.77 1445.66 1670.13 1446.54 L1670.13 1442.38 Q1672.79 1441.64 1675.11 1441.27 Q1677.44 1440.89 1679.5 1440.89 Q1684.83 1440.89 1687.93 1443.33 Q1691.03 1445.73 1691.03 1449.85 Q1691.03 1452.72 1689.39 1454.71 Q1687.75 1456.68 1684.71 1457.45 Z" fill="#000000" fill-rule="evenodd" fill-opacity="1" /><path clip-path="url(#clip190)" d="M 0 0 M1706.91 1444.6 Q1703.3 1444.6 1701.47 1448.16 Q1699.67 1451.71 1699.67 1458.83 Q1699.67 1465.94 1701.47 1469.51 Q1703.3 1473.05 1706.91 1473.05 Q1710.55 1473.05 1712.35 1469.51 Q1714.18 1465.94 1714.18 1458.83 Q1714.18 1451.71 1712.35 1448.16 Q1710.55 1444.6 1706.91 1444.6 M1706.91 1440.89 Q1712.72 1440.89 1715.78 1445.5 Q1718.86 1450.08 1718.86 1458.83 Q1718.86 1467.56 1715.78 1472.17 Q1712.72 1476.75 1706.91 1476.75 Q1701.1 1476.75 1698.02 1472.17 Q1694.97 1467.56 1694.97 1458.83 Q1694.97 1450.08 1698.02 1445.5 Q1701.1 1440.89 1706.91 1440.89 Z" fill="#000000" fill-rule="evenodd" fill-opacity="1" /><path clip-path="url(#clip190)" d="M 0 0 M2187.31 1445.59 L2175.5 1464.04 L2187.31 1464.04 L2187.31 1445.59 M2186.08 1441.52 L2191.96 1441.52 L2191.96 1464.04 L2196.89 1464.04 L2196.89 1467.93 L2191.96 1467.93 L2191.96 1476.08 L2187.31 1476.08 L2187.31 1467.93 L2171.71 1467.93 L2171.71 1463.42 L2186.08 1441.52 Z" fill="#000000" fill-rule="evenodd" fill-opacity="1" /><path clip-path="url(#clip190)" d="M 0 0 M2211.96 1444.6 Q2208.35 1444.6 2206.52 1448.16 Q2204.72 1451.71 2204.72 1458.83 Q2204.72 1465.94 2206.52 1469.51 Q2208.35 1473.05 2211.96 1473.05 Q2215.6 1473.05 2217.4 1469.51 Q2219.23 1465.94 2219.23 1458.83 Q2219.23 1451.71 2217.4 1448.16 Q2215.6 1444.6 2211.96 1444.6 M2211.96 1440.89 Q2217.77 1440.89 2220.83 1445.5 Q2223.91 1450.08 2223.91 1458.83 Q2223.91 1467.56 2220.83 1472.17 Q2217.77 1476.75 2211.96 1476.75 Q2206.15 1476.75 2203.07 1472.17 Q2200.02 1467.56 2200.02 1458.83 Q2200.02 1450.08 2203.07 1445.5 Q2206.15 1440.89 2211.96 1440.89 Z" fill="#000000" fill-rule="evenodd" fill-opacity="1" /><path clip-path="url(#clip190)" d="M 0 0 M74.9365 1369.95 Q71.3254 1369.95 69.4967 1373.51 Q67.6912 1377.05 67.6912 1384.18 Q67.6912 1391.29 69.4967 1394.85 Q71.3254 1398.4 74.9365 1398.4 Q78.5707 1398.4 80.3763 1394.85 Q82.205 1391.29 82.205 1384.18 Q82.205 1377.05 80.3763 1373.51 Q78.5707 1369.95 74.9365 1369.95 M74.9365 1366.24 Q80.7467 1366.24 83.8022 1370.85 Q86.8809 1375.43 86.8809 1384.18 Q86.8809 1392.91 83.8022 1397.52 Q80.7467 1402.1 74.9365 1402.1 Q69.1264 1402.1 66.0477 1397.52 Q62.9921 1392.91 62.9921 1384.18 Q62.9921 1375.43 66.0477 1370.85 Q69.1264 1366.24 74.9365 1366.24 Z" fill="#000000" fill-rule="evenodd" fill-opacity="1" /><path clip-path="url(#clip190)" d="M 0 0 M91.9503 1395.55 L96.8345 1395.55 L96.8345 1401.43 L91.9503 1401.43 L91.9503 1395.55 Z" fill="#000000" fill-rule="evenodd" fill-opacity="1" /><path clip-path="url(#clip190)" d="M 0 0 M111.904 1369.95 Q108.293 1369.95 106.464 1373.51 Q104.659 1377.05 104.659 1384.18 Q104.659 1391.29 106.464 1394.85 Q108.293 1398.4 111.904 1398.4 Q115.538 1398.4 117.344 1394.85 Q119.172 1391.29 119.172 1384.18 Q119.172 1377.05 117.344 1373.51 Q115.538 1369.95 111.904 1369.95 M111.904 1366.24 Q117.714 1366.24 120.77 1370.85 Q123.848 1375.43 123.848 1384.18 Q123.848 1392.91 120.77 1397.52 Q117.714 1402.1 111.904 1402.1 Q106.094 1402.1 103.015 1397.52 Q99.9595 1392.91 99.9595 1384.18 Q99.9595 1375.43 103.015 1370.85 Q106.094 1366.24 111.904 1366.24 Z" fill="#000000" fill-rule="evenodd" fill-opacity="1" /><path clip-path="url(#clip190)" d="M 0 0 M138.918 1369.95 Q135.307 1369.95 133.478 1373.51 Q131.672 1377.05 131.672 1384.18 Q131.672 1391.29 133.478 1394.85 Q135.307 1398.4 138.918 1398.4 Q142.552 1398.4 144.357 1394.85 Q146.186 1391.29 146.186 1384.18 Q146.186 1377.05 144.357 1373.51 Q142.552 1369.95 138.918 1369.95 M138.918 1366.24 Q144.728 1366.24 147.783 1370.85 Q150.862 1375.43 150.862 1384.18 Q150.862 1392.91 147.783 1397.52 Q144.728 1402.1 138.918 1402.1 Q133.107 1402.1 130.029 1397.52 Q126.973 1392.91 126.973 1384.18 Q126.973 1375.43 130.029 1370.85 Q133.107 1366.24 138.918 1366.24 Z" fill="#000000" fill-rule="evenodd" fill-opacity="1" /><path clip-path="url(#clip190)" d="M 0 0 M77.5291 1045.46 Q73.918 1045.46 72.0893 1049.02 Q70.2838 1052.56 70.2838 1059.69 Q70.2838 1066.8 72.0893 1070.36 Q73.918 1073.91 77.5291 1073.91 Q81.1633 1073.91 82.9689 1070.36 Q84.7976 1066.8 84.7976 1059.69 Q84.7976 1052.56 82.9689 1049.02 Q81.1633 1045.46 77.5291 1045.46 M77.5291 1041.75 Q83.3392 1041.75 86.3948 1046.36 Q89.4735 1050.94 89.4735 1059.69 Q89.4735 1068.42 86.3948 1073.03 Q83.3392 1077.61 77.5291 1077.61 Q71.7189 1077.61 68.6402 1073.03 Q65.5847 1068.42 65.5847 1059.69 Q65.5847 1050.94 68.6402 1046.36 Q71.7189 1041.75 77.5291 1041.75 Z" fill="#000000" fill-rule="evenodd" fill-opacity="1" /><path clip-path="url(#clip190)" d="M 0 0 M94.5429 1071.06 L99.4271 1071.06 L99.4271 1076.94 L94.5429 1076.94 L94.5429 1071.06 Z" fill="#000000" fill-rule="evenodd" fill-opacity="1" /><path clip-path="url(#clip190)" d="M 0 0 M108.524 1073 L124.844 1073 L124.844 1076.94 L102.899 1076.94 L102.899 1073 Q105.561 1070.25 110.145 1065.62 Q114.751 1060.97 115.932 1059.62 Q118.177 1057.1 119.057 1055.36 Q119.959 1053.6 119.959 1051.91 Q119.959 1049.16 118.015 1047.42 Q116.094 1045.69 112.992 1045.69 Q110.793 1045.69 108.339 1046.45 Q105.909 1047.22 103.131 1048.77 L103.131 1044.04 Q105.955 1042.91 108.409 1042.33 Q110.862 1041.75 112.899 1041.75 Q118.27 1041.75 121.464 1044.44 Q124.658 1047.12 124.658 1051.61 Q124.658 1053.74 123.848 1055.66 Q123.061 1057.56 120.955 1060.16 Q120.376 1060.83 117.274 1064.04 Q114.172 1067.24 108.524 1073 Z" fill="#000000" fill-rule="evenodd" fill-opacity="1" /><path clip-path="url(#clip190)" d="M 0 0 M129.959 1042.38 L148.316 1042.38 L148.316 1046.31 L134.242 1046.31 L134.242 1054.78 Q135.26 1054.44 136.279 1054.28 Q137.297 1054.09 138.316 1054.09 Q144.103 1054.09 147.482 1057.26 Q150.862 1060.43 150.862 1065.85 Q150.862 1071.43 147.39 1074.53 Q143.918 1077.61 137.598 1077.61 Q135.422 1077.61 133.154 1077.24 Q130.908 1076.87 128.501 1076.13 L128.501 1071.43 Q130.584 1072.56 132.807 1073.12 Q135.029 1073.67 137.506 1073.67 Q141.51 1073.67 143.848 1071.57 Q146.186 1069.46 146.186 1065.85 Q146.186 1062.24 143.848 1060.13 Q141.51 1058.03 137.506 1058.03 Q135.631 1058.03 133.756 1058.44 Q131.904 1058.86 129.959 1059.74 L129.959 1042.38 Z" fill="#000000" fill-rule="evenodd" fill-opacity="1" /><path clip-path="url(#clip190)" d="M 0 0 M75.9319 720.965 Q72.3208 720.965 70.4921 724.529 Q68.6865 728.071 68.6865 735.201 Q68.6865 742.307 70.4921 745.872 Q72.3208 749.414 75.9319 749.414 Q79.5661 749.414 81.3717 745.872 Q83.2004 742.307 83.2004 735.201 Q83.2004 728.071 81.3717 724.529 Q79.5661 720.965 75.9319 720.965 M75.9319 717.261 Q81.742 717.261 84.7976 721.867 Q87.8763 726.451 87.8763 735.201 Q87.8763 743.928 84.7976 748.534 Q81.742 753.117 75.9319 753.117 Q70.1217 753.117 67.043 748.534 Q63.9875 743.928 63.9875 735.201 Q63.9875 726.451 67.043 721.867 Q70.1217 717.261 75.9319 717.261 Z" fill="#000000" fill-rule="evenodd" fill-opacity="1" /><path clip-path="url(#clip190)" d="M 0 0 M92.9457 746.566 L97.8299 746.566 L97.8299 752.446 L92.9457 752.446 L92.9457 746.566 Z" fill="#000000" fill-rule="evenodd" fill-opacity="1" /><path clip-path="url(#clip190)" d="M 0 0 M102.946 717.886 L121.302 717.886 L121.302 721.821 L107.228 721.821 L107.228 730.293 Q108.247 729.946 109.265 729.784 Q110.284 729.599 111.302 729.599 Q117.089 729.599 120.469 732.77 Q123.848 735.941 123.848 741.358 Q123.848 746.937 120.376 750.039 Q116.904 753.117 110.584 753.117 Q108.409 753.117 106.14 752.747 Q103.895 752.377 101.487 751.636 L101.487 746.937 Q103.571 748.071 105.793 748.627 Q108.015 749.182 110.492 749.182 Q114.496 749.182 116.834 747.076 Q119.172 744.969 119.172 741.358 Q119.172 737.747 116.834 735.641 Q114.496 733.534 110.492 733.534 Q108.617 733.534 106.742 733.951 Q104.89 734.367 102.946 735.247 L102.946 717.886 Z" fill="#000000" fill-rule="evenodd" fill-opacity="1" /><path clip-path="url(#clip190)" d="M 0 0 M138.918 720.965 Q135.307 720.965 133.478 724.529 Q131.672 728.071 131.672 735.201 Q131.672 742.307 133.478 745.872 Q135.307 749.414 138.918 749.414 Q142.552 749.414 144.357 745.872 Q146.186 742.307 146.186 735.201 Q146.186 728.071 144.357 724.529 Q142.552 720.965 138.918 720.965 M138.918 717.261 Q144.728 717.261 147.783 721.867 Q150.862 726.451 150.862 735.201 Q150.862 743.928 147.783 748.534 Q144.728 753.117 138.918 753.117 Q133.107 753.117 130.029 748.534 Q126.973 743.928 126.973 735.201 Q126.973 726.451 130.029 721.867 Q133.107 717.261 138.918 717.261 Z" fill="#000000" fill-rule="evenodd" fill-opacity="1" /><path clip-path="url(#clip190)" d="M 0 0 M76.8346 396.473 Q73.2236 396.473 71.3949 400.038 Q69.5893 403.58 69.5893 410.709 Q69.5893 417.816 71.3949 421.38 Q73.2236 424.922 76.8346 424.922 Q80.4689 424.922 82.2744 421.38 Q84.1031 417.816 84.1031 410.709 Q84.1031 403.58 82.2744 400.038 Q80.4689 396.473 76.8346 396.473 M76.8346 392.77 Q82.6448 392.77 85.7003 397.376 Q88.779 401.959 88.779 410.709 Q88.779 419.436 85.7003 424.043 Q82.6448 428.626 76.8346 428.626 Q71.0245 428.626 67.9458 424.043 Q64.8903 419.436 64.8903 410.709 Q64.8903 401.959 67.9458 397.376 Q71.0245 392.77 76.8346 392.77 Z" fill="#000000" fill-rule="evenodd" fill-opacity="1" /><path clip-path="url(#clip190)" d="M 0 0 M93.8484 422.075 L98.7327 422.075 L98.7327 427.955 L93.8484 427.955 L93.8484 422.075 Z" fill="#000000" fill-rule="evenodd" fill-opacity="1" /><path clip-path="url(#clip190)" d="M 0 0 M102.622 393.395 L124.844 393.395 L124.844 395.385 L112.297 427.955 L107.413 427.955 L119.219 397.33 L102.622 397.33 L102.622 393.395 Z" fill="#000000" fill-rule="evenodd" fill-opacity="1" /><path clip-path="url(#clip190)" d="M 0 0 M129.959 393.395 L148.316 393.395 L148.316 397.33 L134.242 397.33 L134.242 405.802 Q135.26 405.455 136.279 405.293 Q137.297 405.107 138.316 405.107 Q144.103 405.107 147.482 408.279 Q150.862 411.45 150.862 416.867 Q150.862 422.445 147.39 425.547 Q143.918 428.626 137.598 428.626 Q135.422 428.626 133.154 428.255 Q130.908 427.885 128.501 427.144 L128.501 422.445 Q130.584 423.58 132.807 424.135 Q135.029 424.691 137.506 424.691 Q141.51 424.691 143.848 422.584 Q146.186 420.478 146.186 416.867 Q146.186 413.256 143.848 411.149 Q141.51 409.043 137.506 409.043 Q135.631 409.043 133.756 409.459 Q131.904 409.876 129.959 410.756 L129.959 393.395 Z" fill="#000000" fill-rule="evenodd" fill-opacity="1" /><path clip-path="url(#clip190)" d="M 0 0 M66.9736 99.5279 L74.6124 99.5279 L74.6124 73.1623 L66.3023 74.829 L66.3023 70.5697 L74.5661 68.9031 L79.242 68.9031 L79.242 99.5279 L86.8809 99.5279 L86.8809 103.463 L66.9736 103.463 L66.9736 99.5279 Z" fill="#000000" fill-rule="evenodd" fill-opacity="1" /><path clip-path="url(#clip190)" d="M 0 0 M91.9503 97.5835 L96.8345 97.5835 L96.8345 103.463 L91.9503 103.463 L91.9503 97.5835 Z" fill="#000000" fill-rule="evenodd" fill-opacity="1" /><path clip-path="url(#clip190)" d="M 0 0 M111.904 71.9818 Q108.293 71.9818 106.464 75.5466 Q104.659 79.0882 104.659 86.2178 Q104.659 93.3242 106.464 96.889 Q108.293 100.431 111.904 100.431 Q115.538 100.431 117.344 96.889 Q119.172 93.3242 119.172 86.2178 Q119.172 79.0882 117.344 75.5466 Q115.538 71.9818 111.904 71.9818 M111.904 68.2781 Q117.714 68.2781 120.77 72.8845 Q123.848 77.4678 123.848 86.2178 Q123.848 94.9446 120.77 99.5511 Q117.714 104.134 111.904 104.134 Q106.094 104.134 103.015 99.5511 Q99.9595 94.9446 99.9595 86.2178 Q99.9595 77.4678 103.015 72.8845 Q106.094 68.2781 111.904 68.2781 Z" fill="#000000" fill-rule="evenodd" fill-opacity="1" /><path clip-path="url(#clip190)" d="M 0 0 M138.918 71.9818 Q135.307 71.9818 133.478 75.5466 Q131.672 79.0882 131.672 86.2178 Q131.672 93.3242 133.478 96.889 Q135.307 100.431 138.918 100.431 Q142.552 100.431 144.357 96.889 Q146.186 93.3242 146.186 86.2178 Q146.186 79.0882 144.357 75.5466 Q142.552 71.9818 138.918 71.9818 M138.918 68.2781 Q144.728 68.2781 147.783 72.8845 Q150.862 77.4678 150.862 86.2178 Q150.862 94.9446 147.783 99.5511 Q144.728 104.134 138.918 104.134 Q133.107 104.134 130.029 99.5511 Q126.973 94.9446 126.973 86.2178 Q126.973 77.4678 130.029 72.8845 Q133.107 68.2781 138.918 68.2781 Z" fill="#000000" fill-rule="evenodd" fill-opacity="1" /><polyline clip-path="url(#clip192)" style="stroke:#009af9; stroke-width:4; stroke-opacity:1; fill:none" points="
  232.851,1384.15 283.234,1384.15 333.618,1384.15 384.001,1384.15 434.385,1384.15 484.768,1384.15 535.152,1384.15 585.535,1384.15 635.919,1384.15 686.302,1384.15 
  736.686,1384.15 787.069,1384.15 837.453,1384.15 887.836,1384.15 938.22,1384.15 988.603,1384.15 1038.99,1384.15 1089.37,1384.15 1139.75,1384.15 1190.14,1384.15 
  1240.52,1384.15 1290.9,1384.15 1341.29,1384.15 1391.67,1384.15 1442.05,1384.15 1492.44,1384.15 1542.82,1384.15 1593.21,1384.15 1643.59,1384.15 1693.97,1384.15 
  1744.36,1384.15 1794.74,1384.15 1845.12,1384.15 1895.51,1384.15 1945.89,1384.15 1996.27,1384.15 2046.66,1384.15 2097.04,1384.15 2147.42,1384.15 2197.81,1384.15 
  
  "/>
<path clip-path="url(#clip190)" d="
M1975.34 153.586 L2256.76 153.586 L2256.76 32.6256 L1975.34 32.6256  Z
  " fill="#ffffff" fill-rule="evenodd" fill-opacity="1"/>
<polyline clip-path="url(#clip190)" style="stroke:#000000; stroke-width:4; stroke-opacity:1; fill:none" points="
  1975.34,153.586 2256.76,153.586 2256.76,32.6256 1975.34,32.6256 1975.34,153.586 
  "/>
<polyline clip-path="url(#clip190)" style="stroke:#009af9; stroke-width:4; stroke-opacity:1; fill:none" points="
  1998.38,93.1056 2136.62,93.1056 
  "/>
<path clip-path="url(#clip190)" d="M 0 0 M2173.5 112.793 Q2171.69 117.423 2169.98 118.835 Q2168.27 120.247 2165.4 120.247 L2162 120.247 L2162 116.682 L2164.5 116.682 Q2166.25 116.682 2167.23 115.848 Q2168.2 115.015 2169.38 111.913 L2170.14 109.969 L2159.66 84.4598 L2164.17 84.4598 L2172.27 104.737 L2180.38 84.4598 L2184.89 84.4598 L2173.5 112.793 Z" fill="#000000" fill-rule="evenodd" fill-opacity="1" /><path clip-path="url(#clip190)" d="M 0 0 M2190.77 106.45 L2198.41 106.45 L2198.41 80.0848 L2190.1 81.7514 L2190.1 77.4922 L2198.36 75.8256 L2203.04 75.8256 L2203.04 106.45 L2210.68 106.45 L2210.68 110.386 L2190.77 110.386 L2190.77 106.45 Z" fill="#000000" fill-rule="evenodd" fill-opacity="1" /></svg>
