<?xml version="1.0" encoding="utf-8"?>
<svg xmlns="http://www.w3.org/2000/svg" xmlns:xlink="http://www.w3.org/1999/xlink" width="576" height="384" viewBox="0 0 2304 1536">
<defs>
  <clipPath id="clip070">
    <rect x="0" y="0" width="2304" height="1536"/>
  </clipPath>
</defs>
<path clip-path="url(#clip070)" d="
M0 1536 L2304 1536 L2304 0 L0 0  Z
  " fill="#ffffff" fill-rule="evenodd" fill-opacity="1"/>
<defs>
  <clipPath id="clip071">
    <rect x="460" y="0" width="1614" height="1536"/>
  </clipPath>
</defs>
<path clip-path="url(#clip070)" d="
M138.231 1423.09 L2256.76 1423.09 L2256.76 47.2441 L138.231 47.2441  Z
  " fill="#ffffff" fill-rule="evenodd" fill-opacity="1"/>
<defs>
  <clipPath id="clip072">
    <rect x="138" y="47" width="2120" height="1377"/>
  </clipPath>
</defs>
<polyline clip-path="url(#clip072)" style="stroke:#000000; stroke-width:2; stroke-opacity:0.1; fill:none" points="
  226.329,1423.09 226.329,47.2441 
  "/>
<polyline clip-path="url(#clip072)" style="stroke:#000000; stroke-width:2; stroke-opacity:0.1; fill:none" points="
  700.068,1423.09 700.068,47.2441 
  "/>
<polyline clip-path="url(#clip072)" style="stroke:#000000; stroke-width:2; stroke-opacity:0.1; fill:none" points="
  1173.81,1423.09 1173.81,47.2441 
  "/>
<polyline clip-path="url(#clip072)" style="stroke:#000000; stroke-width:2; stroke-opacity:0.1; fill:none" points="
  1647.55,1423.09 1647.55,47.2441 
  "/>
<polyline clip-path="url(#clip072)" style="stroke:#000000; stroke-width:2; stroke-opacity:0.1; fill:none" points="
  2121.28,1423.09 2121.28,47.2441 
  "/>
<polyline clip-path="url(#clip072)" style="stroke:#000000; stroke-width:2; stroke-opacity:0.1; fill:none" points="
  138.231,1384.15 2256.76,1384.15 
  "/>
<polyline clip-path="url(#clip072)" style="stroke:#000000; stroke-width:2; stroke-opacity:0.1; fill:none" points="
  138.231,1156.44 2256.76,1156.44 
  "/>
<polyline clip-path="url(#clip072)" style="stroke:#000000; stroke-width:2; stroke-opacity:0.1; fill:none" points="
  138.231,928.722 2256.76,928.722 
  "/>
<polyline clip-path="url(#clip072)" style="stroke:#000000; stroke-width:2; stroke-opacity:0.1; fill:none" points="
  138.231,701.009 2256.76,701.009 
  "/>
<polyline clip-path="url(#clip072)" style="stroke:#000000; stroke-width:2; stroke-opacity:0.1; fill:none" points="
  138.231,473.296 2256.76,473.296 
  "/>
<polyline clip-path="url(#clip072)" style="stroke:#000000; stroke-width:2; stroke-opacity:0.1; fill:none" points="
  138.231,245.582 2256.76,245.582 
  "/>
<polyline clip-path="url(#clip070)" style="stroke:#000000; stroke-width:4; stroke-opacity:1; fill:none" points="
  138.231,1423.09 2256.76,1423.09 
  "/>
<polyline clip-path="url(#clip070)" style="stroke:#000000; stroke-width:4; stroke-opacity:1; fill:none" points="
  138.231,1423.09 138.231,47.2441 
  "/>
<polyline clip-path="url(#clip070)" style="stroke:#000000; stroke-width:4; stroke-opacity:1; fill:none" points="
  226.329,1423.09 226.329,1406.58 
  "/>
<polyline clip-path="url(#clip070)" style="stroke:#000000; stroke-width:4; stroke-opacity:1; fill:none" points="
  700.068,1423.09 700.068,1406.58 
  "/>
<polyline clip-path="url(#clip070)" style="stroke:#000000; stroke-width:4; stroke-opacity:1; fill:none" points="
  1173.81,1423.09 1173.81,1406.58 
  "/>
<polyline clip-path="url(#clip070)" style="stroke:#000000; stroke-width:4; stroke-opacity:1; fill:none" points="
  1647.55,1423.09 1647.55,1406.58 
  "/>
<polyline clip-path="url(#clip070)" style="stroke:#000000; stroke-width:4; stroke-opacity:1; fill:none" points="
  2121.28,1423.09 2121.28,1406.58 
  "/>
<polyline clip-path="url(#clip070)" style="stroke:#000000; stroke-width:4; stroke-opacity:1; fill:none" points="
  138.231,1384.15 163.653,1384.15 
  "/>
<polyline clip-path="url(#clip070)" style="stroke:#000000; stroke-width:4; stroke-opacity:1; fill:none" points="
  138.231,1156.44 163.653,1156.44 
  "/>
<polyline clip-path="url(#clip070)" style="stroke:#000000; stroke-width:4; stroke-opacity:1; fill:none" points="
  138.231,928.722 163.653,928.722 
  "/>
<polyline clip-path="url(#clip070)" style="stroke:#000000; stroke-width:4; stroke-opacity:1; fill:none" points="
  138.231,701.009 163.653,701.009 
  "/>
<polyline clip-path="url(#clip070)" style="stroke:#000000; stroke-width:4; stroke-opacity:1; fill:none" points="
  138.231,473.296 163.653,473.296 
  "/>
<polyline clip-path="url(#clip070)" style="stroke:#000000; stroke-width:4; stroke-opacity:1; fill:none" points="
  138.231,245.582 163.653,245.582 
  "/>
<path clip-path="url(#clip070)" d="M 0 0 M226.329 1444.6 Q222.718 1444.6 220.889 1448.16 Q219.084 1451.71 219.084 1458.83 Q219.084 1465.94 220.889 1469.51 Q222.718 1473.05 226.329 1473.05 Q229.963 1473.05 231.769 1469.51 Q233.598 1465.94 233.598 1458.83 Q233.598 1451.71 231.769 1448.16 Q229.963 1444.6 226.329 1444.6 M226.329 1440.89 Q232.139 1440.89 235.195 1445.5 Q238.274 1450.08 238.274 1458.83 Q238.274 1467.56 235.195 1472.17 Q232.139 1476.75 226.329 1476.75 Q220.519 1476.75 217.44 1472.17 Q214.385 1467.56 214.385 1458.83 Q214.385 1450.08 217.44 1445.5 Q220.519 1440.89 226.329 1440.89 Z" fill="#000000" fill-rule="evenodd" fill-opacity="1" /><path clip-path="url(#clip070)" d="M 0 0 M676.943 1472.14 L684.582 1472.14 L684.582 1445.78 L676.272 1447.45 L676.272 1443.19 L684.536 1441.52 L689.211 1441.52 L689.211 1472.14 L696.85 1472.14 L696.85 1476.08 L676.943 1476.08 L676.943 1472.14 Z" fill="#000000" fill-rule="evenodd" fill-opacity="1" /><path clip-path="url(#clip070)" d="M 0 0 M711.92 1444.6 Q708.309 1444.6 706.48 1448.16 Q704.674 1451.71 704.674 1458.83 Q704.674 1465.94 706.48 1469.51 Q708.309 1473.05 711.92 1473.05 Q715.554 1473.05 717.359 1469.51 Q719.188 1465.94 719.188 1458.83 Q719.188 1451.71 717.359 1448.16 Q715.554 1444.6 711.92 1444.6 M711.92 1440.89 Q717.73 1440.89 720.785 1445.5 Q723.864 1450.08 723.864 1458.83 Q723.864 1467.56 720.785 1472.17 Q717.73 1476.75 711.92 1476.75 Q706.109 1476.75 703.031 1472.17 Q699.975 1467.56 699.975 1458.83 Q699.975 1450.08 703.031 1445.5 Q706.109 1440.89 711.92 1440.89 Z" fill="#000000" fill-rule="evenodd" fill-opacity="1" /><path clip-path="url(#clip070)" d="M 0 0 M1154.95 1472.14 L1171.27 1472.14 L1171.27 1476.08 L1149.33 1476.08 L1149.33 1472.14 Q1151.99 1469.39 1156.57 1464.76 Q1161.18 1460.11 1162.36 1458.77 Q1164.61 1456.24 1165.48 1454.51 Q1166.39 1452.75 1166.39 1451.06 Q1166.39 1448.3 1164.44 1446.57 Q1162.52 1444.83 1159.42 1444.83 Q1157.22 1444.83 1154.77 1445.59 Q1152.34 1446.36 1149.56 1447.91 L1149.56 1443.19 Q1152.38 1442.05 1154.84 1441.47 Q1157.29 1440.89 1159.33 1440.89 Q1164.7 1440.89 1167.89 1443.58 Q1171.09 1446.27 1171.09 1450.76 Q1171.09 1452.89 1170.28 1454.81 Q1169.49 1456.7 1167.38 1459.3 Q1166.8 1459.97 1163.7 1463.19 Q1160.6 1466.38 1154.95 1472.14 Z" fill="#000000" fill-rule="evenodd" fill-opacity="1" /><path clip-path="url(#clip070)" d="M 0 0 M1186.34 1444.6 Q1182.73 1444.6 1180.9 1448.16 Q1179.1 1451.71 1179.1 1458.83 Q1179.1 1465.94 1180.9 1469.51 Q1182.73 1473.05 1186.34 1473.05 Q1189.98 1473.05 1191.78 1469.51 Q1193.61 1465.94 1193.61 1458.83 Q1193.61 1451.71 1191.78 1448.16 Q1189.98 1444.6 1186.34 1444.6 M1186.34 1440.89 Q1192.15 1440.89 1195.21 1445.5 Q1198.29 1450.08 1198.29 1458.83 Q1198.29 1467.56 1195.21 1472.17 Q1192.15 1476.75 1186.34 1476.75 Q1180.53 1476.75 1177.45 1472.17 Q1174.4 1467.56 1174.4 1458.83 Q1174.4 1450.08 1177.45 1445.5 Q1180.53 1440.89 1186.34 1440.89 Z" fill="#000000" fill-rule="evenodd" fill-opacity="1" /><path clip-path="url(#clip070)" d="M 0 0 M1638.29 1457.45 Q1641.64 1458.16 1643.52 1460.43 Q1645.42 1462.7 1645.42 1466.03 Q1645.42 1471.15 1641.9 1473.95 Q1638.38 1476.75 1631.9 1476.75 Q1629.72 1476.75 1627.41 1476.31 Q1625.11 1475.89 1622.66 1475.04 L1622.66 1470.52 Q1624.61 1471.66 1626.92 1472.24 Q1629.24 1472.82 1631.76 1472.82 Q1636.16 1472.82 1638.45 1471.08 Q1640.76 1469.34 1640.76 1466.03 Q1640.76 1462.98 1638.61 1461.27 Q1636.48 1459.53 1632.66 1459.53 L1628.63 1459.53 L1628.63 1455.69 L1632.85 1455.69 Q1636.3 1455.69 1638.12 1454.32 Q1639.95 1452.93 1639.95 1450.34 Q1639.95 1447.68 1638.05 1446.27 Q1636.18 1444.83 1632.66 1444.83 Q1630.74 1444.83 1628.54 1445.25 Q1626.34 1445.66 1623.7 1446.54 L1623.7 1442.38 Q1626.36 1441.64 1628.68 1441.27 Q1631.02 1440.89 1633.08 1440.89 Q1638.4 1440.89 1641.5 1443.33 Q1644.61 1445.73 1644.61 1449.85 Q1644.61 1452.72 1642.96 1454.71 Q1641.32 1456.68 1638.29 1457.45 Z" fill="#000000" fill-rule="evenodd" fill-opacity="1" /><path clip-path="url(#clip070)" d="M 0 0 M1660.48 1444.6 Q1656.87 1444.6 1655.05 1448.16 Q1653.24 1451.71 1653.24 1458.83 Q1653.24 1465.94 1655.05 1469.51 Q1656.87 1473.05 1660.48 1473.05 Q1664.12 1473.05 1665.92 1469.51 Q1667.75 1465.94 1667.75 1458.83 Q1667.75 1451.71 1665.92 1448.16 Q1664.12 1444.6 1660.48 1444.6 M1660.48 1440.89 Q1666.29 1440.89 1669.35 1445.5 Q1672.43 1450.08 1672.43 1458.83 Q1672.43 1467.56 1669.35 1472.17 Q1666.29 1476.75 1660.48 1476.75 Q1654.67 1476.75 1651.6 1472.17 Q1648.54 1467.56 1648.54 1458.83 Q1648.54 1450.08 1651.6 1445.5 Q1654.67 1440.89 1660.48 1440.89 Z" fill="#000000" fill-rule="evenodd" fill-opacity="1" /><path clip-path="url(#clip070)" d="M 0 0 M2110.79 1445.59 L2098.98 1464.04 L2110.79 1464.04 L2110.79 1445.59 M2109.56 1441.52 L2115.44 1441.52 L2115.44 1464.04 L2120.37 1464.04 L2120.37 1467.93 L2115.44 1467.93 L2115.44 1476.08 L2110.79 1476.08 L2110.79 1467.93 L2095.18 1467.93 L2095.18 1463.42 L2109.56 1441.52 Z" fill="#000000" fill-rule="evenodd" fill-opacity="1" /><path clip-path="url(#clip070)" d="M 0 0 M2135.44 1444.6 Q2131.83 1444.6 2130 1448.16 Q2128.19 1451.71 2128.19 1458.83 Q2128.19 1465.94 2130 1469.51 Q2131.83 1473.05 2135.44 1473.05 Q2139.07 1473.05 2140.88 1469.51 Q2142.71 1465.94 2142.71 1458.83 Q2142.71 1451.71 2140.88 1448.16 Q2139.07 1444.6 2135.44 1444.6 M2135.44 1440.89 Q2141.25 1440.89 2144.3 1445.5 Q2147.38 1450.08 2147.38 1458.83 Q2147.38 1467.56 2144.3 1472.17 Q2141.25 1476.75 2135.44 1476.75 Q2129.63 1476.75 2126.55 1472.17 Q2123.49 1467.56 2123.49 1458.83 Q2123.49 1450.08 2126.55 1445.5 Q2129.63 1440.89 2135.44 1440.89 Z" fill="#000000" fill-rule="evenodd" fill-opacity="1" /><path clip-path="url(#clip070)" d="M 0 0 M103.247 1369.95 Q99.6354 1369.95 97.8068 1373.51 Q96.0012 1377.05 96.0012 1384.18 Q96.0012 1391.29 97.8068 1394.85 Q99.6354 1398.4 103.247 1398.4 Q106.881 1398.4 108.686 1394.85 Q110.515 1391.29 110.515 1384.18 Q110.515 1377.05 108.686 1373.51 Q106.881 1369.95 103.247 1369.95 M103.247 1366.24 Q109.057 1366.24 112.112 1370.85 Q115.191 1375.43 115.191 1384.18 Q115.191 1392.91 112.112 1397.52 Q109.057 1402.1 103.247 1402.1 Q97.4364 1402.1 94.3577 1397.52 Q91.3022 1392.91 91.3022 1384.18 Q91.3022 1375.43 94.3577 1370.85 Q97.4364 1366.24 103.247 1366.24 Z" fill="#000000" fill-rule="evenodd" fill-opacity="1" /><path clip-path="url(#clip070)" d="M 0 0 M68.2699 1169.78 L75.9087 1169.78 L75.9087 1143.41 L67.5986 1145.08 L67.5986 1140.82 L75.8624 1139.16 L80.5383 1139.16 L80.5383 1169.78 L88.1772 1169.78 L88.1772 1173.72 L68.2699 1173.72 L68.2699 1169.78 Z" fill="#000000" fill-rule="evenodd" fill-opacity="1" /><path clip-path="url(#clip070)" d="M 0 0 M103.247 1142.23 Q99.6354 1142.23 97.8068 1145.8 Q96.0012 1149.34 96.0012 1156.47 Q96.0012 1163.58 97.8068 1167.14 Q99.6354 1170.68 103.247 1170.68 Q106.881 1170.68 108.686 1167.14 Q110.515 1163.58 110.515 1156.47 Q110.515 1149.34 108.686 1145.8 Q106.881 1142.23 103.247 1142.23 M103.247 1138.53 Q109.057 1138.53 112.112 1143.14 Q115.191 1147.72 115.191 1156.47 Q115.191 1165.2 112.112 1169.8 Q109.057 1174.39 103.247 1174.39 Q97.4364 1174.39 94.3577 1169.8 Q91.3022 1165.2 91.3022 1156.47 Q91.3022 1147.72 94.3577 1143.14 Q97.4364 1138.53 103.247 1138.53 Z" fill="#000000" fill-rule="evenodd" fill-opacity="1" /><path clip-path="url(#clip070)" d="M 0 0 M71.8578 942.067 L88.1772 942.067 L88.1772 946.002 L66.2328 946.002 L66.2328 942.067 Q68.8949 939.313 73.4782 934.683 Q78.0846 930.03 79.2652 928.688 Q81.5105 926.164 82.3902 924.428 Q83.2929 922.669 83.2929 920.979 Q83.2929 918.225 81.3485 916.489 Q79.4272 914.752 76.3254 914.752 Q74.1263 914.752 71.6726 915.516 Q69.2421 916.28 66.4643 917.831 L66.4643 913.109 Q69.2884 911.975 71.7421 911.396 Q74.1958 910.817 76.2328 910.817 Q81.6031 910.817 84.7976 913.502 Q87.992 916.188 87.992 920.678 Q87.992 922.808 87.1818 924.729 Q86.3948 926.627 84.2883 929.22 Q83.7096 929.891 80.6078 933.109 Q77.5059 936.303 71.8578 942.067 Z" fill="#000000" fill-rule="evenodd" fill-opacity="1" /><path clip-path="url(#clip070)" d="M 0 0 M103.247 914.521 Q99.6354 914.521 97.8068 918.086 Q96.0012 921.627 96.0012 928.757 Q96.0012 935.863 97.8068 939.428 Q99.6354 942.97 103.247 942.97 Q106.881 942.97 108.686 939.428 Q110.515 935.863 110.515 928.757 Q110.515 921.627 108.686 918.086 Q106.881 914.521 103.247 914.521 M103.247 910.817 Q109.057 910.817 112.112 915.424 Q115.191 920.007 115.191 928.757 Q115.191 937.484 112.112 942.09 Q109.057 946.674 103.247 946.674 Q97.4364 946.674 94.3577 942.09 Q91.3022 937.484 91.3022 928.757 Q91.3022 920.007 94.3577 915.424 Q97.4364 910.817 103.247 910.817 Z" fill="#000000" fill-rule="evenodd" fill-opacity="1" /><path clip-path="url(#clip070)" d="M 0 0 M81.0476 699.655 Q84.404 700.372 86.279 702.641 Q88.1772 704.909 88.1772 708.243 Q88.1772 713.358 84.6587 716.159 Q81.1402 718.96 74.6587 718.96 Q72.4828 718.96 70.168 718.52 Q67.8764 718.104 65.4227 717.247 L65.4227 712.733 Q67.3671 713.868 69.6819 714.446 Q71.9967 715.025 74.5198 715.025 Q78.918 715.025 81.2096 713.289 Q83.5244 711.553 83.5244 708.243 Q83.5244 705.187 81.3717 703.474 Q79.242 701.738 75.4226 701.738 L71.3949 701.738 L71.3949 697.896 L75.6078 697.896 Q79.0569 697.896 80.8855 696.53 Q82.7142 695.141 82.7142 692.548 Q82.7142 689.886 80.8161 688.474 Q78.9411 687.039 75.4226 687.039 Q73.5013 687.039 71.3023 687.456 Q69.1032 687.872 66.4643 688.752 L66.4643 684.585 Q69.1264 683.845 71.4412 683.474 Q73.7791 683.104 75.8393 683.104 Q81.1633 683.104 84.2652 685.535 Q87.367 687.942 87.367 692.062 Q87.367 694.933 85.7235 696.923 Q84.08 698.891 81.0476 699.655 Z" fill="#000000" fill-rule="evenodd" fill-opacity="1" /><path clip-path="url(#clip070)" d="M 0 0 M103.247 686.808 Q99.6354 686.808 97.8068 690.372 Q96.0012 693.914 96.0012 701.044 Q96.0012 708.15 97.8068 711.715 Q99.6354 715.257 103.247 715.257 Q106.881 715.257 108.686 711.715 Q110.515 708.15 110.515 701.044 Q110.515 693.914 108.686 690.372 Q106.881 686.808 103.247 686.808 M103.247 683.104 Q109.057 683.104 112.112 687.71 Q115.191 692.294 115.191 701.044 Q115.191 709.771 112.112 714.377 Q109.057 718.96 103.247 718.96 Q97.4364 718.96 94.3577 714.377 Q91.3022 709.771 91.3022 701.044 Q91.3022 692.294 94.3577 687.71 Q97.4364 683.104 103.247 683.104 Z" fill="#000000" fill-rule="evenodd" fill-opacity="1" /><path clip-path="url(#clip070)" d="M 0 0 M78.5939 460.09 L66.7884 478.539 L78.5939 478.539 L78.5939 460.09 M77.367 456.016 L83.2466 456.016 L83.2466 478.539 L88.1772 478.539 L88.1772 482.428 L83.2466 482.428 L83.2466 490.576 L78.5939 490.576 L78.5939 482.428 L62.9921 482.428 L62.9921 477.914 L77.367 456.016 Z" fill="#000000" fill-rule="evenodd" fill-opacity="1" /><path clip-path="url(#clip070)" d="M 0 0 M103.247 459.094 Q99.6354 459.094 97.8068 462.659 Q96.0012 466.201 96.0012 473.33 Q96.0012 480.437 97.8068 484.002 Q99.6354 487.543 103.247 487.543 Q106.881 487.543 108.686 484.002 Q110.515 480.437 110.515 473.33 Q110.515 466.201 108.686 462.659 Q106.881 459.094 103.247 459.094 M103.247 455.391 Q109.057 455.391 112.112 459.997 Q115.191 464.58 115.191 473.33 Q115.191 482.057 112.112 486.664 Q109.057 491.247 103.247 491.247 Q97.4364 491.247 94.3577 486.664 Q91.3022 482.057 91.3022 473.33 Q91.3022 464.58 94.3577 459.997 Q97.4364 455.391 103.247 455.391 Z" fill="#000000" fill-rule="evenodd" fill-opacity="1" /><path clip-path="url(#clip070)" d="M 0 0 M67.2745 228.302 L85.6309 228.302 L85.6309 232.238 L71.5569 232.238 L71.5569 240.71 Q72.5754 240.363 73.5939 240.2 Q74.6124 240.015 75.6309 240.015 Q81.418 240.015 84.7976 243.187 Q88.1772 246.358 88.1772 251.774 Q88.1772 257.353 84.705 260.455 Q81.2328 263.534 74.9134 263.534 Q72.7374 263.534 70.4689 263.163 Q68.2236 262.793 65.8162 262.052 L65.8162 257.353 Q67.8995 258.487 70.1217 259.043 Q72.3439 259.599 74.8208 259.599 Q78.8254 259.599 81.1633 257.492 Q83.5013 255.386 83.5013 251.774 Q83.5013 248.163 81.1633 246.057 Q78.8254 243.95 74.8208 243.95 Q72.9458 243.95 71.0708 244.367 Q69.2189 244.784 67.2745 245.663 L67.2745 228.302 Z" fill="#000000" fill-rule="evenodd" fill-opacity="1" /><path clip-path="url(#clip070)" d="M 0 0 M103.247 231.381 Q99.6354 231.381 97.8068 234.946 Q96.0012 238.488 96.0012 245.617 Q96.0012 252.724 97.8068 256.288 Q99.6354 259.83 103.247 259.83 Q106.881 259.83 108.686 256.288 Q110.515 252.724 110.515 245.617 Q110.515 238.488 108.686 234.946 Q106.881 231.381 103.247 231.381 M103.247 227.677 Q109.057 227.677 112.112 232.284 Q115.191 236.867 115.191 245.617 Q115.191 254.344 112.112 258.95 Q109.057 263.534 103.247 263.534 Q97.4364 263.534 94.3577 258.95 Q91.3022 254.344 91.3022 245.617 Q91.3022 236.867 94.3577 232.284 Q97.4364 227.677 103.247 227.677 Z" fill="#000000" fill-rule="evenodd" fill-opacity="1" /><path clip-path="url(#clip072)" d="
M254.754 1247.52 L254.754 1384.15 L292.653 1384.15 L292.653 1247.52 L254.754 1247.52 L254.754 1247.52  Z
  " fill="#009af9" fill-rule="evenodd" fill-opacity="1"/>
<polyline clip-path="url(#clip072)" style="stroke:#000000; stroke-width:4; stroke-opacity:1; fill:none" points="
  254.754,1247.52 254.754,1384.15 292.653,1384.15 292.653,1247.52 254.754,1247.52 
  "/>
<path clip-path="url(#clip072)" d="
M302.127 1179.21 L302.127 1384.15 L340.027 1384.15 L340.027 1179.21 L302.127 1179.21 L302.127 1179.21  Z
  " fill="#009af9" fill-rule="evenodd" fill-opacity="1"/>
<polyline clip-path="url(#clip072)" style="stroke:#000000; stroke-width:4; stroke-opacity:1; fill:none" points="
  302.127,1179.21 302.127,1384.15 340.027,1384.15 340.027,1179.21 302.127,1179.21 
  "/>
<path clip-path="url(#clip072)" d="
M349.501 1179.21 L349.501 1384.15 L387.4 1384.15 L387.4 1179.21 L349.501 1179.21 L349.501 1179.21  Z
  " fill="#009af9" fill-rule="evenodd" fill-opacity="1"/>
<polyline clip-path="url(#clip072)" style="stroke:#000000; stroke-width:4; stroke-opacity:1; fill:none" points="
  349.501,1179.21 349.501,1384.15 387.4,1384.15 387.4,1179.21 349.501,1179.21 
  "/>
<path clip-path="url(#clip072)" d="
M396.875 1133.66 L396.875 1384.15 L434.774 1384.15 L434.774 1133.66 L396.875 1133.66 L396.875 1133.66  Z
  " fill="#009af9" fill-rule="evenodd" fill-opacity="1"/>
<polyline clip-path="url(#clip072)" style="stroke:#000000; stroke-width:4; stroke-opacity:1; fill:none" points="
  396.875,1133.66 396.875,1384.15 434.774,1384.15 434.774,1133.66 396.875,1133.66 
  "/>
<path clip-path="url(#clip072)" d="
M444.249 997.036 L444.249 1384.15 L482.148 1384.15 L482.148 997.036 L444.249 997.036 L444.249 997.036  Z
  " fill="#009af9" fill-rule="evenodd" fill-opacity="1"/>
<polyline clip-path="url(#clip072)" style="stroke:#000000; stroke-width:4; stroke-opacity:1; fill:none" points="
  444.249,997.036 444.249,1384.15 482.148,1384.15 482.148,997.036 444.249,997.036 
  "/>
<path clip-path="url(#clip072)" d="
M491.623 905.951 L491.623 1384.15 L529.522 1384.15 L529.522 905.951 L491.623 905.951 L491.623 905.951  Z
  " fill="#009af9" fill-rule="evenodd" fill-opacity="1"/>
<polyline clip-path="url(#clip072)" style="stroke:#000000; stroke-width:4; stroke-opacity:1; fill:none" points="
  491.623,905.951 491.623,1384.15 529.522,1384.15 529.522,905.951 491.623,905.951 
  "/>
<path clip-path="url(#clip072)" d="
M538.997 997.036 L538.997 1384.15 L576.896 1384.15 L576.896 997.036 L538.997 997.036 L538.997 997.036  Z
  " fill="#009af9" fill-rule="evenodd" fill-opacity="1"/>
<polyline clip-path="url(#clip072)" style="stroke:#000000; stroke-width:4; stroke-opacity:1; fill:none" points="
  538.997,997.036 538.997,1384.15 576.896,1384.15 576.896,997.036 538.997,997.036 
  "/>
<path clip-path="url(#clip072)" d="
M586.371 883.18 L586.371 1384.15 L624.27 1384.15 L624.27 883.18 L586.371 883.18 L586.371 883.18  Z
  " fill="#009af9" fill-rule="evenodd" fill-opacity="1"/>
<polyline clip-path="url(#clip072)" style="stroke:#000000; stroke-width:4; stroke-opacity:1; fill:none" points="
  586.371,883.18 586.371,1384.15 624.27,1384.15 624.27,883.18 586.371,883.18 
  "/>
<path clip-path="url(#clip072)" d="
M633.744 814.866 L633.744 1384.15 L671.644 1384.15 L671.644 814.866 L633.744 814.866 L633.744 814.866  Z
  " fill="#009af9" fill-rule="evenodd" fill-opacity="1"/>
<polyline clip-path="url(#clip072)" style="stroke:#000000; stroke-width:4; stroke-opacity:1; fill:none" points="
  633.744,814.866 633.744,1384.15 671.644,1384.15 671.644,814.866 633.744,814.866 
  "/>
<path clip-path="url(#clip072)" d="
M681.118 609.924 L681.118 1384.15 L719.017 1384.15 L719.017 609.924 L681.118 609.924 L681.118 609.924  Z
  " fill="#009af9" fill-rule="evenodd" fill-opacity="1"/>
<polyline clip-path="url(#clip072)" style="stroke:#000000; stroke-width:4; stroke-opacity:1; fill:none" points="
  681.118,609.924 681.118,1384.15 719.017,1384.15 719.017,609.924 681.118,609.924 
  "/>
<path clip-path="url(#clip072)" d="
M728.492 496.067 L728.492 1384.15 L766.391 1384.15 L766.391 496.067 L728.492 496.067 L728.492 496.067  Z
  " fill="#009af9" fill-rule="evenodd" fill-opacity="1"/>
<polyline clip-path="url(#clip072)" style="stroke:#000000; stroke-width:4; stroke-opacity:1; fill:none" points="
  728.492,496.067 728.492,1384.15 766.391,1384.15 766.391,496.067 728.492,496.067 
  "/>
<path clip-path="url(#clip072)" d="
M775.866 769.323 L775.866 1384.15 L813.765 1384.15 L813.765 769.323 L775.866 769.323 L775.866 769.323  Z
  " fill="#009af9" fill-rule="evenodd" fill-opacity="1"/>
<polyline clip-path="url(#clip072)" style="stroke:#000000; stroke-width:4; stroke-opacity:1; fill:none" points="
  775.866,769.323 775.866,1384.15 813.765,1384.15 813.765,769.323 775.866,769.323 
  "/>
<path clip-path="url(#clip072)" d="
M823.24 609.924 L823.24 1384.15 L861.139 1384.15 L861.139 609.924 L823.24 609.924 L823.24 609.924  Z
  " fill="#009af9" fill-rule="evenodd" fill-opacity="1"/>
<polyline clip-path="url(#clip072)" style="stroke:#000000; stroke-width:4; stroke-opacity:1; fill:none" points="
  823.24,609.924 823.24,1384.15 861.139,1384.15 861.139,609.924 823.24,609.924 
  "/>
<path clip-path="url(#clip072)" d="
M870.614 86.1831 L870.614 1384.15 L908.513 1384.15 L908.513 86.1831 L870.614 86.1831 L870.614 86.1831  Z
  " fill="#009af9" fill-rule="evenodd" fill-opacity="1"/>
<polyline clip-path="url(#clip072)" style="stroke:#000000; stroke-width:4; stroke-opacity:1; fill:none" points="
  870.614,86.1831 870.614,1384.15 908.513,1384.15 908.513,86.1831 870.614,86.1831 
  "/>
<path clip-path="url(#clip072)" d="
M917.988 291.125 L917.988 1384.15 L955.887 1384.15 L955.887 291.125 L917.988 291.125 L917.988 291.125  Z
  " fill="#009af9" fill-rule="evenodd" fill-opacity="1"/>
<polyline clip-path="url(#clip072)" style="stroke:#000000; stroke-width:4; stroke-opacity:1; fill:none" points="
  917.988,291.125 917.988,1384.15 955.887,1384.15 955.887,291.125 917.988,291.125 
  "/>
<path clip-path="url(#clip072)" d="
M965.361 564.381 L965.361 1384.15 L1003.26 1384.15 L1003.26 564.381 L965.361 564.381 L965.361 564.381  Z
  " fill="#009af9" fill-rule="evenodd" fill-opacity="1"/>
<polyline clip-path="url(#clip072)" style="stroke:#000000; stroke-width:4; stroke-opacity:1; fill:none" points="
  965.361,564.381 965.361,1384.15 1003.26,1384.15 1003.26,564.381 965.361,564.381 
  "/>
<path clip-path="url(#clip072)" d="
M1012.74 518.838 L1012.74 1384.15 L1050.63 1384.15 L1050.63 518.838 L1012.74 518.838 L1012.74 518.838  Z
  " fill="#009af9" fill-rule="evenodd" fill-opacity="1"/>
<polyline clip-path="url(#clip072)" style="stroke:#000000; stroke-width:4; stroke-opacity:1; fill:none" points="
  1012.74,518.838 1012.74,1384.15 1050.63,1384.15 1050.63,518.838 1012.74,518.838 
  "/>
<path clip-path="url(#clip072)" d="
M1060.11 427.753 L1060.11 1384.15 L1098.01 1384.15 L1098.01 427.753 L1060.11 427.753 L1060.11 427.753  Z
  " fill="#009af9" fill-rule="evenodd" fill-opacity="1"/>
<polyline clip-path="url(#clip072)" style="stroke:#000000; stroke-width:4; stroke-opacity:1; fill:none" points="
  1060.11,427.753 1060.11,1384.15 1098.01,1384.15 1098.01,427.753 1060.11,427.753 
  "/>
<path clip-path="url(#clip072)" d="
M1107.48 769.323 L1107.48 1384.15 L1145.38 1384.15 L1145.38 769.323 L1107.48 769.323 L1107.48 769.323  Z
  " fill="#009af9" fill-rule="evenodd" fill-opacity="1"/>
<polyline clip-path="url(#clip072)" style="stroke:#000000; stroke-width:4; stroke-opacity:1; fill:none" points="
  1107.48,769.323 1107.48,1384.15 1145.38,1384.15 1145.38,769.323 1107.48,769.323 
  "/>
<path clip-path="url(#clip072)" d="
M1154.86 518.838 L1154.86 1384.15 L1192.76 1384.15 L1192.76 518.838 L1154.86 518.838 L1154.86 518.838  Z
  " fill="#009af9" fill-rule="evenodd" fill-opacity="1"/>
<polyline clip-path="url(#clip072)" style="stroke:#000000; stroke-width:4; stroke-opacity:1; fill:none" points="
  1154.86,518.838 1154.86,1384.15 1192.76,1384.15 1192.76,518.838 1154.86,518.838 
  "/>
<path clip-path="url(#clip072)" d="
M1202.23 518.838 L1202.23 1384.15 L1240.13 1384.15 L1240.13 518.838 L1202.23 518.838 L1202.23 518.838  Z
  " fill="#009af9" fill-rule="evenodd" fill-opacity="1"/>
<polyline clip-path="url(#clip072)" style="stroke:#000000; stroke-width:4; stroke-opacity:1; fill:none" points="
  1202.23,518.838 1202.23,1384.15 1240.13,1384.15 1240.13,518.838 1202.23,518.838 
  "/>
<path clip-path="url(#clip072)" d="
M1249.6 587.152 L1249.6 1384.15 L1287.5 1384.15 L1287.5 587.152 L1249.6 587.152 L1249.6 587.152  Z
  " fill="#009af9" fill-rule="evenodd" fill-opacity="1"/>
<polyline clip-path="url(#clip072)" style="stroke:#000000; stroke-width:4; stroke-opacity:1; fill:none" points="
  1249.6,587.152 1249.6,1384.15 1287.5,1384.15 1287.5,587.152 1249.6,587.152 
  "/>
<path clip-path="url(#clip072)" d="
M1296.98 701.009 L1296.98 1384.15 L1334.88 1384.15 L1334.88 701.009 L1296.98 701.009 L1296.98 701.009  Z
  " fill="#009af9" fill-rule="evenodd" fill-opacity="1"/>
<polyline clip-path="url(#clip072)" style="stroke:#000000; stroke-width:4; stroke-opacity:1; fill:none" points="
  1296.98,701.009 1296.98,1384.15 1334.88,1384.15 1334.88,701.009 1296.98,701.009 
  "/>
<path clip-path="url(#clip072)" d="
M1344.35 860.408 L1344.35 1384.15 L1382.25 1384.15 L1382.25 860.408 L1344.35 860.408 L1344.35 860.408  Z
  " fill="#009af9" fill-rule="evenodd" fill-opacity="1"/>
<polyline clip-path="url(#clip072)" style="stroke:#000000; stroke-width:4; stroke-opacity:1; fill:none" points="
  1344.35,860.408 1344.35,1384.15 1382.25,1384.15 1382.25,860.408 1344.35,860.408 
  "/>
<path clip-path="url(#clip072)" d="
M1391.73 928.722 L1391.73 1384.15 L1429.63 1384.15 L1429.63 928.722 L1391.73 928.722 L1391.73 928.722  Z
  " fill="#009af9" fill-rule="evenodd" fill-opacity="1"/>
<polyline clip-path="url(#clip072)" style="stroke:#000000; stroke-width:4; stroke-opacity:1; fill:none" points="
  1391.73,928.722 1391.73,1384.15 1429.63,1384.15 1429.63,928.722 1391.73,928.722 
  "/>
<path clip-path="url(#clip072)" d="
M1439.1 1201.98 L1439.1 1384.15 L1477 1384.15 L1477 1201.98 L1439.1 1201.98 L1439.1 1201.98  Z
  " fill="#009af9" fill-rule="evenodd" fill-opacity="1"/>
<polyline clip-path="url(#clip072)" style="stroke:#000000; stroke-width:4; stroke-opacity:1; fill:none" points="
  1439.1,1201.98 1439.1,1384.15 1477,1384.15 1477,1201.98 1439.1,1201.98 
  "/>
<path clip-path="url(#clip072)" d="
M1486.47 1201.98 L1486.47 1384.15 L1524.37 1384.15 L1524.37 1201.98 L1486.47 1201.98 L1486.47 1201.98  Z
  " fill="#009af9" fill-rule="evenodd" fill-opacity="1"/>
<polyline clip-path="url(#clip072)" style="stroke:#000000; stroke-width:4; stroke-opacity:1; fill:none" points="
  1486.47,1201.98 1486.47,1384.15 1524.37,1384.15 1524.37,1201.98 1486.47,1201.98 
  "/>
<path clip-path="url(#clip072)" d="
M1533.85 1179.21 L1533.85 1384.15 L1571.75 1384.15 L1571.75 1179.21 L1533.85 1179.21 L1533.85 1179.21  Z
  " fill="#009af9" fill-rule="evenodd" fill-opacity="1"/>
<polyline clip-path="url(#clip072)" style="stroke:#000000; stroke-width:4; stroke-opacity:1; fill:none" points="
  1533.85,1179.21 1533.85,1384.15 1571.75,1384.15 1571.75,1179.21 1533.85,1179.21 
  "/>
<path clip-path="url(#clip072)" d="
M1581.22 1247.52 L1581.22 1384.15 L1619.12 1384.15 L1619.12 1247.52 L1581.22 1247.52 L1581.22 1247.52  Z
  " fill="#009af9" fill-rule="evenodd" fill-opacity="1"/>
<polyline clip-path="url(#clip072)" style="stroke:#000000; stroke-width:4; stroke-opacity:1; fill:none" points="
  1581.22,1247.52 1581.22,1384.15 1619.12,1384.15 1619.12,1247.52 1581.22,1247.52 
  "/>
<path clip-path="url(#clip072)" d="
M1628.6 1224.75 L1628.6 1384.15 L1666.49 1384.15 L1666.49 1224.75 L1628.6 1224.75 L1628.6 1224.75  Z
  " fill="#009af9" fill-rule="evenodd" fill-opacity="1"/>
<polyline clip-path="url(#clip072)" style="stroke:#000000; stroke-width:4; stroke-opacity:1; fill:none" points="
  1628.6,1224.75 1628.6,1384.15 1666.49,1384.15 1666.49,1224.75 1628.6,1224.75 
  "/>
<path clip-path="url(#clip072)" d="
M1675.97 1133.66 L1675.97 1384.15 L1713.87 1384.15 L1713.87 1133.66 L1675.97 1133.66 L1675.97 1133.66  Z
  " fill="#009af9" fill-rule="evenodd" fill-opacity="1"/>
<polyline clip-path="url(#clip072)" style="stroke:#000000; stroke-width:4; stroke-opacity:1; fill:none" points="
  1675.97,1133.66 1675.97,1384.15 1713.87,1384.15 1713.87,1133.66 1675.97,1133.66 
  "/>
<path clip-path="url(#clip072)" d="
M1723.34 1270.29 L1723.34 1384.15 L1761.24 1384.15 L1761.24 1270.29 L1723.34 1270.29 L1723.34 1270.29  Z
  " fill="#009af9" fill-rule="evenodd" fill-opacity="1"/>
<polyline clip-path="url(#clip072)" style="stroke:#000000; stroke-width:4; stroke-opacity:1; fill:none" points="
  1723.34,1270.29 1723.34,1384.15 1761.24,1384.15 1761.24,1270.29 1723.34,1270.29 
  "/>
<path clip-path="url(#clip072)" d="
M1770.72 1315.83 L1770.72 1384.15 L1808.62 1384.15 L1808.62 1315.83 L1770.72 1315.83 L1770.72 1315.83  Z
  " fill="#009af9" fill-rule="evenodd" fill-opacity="1"/>
<polyline clip-path="url(#clip072)" style="stroke:#000000; stroke-width:4; stroke-opacity:1; fill:none" points="
  1770.72,1315.83 1770.72,1384.15 1808.62,1384.15 1808.62,1315.83 1770.72,1315.83 
  "/>
<path clip-path="url(#clip072)" d="
M1818.09 1384.15 L1818.09 1384.15 L1855.99 1384.15 L1855.99 1384.15 L1818.09 1384.15 L1818.09 1384.15  Z
  " fill="#009af9" fill-rule="evenodd" fill-opacity="1"/>
<polyline clip-path="url(#clip072)" style="stroke:#000000; stroke-width:4; stroke-opacity:1; fill:none" points="
  1818.09,1384.15 1818.09,1384.15 1855.99,1384.15 1818.09,1384.15 
  "/>
<path clip-path="url(#clip072)" d="
M1865.46 1361.38 L1865.46 1384.15 L1903.36 1384.15 L1903.36 1361.38 L1865.46 1361.38 L1865.46 1361.38  Z
  " fill="#009af9" fill-rule="evenodd" fill-opacity="1"/>
<polyline clip-path="url(#clip072)" style="stroke:#000000; stroke-width:4; stroke-opacity:1; fill:none" points="
  1865.46,1361.38 1865.46,1384.15 1903.36,1384.15 1903.36,1361.38 1865.46,1361.38 
  "/>
<path clip-path="url(#clip072)" d="
M1912.84 1315.83 L1912.84 1384.15 L1950.74 1384.15 L1950.74 1315.83 L1912.84 1315.83 L1912.84 1315.83  Z
  " fill="#009af9" fill-rule="evenodd" fill-opacity="1"/>
<polyline clip-path="url(#clip072)" style="stroke:#000000; stroke-width:4; stroke-opacity:1; fill:none" points="
  1912.84,1315.83 1912.84,1384.15 1950.74,1384.15 1950.74,1315.83 1912.84,1315.83 
  "/>
<path clip-path="url(#clip072)" d="
M1960.21 1315.83 L1960.21 1384.15 L1998.11 1384.15 L1998.11 1315.83 L1960.21 1315.83 L1960.21 1315.83  Z
  " fill="#009af9" fill-rule="evenodd" fill-opacity="1"/>
<polyline clip-path="url(#clip072)" style="stroke:#000000; stroke-width:4; stroke-opacity:1; fill:none" points="
  1960.21,1315.83 1960.21,1384.15 1998.11,1384.15 1998.11,1315.83 1960.21,1315.83 
  "/>
<path clip-path="url(#clip072)" d="
M2007.59 1361.38 L2007.59 1384.15 L2045.49 1384.15 L2045.49 1361.38 L2007.59 1361.38 L2007.59 1361.38  Z
  " fill="#009af9" fill-rule="evenodd" fill-opacity="1"/>
<polyline clip-path="url(#clip072)" style="stroke:#000000; stroke-width:4; stroke-opacity:1; fill:none" points="
  2007.59,1361.38 2007.59,1384.15 2045.49,1384.15 2045.49,1361.38 2007.59,1361.38 
  "/>
<path clip-path="url(#clip072)" d="
M2054.96 1338.61 L2054.96 1384.15 L2092.86 1384.15 L2092.86 1338.61 L2054.96 1338.61 L2054.96 1338.61  Z
  " fill="#009af9" fill-rule="evenodd" fill-opacity="1"/>
<polyline clip-path="url(#clip072)" style="stroke:#000000; stroke-width:4; stroke-opacity:1; fill:none" points="
  2054.96,1338.61 2054.96,1384.15 2092.86,1384.15 2092.86,1338.61 2054.96,1338.61 
  "/>
<path clip-path="url(#clip072)" d="
M2102.33 1315.83 L2102.33 1384.15 L2140.23 1384.15 L2140.23 1315.83 L2102.33 1315.83 L2102.33 1315.83  Z
  " fill="#009af9" fill-rule="evenodd" fill-opacity="1"/>
<polyline clip-path="url(#clip072)" style="stroke:#000000; stroke-width:4; stroke-opacity:1; fill:none" points="
  2102.33,1315.83 2102.33,1384.15 2140.23,1384.15 2140.23,1315.83 2102.33,1315.83 
  "/>
<polyline clip-path="url(#clip072)" style="stroke:#e26f46; stroke-width:4; stroke-opacity:1; fill:none" points="
  273.703,1256.84 321.077,1223.02 368.451,1181.28 415.825,1130.43 463.199,1069.46 510.572,997.816 557.946,915.74 605.32,824.693 652.694,727.626 700.068,629.432 
  747.442,536.358 794.816,455.971 842.189,395.071 889.563,359.311 936.937,352.468 984.311,372.933 1031.68,417.734 1079.06,481.567 1126.43,557.539 1173.81,639.892 
  1221.18,723.104 1268.55,803.366 1315.93,877.704 1363.3,945.392 1410.68,1006 1458.05,1059.22 1505.42,1105.48 1552.8,1145.44 1600.17,1179.81 1647.55,1209.3 
  1694.92,1234.53 1742.29,1256.1 1789.67,1274.59 1837.04,1290.36 1884.41,1303.79 1931.79,1315.23 1979.16,1325.04 2026.54,1333.45 2073.91,1340.65 2121.28,1346.81 
  
  "/>
<path clip-path="url(#clip070)" d="
M1975.34 214.066 L2256.76 214.066 L2256.76 32.6256 L1975.34 32.6256  Z
  " fill="#ffffff" fill-rule="evenodd" fill-opacity="1"/>
<polyline clip-path="url(#clip070)" style="stroke:#000000; stroke-width:4; stroke-opacity:1; fill:none" points="
  1975.34,214.066 2256.76,214.066 2256.76,32.6256 1975.34,32.6256 1975.34,214.066 
  "/>
<path clip-path="url(#clip070)" d="
M1998.38 117.298 L2136.62 117.298 L2136.62 68.9136 L1998.38 68.9136 L1998.38 117.298  Z
  " fill="#009af9" fill-rule="evenodd" fill-opacity="1"/>
<polyline clip-path="url(#clip070)" style="stroke:#000000; stroke-width:4; stroke-opacity:1; fill:none" points="
  1998.38,117.298 2136.62,117.298 2136.62,68.9136 1998.38,68.9136 1998.38,117.298 
  "/>
<path clip-path="url(#clip070)" d="M 0 0 M2173.5 112.793 Q2171.69 117.423 2169.98 118.835 Q2168.27 120.247 2165.4 120.247 L2162 120.247 L2162 116.682 L2164.5 116.682 Q2166.25 116.682 2167.23 115.848 Q2168.2 115.015 2169.38 111.913 L2170.14 109.969 L2159.66 84.4598 L2164.17 84.4598 L2172.27 104.737 L2180.38 84.4598 L2184.89 84.4598 L2173.5 112.793 Z" fill="#000000" fill-rule="evenodd" fill-opacity="1" /><path clip-path="url(#clip070)" d="M 0 0 M2190.77 106.45 L2198.41 106.45 L2198.41 80.0848 L2190.1 81.7514 L2190.1 77.4922 L2198.36 75.8256 L2203.04 75.8256 L2203.04 106.45 L2210.68 106.45 L2210.68 110.386 L2190.77 110.386 L2190.77 106.45 Z" fill="#000000" fill-rule="evenodd" fill-opacity="1" /><polyline clip-path="url(#clip070)" style="stroke:#e26f46; stroke-width:4; stroke-opacity:1; fill:none" points="
  1998.38,153.586 2136.62,153.586 
  "/>
<path clip-path="url(#clip070)" d="M 0 0 M2173.5 173.273 Q2171.69 177.903 2169.98 179.315 Q2168.27 180.727 2165.4 180.727 L2162 180.727 L2162 177.162 L2164.5 177.162 Q2166.25 177.162 2167.23 176.328 Q2168.2 175.495 2169.38 172.393 L2170.14 170.449 L2159.66 144.94 L2164.17 144.94 L2172.27 165.217 L2180.38 144.94 L2184.89 144.94 L2173.5 173.273 Z" fill="#000000" fill-rule="evenodd" fill-opacity="1" /><path clip-path="url(#clip070)" d="M 0 0 M2193.99 166.93 L2210.31 166.93 L2210.31 170.866 L2188.36 170.866 L2188.36 166.93 Q2191.02 164.176 2195.61 159.546 Q2200.21 154.893 2201.39 153.551 Q2203.64 151.028 2204.52 149.292 Q2205.42 147.532 2205.42 145.843 Q2205.42 143.088 2203.48 141.352 Q2201.56 139.616 2198.45 139.616 Q2196.25 139.616 2193.8 140.38 Q2191.37 141.143 2188.59 142.694 L2188.59 137.972 Q2191.42 136.838 2193.87 136.259 Q2196.32 135.681 2198.36 135.681 Q2203.73 135.681 2206.93 138.366 Q2210.12 141.051 2210.12 145.542 Q2210.12 147.671 2209.31 149.593 Q2208.52 151.491 2206.42 154.083 Q2205.84 154.755 2202.74 157.972 Q2199.63 161.167 2193.99 166.93 Z" fill="#000000" fill-rule="evenodd" fill-opacity="1" /></svg>
