<?xml version="1.0" encoding="utf-8"?>
<svg xmlns="http://www.w3.org/2000/svg" xmlns:xlink="http://www.w3.org/1999/xlink" width="576" height="384" viewBox="0 0 2304 1536">
<defs>
  <clipPath id="clip110">
    <rect x="0" y="0" width="2304" height="1536"/>
  </clipPath>
</defs>
<path clip-path="url(#clip110)" d="
M0 1536 L2304 1536 L2304 0 L0 0  Z
  " fill="#ffffff" fill-rule="evenodd" fill-opacity="1"/>
<defs>
  <clipPath id="clip111">
    <rect x="460" y="0" width="1614" height="1536"/>
  </clipPath>
</defs>
<path clip-path="url(#clip110)" d="
M303.299 1423.09 L2256.76 1423.09 L2256.76 47.2441 L303.299 47.2441  Z
  " fill="#ffffff" fill-rule="evenodd" fill-opacity="1"/>
<defs>
  <clipPath id="clip112">
    <rect x="303" y="47" width="1954" height="1377"/>
  </clipPath>
</defs>
<polyline clip-path="url(#clip112)" style="stroke:#000000; stroke-width:2; stroke-opacity:0.1; fill:none" points="
  311.333,1423.09 311.333,47.2441 
  "/>
<polyline clip-path="url(#clip112)" style="stroke:#000000; stroke-width:2; stroke-opacity:0.1; fill:none" points="
  783.867,1423.09 783.867,47.2441 
  "/>
<polyline clip-path="url(#clip112)" style="stroke:#000000; stroke-width:2; stroke-opacity:0.1; fill:none" points="
  1256.4,1423.09 1256.4,47.2441 
  "/>
<polyline clip-path="url(#clip112)" style="stroke:#000000; stroke-width:2; stroke-opacity:0.1; fill:none" points="
  1728.94,1423.09 1728.94,47.2441 
  "/>
<polyline clip-path="url(#clip112)" style="stroke:#000000; stroke-width:2; stroke-opacity:0.1; fill:none" points="
  2201.47,1423.09 2201.47,47.2441 
  "/>
<polyline clip-path="url(#clip112)" style="stroke:#000000; stroke-width:2; stroke-opacity:0.1; fill:none" points="
  303.299,1252.56 2256.76,1252.56 
  "/>
<polyline clip-path="url(#clip112)" style="stroke:#000000; stroke-width:2; stroke-opacity:0.1; fill:none" points="
  303.299,1012.2 2256.76,1012.2 
  "/>
<polyline clip-path="url(#clip112)" style="stroke:#000000; stroke-width:2; stroke-opacity:0.1; fill:none" points="
  303.299,771.842 2256.76,771.842 
  "/>
<polyline clip-path="url(#clip112)" style="stroke:#000000; stroke-width:2; stroke-opacity:0.1; fill:none" points="
  303.299,531.484 2256.76,531.484 
  "/>
<polyline clip-path="url(#clip112)" style="stroke:#000000; stroke-width:2; stroke-opacity:0.1; fill:none" points="
  303.299,291.125 2256.76,291.125 
  "/>
<polyline clip-path="url(#clip112)" style="stroke:#000000; stroke-width:2; stroke-opacity:0.1; fill:none" points="
  303.299,50.7666 2256.76,50.7666 
  "/>
<polyline clip-path="url(#clip110)" style="stroke:#000000; stroke-width:4; stroke-opacity:1; fill:none" points="
  303.299,1423.09 2256.76,1423.09 
  "/>
<polyline clip-path="url(#clip110)" style="stroke:#000000; stroke-width:4; stroke-opacity:1; fill:none" points="
  303.299,1423.09 303.299,47.2441 
  "/>
<polyline clip-path="url(#clip110)" style="stroke:#000000; stroke-width:4; stroke-opacity:1; fill:none" points="
  311.333,1423.09 311.333,1406.58 
  "/>
<polyline clip-path="url(#clip110)" style="stroke:#000000; stroke-width:4; stroke-opacity:1; fill:none" points="
  783.867,1423.09 783.867,1406.58 
  "/>
<polyline clip-path="url(#clip110)" style="stroke:#000000; stroke-width:4; stroke-opacity:1; fill:none" points="
  1256.4,1423.09 1256.4,1406.58 
  "/>
<polyline clip-path="url(#clip110)" style="stroke:#000000; stroke-width:4; stroke-opacity:1; fill:none" points="
  1728.94,1423.09 1728.94,1406.58 
  "/>
<polyline clip-path="url(#clip110)" style="stroke:#000000; stroke-width:4; stroke-opacity:1; fill:none" points="
  2201.47,1423.09 2201.47,1406.58 
  "/>
<polyline clip-path="url(#clip110)" style="stroke:#000000; stroke-width:4; stroke-opacity:1; fill:none" points="
  303.299,1252.56 326.741,1252.56 
  "/>
<polyline clip-path="url(#clip110)" style="stroke:#000000; stroke-width:4; stroke-opacity:1; fill:none" points="
  303.299,1012.2 326.741,1012.2 
  "/>
<polyline clip-path="url(#clip110)" style="stroke:#000000; stroke-width:4; stroke-opacity:1; fill:none" points="
  303.299,771.842 326.741,771.842 
  "/>
<polyline clip-path="url(#clip110)" style="stroke:#000000; stroke-width:4; stroke-opacity:1; fill:none" points="
  303.299,531.484 326.741,531.484 
  "/>
<polyline clip-path="url(#clip110)" style="stroke:#000000; stroke-width:4; stroke-opacity:1; fill:none" points="
  303.299,291.125 326.741,291.125 
  "/>
<polyline clip-path="url(#clip110)" style="stroke:#000000; stroke-width:4; stroke-opacity:1; fill:none" points="
  303.299,50.7666 326.741,50.7666 
  "/>
<path clip-path="url(#clip110)" d="M 0 0 M311.333 1444.6 Q307.721 1444.6 305.893 1448.16 Q304.087 1451.71 304.087 1458.83 Q304.087 1465.94 305.893 1469.51 Q307.721 1473.05 311.333 1473.05 Q314.967 1473.05 316.772 1469.51 Q318.601 1465.94 318.601 1458.83 Q318.601 1451.71 316.772 1448.16 Q314.967 1444.6 311.333 1444.6 M311.333 1440.89 Q317.143 1440.89 320.198 1445.5 Q323.277 1450.08 323.277 1458.83 Q323.277 1467.56 320.198 1472.17 Q317.143 1476.75 311.333 1476.75 Q305.522 1476.75 302.444 1472.17 Q299.388 1467.56 299.388 1458.83 Q299.388 1450.08 302.444 1445.5 Q305.522 1440.89 311.333 1440.89 Z" fill="#000000" fill-rule="evenodd" fill-opacity="1" /><path clip-path="url(#clip110)" d="M 0 0 M760.742 1472.14 L768.381 1472.14 L768.381 1445.78 L760.071 1447.45 L760.071 1443.19 L768.334 1441.52 L773.01 1441.52 L773.01 1472.14 L780.649 1472.14 L780.649 1476.08 L760.742 1476.08 L760.742 1472.14 Z" fill="#000000" fill-rule="evenodd" fill-opacity="1" /><path clip-path="url(#clip110)" d="M 0 0 M795.719 1444.6 Q792.107 1444.6 790.279 1448.16 Q788.473 1451.71 788.473 1458.83 Q788.473 1465.94 790.279 1469.51 Q792.107 1473.05 795.719 1473.05 Q799.353 1473.05 801.158 1469.51 Q802.987 1465.94 802.987 1458.83 Q802.987 1451.71 801.158 1448.16 Q799.353 1444.6 795.719 1444.6 M795.719 1440.89 Q801.529 1440.89 804.584 1445.5 Q807.663 1450.08 807.663 1458.83 Q807.663 1467.56 804.584 1472.17 Q801.529 1476.75 795.719 1476.75 Q789.908 1476.75 786.83 1472.17 Q783.774 1467.56 783.774 1458.83 Q783.774 1450.08 786.83 1445.5 Q789.908 1440.89 795.719 1440.89 Z" fill="#000000" fill-rule="evenodd" fill-opacity="1" /><path clip-path="url(#clip110)" d="M 0 0 M1237.55 1472.14 L1253.87 1472.14 L1253.87 1476.08 L1231.92 1476.08 L1231.92 1472.14 Q1234.58 1469.39 1239.17 1464.76 Q1243.77 1460.11 1244.95 1458.77 Q1247.2 1456.24 1248.08 1454.51 Q1248.98 1452.75 1248.98 1451.06 Q1248.98 1448.3 1247.04 1446.57 Q1245.12 1444.83 1242.01 1444.83 Q1239.82 1444.83 1237.36 1445.59 Q1234.93 1446.36 1232.15 1447.91 L1232.15 1443.19 Q1234.98 1442.05 1237.43 1441.47 Q1239.88 1440.89 1241.92 1440.89 Q1247.29 1440.89 1250.49 1443.58 Q1253.68 1446.27 1253.68 1450.76 Q1253.68 1452.89 1252.87 1454.81 Q1252.08 1456.7 1249.98 1459.3 Q1249.4 1459.97 1246.3 1463.19 Q1243.2 1466.38 1237.55 1472.14 Z" fill="#000000" fill-rule="evenodd" fill-opacity="1" /><path clip-path="url(#clip110)" d="M 0 0 M1268.94 1444.6 Q1265.32 1444.6 1263.5 1448.16 Q1261.69 1451.71 1261.69 1458.83 Q1261.69 1465.94 1263.5 1469.51 Q1265.32 1473.05 1268.94 1473.05 Q1272.57 1473.05 1274.38 1469.51 Q1276.2 1465.94 1276.2 1458.83 Q1276.2 1451.71 1274.38 1448.16 Q1272.57 1444.6 1268.94 1444.6 M1268.94 1440.89 Q1274.75 1440.89 1277.8 1445.5 Q1280.88 1450.08 1280.88 1458.83 Q1280.88 1467.56 1277.8 1472.17 Q1274.75 1476.75 1268.94 1476.75 Q1263.13 1476.75 1260.05 1472.17 Q1256.99 1467.56 1256.99 1458.83 Q1256.99 1450.08 1260.05 1445.5 Q1263.13 1440.89 1268.94 1440.89 Z" fill="#000000" fill-rule="evenodd" fill-opacity="1" /><path clip-path="url(#clip110)" d="M 0 0 M1719.68 1457.45 Q1723.03 1458.16 1724.91 1460.43 Q1726.81 1462.7 1726.81 1466.03 Q1726.81 1471.15 1723.29 1473.95 Q1719.77 1476.75 1713.29 1476.75 Q1711.11 1476.75 1708.8 1476.31 Q1706.5 1475.89 1704.05 1475.04 L1704.05 1470.52 Q1706 1471.66 1708.31 1472.24 Q1710.63 1472.82 1713.15 1472.82 Q1717.55 1472.82 1719.84 1471.08 Q1722.15 1469.34 1722.15 1466.03 Q1722.15 1462.98 1720 1461.27 Q1717.87 1459.53 1714.05 1459.53 L1710.02 1459.53 L1710.02 1455.69 L1714.24 1455.69 Q1717.69 1455.69 1719.51 1454.32 Q1721.34 1452.93 1721.34 1450.34 Q1721.34 1447.68 1719.44 1446.27 Q1717.57 1444.83 1714.05 1444.83 Q1712.13 1444.83 1709.93 1445.25 Q1707.73 1445.66 1705.09 1446.54 L1705.09 1442.38 Q1707.75 1441.64 1710.07 1441.27 Q1712.41 1440.89 1714.47 1440.89 Q1719.79 1440.89 1722.89 1443.33 Q1726 1445.73 1726 1449.85 Q1726 1452.72 1724.35 1454.71 Q1722.71 1456.68 1719.68 1457.45 Z" fill="#000000" fill-rule="evenodd" fill-opacity="1" /><path clip-path="url(#clip110)" d="M 0 0 M1741.87 1444.6 Q1738.26 1444.6 1736.44 1448.16 Q1734.63 1451.71 1734.63 1458.83 Q1734.63 1465.94 1736.44 1469.51 Q1738.26 1473.05 1741.87 1473.05 Q1745.51 1473.05 1747.31 1469.51 Q1749.14 1465.94 1749.14 1458.83 Q1749.14 1451.71 1747.31 1448.16 Q1745.51 1444.6 1741.87 1444.6 M1741.87 1440.89 Q1747.69 1440.89 1750.74 1445.5 Q1753.82 1450.08 1753.82 1458.83 Q1753.82 1467.56 1750.74 1472.17 Q1747.69 1476.75 1741.87 1476.75 Q1736.06 1476.75 1732.99 1472.17 Q1729.93 1467.56 1729.93 1458.83 Q1729.93 1450.08 1732.99 1445.5 Q1736.06 1440.89 1741.87 1440.89 Z" fill="#000000" fill-rule="evenodd" fill-opacity="1" /><path clip-path="url(#clip110)" d="M 0 0 M2190.97 1445.59 L2179.17 1464.04 L2190.97 1464.04 L2190.97 1445.59 M2189.74 1441.52 L2195.62 1441.52 L2195.62 1464.04 L2200.56 1464.04 L2200.56 1467.93 L2195.62 1467.93 L2195.62 1476.08 L2190.97 1476.08 L2190.97 1467.93 L2175.37 1467.93 L2175.37 1463.42 L2189.74 1441.52 Z" fill="#000000" fill-rule="evenodd" fill-opacity="1" /><path clip-path="url(#clip110)" d="M 0 0 M2215.62 1444.6 Q2212.01 1444.6 2210.18 1448.16 Q2208.38 1451.71 2208.38 1458.83 Q2208.38 1465.94 2210.18 1469.51 Q2212.01 1473.05 2215.62 1473.05 Q2219.26 1473.05 2221.06 1469.51 Q2222.89 1465.94 2222.89 1458.83 Q2222.89 1451.71 2221.06 1448.16 Q2219.26 1444.6 2215.62 1444.6 M2215.62 1440.89 Q2221.43 1440.89 2224.49 1445.5 Q2227.57 1450.08 2227.57 1458.83 Q2227.57 1467.56 2224.49 1472.17 Q2221.43 1476.75 2215.62 1476.75 Q2209.81 1476.75 2206.74 1472.17 Q2203.68 1467.56 2203.68 1458.83 Q2203.68 1450.08 2206.74 1445.5 Q2209.81 1440.89 2215.62 1440.89 Z" fill="#000000" fill-rule="evenodd" fill-opacity="1" /><path clip-path="url(#clip110)" d="M 0 0 M63.633 1261.4 L76.1098 1261.4 L76.1098 1265.2 L63.633 1265.2 L63.633 1261.4 Z" fill="#000000" fill-rule="evenodd" fill-opacity="1" /><path clip-path="url(#clip110)" d="M 0 0 M98.9338 1272.35 L115.253 1272.35 L115.253 1276.29 L93.3088 1276.29 L93.3088 1272.35 Q95.9708 1269.6 100.554 1264.97 Q105.161 1260.31 106.341 1258.97 Q108.586 1256.45 109.466 1254.71 Q110.369 1252.95 110.369 1251.26 Q110.369 1248.51 108.424 1246.77 Q106.503 1245.04 103.401 1245.04 Q101.202 1245.04 98.7486 1245.8 Q96.318 1246.56 93.5403 1248.12 L93.5403 1243.39 Q96.3643 1242.26 98.818 1241.68 Q101.272 1241.1 103.309 1241.1 Q108.679 1241.1 111.874 1243.79 Q115.068 1246.47 115.068 1250.96 Q115.068 1253.09 114.258 1255.01 Q113.471 1256.91 111.364 1259.5 Q110.786 1260.18 107.684 1263.39 Q104.582 1266.59 98.9338 1272.35 Z" fill="#000000" fill-rule="evenodd" fill-opacity="1" /><path clip-path="url(#clip110)" d="M 0 0 M120.323 1270.41 L125.207 1270.41 L125.207 1276.29 L120.323 1276.29 L120.323 1270.41 Z" fill="#000000" fill-rule="evenodd" fill-opacity="1" /><path clip-path="url(#clip110)" d="M 0 0 M140.276 1244.81 Q136.665 1244.81 134.836 1248.37 Q133.031 1251.91 133.031 1259.04 Q133.031 1266.15 134.836 1269.71 Q136.665 1273.25 140.276 1273.25 Q143.91 1273.25 145.716 1269.71 Q147.545 1266.15 147.545 1259.04 Q147.545 1251.91 145.716 1248.37 Q143.91 1244.81 140.276 1244.81 M140.276 1241.1 Q146.086 1241.1 149.142 1245.71 Q152.221 1250.29 152.221 1259.04 Q152.221 1267.77 149.142 1272.37 Q146.086 1276.96 140.276 1276.96 Q134.466 1276.96 131.387 1272.37 Q128.332 1267.77 128.332 1259.04 Q128.332 1250.29 131.387 1245.71 Q134.466 1241.1 140.276 1241.1 Z" fill="#000000" fill-rule="evenodd" fill-opacity="1" /><path clip-path="url(#clip110)" d="M 0 0 M185.461 1250.82 L174.882 1261.45 L185.461 1272.03 L182.706 1274.83 L172.082 1264.2 L161.457 1274.83 L158.725 1272.03 L169.281 1261.45 L158.725 1250.82 L161.457 1248.02 L172.082 1258.65 L182.706 1248.02 L185.461 1250.82 Z" fill="#000000" fill-rule="evenodd" fill-opacity="1" /><path clip-path="url(#clip110)" d="M 0 0 M191.341 1272.35 L198.98 1272.35 L198.98 1245.99 L190.669 1247.65 L190.669 1243.39 L198.933 1241.73 L203.609 1241.73 L203.609 1272.35 L211.248 1272.35 L211.248 1276.29 L191.341 1276.29 L191.341 1272.35 Z" fill="#000000" fill-rule="evenodd" fill-opacity="1" /><path clip-path="url(#clip110)" d="M 0 0 M226.317 1244.81 Q222.706 1244.81 220.878 1248.37 Q219.072 1251.91 219.072 1259.04 Q219.072 1266.15 220.878 1269.71 Q222.706 1273.25 226.317 1273.25 Q229.952 1273.25 231.757 1269.71 Q233.586 1266.15 233.586 1259.04 Q233.586 1251.91 231.757 1248.37 Q229.952 1244.81 226.317 1244.81 M226.317 1241.1 Q232.128 1241.1 235.183 1245.71 Q238.262 1250.29 238.262 1259.04 Q238.262 1267.77 235.183 1272.37 Q232.128 1276.96 226.317 1276.96 Q220.507 1276.96 217.429 1272.37 Q214.373 1267.77 214.373 1259.04 Q214.373 1250.29 217.429 1245.71 Q220.507 1241.1 226.317 1241.1 Z" fill="#000000" fill-rule="evenodd" fill-opacity="1" /><path clip-path="url(#clip110)" d="M 0 0 M238.262 1228.66 L253.44 1228.66 L253.44 1230.44 L238.262 1230.44 L238.262 1228.66 Z" fill="#000000" fill-rule="evenodd" fill-opacity="1" /><path clip-path="url(#clip110)" d="M 0 0 M256.374 1234.24 L260.21 1234.24 L260.21 1222.75 L256.016 1223.52 L256.016 1221.34 L260.342 1220.61 L262.919 1220.61 L262.919 1234.24 L266.774 1234.24 L266.774 1236.31 L256.374 1236.31 L256.374 1234.24 Z" fill="#000000" fill-rule="evenodd" fill-opacity="1" /><path clip-path="url(#clip110)" d="M 0 0 M276.63 1227.81 Q278.36 1228.15 279.3 1229.18 Q280.259 1230.2 280.259 1231.74 Q280.259 1234.07 278.473 1235.33 Q276.686 1236.59 273.357 1236.59 Q272.285 1236.59 271.1 1236.41 Q269.934 1236.2 268.617 1235.82 L268.617 1233.55 Q269.595 1234.06 270.705 1234.3 Q271.834 1234.54 273.094 1234.54 Q275.144 1234.54 276.272 1233.81 Q277.401 1233.06 277.401 1231.74 Q277.401 1230.35 276.347 1229.64 Q275.313 1228.92 273.282 1228.92 L271.664 1228.92 L271.664 1226.89 L273.432 1226.89 Q275.2 1226.89 276.103 1226.31 Q277.025 1225.71 277.025 1224.58 Q277.025 1223.49 276.084 1222.92 Q275.144 1222.34 273.357 1222.34 Q272.605 1222.34 271.646 1222.51 Q270.686 1222.68 269.163 1223.11 L269.163 1220.95 Q270.536 1220.63 271.74 1220.46 Q272.943 1220.29 273.978 1220.29 Q276.686 1220.29 278.266 1221.4 Q279.865 1222.51 279.865 1224.37 Q279.865 1225.67 279.018 1226.57 Q278.172 1227.47 276.63 1227.81 Z" fill="#000000" fill-rule="evenodd" fill-opacity="1" /><path clip-path="url(#clip110)" d="M 0 0 M65.9941 1021.04 L78.4709 1021.04 L78.4709 1024.84 L65.9941 1024.84 L65.9941 1021.04 Z" fill="#000000" fill-rule="evenodd" fill-opacity="1" /><path clip-path="url(#clip110)" d="M 0 0 M96.3412 1031.99 L103.98 1031.99 L103.98 1005.63 L95.6699 1007.29 L95.6699 1003.03 L103.934 1001.37 L108.61 1001.37 L108.61 1031.99 L116.248 1031.99 L116.248 1035.93 L96.3412 1035.93 L96.3412 1031.99 Z" fill="#000000" fill-rule="evenodd" fill-opacity="1" /><path clip-path="url(#clip110)" d="M 0 0 M121.318 1030.05 L126.202 1030.05 L126.202 1035.93 L121.318 1035.93 L121.318 1030.05 Z" fill="#000000" fill-rule="evenodd" fill-opacity="1" /><path clip-path="url(#clip110)" d="M 0 0 M131.318 1001.37 L149.674 1001.37 L149.674 1005.3 L135.6 1005.3 L135.6 1013.78 Q136.619 1013.43 137.637 1013.27 Q138.656 1013.08 139.674 1013.08 Q145.461 1013.08 148.841 1016.25 Q152.221 1019.42 152.221 1024.84 Q152.221 1030.42 148.748 1033.52 Q145.276 1036.6 138.957 1036.6 Q136.781 1036.6 134.512 1036.23 Q132.267 1035.86 129.86 1035.12 L129.86 1030.42 Q131.943 1031.55 134.165 1032.11 Q136.387 1032.66 138.864 1032.66 Q142.869 1032.66 145.207 1030.56 Q147.545 1028.45 147.545 1024.84 Q147.545 1021.23 145.207 1019.12 Q142.869 1017.02 138.864 1017.02 Q136.989 1017.02 135.114 1017.43 Q133.262 1017.85 131.318 1018.73 L131.318 1001.37 Z" fill="#000000" fill-rule="evenodd" fill-opacity="1" /><path clip-path="url(#clip110)" d="M 0 0 M185.461 1010.47 L174.882 1021.09 L185.461 1031.67 L182.706 1034.47 L172.082 1023.84 L161.457 1034.47 L158.725 1031.67 L169.281 1021.09 L158.725 1010.47 L161.457 1007.66 L172.082 1018.29 L182.706 1007.66 L185.461 1010.47 Z" fill="#000000" fill-rule="evenodd" fill-opacity="1" /><path clip-path="url(#clip110)" d="M 0 0 M191.341 1031.99 L198.98 1031.99 L198.98 1005.63 L190.669 1007.29 L190.669 1003.03 L198.933 1001.37 L203.609 1001.37 L203.609 1031.99 L211.248 1031.99 L211.248 1035.93 L191.341 1035.93 L191.341 1031.99 Z" fill="#000000" fill-rule="evenodd" fill-opacity="1" /><path clip-path="url(#clip110)" d="M 0 0 M226.317 1004.45 Q222.706 1004.45 220.878 1008.01 Q219.072 1011.55 219.072 1018.68 Q219.072 1025.79 220.878 1029.35 Q222.706 1032.9 226.317 1032.9 Q229.952 1032.9 231.757 1029.35 Q233.586 1025.79 233.586 1018.68 Q233.586 1011.55 231.757 1008.01 Q229.952 1004.45 226.317 1004.45 M226.317 1000.74 Q232.128 1000.74 235.183 1005.35 Q238.262 1009.93 238.262 1018.68 Q238.262 1027.41 235.183 1032.02 Q232.128 1036.6 226.317 1036.6 Q220.507 1036.6 217.429 1032.02 Q214.373 1027.41 214.373 1018.68 Q214.373 1009.93 217.429 1005.35 Q220.507 1000.74 226.317 1000.74 Z" fill="#000000" fill-rule="evenodd" fill-opacity="1" /><path clip-path="url(#clip110)" d="M 0 0 M238.262 988.299 L253.44 988.299 L253.44 990.086 L238.262 990.086 L238.262 988.299 Z" fill="#000000" fill-rule="evenodd" fill-opacity="1" /><path clip-path="url(#clip110)" d="M 0 0 M256.374 993.885 L260.21 993.885 L260.21 982.394 L256.016 983.165 L256.016 980.983 L260.342 980.25 L262.919 980.25 L262.919 993.885 L266.774 993.885 L266.774 995.954 L256.374 995.954 L256.374 993.885 Z" fill="#000000" fill-rule="evenodd" fill-opacity="1" /><path clip-path="url(#clip110)" d="M 0 0 M276.63 987.453 Q278.36 987.792 279.3 988.826 Q280.259 989.842 280.259 991.384 Q280.259 993.716 278.473 994.976 Q276.686 996.236 273.357 996.236 Q272.285 996.236 271.1 996.048 Q269.934 995.841 268.617 995.465 L268.617 993.189 Q269.595 993.697 270.705 993.942 Q271.834 994.186 273.094 994.186 Q275.144 994.186 276.272 993.453 Q277.401 992.7 277.401 991.384 Q277.401 989.992 276.347 989.277 Q275.313 988.563 273.282 988.563 L271.664 988.563 L271.664 986.531 L273.432 986.531 Q275.2 986.531 276.103 985.948 Q277.025 985.347 277.025 984.218 Q277.025 983.127 276.084 982.563 Q275.144 981.98 273.357 981.98 Q272.605 981.98 271.646 982.149 Q270.686 982.318 269.163 982.751 L269.163 980.588 Q270.536 980.268 271.74 980.099 Q272.943 979.93 273.978 979.93 Q276.686 979.93 278.266 981.04 Q279.865 982.149 279.865 984.011 Q279.865 985.309 279.018 986.212 Q278.172 987.114 276.63 987.453 Z" fill="#000000" fill-rule="evenodd" fill-opacity="1" /><path clip-path="url(#clip110)" d="M 0 0 M64.9988 780.685 L77.4756 780.685 L77.4756 784.482 L64.9988 784.482 L64.9988 780.685 Z" fill="#000000" fill-rule="evenodd" fill-opacity="1" /><path clip-path="url(#clip110)" d="M 0 0 M95.3458 791.634 L102.985 791.634 L102.985 765.269 L94.6745 766.936 L94.6745 762.676 L102.938 761.01 L107.614 761.01 L107.614 791.634 L115.253 791.634 L115.253 795.57 L95.3458 795.57 L95.3458 791.634 Z" fill="#000000" fill-rule="evenodd" fill-opacity="1" /><path clip-path="url(#clip110)" d="M 0 0 M120.323 789.69 L125.207 789.69 L125.207 795.57 L120.323 795.57 L120.323 789.69 Z" fill="#000000" fill-rule="evenodd" fill-opacity="1" /><path clip-path="url(#clip110)" d="M 0 0 M140.276 764.088 Q136.665 764.088 134.836 767.653 Q133.031 771.195 133.031 778.324 Q133.031 785.431 134.836 788.996 Q136.665 792.537 140.276 792.537 Q143.91 792.537 145.716 788.996 Q147.545 785.431 147.545 778.324 Q147.545 771.195 145.716 767.653 Q143.91 764.088 140.276 764.088 M140.276 760.385 Q146.086 760.385 149.142 764.991 Q152.221 769.574 152.221 778.324 Q152.221 787.051 149.142 791.658 Q146.086 796.241 140.276 796.241 Q134.466 796.241 131.387 791.658 Q128.332 787.051 128.332 778.324 Q128.332 769.574 131.387 764.991 Q134.466 760.385 140.276 760.385 Z" fill="#000000" fill-rule="evenodd" fill-opacity="1" /><path clip-path="url(#clip110)" d="M 0 0 M185.461 770.107 L174.882 780.732 L185.461 791.31 L182.706 794.111 L172.082 783.486 L161.457 794.111 L158.725 791.31 L169.281 780.732 L158.725 770.107 L161.457 767.306 L172.082 777.931 L182.706 767.306 L185.461 770.107 Z" fill="#000000" fill-rule="evenodd" fill-opacity="1" /><path clip-path="url(#clip110)" d="M 0 0 M191.341 791.634 L198.98 791.634 L198.98 765.269 L190.669 766.936 L190.669 762.676 L198.933 761.01 L203.609 761.01 L203.609 791.634 L211.248 791.634 L211.248 795.57 L191.341 795.57 L191.341 791.634 Z" fill="#000000" fill-rule="evenodd" fill-opacity="1" /><path clip-path="url(#clip110)" d="M 0 0 M226.317 764.088 Q222.706 764.088 220.878 767.653 Q219.072 771.195 219.072 778.324 Q219.072 785.431 220.878 788.996 Q222.706 792.537 226.317 792.537 Q229.952 792.537 231.757 788.996 Q233.586 785.431 233.586 778.324 Q233.586 771.195 231.757 767.653 Q229.952 764.088 226.317 764.088 M226.317 760.385 Q232.128 760.385 235.183 764.991 Q238.262 769.574 238.262 778.324 Q238.262 787.051 235.183 791.658 Q232.128 796.241 226.317 796.241 Q220.507 796.241 217.429 791.658 Q214.373 787.051 214.373 778.324 Q214.373 769.574 217.429 764.991 Q220.507 760.385 226.317 760.385 Z" fill="#000000" fill-rule="evenodd" fill-opacity="1" /><path clip-path="url(#clip110)" d="M 0 0 M238.262 747.941 L253.44 747.941 L253.44 749.728 L238.262 749.728 L238.262 747.941 Z" fill="#000000" fill-rule="evenodd" fill-opacity="1" /><path clip-path="url(#clip110)" d="M 0 0 M256.374 753.527 L260.21 753.527 L260.21 742.035 L256.016 742.806 L256.016 740.625 L260.342 739.891 L262.919 739.891 L262.919 753.527 L266.774 753.527 L266.774 755.596 L256.374 755.596 L256.374 753.527 Z" fill="#000000" fill-rule="evenodd" fill-opacity="1" /><path clip-path="url(#clip110)" d="M 0 0 M276.63 747.095 Q278.36 747.433 279.3 748.467 Q280.259 749.483 280.259 751.025 Q280.259 753.358 278.473 754.618 Q276.686 755.878 273.357 755.878 Q272.285 755.878 271.1 755.69 Q269.934 755.483 268.617 755.107 L268.617 752.831 Q269.595 753.339 270.705 753.583 Q271.834 753.828 273.094 753.828 Q275.144 753.828 276.272 753.094 Q277.401 752.342 277.401 751.025 Q277.401 749.634 276.347 748.919 Q275.313 748.204 273.282 748.204 L271.664 748.204 L271.664 746.173 L273.432 746.173 Q275.2 746.173 276.103 745.59 Q277.025 744.988 277.025 743.86 Q277.025 742.769 276.084 742.204 Q275.144 741.621 273.357 741.621 Q272.605 741.621 271.646 741.791 Q270.686 741.96 269.163 742.393 L269.163 740.23 Q270.536 739.91 271.74 739.741 Q272.943 739.571 273.978 739.571 Q276.686 739.571 278.266 740.681 Q279.865 741.791 279.865 743.653 Q279.865 744.95 279.018 745.853 Q278.172 746.756 276.63 747.095 Z" fill="#000000" fill-rule="evenodd" fill-opacity="1" /><path clip-path="url(#clip110)" d="M 0 0 M62.4829 540.327 L74.9597 540.327 L74.9597 544.123 L62.4829 544.123 L62.4829 540.327 Z" fill="#000000" fill-rule="evenodd" fill-opacity="1" /><path clip-path="url(#clip110)" d="M 0 0 M93.617 520.651 L111.973 520.651 L111.973 524.586 L97.8993 524.586 L97.8993 533.058 Q98.9179 532.711 99.9364 532.549 Q100.955 532.364 101.973 532.364 Q107.76 532.364 111.14 535.535 Q114.52 538.707 114.52 544.123 Q114.52 549.702 111.047 552.804 Q107.575 555.882 101.256 555.882 Q99.0799 555.882 96.8114 555.512 Q94.566 555.142 92.1586 554.401 L92.1586 549.702 Q94.242 550.836 96.4642 551.392 Q98.6864 551.947 101.163 551.947 Q105.168 551.947 107.506 549.841 Q109.844 547.734 109.844 544.123 Q109.844 540.512 107.506 538.406 Q105.168 536.299 101.163 536.299 Q99.2882 536.299 97.4132 536.716 Q95.5614 537.133 93.617 538.012 L93.617 520.651 Z" fill="#000000" fill-rule="evenodd" fill-opacity="1" /><path clip-path="url(#clip110)" d="M 0 0 M119.589 549.332 L124.473 549.332 L124.473 555.211 L119.589 555.211 L119.589 549.332 Z" fill="#000000" fill-rule="evenodd" fill-opacity="1" /><path clip-path="url(#clip110)" d="M 0 0 M139.543 523.73 Q135.932 523.73 134.103 527.295 Q132.297 530.836 132.297 537.966 Q132.297 545.072 134.103 548.637 Q135.932 552.179 139.543 552.179 Q143.177 552.179 144.982 548.637 Q146.811 545.072 146.811 537.966 Q146.811 530.836 144.982 527.295 Q143.177 523.73 139.543 523.73 M139.543 520.026 Q145.353 520.026 148.408 524.633 Q151.487 529.216 151.487 537.966 Q151.487 546.693 148.408 551.299 Q145.353 555.882 139.543 555.882 Q133.732 555.882 130.654 551.299 Q127.598 546.693 127.598 537.966 Q127.598 529.216 130.654 524.633 Q133.732 520.026 139.543 520.026 Z" fill="#000000" fill-rule="evenodd" fill-opacity="1" /><path clip-path="url(#clip110)" d="M 0 0 M184.728 529.748 L174.149 540.373 L184.728 550.952 L181.973 553.753 L171.348 543.128 L160.723 553.753 L157.992 550.952 L168.547 540.373 L157.992 529.748 L160.723 526.947 L171.348 537.572 L181.973 526.947 L184.728 529.748 Z" fill="#000000" fill-rule="evenodd" fill-opacity="1" /><path clip-path="url(#clip110)" d="M 0 0 M190.607 551.276 L198.246 551.276 L198.246 524.91 L189.936 526.577 L189.936 522.318 L198.2 520.651 L202.876 520.651 L202.876 551.276 L210.514 551.276 L210.514 555.211 L190.607 555.211 L190.607 551.276 Z" fill="#000000" fill-rule="evenodd" fill-opacity="1" /><path clip-path="url(#clip110)" d="M 0 0 M225.584 523.73 Q221.973 523.73 220.144 527.295 Q218.339 530.836 218.339 537.966 Q218.339 545.072 220.144 548.637 Q221.973 552.179 225.584 552.179 Q229.218 552.179 231.024 548.637 Q232.852 545.072 232.852 537.966 Q232.852 530.836 231.024 527.295 Q229.218 523.73 225.584 523.73 M225.584 520.026 Q231.394 520.026 234.45 524.633 Q237.528 529.216 237.528 537.966 Q237.528 546.693 234.45 551.299 Q231.394 555.882 225.584 555.882 Q219.774 555.882 216.695 551.299 Q213.639 546.693 213.639 537.966 Q213.639 529.216 216.695 524.633 Q219.774 520.026 225.584 520.026 Z" fill="#000000" fill-rule="evenodd" fill-opacity="1" /><path clip-path="url(#clip110)" d="M 0 0 M237.528 507.582 L252.706 507.582 L252.706 509.369 L237.528 509.369 L237.528 507.582 Z" fill="#000000" fill-rule="evenodd" fill-opacity="1" /><path clip-path="url(#clip110)" d="M 0 0 M255.64 513.168 L259.477 513.168 L259.477 501.677 L255.283 502.448 L255.283 500.266 L259.609 499.533 L262.185 499.533 L262.185 513.168 L266.041 513.168 L266.041 515.237 L255.64 515.237 L255.64 513.168 Z" fill="#000000" fill-rule="evenodd" fill-opacity="1" /><path clip-path="url(#clip110)" d="M 0 0 M275.012 501.808 L269.201 509.689 L275.012 509.689 L275.012 501.808 M274.598 499.533 L277.72 499.533 L277.72 509.689 L280.259 509.689 L280.259 511.739 L277.72 511.739 L277.72 515.237 L275.012 515.237 L275.012 511.739 L267.226 511.739 L267.226 509.463 L274.598 499.533 Z" fill="#000000" fill-rule="evenodd" fill-opacity="1" /><path clip-path="url(#clip110)" d="M 0 0 M268.315 276.924 Q264.704 276.924 262.875 280.489 Q261.07 284.03 261.07 291.16 Q261.07 298.266 262.875 301.831 Q264.704 305.373 268.315 305.373 Q271.949 305.373 273.755 301.831 Q275.584 298.266 275.584 291.16 Q275.584 284.03 273.755 280.489 Q271.949 276.924 268.315 276.924 M268.315 273.22 Q274.125 273.22 277.181 277.827 Q280.259 282.41 280.259 291.16 Q280.259 299.887 277.181 304.493 Q274.125 309.076 268.315 309.076 Q262.505 309.076 259.426 304.493 Q256.371 299.887 256.371 291.16 Q256.371 282.41 259.426 277.827 Q262.505 273.22 268.315 273.22 Z" fill="#000000" fill-rule="evenodd" fill-opacity="1" /><path clip-path="url(#clip110)" d="M 0 0 M93.617 39.9342 L111.973 39.9342 L111.973 43.8693 L97.8993 43.8693 L97.8993 52.3415 Q98.9179 51.9943 99.9364 51.8322 Q100.955 51.6471 101.973 51.6471 Q107.76 51.6471 111.14 54.8183 Q114.52 57.9896 114.52 63.4063 Q114.52 68.9849 111.047 72.0868 Q107.575 75.1654 101.256 75.1654 Q99.0799 75.1654 96.8114 74.7951 Q94.566 74.4247 92.1586 73.684 L92.1586 68.9849 Q94.242 70.1192 96.4642 70.6747 Q98.6864 71.2303 101.163 71.2303 Q105.168 71.2303 107.506 69.1238 Q109.844 67.0173 109.844 63.4063 Q109.844 59.7952 107.506 57.6887 Q105.168 55.5822 101.163 55.5822 Q99.2882 55.5822 97.4132 55.9989 Q95.5614 56.4155 93.617 57.2952 L93.617 39.9342 Z" fill="#000000" fill-rule="evenodd" fill-opacity="1" /><path clip-path="url(#clip110)" d="M 0 0 M119.589 68.6146 L124.473 68.6146 L124.473 74.4942 L119.589 74.4942 L119.589 68.6146 Z" fill="#000000" fill-rule="evenodd" fill-opacity="1" /><path clip-path="url(#clip110)" d="M 0 0 M139.543 43.0128 Q135.932 43.0128 134.103 46.5776 Q132.297 50.1193 132.297 57.2489 Q132.297 64.3553 134.103 67.9201 Q135.932 71.4618 139.543 71.4618 Q143.177 71.4618 144.982 67.9201 Q146.811 64.3553 146.811 57.2489 Q146.811 50.1193 144.982 46.5776 Q143.177 43.0128 139.543 43.0128 M139.543 39.3092 Q145.353 39.3092 148.408 43.9156 Q151.487 48.4989 151.487 57.2489 Q151.487 65.9757 148.408 70.5821 Q145.353 75.1654 139.543 75.1654 Q133.732 75.1654 130.654 70.5821 Q127.598 65.9757 127.598 57.2489 Q127.598 48.4989 130.654 43.9156 Q133.732 39.3092 139.543 39.3092 Z" fill="#000000" fill-rule="evenodd" fill-opacity="1" /><path clip-path="url(#clip110)" d="M 0 0 M184.728 49.0313 L174.149 59.6563 L184.728 70.2349 L181.973 73.0358 L171.348 62.4109 L160.723 73.0358 L157.992 70.2349 L168.547 59.6563 L157.992 49.0313 L160.723 46.2304 L171.348 56.8554 L181.973 46.2304 L184.728 49.0313 Z" fill="#000000" fill-rule="evenodd" fill-opacity="1" /><path clip-path="url(#clip110)" d="M 0 0 M190.607 70.559 L198.246 70.559 L198.246 44.1934 L189.936 45.86 L189.936 41.6008 L198.2 39.9342 L202.876 39.9342 L202.876 70.559 L210.514 70.559 L210.514 74.4942 L190.607 74.4942 L190.607 70.559 Z" fill="#000000" fill-rule="evenodd" fill-opacity="1" /><path clip-path="url(#clip110)" d="M 0 0 M225.584 43.0128 Q221.973 43.0128 220.144 46.5776 Q218.339 50.1193 218.339 57.2489 Q218.339 64.3553 220.144 67.9201 Q221.973 71.4618 225.584 71.4618 Q229.218 71.4618 231.024 67.9201 Q232.852 64.3553 232.852 57.2489 Q232.852 50.1193 231.024 46.5776 Q229.218 43.0128 225.584 43.0128 M225.584 39.3092 Q231.394 39.3092 234.45 43.9156 Q237.528 48.4989 237.528 57.2489 Q237.528 65.9757 234.45 70.5821 Q231.394 75.1654 225.584 75.1654 Q219.774 75.1654 216.695 70.5821 Q213.639 65.9757 213.639 57.2489 Q213.639 48.4989 216.695 43.9156 Q219.774 39.3092 225.584 39.3092 Z" fill="#000000" fill-rule="evenodd" fill-opacity="1" /><path clip-path="url(#clip110)" d="M 0 0 M237.528 26.8654 L252.706 26.8654 L252.706 28.6521 L237.528 28.6521 L237.528 26.8654 Z" fill="#000000" fill-rule="evenodd" fill-opacity="1" /><path clip-path="url(#clip110)" d="M 0 0 M255.64 32.4513 L259.477 32.4513 L259.477 20.9598 L255.283 21.7309 L255.283 19.5492 L259.609 18.8157 L262.185 18.8157 L262.185 32.4513 L266.041 32.4513 L266.041 34.5202 L255.64 34.5202 L255.64 32.4513 Z" fill="#000000" fill-rule="evenodd" fill-opacity="1" /><path clip-path="url(#clip110)" d="M 0 0 M275.012 21.0914 L269.201 28.9719 L275.012 28.9719 L275.012 21.0914 M274.598 18.8157 L277.72 18.8157 L277.72 28.9719 L280.259 28.9719 L280.259 31.0219 L277.72 31.0219 L277.72 34.5202 L275.012 34.5202 L275.012 31.0219 L267.226 31.0219 L267.226 28.7462 L274.598 18.8157 Z" fill="#000000" fill-rule="evenodd" fill-opacity="1" /><polyline clip-path="url(#clip112)" style="stroke:#009af9; stroke-width:4; stroke-opacity:1; fill:none" points="
  358.586,316.743 405.839,145.958 453.093,86.1831 500.346,120.34 547.6,393.596 594.853,154.497 642.107,359.439 689.36,86.1831 736.613,427.753 783.867,564.381 
  831.12,427.753 878.374,427.753 925.627,837.637 972.88,564.381 1020.13,564.381 1067.39,837.637 1114.64,1110.89 1161.89,837.637 1209.15,837.637 1256.4,1384.15 
  1303.65,837.637 1350.91,837.637 1398.16,291.125 1445.41,837.637 1492.67,837.637 1539.92,837.637 1587.17,837.637 1634.43,837.637 1681.68,837.637 1728.94,837.637 
  1776.19,291.125 1823.44,291.125 1870.7,837.637 1917.95,291.125 1965.2,837.637 2012.46,291.125 2059.71,291.125 2106.96,291.125 2154.22,291.125 2201.47,291.125 
  
  "/>
<path clip-path="url(#clip110)" d="
M1975.34 153.586 L2256.76 153.586 L2256.76 32.6256 L1975.34 32.6256  Z
  " fill="#ffffff" fill-rule="evenodd" fill-opacity="1"/>
<polyline clip-path="url(#clip110)" style="stroke:#000000; stroke-width:4; stroke-opacity:1; fill:none" points="
  1975.34,153.586 2256.76,153.586 2256.76,32.6256 1975.34,32.6256 1975.34,153.586 
  "/>
<polyline clip-path="url(#clip110)" style="stroke:#009af9; stroke-width:4; stroke-opacity:1; fill:none" points="
  1998.38,93.1056 2136.62,93.1056 
  "/>
<path clip-path="url(#clip110)" d="M 0 0 M2173.5 112.793 Q2171.69 117.423 2169.98 118.835 Q2168.27 120.247 2165.4 120.247 L2162 120.247 L2162 116.682 L2164.5 116.682 Q2166.25 116.682 2167.23 115.848 Q2168.2 115.015 2169.38 111.913 L2170.14 109.969 L2159.66 84.4598 L2164.17 84.4598 L2172.27 104.737 L2180.38 84.4598 L2184.89 84.4598 L2173.5 112.793 Z" fill="#000000" fill-rule="evenodd" fill-opacity="1" /><path clip-path="url(#clip110)" d="M 0 0 M2190.77 106.45 L2198.41 106.45 L2198.41 80.0848 L2190.1 81.7514 L2190.1 77.4922 L2198.36 75.8256 L2203.04 75.8256 L2203.04 106.45 L2210.68 106.45 L2210.68 110.386 L2190.77 110.386 L2190.77 106.45 Z" fill="#000000" fill-rule="evenodd" fill-opacity="1" /></svg>
