<?xml version="1.0" encoding="utf-8"?>
<svg xmlns="http://www.w3.org/2000/svg" xmlns:xlink="http://www.w3.org/1999/xlink" width="576" height="384" viewBox="0 0 2304 1536">
<defs>
  <clipPath id="clip960">
    <rect x="0" y="0" width="2304" height="1536"/>
  </clipPath>
</defs>
<path clip-path="url(#clip960)" d="M0 1536 L2304 1536 L2304 0 L0 0  Z" fill="#ffffff" fill-rule="evenodd" fill-opacity="1"/>
<defs>
  <clipPath id="clip961">
    <rect x="460" y="0" width="1614" height="1536"/>
  </clipPath>
</defs>
<path clip-path="url(#clip960)" d="M261.591 1359.82 L2256.76 1359.82 L2256.76 47.2441 L261.591 47.2441  Z" fill="#ffffff" fill-rule="evenodd" fill-opacity="1"/>
<defs>
  <clipPath id="clip962">
    <rect x="261" y="47" width="1996" height="1314"/>
  </clipPath>
</defs>
<polyline clip-path="url(#clip962)" style="stroke:#000000; stroke-linecap:round; stroke-linejoin:round; stroke-width:2; stroke-opacity:0.1; fill:none" points="318.058,1359.82 318.058,47.2441 "/>
<polyline clip-path="url(#clip962)" style="stroke:#000000; stroke-linecap:round; stroke-linejoin:round; stroke-width:2; stroke-opacity:0.1; fill:none" points="788.616,1359.82 788.616,47.2441 "/>
<polyline clip-path="url(#clip962)" style="stroke:#000000; stroke-linecap:round; stroke-linejoin:round; stroke-width:2; stroke-opacity:0.1; fill:none" points="1259.17,1359.82 1259.17,47.2441 "/>
<polyline clip-path="url(#clip962)" style="stroke:#000000; stroke-linecap:round; stroke-linejoin:round; stroke-width:2; stroke-opacity:0.1; fill:none" points="1729.73,1359.82 1729.73,47.2441 "/>
<polyline clip-path="url(#clip962)" style="stroke:#000000; stroke-linecap:round; stroke-linejoin:round; stroke-width:2; stroke-opacity:0.1; fill:none" points="2200.29,1359.82 2200.29,47.2441 "/>
<polyline clip-path="url(#clip960)" style="stroke:#000000; stroke-linecap:round; stroke-linejoin:round; stroke-width:4; stroke-opacity:1; fill:none" points="261.591,1359.82 2256.76,1359.82 "/>
<polyline clip-path="url(#clip960)" style="stroke:#000000; stroke-linecap:round; stroke-linejoin:round; stroke-width:4; stroke-opacity:1; fill:none" points="318.058,1359.82 318.058,1340.92 "/>
<polyline clip-path="url(#clip960)" style="stroke:#000000; stroke-linecap:round; stroke-linejoin:round; stroke-width:4; stroke-opacity:1; fill:none" points="788.616,1359.82 788.616,1340.92 "/>
<polyline clip-path="url(#clip960)" style="stroke:#000000; stroke-linecap:round; stroke-linejoin:round; stroke-width:4; stroke-opacity:1; fill:none" points="1259.17,1359.82 1259.17,1340.92 "/>
<polyline clip-path="url(#clip960)" style="stroke:#000000; stroke-linecap:round; stroke-linejoin:round; stroke-width:4; stroke-opacity:1; fill:none" points="1729.73,1359.82 1729.73,1340.92 "/>
<polyline clip-path="url(#clip960)" style="stroke:#000000; stroke-linecap:round; stroke-linejoin:round; stroke-width:4; stroke-opacity:1; fill:none" points="2200.29,1359.82 2200.29,1340.92 "/>
<path clip-path="url(#clip960)" d="M318.058 1389.97 Q314.447 1389.97 312.618 1393.54 Q310.813 1397.08 310.813 1404.21 Q310.813 1411.31 312.618 1414.88 Q314.447 1418.42 318.058 1418.42 Q321.692 1418.42 323.498 1414.88 Q325.327 1411.31 325.327 1404.21 Q325.327 1397.08 323.498 1393.54 Q321.692 1389.97 318.058 1389.97 M318.058 1386.27 Q323.868 1386.27 326.924 1390.87 Q330.003 1395.46 330.003 1404.21 Q330.003 1412.93 326.924 1417.54 Q323.868 1422.12 318.058 1422.12 Q312.248 1422.12 309.169 1417.54 Q306.114 1412.93 306.114 1404.21 Q306.114 1395.46 309.169 1390.87 Q312.248 1386.27 318.058 1386.27 Z" fill="#000000" fill-rule="evenodd" fill-opacity="1" /><path clip-path="url(#clip960)" d="M763.303 1417.52 L770.942 1417.52 L770.942 1391.15 L762.632 1392.82 L762.632 1388.56 L770.896 1386.89 L775.572 1386.89 L775.572 1417.52 L783.211 1417.52 L783.211 1421.45 L763.303 1421.45 L763.303 1417.52 Z" fill="#000000" fill-rule="evenodd" fill-opacity="1" /><path clip-path="url(#clip960)" d="M802.655 1389.97 Q799.044 1389.97 797.215 1393.54 Q795.41 1397.08 795.41 1404.21 Q795.41 1411.31 797.215 1414.88 Q799.044 1418.42 802.655 1418.42 Q806.289 1418.42 808.095 1414.88 Q809.924 1411.31 809.924 1404.21 Q809.924 1397.08 808.095 1393.54 Q806.289 1389.97 802.655 1389.97 M802.655 1386.27 Q808.465 1386.27 811.521 1390.87 Q814.6 1395.46 814.6 1404.21 Q814.6 1412.93 811.521 1417.54 Q808.465 1422.12 802.655 1422.12 Q796.845 1422.12 793.766 1417.54 Q790.711 1412.93 790.711 1404.21 Q790.711 1395.46 793.766 1390.87 Q796.845 1386.27 802.655 1386.27 Z" fill="#000000" fill-rule="evenodd" fill-opacity="1" /><path clip-path="url(#clip960)" d="M1237.95 1417.52 L1254.27 1417.52 L1254.27 1421.45 L1232.32 1421.45 L1232.32 1417.52 Q1234.98 1414.76 1239.57 1410.13 Q1244.17 1405.48 1245.35 1404.14 Q1247.6 1401.61 1248.48 1399.88 Q1249.38 1398.12 1249.38 1396.43 Q1249.38 1393.67 1247.44 1391.94 Q1245.52 1390.2 1242.41 1390.2 Q1240.22 1390.2 1237.76 1390.97 Q1235.33 1391.73 1232.55 1393.28 L1232.55 1388.56 Q1235.38 1387.42 1237.83 1386.85 Q1240.28 1386.27 1242.32 1386.27 Q1247.69 1386.27 1250.89 1388.95 Q1254.08 1391.64 1254.08 1396.13 Q1254.08 1398.26 1253.27 1400.18 Q1252.48 1402.08 1250.38 1404.67 Q1249.8 1405.34 1246.7 1408.56 Q1243.59 1411.75 1237.95 1417.52 Z" fill="#000000" fill-rule="evenodd" fill-opacity="1" /><path clip-path="url(#clip960)" d="M1274.08 1389.97 Q1270.47 1389.97 1268.64 1393.54 Q1266.84 1397.08 1266.84 1404.21 Q1266.84 1411.31 1268.64 1414.88 Q1270.47 1418.42 1274.08 1418.42 Q1277.72 1418.42 1279.52 1414.88 Q1281.35 1411.31 1281.35 1404.21 Q1281.35 1397.08 1279.52 1393.54 Q1277.72 1389.97 1274.08 1389.97 M1274.08 1386.27 Q1279.89 1386.27 1282.95 1390.87 Q1286.03 1395.46 1286.03 1404.21 Q1286.03 1412.93 1282.95 1417.54 Q1279.89 1422.12 1274.08 1422.12 Q1268.27 1422.12 1265.19 1417.54 Q1262.14 1412.93 1262.14 1404.21 Q1262.14 1395.46 1265.19 1390.87 Q1268.27 1386.27 1274.08 1386.27 Z" fill="#000000" fill-rule="evenodd" fill-opacity="1" /><path clip-path="url(#clip960)" d="M1718.57 1402.82 Q1721.93 1403.54 1723.81 1405.8 Q1725.7 1408.07 1725.7 1411.41 Q1725.7 1416.52 1722.19 1419.32 Q1718.67 1422.12 1712.19 1422.12 Q1710.01 1422.12 1707.69 1421.68 Q1705.4 1421.27 1702.95 1420.41 L1702.95 1415.9 Q1704.89 1417.03 1707.21 1417.61 Q1709.52 1418.19 1712.05 1418.19 Q1716.44 1418.19 1718.74 1416.45 Q1721.05 1414.72 1721.05 1411.41 Q1721.05 1408.35 1718.9 1406.64 Q1716.77 1404.9 1712.95 1404.9 L1708.92 1404.9 L1708.92 1401.06 L1713.13 1401.06 Q1716.58 1401.06 1718.41 1399.69 Q1720.24 1398.3 1720.24 1395.71 Q1720.24 1393.05 1718.34 1391.64 Q1716.47 1390.2 1712.95 1390.2 Q1711.03 1390.2 1708.83 1390.62 Q1706.63 1391.04 1703.99 1391.91 L1703.99 1387.75 Q1706.65 1387.01 1708.97 1386.64 Q1711.31 1386.27 1713.37 1386.27 Q1718.69 1386.27 1721.79 1388.7 Q1724.89 1391.1 1724.89 1395.23 Q1724.89 1398.1 1723.25 1400.09 Q1721.61 1402.05 1718.57 1402.82 Z" fill="#000000" fill-rule="evenodd" fill-opacity="1" /><path clip-path="url(#clip960)" d="M1744.57 1389.97 Q1740.96 1389.97 1739.13 1393.54 Q1737.32 1397.08 1737.32 1404.21 Q1737.32 1411.31 1739.13 1414.88 Q1740.96 1418.42 1744.57 1418.42 Q1748.2 1418.42 1750.01 1414.88 Q1751.84 1411.31 1751.84 1404.21 Q1751.84 1397.08 1750.01 1393.54 Q1748.2 1389.97 1744.57 1389.97 M1744.57 1386.27 Q1750.38 1386.27 1753.43 1390.87 Q1756.51 1395.46 1756.51 1404.21 Q1756.51 1412.93 1753.43 1417.54 Q1750.38 1422.12 1744.57 1422.12 Q1738.76 1422.12 1735.68 1417.54 Q1732.62 1412.93 1732.62 1404.21 Q1732.62 1395.46 1735.68 1390.87 Q1738.76 1386.27 1744.57 1386.27 Z" fill="#000000" fill-rule="evenodd" fill-opacity="1" /><path clip-path="url(#clip960)" d="M2188.46 1390.97 L2176.65 1409.41 L2188.46 1409.41 L2188.46 1390.97 M2187.23 1386.89 L2193.11 1386.89 L2193.11 1409.41 L2198.04 1409.41 L2198.04 1413.3 L2193.11 1413.3 L2193.11 1421.45 L2188.46 1421.45 L2188.46 1413.3 L2172.86 1413.3 L2172.86 1408.79 L2187.23 1386.89 Z" fill="#000000" fill-rule="evenodd" fill-opacity="1" /><path clip-path="url(#clip960)" d="M2215.78 1389.97 Q2212.16 1389.97 2210.34 1393.54 Q2208.53 1397.08 2208.53 1404.21 Q2208.53 1411.31 2210.34 1414.88 Q2212.16 1418.42 2215.78 1418.42 Q2219.41 1418.42 2221.21 1414.88 Q2223.04 1411.31 2223.04 1404.21 Q2223.04 1397.08 2221.21 1393.54 Q2219.41 1389.97 2215.78 1389.97 M2215.78 1386.27 Q2221.59 1386.27 2224.64 1390.87 Q2227.72 1395.46 2227.72 1404.21 Q2227.72 1412.93 2224.64 1417.54 Q2221.59 1422.12 2215.78 1422.12 Q2209.96 1422.12 2206.89 1417.54 Q2203.83 1412.93 2203.83 1404.21 Q2203.83 1395.46 2206.89 1390.87 Q2209.96 1386.27 2215.78 1386.27 Z" fill="#000000" fill-rule="evenodd" fill-opacity="1" /><path clip-path="url(#clip960)" d="M1181.05 1455.72 L1221.25 1455.72 L1221.25 1461.13 L1204.38 1461.13 L1204.38 1503.24 L1197.92 1503.24 L1197.92 1461.13 L1181.05 1461.13 L1181.05 1455.72 Z" fill="#000000" fill-rule="evenodd" fill-opacity="1" /><path clip-path="url(#clip960)" d="M1225.2 1467.6 L1231.05 1467.6 L1231.05 1503.24 L1225.2 1503.24 L1225.2 1467.6 M1225.2 1453.72 L1231.05 1453.72 L1231.05 1461.13 L1225.2 1461.13 L1225.2 1453.72 Z" fill="#000000" fill-rule="evenodd" fill-opacity="1" /><path clip-path="url(#clip960)" d="M1271.06 1474.44 Q1273.26 1470.49 1276.31 1468.61 Q1279.37 1466.74 1283.51 1466.74 Q1289.08 1466.74 1292.1 1470.65 Q1295.12 1474.53 1295.12 1481.73 L1295.12 1503.24 L1289.24 1503.24 L1289.24 1481.92 Q1289.24 1476.79 1287.42 1474.31 Q1285.61 1471.83 1281.88 1471.83 Q1277.33 1471.83 1274.69 1474.85 Q1272.05 1477.88 1272.05 1483.1 L1272.05 1503.24 L1266.16 1503.24 L1266.16 1481.92 Q1266.16 1476.76 1264.35 1474.31 Q1262.53 1471.83 1258.74 1471.83 Q1254.26 1471.83 1251.61 1474.88 Q1248.97 1477.91 1248.97 1483.1 L1248.97 1503.24 L1243.08 1503.24 L1243.08 1467.6 L1248.97 1467.6 L1248.97 1473.13 Q1250.98 1469.86 1253.78 1468.3 Q1256.58 1466.74 1260.43 1466.74 Q1264.31 1466.74 1267.02 1468.71 Q1269.76 1470.68 1271.06 1474.44 Z" fill="#000000" fill-rule="evenodd" fill-opacity="1" /><path clip-path="url(#clip960)" d="M1337.3 1483.96 L1337.3 1486.82 L1310.37 1486.82 Q1310.75 1492.87 1314 1496.05 Q1317.28 1499.2 1323.1 1499.2 Q1326.47 1499.2 1329.63 1498.37 Q1332.81 1497.55 1335.93 1495.89 L1335.93 1501.43 Q1332.78 1502.77 1329.47 1503.47 Q1326.16 1504.17 1322.75 1504.17 Q1314.22 1504.17 1309.22 1499.2 Q1304.26 1494.24 1304.26 1485.77 Q1304.26 1477.02 1308.97 1471.89 Q1313.71 1466.74 1321.73 1466.74 Q1328.93 1466.74 1333.1 1471.38 Q1337.3 1476 1337.3 1483.96 M1331.44 1482.24 Q1331.38 1477.43 1328.73 1474.57 Q1326.12 1471.7 1321.8 1471.7 Q1316.89 1471.7 1313.93 1474.47 Q1311.01 1477.24 1310.56 1482.27 L1331.44 1482.24 Z" fill="#000000" fill-rule="evenodd" fill-opacity="1" /><polyline clip-path="url(#clip962)" style="stroke:#000000; stroke-linecap:round; stroke-linejoin:round; stroke-width:2; stroke-opacity:0.1; fill:none" points="261.591,1322.67 2256.76,1322.67 "/>
<polyline clip-path="url(#clip962)" style="stroke:#000000; stroke-linecap:round; stroke-linejoin:round; stroke-width:2; stroke-opacity:0.1; fill:none" points="261.591,1009.97 2256.76,1009.97 "/>
<polyline clip-path="url(#clip962)" style="stroke:#000000; stroke-linecap:round; stroke-linejoin:round; stroke-width:2; stroke-opacity:0.1; fill:none" points="261.591,697.278 2256.76,697.278 "/>
<polyline clip-path="url(#clip962)" style="stroke:#000000; stroke-linecap:round; stroke-linejoin:round; stroke-width:2; stroke-opacity:0.1; fill:none" points="261.591,384.581 2256.76,384.581 "/>
<polyline clip-path="url(#clip962)" style="stroke:#000000; stroke-linecap:round; stroke-linejoin:round; stroke-width:2; stroke-opacity:0.1; fill:none" points="261.591,71.8846 2256.76,71.8846 "/>
<polyline clip-path="url(#clip960)" style="stroke:#000000; stroke-linecap:round; stroke-linejoin:round; stroke-width:4; stroke-opacity:1; fill:none" points="261.591,1359.82 261.591,47.2441 "/>
<polyline clip-path="url(#clip960)" style="stroke:#000000; stroke-linecap:round; stroke-linejoin:round; stroke-width:4; stroke-opacity:1; fill:none" points="261.591,1322.67 280.489,1322.67 "/>
<polyline clip-path="url(#clip960)" style="stroke:#000000; stroke-linecap:round; stroke-linejoin:round; stroke-width:4; stroke-opacity:1; fill:none" points="261.591,1009.97 280.489,1009.97 "/>
<polyline clip-path="url(#clip960)" style="stroke:#000000; stroke-linecap:round; stroke-linejoin:round; stroke-width:4; stroke-opacity:1; fill:none" points="261.591,697.278 280.489,697.278 "/>
<polyline clip-path="url(#clip960)" style="stroke:#000000; stroke-linecap:round; stroke-linejoin:round; stroke-width:4; stroke-opacity:1; fill:none" points="261.591,384.581 280.489,384.581 "/>
<polyline clip-path="url(#clip960)" style="stroke:#000000; stroke-linecap:round; stroke-linejoin:round; stroke-width:4; stroke-opacity:1; fill:none" points="261.591,71.8846 280.489,71.8846 "/>
<path clip-path="url(#clip960)" d="M215.087 1308.47 Q211.476 1308.47 209.647 1312.03 Q207.842 1315.58 207.842 1322.71 Q207.842 1329.81 209.647 1333.38 Q211.476 1336.92 215.087 1336.92 Q218.721 1336.92 220.527 1333.38 Q222.355 1329.81 222.355 1322.71 Q222.355 1315.58 220.527 1312.03 Q218.721 1308.47 215.087 1308.47 M215.087 1304.77 Q220.897 1304.77 223.953 1309.37 Q227.031 1313.96 227.031 1322.71 Q227.031 1331.43 223.953 1336.04 Q220.897 1340.62 215.087 1340.62 Q209.277 1340.62 206.198 1336.04 Q203.142 1331.43 203.142 1322.71 Q203.142 1313.96 206.198 1309.37 Q209.277 1304.77 215.087 1304.77 Z" fill="#000000" fill-rule="evenodd" fill-opacity="1" /><path clip-path="url(#clip960)" d="M148.791 1023.32 L165.11 1023.32 L165.11 1027.25 L143.166 1027.25 L143.166 1023.32 Q145.828 1020.56 150.411 1015.94 Q155.018 1011.28 156.198 1009.94 Q158.444 1007.42 159.323 1005.68 Q160.226 1003.92 160.226 1002.23 Q160.226 999.477 158.282 997.741 Q156.36 996.005 153.258 996.005 Q151.059 996.005 148.606 996.769 Q146.175 997.533 143.397 999.084 L143.397 994.361 Q146.221 993.227 148.675 992.648 Q151.129 992.07 153.166 992.07 Q158.536 992.07 161.731 994.755 Q164.925 997.44 164.925 1001.93 Q164.925 1004.06 164.115 1005.98 Q163.328 1007.88 161.221 1010.47 Q160.643 1011.14 157.541 1014.36 Q154.439 1017.56 148.791 1023.32 Z" fill="#000000" fill-rule="evenodd" fill-opacity="1" /><path clip-path="url(#clip960)" d="M174.971 992.695 L193.328 992.695 L193.328 996.63 L179.254 996.63 L179.254 1005.1 Q180.272 1004.75 181.291 1004.59 Q182.309 1004.41 183.328 1004.41 Q189.115 1004.41 192.494 1007.58 Q195.874 1010.75 195.874 1016.17 Q195.874 1021.75 192.402 1024.85 Q188.93 1027.93 182.61 1027.93 Q180.434 1027.93 178.166 1027.56 Q175.92 1027.19 173.513 1026.44 L173.513 1021.75 Q175.596 1022.88 177.819 1023.44 Q180.041 1023.99 182.518 1023.99 Q186.522 1023.99 188.86 1021.88 Q191.198 1019.78 191.198 1016.17 Q191.198 1012.56 188.86 1010.45 Q186.522 1008.34 182.518 1008.34 Q180.643 1008.34 178.768 1008.76 Q176.916 1009.18 174.971 1010.06 L174.971 992.695 Z" fill="#000000" fill-rule="evenodd" fill-opacity="1" /><path clip-path="url(#clip960)" d="M215.087 995.773 Q211.476 995.773 209.647 999.338 Q207.842 1002.88 207.842 1010.01 Q207.842 1017.12 209.647 1020.68 Q211.476 1024.22 215.087 1024.22 Q218.721 1024.22 220.527 1020.68 Q222.355 1017.12 222.355 1010.01 Q222.355 1002.88 220.527 999.338 Q218.721 995.773 215.087 995.773 M215.087 992.07 Q220.897 992.07 223.953 996.676 Q227.031 1001.26 227.031 1010.01 Q227.031 1018.74 223.953 1023.34 Q220.897 1027.93 215.087 1027.93 Q209.277 1027.93 206.198 1023.34 Q203.142 1018.74 203.142 1010.01 Q203.142 1001.26 206.198 996.676 Q209.277 992.07 215.087 992.07 Z" fill="#000000" fill-rule="evenodd" fill-opacity="1" /><path clip-path="url(#clip960)" d="M144.809 679.998 L163.166 679.998 L163.166 683.933 L149.092 683.933 L149.092 692.405 Q150.11 692.058 151.129 691.896 Q152.147 691.711 153.166 691.711 Q158.953 691.711 162.332 694.882 Q165.712 698.053 165.712 703.47 Q165.712 709.049 162.24 712.151 Q158.768 715.229 152.448 715.229 Q150.272 715.229 148.004 714.859 Q145.759 714.489 143.351 713.748 L143.351 709.049 Q145.434 710.183 147.657 710.739 Q149.879 711.294 152.356 711.294 Q156.36 711.294 158.698 709.188 Q161.036 707.081 161.036 703.47 Q161.036 699.859 158.698 697.753 Q156.36 695.646 152.356 695.646 Q150.481 695.646 148.606 696.063 Q146.754 696.479 144.809 697.359 L144.809 679.998 Z" fill="#000000" fill-rule="evenodd" fill-opacity="1" /><path clip-path="url(#clip960)" d="M184.925 683.077 Q181.314 683.077 179.485 686.642 Q177.68 690.183 177.68 697.313 Q177.68 704.419 179.485 707.984 Q181.314 711.526 184.925 711.526 Q188.559 711.526 190.365 707.984 Q192.193 704.419 192.193 697.313 Q192.193 690.183 190.365 686.642 Q188.559 683.077 184.925 683.077 M184.925 679.373 Q190.735 679.373 193.791 683.979 Q196.869 688.563 196.869 697.313 Q196.869 706.04 193.791 710.646 Q190.735 715.229 184.925 715.229 Q179.115 715.229 176.036 710.646 Q172.981 706.04 172.981 697.313 Q172.981 688.563 176.036 683.979 Q179.115 679.373 184.925 679.373 Z" fill="#000000" fill-rule="evenodd" fill-opacity="1" /><path clip-path="url(#clip960)" d="M215.087 683.077 Q211.476 683.077 209.647 686.642 Q207.842 690.183 207.842 697.313 Q207.842 704.419 209.647 707.984 Q211.476 711.526 215.087 711.526 Q218.721 711.526 220.527 707.984 Q222.355 704.419 222.355 697.313 Q222.355 690.183 220.527 686.642 Q218.721 683.077 215.087 683.077 M215.087 679.373 Q220.897 679.373 223.953 683.979 Q227.031 688.563 227.031 697.313 Q227.031 706.04 223.953 710.646 Q220.897 715.229 215.087 715.229 Q209.277 715.229 206.198 710.646 Q203.142 706.04 203.142 697.313 Q203.142 688.563 206.198 683.979 Q209.277 679.373 215.087 679.373 Z" fill="#000000" fill-rule="evenodd" fill-opacity="1" /><path clip-path="url(#clip960)" d="M143.583 367.301 L165.805 367.301 L165.805 369.292 L153.258 401.861 L148.374 401.861 L160.18 371.236 L143.583 371.236 L143.583 367.301 Z" fill="#000000" fill-rule="evenodd" fill-opacity="1" /><path clip-path="url(#clip960)" d="M174.971 367.301 L193.328 367.301 L193.328 371.236 L179.254 371.236 L179.254 379.709 Q180.272 379.361 181.291 379.199 Q182.309 379.014 183.328 379.014 Q189.115 379.014 192.494 382.185 Q195.874 385.357 195.874 390.773 Q195.874 396.352 192.402 399.454 Q188.93 402.533 182.61 402.533 Q180.434 402.533 178.166 402.162 Q175.92 401.792 173.513 401.051 L173.513 396.352 Q175.596 397.486 177.819 398.042 Q180.041 398.597 182.518 398.597 Q186.522 398.597 188.86 396.491 Q191.198 394.385 191.198 390.773 Q191.198 387.162 188.86 385.056 Q186.522 382.949 182.518 382.949 Q180.643 382.949 178.768 383.366 Q176.916 383.783 174.971 384.662 L174.971 367.301 Z" fill="#000000" fill-rule="evenodd" fill-opacity="1" /><path clip-path="url(#clip960)" d="M215.087 370.38 Q211.476 370.38 209.647 373.945 Q207.842 377.486 207.842 384.616 Q207.842 391.722 209.647 395.287 Q211.476 398.829 215.087 398.829 Q218.721 398.829 220.527 395.287 Q222.355 391.722 222.355 384.616 Q222.355 377.486 220.527 373.945 Q218.721 370.38 215.087 370.38 M215.087 366.676 Q220.897 366.676 223.953 371.283 Q227.031 375.866 227.031 384.616 Q227.031 393.343 223.953 397.949 Q220.897 402.533 215.087 402.533 Q209.277 402.533 206.198 397.949 Q203.142 393.343 203.142 384.616 Q203.142 375.866 206.198 371.283 Q209.277 366.676 215.087 366.676 Z" fill="#000000" fill-rule="evenodd" fill-opacity="1" /><path clip-path="url(#clip960)" d="M115.411 85.2294 L123.05 85.2294 L123.05 58.8638 L114.74 60.5305 L114.74 56.2713 L123.004 54.6046 L127.68 54.6046 L127.68 85.2294 L135.319 85.2294 L135.319 89.1646 L115.411 89.1646 L115.411 85.2294 Z" fill="#000000" fill-rule="evenodd" fill-opacity="1" /><path clip-path="url(#clip960)" d="M154.763 57.6833 Q151.152 57.6833 149.323 61.2481 Q147.518 64.7897 147.518 71.9193 Q147.518 79.0258 149.323 82.5906 Q151.152 86.1322 154.763 86.1322 Q158.397 86.1322 160.203 82.5906 Q162.032 79.0258 162.032 71.9193 Q162.032 64.7897 160.203 61.2481 Q158.397 57.6833 154.763 57.6833 M154.763 53.9796 Q160.573 53.9796 163.629 58.5861 Q166.707 63.1694 166.707 71.9193 Q166.707 80.6461 163.629 85.2526 Q160.573 89.8359 154.763 89.8359 Q148.953 89.8359 145.874 85.2526 Q142.819 80.6461 142.819 71.9193 Q142.819 63.1694 145.874 58.5861 Q148.953 53.9796 154.763 53.9796 Z" fill="#000000" fill-rule="evenodd" fill-opacity="1" /><path clip-path="url(#clip960)" d="M184.925 57.6833 Q181.314 57.6833 179.485 61.2481 Q177.68 64.7897 177.68 71.9193 Q177.68 79.0258 179.485 82.5906 Q181.314 86.1322 184.925 86.1322 Q188.559 86.1322 190.365 82.5906 Q192.193 79.0258 192.193 71.9193 Q192.193 64.7897 190.365 61.2481 Q188.559 57.6833 184.925 57.6833 M184.925 53.9796 Q190.735 53.9796 193.791 58.5861 Q196.869 63.1694 196.869 71.9193 Q196.869 80.6461 193.791 85.2526 Q190.735 89.8359 184.925 89.8359 Q179.115 89.8359 176.036 85.2526 Q172.981 80.6461 172.981 71.9193 Q172.981 63.1694 176.036 58.5861 Q179.115 53.9796 184.925 53.9796 Z" fill="#000000" fill-rule="evenodd" fill-opacity="1" /><path clip-path="url(#clip960)" d="M215.087 57.6833 Q211.476 57.6833 209.647 61.2481 Q207.842 64.7897 207.842 71.9193 Q207.842 79.0258 209.647 82.5906 Q211.476 86.1322 215.087 86.1322 Q218.721 86.1322 220.527 82.5906 Q222.355 79.0258 222.355 71.9193 Q222.355 64.7897 220.527 61.2481 Q218.721 57.6833 215.087 57.6833 M215.087 53.9796 Q220.897 53.9796 223.953 58.5861 Q227.031 63.1694 227.031 71.9193 Q227.031 80.6461 223.953 85.2526 Q220.897 89.8359 215.087 89.8359 Q209.277 89.8359 206.198 85.2526 Q203.142 80.6461 203.142 71.9193 Q203.142 63.1694 206.198 58.5861 Q209.277 53.9796 215.087 53.9796 Z" fill="#000000" fill-rule="evenodd" fill-opacity="1" /><path clip-path="url(#clip960)" d="M18.4042 831.26 L18.4042 822.603 L58.158 801.532 L18.4042 801.532 L18.4042 795.294 L65.9242 795.294 L65.9242 803.951 L26.1703 825.021 L65.9242 825.021 L65.9242 831.26 L18.4042 831.26 Z" fill="#000000" fill-rule="evenodd" fill-opacity="1" /><path clip-path="url(#clip960)" d="M51.8559 783.358 L30.2762 783.358 L30.2762 777.501 L51.6331 777.501 Q56.6939 777.501 59.2402 775.528 Q61.7546 773.555 61.7546 769.608 Q61.7546 764.866 58.7309 762.128 Q55.7072 759.359 50.4873 759.359 L30.2762 759.359 L30.2762 753.503 L65.9242 753.503 L65.9242 759.359 L60.4496 759.359 Q63.6962 761.492 65.2876 764.324 Q66.8472 767.125 66.8472 770.849 Q66.8472 776.992 63.0278 780.175 Q59.2083 783.358 51.8559 783.358 M29.4168 768.621 L29.4168 768.621 Z" fill="#000000" fill-rule="evenodd" fill-opacity="1" /><path clip-path="url(#clip960)" d="M37.1193 713.685 Q33.1726 711.489 31.2947 708.434 Q29.4168 705.378 29.4168 701.24 Q29.4168 695.67 33.3317 692.647 Q37.2148 689.623 44.4081 689.623 L65.9242 689.623 L65.9242 695.511 L44.599 695.511 Q39.4746 695.511 36.992 697.325 Q34.5094 699.14 34.5094 702.864 Q34.5094 707.415 37.5331 710.057 Q40.5568 712.699 45.7767 712.699 L65.9242 712.699 L65.9242 718.587 L44.599 718.587 Q39.4428 718.587 36.992 720.401 Q34.5094 722.215 34.5094 726.003 Q34.5094 730.491 37.5649 733.133 Q40.5886 735.774 45.7767 735.774 L65.9242 735.774 L65.9242 741.663 L30.2762 741.663 L30.2762 735.774 L35.8144 735.774 Q32.536 733.769 30.9764 730.968 Q29.4168 728.167 29.4168 724.316 Q29.4168 720.433 31.3902 717.727 Q33.3636 714.99 37.1193 713.685 Z" fill="#000000" fill-rule="evenodd" fill-opacity="1" /><path clip-path="url(#clip960)" d="M48.132 652.352 Q41.6708 652.352 38.0105 655.025 Q34.3184 657.667 34.3184 662.314 Q34.3184 666.961 38.0105 669.635 Q41.6708 672.276 48.132 672.276 Q54.5932 672.276 58.2853 669.635 Q61.9456 666.961 61.9456 662.314 Q61.9456 657.667 58.2853 655.025 Q54.5932 652.352 48.132 652.352 M35.6871 672.276 Q32.5042 670.43 30.9764 667.629 Q29.4168 664.797 29.4168 660.882 Q29.4168 654.389 34.5731 650.346 Q39.7293 646.272 48.132 646.272 Q56.5347 646.272 61.691 650.346 Q66.8472 654.389 66.8472 660.882 Q66.8472 664.797 65.3194 667.629 Q63.7598 670.43 60.577 672.276 L65.9242 672.276 L65.9242 678.165 L16.399 678.165 L16.399 672.276 L35.6871 672.276 Z" fill="#000000" fill-rule="evenodd" fill-opacity="1" /><path clip-path="url(#clip960)" d="M46.6361 606.073 L49.5006 606.073 L49.5006 633 Q55.5481 632.618 58.7309 629.371 Q61.8819 626.093 61.8819 620.269 Q61.8819 616.895 61.0544 613.744 Q60.2269 610.561 58.5718 607.442 L64.1099 607.442 Q65.4467 610.593 66.147 613.903 Q66.8472 617.213 66.8472 620.619 Q66.8472 629.149 61.8819 634.146 Q56.9167 639.111 48.4503 639.111 Q39.6974 639.111 34.5731 634.4 Q29.4168 629.658 29.4168 621.637 Q29.4168 614.444 34.0638 610.274 Q38.6789 606.073 46.6361 606.073 M44.9173 611.929 Q40.1112 611.993 37.2466 614.635 Q34.3821 617.245 34.3821 621.573 Q34.3821 626.475 37.1512 629.435 Q39.9202 632.363 44.9492 632.809 L44.9173 611.929 Z" fill="#000000" fill-rule="evenodd" fill-opacity="1" /><path clip-path="url(#clip960)" d="M35.7507 575.804 Q35.1778 576.791 34.9232 577.968 Q34.6367 579.114 34.6367 580.515 Q34.6367 585.48 37.8832 588.154 Q41.0979 590.795 47.1453 590.795 L65.9242 590.795 L65.9242 596.684 L30.2762 596.684 L30.2762 590.795 L35.8144 590.795 Q32.5679 588.949 31.0083 585.989 Q29.4168 583.029 29.4168 578.796 Q29.4168 578.191 29.5123 577.459 Q29.576 576.727 29.7351 575.836 L35.7507 575.804 Z" fill="#000000" fill-rule="evenodd" fill-opacity="1" /><polyline clip-path="url(#clip962)" style="stroke:#009af9; stroke-linecap:round; stroke-linejoin:round; stroke-width:4; stroke-opacity:1; fill:none" points="318.058,84.3925 322.764,84.3925 327.469,84.3925 332.175,84.3925 336.88,84.3925 341.586,84.3925 346.292,84.3925 350.997,84.3925 355.703,84.3925 360.408,84.3925 365.114,84.3925 369.819,84.3925 374.525,84.3925 379.231,84.3925 383.936,84.3925 388.642,84.3925 393.347,84.3925 398.053,84.3925 402.759,84.3925 407.464,84.3925 412.17,84.3925 416.875,84.3925 421.581,84.3925 426.286,84.3925 430.992,84.3925 435.698,84.3925 440.403,84.3925 445.109,84.3925 449.814,84.3925 454.52,84.3925 459.225,84.3925 463.931,84.3925 468.637,84.3925 473.342,84.3925 478.048,84.3925 482.753,84.3925 487.459,84.3925 492.164,84.3925 496.87,84.3925 501.576,84.3925 506.281,84.3925 510.987,84.3925 515.692,84.3925 520.398,84.3925 525.104,84.3925 529.809,84.3925 534.515,84.3925 539.22,84.3925 543.926,84.3925 548.631,84.3925 553.337,84.3925 558.043,84.3925 562.748,84.3925 567.454,84.3925 572.159,84.3925 576.865,84.3925 581.57,84.3925 586.276,84.3925 590.982,84.3925 595.687,84.3925 600.393,84.3925 605.098,84.3925 609.804,84.3925 614.51,84.3925 619.215,84.3925 623.921,84.3925 628.626,84.3925 633.332,84.3925 638.037,84.3925 642.743,84.3925 647.449,84.3925 652.154,84.3925 656.86,84.3925 661.565,84.3925 666.271,84.3925 670.976,84.3925 675.682,84.3925 680.388,84.3925 685.093,84.3925 689.799,84.3925 694.504,84.3925 699.21,84.3925 703.915,84.3925 708.621,84.3925 713.327,84.3925 718.032,84.3925 722.738,84.3925 727.443,84.3925 732.149,84.3925 736.855,84.3925 741.56,84.3925 746.266,84.3925 750.971,84.3925 755.677,84.3925 760.382,84.3925 765.088,84.3925 769.794,84.3925 774.499,84.3925 779.205,84.3925 783.91,84.3925 788.616,84.3925 793.321,84.3925 798.027,84.3925 802.733,84.3925 807.438,84.3925 812.144,84.3925 816.849,84.3925 821.555,84.3925 826.26,84.3925 830.966,84.3925 835.672,84.3925 840.377,84.3925 845.083,84.3925 849.788,84.3925 854.494,84.3925 859.2,84.3925 863.905,84.3925 868.611,84.3925 873.316,84.3925 878.022,84.3925 882.727,84.3925 887.433,84.3925 892.139,84.3925 896.844,84.3925 901.55,84.3925 906.255,84.3925 910.961,84.3925 915.666,84.3925 920.372,84.3925 925.078,84.3925 929.783,84.3925 934.489,84.3925 939.194,84.3925 943.9,84.3925 948.605,84.3925 953.311,84.3925 958.017,84.3925 962.722,84.3925 967.428,84.3925 972.133,84.3925 976.839,84.3925 981.545,84.3925 986.25,84.3925 990.956,84.3925 995.661,84.3925 1000.37,84.3925 1005.07,84.3925 1009.78,84.3925 1014.48,84.3925 1019.19,84.3925 1023.89,84.3925 1028.6,84.3925 1033.31,84.3925 1038.01,84.3925 1042.72,84.3925 1047.42,84.3925 1052.13,84.3925 1056.83,84.3925 1061.54,84.3925 1066.24,84.3925 1070.95,84.3925 1075.66,84.3925 1080.36,84.3925 1085.07,84.3925 1089.77,84.3925 1094.48,84.3925 1099.18,84.3925 1103.89,84.3925 1108.6,84.3925 1113.3,84.3925 1118.01,84.3925 1122.71,84.3925 1127.42,84.3925 1132.12,84.3925 1136.83,84.3925 1141.53,84.3925 1146.24,84.3925 1150.95,84.3925 1155.65,84.3925 1160.36,84.3925 1165.06,84.3925 1169.77,84.3925 1174.47,84.3925 1179.18,84.3925 1183.88,84.3925 1188.59,84.3925 1193.3,84.3925 1198,84.3925 1202.71,84.3925 1207.41,84.3925 1212.12,84.3925 1216.82,84.3925 1221.53,84.3925 1226.23,84.3925 1230.94,84.3925 1235.65,84.3925 1240.35,84.3925 1245.06,84.3925 1249.76,84.3925 1254.47,84.3925 1259.17,84.3925 1263.88,84.3925 1268.58,84.3925 1273.29,84.3925 1278,84.3925 1282.7,84.3925 1287.41,84.3925 1292.11,84.3925 1296.82,84.3925 1301.52,84.3925 1306.23,84.3925 1310.93,84.3925 1315.64,84.3925 1320.35,84.3925 1325.05,84.3925 1329.76,84.3925 1334.46,84.3925 1339.17,84.3925 1343.87,84.3925 1348.58,84.3925 1353.29,84.3925 1357.99,84.3925 1362.7,84.3925 1367.4,84.3925 1372.11,84.3925 1376.81,84.3925 1381.52,84.3925 1386.22,84.3925 1390.93,84.3925 1395.64,84.3925 1400.34,84.3925 1405.05,84.3925 1409.75,84.3925 1414.46,84.3925 1419.16,84.3925 1423.87,84.3925 1428.57,84.3925 1433.28,84.3925 1437.99,84.3925 1442.69,84.3925 1447.4,84.3925 1452.1,84.3925 1456.81,84.3925 1461.51,84.3925 1466.22,84.3925 1470.92,84.3925 1475.63,84.3925 1480.34,84.3925 1485.04,84.3925 1489.75,84.3925 1494.45,84.3925 1499.16,84.3925 1503.86,84.3925 1508.57,84.3925 1513.27,84.3925 1517.98,84.3925 1522.69,84.3925 1527.39,84.3925 1532.1,84.3925 1536.8,84.3925 1541.51,84.3925 1546.21,84.3925 1550.92,84.3925 1555.62,84.3925 1560.33,84.3925 1565.04,84.3925 1569.74,84.3925 1574.45,84.3925 1579.15,84.3925 1583.86,84.3925 1588.56,84.3925 1593.27,84.3925 1597.98,84.3925 1602.68,84.3925 1607.39,84.3925 1612.09,84.3925 1616.8,84.3925 1621.5,84.3925 1626.21,84.3925 1630.91,84.3925 1635.62,84.3925 1640.33,84.3925 1645.03,84.3925 1649.74,84.3925 1654.44,84.3925 1659.15,84.3925 1663.85,84.3925 1668.56,84.3925 1673.26,84.3925 1677.97,84.3925 1682.68,84.3925 1687.38,84.3925 1692.09,84.3925 1696.79,84.3925 1701.5,84.3925 1706.2,84.3925 1710.91,84.3925 1715.61,84.3925 1720.32,84.3925 1725.03,84.3925 1729.73,84.3925 1734.44,84.3925 1739.14,84.3925 1743.85,84.3925 1748.55,84.3925 1753.26,84.3925 1757.96,84.3925 1762.67,84.3925 1767.38,84.3925 1772.08,84.3925 1776.79,84.3925 1781.49,84.3925 1786.2,84.3925 1790.9,84.3925 1795.61,84.3925 1800.31,84.3925 1805.02,84.3925 1809.73,84.3925 1814.43,84.3925 1819.14,84.3925 1823.84,84.3925 1828.55,84.3925 1833.25,84.3925 1837.96,84.3925 1842.67,84.3925 1847.37,84.3925 1852.08,84.3925 1856.78,84.3925 1861.49,84.3925 1866.19,84.3925 1870.9,84.3925 1875.6,84.3925 1880.31,84.3925 1885.02,84.3925 1889.72,84.3925 1894.43,84.3925 1899.13,84.3925 1903.84,84.3925 1908.54,84.3925 1913.25,84.3925 1917.95,84.3925 1922.66,84.3925 1927.37,84.3925 1932.07,84.3925 1936.78,84.3925 1941.48,84.3925 1946.19,84.3925 1950.89,84.3925 1955.6,84.3925 1960.3,84.3925 1965.01,84.3925 1969.72,84.3925 1974.42,84.3925 1979.13,84.3925 1983.83,84.3925 1988.54,84.3925 1993.24,84.3925 1997.95,84.3925 2002.65,84.3925 2007.36,84.3925 2012.07,84.3925 2016.77,84.3925 2021.48,84.3925 2026.18,84.3925 2030.89,84.3925 2035.59,84.3925 2040.3,84.3925 2045,84.3925 2049.71,84.3925 2054.42,84.3925 2059.12,84.3925 2063.83,84.3925 2068.53,84.3925 2073.24,84.3925 2077.94,84.3925 2082.65,84.3925 2087.36,84.3925 2092.06,84.3925 2096.77,84.3925 2101.47,84.3925 2106.18,84.3925 2110.88,84.3925 2115.59,84.3925 2120.29,84.3925 2125,84.3925 2129.71,84.3925 2134.41,84.3925 2139.12,84.3925 2143.82,84.3925 2148.53,84.3925 2153.23,84.3925 2157.94,84.3925 2162.64,84.3925 2167.35,84.3925 2172.06,84.3925 2176.76,84.3925 2181.47,84.3925 2186.17,84.3925 2190.88,84.3925 2195.58,84.3925 2200.29,84.3925 "/>
<polyline clip-path="url(#clip962)" style="stroke:#e26f46; stroke-linecap:round; stroke-linejoin:round; stroke-width:4; stroke-opacity:1; fill:none" points="318.058,1310.16 322.764,1310.16 327.469,1310.16 332.175,1310.16 336.88,1310.16 341.586,1310.16 346.292,1310.16 350.997,1310.16 355.703,1310.16 360.408,1310.16 365.114,1310.16 369.819,1310.16 374.525,1310.16 379.231,1310.16 383.936,1310.16 388.642,1310.16 393.347,1310.16 398.053,1310.16 402.759,1310.16 407.464,1310.16 412.17,1310.16 416.875,1310.16 421.581,1310.16 426.286,1310.16 430.992,1310.16 435.698,1310.16 440.403,1310.16 445.109,1310.16 449.814,1310.16 454.52,1310.16 459.225,1310.16 463.931,1310.16 468.637,1310.16 473.342,1310.16 478.048,1310.16 482.753,1310.16 487.459,1310.16 492.164,1310.16 496.87,1310.16 501.576,1310.16 506.281,1310.16 510.987,1310.16 515.692,1310.16 520.398,1310.16 525.104,1310.16 529.809,1310.16 534.515,1310.16 539.22,1310.16 543.926,1310.16 548.631,1310.16 553.337,1310.16 558.043,1310.16 562.748,1310.16 567.454,1310.16 572.159,1310.16 576.865,1310.16 581.57,1310.16 586.276,1310.16 590.982,1310.16 595.687,1310.16 600.393,1310.16 605.098,1310.16 609.804,1310.16 614.51,1310.16 619.215,1310.16 623.921,1310.16 628.626,1310.16 633.332,1310.16 638.037,1310.16 642.743,1310.16 647.449,1310.16 652.154,1310.16 656.86,1310.16 661.565,1310.16 666.271,1310.16 670.976,1310.16 675.682,1310.16 680.388,1310.16 685.093,1310.16 689.799,1310.16 694.504,1310.16 699.21,1310.16 703.915,1310.16 708.621,1310.16 713.327,1310.16 718.032,1310.16 722.738,1310.16 727.443,1310.16 732.149,1310.16 736.855,1310.16 741.56,1310.16 746.266,1310.16 750.971,1310.16 755.677,1310.16 760.382,1310.16 765.088,1310.16 769.794,1310.16 774.499,1310.16 779.205,1310.16 783.91,1310.16 788.616,1310.16 793.321,1310.16 798.027,1310.16 802.733,1310.16 807.438,1310.16 812.144,1310.16 816.849,1310.16 821.555,1310.16 826.26,1310.16 830.966,1310.16 835.672,1310.16 840.377,1310.16 845.083,1310.16 849.788,1310.16 854.494,1310.16 859.2,1310.16 863.905,1310.16 868.611,1310.16 873.316,1310.16 878.022,1310.16 882.727,1310.16 887.433,1310.16 892.139,1310.16 896.844,1310.16 901.55,1310.16 906.255,1310.16 910.961,1310.16 915.666,1310.16 920.372,1310.16 925.078,1310.16 929.783,1310.16 934.489,1310.16 939.194,1310.16 943.9,1310.16 948.605,1310.16 953.311,1310.16 958.017,1310.16 962.722,1310.16 967.428,1310.16 972.133,1310.16 976.839,1310.16 981.545,1310.16 986.25,1310.16 990.956,1310.16 995.661,1310.16 1000.37,1310.16 1005.07,1310.16 1009.78,1310.16 1014.48,1310.16 1019.19,1310.16 1023.89,1310.16 1028.6,1310.16 1033.31,1310.16 1038.01,1310.16 1042.72,1310.16 1047.42,1310.16 1052.13,1310.16 1056.83,1310.16 1061.54,1310.16 1066.24,1310.16 1070.95,1310.16 1075.66,1310.16 1080.36,1310.16 1085.07,1310.16 1089.77,1310.16 1094.48,1310.16 1099.18,1310.16 1103.89,1310.16 1108.6,1310.16 1113.3,1310.16 1118.01,1310.16 1122.71,1310.16 1127.42,1310.16 1132.12,1310.16 1136.83,1310.16 1141.53,1310.16 1146.24,1310.16 1150.95,1310.16 1155.65,1310.16 1160.36,1310.16 1165.06,1310.16 1169.77,1310.16 1174.47,1310.16 1179.18,1310.16 1183.88,1310.16 1188.59,1310.16 1193.3,1310.16 1198,1310.16 1202.71,1310.16 1207.41,1310.16 1212.12,1310.16 1216.82,1310.16 1221.53,1310.16 1226.23,1310.16 1230.94,1310.16 1235.65,1310.16 1240.35,1310.16 1245.06,1310.16 1249.76,1310.16 1254.47,1310.16 1259.17,1310.16 1263.88,1310.16 1268.58,1310.16 1273.29,1310.16 1278,1310.16 1282.7,1310.16 1287.41,1310.16 1292.11,1310.16 1296.82,1310.16 1301.52,1310.16 1306.23,1310.16 1310.93,1310.16 1315.64,1310.16 1320.35,1310.16 1325.05,1310.16 1329.76,1310.16 1334.46,1310.16 1339.17,1310.16 1343.87,1310.16 1348.58,1310.16 1353.29,1310.16 1357.99,1310.16 1362.7,1310.16 1367.4,1310.16 1372.11,1310.16 1376.81,1310.16 1381.52,1310.16 1386.22,1310.16 1390.93,1310.16 1395.64,1310.16 1400.34,1310.16 1405.05,1310.16 1409.75,1310.16 1414.46,1310.16 1419.16,1310.16 1423.87,1310.16 1428.57,1310.16 1433.28,1310.16 1437.99,1310.16 1442.69,1310.16 1447.4,1310.16 1452.1,1310.16 1456.81,1310.16 1461.51,1310.16 1466.22,1310.16 1470.92,1310.16 1475.63,1310.16 1480.34,1310.16 1485.04,1310.16 1489.75,1310.16 1494.45,1310.16 1499.16,1310.16 1503.86,1310.16 1508.57,1310.16 1513.27,1310.16 1517.98,1310.16 1522.69,1310.16 1527.39,1310.16 1532.1,1310.16 1536.8,1310.16 1541.51,1310.16 1546.21,1310.16 1550.92,1310.16 1555.62,1310.16 1560.33,1310.16 1565.04,1310.16 1569.74,1310.16 1574.45,1310.16 1579.15,1310.16 1583.86,1310.16 1588.56,1310.16 1593.27,1310.16 1597.98,1310.16 1602.68,1310.16 1607.39,1310.16 1612.09,1310.16 1616.8,1310.16 1621.5,1310.16 1626.21,1310.16 1630.91,1310.16 1635.62,1310.16 1640.33,1310.16 1645.03,1310.16 1649.74,1310.16 1654.44,1310.16 1659.15,1310.16 1663.85,1310.16 1668.56,1310.16 1673.26,1310.16 1677.97,1310.16 1682.68,1310.16 1687.38,1310.16 1692.09,1310.16 1696.79,1310.16 1701.5,1310.16 1706.2,1310.16 1710.91,1310.16 1715.61,1310.16 1720.32,1310.16 1725.03,1310.16 1729.73,1310.16 1734.44,1310.16 1739.14,1310.16 1743.85,1310.16 1748.55,1310.16 1753.26,1310.16 1757.96,1310.16 1762.67,1310.16 1767.38,1310.16 1772.08,1310.16 1776.79,1310.16 1781.49,1310.16 1786.2,1310.16 1790.9,1310.16 1795.61,1310.16 1800.31,1310.16 1805.02,1310.16 1809.73,1310.16 1814.43,1310.16 1819.14,1310.16 1823.84,1310.16 1828.55,1310.16 1833.25,1310.16 1837.96,1310.16 1842.67,1310.16 1847.37,1310.16 1852.08,1310.16 1856.78,1310.16 1861.49,1310.16 1866.19,1310.16 1870.9,1310.16 1875.6,1310.16 1880.31,1310.16 1885.02,1310.16 1889.72,1310.16 1894.43,1310.16 1899.13,1310.16 1903.84,1310.16 1908.54,1310.16 1913.25,1310.16 1917.95,1310.16 1922.66,1310.16 1927.37,1310.16 1932.07,1310.16 1936.78,1310.16 1941.48,1310.16 1946.19,1310.16 1950.89,1310.16 1955.6,1310.16 1960.3,1310.16 1965.01,1310.16 1969.72,1310.16 1974.42,1310.16 1979.13,1310.16 1983.83,1310.16 1988.54,1310.16 1993.24,1310.16 1997.95,1310.16 2002.65,1310.16 2007.36,1310.16 2012.07,1310.16 2016.77,1310.16 2021.48,1310.16 2026.18,1310.16 2030.89,1310.16 2035.59,1310.16 2040.3,1310.16 2045,1310.16 2049.71,1310.16 2054.42,1310.16 2059.12,1310.16 2063.83,1310.16 2068.53,1310.16 2073.24,1310.16 2077.94,1310.16 2082.65,1310.16 2087.36,1310.16 2092.06,1310.16 2096.77,1310.16 2101.47,1310.16 2106.18,1310.16 2110.88,1310.16 2115.59,1310.16 2120.29,1310.16 2125,1310.16 2129.71,1310.16 2134.41,1310.16 2139.12,1310.16 2143.82,1310.16 2148.53,1310.16 2153.23,1310.16 2157.94,1310.16 2162.64,1310.16 2167.35,1310.16 2172.06,1310.16 2176.76,1310.16 2181.47,1310.16 2186.17,1310.16 2190.88,1310.16 2195.58,1310.16 2200.29,1310.16 "/>
<polyline clip-path="url(#clip962)" style="stroke:#3da44d; stroke-linecap:round; stroke-linejoin:round; stroke-width:4; stroke-opacity:1; fill:none" points="318.058,1322.67 322.764,1322.67 327.469,1322.67 332.175,1322.67 336.88,1322.67 341.586,1322.67 346.292,1322.67 350.997,1322.67 355.703,1322.67 360.408,1322.67 365.114,1322.67 369.819,1322.67 374.525,1322.67 379.231,1322.67 383.936,1322.67 388.642,1322.67 393.347,1322.67 398.053,1322.67 402.759,1322.67 407.464,1322.67 412.17,1322.67 416.875,1322.67 421.581,1322.67 426.286,1322.67 430.992,1322.67 435.698,1322.67 440.403,1322.67 445.109,1322.67 449.814,1322.67 454.52,1322.67 459.225,1322.67 463.931,1322.67 468.637,1322.67 473.342,1322.67 478.048,1322.67 482.753,1322.67 487.459,1322.67 492.164,1322.67 496.87,1322.67 501.576,1322.67 506.281,1322.67 510.987,1322.67 515.692,1322.67 520.398,1322.67 525.104,1322.67 529.809,1322.67 534.515,1322.67 539.22,1322.67 543.926,1322.67 548.631,1322.67 553.337,1322.67 558.043,1322.67 562.748,1322.67 567.454,1322.67 572.159,1322.67 576.865,1322.67 581.57,1322.67 586.276,1322.67 590.982,1322.67 595.687,1322.67 600.393,1322.67 605.098,1322.67 609.804,1322.67 614.51,1322.67 619.215,1322.67 623.921,1322.67 628.626,1322.67 633.332,1322.67 638.037,1322.67 642.743,1322.67 647.449,1322.67 652.154,1322.67 656.86,1322.67 661.565,1322.67 666.271,1322.67 670.976,1322.67 675.682,1322.67 680.388,1322.67 685.093,1322.67 689.799,1322.67 694.504,1322.67 699.21,1322.67 703.915,1322.67 708.621,1322.67 713.327,1322.67 718.032,1322.67 722.738,1322.67 727.443,1322.67 732.149,1322.67 736.855,1322.67 741.56,1322.67 746.266,1322.67 750.971,1322.67 755.677,1322.67 760.382,1322.67 765.088,1322.67 769.794,1322.67 774.499,1322.67 779.205,1322.67 783.91,1322.67 788.616,1322.67 793.321,1322.67 798.027,1322.67 802.733,1322.67 807.438,1322.67 812.144,1322.67 816.849,1322.67 821.555,1322.67 826.26,1322.67 830.966,1322.67 835.672,1322.67 840.377,1322.67 845.083,1322.67 849.788,1322.67 854.494,1322.67 859.2,1322.67 863.905,1322.67 868.611,1322.67 873.316,1322.67 878.022,1322.67 882.727,1322.67 887.433,1322.67 892.139,1322.67 896.844,1322.67 901.55,1322.67 906.255,1322.67 910.961,1322.67 915.666,1322.67 920.372,1322.67 925.078,1322.67 929.783,1322.67 934.489,1322.67 939.194,1322.67 943.9,1322.67 948.605,1322.67 953.311,1322.67 958.017,1322.67 962.722,1322.67 967.428,1322.67 972.133,1322.67 976.839,1322.67 981.545,1322.67 986.25,1322.67 990.956,1322.67 995.661,1322.67 1000.37,1322.67 1005.07,1322.67 1009.78,1322.67 1014.48,1322.67 1019.19,1322.67 1023.89,1322.67 1028.6,1322.67 1033.31,1322.67 1038.01,1322.67 1042.72,1322.67 1047.42,1322.67 1052.13,1322.67 1056.83,1322.67 1061.54,1322.67 1066.24,1322.67 1070.95,1322.67 1075.66,1322.67 1080.36,1322.67 1085.07,1322.67 1089.77,1322.67 1094.48,1322.67 1099.18,1322.67 1103.89,1322.67 1108.6,1322.67 1113.3,1322.67 1118.01,1322.67 1122.71,1322.67 1127.42,1322.67 1132.12,1322.67 1136.83,1322.67 1141.53,1322.67 1146.24,1322.67 1150.95,1322.67 1155.65,1322.67 1160.36,1322.67 1165.06,1322.67 1169.77,1322.67 1174.47,1322.67 1179.18,1322.67 1183.88,1322.67 1188.59,1322.67 1193.3,1322.67 1198,1322.67 1202.71,1322.67 1207.41,1322.67 1212.12,1322.67 1216.82,1322.67 1221.53,1322.67 1226.23,1322.67 1230.94,1322.67 1235.65,1322.67 1240.35,1322.67 1245.06,1322.67 1249.76,1322.67 1254.47,1322.67 1259.17,1322.67 1263.88,1322.67 1268.58,1322.67 1273.29,1322.67 1278,1322.67 1282.7,1322.67 1287.41,1322.67 1292.11,1322.67 1296.82,1322.67 1301.52,1322.67 1306.23,1322.67 1310.93,1322.67 1315.64,1322.67 1320.35,1322.67 1325.05,1322.67 1329.76,1322.67 1334.46,1322.67 1339.17,1322.67 1343.87,1322.67 1348.58,1322.67 1353.29,1322.67 1357.99,1322.67 1362.7,1322.67 1367.4,1322.67 1372.11,1322.67 1376.81,1322.67 1381.52,1322.67 1386.22,1322.67 1390.93,1322.67 1395.64,1322.67 1400.34,1322.67 1405.05,1322.67 1409.75,1322.67 1414.46,1322.67 1419.16,1322.67 1423.87,1322.67 1428.57,1322.67 1433.28,1322.67 1437.99,1322.67 1442.69,1322.67 1447.4,1322.67 1452.1,1322.67 1456.81,1322.67 1461.51,1322.67 1466.22,1322.67 1470.92,1322.67 1475.63,1322.67 1480.34,1322.67 1485.04,1322.67 1489.75,1322.67 1494.45,1322.67 1499.16,1322.67 1503.86,1322.67 1508.57,1322.67 1513.27,1322.67 1517.98,1322.67 1522.69,1322.67 1527.39,1322.67 1532.1,1322.67 1536.8,1322.67 1541.51,1322.67 1546.21,1322.67 1550.92,1322.67 1555.62,1322.67 1560.33,1322.67 1565.04,1322.67 1569.74,1322.67 1574.45,1322.67 1579.15,1322.67 1583.86,1322.67 1588.56,1322.67 1593.27,1322.67 1597.98,1322.67 1602.68,1322.67 1607.39,1322.67 1612.09,1322.67 1616.8,1322.67 1621.5,1322.67 1626.21,1322.67 1630.91,1322.67 1635.62,1322.67 1640.33,1322.67 1645.03,1322.67 1649.74,1322.67 1654.44,1322.67 1659.15,1322.67 1663.85,1322.67 1668.56,1322.67 1673.26,1322.67 1677.97,1322.67 1682.68,1322.67 1687.38,1322.67 1692.09,1322.67 1696.79,1322.67 1701.5,1322.67 1706.2,1322.67 1710.91,1322.67 1715.61,1322.67 1720.32,1322.67 1725.03,1322.67 1729.73,1322.67 1734.44,1322.67 1739.14,1322.67 1743.85,1322.67 1748.55,1322.67 1753.26,1322.67 1757.96,1322.67 1762.67,1322.67 1767.38,1322.67 1772.08,1322.67 1776.79,1322.67 1781.49,1322.67 1786.2,1322.67 1790.9,1322.67 1795.61,1322.67 1800.31,1322.67 1805.02,1322.67 1809.73,1322.67 1814.43,1322.67 1819.14,1322.67 1823.84,1322.67 1828.55,1322.67 1833.25,1322.67 1837.96,1322.67 1842.67,1322.67 1847.37,1322.67 1852.08,1322.67 1856.78,1322.67 1861.49,1322.67 1866.19,1322.67 1870.9,1322.67 1875.6,1322.67 1880.31,1322.67 1885.02,1322.67 1889.72,1322.67 1894.43,1322.67 1899.13,1322.67 1903.84,1322.67 1908.54,1322.67 1913.25,1322.67 1917.95,1322.67 1922.66,1322.67 1927.37,1322.67 1932.07,1322.67 1936.78,1322.67 1941.48,1322.67 1946.19,1322.67 1950.89,1322.67 1955.6,1322.67 1960.3,1322.67 1965.01,1322.67 1969.72,1322.67 1974.42,1322.67 1979.13,1322.67 1983.83,1322.67 1988.54,1322.67 1993.24,1322.67 1997.95,1322.67 2002.65,1322.67 2007.36,1322.67 2012.07,1322.67 2016.77,1322.67 2021.48,1322.67 2026.18,1322.67 2030.89,1322.67 2035.59,1322.67 2040.3,1322.67 2045,1322.67 2049.71,1322.67 2054.42,1322.67 2059.12,1322.67 2063.83,1322.67 2068.53,1322.67 2073.24,1322.67 2077.94,1322.67 2082.65,1322.67 2087.36,1322.67 2092.06,1322.67 2096.77,1322.67 2101.47,1322.67 2106.18,1322.67 2110.88,1322.67 2115.59,1322.67 2120.29,1322.67 2125,1322.67 2129.71,1322.67 2134.41,1322.67 2139.12,1322.67 2143.82,1322.67 2148.53,1322.67 2153.23,1322.67 2157.94,1322.67 2162.64,1322.67 2167.35,1322.67 2172.06,1322.67 2176.76,1322.67 2181.47,1322.67 2186.17,1322.67 2190.88,1322.67 2195.58,1322.67 2200.29,1322.67 "/>
<path clip-path="url(#clip960)" d="M328.097 298.357 L554.534 298.357 L554.534 90.9966 L328.097 90.9966  Z" fill="#ffffff" fill-rule="evenodd" fill-opacity="1"/>
<polyline clip-path="url(#clip960)" style="stroke:#000000; stroke-linecap:round; stroke-linejoin:round; stroke-width:4; stroke-opacity:1; fill:none" points="328.097,298.357 554.534,298.357 554.534,90.9966 328.097,90.9966 328.097,298.357 "/>
<polyline clip-path="url(#clip960)" style="stroke:#009af9; stroke-linecap:round; stroke-linejoin:round; stroke-width:4; stroke-opacity:1; fill:none" points="350.265,142.837 483.276,142.837 "/>
<path clip-path="url(#clip960)" d="M527.69 126.691 L527.69 131.251 Q525.028 129.978 522.667 129.353 Q520.306 128.728 518.107 128.728 Q514.287 128.728 512.204 130.209 Q510.144 131.691 510.144 134.422 Q510.144 136.714 511.509 137.895 Q512.898 139.052 516.741 139.77 L519.565 140.348 Q524.796 141.344 527.273 143.867 Q529.773 146.367 529.773 150.58 Q529.773 155.603 526.394 158.195 Q523.037 160.788 516.533 160.788 Q514.079 160.788 511.301 160.232 Q508.547 159.677 505.584 158.589 L505.584 153.774 Q508.431 155.371 511.162 156.181 Q513.894 156.992 516.533 156.992 Q520.537 156.992 522.713 155.418 Q524.889 153.844 524.889 150.927 Q524.889 148.381 523.315 146.945 Q521.764 145.51 518.199 144.793 L515.352 144.237 Q510.121 143.195 507.783 140.973 Q505.445 138.751 505.445 134.793 Q505.445 130.209 508.662 127.57 Q511.903 124.932 517.574 124.932 Q520.005 124.932 522.528 125.371 Q525.051 125.811 527.69 126.691 Z" fill="#000000" fill-rule="evenodd" fill-opacity="1" /><polyline clip-path="url(#clip960)" style="stroke:#e26f46; stroke-linecap:round; stroke-linejoin:round; stroke-width:4; stroke-opacity:1; fill:none" points="350.265,194.677 483.276,194.677 "/>
<path clip-path="url(#clip960)" d="M505.445 177.397 L510.121 177.397 L510.121 211.957 L505.445 211.957 L505.445 177.397 Z" fill="#000000" fill-rule="evenodd" fill-opacity="1" /><polyline clip-path="url(#clip960)" style="stroke:#3da44d; stroke-linecap:round; stroke-linejoin:round; stroke-width:4; stroke-opacity:1; fill:none" points="350.265,246.517 483.276,246.517 "/>
<path clip-path="url(#clip960)" d="M521.833 247.593 Q523.338 248.102 524.75 249.769 Q526.185 251.436 527.62 254.352 L532.366 263.797 L527.343 263.797 L522.921 254.931 Q521.208 251.459 519.588 250.324 Q517.991 249.19 515.213 249.19 L510.121 249.19 L510.121 263.797 L505.445 263.797 L505.445 229.237 L516 229.237 Q521.926 229.237 524.843 231.713 Q527.759 234.19 527.759 239.19 Q527.759 242.454 526.232 244.607 Q524.727 246.76 521.833 247.593 M510.121 233.079 L510.121 245.348 L516 245.348 Q519.38 245.348 521.093 243.797 Q522.829 242.223 522.829 239.19 Q522.829 236.158 521.093 234.63 Q519.38 233.079 516 233.079 L510.121 233.079 Z" fill="#000000" fill-rule="evenodd" fill-opacity="1" /></svg>
