<?xml version="1.0" encoding="utf-8"?>
<svg xmlns="http://www.w3.org/2000/svg" xmlns:xlink="http://www.w3.org/1999/xlink" width="576" height="384" viewBox="0 0 2304 1536">
<defs>
  <clipPath id="clip540">
    <rect x="0" y="0" width="2304" height="1536"/>
  </clipPath>
</defs>
<path clip-path="url(#clip540)" d="
M0 1536 L2304 1536 L2304 0 L0 0  Z
  " fill="#ffffff" fill-rule="evenodd" fill-opacity="1"/>
<defs>
  <clipPath id="clip541">
    <rect x="460" y="0" width="1614" height="1536"/>
  </clipPath>
</defs>
<path clip-path="url(#clip540)" d="
M187.652 1359.82 L2256.76 1359.82 L2256.76 47.2441 L187.652 47.2441  Z
  " fill="#ffffff" fill-rule="evenodd" fill-opacity="1"/>
<defs>
  <clipPath id="clip542">
    <rect x="187" y="47" width="2070" height="1314"/>
  </clipPath>
</defs>
<polyline clip-path="url(#clip542)" style="stroke:#000000; stroke-width:2; stroke-opacity:0.1; fill:none" points="
  187.652,1359.82 187.652,47.2441 
  "/>
<polyline clip-path="url(#clip542)" style="stroke:#000000; stroke-width:2; stroke-opacity:0.1; fill:none" points="
  704.928,1359.82 704.928,47.2441 
  "/>
<polyline clip-path="url(#clip542)" style="stroke:#000000; stroke-width:2; stroke-opacity:0.1; fill:none" points="
  1222.2,1359.82 1222.2,47.2441 
  "/>
<polyline clip-path="url(#clip542)" style="stroke:#000000; stroke-width:2; stroke-opacity:0.1; fill:none" points="
  1739.48,1359.82 1739.48,47.2441 
  "/>
<polyline clip-path="url(#clip542)" style="stroke:#000000; stroke-width:2; stroke-opacity:0.1; fill:none" points="
  2256.76,1359.82 2256.76,47.2441 
  "/>
<polyline clip-path="url(#clip542)" style="stroke:#000000; stroke-width:2; stroke-opacity:0.1; fill:none" points="
  187.652,1322.67 2256.76,1322.67 
  "/>
<polyline clip-path="url(#clip542)" style="stroke:#000000; stroke-width:2; stroke-opacity:0.1; fill:none" points="
  187.652,1009.97 2256.76,1009.97 
  "/>
<polyline clip-path="url(#clip542)" style="stroke:#000000; stroke-width:2; stroke-opacity:0.1; fill:none" points="
  187.652,697.278 2256.76,697.278 
  "/>
<polyline clip-path="url(#clip542)" style="stroke:#000000; stroke-width:2; stroke-opacity:0.1; fill:none" points="
  187.652,384.581 2256.76,384.581 
  "/>
<polyline clip-path="url(#clip542)" style="stroke:#000000; stroke-width:2; stroke-opacity:0.1; fill:none" points="
  187.652,71.8846 2256.76,71.8846 
  "/>
<polyline clip-path="url(#clip540)" style="stroke:#000000; stroke-width:4; stroke-opacity:1; fill:none" points="
  187.652,1359.82 2256.76,1359.82 
  "/>
<polyline clip-path="url(#clip540)" style="stroke:#000000; stroke-width:4; stroke-opacity:1; fill:none" points="
  187.652,1359.82 187.652,47.2441 
  "/>
<polyline clip-path="url(#clip540)" style="stroke:#000000; stroke-width:4; stroke-opacity:1; fill:none" points="
  187.652,1359.82 187.652,1344.07 
  "/>
<polyline clip-path="url(#clip540)" style="stroke:#000000; stroke-width:4; stroke-opacity:1; fill:none" points="
  704.928,1359.82 704.928,1344.07 
  "/>
<polyline clip-path="url(#clip540)" style="stroke:#000000; stroke-width:4; stroke-opacity:1; fill:none" points="
  1222.2,1359.82 1222.2,1344.07 
  "/>
<polyline clip-path="url(#clip540)" style="stroke:#000000; stroke-width:4; stroke-opacity:1; fill:none" points="
  1739.48,1359.82 1739.48,1344.07 
  "/>
<polyline clip-path="url(#clip540)" style="stroke:#000000; stroke-width:4; stroke-opacity:1; fill:none" points="
  2256.76,1359.82 2256.76,1344.07 
  "/>
<polyline clip-path="url(#clip540)" style="stroke:#000000; stroke-width:4; stroke-opacity:1; fill:none" points="
  187.652,1322.67 212.481,1322.67 
  "/>
<polyline clip-path="url(#clip540)" style="stroke:#000000; stroke-width:4; stroke-opacity:1; fill:none" points="
  187.652,1009.97 212.481,1009.97 
  "/>
<polyline clip-path="url(#clip540)" style="stroke:#000000; stroke-width:4; stroke-opacity:1; fill:none" points="
  187.652,697.278 212.481,697.278 
  "/>
<polyline clip-path="url(#clip540)" style="stroke:#000000; stroke-width:4; stroke-opacity:1; fill:none" points="
  187.652,384.581 212.481,384.581 
  "/>
<polyline clip-path="url(#clip540)" style="stroke:#000000; stroke-width:4; stroke-opacity:1; fill:none" points="
  187.652,71.8846 212.481,71.8846 
  "/>
<path clip-path="url(#clip540)" d="M 0 0 M187.652 1381.33 Q184.041 1381.33 182.212 1384.9 Q180.407 1388.44 180.407 1395.57 Q180.407 1402.67 182.212 1406.24 Q184.041 1409.78 187.652 1409.78 Q191.286 1409.78 193.092 1406.24 Q194.92 1402.67 194.92 1395.57 Q194.92 1388.44 193.092 1384.9 Q191.286 1381.33 187.652 1381.33 M187.652 1377.63 Q193.462 1377.63 196.518 1382.23 Q199.596 1386.82 199.596 1395.57 Q199.596 1404.29 196.518 1408.9 Q193.462 1413.48 187.652 1413.48 Q181.842 1413.48 178.763 1408.9 Q175.708 1404.29 175.708 1395.57 Q175.708 1386.82 178.763 1382.23 Q181.842 1377.63 187.652 1377.63 Z" fill="#000000" fill-rule="evenodd" fill-opacity="1" /><path clip-path="url(#clip540)" d="M 0 0 M681.803 1408.88 L689.442 1408.88 L689.442 1382.51 L681.132 1384.18 L681.132 1379.92 L689.396 1378.25 L694.072 1378.25 L694.072 1408.88 L701.71 1408.88 L701.71 1412.81 L681.803 1412.81 L681.803 1408.88 Z" fill="#000000" fill-rule="evenodd" fill-opacity="1" /><path clip-path="url(#clip540)" d="M 0 0 M716.78 1381.33 Q713.169 1381.33 711.34 1384.9 Q709.534 1388.44 709.534 1395.57 Q709.534 1402.67 711.34 1406.24 Q713.169 1409.78 716.78 1409.78 Q720.414 1409.78 722.22 1406.24 Q724.048 1402.67 724.048 1395.57 Q724.048 1388.44 722.22 1384.9 Q720.414 1381.33 716.78 1381.33 M716.78 1377.63 Q722.59 1377.63 725.645 1382.23 Q728.724 1386.82 728.724 1395.57 Q728.724 1404.29 725.645 1408.9 Q722.59 1413.48 716.78 1413.48 Q710.97 1413.48 707.891 1408.9 Q704.835 1404.29 704.835 1395.57 Q704.835 1386.82 707.891 1382.23 Q710.97 1377.63 716.78 1377.63 Z" fill="#000000" fill-rule="evenodd" fill-opacity="1" /><path clip-path="url(#clip540)" d="M 0 0 M1203.35 1408.88 L1219.67 1408.88 L1219.67 1412.81 L1197.72 1412.81 L1197.72 1408.88 Q1200.39 1406.12 1204.97 1401.49 Q1209.58 1396.84 1210.76 1395.5 Q1213 1392.97 1213.88 1391.24 Q1214.78 1389.48 1214.78 1387.79 Q1214.78 1385.03 1212.84 1383.3 Q1210.92 1381.56 1207.82 1381.56 Q1205.62 1381.56 1203.16 1382.33 Q1200.73 1383.09 1197.96 1384.64 L1197.96 1379.92 Q1200.78 1378.78 1203.23 1378.21 Q1205.69 1377.63 1207.72 1377.63 Q1213.1 1377.63 1216.29 1380.31 Q1219.48 1383 1219.48 1387.49 Q1219.48 1389.62 1218.67 1391.54 Q1217.89 1393.44 1215.78 1396.03 Q1215.2 1396.7 1212.1 1399.92 Q1209 1403.11 1203.35 1408.88 Z" fill="#000000" fill-rule="evenodd" fill-opacity="1" /><path clip-path="url(#clip540)" d="M 0 0 M1234.74 1381.33 Q1231.13 1381.33 1229.3 1384.9 Q1227.49 1388.44 1227.49 1395.57 Q1227.49 1402.67 1229.3 1406.24 Q1231.13 1409.78 1234.74 1409.78 Q1238.37 1409.78 1240.18 1406.24 Q1242.01 1402.67 1242.01 1395.57 Q1242.01 1388.44 1240.18 1384.9 Q1238.37 1381.33 1234.74 1381.33 M1234.74 1377.63 Q1240.55 1377.63 1243.6 1382.23 Q1246.68 1386.82 1246.68 1395.57 Q1246.68 1404.29 1243.6 1408.9 Q1240.55 1413.48 1234.74 1413.48 Q1228.93 1413.48 1225.85 1408.9 Q1222.79 1404.29 1222.79 1395.57 Q1222.79 1386.82 1225.85 1382.23 Q1228.93 1377.63 1234.74 1377.63 Z" fill="#000000" fill-rule="evenodd" fill-opacity="1" /><path clip-path="url(#clip540)" d="M 0 0 M1730.22 1394.18 Q1733.58 1394.9 1735.45 1397.16 Q1737.35 1399.43 1737.35 1402.77 Q1737.35 1407.88 1733.83 1410.68 Q1730.31 1413.48 1723.83 1413.48 Q1721.66 1413.48 1719.34 1413.04 Q1717.05 1412.63 1714.6 1411.77 L1714.6 1407.26 Q1716.54 1408.39 1718.86 1408.97 Q1721.17 1409.55 1723.69 1409.55 Q1728.09 1409.55 1730.38 1407.81 Q1732.7 1406.08 1732.7 1402.77 Q1732.7 1399.71 1730.54 1398 Q1728.42 1396.26 1724.6 1396.26 L1720.57 1396.26 L1720.57 1392.42 L1724.78 1392.42 Q1728.23 1392.42 1730.06 1391.05 Q1731.89 1389.66 1731.89 1387.07 Q1731.89 1384.41 1729.99 1383 Q1728.11 1381.56 1724.6 1381.56 Q1722.67 1381.56 1720.48 1381.98 Q1718.28 1382.4 1715.64 1383.27 L1715.64 1379.11 Q1718.3 1378.37 1720.61 1378 Q1722.95 1377.63 1725.01 1377.63 Q1730.34 1377.63 1733.44 1380.06 Q1736.54 1382.46 1736.54 1386.59 Q1736.54 1389.46 1734.9 1391.45 Q1733.25 1393.41 1730.22 1394.18 Z" fill="#000000" fill-rule="evenodd" fill-opacity="1" /><path clip-path="url(#clip540)" d="M 0 0 M1752.42 1381.33 Q1748.81 1381.33 1746.98 1384.9 Q1745.17 1388.44 1745.17 1395.57 Q1745.17 1402.67 1746.98 1406.24 Q1748.81 1409.78 1752.42 1409.78 Q1756.05 1409.78 1757.86 1406.24 Q1759.69 1402.67 1759.69 1395.57 Q1759.69 1388.44 1757.86 1384.9 Q1756.05 1381.33 1752.42 1381.33 M1752.42 1377.63 Q1758.23 1377.63 1761.29 1382.23 Q1764.36 1386.82 1764.36 1395.57 Q1764.36 1404.29 1761.29 1408.9 Q1758.23 1413.48 1752.42 1413.48 Q1746.61 1413.48 1743.53 1408.9 Q1740.48 1404.29 1740.48 1395.57 Q1740.48 1386.82 1743.53 1382.23 Q1746.61 1377.63 1752.42 1377.63 Z" fill="#000000" fill-rule="evenodd" fill-opacity="1" /><path clip-path="url(#clip540)" d="M 0 0 M2246.26 1382.33 L2234.45 1400.77 L2246.26 1400.77 L2246.26 1382.33 M2245.03 1378.25 L2250.91 1378.25 L2250.91 1400.77 L2255.84 1400.77 L2255.84 1404.66 L2250.91 1404.66 L2250.91 1412.81 L2246.26 1412.81 L2246.26 1404.66 L2230.66 1404.66 L2230.66 1400.15 L2245.03 1378.25 Z" fill="#000000" fill-rule="evenodd" fill-opacity="1" /><path clip-path="url(#clip540)" d="M 0 0 M2270.91 1381.33 Q2267.3 1381.33 2265.47 1384.9 Q2263.67 1388.44 2263.67 1395.57 Q2263.67 1402.67 2265.47 1406.24 Q2267.3 1409.78 2270.91 1409.78 Q2274.55 1409.78 2276.35 1406.24 Q2278.18 1402.67 2278.18 1395.57 Q2278.18 1388.44 2276.35 1384.9 Q2274.55 1381.33 2270.91 1381.33 M2270.91 1377.63 Q2276.72 1377.63 2279.78 1382.23 Q2282.86 1386.82 2282.86 1395.57 Q2282.86 1404.29 2279.78 1408.9 Q2276.72 1413.48 2270.91 1413.48 Q2265.1 1413.48 2262.02 1408.9 Q2258.97 1404.29 2258.97 1395.57 Q2258.97 1386.82 2262.02 1382.23 Q2265.1 1377.63 2270.91 1377.63 Z" fill="#000000" fill-rule="evenodd" fill-opacity="1" /><path clip-path="url(#clip540)" d="M 0 0 M152.668 1308.47 Q149.056 1308.47 147.228 1312.03 Q145.422 1315.58 145.422 1322.71 Q145.422 1329.81 147.228 1333.38 Q149.056 1336.92 152.668 1336.92 Q156.302 1336.92 158.107 1333.38 Q159.936 1329.81 159.936 1322.71 Q159.936 1315.58 158.107 1312.03 Q156.302 1308.47 152.668 1308.47 M152.668 1304.77 Q158.478 1304.77 161.533 1309.37 Q164.612 1313.96 164.612 1322.71 Q164.612 1331.43 161.533 1336.04 Q158.478 1340.62 152.668 1340.62 Q146.857 1340.62 143.779 1336.04 Q140.723 1331.43 140.723 1322.71 Q140.723 1313.96 143.779 1309.37 Q146.857 1304.77 152.668 1304.77 Z" fill="#000000" fill-rule="evenodd" fill-opacity="1" /><path clip-path="url(#clip540)" d="M 0 0 M95.2605 1023.32 L111.58 1023.32 L111.58 1027.25 L89.6355 1027.25 L89.6355 1023.32 Q92.2975 1020.56 96.8808 1015.94 Q101.487 1011.28 102.668 1009.94 Q104.913 1007.42 105.793 1005.68 Q106.696 1003.92 106.696 1002.23 Q106.696 999.477 104.751 997.741 Q102.83 996.005 99.728 996.005 Q97.529 996.005 95.0753 996.769 Q92.6447 997.533 89.867 999.084 L89.867 994.361 Q92.691 993.227 95.1447 992.648 Q97.5984 992.07 99.6354 992.07 Q105.006 992.07 108.2 994.755 Q111.395 997.44 111.395 1001.93 Q111.395 1004.06 110.584 1005.98 Q109.797 1007.88 107.691 1010.47 Q107.112 1011.14 104.01 1014.36 Q100.909 1017.56 95.2605 1023.32 Z" fill="#000000" fill-rule="evenodd" fill-opacity="1" /><path clip-path="url(#clip540)" d="M 0 0 M116.696 992.695 L135.052 992.695 L135.052 996.63 L120.978 996.63 L120.978 1005.1 Q121.996 1004.75 123.015 1004.59 Q124.033 1004.41 125.052 1004.41 Q130.839 1004.41 134.219 1007.58 Q137.598 1010.75 137.598 1016.17 Q137.598 1021.75 134.126 1024.85 Q130.654 1027.93 124.334 1027.93 Q122.158 1027.93 119.89 1027.56 Q117.645 1027.19 115.237 1026.44 L115.237 1021.75 Q117.321 1022.88 119.543 1023.44 Q121.765 1023.99 124.242 1023.99 Q128.246 1023.99 130.584 1021.88 Q132.922 1019.78 132.922 1016.17 Q132.922 1012.56 130.584 1010.45 Q128.246 1008.34 124.242 1008.34 Q122.367 1008.34 120.492 1008.76 Q118.64 1009.18 116.696 1010.06 L116.696 992.695 Z" fill="#000000" fill-rule="evenodd" fill-opacity="1" /><path clip-path="url(#clip540)" d="M 0 0 M152.668 995.773 Q149.056 995.773 147.228 999.338 Q145.422 1002.88 145.422 1010.01 Q145.422 1017.12 147.228 1020.68 Q149.056 1024.22 152.668 1024.22 Q156.302 1024.22 158.107 1020.68 Q159.936 1017.12 159.936 1010.01 Q159.936 1002.88 158.107 999.338 Q156.302 995.773 152.668 995.773 M152.668 992.07 Q158.478 992.07 161.533 996.676 Q164.612 1001.26 164.612 1010.01 Q164.612 1018.74 161.533 1023.34 Q158.478 1027.93 152.668 1027.93 Q146.857 1027.93 143.779 1023.34 Q140.723 1018.74 140.723 1010.01 Q140.723 1001.26 143.779 996.676 Q146.857 992.07 152.668 992.07 Z" fill="#000000" fill-rule="evenodd" fill-opacity="1" /><path clip-path="url(#clip540)" d="M 0 0 M89.6818 679.998 L108.038 679.998 L108.038 683.933 L93.9642 683.933 L93.9642 692.405 Q94.9827 692.058 96.0012 691.896 Q97.0197 691.711 98.0382 691.711 Q103.825 691.711 107.205 694.882 Q110.584 698.053 110.584 703.47 Q110.584 709.049 107.112 712.151 Q103.64 715.229 97.3206 715.229 Q95.1447 715.229 92.8762 714.859 Q90.6309 714.489 88.2235 713.748 L88.2235 709.049 Q90.3068 710.183 92.529 710.739 Q94.7512 711.294 97.2281 711.294 Q101.233 711.294 103.571 709.188 Q105.909 707.081 105.909 703.47 Q105.909 699.859 103.571 697.753 Q101.233 695.646 97.2281 695.646 Q95.3531 695.646 93.4781 696.063 Q91.6262 696.479 89.6818 697.359 L89.6818 679.998 Z" fill="#000000" fill-rule="evenodd" fill-opacity="1" /><path clip-path="url(#clip540)" d="M 0 0 M125.654 683.077 Q122.043 683.077 120.214 686.642 Q118.408 690.183 118.408 697.313 Q118.408 704.419 120.214 707.984 Q122.043 711.526 125.654 711.526 Q129.288 711.526 131.094 707.984 Q132.922 704.419 132.922 697.313 Q132.922 690.183 131.094 686.642 Q129.288 683.077 125.654 683.077 M125.654 679.373 Q131.464 679.373 134.52 683.979 Q137.598 688.563 137.598 697.313 Q137.598 706.04 134.52 710.646 Q131.464 715.229 125.654 715.229 Q119.844 715.229 116.765 710.646 Q113.709 706.04 113.709 697.313 Q113.709 688.563 116.765 683.979 Q119.844 679.373 125.654 679.373 Z" fill="#000000" fill-rule="evenodd" fill-opacity="1" /><path clip-path="url(#clip540)" d="M 0 0 M152.668 683.077 Q149.056 683.077 147.228 686.642 Q145.422 690.183 145.422 697.313 Q145.422 704.419 147.228 707.984 Q149.056 711.526 152.668 711.526 Q156.302 711.526 158.107 707.984 Q159.936 704.419 159.936 697.313 Q159.936 690.183 158.107 686.642 Q156.302 683.077 152.668 683.077 M152.668 679.373 Q158.478 679.373 161.533 683.979 Q164.612 688.563 164.612 697.313 Q164.612 706.04 161.533 710.646 Q158.478 715.229 152.668 715.229 Q146.857 715.229 143.779 710.646 Q140.723 706.04 140.723 697.313 Q140.723 688.563 143.779 683.979 Q146.857 679.373 152.668 679.373 Z" fill="#000000" fill-rule="evenodd" fill-opacity="1" /><path clip-path="url(#clip540)" d="M 0 0 M89.3577 367.301 L111.58 367.301 L111.58 369.292 L99.0336 401.861 L94.1494 401.861 L105.955 371.236 L89.3577 371.236 L89.3577 367.301 Z" fill="#000000" fill-rule="evenodd" fill-opacity="1" /><path clip-path="url(#clip540)" d="M 0 0 M116.696 367.301 L135.052 367.301 L135.052 371.236 L120.978 371.236 L120.978 379.709 Q121.996 379.361 123.015 379.199 Q124.033 379.014 125.052 379.014 Q130.839 379.014 134.219 382.185 Q137.598 385.357 137.598 390.773 Q137.598 396.352 134.126 399.454 Q130.654 402.533 124.334 402.533 Q122.158 402.533 119.89 402.162 Q117.645 401.792 115.237 401.051 L115.237 396.352 Q117.321 397.486 119.543 398.042 Q121.765 398.597 124.242 398.597 Q128.246 398.597 130.584 396.491 Q132.922 394.385 132.922 390.773 Q132.922 387.162 130.584 385.056 Q128.246 382.949 124.242 382.949 Q122.367 382.949 120.492 383.366 Q118.64 383.783 116.696 384.662 L116.696 367.301 Z" fill="#000000" fill-rule="evenodd" fill-opacity="1" /><path clip-path="url(#clip540)" d="M 0 0 M152.668 370.38 Q149.056 370.38 147.228 373.945 Q145.422 377.486 145.422 384.616 Q145.422 391.722 147.228 395.287 Q149.056 398.829 152.668 398.829 Q156.302 398.829 158.107 395.287 Q159.936 391.722 159.936 384.616 Q159.936 377.486 158.107 373.945 Q156.302 370.38 152.668 370.38 M152.668 366.676 Q158.478 366.676 161.533 371.283 Q164.612 375.866 164.612 384.616 Q164.612 393.343 161.533 397.949 Q158.478 402.533 152.668 402.533 Q146.857 402.533 143.779 397.949 Q140.723 393.343 140.723 384.616 Q140.723 375.866 143.779 371.283 Q146.857 366.676 152.668 366.676 Z" fill="#000000" fill-rule="evenodd" fill-opacity="1" /><path clip-path="url(#clip540)" d="M 0 0 M63.6634 85.2294 L71.3023 85.2294 L71.3023 58.8638 L62.9921 60.5305 L62.9921 56.2713 L71.256 54.6046 L75.9319 54.6046 L75.9319 85.2294 L83.5707 85.2294 L83.5707 89.1646 L63.6634 89.1646 L63.6634 85.2294 Z" fill="#000000" fill-rule="evenodd" fill-opacity="1" /><path clip-path="url(#clip540)" d="M 0 0 M98.6401 57.6833 Q95.029 57.6833 93.2003 61.2481 Q91.3948 64.7897 91.3948 71.9193 Q91.3948 79.0258 93.2003 82.5906 Q95.029 86.1322 98.6401 86.1322 Q102.274 86.1322 104.08 82.5906 Q105.909 79.0258 105.909 71.9193 Q105.909 64.7897 104.08 61.2481 Q102.274 57.6833 98.6401 57.6833 M98.6401 53.9796 Q104.45 53.9796 107.506 58.5861 Q110.584 63.1694 110.584 71.9193 Q110.584 80.6461 107.506 85.2526 Q104.45 89.8359 98.6401 89.8359 Q92.8299 89.8359 89.7512 85.2526 Q86.6957 80.6461 86.6957 71.9193 Q86.6957 63.1694 89.7512 58.5861 Q92.8299 53.9796 98.6401 53.9796 Z" fill="#000000" fill-rule="evenodd" fill-opacity="1" /><path clip-path="url(#clip540)" d="M 0 0 M125.654 57.6833 Q122.043 57.6833 120.214 61.2481 Q118.408 64.7897 118.408 71.9193 Q118.408 79.0258 120.214 82.5906 Q122.043 86.1322 125.654 86.1322 Q129.288 86.1322 131.094 82.5906 Q132.922 79.0258 132.922 71.9193 Q132.922 64.7897 131.094 61.2481 Q129.288 57.6833 125.654 57.6833 M125.654 53.9796 Q131.464 53.9796 134.52 58.5861 Q137.598 63.1694 137.598 71.9193 Q137.598 80.6461 134.52 85.2526 Q131.464 89.8359 125.654 89.8359 Q119.844 89.8359 116.765 85.2526 Q113.709 80.6461 113.709 71.9193 Q113.709 63.1694 116.765 58.5861 Q119.844 53.9796 125.654 53.9796 Z" fill="#000000" fill-rule="evenodd" fill-opacity="1" /><path clip-path="url(#clip540)" d="M 0 0 M152.668 57.6833 Q149.056 57.6833 147.228 61.2481 Q145.422 64.7897 145.422 71.9193 Q145.422 79.0258 147.228 82.5906 Q149.056 86.1322 152.668 86.1322 Q156.302 86.1322 158.107 82.5906 Q159.936 79.0258 159.936 71.9193 Q159.936 64.7897 158.107 61.2481 Q156.302 57.6833 152.668 57.6833 M152.668 53.9796 Q158.478 53.9796 161.533 58.5861 Q164.612 63.1694 164.612 71.9193 Q164.612 80.6461 161.533 85.2526 Q158.478 89.8359 152.668 89.8359 Q146.857 89.8359 143.779 85.2526 Q140.723 80.6461 140.723 71.9193 Q140.723 63.1694 143.779 58.5861 Q146.857 53.9796 152.668 53.9796 Z" fill="#000000" fill-rule="evenodd" fill-opacity="1" /><path clip-path="url(#clip540)" d="M 0 0 M1221.26 1445.95 L1221.26 1456.08 L1233.33 1456.08 L1233.33 1460.63 L1221.26 1460.63 L1221.26 1479.98 Q1221.26 1484.34 1222.44 1485.58 Q1223.65 1486.82 1227.31 1486.82 L1233.33 1486.82 L1233.33 1491.72 L1227.31 1491.72 Q1220.53 1491.72 1217.95 1489.21 Q1215.38 1486.66 1215.38 1479.98 L1215.38 1460.63 L1211.08 1460.63 L1211.08 1456.08 L1215.38 1456.08 L1215.38 1445.95 L1221.26 1445.95 Z" fill="#000000" fill-rule="evenodd" fill-opacity="1" /><polyline clip-path="url(#clip542)" style="stroke:#009af9; stroke-width:4; stroke-opacity:1; fill:none" points="
  187.652,84.3925 189.723,84.6416 191.794,84.8931 193.865,85.147 195.937,85.4034 198.008,85.6622 200.079,85.9235 202.15,86.1874 204.221,86.4538 206.293,86.7227 
  208.364,86.9943 210.435,87.2684 212.506,87.5451 214.577,87.8246 216.648,88.1066 218.72,88.3914 220.791,88.6789 222.862,88.9692 224.933,89.2622 227.004,89.558 
  229.075,89.8567 231.147,90.1581 233.218,90.4625 235.289,90.7697 237.36,91.0799 239.431,91.393 241.503,91.7091 243.574,92.0282 245.645,92.3503 247.716,92.6754 
  249.787,93.0036 251.858,93.335 253.93,93.6694 256.001,94.007 258.072,94.3478 260.143,94.6918 262.214,95.039 264.285,95.3895 266.357,95.7433 268.428,96.1004 
  270.499,96.4609 272.57,96.8247 274.641,97.1919 276.712,97.5626 278.784,97.9367 280.855,98.3143 282.926,98.6955 284.997,99.0801 287.068,99.4684 289.14,99.8603 
  291.211,100.256 293.282,100.655 295.353,101.058 297.424,101.464 299.495,101.875 301.567,102.289 303.638,102.707 305.709,103.129 307.78,103.554 309.851,103.984 
  311.922,104.418 313.994,104.855 316.065,105.297 318.136,105.742 320.207,106.192 322.278,106.646 324.35,107.104 326.421,107.566 328.492,108.032 330.563,108.503 
  332.634,108.977 334.705,109.456 336.777,109.94 338.848,110.428 340.919,110.92 342.99,111.417 345.061,111.918 347.132,112.423 349.204,112.933 351.275,113.448 
  353.346,113.968 355.417,114.492 357.488,115.02 359.559,115.554 361.631,116.092 363.702,116.635 365.773,117.183 367.844,117.735 369.915,118.293 371.987,118.855 
  374.058,119.422 376.129,119.995 378.2,120.572 380.271,121.155 382.342,121.742 384.414,122.335 386.485,122.933 388.556,123.536 390.627,124.145 392.698,124.758 
  394.769,125.377 396.841,126.002 398.912,126.632 400.983,127.267 403.054,127.908 405.125,128.554 407.197,129.206 409.268,129.863 411.339,130.526 413.41,131.195 
  415.481,131.869 417.552,132.55 419.624,133.236 421.695,133.927 423.766,134.625 425.837,135.328 427.908,136.038 429.979,136.753 432.051,137.475 434.122,138.202 
  436.193,138.936 438.264,139.676 440.335,140.422 442.406,141.174 444.478,141.932 446.549,142.697 448.62,143.467 450.691,144.245 452.762,145.028 454.834,145.818 
  456.905,146.615 458.976,147.418 461.047,148.228 463.118,149.044 465.189,149.867 467.261,150.696 469.332,151.532 471.403,152.375 473.474,153.225 475.545,154.081 
  477.616,154.944 479.688,155.814 481.759,156.692 483.83,157.576 485.901,158.467 487.972,159.365 490.044,160.27 492.115,161.182 494.186,162.101 496.257,163.028 
  498.328,163.961 500.399,164.902 502.471,165.85 504.542,166.806 506.613,167.769 508.684,168.739 510.755,169.717 512.826,170.702 514.898,171.695 516.969,172.695 
  519.04,173.703 521.111,174.718 523.182,175.741 525.253,176.771 527.325,177.81 529.396,178.856 531.467,179.91 533.538,180.971 535.609,182.04 537.681,183.118 
  539.752,184.203 541.823,185.296 543.894,186.397 545.965,187.506 548.036,188.623 550.108,189.747 552.179,190.88 554.25,192.021 556.321,193.17 558.392,194.328 
  560.463,195.493 562.535,196.667 564.606,197.848 566.677,199.038 568.748,200.237 570.819,201.443 572.891,202.658 574.962,203.881 577.033,205.112 579.104,206.352 
  581.175,207.6 583.246,208.857 585.318,210.122 587.389,211.395 589.46,212.677 591.531,213.968 593.602,215.267 595.673,216.574 597.745,217.89 599.816,219.215 
  601.887,220.548 603.958,221.889 606.029,223.24 608.101,224.599 610.172,225.966 612.243,227.342 614.314,228.727 616.385,230.12 618.456,231.523 620.528,232.933 
  622.599,234.353 624.67,235.781 626.741,237.218 628.812,238.663 630.883,240.117 632.955,241.58 635.026,243.052 637.097,244.533 639.168,246.022 641.239,247.519 
  643.31,249.026 645.382,250.541 647.453,252.065 649.524,253.598 651.595,255.14 653.666,256.69 655.738,258.249 657.809,259.816 659.88,261.392 661.951,262.977 
  664.022,264.571 666.093,266.173 668.165,267.784 670.236,269.403 672.307,271.032 674.378,272.668 676.449,274.314 678.52,275.967 680.592,277.63 682.663,279.301 
  684.734,280.98 686.805,282.668 688.876,284.365 690.948,286.07 693.019,287.783 695.09,289.505 697.161,291.235 699.232,292.973 701.303,294.72 703.375,296.475 
  705.446,298.238 707.517,300.01 709.588,301.79 711.659,303.578 713.73,305.374 715.802,307.178 717.873,308.99 719.944,310.81 722.015,312.638 724.086,314.475 
  726.157,316.319 728.229,318.171 730.3,320.03 732.371,321.898 734.442,323.773 736.513,325.656 738.585,327.547 740.656,329.445 742.727,331.351 744.798,333.264 
  746.869,335.185 748.94,337.113 751.012,339.049 753.083,340.992 755.154,342.942 757.225,344.899 759.296,346.864 761.367,348.836 763.439,350.815 765.51,352.801 
  767.581,354.793 769.652,356.793 771.723,358.799 773.795,360.813 775.866,362.832 777.937,364.859 780.008,366.892 782.079,368.931 784.15,370.977 786.222,373.029 
  788.293,375.087 790.364,377.151 792.435,379.221 794.506,381.297 796.577,383.38 798.649,385.468 800.72,387.561 802.791,389.661 804.862,391.766 806.933,393.876 
  809.004,395.992 811.076,398.113 813.147,400.239 815.218,402.371 817.289,404.508 819.36,406.649 821.432,408.796 823.503,410.947 825.574,413.103 827.645,415.264 
  829.716,417.43 831.787,419.6 833.859,421.774 835.93,423.952 838.001,426.135 840.072,428.322 842.143,430.513 844.214,432.708 846.286,434.907 848.357,437.11 
  850.428,439.316 852.499,441.526 854.57,443.739 856.642,445.956 858.713,448.176 860.784,450.4 862.855,452.626 864.926,454.856 866.997,457.088 869.069,459.323 
  871.14,461.561 873.211,463.802 875.282,466.045 877.353,468.291 879.424,470.539 881.496,472.789 883.567,475.042 885.638,477.296 887.709,479.553 889.78,481.811 
  891.851,484.071 893.923,486.333 895.994,488.597 898.065,490.861 900.136,493.127 902.207,495.395 904.279,497.663 906.35,499.933 908.421,502.203 910.492,504.475 
  912.563,506.747 914.634,509.019 916.706,511.292 918.777,513.566 920.848,515.84 922.919,518.113 924.99,520.387 927.061,522.661 929.133,524.935 931.204,527.209 
  933.275,529.482 935.346,531.755 937.417,534.028 939.489,536.299 941.56,538.571 943.631,540.841 945.702,543.111 947.773,545.38 949.844,547.647 951.916,549.914 
  953.987,552.179 956.058,554.443 958.129,556.705 960.2,558.966 962.271,561.225 964.343,563.482 966.414,565.737 968.485,567.99 970.556,570.242 972.627,572.491 
  974.699,574.738 976.77,576.982 978.841,579.224 980.912,581.464 982.983,583.7 985.054,585.935 987.126,588.166 989.197,590.394 991.268,592.62 993.339,594.842 
  995.41,597.061 997.481,599.277 999.553,601.49 1001.62,603.699 1003.69,605.905 1005.77,608.107 1007.84,610.305 1009.91,612.5 1011.98,614.691 1014.05,616.878 
  1016.12,619.061 1018.19,621.24 1020.26,623.415 1022.34,625.586 1024.41,627.752 1026.48,629.914 1028.55,632.072 1030.62,634.225 1032.69,636.374 1034.76,638.518 
  1036.83,640.657 1038.9,642.792 1040.98,644.921 1043.05,647.046 1045.12,649.166 1047.19,651.281 1049.26,653.391 1051.33,655.495 1053.4,657.595 1055.47,659.689 
  1057.55,661.778 1059.62,663.861 1061.69,665.939 1063.76,668.012 1065.83,670.078 1067.9,672.14 1069.97,674.195 1072.04,676.245 1074.11,678.289 1076.19,680.328 
  1078.26,682.36 1080.33,684.386 1082.4,686.407 1084.47,688.421 1086.54,690.429 1088.61,692.432 1090.68,694.428 1092.76,696.418 1094.83,698.401 1096.9,700.378 
  1098.97,702.349 1101.04,704.314 1103.11,706.272 1105.18,708.223 1107.25,710.168 1109.32,712.107 1111.4,714.039 1113.47,715.964 1115.54,717.883 1117.61,719.794 
  1119.68,721.7 1121.75,723.598 1123.82,725.49 1125.89,727.374 1127.97,729.252 1130.04,731.123 1132.11,732.987 1134.18,734.844 1136.25,736.694 1138.32,738.537 
  1140.39,740.373 1142.46,742.202 1144.53,744.024 1146.61,745.839 1148.68,747.646 1150.75,749.446 1152.82,751.24 1154.89,753.026 1156.96,754.805 1159.03,756.576 
  1161.1,758.341 1163.18,760.098 1165.25,761.848 1167.32,763.591 1169.39,765.327 1171.46,767.055 1173.53,768.776 1175.6,770.49 1177.67,772.197 1179.74,773.896 
  1181.82,775.588 1183.89,777.273 1185.96,778.95 1188.03,780.62 1190.1,782.283 1192.17,783.938 1194.24,785.586 1196.31,787.227 1198.39,788.86 1200.46,790.487 
  1202.53,792.105 1204.6,793.717 1206.67,795.321 1208.74,796.918 1210.81,798.507 1212.88,800.089 1214.95,801.664 1217.03,803.231 1219.1,804.791 1221.17,806.344 
  1223.24,807.889 1225.31,809.427 1227.38,810.958 1229.45,812.482 1231.52,813.998 1233.6,815.506 1235.67,817.008 1237.74,818.502 1239.81,819.989 1241.88,821.469 
  1243.95,822.941 1246.02,824.406 1248.09,825.864 1250.16,827.314 1252.24,828.758 1254.31,830.194 1256.38,831.622 1258.45,833.044 1260.52,834.458 1262.59,835.866 
  1264.66,837.266 1266.73,838.658 1268.81,840.044 1270.88,841.423 1272.95,842.794 1275.02,844.159 1277.09,845.516 1279.16,846.866 1281.23,848.209 1283.3,849.545 
  1285.37,850.874 1287.45,852.196 1289.52,853.511 1291.59,854.819 1293.66,856.12 1295.73,857.415 1297.8,858.702 1299.87,859.982 1301.94,861.256 1304.02,862.522 
  1306.09,863.782 1308.16,865.035 1310.23,866.281 1312.3,867.521 1314.37,868.753 1316.44,869.979 1318.51,871.199 1320.58,872.411 1322.66,873.617 1324.73,874.817 
  1326.8,876.01 1328.87,877.196 1330.94,878.376 1333.01,879.549 1335.08,880.716 1337.15,881.876 1339.23,883.03 1341.3,884.177 1343.37,885.318 1345.44,886.453 
  1347.51,887.581 1349.58,888.703 1351.65,889.819 1353.72,890.928 1355.79,892.031 1357.87,893.127 1359.94,894.218 1362.01,895.302 1364.08,896.38 1366.15,897.452 
  1368.22,898.517 1370.29,899.577 1372.36,900.63 1374.44,901.678 1376.51,902.719 1378.58,903.754 1380.65,904.784 1382.72,905.807 1384.79,906.825 1386.86,907.837 
  1388.93,908.842 1391,909.842 1393.08,910.837 1395.15,911.825 1397.22,912.808 1399.29,913.785 1401.36,914.756 1403.43,915.722 1405.5,916.682 1407.57,917.636 
  1409.65,918.585 1411.72,919.529 1413.79,920.467 1415.86,921.399 1417.93,922.326 1420,923.247 1422.07,924.163 1424.14,925.074 1426.21,925.979 1428.29,926.879 
  1430.36,927.774 1432.43,928.663 1434.5,929.547 1436.57,930.426 1438.64,931.299 1440.71,932.168 1442.78,933.031 1444.86,933.89 1446.93,934.743 1449,935.591 
  1451.07,936.434 1453.14,937.272 1455.21,938.105 1457.28,938.933 1459.35,939.756 1461.42,940.574 1463.5,941.387 1465.57,942.196 1467.64,942.999 1469.71,943.798 
  1471.78,944.592 1473.85,945.381 1475.92,946.165 1477.99,946.945 1480.07,947.72 1482.14,948.49 1484.21,949.256 1486.28,950.017 1488.35,950.774 1490.42,951.526 
  1492.49,952.273 1494.56,953.016 1496.63,953.754 1498.71,954.488 1500.78,955.217 1502.85,955.942 1504.92,956.663 1506.99,957.379 1509.06,958.091 1511.13,958.798 
  1513.2,959.502 1515.28,960.201 1517.35,960.895 1519.42,961.586 1521.49,962.272 1523.56,962.954 1525.63,963.632 1527.7,964.305 1529.77,964.975 1531.84,965.64 
  1533.92,966.302 1535.99,966.959 1538.06,967.612 1540.13,968.261 1542.2,968.907 1544.27,969.548 1546.34,970.185 1548.41,970.819 1550.49,971.448 1552.56,972.074 
  1554.63,972.696 1556.7,973.313 1558.77,973.928 1560.84,974.538 1562.91,975.144 1564.98,975.747 1567.05,976.346 1569.13,976.942 1571.2,977.533 1573.27,978.121 
  1575.34,978.706 1577.41,979.286 1579.48,979.864 1581.55,980.437 1583.62,981.007 1585.7,981.573 1587.77,982.136 1589.84,982.696 1591.91,983.252 1593.98,983.804 
  1596.05,984.353 1598.12,984.899 1600.19,985.441 1602.26,985.98 1604.34,986.515 1606.41,987.048 1608.48,987.576 1610.55,988.102 1612.62,988.624 1614.69,989.143 
  1616.76,989.659 1618.83,990.172 1620.91,990.681 1622.98,991.187 1625.05,991.69 1627.12,992.19 1629.19,992.687 1631.26,993.181 1633.33,993.672 1635.4,994.16 
  1637.47,994.644 1639.55,995.126 1641.62,995.605 1643.69,996.08 1645.76,996.553 1647.83,997.023 1649.9,997.49 1651.97,997.954 1654.04,998.415 1656.12,998.873 
  1658.19,999.328 1660.26,999.781 1662.33,1000.23 1664.4,1000.68 1666.47,1001.12 1668.54,1001.56 1670.61,1002 1672.68,1002.44 1674.76,1002.87 1676.83,1003.3 
  1678.9,1003.73 1680.97,1004.15 1683.04,1004.58 1685.11,1005 1687.18,1005.41 1689.25,1005.83 1691.33,1006.24 1693.4,1006.65 1695.47,1007.06 1697.54,1007.46 
  1699.61,1007.86 1701.68,1008.26 1703.75,1008.66 1705.82,1009.05 1707.89,1009.45 1709.97,1009.84 1712.04,1010.22 1714.11,1010.61 1716.18,1010.99 1718.25,1011.37 
  1720.32,1011.75 1722.39,1012.12 1724.46,1012.5 1726.54,1012.87 1728.61,1013.23 1730.68,1013.6 1732.75,1013.96 1734.82,1014.32 1736.89,1014.68 1738.96,1015.04 
  1741.03,1015.4 1743.1,1015.75 1745.18,1016.1 1747.25,1016.45 1749.32,1016.79 1751.39,1017.14 1753.46,1017.48 1755.53,1017.82 1757.6,1018.15 1759.67,1018.49 
  1761.75,1018.82 1763.82,1019.15 1765.89,1019.48 1767.96,1019.81 1770.03,1020.14 1772.1,1020.46 1774.17,1020.78 1776.24,1021.1 1778.31,1021.42 1780.39,1021.73 
  1782.46,1022.04 1784.53,1022.35 1786.6,1022.66 1788.67,1022.97 1790.74,1023.28 1792.81,1023.58 1794.88,1023.88 1796.96,1024.18 1799.03,1024.48 1801.1,1024.78 
  1803.17,1025.07 1805.24,1025.36 1807.31,1025.65 1809.38,1025.94 1811.45,1026.23 1813.52,1026.51 1815.6,1026.8 1817.67,1027.08 1819.74,1027.36 1821.81,1027.64 
  1823.88,1027.91 1825.95,1028.19 1828.02,1028.46 1830.09,1028.73 1832.17,1029 1834.24,1029.27 1836.31,1029.54 1838.38,1029.8 1840.45,1030.06 1842.52,1030.32 
  1844.59,1030.58 1846.66,1030.84 1848.73,1031.1 1850.81,1031.35 1852.88,1031.61 1854.95,1031.86 1857.02,1032.11 1859.09,1032.36 1861.16,1032.61 1863.23,1032.85 
  1865.3,1033.1 1867.37,1033.34 1869.45,1033.58 1871.52,1033.82 1873.59,1034.06 1875.66,1034.29 1877.73,1034.53 1879.8,1034.76 1881.87,1035 1883.94,1035.23 
  1886.02,1035.46 1888.09,1035.69 1890.16,1035.91 1892.23,1036.14 1894.3,1036.36 1896.37,1036.58 1898.44,1036.81 1900.51,1037.03 1902.58,1037.24 1904.66,1037.46 
  1906.73,1037.68 1908.8,1037.89 1910.87,1038.11 1912.94,1038.32 1915.01,1038.53 1917.08,1038.74 1919.15,1038.95 1921.23,1039.15 1923.3,1039.36 1925.37,1039.56 
  1927.44,1039.76 1929.51,1039.97 1931.58,1040.17 1933.65,1040.37 1935.72,1040.56 1937.79,1040.76 1939.87,1040.96 1941.94,1041.15 1944.01,1041.34 1946.08,1041.54 
  1948.15,1041.73 1950.22,1041.92 1952.29,1042.1 1954.36,1042.29 1956.44,1042.48 1958.51,1042.66 1960.58,1042.85 1962.65,1043.03 1964.72,1043.21 1966.79,1043.39 
  1968.86,1043.57 1970.93,1043.75 1973,1043.92 1975.08,1044.1 1977.15,1044.27 1979.22,1044.45 1981.29,1044.62 1983.36,1044.79 1985.43,1044.96 1987.5,1045.13 
  1989.57,1045.3 1991.65,1045.47 1993.72,1045.63 1995.79,1045.8 1997.86,1045.96 1999.93,1046.13 2002,1046.29 2004.07,1046.45 2006.14,1046.61 2008.21,1046.77 
  2010.29,1046.93 2012.36,1047.08 2014.43,1047.24 2016.5,1047.39 2018.57,1047.55 2020.64,1047.7 2022.71,1047.85 2024.78,1048.01 2026.86,1048.16 2028.93,1048.31 
  2031,1048.45 2033.07,1048.6 2035.14,1048.75 2037.21,1048.89 2039.28,1049.04 2041.35,1049.18 2043.42,1049.33 2045.5,1049.47 2047.57,1049.61 2049.64,1049.75 
  2051.71,1049.89 2053.78,1050.03 2055.85,1050.16 2057.92,1050.3 2059.99,1050.44 2062.07,1050.57 2064.14,1050.71 2066.21,1050.84 2068.28,1050.97 2070.35,1051.11 
  2072.42,1051.24 2074.49,1051.37 2076.56,1051.5 2078.63,1051.62 2080.71,1051.75 2082.78,1051.88 2084.85,1052.01 2086.92,1052.13 2088.99,1052.26 2091.06,1052.38 
  2093.13,1052.5 2095.2,1052.63 2097.28,1052.75 2099.35,1052.87 2101.42,1052.99 2103.49,1053.11 2105.56,1053.23 2107.63,1053.34 2109.7,1053.46 2111.77,1053.58 
  2113.84,1053.69 2115.92,1053.81 2117.99,1053.92 2120.06,1054.04 2122.13,1054.15 2124.2,1054.26 2126.27,1054.37 2128.34,1054.48 2130.41,1054.59 2132.49,1054.7 
  2134.56,1054.81 2136.63,1054.92 2138.7,1055.03 2140.77,1055.14 2142.84,1055.24 2144.91,1055.35 2146.98,1055.45 2149.05,1055.56 2151.13,1055.66 2153.2,1055.76 
  2155.27,1055.87 2157.34,1055.97 2159.41,1056.07 2161.48,1056.17 2163.55,1056.27 2165.62,1056.37 2167.7,1056.47 2169.77,1056.57 2171.84,1056.66 2173.91,1056.76 
  2175.98,1056.86 2178.05,1056.95 2180.12,1057.05 2182.19,1057.14 2184.26,1057.24 2186.34,1057.33 2188.41,1057.42 2190.48,1057.52 2192.55,1057.61 2194.62,1057.7 
  2196.69,1057.79 2198.76,1057.88 2200.83,1057.97 2202.91,1058.06 2204.98,1058.15 2207.05,1058.24 2209.12,1058.33 2211.19,1058.41 2213.26,1058.5 2215.33,1058.59 
  2217.4,1058.67 2219.47,1058.76 2221.55,1058.84 2223.62,1058.92 2225.69,1059.01 2227.76,1059.09 2229.83,1059.17 2231.9,1059.26 2233.97,1059.34 2236.04,1059.42 
  2238.12,1059.5 2240.19,1059.58 2242.26,1059.66 2244.33,1059.74 2246.4,1059.82 2248.47,1059.89 2250.54,1059.97 2252.61,1060.05 2254.68,1060.13 2256.76,1060.2 
  
  "/>
<polyline clip-path="url(#clip542)" style="stroke:#e26f46; stroke-width:4; stroke-opacity:1; fill:none" points="
  187.652,1310.16 189.723,1310.04 191.794,1309.92 193.865,1309.79 195.937,1309.66 198.008,1309.54 200.079,1309.41 202.15,1309.28 204.221,1309.14 206.293,1309.01 
  208.364,1308.88 210.435,1308.74 212.506,1308.61 214.577,1308.47 216.648,1308.33 218.72,1308.19 220.791,1308.05 222.862,1307.9 224.933,1307.76 227.004,1307.61 
  229.075,1307.47 231.147,1307.32 233.218,1307.17 235.289,1307.02 237.36,1306.86 239.431,1306.71 241.503,1306.55 243.574,1306.4 245.645,1306.24 247.716,1306.08 
  249.787,1305.92 251.858,1305.75 253.93,1305.59 256.001,1305.42 258.072,1305.26 260.143,1305.09 262.214,1304.92 264.285,1304.75 266.357,1304.57 268.428,1304.4 
  270.499,1304.22 272.57,1304.04 274.641,1303.86 276.712,1303.68 278.784,1303.5 280.855,1303.31 282.926,1303.13 284.997,1302.94 287.068,1302.75 289.14,1302.56 
  291.211,1302.36 293.282,1302.17 295.353,1301.97 297.424,1301.77 299.495,1301.57 301.567,1301.37 303.638,1301.17 305.709,1300.96 307.78,1300.76 309.851,1300.55 
  311.922,1300.33 313.994,1300.12 316.065,1299.91 318.136,1299.69 320.207,1299.47 322.278,1299.25 324.35,1299.03 326.421,1298.8 328.492,1298.58 330.563,1298.35 
  332.634,1298.12 334.705,1297.89 336.777,1297.65 338.848,1297.42 340.919,1297.18 342.99,1296.94 345.061,1296.7 347.132,1296.45 349.204,1296.21 351.275,1295.96 
  353.346,1295.71 355.417,1295.45 357.488,1295.2 359.559,1294.94 361.631,1294.68 363.702,1294.42 365.773,1294.16 367.844,1293.89 369.915,1293.62 371.987,1293.35 
  374.058,1293.08 376.129,1292.81 378.2,1292.53 380.271,1292.25 382.342,1291.97 384.414,1291.68 386.485,1291.4 388.556,1291.11 390.627,1290.82 392.698,1290.52 
  394.769,1290.23 396.841,1289.93 398.912,1289.63 400.983,1289.33 403.054,1289.02 405.125,1288.71 407.197,1288.4 409.268,1288.09 411.339,1287.77 413.41,1287.46 
  415.481,1287.14 417.552,1286.81 419.624,1286.49 421.695,1286.16 423.766,1285.83 425.837,1285.5 427.908,1285.16 429.979,1284.82 432.051,1284.48 434.122,1284.14 
  436.193,1283.79 438.264,1283.44 440.335,1283.09 442.406,1282.74 444.478,1282.38 446.549,1282.02 448.62,1281.66 450.691,1281.29 452.762,1280.93 454.834,1280.56 
  456.905,1280.18 458.976,1279.81 461.047,1279.43 463.118,1279.05 465.189,1278.66 467.261,1278.28 469.332,1277.89 471.403,1277.49 473.474,1277.1 475.545,1276.7 
  477.616,1276.3 479.688,1275.9 481.759,1275.49 483.83,1275.08 485.901,1274.67 487.972,1274.25 490.044,1273.83 492.115,1273.41 494.186,1272.99 496.257,1272.56 
  498.328,1272.13 500.399,1271.7 502.471,1271.26 504.542,1270.82 506.613,1270.38 508.684,1269.94 510.755,1269.49 512.826,1269.04 514.898,1268.58 516.969,1268.13 
  519.04,1267.67 521.111,1267.21 523.182,1266.74 525.253,1266.27 527.325,1265.8 529.396,1265.33 531.467,1264.85 533.538,1264.37 535.609,1263.89 537.681,1263.4 
  539.752,1262.91 541.823,1262.42 543.894,1261.92 545.965,1261.42 548.036,1260.92 550.108,1260.42 552.179,1259.91 554.25,1259.4 556.321,1258.89 558.392,1258.37 
  560.463,1257.85 562.535,1257.33 564.606,1256.81 566.677,1256.28 568.748,1255.75 570.819,1255.21 572.891,1254.68 574.962,1254.14 577.033,1253.59 579.104,1253.05 
  581.175,1252.5 583.246,1251.95 585.318,1251.39 587.389,1250.84 589.46,1250.28 591.531,1249.71 593.602,1249.15 595.673,1248.58 597.745,1248.01 599.816,1247.43 
  601.887,1246.86 603.958,1246.28 606.029,1245.69 608.101,1245.11 610.172,1244.52 612.243,1243.93 614.314,1243.34 616.385,1242.74 618.456,1242.14 620.528,1241.54 
  622.599,1240.93 624.67,1240.33 626.741,1239.72 628.812,1239.11 630.883,1238.49 632.955,1237.87 635.026,1237.25 637.097,1236.63 639.168,1236.01 641.239,1235.38 
  643.31,1234.75 645.382,1234.12 647.453,1233.48 649.524,1232.85 651.595,1232.21 653.666,1231.57 655.738,1230.92 657.809,1230.28 659.88,1229.63 661.951,1228.98 
  664.022,1228.33 666.093,1227.67 668.165,1227.01 670.236,1226.36 672.307,1225.7 674.378,1225.03 676.449,1224.37 678.52,1223.7 680.592,1223.03 682.663,1222.36 
  684.734,1221.69 686.805,1221.02 688.876,1220.34 690.948,1219.67 693.019,1218.99 695.09,1218.31 697.161,1217.62 699.232,1216.94 701.303,1216.26 703.375,1215.57 
  705.446,1214.88 707.517,1214.19 709.588,1213.5 711.659,1212.81 713.73,1212.12 715.802,1211.42 717.873,1210.73 719.944,1210.03 722.015,1209.34 724.086,1208.64 
  726.157,1207.94 728.229,1207.24 730.3,1206.54 732.371,1205.84 734.442,1205.13 736.513,1204.43 738.585,1203.73 740.656,1203.02 742.727,1202.32 744.798,1201.61 
  746.869,1200.91 748.94,1200.2 751.012,1199.49 753.083,1198.79 755.154,1198.08 757.225,1197.38 759.296,1196.67 761.367,1195.96 763.439,1195.25 765.51,1194.55 
  767.581,1193.84 769.652,1193.13 771.723,1192.43 773.795,1191.72 775.866,1191.02 777.937,1190.31 780.008,1189.61 782.079,1188.9 784.15,1188.2 786.222,1187.5 
  788.293,1186.8 790.364,1186.1 792.435,1185.4 794.506,1184.7 796.577,1184 798.649,1183.31 800.72,1182.61 802.791,1181.92 804.862,1181.22 806.933,1180.53 
  809.004,1179.84 811.076,1179.16 813.147,1178.47 815.218,1177.78 817.289,1177.1 819.36,1176.42 821.432,1175.74 823.503,1175.06 825.574,1174.39 827.645,1173.72 
  829.716,1173.04 831.787,1172.38 833.859,1171.71 835.93,1171.05 838.001,1170.38 840.072,1169.72 842.143,1169.07 844.214,1168.41 846.286,1167.76 848.357,1167.11 
  850.428,1166.47 852.499,1165.82 854.57,1165.18 856.642,1164.55 858.713,1163.91 860.784,1163.28 862.855,1162.65 864.926,1162.03 866.997,1161.41 869.069,1160.79 
  871.14,1160.17 873.211,1159.56 875.282,1158.96 877.353,1158.35 879.424,1157.75 881.496,1157.16 883.567,1156.56 885.638,1155.97 887.709,1155.39 889.78,1154.81 
  891.851,1154.23 893.923,1153.66 895.994,1153.09 898.065,1152.52 900.136,1151.96 902.207,1151.41 904.279,1150.86 906.35,1150.31 908.421,1149.77 910.492,1149.23 
  912.563,1148.7 914.634,1148.17 916.706,1147.64 918.777,1147.13 920.848,1146.61 922.919,1146.1 924.99,1145.6 927.061,1145.1 929.133,1144.61 931.204,1144.12 
  933.275,1143.63 935.346,1143.16 937.417,1142.68 939.489,1142.21 941.56,1141.75 943.631,1141.3 945.702,1140.84 947.773,1140.4 949.844,1139.96 951.916,1139.52 
  953.987,1139.09 956.058,1138.67 958.129,1138.25 960.2,1137.84 962.271,1137.43 964.343,1137.03 966.414,1136.64 968.485,1136.25 970.556,1135.87 972.627,1135.49 
  974.699,1135.12 976.77,1134.75 978.841,1134.39 980.912,1134.04 982.983,1133.69 985.054,1133.35 987.126,1133.02 989.197,1132.69 991.268,1132.37 993.339,1132.05 
  995.41,1131.74 997.481,1131.44 999.553,1131.14 1001.62,1130.85 1003.69,1130.57 1005.77,1130.29 1007.84,1130.02 1009.91,1129.75 1011.98,1129.49 1014.05,1129.24 
  1016.12,1129 1018.19,1128.76 1020.26,1128.52 1022.34,1128.3 1024.41,1128.08 1026.48,1127.86 1028.55,1127.66 1030.62,1127.46 1032.69,1127.26 1034.76,1127.08 
  1036.83,1126.89 1038.9,1126.72 1040.98,1126.55 1043.05,1126.39 1045.12,1126.24 1047.19,1126.09 1049.26,1125.95 1051.33,1125.81 1053.4,1125.68 1055.47,1125.56 
  1057.55,1125.45 1059.62,1125.34 1061.69,1125.23 1063.76,1125.14 1065.83,1125.05 1067.9,1124.97 1069.97,1124.89 1072.04,1124.82 1074.11,1124.76 1076.19,1124.7 
  1078.26,1124.65 1080.33,1124.6 1082.4,1124.57 1084.47,1124.54 1086.54,1124.51 1088.61,1124.49 1090.68,1124.48 1092.76,1124.48 1094.83,1124.48 1096.9,1124.48 
  1098.97,1124.5 1101.04,1124.51 1103.11,1124.54 1105.18,1124.57 1107.25,1124.61 1109.32,1124.65 1111.4,1124.7 1113.47,1124.76 1115.54,1124.82 1117.61,1124.89 
  1119.68,1124.97 1121.75,1125.05 1123.82,1125.13 1125.89,1125.23 1127.97,1125.32 1130.04,1125.43 1132.11,1125.54 1134.18,1125.65 1136.25,1125.77 1138.32,1125.9 
  1140.39,1126.03 1142.46,1126.17 1144.53,1126.32 1146.61,1126.47 1148.68,1126.62 1150.75,1126.78 1152.82,1126.95 1154.89,1127.12 1156.96,1127.3 1159.03,1127.48 
  1161.1,1127.67 1163.18,1127.87 1165.25,1128.07 1167.32,1128.27 1169.39,1128.48 1171.46,1128.69 1173.53,1128.91 1175.6,1129.14 1177.67,1129.37 1179.74,1129.6 
  1181.82,1129.84 1183.89,1130.08 1185.96,1130.33 1188.03,1130.59 1190.1,1130.85 1192.17,1131.11 1194.24,1131.38 1196.31,1131.65 1198.39,1131.93 1200.46,1132.21 
  1202.53,1132.5 1204.6,1132.79 1206.67,1133.08 1208.74,1133.38 1210.81,1133.68 1212.88,1133.99 1214.95,1134.31 1217.03,1134.62 1219.1,1134.94 1221.17,1135.27 
  1223.24,1135.6 1225.31,1135.93 1227.38,1136.27 1229.45,1136.61 1231.52,1136.95 1233.6,1137.3 1235.67,1137.65 1237.74,1138.01 1239.81,1138.37 1241.88,1138.73 
  1243.95,1139.1 1246.02,1139.47 1248.09,1139.84 1250.16,1140.22 1252.24,1140.6 1254.31,1140.99 1256.38,1141.37 1258.45,1141.77 1260.52,1142.16 1262.59,1142.56 
  1264.66,1142.96 1266.73,1143.36 1268.81,1143.77 1270.88,1144.18 1272.95,1144.59 1275.02,1145.01 1277.09,1145.43 1279.16,1145.85 1281.23,1146.28 1283.3,1146.7 
  1285.37,1147.13 1287.45,1147.57 1289.52,1148 1291.59,1148.44 1293.66,1148.88 1295.73,1149.32 1297.8,1149.77 1299.87,1150.22 1301.94,1150.67 1304.02,1151.12 
  1306.09,1151.58 1308.16,1152.04 1310.23,1152.49 1312.3,1152.96 1314.37,1153.42 1316.44,1153.89 1318.51,1154.35 1320.58,1154.82 1322.66,1155.3 1324.73,1155.77 
  1326.8,1156.25 1328.87,1156.72 1330.94,1157.2 1333.01,1157.68 1335.08,1158.17 1337.15,1158.65 1339.23,1159.13 1341.3,1159.62 1343.37,1160.11 1345.44,1160.6 
  1347.51,1161.09 1349.58,1161.58 1351.65,1162.08 1353.72,1162.57 1355.79,1163.07 1357.87,1163.57 1359.94,1164.07 1362.01,1164.57 1364.08,1165.07 1366.15,1165.57 
  1368.22,1166.08 1370.29,1166.58 1372.36,1167.09 1374.44,1167.59 1376.51,1168.1 1378.58,1168.61 1380.65,1169.12 1382.72,1169.63 1384.79,1170.14 1386.86,1170.65 
  1388.93,1171.16 1391,1171.68 1393.08,1172.19 1395.15,1172.7 1397.22,1173.22 1399.29,1173.73 1401.36,1174.25 1403.43,1174.77 1405.5,1175.28 1407.57,1175.8 
  1409.65,1176.32 1411.72,1176.84 1413.79,1177.36 1415.86,1177.88 1417.93,1178.4 1420,1178.92 1422.07,1179.43 1424.14,1179.95 1426.21,1180.48 1428.29,1181 
  1430.36,1181.52 1432.43,1182.04 1434.5,1182.56 1436.57,1183.08 1438.64,1183.6 1440.71,1184.12 1442.78,1184.64 1444.86,1185.16 1446.93,1185.68 1449,1186.2 
  1451.07,1186.72 1453.14,1187.24 1455.21,1187.76 1457.28,1188.28 1459.35,1188.8 1461.42,1189.32 1463.5,1189.84 1465.57,1190.36 1467.64,1190.88 1469.71,1191.4 
  1471.78,1191.91 1473.85,1192.43 1475.92,1192.95 1477.99,1193.47 1480.07,1193.98 1482.14,1194.5 1484.21,1195.01 1486.28,1195.53 1488.35,1196.04 1490.42,1196.56 
  1492.49,1197.07 1494.56,1197.58 1496.63,1198.09 1498.71,1198.6 1500.78,1199.11 1502.85,1199.62 1504.92,1200.13 1506.99,1200.64 1509.06,1201.15 1511.13,1201.66 
  1513.2,1202.16 1515.28,1202.67 1517.35,1203.17 1519.42,1203.68 1521.49,1204.18 1523.56,1204.68 1525.63,1205.18 1527.7,1205.68 1529.77,1206.18 1531.84,1206.68 
  1533.92,1207.18 1535.99,1207.68 1538.06,1208.17 1540.13,1208.67 1542.2,1209.16 1544.27,1209.66 1546.34,1210.15 1548.41,1210.64 1550.49,1211.13 1552.56,1211.62 
  1554.63,1212.11 1556.7,1212.59 1558.77,1213.08 1560.84,1213.56 1562.91,1214.05 1564.98,1214.53 1567.05,1215.01 1569.13,1215.49 1571.2,1215.97 1573.27,1216.45 
  1575.34,1216.93 1577.41,1217.4 1579.48,1217.88 1581.55,1218.35 1583.62,1218.82 1585.7,1219.29 1587.77,1219.76 1589.84,1220.23 1591.91,1220.7 1593.98,1221.16 
  1596.05,1221.63 1598.12,1222.09 1600.19,1222.55 1602.26,1223.02 1604.34,1223.48 1606.41,1223.93 1608.48,1224.39 1610.55,1224.85 1612.62,1225.3 1614.69,1225.76 
  1616.76,1226.21 1618.83,1226.66 1620.91,1227.11 1622.98,1227.56 1625.05,1228 1627.12,1228.45 1629.19,1228.89 1631.26,1229.33 1633.33,1229.78 1635.4,1230.22 
  1637.47,1230.65 1639.55,1231.09 1641.62,1231.53 1643.69,1231.96 1645.76,1232.39 1647.83,1232.83 1649.9,1233.26 1651.97,1233.69 1654.04,1234.11 1656.12,1234.54 
  1658.19,1234.96 1660.26,1235.39 1662.33,1235.81 1664.4,1236.23 1666.47,1236.65 1668.54,1237.07 1670.61,1237.48 1672.68,1237.9 1674.76,1238.31 1676.83,1238.72 
  1678.9,1239.13 1680.97,1239.54 1683.04,1239.95 1685.11,1240.35 1687.18,1240.76 1689.25,1241.16 1691.33,1241.56 1693.4,1241.97 1695.47,1242.36 1697.54,1242.76 
  1699.61,1243.16 1701.68,1243.55 1703.75,1243.95 1705.82,1244.34 1707.89,1244.73 1709.97,1245.12 1712.04,1245.5 1714.11,1245.89 1716.18,1246.27 1718.25,1246.66 
  1720.32,1247.04 1722.39,1247.42 1724.46,1247.8 1726.54,1248.17 1728.61,1248.55 1730.68,1248.92 1732.75,1249.3 1734.82,1249.67 1736.89,1250.04 1738.96,1250.41 
  1741.03,1250.77 1743.1,1251.14 1745.18,1251.5 1747.25,1251.87 1749.32,1252.23 1751.39,1252.59 1753.46,1252.94 1755.53,1253.3 1757.6,1253.66 1759.67,1254.01 
  1761.75,1254.36 1763.82,1254.71 1765.89,1255.06 1767.96,1255.41 1770.03,1255.76 1772.1,1256.1 1774.17,1256.45 1776.24,1256.79 1778.31,1257.13 1780.39,1257.47 
  1782.46,1257.81 1784.53,1258.14 1786.6,1258.48 1788.67,1258.81 1790.74,1259.14 1792.81,1259.47 1794.88,1259.8 1796.96,1260.13 1799.03,1260.46 1801.1,1260.78 
  1803.17,1261.11 1805.24,1261.43 1807.31,1261.75 1809.38,1262.07 1811.45,1262.39 1813.52,1262.7 1815.6,1263.02 1817.67,1263.33 1819.74,1263.65 1821.81,1263.96 
  1823.88,1264.27 1825.95,1264.58 1828.02,1264.88 1830.09,1265.19 1832.17,1265.49 1834.24,1265.79 1836.31,1266.1 1838.38,1266.4 1840.45,1266.7 1842.52,1266.99 
  1844.59,1267.29 1846.66,1267.58 1848.73,1267.88 1850.81,1268.17 1852.88,1268.46 1854.95,1268.75 1857.02,1269.04 1859.09,1269.32 1861.16,1269.61 1863.23,1269.89 
  1865.3,1270.18 1867.37,1270.46 1869.45,1270.74 1871.52,1271.02 1873.59,1271.3 1875.66,1271.57 1877.73,1271.85 1879.8,1272.12 1881.87,1272.39 1883.94,1272.67 
  1886.02,1272.94 1888.09,1273.2 1890.16,1273.47 1892.23,1273.74 1894.3,1274 1896.37,1274.27 1898.44,1274.53 1900.51,1274.79 1902.58,1275.05 1904.66,1275.31 
  1906.73,1275.57 1908.8,1275.82 1910.87,1276.08 1912.94,1276.33 1915.01,1276.59 1917.08,1276.84 1919.15,1277.09 1921.23,1277.34 1923.3,1277.58 1925.37,1277.83 
  1927.44,1278.08 1929.51,1278.32 1931.58,1278.56 1933.65,1278.81 1935.72,1279.05 1937.79,1279.29 1939.87,1279.53 1941.94,1279.76 1944.01,1280 1946.08,1280.23 
  1948.15,1280.47 1950.22,1280.7 1952.29,1280.93 1954.36,1281.16 1956.44,1281.39 1958.51,1281.62 1960.58,1281.85 1962.65,1282.07 1964.72,1282.3 1966.79,1282.52 
  1968.86,1282.74 1970.93,1282.96 1973,1283.18 1975.08,1283.4 1977.15,1283.62 1979.22,1283.84 1981.29,1284.05 1983.36,1284.27 1985.43,1284.48 1987.5,1284.69 
  1989.57,1284.91 1991.65,1285.12 1993.72,1285.33 1995.79,1285.53 1997.86,1285.74 1999.93,1285.95 2002,1286.15 2004.07,1286.36 2006.14,1286.56 2008.21,1286.76 
  2010.29,1286.96 2012.36,1287.16 2014.43,1287.36 2016.5,1287.56 2018.57,1287.75 2020.64,1287.95 2022.71,1288.14 2024.78,1288.34 2026.86,1288.53 2028.93,1288.72 
  2031,1288.91 2033.07,1289.1 2035.14,1289.29 2037.21,1289.48 2039.28,1289.66 2041.35,1289.85 2043.42,1290.03 2045.5,1290.22 2047.57,1290.4 2049.64,1290.58 
  2051.71,1290.76 2053.78,1290.94 2055.85,1291.12 2057.92,1291.3 2059.99,1291.48 2062.07,1291.65 2064.14,1291.83 2066.21,1292 2068.28,1292.17 2070.35,1292.35 
  2072.42,1292.52 2074.49,1292.69 2076.56,1292.86 2078.63,1293.03 2080.71,1293.19 2082.78,1293.36 2084.85,1293.53 2086.92,1293.69 2088.99,1293.85 2091.06,1294.02 
  2093.13,1294.18 2095.2,1294.34 2097.28,1294.5 2099.35,1294.66 2101.42,1294.82 2103.49,1294.98 2105.56,1295.14 2107.63,1295.29 2109.7,1295.45 2111.77,1295.6 
  2113.84,1295.75 2115.92,1295.91 2117.99,1296.06 2120.06,1296.21 2122.13,1296.36 2124.2,1296.51 2126.27,1296.66 2128.34,1296.81 2130.41,1296.95 2132.49,1297.1 
  2134.56,1297.25 2136.63,1297.39 2138.7,1297.53 2140.77,1297.68 2142.84,1297.82 2144.91,1297.96 2146.98,1298.1 2149.05,1298.24 2151.13,1298.38 2153.2,1298.52 
  2155.27,1298.66 2157.34,1298.79 2159.41,1298.93 2161.48,1299.07 2163.55,1299.2 2165.62,1299.33 2167.7,1299.47 2169.77,1299.6 2171.84,1299.73 2173.91,1299.86 
  2175.98,1299.99 2178.05,1300.12 2180.12,1300.25 2182.19,1300.38 2184.26,1300.51 2186.34,1300.64 2188.41,1300.76 2190.48,1300.89 2192.55,1301.01 2194.62,1301.14 
  2196.69,1301.26 2198.76,1301.38 2200.83,1301.51 2202.91,1301.63 2204.98,1301.75 2207.05,1301.87 2209.12,1301.99 2211.19,1302.11 2213.26,1302.23 2215.33,1302.34 
  2217.4,1302.46 2219.47,1302.58 2221.55,1302.69 2223.62,1302.81 2225.69,1302.92 2227.76,1303.04 2229.83,1303.15 2231.9,1303.26 2233.97,1303.38 2236.04,1303.49 
  2238.12,1303.6 2240.19,1303.71 2242.26,1303.82 2244.33,1303.93 2246.4,1304.03 2248.47,1304.14 2250.54,1304.25 2252.61,1304.36 2254.68,1304.46 2256.76,1304.57 
  
  "/>
<polyline clip-path="url(#clip542)" style="stroke:#3da44d; stroke-width:4; stroke-opacity:1; fill:none" points="
  187.652,1322.67 189.723,1322.55 191.794,1322.42 193.865,1322.29 195.937,1322.16 198.008,1322.03 200.079,1321.9 202.15,1321.76 204.221,1321.63 206.293,1321.49 
  208.364,1321.36 210.435,1321.22 212.506,1321.08 214.577,1320.94 216.648,1320.79 218.72,1320.65 220.791,1320.5 222.862,1320.36 224.933,1320.21 227.004,1320.06 
  229.075,1319.91 231.147,1319.75 233.218,1319.6 235.289,1319.44 237.36,1319.28 239.431,1319.13 241.503,1318.97 243.574,1318.8 245.645,1318.64 247.716,1318.47 
  249.787,1318.31 251.858,1318.14 253.93,1317.97 256.001,1317.8 258.072,1317.62 260.143,1317.45 262.214,1317.27 264.285,1317.09 266.357,1316.91 268.428,1316.73 
  270.499,1316.55 272.57,1316.36 274.641,1316.17 276.712,1315.98 278.784,1315.79 280.855,1315.6 282.926,1315.41 284.997,1315.21 287.068,1315.01 289.14,1314.81 
  291.211,1314.61 293.282,1314.4 295.353,1314.2 297.424,1313.99 299.495,1313.78 301.567,1313.57 303.638,1313.35 305.709,1313.14 307.78,1312.92 309.851,1312.7 
  311.922,1312.48 313.994,1312.25 316.065,1312.02 318.136,1311.79 320.207,1311.56 322.278,1311.33 324.35,1311.09 326.421,1310.86 328.492,1310.62 330.563,1310.37 
  332.634,1310.13 334.705,1309.88 336.777,1309.63 338.848,1309.38 340.919,1309.13 342.99,1308.87 345.061,1308.61 347.132,1308.35 349.204,1308.09 351.275,1307.82 
  353.346,1307.55 355.417,1307.28 357.488,1307.01 359.559,1306.73 361.631,1306.45 363.702,1306.17 365.773,1305.89 367.844,1305.6 369.915,1305.31 371.987,1305.02 
  374.058,1304.72 376.129,1304.43 378.2,1304.13 380.271,1303.82 382.342,1303.52 384.414,1303.21 386.485,1302.9 388.556,1302.58 390.627,1302.27 392.698,1301.94 
  394.769,1301.62 396.841,1301.3 398.912,1300.97 400.983,1300.63 403.054,1300.3 405.125,1299.96 407.197,1299.62 409.268,1299.27 411.339,1298.93 413.41,1298.58 
  415.481,1298.22 417.552,1297.86 419.624,1297.5 421.695,1297.14 423.766,1296.77 425.837,1296.4 427.908,1296.03 429.979,1295.65 432.051,1295.27 434.122,1294.89 
  436.193,1294.5 438.264,1294.11 440.335,1293.71 442.406,1293.32 444.478,1292.91 446.549,1292.51 448.62,1292.1 450.691,1291.69 452.762,1291.27 454.834,1290.85 
  456.905,1290.43 458.976,1290 461.047,1289.57 463.118,1289.14 465.189,1288.7 467.261,1288.26 469.332,1287.81 471.403,1287.36 473.474,1286.9 475.545,1286.45 
  477.616,1285.98 479.688,1285.52 481.759,1285.05 483.83,1284.57 485.901,1284.09 487.972,1283.61 490.044,1283.13 492.115,1282.63 494.186,1282.14 496.257,1281.64 
  498.328,1281.14 500.399,1280.63 502.471,1280.12 504.542,1279.6 506.613,1279.08 508.684,1278.55 510.755,1278.02 512.826,1277.49 514.898,1276.95 516.969,1276.4 
  519.04,1275.86 521.111,1275.3 523.182,1274.75 525.253,1274.18 527.325,1273.62 529.396,1273.04 531.467,1272.47 533.538,1271.89 535.609,1271.3 537.681,1270.71 
  539.752,1270.11 541.823,1269.51 543.894,1268.91 545.965,1268.3 548.036,1267.68 550.108,1267.06 552.179,1266.44 554.25,1265.8 556.321,1265.17 558.392,1264.53 
  560.463,1263.88 562.535,1263.23 564.606,1262.57 566.677,1261.91 568.748,1261.24 570.819,1260.57 572.891,1259.89 574.962,1259.21 577.033,1258.52 579.104,1257.83 
  581.175,1257.13 583.246,1256.42 585.318,1255.71 587.389,1255 589.46,1254.27 591.531,1253.55 593.602,1252.81 595.673,1252.07 597.745,1251.33 599.816,1250.58 
  601.887,1249.82 603.958,1249.06 606.029,1248.29 608.101,1247.52 610.172,1246.74 612.243,1245.96 614.314,1245.16 616.385,1244.37 618.456,1243.56 620.528,1242.76 
  622.599,1241.94 624.67,1241.12 626.741,1240.29 628.812,1239.46 630.883,1238.62 632.955,1237.77 635.026,1236.92 637.097,1236.06 639.168,1235.2 641.239,1234.33 
  643.31,1233.45 645.382,1232.57 647.453,1231.68 649.524,1230.78 651.595,1229.88 653.666,1228.97 655.738,1228.06 657.809,1227.13 659.88,1226.21 661.951,1225.27 
  664.022,1224.33 666.093,1223.38 668.165,1222.43 670.236,1221.47 672.307,1220.5 674.378,1219.53 676.449,1218.55 678.52,1217.56 680.592,1216.56 682.663,1215.56 
  684.734,1214.56 686.805,1213.54 688.876,1212.52 690.948,1211.49 693.019,1210.46 695.09,1209.42 697.161,1208.37 699.232,1207.31 701.303,1206.25 703.375,1205.18 
  705.446,1204.11 707.517,1203.02 709.588,1201.94 711.659,1200.84 713.73,1199.74 715.802,1198.63 717.873,1197.51 719.944,1196.38 722.015,1195.25 724.086,1194.12 
  726.157,1192.97 728.229,1191.82 730.3,1190.66 732.371,1189.49 734.442,1188.32 736.513,1187.14 738.585,1185.95 740.656,1184.76 742.727,1183.56 744.798,1182.35 
  746.869,1181.14 748.94,1179.91 751.012,1178.68 753.083,1177.45 755.154,1176.2 757.225,1174.95 759.296,1173.7 761.367,1172.43 763.439,1171.16 765.51,1169.88 
  767.581,1168.59 769.652,1167.3 771.723,1166 773.795,1164.69 775.866,1163.38 777.937,1162.06 780.008,1160.73 782.079,1159.39 784.15,1158.05 786.222,1156.7 
  788.293,1155.34 790.364,1153.98 792.435,1152.61 794.506,1151.23 796.577,1149.85 798.649,1148.45 800.72,1147.06 802.791,1145.65 804.862,1144.24 806.933,1142.82 
  809.004,1141.39 811.076,1139.96 813.147,1138.52 815.218,1137.07 817.289,1135.62 819.36,1134.16 821.432,1132.69 823.503,1131.22 825.574,1129.74 827.645,1128.25 
  829.716,1126.75 831.787,1125.25 833.859,1123.74 835.93,1122.23 838.001,1120.71 840.072,1119.18 842.143,1117.65 844.214,1116.11 846.286,1114.56 848.357,1113 
  850.428,1111.44 852.499,1109.88 854.57,1108.3 856.642,1106.72 858.713,1105.14 860.784,1103.55 862.855,1101.95 864.926,1100.34 866.997,1098.73 869.069,1097.11 
  871.14,1095.49 873.211,1093.86 875.282,1092.23 877.353,1090.58 879.424,1088.94 881.496,1087.28 883.567,1085.62 885.638,1083.96 887.709,1082.29 889.78,1080.61 
  891.851,1078.93 893.923,1077.24 895.994,1075.54 898.065,1073.84 900.136,1072.14 902.207,1070.42 904.279,1068.71 906.35,1066.98 908.421,1065.26 910.492,1063.52 
  912.563,1061.78 914.634,1060.04 916.706,1058.29 918.777,1056.54 920.848,1054.78 922.919,1053.01 924.99,1051.24 927.061,1049.47 929.133,1047.69 931.204,1045.9 
  933.275,1044.11 935.346,1042.32 937.417,1040.52 939.489,1038.71 941.56,1036.9 943.631,1035.09 945.702,1033.27 947.773,1031.45 949.844,1029.62 951.916,1027.79 
  953.987,1025.96 956.058,1024.12 958.129,1022.27 960.2,1020.42 962.271,1018.57 964.343,1016.71 966.414,1014.85 968.485,1012.99 970.556,1011.12 972.627,1009.25 
  974.699,1007.37 976.77,1005.49 978.841,1003.61 980.912,1001.72 982.983,999.833 985.054,997.939 987.126,996.042 989.197,994.142 991.268,992.239 993.339,990.332 
  995.41,988.423 997.481,986.51 999.553,984.594 1001.62,982.676 1003.69,980.754 1005.77,978.83 1007.84,976.903 1009.91,974.974 1011.98,973.042 1014.05,971.107 
  1016.12,969.17 1018.19,967.23 1020.26,965.288 1022.34,963.344 1024.41,961.398 1026.48,959.449 1028.55,957.499 1030.62,955.546 1032.69,953.591 1034.76,951.635 
  1036.83,949.676 1038.9,947.716 1040.98,945.754 1043.05,943.79 1045.12,941.825 1047.19,939.859 1049.26,937.89 1051.33,935.921 1053.4,933.95 1055.47,931.978 
  1057.55,930.005 1059.62,928.03 1061.69,926.054 1063.76,924.078 1065.83,922.1 1067.9,920.122 1069.97,918.143 1072.04,916.163 1074.11,914.182 1076.19,912.201 
  1078.26,910.219 1080.33,908.236 1082.4,906.253 1084.47,904.27 1086.54,902.287 1088.61,900.303 1090.68,898.319 1092.76,896.335 1094.83,894.351 1096.9,892.367 
  1098.97,890.383 1101.04,888.399 1103.11,886.415 1105.18,884.432 1107.25,882.449 1109.32,880.466 1111.4,878.484 1113.47,876.503 1115.54,874.522 1117.61,872.541 
  1119.68,870.562 1121.75,868.583 1123.82,866.605 1125.89,864.628 1127.97,862.652 1130.04,860.677 1132.11,858.703 1134.18,856.73 1136.25,854.759 1138.32,852.789 
  1140.39,850.82 1142.46,848.852 1144.53,846.886 1146.61,844.921 1148.68,842.958 1150.75,840.996 1152.82,839.036 1154.89,837.078 1156.96,835.121 1159.03,833.167 
  1161.1,831.214 1163.18,829.263 1165.25,827.314 1167.32,825.367 1169.39,823.422 1171.46,821.479 1173.53,819.539 1175.6,817.6 1177.67,815.664 1179.74,813.731 
  1181.82,811.799 1183.89,809.87 1185.96,807.944 1188.03,806.02 1190.1,804.098 1192.17,802.18 1194.24,800.264 1196.31,798.35 1198.39,796.439 1200.46,794.532 
  1202.53,792.627 1204.6,790.724 1206.67,788.825 1208.74,786.929 1210.81,785.036 1212.88,783.146 1214.95,781.258 1217.03,779.375 1219.1,777.494 1221.17,775.616 
  1223.24,773.742 1225.31,771.871 1227.38,770.004 1229.45,768.139 1231.52,766.279 1233.6,764.421 1235.67,762.568 1237.74,760.717 1239.81,758.871 1241.88,757.028 
  1243.95,755.188 1246.02,753.353 1248.09,751.521 1250.16,749.692 1252.24,747.868 1254.31,746.047 1256.38,744.231 1258.45,742.418 1260.52,740.609 1262.59,738.804 
  1264.66,737.003 1266.73,735.206 1268.81,733.413 1270.88,731.624 1272.95,729.84 1275.02,728.059 1277.09,726.283 1279.16,724.511 1281.23,722.743 1283.3,720.979 
  1285.37,719.22 1287.45,717.465 1289.52,715.714 1291.59,713.968 1293.66,712.226 1295.73,710.488 1297.8,708.755 1299.87,707.027 1301.94,705.303 1304.02,703.583 
  1306.09,701.868 1308.16,700.157 1310.23,698.452 1312.3,696.75 1314.37,695.054 1316.44,693.362 1318.51,691.674 1320.58,689.992 1322.66,688.314 1324.73,686.641 
  1326.8,684.973 1328.87,683.309 1330.94,681.65 1333.01,679.996 1335.08,678.347 1337.15,676.703 1339.23,675.063 1341.3,673.429 1343.37,671.799 1345.44,670.174 
  1347.51,668.555 1349.58,666.94 1351.65,665.33 1353.72,663.726 1355.79,662.126 1357.87,660.532 1359.94,658.942 1362.01,657.358 1364.08,655.778 1366.15,654.204 
  1368.22,652.635 1370.29,651.07 1372.36,649.511 1374.44,647.957 1376.51,646.408 1378.58,644.865 1380.65,643.326 1382.72,641.792 1384.79,640.264 1386.86,638.74 
  1388.93,637.222 1391,635.709 1393.08,634.201 1395.15,632.698 1397.22,631.2 1399.29,629.708 1401.36,628.22 1403.43,626.738 1405.5,625.261 1407.57,623.789 
  1409.65,622.322 1411.72,620.86 1413.79,619.404 1415.86,617.953 1417.93,616.506 1420,615.065 1422.07,613.63 1424.14,612.199 1426.21,610.773 1428.29,609.353 
  1430.36,607.938 1432.43,606.528 1434.5,605.123 1436.57,603.724 1438.64,602.329 1440.71,600.94 1442.78,599.556 1444.86,598.177 1446.93,596.803 1449,595.434 
  1451.07,594.071 1453.14,592.713 1455.21,591.36 1457.28,590.012 1459.35,588.669 1461.42,587.332 1463.5,585.999 1465.57,584.672 1467.64,583.35 1469.71,582.033 
  1471.78,580.721 1473.85,579.415 1475.92,578.113 1477.99,576.817 1480.07,575.526 1482.14,574.24 1484.21,572.959 1486.28,571.683 1488.35,570.412 1490.42,569.147 
  1492.49,567.886 1494.56,566.631 1496.63,565.381 1498.71,564.136 1500.78,562.896 1502.85,561.661 1504.92,560.431 1506.99,559.206 1509.06,557.987 1511.13,556.772 
  1513.2,555.563 1515.28,554.358 1517.35,553.159 1519.42,551.965 1521.49,550.775 1523.56,549.591 1525.63,548.412 1527.7,547.238 1529.77,546.069 1531.84,544.904 
  1533.92,543.745 1535.99,542.591 1538.06,541.442 1540.13,540.297 1542.2,539.158 1544.27,538.024 1546.34,536.894 1548.41,535.77 1550.49,534.65 1552.56,533.536 
  1554.63,532.426 1556.7,531.321 1558.77,530.221 1560.84,529.126 1562.91,528.036 1564.98,526.951 1567.05,525.87 1569.13,524.794 1571.2,523.724 1573.27,522.658 
  1575.34,521.596 1577.41,520.54 1579.48,519.488 1581.55,518.441 1583.62,517.399 1585.7,516.362 1587.77,515.329 1589.84,514.301 1591.91,513.278 1593.98,512.259 
  1596.05,511.246 1598.12,510.236 1600.19,509.232 1602.26,508.232 1604.34,507.237 1606.41,506.246 1608.48,505.26 1610.55,504.278 1612.62,503.301 1614.69,502.329 
  1616.76,501.361 1618.83,500.398 1620.91,499.439 1622.98,498.485 1625.05,497.535 1627.12,496.589 1629.19,495.648 1631.26,494.712 1633.33,493.78 1635.4,492.852 
  1637.47,491.929 1639.55,491.01 1641.62,490.096 1643.69,489.186 1645.76,488.28 1647.83,487.379 1649.9,486.481 1651.97,485.589 1654.04,484.7 1656.12,483.816 
  1658.19,482.936 1660.26,482.06 1662.33,481.188 1664.4,480.321 1666.47,479.458 1668.54,478.599 1670.61,477.744 1672.68,476.893 1674.76,476.047 1676.83,475.205 
  1678.9,474.366 1680.97,473.532 1683.04,472.702 1685.11,471.876 1687.18,471.054 1689.25,470.236 1691.33,469.422 1693.4,468.612 1695.47,467.806 1697.54,467.005 
  1699.61,466.207 1701.68,465.413 1703.75,464.623 1705.82,463.836 1707.89,463.054 1709.97,462.276 1712.04,461.501 1714.11,460.731 1716.18,459.964 1718.25,459.201 
  1720.32,458.442 1722.39,457.687 1724.46,456.935 1726.54,456.188 1728.61,455.444 1730.68,454.704 1732.75,453.967 1734.82,453.235 1736.89,452.506 1738.96,451.78 
  1741.03,451.059 1743.1,450.341 1745.18,449.626 1747.25,448.916 1749.32,448.209 1751.39,447.505 1753.46,446.806 1755.53,446.109 1757.6,445.417 1759.67,444.727 
  1761.75,444.042 1763.82,443.36 1765.89,442.681 1767.96,442.006 1770.03,441.335 1772.1,440.666 1774.17,440.002 1776.24,439.341 1778.31,438.683 1780.39,438.028 
  1782.46,437.377 1784.53,436.73 1786.6,436.085 1788.67,435.444 1790.74,434.807 1792.81,434.173 1794.88,433.542 1796.96,432.914 1799.03,432.29 1801.1,431.669 
  1803.17,431.051 1805.24,430.436 1807.31,429.825 1809.38,429.216 1811.45,428.611 1813.52,428.01 1815.6,427.411 1817.67,426.816 1819.74,426.223 1821.81,425.634 
  1823.88,425.048 1825.95,424.465 1828.02,423.885 1830.09,423.308 1832.17,422.734 1834.24,422.163 1836.31,421.595 1838.38,421.031 1840.45,420.469 1842.52,419.91 
  1844.59,419.354 1846.66,418.801 1848.73,418.251 1850.81,417.704 1852.88,417.16 1854.95,416.619 1857.02,416.081 1859.09,415.545 1861.16,415.012 1863.23,414.483 
  1865.3,413.955 1867.37,413.431 1869.45,412.909 1871.52,412.391 1873.59,411.875 1875.66,411.361 1877.73,410.851 1879.8,410.343 1881.87,409.838 1883.94,409.335 
  1886.02,408.835 1888.09,408.338 1890.16,407.844 1892.23,407.352 1894.3,406.863 1896.37,406.376 1898.44,405.892 1900.51,405.411 1902.58,404.932 1904.66,404.456 
  1906.73,403.983 1908.8,403.512 1910.87,403.043 1912.94,402.577 1915.01,402.114 1917.08,401.653 1919.15,401.194 1921.23,400.739 1923.3,400.285 1925.37,399.834 
  1927.44,399.386 1929.51,398.94 1931.58,398.496 1933.65,398.055 1935.72,397.616 1937.79,397.18 1939.87,396.746 1941.94,396.314 1944.01,395.885 1946.08,395.458 
  1948.15,395.034 1950.22,394.612 1952.29,394.192 1954.36,393.774 1956.44,393.359 1958.51,392.946 1960.58,392.536 1962.65,392.127 1964.72,391.721 1966.79,391.317 
  1968.86,390.916 1970.93,390.517 1973,390.119 1975.08,389.725 1977.15,389.332 1979.22,388.941 1981.29,388.553 1983.36,388.167 1985.43,387.783 1987.5,387.401 
  1989.57,387.021 1991.65,386.644 1993.72,386.268 1995.79,385.895 1997.86,385.524 1999.93,385.155 2002,384.788 2004.07,384.423 2006.14,384.06 2008.21,383.699 
  2010.29,383.34 2012.36,382.983 2014.43,382.629 2016.5,382.276 2018.57,381.925 2020.64,381.576 2022.71,381.229 2024.78,380.885 2026.86,380.542 2028.93,380.201 
  2031,379.862 2033.07,379.525 2035.14,379.189 2037.21,378.856 2039.28,378.525 2041.35,378.195 2043.42,377.868 2045.5,377.542 2047.57,377.218 2049.64,376.896 
  2051.71,376.576 2053.78,376.258 2055.85,375.941 2057.92,375.627 2059.99,375.314 2062.07,375.003 2064.14,374.693 2066.21,374.386 2068.28,374.08 2070.35,373.776 
  2072.42,373.474 2074.49,373.173 2076.56,372.874 2078.63,372.577 2080.71,372.282 2082.78,371.988 2084.85,371.696 2086.92,371.405 2088.99,371.117 2091.06,370.83 
  2093.13,370.544 2095.2,370.261 2097.28,369.978 2099.35,369.698 2101.42,369.419 2103.49,369.142 2105.56,368.866 2107.63,368.592 2109.7,368.319 2111.77,368.048 
  2113.84,367.779 2115.92,367.511 2117.99,367.245 2120.06,366.98 2122.13,366.717 2124.2,366.455 2126.27,366.195 2128.34,365.936 2130.41,365.679 2132.49,365.423 
  2134.56,365.169 2136.63,364.916 2138.7,364.664 2140.77,364.414 2142.84,364.166 2144.91,363.919 2146.98,363.673 2149.05,363.428 2151.13,363.185 2153.2,362.944 
  2155.27,362.704 2157.34,362.465 2159.41,362.228 2161.48,361.991 2163.55,361.757 2165.62,361.523 2167.7,361.291 2169.77,361.06 2171.84,360.831 2173.91,360.603 
  2175.98,360.376 2178.05,360.15 2180.12,359.926 2182.19,359.703 2184.26,359.481 2186.34,359.261 2188.41,359.041 2190.48,358.823 2192.55,358.606 2194.62,358.391 
  2196.69,358.176 2198.76,357.963 2200.83,357.751 2202.91,357.54 2204.98,357.331 2207.05,357.122 2209.12,356.915 2211.19,356.708 2213.26,356.503 2215.33,356.299 
  2217.4,356.097 2219.47,355.895 2221.55,355.694 2223.62,355.495 2225.69,355.297 2227.76,355.1 2229.83,354.904 2231.9,354.709 2233.97,354.515 2236.04,354.322 
  2238.12,354.131 2240.19,353.941 2242.26,353.751 2244.33,353.563 2246.4,353.376 2248.47,353.19 2250.54,353.005 2252.61,352.821 2254.68,352.638 2256.76,352.457 
  
  "/>
<path clip-path="url(#clip540)" d="
M1931.7 272.437 L2256.76 272.437 L2256.76 30.5166 L1931.7 30.5166  Z
  " fill="#ffffff" fill-rule="evenodd" fill-opacity="1"/>
<polyline clip-path="url(#clip540)" style="stroke:#000000; stroke-width:4; stroke-opacity:1; fill:none" points="
  1931.7,272.437 2256.76,272.437 2256.76,30.5166 1931.7,30.5166 1931.7,272.437 
  "/>
<polyline clip-path="url(#clip540)" style="stroke:#009af9; stroke-width:4; stroke-opacity:1; fill:none" points="
  1954.74,90.9966 2092.98,90.9966 
  "/>
<path clip-path="url(#clip540)" d="M 0 0 M2116.02 98.0452 L2116.02 82.3508 L2120.28 82.3508 L2120.28 97.8832 Q2120.28 101.564 2121.72 103.416 Q2123.15 105.244 2126.02 105.244 Q2129.47 105.244 2131.46 103.045 Q2133.48 100.846 2133.48 97.0498 L2133.48 82.3508 L2137.74 82.3508 L2137.74 108.277 L2133.48 108.277 L2133.48 104.295 Q2131.93 106.656 2129.87 107.814 Q2127.83 108.948 2125.12 108.948 Q2120.65 108.948 2118.34 106.17 Q2116.02 103.392 2116.02 98.0452 M2126.74 81.7258 L2126.74 81.7258 Z" fill="#000000" fill-rule="evenodd" fill-opacity="1" /><path clip-path="url(#clip540)" d="M 0 0 M2143.62 104.341 L2151.25 104.341 L2151.25 77.9759 L2142.94 79.6425 L2142.94 75.3833 L2151.21 73.7166 L2155.88 73.7166 L2155.88 104.341 L2163.52 104.341 L2163.52 108.277 L2143.62 108.277 L2143.62 104.341 Z" fill="#000000" fill-rule="evenodd" fill-opacity="1" /><path clip-path="url(#clip540)" d="M 0 0 M2178.22 72.3046 Q2175.12 77.6286 2173.62 82.8369 Q2172.11 88.0452 2172.11 93.3924 Q2172.11 98.7396 2173.62 103.994 Q2175.14 109.226 2178.22 114.527 L2174.52 114.527 Q2171.05 109.087 2169.31 103.832 Q2167.6 98.5776 2167.6 93.3924 Q2167.6 88.2304 2169.31 82.999 Q2171.02 77.7675 2174.52 72.3046 L2178.22 72.3046 Z" fill="#000000" fill-rule="evenodd" fill-opacity="1" /><path clip-path="url(#clip540)" d="M 0 0 M2186.9 74.9898 L2186.9 82.3508 L2195.68 82.3508 L2195.68 85.661 L2186.9 85.661 L2186.9 99.735 Q2186.9 102.906 2187.76 103.809 Q2188.64 104.712 2191.3 104.712 L2195.68 104.712 L2195.68 108.277 L2191.3 108.277 Q2186.37 108.277 2184.5 106.448 Q2182.62 104.596 2182.62 99.735 L2182.62 85.661 L2179.5 85.661 L2179.5 82.3508 L2182.62 82.3508 L2182.62 74.9898 L2186.9 74.9898 Z" fill="#000000" fill-rule="evenodd" fill-opacity="1" /><path clip-path="url(#clip540)" d="M 0 0 M2199.47 72.3046 L2203.18 72.3046 Q2206.65 77.7675 2208.36 82.999 Q2210.1 88.2304 2210.1 93.3924 Q2210.1 98.5776 2208.36 103.832 Q2206.65 109.087 2203.18 114.527 L2199.47 114.527 Q2202.55 109.226 2204.06 103.994 Q2205.58 98.7396 2205.58 93.3924 Q2205.58 88.0452 2204.06 82.8369 Q2202.55 77.6286 2199.47 72.3046 Z" fill="#000000" fill-rule="evenodd" fill-opacity="1" /><polyline clip-path="url(#clip540)" style="stroke:#e26f46; stroke-width:4; stroke-opacity:1; fill:none" points="
  1954.74,151.477 2092.98,151.477 
  "/>
<path clip-path="url(#clip540)" d="M 0 0 M2116.02 158.525 L2116.02 142.831 L2120.28 142.831 L2120.28 158.363 Q2120.28 162.044 2121.72 163.896 Q2123.15 165.724 2126.02 165.724 Q2129.47 165.724 2131.46 163.525 Q2133.48 161.326 2133.48 157.53 L2133.48 142.831 L2137.74 142.831 L2137.74 168.757 L2133.48 168.757 L2133.48 164.775 Q2131.93 167.136 2129.87 168.294 Q2127.83 169.428 2125.12 169.428 Q2120.65 169.428 2118.34 166.65 Q2116.02 163.872 2116.02 158.525 M2126.74 142.206 L2126.74 142.206 Z" fill="#000000" fill-rule="evenodd" fill-opacity="1" /><path clip-path="url(#clip540)" d="M 0 0 M2146.83 164.821 L2163.15 164.821 L2163.15 168.757 L2141.21 168.757 L2141.21 164.821 Q2143.87 162.067 2148.45 157.437 Q2153.06 152.784 2154.24 151.442 Q2156.49 148.919 2157.37 147.183 Q2158.27 145.423 2158.27 143.734 Q2158.27 140.979 2156.32 139.243 Q2154.4 137.507 2151.3 137.507 Q2149.1 137.507 2146.65 138.271 Q2144.22 139.035 2141.44 140.585 L2141.44 135.863 Q2144.26 134.729 2146.72 134.15 Q2149.17 133.572 2151.21 133.572 Q2156.58 133.572 2159.77 136.257 Q2162.97 138.942 2162.97 143.433 Q2162.97 145.562 2162.16 147.484 Q2161.37 149.382 2159.26 151.974 Q2158.69 152.646 2155.58 155.863 Q2152.48 159.058 2146.83 164.821 Z" fill="#000000" fill-rule="evenodd" fill-opacity="1" /><path clip-path="url(#clip540)" d="M 0 0 M2177.85 132.785 Q2174.75 138.109 2173.25 143.317 Q2171.74 148.525 2171.74 153.872 Q2171.74 159.22 2173.25 164.474 Q2174.77 169.706 2177.85 175.007 L2174.15 175.007 Q2170.68 169.567 2168.94 164.312 Q2167.23 159.058 2167.23 153.872 Q2167.23 148.71 2168.94 143.479 Q2170.65 138.248 2174.15 132.785 L2177.85 132.785 Z" fill="#000000" fill-rule="evenodd" fill-opacity="1" /><path clip-path="url(#clip540)" d="M 0 0 M2186.53 135.47 L2186.53 142.831 L2195.31 142.831 L2195.31 146.141 L2186.53 146.141 L2186.53 160.215 Q2186.53 163.386 2187.39 164.289 Q2188.27 165.192 2190.93 165.192 L2195.31 165.192 L2195.31 168.757 L2190.93 168.757 Q2186 168.757 2184.13 166.928 Q2182.25 165.076 2182.25 160.215 L2182.25 146.141 L2179.13 146.141 L2179.13 142.831 L2182.25 142.831 L2182.25 135.47 L2186.53 135.47 Z" fill="#000000" fill-rule="evenodd" fill-opacity="1" /><path clip-path="url(#clip540)" d="M 0 0 M2199.1 132.785 L2202.81 132.785 Q2206.28 138.248 2207.99 143.479 Q2209.73 148.71 2209.73 153.872 Q2209.73 159.058 2207.99 164.312 Q2206.28 169.567 2202.81 175.007 L2199.1 175.007 Q2202.18 169.706 2203.69 164.474 Q2205.21 159.22 2205.21 153.872 Q2205.21 148.525 2203.69 143.317 Q2202.18 138.109 2199.1 132.785 Z" fill="#000000" fill-rule="evenodd" fill-opacity="1" /><polyline clip-path="url(#clip540)" style="stroke:#3da44d; stroke-width:4; stroke-opacity:1; fill:none" points="
  1954.74,211.957 2092.98,211.957 
  "/>
<path clip-path="url(#clip540)" d="M 0 0 M2116.02 219.005 L2116.02 203.311 L2120.28 203.311 L2120.28 218.843 Q2120.28 222.524 2121.72 224.376 Q2123.15 226.204 2126.02 226.204 Q2129.47 226.204 2131.46 224.005 Q2133.48 221.806 2133.48 218.01 L2133.48 203.311 L2137.74 203.311 L2137.74 229.237 L2133.48 229.237 L2133.48 225.255 Q2131.93 227.616 2129.87 228.774 Q2127.83 229.908 2125.12 229.908 Q2120.65 229.908 2118.34 227.13 Q2116.02 224.352 2116.02 219.005 M2126.74 202.686 L2126.74 202.686 Z" fill="#000000" fill-rule="evenodd" fill-opacity="1" /><path clip-path="url(#clip540)" d="M 0 0 M2156.97 210.602 Q2160.33 211.32 2162.2 213.589 Q2164.1 215.857 2164.1 219.19 Q2164.1 224.306 2160.58 227.107 Q2157.07 229.908 2150.58 229.908 Q2148.41 229.908 2146.09 229.468 Q2143.8 229.051 2141.35 228.195 L2141.35 223.681 Q2143.29 224.815 2145.61 225.394 Q2147.92 225.973 2150.44 225.973 Q2154.84 225.973 2157.13 224.237 Q2159.45 222.501 2159.45 219.19 Q2159.45 216.135 2157.3 214.422 Q2155.17 212.686 2151.35 212.686 L2147.32 212.686 L2147.32 208.843 L2151.53 208.843 Q2154.98 208.843 2156.81 207.477 Q2158.64 206.089 2158.64 203.496 Q2158.64 200.834 2156.74 199.422 Q2154.87 197.987 2151.35 197.987 Q2149.43 197.987 2147.23 198.403 Q2145.03 198.82 2142.39 199.7 L2142.39 195.533 Q2145.05 194.792 2147.37 194.422 Q2149.7 194.052 2151.76 194.052 Q2157.09 194.052 2160.19 196.482 Q2163.29 198.89 2163.29 203.01 Q2163.29 205.88 2161.65 207.871 Q2160 209.839 2156.97 210.602 Z" fill="#000000" fill-rule="evenodd" fill-opacity="1" /><path clip-path="url(#clip540)" d="M 0 0 M2178.8 193.265 Q2175.7 198.589 2174.19 203.797 Q2172.69 209.005 2172.69 214.352 Q2172.69 219.7 2174.19 224.954 Q2175.72 230.186 2178.8 235.487 L2175.1 235.487 Q2171.63 230.047 2169.89 224.792 Q2168.18 219.538 2168.18 214.352 Q2168.18 209.19 2169.89 203.959 Q2171.6 198.728 2175.1 193.265 L2178.8 193.265 Z" fill="#000000" fill-rule="evenodd" fill-opacity="1" /><path clip-path="url(#clip540)" d="M 0 0 M2187.48 195.95 L2187.48 203.311 L2196.25 203.311 L2196.25 206.621 L2187.48 206.621 L2187.48 220.695 Q2187.48 223.866 2188.34 224.769 Q2189.22 225.672 2191.88 225.672 L2196.25 225.672 L2196.25 229.237 L2191.88 229.237 Q2186.95 229.237 2185.07 227.408 Q2183.2 225.556 2183.2 220.695 L2183.2 206.621 L2180.07 206.621 L2180.07 203.311 L2183.2 203.311 L2183.2 195.95 L2187.48 195.95 Z" fill="#000000" fill-rule="evenodd" fill-opacity="1" /><path clip-path="url(#clip540)" d="M 0 0 M2200.05 193.265 L2203.75 193.265 Q2207.23 198.728 2208.94 203.959 Q2210.68 209.19 2210.68 214.352 Q2210.68 219.538 2208.94 224.792 Q2207.23 230.047 2203.75 235.487 L2200.05 235.487 Q2203.13 230.186 2204.63 224.954 Q2206.16 219.7 2206.16 214.352 Q2206.16 209.005 2204.63 203.797 Q2203.13 198.589 2200.05 193.265 Z" fill="#000000" fill-rule="evenodd" fill-opacity="1" /></svg>
