<?xml version="1.0" encoding="UTF-8" standalone="no"?>
<!DOCTYPE svg PUBLIC "-//W3C//DTD SVG 1.1//EN"
 "http://www.w3.org/Graphics/SVG/1.1/DTD/svg11.dtd">
<!-- Generated by graphviz version 2.44.0 (0)
 -->
<!-- Title: G Pages: 1 -->
<svg width="321pt" height="92pt"
 viewBox="0.00 0.00 321.00 92.00" xmlns="http://www.w3.org/2000/svg" xmlns:xlink="http://www.w3.org/1999/xlink">
<g id="graph0" class="graph" transform="scale(1 1) rotate(0) translate(4 88)">
<title>G</title>
<polygon fill="white" stroke="transparent" points="-4,4 -4,-88 317,-88 317,4 -4,4"/>
<!-- n1p1 -->
<!-- n1p2 -->
<!-- n1p1&#45;&gt;n1p2 -->
<!-- n3 -->
<!-- transmission -->
<g id="n3" class="node">
<title>n3</title>
<polygon fill="none" stroke="black" points="47.5,-18 47.5,-66 150.5,-66 150.5,-18 47.5,-18"/>
<text text-anchor="start" x="52.5" y="-38.3" font-family="Serif" font-size="14.00">transmission</text>
</g>
<!-- n1p1&#45;&gt;n3 -->
<!-- S -->
<g id="e1" class="edge">
<title>n1p1:e&#45;&gt;n3:w</title>
<path fill="none" stroke="black" d="M1,-72C21.07,-72 24.54,-56.96 41.75,-54.38"/>
<polygon fill="black" stroke="black" points="42.14,-56.1 47,-54 41.89,-52.61 42.14,-56.1"/>
<text text-anchor="middle" x="24" y="-69.8" font-family="Serif" font-size="14.00">S</text>
</g>
<!-- n1p2&#45;&gt;n3 -->
<!-- I -->
<g id="e2" class="edge">
<title>n1p2:e&#45;&gt;n3:w</title>
<path fill="none" stroke="black" d="M1,-12C21.07,-12 24.54,-27.04 41.75,-29.62"/>
<polygon fill="black" stroke="black" points="41.89,-31.39 47,-30 42.14,-27.9 41.89,-31.39"/>
<text text-anchor="middle" x="24" y="-27.8" font-family="Serif" font-size="14.00">I</text>
</g>
<!-- n2p1 -->
<!-- n4 -->
<!-- recovery -->
<g id="n4" class="node">
<title>n4</title>
<polygon fill="none" stroke="black" points="192.5,-30 192.5,-55 265.5,-55 265.5,-30 192.5,-30"/>
<text text-anchor="start" x="197.5" y="-38.8" font-family="Serif" font-size="14.00">recovery</text>
</g>
<!-- n3&#45;&gt;n4 -->
<!-- I -->
<g id="e3" class="edge">
<title>n3:e&#45;&gt;n4:w</title>
<path fill="none" stroke="black" d="M150,-42C166.77,-42 172.24,-42 186.72,-42"/>
<polygon fill="black" stroke="black" points="187,-43.75 192,-42 187,-40.25 187,-43.75"/>
<text text-anchor="middle" x="171" y="-45.8" font-family="Serif" font-size="14.00">I</text>
</g>
<!-- n4&#45;&gt;n2p1 -->
<!-- R -->
<g id="e4" class="edge">
<title>n4:e&#45;&gt;n2p1:w</title>
<path fill="none" stroke="black" d="M265,-42C284.09,-42 290.1,-42 306.94,-42"/>
<polygon fill="black" stroke="black" points="307,-43.75 312,-42 307,-40.25 307,-43.75"/>
<text text-anchor="middle" x="288.5" y="-45.8" font-family="Serif" font-size="14.00">R</text>
</g>
</g>
</svg>
