<?xml version="1.0" encoding="utf-8"?>
<svg xmlns="http://www.w3.org/2000/svg" xmlns:xlink="http://www.w3.org/1999/xlink" width="576" height="384" viewBox="0 0 2304 1536">
<defs>
  <clipPath id="clip110">
    <rect x="0" y="0" width="2304" height="1536"/>
  </clipPath>
</defs>
<path clip-path="url(#clip110)" d="
M0 1536 L2304 1536 L2304 0 L0 0  Z
  " fill="#ffffff" fill-rule="evenodd" fill-opacity="1"/>
<defs>
  <clipPath id="clip111">
    <rect x="460" y="0" width="1614" height="1536"/>
  </clipPath>
</defs>
<path clip-path="url(#clip110)" d="
M250.92 1359.82 L2256.76 1359.82 L2256.76 47.2441 L250.92 47.2441  Z
  " fill="#ffffff" fill-rule="evenodd" fill-opacity="1"/>
<defs>
  <clipPath id="clip112">
    <rect x="250" y="47" width="2007" height="1314"/>
  </clipPath>
</defs>
<polyline clip-path="url(#clip112)" style="stroke:#000000; stroke-width:2; stroke-opacity:0.1; fill:none" points="
  307.689,1359.82 307.689,47.2441 
  "/>
<polyline clip-path="url(#clip112)" style="stroke:#000000; stroke-width:2; stroke-opacity:0.1; fill:none" points="
  780.763,1359.82 780.763,47.2441 
  "/>
<polyline clip-path="url(#clip112)" style="stroke:#000000; stroke-width:2; stroke-opacity:0.1; fill:none" points="
  1253.84,1359.82 1253.84,47.2441 
  "/>
<polyline clip-path="url(#clip112)" style="stroke:#000000; stroke-width:2; stroke-opacity:0.1; fill:none" points="
  1726.91,1359.82 1726.91,47.2441 
  "/>
<polyline clip-path="url(#clip112)" style="stroke:#000000; stroke-width:2; stroke-opacity:0.1; fill:none" points="
  2199.99,1359.82 2199.99,47.2441 
  "/>
<polyline clip-path="url(#clip112)" style="stroke:#000000; stroke-width:2; stroke-opacity:0.1; fill:none" points="
  250.92,1322.56 2256.76,1322.56 
  "/>
<polyline clip-path="url(#clip112)" style="stroke:#000000; stroke-width:2; stroke-opacity:0.1; fill:none" points="
  250.92,1009.89 2256.76,1009.89 
  "/>
<polyline clip-path="url(#clip112)" style="stroke:#000000; stroke-width:2; stroke-opacity:0.1; fill:none" points="
  250.92,697.222 2256.76,697.222 
  "/>
<polyline clip-path="url(#clip112)" style="stroke:#000000; stroke-width:2; stroke-opacity:0.1; fill:none" points="
  250.92,384.554 2256.76,384.554 
  "/>
<polyline clip-path="url(#clip112)" style="stroke:#000000; stroke-width:2; stroke-opacity:0.1; fill:none" points="
  250.92,71.8857 2256.76,71.8857 
  "/>
<polyline clip-path="url(#clip110)" style="stroke:#000000; stroke-width:4; stroke-opacity:1; fill:none" points="
  250.92,1359.82 2256.76,1359.82 
  "/>
<polyline clip-path="url(#clip110)" style="stroke:#000000; stroke-width:4; stroke-opacity:1; fill:none" points="
  250.92,1359.82 250.92,47.2441 
  "/>
<polyline clip-path="url(#clip110)" style="stroke:#000000; stroke-width:4; stroke-opacity:1; fill:none" points="
  307.689,1359.82 307.689,1344.07 
  "/>
<polyline clip-path="url(#clip110)" style="stroke:#000000; stroke-width:4; stroke-opacity:1; fill:none" points="
  780.763,1359.82 780.763,1344.07 
  "/>
<polyline clip-path="url(#clip110)" style="stroke:#000000; stroke-width:4; stroke-opacity:1; fill:none" points="
  1253.84,1359.82 1253.84,1344.07 
  "/>
<polyline clip-path="url(#clip110)" style="stroke:#000000; stroke-width:4; stroke-opacity:1; fill:none" points="
  1726.91,1359.82 1726.91,1344.07 
  "/>
<polyline clip-path="url(#clip110)" style="stroke:#000000; stroke-width:4; stroke-opacity:1; fill:none" points="
  2199.99,1359.82 2199.99,1344.07 
  "/>
<polyline clip-path="url(#clip110)" style="stroke:#000000; stroke-width:4; stroke-opacity:1; fill:none" points="
  250.92,1322.56 274.99,1322.56 
  "/>
<polyline clip-path="url(#clip110)" style="stroke:#000000; stroke-width:4; stroke-opacity:1; fill:none" points="
  250.92,1009.89 274.99,1009.89 
  "/>
<polyline clip-path="url(#clip110)" style="stroke:#000000; stroke-width:4; stroke-opacity:1; fill:none" points="
  250.92,697.222 274.99,697.222 
  "/>
<polyline clip-path="url(#clip110)" style="stroke:#000000; stroke-width:4; stroke-opacity:1; fill:none" points="
  250.92,384.554 274.99,384.554 
  "/>
<polyline clip-path="url(#clip110)" style="stroke:#000000; stroke-width:4; stroke-opacity:1; fill:none" points="
  250.92,71.8857 274.99,71.8857 
  "/>
<path clip-path="url(#clip110)" d="M 0 0 M307.689 1381.33 Q304.078 1381.33 302.249 1384.9 Q300.444 1388.44 300.444 1395.57 Q300.444 1402.67 302.249 1406.24 Q304.078 1409.78 307.689 1409.78 Q311.323 1409.78 313.129 1406.24 Q314.957 1402.67 314.957 1395.57 Q314.957 1388.44 313.129 1384.9 Q311.323 1381.33 307.689 1381.33 M307.689 1377.63 Q313.499 1377.63 316.555 1382.23 Q319.633 1386.82 319.633 1395.57 Q319.633 1404.29 316.555 1408.9 Q313.499 1413.48 307.689 1413.48 Q301.879 1413.48 298.8 1408.9 Q295.745 1404.29 295.745 1395.57 Q295.745 1386.82 298.8 1382.23 Q301.879 1377.63 307.689 1377.63 Z" fill="#000000" fill-rule="evenodd" fill-opacity="1" /><path clip-path="url(#clip110)" d="M 0 0 M757.639 1408.88 L765.277 1408.88 L765.277 1382.51 L756.967 1384.18 L756.967 1379.92 L765.231 1378.25 L769.907 1378.25 L769.907 1408.88 L777.546 1408.88 L777.546 1412.81 L757.639 1412.81 L757.639 1408.88 Z" fill="#000000" fill-rule="evenodd" fill-opacity="1" /><path clip-path="url(#clip110)" d="M 0 0 M792.615 1381.33 Q789.004 1381.33 787.175 1384.9 Q785.37 1388.44 785.37 1395.57 Q785.37 1402.67 787.175 1406.24 Q789.004 1409.78 792.615 1409.78 Q796.249 1409.78 798.055 1406.24 Q799.884 1402.67 799.884 1395.57 Q799.884 1388.44 798.055 1384.9 Q796.249 1381.33 792.615 1381.33 M792.615 1377.63 Q798.425 1377.63 801.481 1382.23 Q804.56 1386.82 804.56 1395.57 Q804.56 1404.29 801.481 1408.9 Q798.425 1413.48 792.615 1413.48 Q786.805 1413.48 783.726 1408.9 Q780.671 1404.29 780.671 1395.57 Q780.671 1386.82 783.726 1382.23 Q786.805 1377.63 792.615 1377.63 Z" fill="#000000" fill-rule="evenodd" fill-opacity="1" /><path clip-path="url(#clip110)" d="M 0 0 M1234.98 1408.88 L1251.3 1408.88 L1251.3 1412.81 L1229.36 1412.81 L1229.36 1408.88 Q1232.02 1406.12 1236.6 1401.49 Q1241.21 1396.84 1242.39 1395.5 Q1244.64 1392.97 1245.52 1391.24 Q1246.42 1389.48 1246.42 1387.79 Q1246.42 1385.03 1244.47 1383.3 Q1242.55 1381.56 1239.45 1381.56 Q1237.25 1381.56 1234.8 1382.33 Q1232.37 1383.09 1229.59 1384.64 L1229.59 1379.92 Q1232.41 1378.78 1234.87 1378.21 Q1237.32 1377.63 1239.36 1377.63 Q1244.73 1377.63 1247.92 1380.31 Q1251.12 1383 1251.12 1387.49 Q1251.12 1389.62 1250.31 1391.54 Q1249.52 1393.44 1247.41 1396.03 Q1246.84 1396.7 1243.73 1399.92 Q1240.63 1403.11 1234.98 1408.88 Z" fill="#000000" fill-rule="evenodd" fill-opacity="1" /><path clip-path="url(#clip110)" d="M 0 0 M1266.37 1381.33 Q1262.76 1381.33 1260.93 1384.9 Q1259.13 1388.44 1259.13 1395.57 Q1259.13 1402.67 1260.93 1406.24 Q1262.76 1409.78 1266.37 1409.78 Q1270.01 1409.78 1271.81 1406.24 Q1273.64 1402.67 1273.64 1395.57 Q1273.64 1388.44 1271.81 1384.9 Q1270.01 1381.33 1266.37 1381.33 M1266.37 1377.63 Q1272.18 1377.63 1275.24 1382.23 Q1278.32 1386.82 1278.32 1395.57 Q1278.32 1404.29 1275.24 1408.9 Q1272.18 1413.48 1266.37 1413.48 Q1260.56 1413.48 1257.48 1408.9 Q1254.43 1404.29 1254.43 1395.57 Q1254.43 1386.82 1257.48 1382.23 Q1260.56 1377.63 1266.37 1377.63 Z" fill="#000000" fill-rule="evenodd" fill-opacity="1" /><path clip-path="url(#clip110)" d="M 0 0 M1717.65 1394.18 Q1721.01 1394.9 1722.88 1397.16 Q1724.78 1399.43 1724.78 1402.77 Q1724.78 1407.88 1721.26 1410.68 Q1717.75 1413.48 1711.26 1413.48 Q1709.09 1413.48 1706.77 1413.04 Q1704.48 1412.63 1702.03 1411.77 L1702.03 1407.26 Q1703.97 1408.39 1706.29 1408.97 Q1708.6 1409.55 1711.13 1409.55 Q1715.52 1409.55 1717.82 1407.81 Q1720.13 1406.08 1720.13 1402.77 Q1720.13 1399.71 1717.98 1398 Q1715.85 1396.26 1712.03 1396.26 L1708 1396.26 L1708 1392.42 L1712.21 1392.42 Q1715.66 1392.42 1717.49 1391.05 Q1719.32 1389.66 1719.32 1387.07 Q1719.32 1384.41 1717.42 1383 Q1715.55 1381.56 1712.03 1381.56 Q1710.11 1381.56 1707.91 1381.98 Q1705.71 1382.4 1703.07 1383.27 L1703.07 1379.11 Q1705.73 1378.37 1708.05 1378 Q1710.38 1377.63 1712.44 1377.63 Q1717.77 1377.63 1720.87 1380.06 Q1723.97 1382.46 1723.97 1386.59 Q1723.97 1389.46 1722.33 1391.45 Q1720.69 1393.41 1717.65 1394.18 Z" fill="#000000" fill-rule="evenodd" fill-opacity="1" /><path clip-path="url(#clip110)" d="M 0 0 M1739.85 1381.33 Q1736.24 1381.33 1734.41 1384.9 Q1732.61 1388.44 1732.61 1395.57 Q1732.61 1402.67 1734.41 1406.24 Q1736.24 1409.78 1739.85 1409.78 Q1743.49 1409.78 1745.29 1406.24 Q1747.12 1402.67 1747.12 1395.57 Q1747.12 1388.44 1745.29 1384.9 Q1743.49 1381.33 1739.85 1381.33 M1739.85 1377.63 Q1745.66 1377.63 1748.72 1382.23 Q1751.8 1386.82 1751.8 1395.57 Q1751.8 1404.29 1748.72 1408.9 Q1745.66 1413.48 1739.85 1413.48 Q1734.04 1413.48 1730.96 1408.9 Q1727.91 1404.29 1727.91 1395.57 Q1727.91 1386.82 1730.96 1382.23 Q1734.04 1377.63 1739.85 1377.63 Z" fill="#000000" fill-rule="evenodd" fill-opacity="1" /><path clip-path="url(#clip110)" d="M 0 0 M2189.49 1382.33 L2177.68 1400.77 L2189.49 1400.77 L2189.49 1382.33 M2188.26 1378.25 L2194.14 1378.25 L2194.14 1400.77 L2199.07 1400.77 L2199.07 1404.66 L2194.14 1404.66 L2194.14 1412.81 L2189.49 1412.81 L2189.49 1404.66 L2173.89 1404.66 L2173.89 1400.15 L2188.26 1378.25 Z" fill="#000000" fill-rule="evenodd" fill-opacity="1" /><path clip-path="url(#clip110)" d="M 0 0 M2214.14 1381.33 Q2210.53 1381.33 2208.7 1384.9 Q2206.9 1388.44 2206.9 1395.57 Q2206.9 1402.67 2208.7 1406.24 Q2210.53 1409.78 2214.14 1409.78 Q2217.78 1409.78 2219.58 1406.24 Q2221.41 1402.67 2221.41 1395.57 Q2221.41 1388.44 2219.58 1384.9 Q2217.78 1381.33 2214.14 1381.33 M2214.14 1377.63 Q2219.95 1377.63 2223.01 1382.23 Q2226.09 1386.82 2226.09 1395.57 Q2226.09 1404.29 2223.01 1408.9 Q2219.95 1413.48 2214.14 1413.48 Q2208.33 1413.48 2205.25 1408.9 Q2202.2 1404.29 2202.2 1395.57 Q2202.2 1386.82 2205.25 1382.23 Q2208.33 1377.63 2214.14 1377.63 Z" fill="#000000" fill-rule="evenodd" fill-opacity="1" /><path clip-path="url(#clip110)" d="M 0 0 M215.936 1308.36 Q212.325 1308.36 210.496 1311.92 Q208.69 1315.46 208.69 1322.59 Q208.69 1329.7 210.496 1333.26 Q212.325 1336.81 215.936 1336.81 Q219.57 1336.81 221.375 1333.26 Q223.204 1329.7 223.204 1322.59 Q223.204 1315.46 221.375 1311.92 Q219.57 1308.36 215.936 1308.36 M215.936 1304.65 Q221.746 1304.65 224.801 1309.26 Q227.88 1313.84 227.88 1322.59 Q227.88 1331.32 224.801 1335.93 Q221.746 1340.51 215.936 1340.51 Q210.125 1340.51 207.047 1335.93 Q203.991 1331.32 203.991 1322.59 Q203.991 1313.84 207.047 1309.26 Q210.125 1304.65 215.936 1304.65 Z" fill="#000000" fill-rule="evenodd" fill-opacity="1" /><path clip-path="url(#clip110)" d="M 0 0 M158.529 1023.24 L174.848 1023.24 L174.848 1027.17 L152.904 1027.17 L152.904 1023.24 Q155.566 1020.48 160.149 1015.85 Q164.755 1011.2 165.936 1009.86 Q168.181 1007.33 169.061 1005.6 Q169.964 1003.84 169.964 1002.15 Q169.964 999.393 168.019 997.657 Q166.098 995.921 162.996 995.921 Q160.797 995.921 158.343 996.685 Q155.913 997.448 153.135 998.999 L153.135 994.277 Q155.959 993.143 158.413 992.564 Q160.866 991.985 162.903 991.985 Q168.274 991.985 171.468 994.671 Q174.663 997.356 174.663 1001.85 Q174.663 1003.98 173.852 1005.9 Q173.065 1007.8 170.959 1010.39 Q170.38 1011.06 167.278 1014.28 Q164.177 1017.47 158.529 1023.24 Z" fill="#000000" fill-rule="evenodd" fill-opacity="1" /><path clip-path="url(#clip110)" d="M 0 0 M179.964 992.61 L198.32 992.61 L198.32 996.546 L184.246 996.546 L184.246 1005.02 Q185.264 1004.67 186.283 1004.51 Q187.301 1004.32 188.32 1004.32 Q194.107 1004.32 197.487 1007.49 Q200.866 1010.67 200.866 1016.08 Q200.866 1021.66 197.394 1024.76 Q193.922 1027.84 187.602 1027.84 Q185.427 1027.84 183.158 1027.47 Q180.913 1027.1 178.505 1026.36 L178.505 1021.66 Q180.589 1022.8 182.811 1023.35 Q185.033 1023.91 187.51 1023.91 Q191.514 1023.91 193.852 1021.8 Q196.19 1019.69 196.19 1016.08 Q196.19 1012.47 193.852 1010.36 Q191.514 1008.26 187.51 1008.26 Q185.635 1008.26 183.76 1008.68 Q181.908 1009.09 179.964 1009.97 L179.964 992.61 Z" fill="#000000" fill-rule="evenodd" fill-opacity="1" /><path clip-path="url(#clip110)" d="M 0 0 M215.936 995.689 Q212.325 995.689 210.496 999.254 Q208.69 1002.8 208.69 1009.93 Q208.69 1017.03 210.496 1020.6 Q212.325 1024.14 215.936 1024.14 Q219.57 1024.14 221.375 1020.6 Q223.204 1017.03 223.204 1009.93 Q223.204 1002.8 221.375 999.254 Q219.57 995.689 215.936 995.689 M215.936 991.985 Q221.746 991.985 224.801 996.592 Q227.88 1001.18 227.88 1009.93 Q227.88 1018.65 224.801 1023.26 Q221.746 1027.84 215.936 1027.84 Q210.125 1027.84 207.047 1023.26 Q203.991 1018.65 203.991 1009.93 Q203.991 1001.18 207.047 996.592 Q210.125 991.985 215.936 991.985 Z" fill="#000000" fill-rule="evenodd" fill-opacity="1" /><path clip-path="url(#clip110)" d="M 0 0 M152.95 679.942 L171.306 679.942 L171.306 683.877 L157.232 683.877 L157.232 692.35 Q158.251 692.002 159.269 691.84 Q160.288 691.655 161.306 691.655 Q167.093 691.655 170.473 694.826 Q173.852 697.998 173.852 703.414 Q173.852 708.993 170.38 712.095 Q166.908 715.174 160.589 715.174 Q158.413 715.174 156.144 714.803 Q153.899 714.433 151.492 713.692 L151.492 708.993 Q153.575 710.127 155.797 710.683 Q158.019 711.238 160.496 711.238 Q164.501 711.238 166.839 709.132 Q169.177 707.025 169.177 703.414 Q169.177 699.803 166.839 697.697 Q164.501 695.59 160.496 695.59 Q158.621 695.59 156.746 696.007 Q154.894 696.424 152.95 697.303 L152.95 679.942 Z" fill="#000000" fill-rule="evenodd" fill-opacity="1" /><path clip-path="url(#clip110)" d="M 0 0 M188.922 683.021 Q185.311 683.021 183.482 686.586 Q181.677 690.127 181.677 697.257 Q181.677 704.363 183.482 707.928 Q185.311 711.47 188.922 711.47 Q192.556 711.47 194.362 707.928 Q196.19 704.363 196.19 697.257 Q196.19 690.127 194.362 686.586 Q192.556 683.021 188.922 683.021 M188.922 679.317 Q194.732 679.317 197.788 683.924 Q200.866 688.507 200.866 697.257 Q200.866 705.984 197.788 710.59 Q194.732 715.174 188.922 715.174 Q183.112 715.174 180.033 710.59 Q176.977 705.984 176.977 697.257 Q176.977 688.507 180.033 683.924 Q183.112 679.317 188.922 679.317 Z" fill="#000000" fill-rule="evenodd" fill-opacity="1" /><path clip-path="url(#clip110)" d="M 0 0 M215.936 683.021 Q212.325 683.021 210.496 686.586 Q208.69 690.127 208.69 697.257 Q208.69 704.363 210.496 707.928 Q212.325 711.47 215.936 711.47 Q219.57 711.47 221.375 707.928 Q223.204 704.363 223.204 697.257 Q223.204 690.127 221.375 686.586 Q219.57 683.021 215.936 683.021 M215.936 679.317 Q221.746 679.317 224.801 683.924 Q227.88 688.507 227.88 697.257 Q227.88 705.984 224.801 710.59 Q221.746 715.174 215.936 715.174 Q210.125 715.174 207.047 710.59 Q203.991 705.984 203.991 697.257 Q203.991 688.507 207.047 683.924 Q210.125 679.317 215.936 679.317 Z" fill="#000000" fill-rule="evenodd" fill-opacity="1" /><path clip-path="url(#clip110)" d="M 0 0 M152.626 367.274 L174.848 367.274 L174.848 369.265 L162.302 401.834 L157.417 401.834 L169.223 371.209 L152.626 371.209 L152.626 367.274 Z" fill="#000000" fill-rule="evenodd" fill-opacity="1" /><path clip-path="url(#clip110)" d="M 0 0 M179.964 367.274 L198.32 367.274 L198.32 371.209 L184.246 371.209 L184.246 379.681 Q185.264 379.334 186.283 379.172 Q187.301 378.987 188.32 378.987 Q194.107 378.987 197.487 382.158 Q200.866 385.329 200.866 390.746 Q200.866 396.325 197.394 399.427 Q193.922 402.505 187.602 402.505 Q185.427 402.505 183.158 402.135 Q180.913 401.765 178.505 401.024 L178.505 396.325 Q180.589 397.459 182.811 398.015 Q185.033 398.57 187.51 398.57 Q191.514 398.57 193.852 396.464 Q196.19 394.357 196.19 390.746 Q196.19 387.135 193.852 385.029 Q191.514 382.922 187.51 382.922 Q185.635 382.922 183.76 383.339 Q181.908 383.755 179.964 384.635 L179.964 367.274 Z" fill="#000000" fill-rule="evenodd" fill-opacity="1" /><path clip-path="url(#clip110)" d="M 0 0 M215.936 370.353 Q212.325 370.353 210.496 373.917 Q208.69 377.459 208.69 384.589 Q208.69 391.695 210.496 395.26 Q212.325 398.802 215.936 398.802 Q219.57 398.802 221.375 395.26 Q223.204 391.695 223.204 384.589 Q223.204 377.459 221.375 373.917 Q219.57 370.353 215.936 370.353 M215.936 366.649 Q221.746 366.649 224.801 371.255 Q227.88 375.839 227.88 384.589 Q227.88 393.316 224.801 397.922 Q221.746 402.505 215.936 402.505 Q210.125 402.505 207.047 397.922 Q203.991 393.316 203.991 384.589 Q203.991 375.839 207.047 371.255 Q210.125 366.649 215.936 366.649 Z" fill="#000000" fill-rule="evenodd" fill-opacity="1" /><path clip-path="url(#clip110)" d="M 0 0 M126.931 85.2306 L134.57 85.2306 L134.57 58.865 L126.26 60.5316 L126.26 56.2724 L134.524 54.6057 L139.2 54.6057 L139.2 85.2306 L146.839 85.2306 L146.839 89.1657 L126.931 89.1657 L126.931 85.2306 Z" fill="#000000" fill-rule="evenodd" fill-opacity="1" /><path clip-path="url(#clip110)" d="M 0 0 M161.908 57.6844 Q158.297 57.6844 156.468 61.2492 Q154.663 64.7909 154.663 71.9205 Q154.663 79.0269 156.468 82.5917 Q158.297 86.1333 161.908 86.1333 Q165.542 86.1333 167.348 82.5917 Q169.177 79.0269 169.177 71.9205 Q169.177 64.7909 167.348 61.2492 Q165.542 57.6844 161.908 57.6844 M161.908 53.9807 Q167.718 53.9807 170.774 58.5872 Q173.852 63.1705 173.852 71.9205 Q173.852 80.6473 170.774 85.2537 Q167.718 89.837 161.908 89.837 Q156.098 89.837 153.019 85.2537 Q149.964 80.6473 149.964 71.9205 Q149.964 63.1705 153.019 58.5872 Q156.098 53.9807 161.908 53.9807 Z" fill="#000000" fill-rule="evenodd" fill-opacity="1" /><path clip-path="url(#clip110)" d="M 0 0 M188.922 57.6844 Q185.311 57.6844 183.482 61.2492 Q181.677 64.7909 181.677 71.9205 Q181.677 79.0269 183.482 82.5917 Q185.311 86.1333 188.922 86.1333 Q192.556 86.1333 194.362 82.5917 Q196.19 79.0269 196.19 71.9205 Q196.19 64.7909 194.362 61.2492 Q192.556 57.6844 188.922 57.6844 M188.922 53.9807 Q194.732 53.9807 197.788 58.5872 Q200.866 63.1705 200.866 71.9205 Q200.866 80.6473 197.788 85.2537 Q194.732 89.837 188.922 89.837 Q183.112 89.837 180.033 85.2537 Q176.977 80.6473 176.977 71.9205 Q176.977 63.1705 180.033 58.5872 Q183.112 53.9807 188.922 53.9807 Z" fill="#000000" fill-rule="evenodd" fill-opacity="1" /><path clip-path="url(#clip110)" d="M 0 0 M215.936 57.6844 Q212.325 57.6844 210.496 61.2492 Q208.69 64.7909 208.69 71.9205 Q208.69 79.0269 210.496 82.5917 Q212.325 86.1333 215.936 86.1333 Q219.57 86.1333 221.375 82.5917 Q223.204 79.0269 223.204 71.9205 Q223.204 64.7909 221.375 61.2492 Q219.57 57.6844 215.936 57.6844 M215.936 53.9807 Q221.746 53.9807 224.801 58.5872 Q227.88 63.1705 227.88 71.9205 Q227.88 80.6473 224.801 85.2537 Q221.746 89.837 215.936 89.837 Q210.125 89.837 207.047 85.2537 Q203.991 80.6473 203.991 71.9205 Q203.991 63.1705 207.047 58.5872 Q210.125 53.9807 215.936 53.9807 Z" fill="#000000" fill-rule="evenodd" fill-opacity="1" /><path clip-path="url(#clip110)" d="M 0 0 M1181.44 1444.2 L1221.64 1444.2 L1221.64 1449.61 L1204.77 1449.61 L1204.77 1491.72 L1198.31 1491.72 L1198.31 1449.61 L1181.44 1449.61 L1181.44 1444.2 Z" fill="#000000" fill-rule="evenodd" fill-opacity="1" /><path clip-path="url(#clip110)" d="M 0 0 M1225.78 1456.08 L1231.64 1456.08 L1231.64 1491.72 L1225.78 1491.72 L1225.78 1456.08 M1225.78 1442.2 L1231.64 1442.2 L1231.64 1449.61 L1225.78 1449.61 L1225.78 1442.2 Z" fill="#000000" fill-rule="evenodd" fill-opacity="1" /><path clip-path="url(#clip110)" d="M 0 0 M1265.53 1462.92 Q1267.73 1458.97 1270.79 1457.09 Q1273.84 1455.22 1277.98 1455.22 Q1283.55 1455.22 1286.57 1459.13 Q1289.6 1463.01 1289.6 1470.21 L1289.6 1491.72 L1283.71 1491.72 L1283.71 1470.4 Q1283.71 1465.27 1281.89 1462.79 Q1280.08 1460.31 1276.36 1460.31 Q1271.81 1460.31 1269.16 1463.33 Q1266.52 1466.36 1266.52 1471.58 L1266.52 1491.72 L1260.63 1491.72 L1260.63 1470.4 Q1260.63 1465.24 1258.82 1462.79 Q1257 1460.31 1253.22 1460.31 Q1248.73 1460.31 1246.09 1463.36 Q1243.45 1466.39 1243.45 1471.58 L1243.45 1491.72 L1237.56 1491.72 L1237.56 1456.08 L1243.45 1456.08 L1243.45 1461.61 Q1245.45 1458.34 1248.25 1456.78 Q1251.05 1455.22 1254.9 1455.22 Q1258.79 1455.22 1261.49 1457.19 Q1264.23 1459.16 1265.53 1462.92 Z" fill="#000000" fill-rule="evenodd" fill-opacity="1" /><path clip-path="url(#clip110)" d="M 0 0 M1326.23 1472.44 L1326.23 1475.3 L1299.31 1475.3 Q1299.69 1481.35 1302.93 1484.53 Q1306.21 1487.68 1312.04 1487.68 Q1315.41 1487.68 1318.56 1486.85 Q1321.74 1486.03 1324.86 1484.37 L1324.86 1489.91 Q1321.71 1491.25 1318.4 1491.95 Q1315.09 1492.65 1311.69 1492.65 Q1303.16 1492.65 1298.16 1487.68 Q1293.19 1482.72 1293.19 1474.25 Q1293.19 1465.5 1297.9 1460.37 Q1302.65 1455.22 1310.67 1455.22 Q1317.86 1455.22 1322.03 1459.86 Q1326.23 1464.48 1326.23 1472.44 M1320.38 1470.72 Q1320.31 1465.91 1317.67 1463.05 Q1315.06 1460.18 1310.73 1460.18 Q1305.83 1460.18 1302.87 1462.95 Q1299.94 1465.72 1299.5 1470.75 L1320.38 1470.72 Z" fill="#000000" fill-rule="evenodd" fill-opacity="1" /><path clip-path="url(#clip110)" d="M 0 0 M41.4442 818.815 L41.4442 810.158 L81.198 789.087 L41.4442 789.087 L41.4442 782.849 L88.9642 782.849 L88.9642 791.506 L49.2103 812.577 L88.9642 812.577 L88.9642 818.815 L41.4442 818.815 Z" fill="#000000" fill-rule="evenodd" fill-opacity="1" /><path clip-path="url(#clip110)" d="M 0 0 M74.8959 777.311 L53.3162 777.311 L53.3162 771.454 L74.6731 771.454 Q79.7339 771.454 82.2802 769.481 Q84.7946 767.507 84.7946 763.561 Q84.7946 758.818 81.7709 756.081 Q78.7472 753.312 73.5273 753.312 L53.3162 753.312 L53.3162 747.455 L88.9642 747.455 L88.9642 753.312 L83.4896 753.312 Q86.7362 755.444 88.3276 758.277 Q89.8872 761.078 89.8872 764.802 Q89.8872 770.945 86.0678 774.128 Q82.2483 777.311 74.8959 777.311 M52.4568 762.574 L52.4568 762.574 Z" fill="#000000" fill-rule="evenodd" fill-opacity="1" /><path clip-path="url(#clip110)" d="M 0 0 M60.1593 713.558 Q56.2126 711.362 54.3347 708.306 Q52.4568 705.251 52.4568 701.113 Q52.4568 695.543 56.3717 692.519 Q60.2548 689.496 67.4481 689.496 L88.9642 689.496 L88.9642 695.384 L67.639 695.384 Q62.5146 695.384 60.032 697.198 Q57.5494 699.012 57.5494 702.736 Q57.5494 707.288 60.5731 709.93 Q63.5968 712.571 68.8167 712.571 L88.9642 712.571 L88.9642 718.46 L67.639 718.46 Q62.4828 718.46 60.032 720.274 Q57.5494 722.088 57.5494 725.876 Q57.5494 730.363 60.6049 733.005 Q63.6286 735.647 68.8167 735.647 L88.9642 735.647 L88.9642 741.535 L53.3162 741.535 L53.3162 735.647 L58.8544 735.647 Q55.576 733.642 54.0164 730.841 Q52.4568 728.04 52.4568 724.189 Q52.4568 720.306 54.4302 717.6 Q56.4036 714.863 60.1593 713.558 Z" fill="#000000" fill-rule="evenodd" fill-opacity="1" /><path clip-path="url(#clip110)" d="M 0 0 M71.172 657.763 Q64.7108 657.763 61.0505 660.436 Q57.3584 663.078 57.3584 667.725 Q57.3584 672.372 61.0505 675.045 Q64.7108 677.687 71.172 677.687 Q77.6332 677.687 81.3253 675.045 Q84.9856 672.372 84.9856 667.725 Q84.9856 663.078 81.3253 660.436 Q77.6332 657.763 71.172 657.763 M58.7271 677.687 Q55.5442 675.841 54.0164 673.04 Q52.4568 670.207 52.4568 666.293 Q52.4568 659.8 57.6131 655.757 Q62.7693 651.683 71.172 651.683 Q79.5747 651.683 84.731 655.757 Q89.8872 659.8 89.8872 666.293 Q89.8872 670.207 88.3594 673.04 Q86.7998 675.841 83.617 677.687 L88.9642 677.687 L88.9642 683.575 L39.439 683.575 L39.439 677.687 L58.7271 677.687 Z" fill="#000000" fill-rule="evenodd" fill-opacity="1" /><path clip-path="url(#clip110)" d="M 0 0 M69.6761 615.049 L72.5406 615.049 L72.5406 641.976 Q78.5881 641.594 81.7709 638.347 Q84.9219 635.069 84.9219 629.244 Q84.9219 625.87 84.0944 622.719 Q83.2669 619.536 81.6118 616.417 L87.1499 616.417 Q88.4867 619.568 89.187 622.878 Q89.8872 626.189 89.8872 629.594 Q89.8872 638.124 84.9219 643.121 Q79.9567 648.087 71.4903 648.087 Q62.7374 648.087 57.6131 643.376 Q52.4568 638.634 52.4568 630.613 Q52.4568 623.42 57.1038 619.25 Q61.7189 615.049 69.6761 615.049 M67.9573 620.905 Q63.1512 620.969 60.2866 623.611 Q57.4221 626.22 57.4221 630.549 Q57.4221 635.451 60.1912 638.411 Q62.9602 641.339 67.9892 641.785 L67.9573 620.905 Z" fill="#000000" fill-rule="evenodd" fill-opacity="1" /><path clip-path="url(#clip110)" d="M 0 0 M58.7907 588.249 Q58.2178 589.236 57.9632 590.413 Q57.6767 591.559 57.6767 592.96 Q57.6767 597.925 60.9232 600.598 Q64.1379 603.24 70.1853 603.24 L88.9642 603.24 L88.9642 609.129 L53.3162 609.129 L53.3162 603.24 L58.8544 603.24 Q55.6079 601.394 54.0483 598.434 Q52.4568 595.474 52.4568 591.241 Q52.4568 590.636 52.5523 589.904 Q52.616 589.172 52.7751 588.281 L58.7907 588.249 Z" fill="#000000" fill-rule="evenodd" fill-opacity="1" /><polyline clip-path="url(#clip112)" style="stroke:#009af9; stroke-width:4; stroke-opacity:1; fill:none" points="
  307.689,84.3925 312.42,84.9346 317.15,85.9279 321.881,86.2854 326.612,86.9048 331.343,88.3018 336.073,88.9379 340.804,90.012 345.535,91.0262 350.266,91.4134 
  354.996,92.3862 359.727,93.2613 364.458,94.0439 369.189,94.9044 373.919,95.9956 378.65,96.4092 383.381,96.8909 388.112,97.3454 392.842,98.3023 397.573,98.9659 
  402.304,99.1391 407.035,99.5021 411.765,101.09 416.496,102.041 421.227,102.596 425.958,103.873 430.688,104.859 435.419,106.295 440.15,107.642 444.881,108.419 
  449.611,109.033 454.342,110.857 459.073,111.946 463.804,113.526 468.534,115.1 473.265,116.808 477.996,117.774 482.726,119.055 487.457,120.322 492.188,122.16 
  496.919,124.117 501.649,126.051 506.38,127.665 511.111,129.31 515.842,130.74 520.572,132.933 525.303,135.058 530.034,136.957 534.765,138.745 539.495,140.415 
  544.226,142.721 548.957,144.327 553.688,146.476 558.418,148.926 563.149,150.625 567.88,153.347 572.611,155.196 577.341,156.67 582.072,158.903 586.803,161.033 
  591.534,164.636 596.264,167.269 600.995,169.385 605.726,171.881 610.457,174.6 615.187,177.185 619.918,178.866 624.649,180.095 629.38,183.689 634.11,186.151 
  638.841,189.307 643.572,192.237 648.303,195.954 653.033,198.839 657.764,202.613 662.495,205.605 667.226,207.662 671.956,211.213 676.687,213.936 681.418,216.322 
  686.149,218.799 690.879,220.449 695.61,224.577 700.341,228.048 705.072,231.224 709.802,234.761 714.533,238.482 719.264,241.661 723.994,244.357 728.725,247.338 
  733.456,250.708 738.187,254.353 742.917,257.599 747.648,260.918 752.379,263.145 757.11,265.435 761.84,268.045 766.571,271.765 771.302,273.813 776.033,276.252 
  780.763,278.722 785.494,281.146 790.225,284.303 794.956,287.936 799.686,291.74 804.417,295.919 809.148,300.247 813.879,305.001 818.609,308.936 823.34,313.397 
  828.071,317.926 832.802,321.894 837.532,325.207 842.263,328.353 846.994,331.165 851.725,335.121 856.455,338.834 861.186,342.957 865.917,348.076 870.648,352.211 
  875.378,355.466 880.109,359.521 884.84,363.261 889.571,367.671 894.301,371.674 899.032,375.452 903.763,379.098 908.494,383.031 913.224,388.037 917.955,393.646 
  922.686,397.816 927.417,403.814 932.147,408.838 936.878,414.006 941.609,419.858 946.34,426.023 951.07,431.796 955.801,436.818 960.532,443.165 965.262,447.41 
  969.993,452.13 974.724,458.92 979.455,463.221 984.185,468.459 988.916,476.274 993.647,480.658 998.378,484.88 1003.11,490.291 1007.84,495.98 1012.57,500.828 
  1017.3,505.578 1022.03,512.163 1026.76,517.643 1031.49,521.801 1036.22,528.473 1040.95,534.433 1045.69,538.66 1050.42,543.313 1055.15,548.194 1059.88,552.964 
  1064.61,558.328 1069.34,565.034 1074.07,570.39 1078.8,576.651 1083.53,582.904 1088.26,588.728 1092.99,594.94 1097.72,601.825 1102.45,608.309 1107.18,614.329 
  1111.92,619.923 1116.65,625.34 1121.38,630.193 1126.11,636.269 1130.84,641.246 1135.57,645.783 1140.3,650.559 1145.03,656.927 1149.76,661.331 1154.49,665.678 
  1159.22,670.576 1163.95,676.188 1168.68,680.573 1173.42,684.548 1178.15,688.637 1182.88,693.546 1187.61,697.809 1192.34,702.312 1197.07,705.906 1201.8,710.424 
  1206.53,716.113 1211.26,721.224 1215.99,725.805 1220.72,729.989 1225.45,735.973 1230.18,740.676 1234.91,744.952 1239.65,749.885 1244.38,754.688 1249.11,758.428 
  1253.84,763.771 1258.57,769.701 1263.3,773.439 1268.03,776.552 1272.76,781.411 1277.49,785.387 1282.22,788.238 1286.95,792.862 1291.68,797.142 1296.41,802.54 
  1301.15,805.761 1305.88,810.058 1310.61,814.331 1315.34,817.066 1320.07,821.209 1324.8,824.271 1329.53,827.766 1334.26,830.971 1338.99,834.733 1343.72,838.74 
  1348.45,842.159 1353.18,846.119 1357.91,850.116 1362.65,853.97 1367.38,857.562 1372.11,860.756 1376.84,864.081 1381.57,867.328 1386.3,870.312 1391.03,872.83 
  1395.76,875.234 1400.49,878.047 1405.22,879.832 1409.95,882.142 1414.68,884.079 1419.41,886.632 1424.14,888.888 1428.88,891.526 1433.61,895.868 1438.34,898.781 
  1443.07,901.008 1447.8,903.377 1452.53,905.109 1457.26,907.627 1461.99,910.323 1466.72,913.227 1471.45,916.047 1476.18,918.628 1480.91,922.025 1485.64,924.325 
  1490.38,926.234 1495.11,928.827 1499.84,931.173 1504.57,933.239 1509.3,934.928 1514.03,936.669 1518.76,938.681 1523.49,941.122 1528.22,943.72 1532.95,946.176 
  1537.68,948.371 1542.41,950.455 1547.14,952.562 1551.87,954.754 1556.61,957.006 1561.34,958.651 1566.07,960.649 1570.8,962.739 1575.53,964.813 1580.26,966.092 
  1584.99,967.911 1589.72,969.773 1594.45,971.695 1599.18,973.603 1603.91,975.4 1608.64,977.349 1613.37,978.269 1618.11,979.958 1622.84,981.624 1627.57,983.718 
  1632.3,985.485 1637.03,986.534 1641.76,987.851 1646.49,989.004 1651.22,991.335 1655.95,993.314 1660.68,995.376 1665.41,996.291 1670.14,996.987 1674.87,998.501 
  1679.61,999.587 1684.34,1000.06 1689.07,1001.12 1693.8,1001.86 1698.53,1003.32 1703.26,1004.31 1707.99,1005.09 1712.72,1006.31 1717.45,1007.47 1722.18,1008.18 
  1726.91,1009.69 1731.64,1010.19 1736.37,1011 1741.1,1011.69 1745.84,1012.34 1750.57,1013.45 1755.3,1014.75 1760.03,1015.64 1764.76,1016.36 1769.49,1017.33 
  1774.22,1018.08 1778.95,1018.04 1783.68,1019.17 1788.41,1020.43 1793.14,1021 1797.87,1021.78 1802.6,1023.23 1807.34,1024.46 1812.07,1025.43 1816.8,1025.75 
  1821.53,1026.6 1826.26,1027.17 1830.99,1027.64 1835.72,1028.14 1840.45,1029.21 1845.18,1029.93 1849.91,1030.39 1854.64,1030.65 1859.37,1031.82 1864.1,1032.72 
  1868.83,1032.96 1873.57,1033.86 1878.3,1034.7 1883.03,1035.26 1887.76,1035.4 1892.49,1035.94 1897.22,1036.39 1901.95,1036.83 1906.68,1037.35 1911.41,1037.86 
  1916.14,1038.08 1920.87,1038.82 1925.6,1039.33 1930.33,1039.97 1935.07,1040.63 1939.8,1040.82 1944.53,1041.36 1949.26,1041.75 1953.99,1042.18 1958.72,1042.79 
  1963.45,1043.27 1968.18,1043.8 1972.91,1044.57 1977.64,1045.44 1982.37,1046.08 1987.1,1046.42 1991.83,1046.94 1996.56,1047.34 2001.3,1047.52 2006.03,1047.61 
  2010.76,1048.09 2015.49,1048.23 2020.22,1048.72 2024.95,1049.15 2029.68,1049.45 2034.41,1049.77 2039.14,1050.21 2043.87,1050.52 2048.6,1050.47 2053.33,1050.74 
  2058.06,1051.22 2062.8,1051.29 2067.53,1051.79 2072.26,1052.06 2076.99,1052.28 2081.72,1052.44 2086.45,1052.7 2091.18,1053.13 2095.91,1053.28 2100.64,1053.68 
  2105.37,1054.01 2110.1,1054.07 2114.83,1054.42 2119.56,1054.65 2124.3,1054.95 2129.03,1055.47 2133.76,1055.8 2138.49,1056.04 2143.22,1056.14 2147.95,1056.19 
  2152.68,1056.26 2157.41,1056.59 2162.14,1056.97 2166.87,1057.18 2171.6,1057.1 2176.33,1057.43 2181.06,1057.72 2185.79,1058.26 2190.53,1058.59 2195.26,1058.85 
  2199.99,1059.11 
  "/>
<polyline clip-path="url(#clip112)" style="stroke:#e26f46; stroke-width:4; stroke-opacity:1; fill:none" points="
  307.689,1310.05 312.42,1309.4 317.15,1309.63 321.881,1309.81 326.612,1309.62 331.343,1308 336.073,1307.83 340.804,1305.9 345.535,1305.92 350.266,1306.62 
  354.996,1306.53 359.727,1305.62 364.458,1305.46 369.189,1305.14 373.919,1306.03 378.65,1305.86 383.381,1305.69 388.112,1305.03 392.842,1304.72 397.573,1305.41 
  402.304,1304.39 407.035,1304.62 411.765,1302.71 416.496,1302.21 421.227,1300.87 425.958,1301.72 430.688,1300.8 435.419,1299.76 440.15,1299.31 444.881,1299.11 
  449.611,1299.3 454.342,1299.42 459.073,1299.44 463.804,1297.76 468.534,1298 473.265,1297.59 477.996,1295.49 482.726,1295.35 487.457,1294.63 492.188,1293.45 
  496.919,1292.89 501.649,1293.12 506.38,1293.53 511.111,1292.29 515.842,1293.28 520.572,1291.55 525.303,1290.46 530.034,1289.66 534.765,1288.93 539.495,1289.35 
  544.226,1286.58 548.957,1284.08 553.688,1283.47 558.418,1280.76 563.149,1279.2 567.88,1277.51 572.611,1278.01 577.341,1277.9 582.072,1275.03 586.803,1273.31 
  591.534,1271.21 596.264,1269.12 600.995,1269.8 605.726,1266.06 610.457,1264.36 615.187,1263 619.918,1263.21 624.649,1264.64 629.38,1261.36 634.11,1260.47 
  638.841,1260.63 643.572,1260.24 648.303,1257.3 653.033,1257.93 657.764,1257.49 662.495,1257.23 667.226,1257.73 671.956,1254.27 676.687,1254.06 681.418,1251.69 
  686.149,1251.06 690.879,1252.48 695.61,1251.77 700.341,1250.3 705.072,1248.49 709.802,1245.75 714.533,1244.25 719.264,1244.42 723.994,1246.37 728.725,1248.24 
  733.456,1245.34 738.187,1242.92 742.917,1240.15 747.648,1243.35 752.379,1245.43 757.11,1246.3 761.84,1247.88 766.571,1247.81 771.302,1247.73 776.033,1247.93 
  780.763,1246.55 785.494,1243.33 790.225,1241.98 794.956,1239.73 799.686,1237.15 804.417,1234.41 809.148,1232.5 813.879,1230.51 818.609,1228.97 823.34,1228.18 
  828.071,1226.22 832.802,1226.77 837.532,1227.48 842.263,1226.68 846.994,1226.14 851.725,1224.6 856.455,1223.21 861.186,1222.49 865.917,1220.38 870.648,1218.24 
  875.378,1218.98 880.109,1216.82 884.84,1213.25 889.571,1209.24 894.301,1207.89 899.032,1206.64 903.763,1208.24 908.494,1204.77 913.224,1203 917.955,1199.7 
  922.686,1195.89 927.417,1192.34 932.147,1189.8 936.878,1183.41 941.609,1183.28 946.34,1181.01 951.07,1179.75 955.801,1179.68 960.532,1174.41 965.262,1175.16 
  969.993,1172.92 974.724,1167.02 979.455,1164.67 984.185,1159.08 988.916,1155.79 993.647,1154.47 998.378,1156.82 1003.11,1156.61 1007.84,1158.59 1012.57,1160.29 
  1017.3,1160.64 1022.03,1158.38 1026.76,1155.96 1031.49,1155.92 1036.22,1149.48 1040.95,1147.54 1045.69,1150.68 1050.42,1150.72 1055.15,1149.68 1059.88,1150.45 
  1064.61,1150.99 1069.34,1151.07 1074.07,1147.59 1078.8,1144.69 1083.53,1141.14 1088.26,1141.79 1092.99,1139.48 1097.72,1139.01 1102.45,1136.19 1107.18,1139.11 
  1111.92,1136.5 1116.65,1134.45 1121.38,1138.09 1126.11,1136.97 1130.84,1136.65 1135.57,1139.45 1140.3,1141.67 1145.03,1139.2 1149.76,1139.19 1154.49,1141.77 
  1159.22,1141.04 1163.95,1140.28 1168.68,1143.4 1173.42,1140.79 1178.15,1135.97 1182.88,1135.84 1187.61,1136.68 1192.34,1137.54 1197.07,1136.49 1201.8,1133.83 
  1206.53,1132.97 1211.26,1130.62 1215.99,1128.22 1220.72,1126.73 1225.45,1124.7 1230.18,1122.19 1234.91,1119.75 1239.65,1116.96 1244.38,1121.82 1249.11,1124.67 
  1253.84,1125.28 1258.57,1125.67 1263.3,1124.27 1268.03,1126.77 1272.76,1126.85 1277.49,1130.46 1282.22,1131.45 1286.95,1130.16 1291.68,1129.07 1296.41,1128.75 
  1301.15,1129.49 1305.88,1129.86 1310.61,1132.71 1315.34,1138.37 1320.07,1134.78 1324.8,1133.74 1329.53,1137.57 1334.26,1135 1338.99,1132.15 1343.72,1133.95 
  1348.45,1138.06 1353.18,1134.58 1357.91,1135.69 1362.65,1137.85 1367.38,1142.97 1372.11,1144.12 1376.84,1145.46 1381.57,1146.49 1386.3,1146.04 1391.03,1147.53 
  1395.76,1146 1400.49,1149.87 1405.22,1154.32 1409.95,1158.35 1414.68,1159.86 1419.41,1159.15 1424.14,1160.07 1428.88,1160.63 1433.61,1161.01 1438.34,1161.69 
  1443.07,1163.55 1447.8,1165.82 1452.53,1170.42 1457.26,1168.69 1461.99,1167.86 1466.72,1170.5 1471.45,1170.22 1476.18,1169.17 1480.91,1174.38 1485.64,1178.53 
  1490.38,1180.19 1495.11,1180.29 1499.84,1182.5 1504.57,1183.12 1509.3,1184.44 1514.03,1182.24 1518.76,1180.45 1523.49,1184.06 1528.22,1184.18 1532.95,1187.35 
  1537.68,1184.61 1542.41,1185.4 1547.14,1187.22 1551.87,1190.76 1556.61,1192.8 1561.34,1194.37 1566.07,1194.69 1570.8,1194.23 1575.53,1193.75 1580.26,1196.12 
  1584.99,1196.54 1589.72,1199.34 1594.45,1200.32 1599.18,1197.61 1603.91,1201.36 1608.64,1203.48 1613.37,1207.06 1618.11,1209.95 1622.84,1208.8 1627.57,1205.75 
  1632.3,1209.98 1637.03,1209.37 1641.76,1210.75 1646.49,1214.11 1651.22,1213.52 1655.95,1216.43 1660.68,1216.42 1665.41,1218.26 1670.14,1220.46 1674.87,1220.97 
  1679.61,1222.75 1684.34,1224.52 1689.07,1228.16 1693.8,1230.23 1698.53,1231.2 1703.26,1232.63 1707.99,1232.88 1712.72,1234.3 1717.45,1235.11 1722.18,1236.84 
  1726.91,1236.42 1731.64,1237.3 1736.37,1237.61 1741.1,1239.12 1745.84,1244.92 1750.57,1247.45 1755.3,1249.46 1760.03,1250.4 1764.76,1250.22 1769.49,1250.75 
  1774.22,1250.33 1778.95,1252.34 1783.68,1252.69 1788.41,1255.23 1793.14,1256.03 1797.87,1254.92 1802.6,1253.15 1807.34,1252.89 1812.07,1256.35 1816.8,1258.93 
  1821.53,1258.86 1826.26,1260.46 1830.99,1263.9 1835.72,1262.84 1840.45,1264.11 1845.18,1264.16 1849.91,1264.98 1854.64,1265.68 1859.37,1264.65 1864.1,1265.11 
  1868.83,1267.31 1873.57,1268.85 1878.3,1270.36 1883.03,1269.21 1887.76,1270.65 1892.49,1271.22 1897.22,1273.52 1901.95,1275.44 1906.68,1275.44 1911.41,1276.44 
  1916.14,1278.28 1920.87,1279.48 1925.6,1280.85 1930.33,1282.71 1935.07,1284.04 1939.8,1285.99 1944.53,1284.84 1949.26,1285.55 1953.99,1286.38 1958.72,1286.08 
  1963.45,1287.29 1968.18,1287.21 1972.91,1286.17 1977.64,1284.59 1982.37,1283.95 1987.1,1285.41 1991.83,1284.63 1996.56,1286.15 2001.3,1286.33 2006.03,1286.25 
  2010.76,1285.61 2015.49,1286.22 2020.22,1286.01 2024.95,1287.87 2029.68,1289.36 2034.41,1289.53 2039.14,1290.17 2043.87,1291.71 2048.6,1293.56 2053.33,1294.98 
  2058.06,1293.93 2062.8,1294.53 2067.53,1294.64 2072.26,1296.33 2076.99,1297.08 2081.72,1298.36 2086.45,1299.68 2091.18,1299.78 2095.91,1299.87 2100.64,1300.04 
  2105.37,1299.82 2110.1,1299.65 2114.83,1299.47 2119.56,1300.62 2124.3,1300.79 2129.03,1301.25 2133.76,1300.79 2138.49,1301.28 2143.22,1301.72 2147.95,1299.85 
  2152.68,1300.39 2157.41,1301.9 2162.14,1301.76 2166.87,1302.08 2171.6,1303 2176.33,1303.57 2181.06,1303.99 2185.79,1304.8 2190.53,1304.34 2195.26,1304.76 
  2199.99,1304.6 
  "/>
<polyline clip-path="url(#clip112)" style="stroke:#3da44d; stroke-width:4; stroke-opacity:1; fill:none" points="
  307.689,1322.56 312.42,1322.67 317.15,1321.44 321.881,1320.91 326.612,1320.48 331.343,1320.7 336.073,1320.23 340.804,1321.1 345.535,1320.05 350.266,1318.97 
  354.996,1318.09 359.727,1318.12 364.458,1317.5 369.189,1316.96 373.919,1314.98 378.65,1314.73 383.381,1314.42 388.112,1314.63 392.842,1313.98 397.573,1312.62 
  402.304,1313.47 407.035,1312.88 411.765,1313.21 416.496,1312.76 421.227,1313.54 425.958,1311.41 430.688,1311.34 435.419,1310.95 440.15,1310.05 444.881,1309.47 
  449.611,1308.67 454.342,1306.72 459.073,1305.61 463.804,1305.71 468.534,1303.9 473.265,1302.61 477.996,1303.74 482.726,1302.6 487.457,1302.05 492.188,1301.39 
  496.919,1300 501.649,1297.84 506.38,1295.81 511.111,1295.41 515.842,1292.99 520.572,1292.52 525.303,1291.48 530.034,1290.38 534.765,1289.33 539.495,1287.24 
  544.226,1287.7 548.957,1288.6 553.688,1287.05 558.418,1287.31 563.149,1287.18 567.88,1286.14 572.611,1283.8 577.341,1282.43 582.072,1283.07 586.803,1282.66 
  591.534,1281.16 596.264,1280.62 600.995,1277.81 605.726,1279.07 610.457,1278.05 615.187,1276.82 619.918,1274.92 624.649,1272.27 629.38,1271.95 634.11,1270.38 
  638.841,1267.07 643.572,1264.53 648.303,1263.75 653.033,1260.23 657.764,1256.9 662.495,1254.17 667.226,1251.61 671.956,1251.52 676.687,1249.01 681.418,1248.99 
  686.149,1247.14 690.879,1244.08 695.61,1240.65 700.341,1238.66 705.072,1237.29 709.802,1236.49 714.533,1234.28 719.264,1230.92 723.994,1226.27 728.725,1221.42 
  733.456,1220.96 738.187,1219.73 742.917,1219.26 747.648,1212.74 752.379,1208.43 757.11,1205.27 761.84,1201.08 766.571,1197.43 771.302,1195.46 776.033,1192.82 
  780.763,1191.74 785.494,1192.53 790.225,1190.72 794.956,1189.34 799.686,1188.11 804.417,1186.68 809.148,1184.26 813.879,1181.49 818.609,1179.1 823.34,1175.42 
  828.071,1172.86 832.802,1168.34 837.532,1164.32 842.263,1161.97 846.994,1159.7 851.725,1157.28 856.455,1154.96 861.186,1151.56 865.917,1148.55 870.648,1146.55 
  875.378,1142.56 880.109,1140.66 884.84,1140.49 889.571,1140.09 894.301,1137.44 899.032,1134.91 903.763,1129.67 908.494,1129.2 913.224,1125.96 917.955,1123.66 
  922.686,1123.29 927.417,1120.85 932.147,1118.36 936.878,1119.59 941.609,1113.86 946.34,1109.97 951.07,1105.45 955.801,1100.51 960.532,1099.42 965.262,1094.43 
  969.993,1091.95 974.724,1091.06 979.455,1089.11 984.185,1089.47 988.916,1084.94 993.647,1081.87 998.378,1075.3 1003.11,1070.1 1007.84,1062.43 1012.57,1055.89 
  1017.3,1050.79 1022.03,1046.46 1026.76,1043.4 1031.49,1039.28 1036.22,1039.05 1040.95,1035.03 1045.69,1027.66 1050.42,1022.97 1055.15,1019.13 1059.88,1013.59 
  1064.61,1007.69 1069.34,1000.9 1074.07,999.02 1078.8,995.657 1083.53,992.959 1088.26,986.487 1092.99,982.579 1097.72,976.169 1102.45,972.502 1107.18,963.561 
  1111.92,960.585 1116.65,957.217 1121.38,948.717 1126.11,943.766 1130.84,939.111 1135.57,931.767 1140.3,924.774 1145.03,920.879 1149.76,916.478 1154.49,909.556 
  1159.22,905.385 1163.95,900.54 1168.68,893.033 1173.42,891.661 1178.15,892.401 1182.88,887.614 1187.61,882.517 1192.34,877.152 1197.07,874.606 1201.8,872.751 
  1206.53,867.915 1211.26,865.154 1215.99,862.979 1220.72,860.284 1225.45,856.331 1230.18,854.141 1234.91,852.305 1239.65,850.162 1244.38,840.495 1249.11,833.908 
  1253.84,827.952 1258.57,821.637 1263.3,819.29 1268.03,813.678 1272.76,808.741 1277.49,801.16 1282.22,797.315 1286.95,793.984 1291.68,790.791 1296.41,785.715 
  1301.15,781.749 1305.88,777.083 1310.61,769.96 1315.34,761.566 1320.07,761.018 1324.8,758.996 1329.53,751.663 1334.26,751.028 1338.99,750.12 1343.72,744.311 
  1348.45,736.781 1353.18,736.305 1357.91,731.193 1362.65,725.184 1367.38,716.472 1372.11,712.13 1376.84,707.459 1381.57,703.19 1386.3,700.652 1391.03,696.642 
  1395.76,695.766 1400.49,689.086 1405.22,682.853 1409.95,676.509 1414.68,673.062 1419.41,671.225 1424.14,668.043 1428.88,664.844 1433.61,660.123 1438.34,656.53 
  1443.07,652.44 1447.8,647.809 1452.53,641.476 1457.26,640.682 1461.99,638.815 1466.72,633.279 1471.45,630.733 1476.18,629.206 1480.91,620.593 1485.64,614.151 
  1490.38,610.577 1495.11,607.889 1499.84,603.329 1504.57,600.64 1509.3,597.637 1514.03,598.094 1518.76,597.87 1523.49,591.819 1528.22,589.104 1532.95,583.475 
  1537.68,584.026 1542.41,581.149 1547.14,577.223 1551.87,571.486 1556.61,567.202 1561.34,563.981 1566.07,561.667 1570.8,560.031 1575.53,558.44 1580.26,554.787 
  1584.99,552.548 1589.72,547.891 1594.45,544.989 1599.18,545.793 1603.91,540.248 1608.64,536.172 1613.37,531.671 1618.11,527.092 1622.84,526.583 1627.57,527.538 
  1632.3,521.535 1637.03,521.099 1641.76,518.402 1646.49,513.885 1651.22,512.144 1655.95,507.255 1660.68,505.212 1665.41,502.453 1670.14,499.557 1674.87,497.53 
  1679.61,494.667 1684.34,492.418 1689.07,487.727 1693.8,484.917 1698.53,482.476 1703.26,480.071 1707.99,479.035 1712.72,476.384 1717.45,474.419 1722.18,471.981 
  1726.91,470.894 1731.64,469.51 1736.37,468.393 1741.1,466.19 1745.84,459.739 1750.57,456.105 1755.3,452.795 1760.03,450.959 1764.76,450.427 1769.49,448.928 
  1774.22,448.586 1778.95,446.618 1783.68,445.145 1788.41,441.34 1793.14,439.978 1797.87,440.303 1802.6,440.62 1807.34,439.65 1812.07,435.223 1816.8,432.328 
  1821.53,431.545 1826.26,429.379 1830.99,425.469 1835.72,426.023 1840.45,423.686 1845.18,422.91 1849.91,421.63 1854.64,420.664 1859.37,420.527 1864.1,419.174 
  1868.83,416.732 1873.57,414.292 1878.3,411.942 1883.03,412.537 1887.76,410.955 1892.49,409.847 1897.22,407.088 1901.95,404.733 1906.68,404.207 1911.41,402.701 
  1916.14,400.646 1920.87,398.703 1925.6,396.822 1930.33,394.331 1935.07,392.333 1939.8,390.189 1944.53,390.804 1949.26,389.703 1953.99,388.439 1958.72,388.132 
  1963.45,386.449 1968.18,385.997 1972.91,386.263 1977.64,386.969 1982.37,386.98 1987.1,385.172 1991.83,385.436 1996.56,383.513 2001.3,383.152 2006.03,383.15 
  2010.76,383.304 2015.49,382.544 2020.22,382.274 2024.95,379.983 2029.68,378.187 2034.41,377.7 2039.14,376.62 2043.87,374.774 2048.6,372.973 2053.33,371.284 
  2058.06,371.858 2062.8,371.192 2067.53,370.578 2072.26,368.613 2076.99,367.645 2081.72,366.212 2086.45,364.622 2091.18,364.095 2095.91,363.85 2100.64,363.285 
  2105.37,363.174 2110.1,363.28 2114.83,363.113 2119.56,361.731 2124.3,361.268 2129.03,360.279 2133.76,360.409 2138.49,359.688 2143.22,359.138 2147.95,360.965 
  2152.68,360.354 2157.41,358.514 2162.14,358.279 2166.87,357.746 2171.6,356.908 2176.33,355.998 2181.06,355.292 2185.79,353.949 2190.53,354.077 2195.26,353.389 
  2199.99,353.295 
  "/>
<path clip-path="url(#clip110)" d="
M1930.31 366.924 L2187.64 366.924 L2187.64 125.004 L1930.31 125.004  Z
  " fill="#ffffff" fill-rule="evenodd" fill-opacity="1"/>
<polyline clip-path="url(#clip110)" style="stroke:#000000; stroke-width:4; stroke-opacity:1; fill:none" points="
  1930.31,366.924 2187.64,366.924 2187.64,125.004 1930.31,125.004 1930.31,366.924 
  "/>
<polyline clip-path="url(#clip110)" style="stroke:#009af9; stroke-width:4; stroke-opacity:1; fill:none" points="
  1953.35,185.484 2091.59,185.484 
  "/>
<path clip-path="url(#clip110)" d="M 0 0 M2136.88 169.338 L2136.88 173.899 Q2134.22 172.625 2131.86 172 Q2129.5 171.375 2127.3 171.375 Q2123.48 171.375 2121.39 172.857 Q2119.33 174.338 2119.33 177.07 Q2119.33 179.361 2120.7 180.542 Q2122.09 181.699 2125.93 182.417 L2128.76 182.996 Q2133.99 183.991 2136.46 186.514 Q2138.96 189.014 2138.96 193.227 Q2138.96 198.25 2135.58 200.843 Q2132.23 203.435 2125.72 203.435 Q2123.27 203.435 2120.49 202.88 Q2117.74 202.324 2114.77 201.236 L2114.77 196.422 Q2117.62 198.019 2120.35 198.829 Q2123.08 199.639 2125.72 199.639 Q2129.73 199.639 2131.9 198.065 Q2134.08 196.491 2134.08 193.574 Q2134.08 191.028 2132.51 189.593 Q2130.95 188.158 2127.39 187.44 L2124.54 186.885 Q2119.31 185.843 2116.97 183.621 Q2114.63 181.398 2114.63 177.44 Q2114.63 172.857 2117.85 170.218 Q2121.09 167.579 2126.76 167.579 Q2129.19 167.579 2131.72 168.019 Q2134.24 168.459 2136.88 169.338 Z" fill="#000000" fill-rule="evenodd" fill-opacity="1" /><polyline clip-path="url(#clip110)" style="stroke:#e26f46; stroke-width:4; stroke-opacity:1; fill:none" points="
  1953.35,245.964 2091.59,245.964 
  "/>
<path clip-path="url(#clip110)" d="M 0 0 M2114.63 228.684 L2119.31 228.684 L2119.31 263.244 L2114.63 263.244 L2114.63 228.684 Z" fill="#000000" fill-rule="evenodd" fill-opacity="1" /><polyline clip-path="url(#clip110)" style="stroke:#3da44d; stroke-width:4; stroke-opacity:1; fill:none" points="
  1953.35,306.444 2091.59,306.444 
  "/>
<path clip-path="url(#clip110)" d="M 0 0 M2131.02 307.52 Q2132.53 308.03 2133.94 309.696 Q2135.38 311.363 2136.81 314.28 L2141.56 323.724 L2136.53 323.724 L2132.11 314.858 Q2130.4 311.386 2128.78 310.252 Q2127.18 309.118 2124.4 309.118 L2119.31 309.118 L2119.31 323.724 L2114.63 323.724 L2114.63 289.164 L2125.19 289.164 Q2131.12 289.164 2134.03 291.641 Q2136.95 294.118 2136.95 299.118 Q2136.95 302.382 2135.42 304.534 Q2133.92 306.687 2131.02 307.52 M2119.31 293.007 L2119.31 305.275 L2125.19 305.275 Q2128.57 305.275 2130.28 303.724 Q2132.02 302.15 2132.02 299.118 Q2132.02 296.085 2130.28 294.558 Q2128.57 293.007 2125.19 293.007 L2119.31 293.007 Z" fill="#000000" fill-rule="evenodd" fill-opacity="1" /></svg>
