<?xml version="1.0" encoding="utf-8"?>
<svg xmlns="http://www.w3.org/2000/svg" xmlns:xlink="http://www.w3.org/1999/xlink" width="576" height="384" viewBox="0 0 2304 1536">
<defs>
  <clipPath id="clip130">
    <rect x="0" y="0" width="2304" height="1536"/>
  </clipPath>
</defs>
<path clip-path="url(#clip130)" d="
M0 1536 L2304 1536 L2304 0 L0 0  Z
  " fill="#ffffff" fill-rule="evenodd" fill-opacity="1"/>
<defs>
  <clipPath id="clip131">
    <rect x="460" y="0" width="1614" height="1536"/>
  </clipPath>
</defs>
<path clip-path="url(#clip130)" d="
M233.165 1359.82 L2256.76 1359.82 L2256.76 47.2441 L233.165 47.2441  Z
  " fill="#ffffff" fill-rule="evenodd" fill-opacity="1"/>
<defs>
  <clipPath id="clip132">
    <rect x="233" y="47" width="2025" height="1314"/>
  </clipPath>
</defs>
<polyline clip-path="url(#clip132)" style="stroke:#000000; stroke-linecap:butt; stroke-linejoin:round; stroke-width:2; stroke-opacity:0.1; fill:none" points="
  411.17,1359.82 411.17,47.2441 
  "/>
<polyline clip-path="url(#clip132)" style="stroke:#000000; stroke-linecap:butt; stroke-linejoin:round; stroke-width:2; stroke-opacity:0.1; fill:none" points="
  577.928,1359.82 577.928,47.2441 
  "/>
<polyline clip-path="url(#clip132)" style="stroke:#000000; stroke-linecap:butt; stroke-linejoin:round; stroke-width:2; stroke-opacity:0.1; fill:none" points="
  744.686,1359.82 744.686,47.2441 
  "/>
<polyline clip-path="url(#clip132)" style="stroke:#000000; stroke-linecap:butt; stroke-linejoin:round; stroke-width:2; stroke-opacity:0.1; fill:none" points="
  911.444,1359.82 911.444,47.2441 
  "/>
<polyline clip-path="url(#clip132)" style="stroke:#000000; stroke-linecap:butt; stroke-linejoin:round; stroke-width:2; stroke-opacity:0.1; fill:none" points="
  1078.2,1359.82 1078.2,47.2441 
  "/>
<polyline clip-path="url(#clip132)" style="stroke:#000000; stroke-linecap:butt; stroke-linejoin:round; stroke-width:2; stroke-opacity:0.1; fill:none" points="
  1244.96,1359.82 1244.96,47.2441 
  "/>
<polyline clip-path="url(#clip132)" style="stroke:#000000; stroke-linecap:butt; stroke-linejoin:round; stroke-width:2; stroke-opacity:0.1; fill:none" points="
  1411.72,1359.82 1411.72,47.2441 
  "/>
<polyline clip-path="url(#clip132)" style="stroke:#000000; stroke-linecap:butt; stroke-linejoin:round; stroke-width:2; stroke-opacity:0.1; fill:none" points="
  1578.48,1359.82 1578.48,47.2441 
  "/>
<polyline clip-path="url(#clip132)" style="stroke:#000000; stroke-linecap:butt; stroke-linejoin:round; stroke-width:2; stroke-opacity:0.1; fill:none" points="
  1745.24,1359.82 1745.24,47.2441 
  "/>
<polyline clip-path="url(#clip132)" style="stroke:#000000; stroke-linecap:butt; stroke-linejoin:round; stroke-width:2; stroke-opacity:0.1; fill:none" points="
  1911.99,1359.82 1911.99,47.2441 
  "/>
<polyline clip-path="url(#clip132)" style="stroke:#000000; stroke-linecap:butt; stroke-linejoin:round; stroke-width:2; stroke-opacity:0.1; fill:none" points="
  2078.75,1359.82 2078.75,47.2441 
  "/>
<polyline clip-path="url(#clip130)" style="stroke:#000000; stroke-linecap:butt; stroke-linejoin:round; stroke-width:4; stroke-opacity:1; fill:none" points="
  233.165,1359.82 2256.76,1359.82 
  "/>
<polyline clip-path="url(#clip130)" style="stroke:#000000; stroke-linecap:butt; stroke-linejoin:round; stroke-width:4; stroke-opacity:1; fill:none" points="
  411.17,1359.82 411.17,1340.92 
  "/>
<polyline clip-path="url(#clip130)" style="stroke:#000000; stroke-linecap:butt; stroke-linejoin:round; stroke-width:4; stroke-opacity:1; fill:none" points="
  577.928,1359.82 577.928,1340.92 
  "/>
<polyline clip-path="url(#clip130)" style="stroke:#000000; stroke-linecap:butt; stroke-linejoin:round; stroke-width:4; stroke-opacity:1; fill:none" points="
  744.686,1359.82 744.686,1340.92 
  "/>
<polyline clip-path="url(#clip130)" style="stroke:#000000; stroke-linecap:butt; stroke-linejoin:round; stroke-width:4; stroke-opacity:1; fill:none" points="
  911.444,1359.82 911.444,1340.92 
  "/>
<polyline clip-path="url(#clip130)" style="stroke:#000000; stroke-linecap:butt; stroke-linejoin:round; stroke-width:4; stroke-opacity:1; fill:none" points="
  1078.2,1359.82 1078.2,1340.92 
  "/>
<polyline clip-path="url(#clip130)" style="stroke:#000000; stroke-linecap:butt; stroke-linejoin:round; stroke-width:4; stroke-opacity:1; fill:none" points="
  1244.96,1359.82 1244.96,1340.92 
  "/>
<polyline clip-path="url(#clip130)" style="stroke:#000000; stroke-linecap:butt; stroke-linejoin:round; stroke-width:4; stroke-opacity:1; fill:none" points="
  1411.72,1359.82 1411.72,1340.92 
  "/>
<polyline clip-path="url(#clip130)" style="stroke:#000000; stroke-linecap:butt; stroke-linejoin:round; stroke-width:4; stroke-opacity:1; fill:none" points="
  1578.48,1359.82 1578.48,1340.92 
  "/>
<polyline clip-path="url(#clip130)" style="stroke:#000000; stroke-linecap:butt; stroke-linejoin:round; stroke-width:4; stroke-opacity:1; fill:none" points="
  1745.24,1359.82 1745.24,1340.92 
  "/>
<polyline clip-path="url(#clip130)" style="stroke:#000000; stroke-linecap:butt; stroke-linejoin:round; stroke-width:4; stroke-opacity:1; fill:none" points="
  1911.99,1359.82 1911.99,1340.92 
  "/>
<polyline clip-path="url(#clip130)" style="stroke:#000000; stroke-linecap:butt; stroke-linejoin:round; stroke-width:4; stroke-opacity:1; fill:none" points="
  2078.75,1359.82 2078.75,1340.92 
  "/>
<path clip-path="url(#clip130)" d="M411.17 1389.97 Q407.559 1389.97 405.73 1393.54 Q403.924 1397.08 403.924 1404.21 Q403.924 1411.31 405.73 1414.88 Q407.559 1418.42 411.17 1418.42 Q414.804 1418.42 416.61 1414.88 Q418.438 1411.31 418.438 1404.21 Q418.438 1397.08 416.61 1393.54 Q414.804 1389.97 411.17 1389.97 M411.17 1386.27 Q416.98 1386.27 420.035 1390.87 Q423.114 1395.46 423.114 1404.21 Q423.114 1412.93 420.035 1417.54 Q416.98 1422.12 411.17 1422.12 Q405.36 1422.12 402.281 1417.54 Q399.225 1412.93 399.225 1404.21 Q399.225 1395.46 402.281 1390.87 Q405.36 1386.27 411.17 1386.27 Z" fill="#000000" fill-rule="evenodd" fill-opacity="1" /><path clip-path="url(#clip130)" d="M568.31 1417.52 L575.949 1417.52 L575.949 1391.15 L567.639 1392.82 L567.639 1388.56 L575.903 1386.89 L580.578 1386.89 L580.578 1417.52 L588.217 1417.52 L588.217 1421.45 L568.31 1421.45 L568.31 1417.52 Z" fill="#000000" fill-rule="evenodd" fill-opacity="1" /><path clip-path="url(#clip130)" d="M739.339 1417.52 L755.658 1417.52 L755.658 1421.45 L733.714 1421.45 L733.714 1417.52 Q736.376 1414.76 740.959 1410.13 Q745.566 1405.48 746.746 1404.14 Q748.992 1401.61 749.871 1399.88 Q750.774 1398.12 750.774 1396.43 Q750.774 1393.67 748.83 1391.94 Q746.908 1390.2 743.807 1390.2 Q741.607 1390.2 739.154 1390.97 Q736.723 1391.73 733.945 1393.28 L733.945 1388.56 Q736.77 1387.42 739.223 1386.85 Q741.677 1386.27 743.714 1386.27 Q749.084 1386.27 752.279 1388.95 Q755.473 1391.64 755.473 1396.13 Q755.473 1398.26 754.663 1400.18 Q753.876 1402.08 751.769 1404.67 Q751.191 1405.34 748.089 1408.56 Q744.987 1411.75 739.339 1417.52 Z" fill="#000000" fill-rule="evenodd" fill-opacity="1" /><path clip-path="url(#clip130)" d="M915.692 1402.82 Q919.048 1403.54 920.923 1405.8 Q922.822 1408.07 922.822 1411.41 Q922.822 1416.52 919.303 1419.32 Q915.785 1422.12 909.303 1422.12 Q907.127 1422.12 904.812 1421.68 Q902.521 1421.27 900.067 1420.41 L900.067 1415.9 Q902.012 1417.03 904.326 1417.61 Q906.641 1418.19 909.164 1418.19 Q913.562 1418.19 915.854 1416.45 Q918.169 1414.72 918.169 1411.41 Q918.169 1408.35 916.016 1406.64 Q913.886 1404.9 910.067 1404.9 L906.039 1404.9 L906.039 1401.06 L910.252 1401.06 Q913.701 1401.06 915.53 1399.69 Q917.359 1398.3 917.359 1395.71 Q917.359 1393.05 915.461 1391.64 Q913.586 1390.2 910.067 1390.2 Q908.146 1390.2 905.947 1390.62 Q903.748 1391.04 901.109 1391.91 L901.109 1387.75 Q903.771 1387.01 906.086 1386.64 Q908.424 1386.27 910.484 1386.27 Q915.808 1386.27 918.91 1388.7 Q922.011 1391.1 922.011 1395.23 Q922.011 1398.1 920.368 1400.09 Q918.724 1402.05 915.692 1402.82 Z" fill="#000000" fill-rule="evenodd" fill-opacity="1" /><path clip-path="url(#clip130)" d="M1081.21 1390.97 L1069.41 1409.41 L1081.21 1409.41 L1081.21 1390.97 M1079.98 1386.89 L1085.86 1386.89 L1085.86 1409.41 L1090.8 1409.41 L1090.8 1413.3 L1085.86 1413.3 L1085.86 1421.45 L1081.21 1421.45 L1081.21 1413.3 L1065.61 1413.3 L1065.61 1408.79 L1079.98 1386.89 Z" fill="#000000" fill-rule="evenodd" fill-opacity="1" /><path clip-path="url(#clip130)" d="M1235.24 1386.89 L1253.59 1386.89 L1253.59 1390.83 L1239.52 1390.83 L1239.52 1399.3 Q1240.54 1398.95 1241.56 1398.79 Q1242.58 1398.6 1243.59 1398.6 Q1249.38 1398.6 1252.76 1401.78 Q1256.14 1404.95 1256.14 1410.36 Q1256.14 1415.94 1252.67 1419.04 Q1249.2 1422.12 1242.88 1422.12 Q1240.7 1422.12 1238.43 1421.75 Q1236.19 1421.38 1233.78 1420.64 L1233.78 1415.94 Q1235.86 1417.08 1238.09 1417.63 Q1240.31 1418.19 1242.78 1418.19 Q1246.79 1418.19 1249.13 1416.08 Q1251.47 1413.98 1251.47 1410.36 Q1251.47 1406.75 1249.13 1404.65 Q1246.79 1402.54 1242.78 1402.54 Q1240.91 1402.54 1239.03 1402.96 Q1237.18 1403.37 1235.24 1404.25 L1235.24 1386.89 Z" fill="#000000" fill-rule="evenodd" fill-opacity="1" /><path clip-path="url(#clip130)" d="M1412.12 1402.31 Q1408.98 1402.31 1407.12 1404.46 Q1405.3 1406.61 1405.3 1410.36 Q1405.3 1414.09 1407.12 1416.27 Q1408.98 1418.42 1412.12 1418.42 Q1415.27 1418.42 1417.1 1416.27 Q1418.95 1414.09 1418.95 1410.36 Q1418.95 1406.61 1417.1 1404.46 Q1415.27 1402.31 1412.12 1402.31 M1421.41 1387.66 L1421.41 1391.91 Q1419.65 1391.08 1417.84 1390.64 Q1416.06 1390.2 1414.3 1390.2 Q1409.67 1390.2 1407.22 1393.33 Q1404.79 1396.45 1404.44 1402.77 Q1405.8 1400.76 1407.86 1399.69 Q1409.92 1398.6 1412.4 1398.6 Q1417.61 1398.6 1420.62 1401.78 Q1423.65 1404.92 1423.65 1410.36 Q1423.65 1415.69 1420.5 1418.91 Q1417.36 1422.12 1412.12 1422.12 Q1406.13 1422.12 1402.96 1417.54 Q1399.79 1412.93 1399.79 1404.21 Q1399.79 1396.01 1403.67 1391.15 Q1407.56 1386.27 1414.11 1386.27 Q1415.87 1386.27 1417.66 1386.61 Q1419.46 1386.96 1421.41 1387.66 Z" fill="#000000" fill-rule="evenodd" fill-opacity="1" /><path clip-path="url(#clip130)" d="M1567.37 1386.89 L1589.59 1386.89 L1589.59 1388.88 L1577.04 1421.45 L1572.16 1421.45 L1583.96 1390.83 L1567.37 1390.83 L1567.37 1386.89 Z" fill="#000000" fill-rule="evenodd" fill-opacity="1" /><path clip-path="url(#clip130)" d="M1745.24 1405.04 Q1741.9 1405.04 1739.98 1406.82 Q1738.08 1408.6 1738.08 1411.73 Q1738.08 1414.85 1739.98 1416.64 Q1741.9 1418.42 1745.24 1418.42 Q1748.57 1418.42 1750.49 1416.64 Q1752.41 1414.83 1752.41 1411.73 Q1752.41 1408.6 1750.49 1406.82 Q1748.59 1405.04 1745.24 1405.04 M1740.56 1403.05 Q1737.55 1402.31 1735.86 1400.25 Q1734.19 1398.19 1734.19 1395.23 Q1734.19 1391.08 1737.13 1388.67 Q1740.1 1386.27 1745.24 1386.27 Q1750.4 1386.27 1753.34 1388.67 Q1756.28 1391.08 1756.28 1395.23 Q1756.28 1398.19 1754.59 1400.25 Q1752.92 1402.31 1749.93 1403.05 Q1753.31 1403.84 1755.19 1406.13 Q1757.09 1408.42 1757.09 1411.73 Q1757.09 1416.75 1754.01 1419.44 Q1750.95 1422.12 1745.24 1422.12 Q1739.52 1422.12 1736.44 1419.44 Q1733.38 1416.75 1733.38 1411.73 Q1733.38 1408.42 1735.28 1406.13 Q1737.18 1403.84 1740.56 1403.05 M1738.85 1395.66 Q1738.85 1398.35 1740.51 1399.85 Q1742.2 1401.36 1745.24 1401.36 Q1748.24 1401.36 1749.93 1399.85 Q1751.65 1398.35 1751.65 1395.66 Q1751.65 1392.98 1749.93 1391.48 Q1748.24 1389.97 1745.24 1389.97 Q1742.2 1389.97 1740.51 1391.48 Q1738.85 1392.98 1738.85 1395.66 Z" fill="#000000" fill-rule="evenodd" fill-opacity="1" /><path clip-path="url(#clip130)" d="M1902.29 1420.73 L1902.29 1416.48 Q1904.05 1417.31 1905.86 1417.75 Q1907.66 1418.19 1909.4 1418.19 Q1914.03 1418.19 1916.46 1415.09 Q1918.91 1411.96 1919.26 1405.62 Q1917.92 1407.61 1915.86 1408.67 Q1913.8 1409.74 1911.3 1409.74 Q1906.11 1409.74 1903.08 1406.61 Q1900.07 1403.47 1900.07 1398.03 Q1900.07 1392.7 1903.22 1389.48 Q1906.37 1386.27 1911.6 1386.27 Q1917.6 1386.27 1920.74 1390.87 Q1923.91 1395.46 1923.91 1404.21 Q1923.91 1412.38 1920.03 1417.26 Q1916.16 1422.12 1909.61 1422.12 Q1907.85 1422.12 1906.04 1421.78 Q1904.24 1421.43 1902.29 1420.73 M1911.6 1406.08 Q1914.75 1406.08 1916.58 1403.93 Q1918.43 1401.78 1918.43 1398.03 Q1918.43 1394.3 1916.58 1392.15 Q1914.75 1389.97 1911.6 1389.97 Q1908.45 1389.97 1906.6 1392.15 Q1904.77 1394.3 1904.77 1398.03 Q1904.77 1401.78 1906.6 1403.93 Q1908.45 1406.08 1911.6 1406.08 Z" fill="#000000" fill-rule="evenodd" fill-opacity="1" /><path clip-path="url(#clip130)" d="M2053.44 1417.52 L2061.08 1417.52 L2061.08 1391.15 L2052.77 1392.82 L2052.77 1388.56 L2061.03 1386.89 L2065.71 1386.89 L2065.71 1417.52 L2073.35 1417.52 L2073.35 1421.45 L2053.44 1421.45 L2053.44 1417.52 Z" fill="#000000" fill-rule="evenodd" fill-opacity="1" /><path clip-path="url(#clip130)" d="M2092.79 1389.97 Q2089.18 1389.97 2087.35 1393.54 Q2085.55 1397.08 2085.55 1404.21 Q2085.55 1411.31 2087.35 1414.88 Q2089.18 1418.42 2092.79 1418.42 Q2096.43 1418.42 2098.23 1414.88 Q2100.06 1411.31 2100.06 1404.21 Q2100.06 1397.08 2098.23 1393.54 Q2096.43 1389.97 2092.79 1389.97 M2092.79 1386.27 Q2098.6 1386.27 2101.66 1390.87 Q2104.74 1395.46 2104.74 1404.21 Q2104.74 1412.93 2101.66 1417.54 Q2098.6 1422.12 2092.79 1422.12 Q2086.98 1422.12 2083.9 1417.54 Q2080.85 1412.93 2080.85 1404.21 Q2080.85 1395.46 2083.9 1390.87 Q2086.98 1386.27 2092.79 1386.27 Z" fill="#000000" fill-rule="evenodd" fill-opacity="1" /><path clip-path="url(#clip130)" d="M1117.23 1455.72 L1125.89 1455.72 L1146.96 1495.48 L1146.96 1455.72 L1153.2 1455.72 L1153.2 1503.24 L1144.54 1503.24 L1123.47 1463.49 L1123.47 1503.24 L1117.23 1503.24 L1117.23 1455.72 Z" fill="#000000" fill-rule="evenodd" fill-opacity="1" /><path clip-path="url(#clip130)" d="M1165.13 1489.18 L1165.13 1467.6 L1170.99 1467.6 L1170.99 1488.95 Q1170.99 1494.01 1172.96 1496.56 Q1174.94 1499.07 1178.88 1499.07 Q1183.63 1499.07 1186.36 1496.05 Q1189.13 1493.03 1189.13 1487.81 L1189.13 1467.6 L1194.99 1467.6 L1194.99 1503.24 L1189.13 1503.24 L1189.13 1497.77 Q1187 1501.02 1184.17 1502.61 Q1181.37 1504.17 1177.64 1504.17 Q1171.5 1504.17 1168.32 1500.35 Q1165.13 1496.53 1165.13 1489.18 M1179.87 1466.74 L1179.87 1466.74 Z" fill="#000000" fill-rule="evenodd" fill-opacity="1" /><path clip-path="url(#clip130)" d="M1234.81 1474.44 Q1237 1470.49 1240.06 1468.61 Q1243.11 1466.74 1247.25 1466.74 Q1252.82 1466.74 1255.85 1470.65 Q1258.87 1474.53 1258.87 1481.73 L1258.87 1503.24 L1252.98 1503.24 L1252.98 1481.92 Q1252.98 1476.79 1251.17 1474.31 Q1249.35 1471.83 1245.63 1471.83 Q1241.08 1471.83 1238.44 1474.85 Q1235.79 1477.88 1235.79 1483.1 L1235.79 1503.24 L1229.91 1503.24 L1229.91 1481.92 Q1229.91 1476.76 1228.09 1474.31 Q1226.28 1471.83 1222.49 1471.83 Q1218 1471.83 1215.36 1474.88 Q1212.72 1477.91 1212.72 1483.1 L1212.72 1503.24 L1206.83 1503.24 L1206.83 1467.6 L1212.72 1467.6 L1212.72 1473.13 Q1214.72 1469.86 1217.52 1468.3 Q1220.33 1466.74 1224.18 1466.74 Q1228.06 1466.74 1230.77 1468.71 Q1233.5 1470.68 1234.81 1474.44 Z" fill="#000000" fill-rule="evenodd" fill-opacity="1" /><path clip-path="url(#clip130)" d="M1296.14 1485.45 Q1296.14 1478.99 1293.47 1475.33 Q1290.83 1471.64 1286.18 1471.64 Q1281.53 1471.64 1278.86 1475.33 Q1276.22 1478.99 1276.22 1485.45 Q1276.22 1491.91 1278.86 1495.6 Q1281.53 1499.27 1286.18 1499.27 Q1290.83 1499.27 1293.47 1495.6 Q1296.14 1491.91 1296.14 1485.45 M1276.22 1473.01 Q1278.06 1469.82 1280.86 1468.3 Q1283.7 1466.74 1287.61 1466.74 Q1294.1 1466.74 1298.15 1471.89 Q1302.22 1477.05 1302.22 1485.45 Q1302.22 1493.85 1298.15 1499.01 Q1294.1 1504.17 1287.61 1504.17 Q1283.7 1504.17 1280.86 1502.64 Q1278.06 1501.08 1276.22 1497.9 L1276.22 1503.24 L1270.33 1503.24 L1270.33 1453.72 L1276.22 1453.72 L1276.22 1473.01 Z" fill="#000000" fill-rule="evenodd" fill-opacity="1" /><path clip-path="url(#clip130)" d="M1342.42 1483.96 L1342.42 1486.82 L1315.49 1486.82 Q1315.87 1492.87 1319.12 1496.05 Q1322.4 1499.2 1328.22 1499.2 Q1331.6 1499.2 1334.75 1498.37 Q1337.93 1497.55 1341.05 1495.89 L1341.05 1501.43 Q1337.9 1502.77 1334.59 1503.47 Q1331.28 1504.17 1327.87 1504.17 Q1319.34 1504.17 1314.35 1499.2 Q1309.38 1494.24 1309.38 1485.77 Q1309.38 1477.02 1314.09 1471.89 Q1318.83 1466.74 1326.86 1466.74 Q1334.05 1466.74 1338.22 1471.38 Q1342.42 1476 1342.42 1483.96 M1336.56 1482.24 Q1336.5 1477.43 1333.86 1474.57 Q1331.25 1471.7 1326.92 1471.7 Q1322.02 1471.7 1319.06 1474.47 Q1316.13 1477.24 1315.68 1482.27 L1336.56 1482.24 Z" fill="#000000" fill-rule="evenodd" fill-opacity="1" /><path clip-path="url(#clip130)" d="M1372.69 1473.07 Q1371.7 1472.5 1370.52 1472.24 Q1369.38 1471.96 1367.98 1471.96 Q1363.01 1471.96 1360.34 1475.2 Q1357.7 1478.42 1357.7 1484.47 L1357.7 1503.24 L1351.81 1503.24 L1351.81 1467.6 L1357.7 1467.6 L1357.7 1473.13 Q1359.54 1469.89 1362.5 1468.33 Q1365.46 1466.74 1369.7 1466.74 Q1370.3 1466.74 1371.03 1466.83 Q1371.77 1466.9 1372.66 1467.05 L1372.69 1473.07 Z" fill="#000000" fill-rule="evenodd" fill-opacity="1" /><polyline clip-path="url(#clip132)" style="stroke:#000000; stroke-linecap:butt; stroke-linejoin:round; stroke-width:2; stroke-opacity:0.1; fill:none" points="
  233.165,1322.67 2256.76,1322.67 
  "/>
<polyline clip-path="url(#clip132)" style="stroke:#000000; stroke-linecap:butt; stroke-linejoin:round; stroke-width:2; stroke-opacity:0.1; fill:none" points="
  233.165,966.844 2256.76,966.844 
  "/>
<polyline clip-path="url(#clip132)" style="stroke:#000000; stroke-linecap:butt; stroke-linejoin:round; stroke-width:2; stroke-opacity:0.1; fill:none" points="
  233.165,611.017 2256.76,611.017 
  "/>
<polyline clip-path="url(#clip132)" style="stroke:#000000; stroke-linecap:butt; stroke-linejoin:round; stroke-width:2; stroke-opacity:0.1; fill:none" points="
  233.165,255.19 2256.76,255.19 
  "/>
<polyline clip-path="url(#clip130)" style="stroke:#000000; stroke-linecap:butt; stroke-linejoin:round; stroke-width:4; stroke-opacity:1; fill:none" points="
  233.165,1359.82 233.165,47.2441 
  "/>
<polyline clip-path="url(#clip130)" style="stroke:#000000; stroke-linecap:butt; stroke-linejoin:round; stroke-width:4; stroke-opacity:1; fill:none" points="
  233.165,1322.67 252.063,1322.67 
  "/>
<polyline clip-path="url(#clip130)" style="stroke:#000000; stroke-linecap:butt; stroke-linejoin:round; stroke-width:4; stroke-opacity:1; fill:none" points="
  233.165,966.844 252.063,966.844 
  "/>
<polyline clip-path="url(#clip130)" style="stroke:#000000; stroke-linecap:butt; stroke-linejoin:round; stroke-width:4; stroke-opacity:1; fill:none" points="
  233.165,611.017 252.063,611.017 
  "/>
<polyline clip-path="url(#clip130)" style="stroke:#000000; stroke-linecap:butt; stroke-linejoin:round; stroke-width:4; stroke-opacity:1; fill:none" points="
  233.165,255.19 252.063,255.19 
  "/>
<path clip-path="url(#clip130)" d="M186.661 1308.47 Q183.05 1308.47 181.221 1312.03 Q179.416 1315.58 179.416 1322.71 Q179.416 1329.81 181.221 1333.38 Q183.05 1336.92 186.661 1336.92 Q190.295 1336.92 192.101 1333.38 Q193.93 1329.81 193.93 1322.71 Q193.93 1315.58 192.101 1312.03 Q190.295 1308.47 186.661 1308.47 M186.661 1304.77 Q192.471 1304.77 195.527 1309.37 Q198.605 1313.96 198.605 1322.71 Q198.605 1331.43 195.527 1336.04 Q192.471 1340.62 186.661 1340.62 Q180.851 1340.62 177.772 1336.04 Q174.717 1331.43 174.717 1322.71 Q174.717 1313.96 177.772 1309.37 Q180.851 1304.77 186.661 1304.77 Z" fill="#000000" fill-rule="evenodd" fill-opacity="1" /><path clip-path="url(#clip130)" d="M117.148 980.189 L124.786 980.189 L124.786 953.823 L116.476 955.49 L116.476 951.231 L124.74 949.564 L129.416 949.564 L129.416 980.189 L137.055 980.189 L137.055 984.124 L117.148 984.124 L117.148 980.189 Z" fill="#000000" fill-rule="evenodd" fill-opacity="1" /><path clip-path="url(#clip130)" d="M156.499 952.643 Q152.888 952.643 151.059 956.208 Q149.254 959.749 149.254 966.879 Q149.254 973.985 151.059 977.55 Q152.888 981.092 156.499 981.092 Q160.133 981.092 161.939 977.55 Q163.768 973.985 163.768 966.879 Q163.768 959.749 161.939 956.208 Q160.133 952.643 156.499 952.643 M156.499 948.939 Q162.309 948.939 165.365 953.546 Q168.444 958.129 168.444 966.879 Q168.444 975.606 165.365 980.212 Q162.309 984.795 156.499 984.795 Q150.689 984.795 147.61 980.212 Q144.555 975.606 144.555 966.879 Q144.555 958.129 147.61 953.546 Q150.689 948.939 156.499 948.939 Z" fill="#000000" fill-rule="evenodd" fill-opacity="1" /><path clip-path="url(#clip130)" d="M186.661 952.643 Q183.05 952.643 181.221 956.208 Q179.416 959.749 179.416 966.879 Q179.416 973.985 181.221 977.55 Q183.05 981.092 186.661 981.092 Q190.295 981.092 192.101 977.55 Q193.93 973.985 193.93 966.879 Q193.93 959.749 192.101 956.208 Q190.295 952.643 186.661 952.643 M186.661 948.939 Q192.471 948.939 195.527 953.546 Q198.605 958.129 198.605 966.879 Q198.605 975.606 195.527 980.212 Q192.471 984.795 186.661 984.795 Q180.851 984.795 177.772 980.212 Q174.717 975.606 174.717 966.879 Q174.717 958.129 177.772 953.546 Q180.851 948.939 186.661 948.939 Z" fill="#000000" fill-rule="evenodd" fill-opacity="1" /><path clip-path="url(#clip130)" d="M120.365 624.362 L136.684 624.362 L136.684 628.297 L114.74 628.297 L114.74 624.362 Q117.402 621.607 121.985 616.977 Q126.592 612.325 127.772 610.982 Q130.018 608.459 130.897 606.723 Q131.8 604.964 131.8 603.274 Q131.8 600.519 129.856 598.783 Q127.935 597.047 124.833 597.047 Q122.634 597.047 120.18 597.811 Q117.749 598.575 114.972 600.126 L114.972 595.404 Q117.796 594.269 120.249 593.691 Q122.703 593.112 124.74 593.112 Q130.11 593.112 133.305 595.797 Q136.499 598.482 136.499 602.973 Q136.499 605.103 135.689 607.024 Q134.902 608.922 132.796 611.515 Q132.217 612.186 129.115 615.403 Q126.013 618.598 120.365 624.362 Z" fill="#000000" fill-rule="evenodd" fill-opacity="1" /><path clip-path="url(#clip130)" d="M156.499 596.816 Q152.888 596.816 151.059 600.38 Q149.254 603.922 149.254 611.052 Q149.254 618.158 151.059 621.723 Q152.888 625.264 156.499 625.264 Q160.133 625.264 161.939 621.723 Q163.768 618.158 163.768 611.052 Q163.768 603.922 161.939 600.38 Q160.133 596.816 156.499 596.816 M156.499 593.112 Q162.309 593.112 165.365 597.718 Q168.444 602.302 168.444 611.052 Q168.444 619.778 165.365 624.385 Q162.309 628.968 156.499 628.968 Q150.689 628.968 147.61 624.385 Q144.555 619.778 144.555 611.052 Q144.555 602.302 147.61 597.718 Q150.689 593.112 156.499 593.112 Z" fill="#000000" fill-rule="evenodd" fill-opacity="1" /><path clip-path="url(#clip130)" d="M186.661 596.816 Q183.05 596.816 181.221 600.38 Q179.416 603.922 179.416 611.052 Q179.416 618.158 181.221 621.723 Q183.05 625.264 186.661 625.264 Q190.295 625.264 192.101 621.723 Q193.93 618.158 193.93 611.052 Q193.93 603.922 192.101 600.38 Q190.295 596.816 186.661 596.816 M186.661 593.112 Q192.471 593.112 195.527 597.718 Q198.605 602.302 198.605 611.052 Q198.605 619.778 195.527 624.385 Q192.471 628.968 186.661 628.968 Q180.851 628.968 177.772 624.385 Q174.717 619.778 174.717 611.052 Q174.717 602.302 177.772 597.718 Q180.851 593.112 186.661 593.112 Z" fill="#000000" fill-rule="evenodd" fill-opacity="1" /><path clip-path="url(#clip130)" d="M130.504 253.835 Q133.86 254.553 135.735 256.822 Q137.634 259.09 137.634 262.423 Q137.634 267.539 134.115 270.34 Q130.597 273.141 124.115 273.141 Q121.939 273.141 119.624 272.701 Q117.333 272.284 114.879 271.428 L114.879 266.914 Q116.823 268.048 119.138 268.627 Q121.453 269.206 123.976 269.206 Q128.374 269.206 130.666 267.47 Q132.981 265.733 132.981 262.423 Q132.981 259.368 130.828 257.655 Q128.698 255.919 124.879 255.919 L120.851 255.919 L120.851 252.076 L125.064 252.076 Q128.513 252.076 130.342 250.71 Q132.171 249.322 132.171 246.729 Q132.171 244.067 130.272 242.655 Q128.397 241.22 124.879 241.22 Q122.958 241.22 120.759 241.636 Q118.56 242.053 115.921 242.933 L115.921 238.766 Q118.583 238.025 120.898 237.655 Q123.235 237.285 125.296 237.285 Q130.62 237.285 133.722 239.715 Q136.823 242.123 136.823 246.243 Q136.823 249.113 135.18 251.104 Q133.536 253.072 130.504 253.835 Z" fill="#000000" fill-rule="evenodd" fill-opacity="1" /><path clip-path="url(#clip130)" d="M156.499 240.988 Q152.888 240.988 151.059 244.553 Q149.254 248.095 149.254 255.224 Q149.254 262.331 151.059 265.896 Q152.888 269.437 156.499 269.437 Q160.133 269.437 161.939 265.896 Q163.768 262.331 163.768 255.224 Q163.768 248.095 161.939 244.553 Q160.133 240.988 156.499 240.988 M156.499 237.285 Q162.309 237.285 165.365 241.891 Q168.444 246.474 168.444 255.224 Q168.444 263.951 165.365 268.558 Q162.309 273.141 156.499 273.141 Q150.689 273.141 147.61 268.558 Q144.555 263.951 144.555 255.224 Q144.555 246.474 147.61 241.891 Q150.689 237.285 156.499 237.285 Z" fill="#000000" fill-rule="evenodd" fill-opacity="1" /><path clip-path="url(#clip130)" d="M186.661 240.988 Q183.05 240.988 181.221 244.553 Q179.416 248.095 179.416 255.224 Q179.416 262.331 181.221 265.896 Q183.05 269.437 186.661 269.437 Q190.295 269.437 192.101 265.896 Q193.93 262.331 193.93 255.224 Q193.93 248.095 192.101 244.553 Q190.295 240.988 186.661 240.988 M186.661 237.285 Q192.471 237.285 195.527 241.891 Q198.605 246.474 198.605 255.224 Q198.605 263.951 195.527 268.558 Q192.471 273.141 186.661 273.141 Q180.851 273.141 177.772 268.558 Q174.717 263.951 174.717 255.224 Q174.717 246.474 177.772 241.891 Q180.851 237.285 186.661 237.285 Z" fill="#000000" fill-rule="evenodd" fill-opacity="1" /><path clip-path="url(#clip130)" d="M18.4042 867.735 L18.4042 840.426 L23.815 840.426 L23.815 861.306 L37.8196 861.306 L37.8196 842.464 L43.2304 842.464 L43.2304 861.306 L65.9242 861.306 L65.9242 867.735 L18.4042 867.735 Z" fill="#000000" fill-rule="evenodd" fill-opacity="1" /><path clip-path="url(#clip130)" d="M35.7507 814.582 Q35.1778 815.568 34.9232 816.746 Q34.6367 817.892 34.6367 819.292 Q34.6367 824.258 37.8832 826.931 Q41.0979 829.573 47.1453 829.573 L65.9242 829.573 L65.9242 835.461 L30.2762 835.461 L30.2762 829.573 L35.8144 829.573 Q32.5679 827.727 31.0083 824.767 Q29.4168 821.807 29.4168 817.574 Q29.4168 816.969 29.5123 816.237 Q29.576 815.505 29.7351 814.614 L35.7507 814.582 Z" fill="#000000" fill-rule="evenodd" fill-opacity="1" /><path clip-path="url(#clip130)" d="M46.6361 779.379 L49.5006 779.379 L49.5006 806.306 Q55.5481 805.924 58.7309 802.678 Q61.8819 799.4 61.8819 793.575 Q61.8819 790.201 61.0544 787.05 Q60.2269 783.867 58.5718 780.748 L64.1099 780.748 Q65.4467 783.899 66.147 787.209 Q66.8472 790.519 66.8472 793.925 Q66.8472 802.455 61.8819 807.452 Q56.9167 812.417 48.4503 812.417 Q39.6974 812.417 34.5731 807.707 Q29.4168 802.964 29.4168 794.944 Q29.4168 787.75 34.0638 783.581 Q38.6789 779.379 46.6361 779.379 M44.9173 785.236 Q40.1112 785.299 37.2466 787.941 Q34.3821 790.551 34.3821 794.88 Q34.3821 799.781 37.1512 802.742 Q39.9202 805.67 44.9492 806.115 L44.9173 785.236 Z" fill="#000000" fill-rule="evenodd" fill-opacity="1" /><path clip-path="url(#clip130)" d="M48.132 766.266 Q54.5932 766.266 58.2853 763.624 Q61.9456 760.951 61.9456 756.304 Q61.9456 751.657 58.2853 748.983 Q54.5932 746.31 48.132 746.31 Q41.6708 746.31 38.0105 748.983 Q34.3184 751.657 34.3184 756.304 Q34.3184 760.951 38.0105 763.624 Q41.6708 766.266 48.132 766.266 M60.577 746.31 Q63.7598 748.156 65.3194 750.988 Q66.8472 753.789 66.8472 757.736 Q66.8472 764.197 61.691 768.271 Q56.5347 772.313 48.132 772.313 Q39.7293 772.313 34.5731 768.271 Q29.4168 764.197 29.4168 757.736 Q29.4168 753.789 30.9764 750.988 Q32.5042 748.156 35.6871 746.31 L30.2762 746.31 L30.2762 740.453 L79.4831 740.453 L79.4831 746.31 L60.577 746.31 Z" fill="#000000" fill-rule="evenodd" fill-opacity="1" /><path clip-path="url(#clip130)" d="M51.8559 728.995 L30.2762 728.995 L30.2762 723.138 L51.6331 723.138 Q56.6939 723.138 59.2402 721.165 Q61.7546 719.192 61.7546 715.245 Q61.7546 710.502 58.7309 707.765 Q55.7072 704.996 50.4873 704.996 L30.2762 704.996 L30.2762 699.14 L65.9242 699.14 L65.9242 704.996 L60.4496 704.996 Q63.6962 707.129 65.2876 709.961 Q66.8472 712.762 66.8472 716.486 Q66.8472 722.629 63.0278 725.812 Q59.2083 728.995 51.8559 728.995 M29.4168 714.258 L29.4168 714.258 Z" fill="#000000" fill-rule="evenodd" fill-opacity="1" /><path clip-path="url(#clip130)" d="M46.6361 656.585 L49.5006 656.585 L49.5006 683.512 Q55.5481 683.13 58.7309 679.883 Q61.8819 676.605 61.8819 670.78 Q61.8819 667.407 61.0544 664.256 Q60.2269 661.073 58.5718 657.954 L64.1099 657.954 Q65.4467 661.105 66.147 664.415 Q66.8472 667.725 66.8472 671.131 Q66.8472 679.661 61.8819 684.658 Q56.9167 689.623 48.4503 689.623 Q39.6974 689.623 34.5731 684.912 Q29.4168 680.17 29.4168 672.149 Q29.4168 664.956 34.0638 660.786 Q38.6789 656.585 46.6361 656.585 M44.9173 662.441 Q40.1112 662.505 37.2466 665.147 Q34.3821 667.757 34.3821 672.085 Q34.3821 676.987 37.1512 679.947 Q39.9202 682.875 44.9492 683.321 L44.9173 662.441 Z" fill="#000000" fill-rule="evenodd" fill-opacity="1" /><path clip-path="url(#clip130)" d="M44.4081 617.34 L65.9242 617.34 L65.9242 623.197 L44.599 623.197 Q39.5383 623.197 37.0238 625.17 Q34.5094 627.143 34.5094 631.09 Q34.5094 635.833 37.5331 638.57 Q40.5568 641.307 45.7767 641.307 L65.9242 641.307 L65.9242 647.195 L30.2762 647.195 L30.2762 641.307 L35.8144 641.307 Q32.5997 639.207 31.0083 636.374 Q29.4168 633.509 29.4168 629.785 Q29.4168 623.642 33.2363 620.491 Q37.0238 617.34 44.4081 617.34 Z" fill="#000000" fill-rule="evenodd" fill-opacity="1" /><path clip-path="url(#clip130)" d="M31.6448 580.005 L37.1193 580.005 Q35.7507 582.488 35.0823 585.003 Q34.3821 587.485 34.3821 590.031 Q34.3821 595.729 38.0105 598.88 Q41.6072 602.031 48.132 602.031 Q54.6569 602.031 58.2853 598.88 Q61.8819 595.729 61.8819 590.031 Q61.8819 587.485 61.2135 585.003 Q60.5133 582.488 59.1447 580.005 L64.5555 580.005 Q65.7014 582.456 66.2743 585.098 Q66.8472 587.708 66.8472 590.668 Q66.8472 598.721 61.7864 603.463 Q56.7257 608.206 48.132 608.206 Q39.411 608.206 34.4139 603.431 Q29.4168 598.625 29.4168 590.286 Q29.4168 587.581 29.9897 585.003 Q30.5308 582.424 31.6448 580.005 Z" fill="#000000" fill-rule="evenodd" fill-opacity="1" /><path clip-path="url(#clip130)" d="M69.2343 554.988 Q75.6 557.471 77.5416 559.826 Q79.4831 562.181 79.4831 566.128 L79.4831 570.807 L74.5815 570.807 L74.5815 567.37 Q74.5815 564.951 73.4357 563.614 Q72.2899 562.277 68.0248 560.654 L65.3512 559.603 L30.2762 574.022 L30.2762 567.815 L58.158 556.675 L30.2762 545.535 L30.2762 539.329 L69.2343 554.988 Z" fill="#000000" fill-rule="evenodd" fill-opacity="1" /><path clip-path="url(#clip132)" d="
M344.467 84.3925 L344.467 1322.67 L477.873 1322.67 L477.873 84.3925 L344.467 84.3925 L344.467 84.3925  Z
  " fill="#009af9" fill-rule="evenodd" fill-opacity="1"/>
<polyline clip-path="url(#clip132)" style="stroke:#000000; stroke-linecap:butt; stroke-linejoin:round; stroke-width:4; stroke-opacity:1; fill:none" points="
  344.467,84.3925 344.467,1322.67 477.873,1322.67 477.873,84.3925 344.467,84.3925 
  "/>
<path clip-path="url(#clip132)" d="
M511.225 667.949 L511.225 1322.67 L644.631 1322.67 L644.631 667.949 L511.225 667.949 L511.225 667.949  Z
  " fill="#e26f46" fill-rule="evenodd" fill-opacity="1"/>
<polyline clip-path="url(#clip132)" style="stroke:#000000; stroke-linecap:butt; stroke-linejoin:round; stroke-width:4; stroke-opacity:1; fill:none" points="
  511.225,667.949 511.225,1322.67 644.631,1322.67 644.631,667.949 511.225,667.949 
  "/>
<path clip-path="url(#clip132)" d="
M677.983 1009.54 L677.983 1322.67 L811.389 1322.67 L811.389 1009.54 L677.983 1009.54 L677.983 1009.54  Z
  " fill="#3da44d" fill-rule="evenodd" fill-opacity="1"/>
<polyline clip-path="url(#clip132)" style="stroke:#000000; stroke-linecap:butt; stroke-linejoin:round; stroke-width:4; stroke-opacity:1; fill:none" points="
  677.983,1009.54 677.983,1322.67 811.389,1322.67 811.389,1009.54 677.983,1009.54 
  "/>
<path clip-path="url(#clip132)" d="
M844.741 1162.55 L844.741 1322.67 L978.148 1322.67 L978.148 1162.55 L844.741 1162.55 L844.741 1162.55  Z
  " fill="#c271d2" fill-rule="evenodd" fill-opacity="1"/>
<polyline clip-path="url(#clip132)" style="stroke:#000000; stroke-linecap:butt; stroke-linejoin:round; stroke-width:4; stroke-opacity:1; fill:none" points="
  844.741,1162.55 844.741,1322.67 978.148,1322.67 978.148,1162.55 844.741,1162.55 
  "/>
<path clip-path="url(#clip132)" d="
M1011.5 1251.51 L1011.5 1322.67 L1144.91 1322.67 L1144.91 1251.51 L1011.5 1251.51 L1011.5 1251.51  Z
  " fill="#ac8d18" fill-rule="evenodd" fill-opacity="1"/>
<polyline clip-path="url(#clip132)" style="stroke:#000000; stroke-linecap:butt; stroke-linejoin:round; stroke-width:4; stroke-opacity:1; fill:none" points="
  1011.5,1251.51 1011.5,1322.67 1144.91,1322.67 1144.91,1251.51 1011.5,1251.51 
  "/>
<path clip-path="url(#clip132)" d="
M1178.26 1269.3 L1178.26 1322.67 L1311.66 1322.67 L1311.66 1269.3 L1178.26 1269.3 L1178.26 1269.3  Z
  " fill="#00a9ad" fill-rule="evenodd" fill-opacity="1"/>
<polyline clip-path="url(#clip132)" style="stroke:#000000; stroke-linecap:butt; stroke-linejoin:round; stroke-width:4; stroke-opacity:1; fill:none" points="
  1178.26,1269.3 1178.26,1322.67 1311.66,1322.67 1311.66,1269.3 1178.26,1269.3 
  "/>
<path clip-path="url(#clip132)" d="
M1345.02 1322.67 L1345.02 1322.67 L1478.42 1322.67 L1478.42 1322.67 L1345.02 1322.67 L1345.02 1322.67  Z
  " fill="#ed5d92" fill-rule="evenodd" fill-opacity="1"/>
<polyline clip-path="url(#clip132)" style="stroke:#000000; stroke-linecap:butt; stroke-linejoin:round; stroke-width:4; stroke-opacity:1; fill:none" points="
  1345.02,1322.67 1345.02,1322.67 1478.42,1322.67 1345.02,1322.67 
  "/>
<path clip-path="url(#clip132)" d="
M1511.77 1308.44 L1511.77 1322.67 L1645.18 1322.67 L1645.18 1308.44 L1511.77 1308.44 L1511.77 1308.44  Z
  " fill="#c68125" fill-rule="evenodd" fill-opacity="1"/>
<polyline clip-path="url(#clip132)" style="stroke:#000000; stroke-linecap:butt; stroke-linejoin:round; stroke-width:4; stroke-opacity:1; fill:none" points="
  1511.77,1308.44 1511.77,1322.67 1645.18,1322.67 1645.18,1308.44 1511.77,1308.44 
  "/>
<path clip-path="url(#clip132)" d="
M1678.53 1319.11 L1678.53 1322.67 L1811.94 1322.67 L1811.94 1319.11 L1678.53 1319.11 L1678.53 1319.11  Z
  " fill="#00a98d" fill-rule="evenodd" fill-opacity="1"/>
<polyline clip-path="url(#clip132)" style="stroke:#000000; stroke-linecap:butt; stroke-linejoin:round; stroke-width:4; stroke-opacity:1; fill:none" points="
  1678.53,1319.11 1678.53,1322.67 1811.94,1322.67 1811.94,1319.11 1678.53,1319.11 
  "/>
<path clip-path="url(#clip132)" d="
M1845.29 1322.67 L1845.29 1322.67 L1978.7 1322.67 L1978.7 1322.67 L1845.29 1322.67 L1845.29 1322.67  Z
  " fill="#8e971d" fill-rule="evenodd" fill-opacity="1"/>
<polyline clip-path="url(#clip132)" style="stroke:#000000; stroke-linecap:butt; stroke-linejoin:round; stroke-width:4; stroke-opacity:1; fill:none" points="
  1845.29,1322.67 1845.29,1322.67 1978.7,1322.67 1845.29,1322.67 
  "/>
<path clip-path="url(#clip132)" d="
M2012.05 1319.11 L2012.05 1322.67 L2145.45 1322.67 L2145.45 1319.11 L2012.05 1319.11 L2012.05 1319.11  Z
  " fill="#00a8cb" fill-rule="evenodd" fill-opacity="1"/>
<polyline clip-path="url(#clip132)" style="stroke:#000000; stroke-linecap:butt; stroke-linejoin:round; stroke-width:4; stroke-opacity:1; fill:none" points="
  2012.05,1319.11 2012.05,1322.67 2145.45,1322.67 2145.45,1319.11 2012.05,1319.11 
  "/>
<circle clip-path="url(#clip132)" style="fill:#009af9; stroke:none; fill-opacity:0" cx="411.17" cy="84.3925" r="2"/>
<circle clip-path="url(#clip132)" style="fill:#e26f46; stroke:none; fill-opacity:0" cx="577.928" cy="667.949" r="2"/>
<circle clip-path="url(#clip132)" style="fill:#3da44d; stroke:none; fill-opacity:0" cx="744.686" cy="1009.54" r="2"/>
<circle clip-path="url(#clip132)" style="fill:#c271d2; stroke:none; fill-opacity:0" cx="911.444" cy="1162.55" r="2"/>
<circle clip-path="url(#clip132)" style="fill:#ac8d18; stroke:none; fill-opacity:0" cx="1078.2" cy="1251.51" r="2"/>
<circle clip-path="url(#clip132)" style="fill:#00a9ad; stroke:none; fill-opacity:0" cx="1244.96" cy="1269.3" r="2"/>
<circle clip-path="url(#clip132)" style="fill:#ed5d92; stroke:none; fill-opacity:0" cx="1411.72" cy="1322.67" r="2"/>
<circle clip-path="url(#clip132)" style="fill:#c68125; stroke:none; fill-opacity:0" cx="1578.48" cy="1308.44" r="2"/>
<circle clip-path="url(#clip132)" style="fill:#00a98d; stroke:none; fill-opacity:0" cx="1745.24" cy="1319.11" r="2"/>
<circle clip-path="url(#clip132)" style="fill:#8e971d; stroke:none; fill-opacity:0" cx="1911.99" cy="1322.67" r="2"/>
<circle clip-path="url(#clip132)" style="fill:#00a8cb; stroke:none; fill-opacity:0" cx="2078.75" cy="1319.11" r="2"/>
</svg>
