<?xml version="1.0" encoding="utf-8"?>
<svg xmlns="http://www.w3.org/2000/svg" xmlns:xlink="http://www.w3.org/1999/xlink" width="576" height="384" viewBox="0 0 2304 1536">
<defs>
  <clipPath id="clip260">
    <rect x="0" y="0" width="2304" height="1536"/>
  </clipPath>
</defs>
<path clip-path="url(#clip260)" d="
M0 1536 L2304 1536 L2304 0 L0 0  Z
  " fill="#ffffff" fill-rule="evenodd" fill-opacity="1"/>
<defs>
  <clipPath id="clip261">
    <rect x="460" y="0" width="1614" height="1536"/>
  </clipPath>
</defs>
<path clip-path="url(#clip260)" d="
M162.814 1423.09 L1105.16 1423.09 L1105.16 123.472 L162.814 123.472  Z
  " fill="#ffffff" fill-rule="evenodd" fill-opacity="1"/>
<defs>
  <clipPath id="clip262">
    <rect x="162" y="123" width="943" height="1301"/>
  </clipPath>
</defs>
<polyline clip-path="url(#clip262)" style="stroke:#000000; stroke-width:2; stroke-opacity:0.1; fill:none" points="
  214.645,1423.09 214.645,123.472 
  "/>
<polyline clip-path="url(#clip262)" style="stroke:#000000; stroke-width:2; stroke-opacity:0.1; fill:none" points="
  367.133,1423.09 367.133,123.472 
  "/>
<polyline clip-path="url(#clip262)" style="stroke:#000000; stroke-width:2; stroke-opacity:0.1; fill:none" points="
  519.621,1423.09 519.621,123.472 
  "/>
<polyline clip-path="url(#clip262)" style="stroke:#000000; stroke-width:2; stroke-opacity:0.1; fill:none" points="
  672.11,1423.09 672.11,123.472 
  "/>
<polyline clip-path="url(#clip262)" style="stroke:#000000; stroke-width:2; stroke-opacity:0.1; fill:none" points="
  824.598,1423.09 824.598,123.472 
  "/>
<polyline clip-path="url(#clip262)" style="stroke:#000000; stroke-width:2; stroke-opacity:0.1; fill:none" points="
  977.086,1423.09 977.086,123.472 
  "/>
<polyline clip-path="url(#clip262)" style="stroke:#000000; stroke-width:2; stroke-opacity:0.1; fill:none" points="
  162.814,1386.31 1105.16,1386.31 
  "/>
<polyline clip-path="url(#clip262)" style="stroke:#000000; stroke-width:2; stroke-opacity:0.1; fill:none" points="
  162.814,978.98 1105.16,978.98 
  "/>
<polyline clip-path="url(#clip262)" style="stroke:#000000; stroke-width:2; stroke-opacity:0.1; fill:none" points="
  162.814,571.653 1105.16,571.653 
  "/>
<polyline clip-path="url(#clip262)" style="stroke:#000000; stroke-width:2; stroke-opacity:0.1; fill:none" points="
  162.814,164.327 1105.16,164.327 
  "/>
<polyline clip-path="url(#clip260)" style="stroke:#000000; stroke-width:4; stroke-opacity:1; fill:none" points="
  162.814,1423.09 1105.16,1423.09 
  "/>
<polyline clip-path="url(#clip260)" style="stroke:#000000; stroke-width:4; stroke-opacity:1; fill:none" points="
  162.814,1423.09 162.814,123.472 
  "/>
<polyline clip-path="url(#clip260)" style="stroke:#000000; stroke-width:4; stroke-opacity:1; fill:none" points="
  214.645,1423.09 214.645,1407.49 
  "/>
<polyline clip-path="url(#clip260)" style="stroke:#000000; stroke-width:4; stroke-opacity:1; fill:none" points="
  367.133,1423.09 367.133,1407.49 
  "/>
<polyline clip-path="url(#clip260)" style="stroke:#000000; stroke-width:4; stroke-opacity:1; fill:none" points="
  519.621,1423.09 519.621,1407.49 
  "/>
<polyline clip-path="url(#clip260)" style="stroke:#000000; stroke-width:4; stroke-opacity:1; fill:none" points="
  672.11,1423.09 672.11,1407.49 
  "/>
<polyline clip-path="url(#clip260)" style="stroke:#000000; stroke-width:4; stroke-opacity:1; fill:none" points="
  824.598,1423.09 824.598,1407.49 
  "/>
<polyline clip-path="url(#clip260)" style="stroke:#000000; stroke-width:4; stroke-opacity:1; fill:none" points="
  977.086,1423.09 977.086,1407.49 
  "/>
<polyline clip-path="url(#clip260)" style="stroke:#000000; stroke-width:4; stroke-opacity:1; fill:none" points="
  162.814,1386.31 174.122,1386.31 
  "/>
<polyline clip-path="url(#clip260)" style="stroke:#000000; stroke-width:4; stroke-opacity:1; fill:none" points="
  162.814,978.98 174.122,978.98 
  "/>
<polyline clip-path="url(#clip260)" style="stroke:#000000; stroke-width:4; stroke-opacity:1; fill:none" points="
  162.814,571.653 174.122,571.653 
  "/>
<polyline clip-path="url(#clip260)" style="stroke:#000000; stroke-width:4; stroke-opacity:1; fill:none" points="
  162.814,164.327 174.122,164.327 
  "/>
<path clip-path="url(#clip260)" d="M 0 0 M182.654 1444.6 Q179.043 1444.6 177.215 1448.16 Q175.409 1451.71 175.409 1458.83 Q175.409 1465.94 177.215 1469.51 Q179.043 1473.05 182.654 1473.05 Q186.289 1473.05 188.094 1469.51 Q189.923 1465.94 189.923 1458.83 Q189.923 1451.71 188.094 1448.16 Q186.289 1444.6 182.654 1444.6 M182.654 1440.89 Q188.464 1440.89 191.52 1445.5 Q194.599 1450.08 194.599 1458.83 Q194.599 1467.56 191.52 1472.17 Q188.464 1476.75 182.654 1476.75 Q176.844 1476.75 173.765 1472.17 Q170.71 1467.56 170.71 1458.83 Q170.71 1450.08 173.765 1445.5 Q176.844 1440.89 182.654 1440.89 Z" fill="#000000" fill-rule="evenodd" fill-opacity="1" /><path clip-path="url(#clip260)" d="M 0 0 M199.668 1470.2 L204.552 1470.2 L204.552 1476.08 L199.668 1476.08 L199.668 1470.2 Z" fill="#000000" fill-rule="evenodd" fill-opacity="1" /><path clip-path="url(#clip260)" d="M 0 0 M219.622 1444.6 Q216.011 1444.6 214.182 1448.16 Q212.376 1451.71 212.376 1458.83 Q212.376 1465.94 214.182 1469.51 Q216.011 1473.05 219.622 1473.05 Q223.256 1473.05 225.061 1469.51 Q226.89 1465.94 226.89 1458.83 Q226.89 1451.71 225.061 1448.16 Q223.256 1444.6 219.622 1444.6 M219.622 1440.89 Q225.432 1440.89 228.487 1445.5 Q231.566 1450.08 231.566 1458.83 Q231.566 1467.56 228.487 1472.17 Q225.432 1476.75 219.622 1476.75 Q213.812 1476.75 210.733 1472.17 Q207.677 1467.56 207.677 1458.83 Q207.677 1450.08 210.733 1445.5 Q213.812 1440.89 219.622 1440.89 Z" fill="#000000" fill-rule="evenodd" fill-opacity="1" /><path clip-path="url(#clip260)" d="M 0 0 M246.635 1444.6 Q243.024 1444.6 241.196 1448.16 Q239.39 1451.71 239.39 1458.83 Q239.39 1465.94 241.196 1469.51 Q243.024 1473.05 246.635 1473.05 Q250.27 1473.05 252.075 1469.51 Q253.904 1465.94 253.904 1458.83 Q253.904 1451.71 252.075 1448.16 Q250.27 1444.6 246.635 1444.6 M246.635 1440.89 Q252.446 1440.89 255.501 1445.5 Q258.58 1450.08 258.58 1458.83 Q258.58 1467.56 255.501 1472.17 Q252.446 1476.75 246.635 1476.75 Q240.825 1476.75 237.747 1472.17 Q234.691 1467.56 234.691 1458.83 Q234.691 1450.08 237.747 1445.5 Q240.825 1440.89 246.635 1440.89 Z" fill="#000000" fill-rule="evenodd" fill-opacity="1" /><path clip-path="url(#clip260)" d="M 0 0 M335.756 1444.6 Q332.145 1444.6 330.316 1448.16 Q328.511 1451.71 328.511 1458.83 Q328.511 1465.94 330.316 1469.51 Q332.145 1473.05 335.756 1473.05 Q339.39 1473.05 341.196 1469.51 Q343.024 1465.94 343.024 1458.83 Q343.024 1451.71 341.196 1448.16 Q339.39 1444.6 335.756 1444.6 M335.756 1440.89 Q341.566 1440.89 344.622 1445.5 Q347.7 1450.08 347.7 1458.83 Q347.7 1467.56 344.622 1472.17 Q341.566 1476.75 335.756 1476.75 Q329.946 1476.75 326.867 1472.17 Q323.812 1467.56 323.812 1458.83 Q323.812 1450.08 326.867 1445.5 Q329.946 1440.89 335.756 1440.89 Z" fill="#000000" fill-rule="evenodd" fill-opacity="1" /><path clip-path="url(#clip260)" d="M 0 0 M352.77 1470.2 L357.654 1470.2 L357.654 1476.08 L352.77 1476.08 L352.77 1470.2 Z" fill="#000000" fill-rule="evenodd" fill-opacity="1" /><path clip-path="url(#clip260)" d="M 0 0 M372.723 1444.6 Q369.112 1444.6 367.284 1448.16 Q365.478 1451.71 365.478 1458.83 Q365.478 1465.94 367.284 1469.51 Q369.112 1473.05 372.723 1473.05 Q376.358 1473.05 378.163 1469.51 Q379.992 1465.94 379.992 1458.83 Q379.992 1451.71 378.163 1448.16 Q376.358 1444.6 372.723 1444.6 M372.723 1440.89 Q378.534 1440.89 381.589 1445.5 Q384.668 1450.08 384.668 1458.83 Q384.668 1467.56 381.589 1472.17 Q378.534 1476.75 372.723 1476.75 Q366.913 1476.75 363.835 1472.17 Q360.779 1467.56 360.779 1458.83 Q360.779 1450.08 363.835 1445.5 Q366.913 1440.89 372.723 1440.89 Z" fill="#000000" fill-rule="evenodd" fill-opacity="1" /><path clip-path="url(#clip260)" d="M 0 0 M390.547 1472.14 L398.186 1472.14 L398.186 1445.78 L389.876 1447.45 L389.876 1443.19 L398.14 1441.52 L402.816 1441.52 L402.816 1472.14 L410.455 1472.14 L410.455 1476.08 L390.547 1476.08 L390.547 1472.14 Z" fill="#000000" fill-rule="evenodd" fill-opacity="1" /><path clip-path="url(#clip260)" d="M 0 0 M488.429 1444.6 Q484.818 1444.6 482.99 1448.16 Q481.184 1451.71 481.184 1458.83 Q481.184 1465.94 482.99 1469.51 Q484.818 1473.05 488.429 1473.05 Q492.064 1473.05 493.869 1469.51 Q495.698 1465.94 495.698 1458.83 Q495.698 1451.71 493.869 1448.16 Q492.064 1444.6 488.429 1444.6 M488.429 1440.89 Q494.24 1440.89 497.295 1445.5 Q500.374 1450.08 500.374 1458.83 Q500.374 1467.56 497.295 1472.17 Q494.24 1476.75 488.429 1476.75 Q482.619 1476.75 479.541 1472.17 Q476.485 1467.56 476.485 1458.83 Q476.485 1450.08 479.541 1445.5 Q482.619 1440.89 488.429 1440.89 Z" fill="#000000" fill-rule="evenodd" fill-opacity="1" /><path clip-path="url(#clip260)" d="M 0 0 M505.443 1470.2 L510.327 1470.2 L510.327 1476.08 L505.443 1476.08 L505.443 1470.2 Z" fill="#000000" fill-rule="evenodd" fill-opacity="1" /><path clip-path="url(#clip260)" d="M 0 0 M525.397 1444.6 Q521.786 1444.6 519.957 1448.16 Q518.151 1451.71 518.151 1458.83 Q518.151 1465.94 519.957 1469.51 Q521.786 1473.05 525.397 1473.05 Q529.031 1473.05 530.837 1469.51 Q532.665 1465.94 532.665 1458.83 Q532.665 1451.71 530.837 1448.16 Q529.031 1444.6 525.397 1444.6 M525.397 1440.89 Q531.207 1440.89 534.262 1445.5 Q537.341 1450.08 537.341 1458.83 Q537.341 1467.56 534.262 1472.17 Q531.207 1476.75 525.397 1476.75 Q519.587 1476.75 516.508 1472.17 Q513.452 1467.56 513.452 1458.83 Q513.452 1450.08 516.508 1445.5 Q519.587 1440.89 525.397 1440.89 Z" fill="#000000" fill-rule="evenodd" fill-opacity="1" /><path clip-path="url(#clip260)" d="M 0 0 M546.438 1472.14 L562.758 1472.14 L562.758 1476.08 L540.813 1476.08 L540.813 1472.14 Q543.475 1469.39 548.059 1464.76 Q552.665 1460.11 553.846 1458.77 Q556.091 1456.24 556.971 1454.51 Q557.873 1452.75 557.873 1451.06 Q557.873 1448.3 555.929 1446.57 Q554.008 1444.83 550.906 1444.83 Q548.707 1444.83 546.253 1445.59 Q543.823 1446.36 541.045 1447.91 L541.045 1443.19 Q543.869 1442.05 546.323 1441.47 Q548.776 1440.89 550.813 1440.89 Q556.184 1440.89 559.378 1443.58 Q562.573 1446.27 562.573 1450.76 Q562.573 1452.89 561.762 1454.81 Q560.975 1456.7 558.869 1459.3 Q558.29 1459.97 555.188 1463.19 Q552.086 1466.38 546.438 1472.14 Z" fill="#000000" fill-rule="evenodd" fill-opacity="1" /><path clip-path="url(#clip260)" d="M 0 0 M640.443 1444.6 Q636.832 1444.6 635.003 1448.16 Q633.198 1451.71 633.198 1458.83 Q633.198 1465.94 635.003 1469.51 Q636.832 1473.05 640.443 1473.05 Q644.077 1473.05 645.883 1469.51 Q647.712 1465.94 647.712 1458.83 Q647.712 1451.71 645.883 1448.16 Q644.077 1444.6 640.443 1444.6 M640.443 1440.89 Q646.253 1440.89 649.309 1445.5 Q652.388 1450.08 652.388 1458.83 Q652.388 1467.56 649.309 1472.17 Q646.253 1476.75 640.443 1476.75 Q634.633 1476.75 631.554 1472.17 Q628.499 1467.56 628.499 1458.83 Q628.499 1450.08 631.554 1445.5 Q634.633 1440.89 640.443 1440.89 Z" fill="#000000" fill-rule="evenodd" fill-opacity="1" /><path clip-path="url(#clip260)" d="M 0 0 M657.457 1470.2 L662.341 1470.2 L662.341 1476.08 L657.457 1476.08 L657.457 1470.2 Z" fill="#000000" fill-rule="evenodd" fill-opacity="1" /><path clip-path="url(#clip260)" d="M 0 0 M677.411 1444.6 Q673.799 1444.6 671.971 1448.16 Q670.165 1451.71 670.165 1458.83 Q670.165 1465.94 671.971 1469.51 Q673.799 1473.05 677.411 1473.05 Q681.045 1473.05 682.85 1469.51 Q684.679 1465.94 684.679 1458.83 Q684.679 1451.71 682.85 1448.16 Q681.045 1444.6 677.411 1444.6 M677.411 1440.89 Q683.221 1440.89 686.276 1445.5 Q689.355 1450.08 689.355 1458.83 Q689.355 1467.56 686.276 1472.17 Q683.221 1476.75 677.411 1476.75 Q671.6 1476.75 668.522 1472.17 Q665.466 1467.56 665.466 1458.83 Q665.466 1450.08 668.522 1445.5 Q671.6 1440.89 677.411 1440.89 Z" fill="#000000" fill-rule="evenodd" fill-opacity="1" /><path clip-path="url(#clip260)" d="M 0 0 M708.591 1457.45 Q711.947 1458.16 713.822 1460.43 Q715.72 1462.7 715.72 1466.03 Q715.72 1471.15 712.202 1473.95 Q708.683 1476.75 702.202 1476.75 Q700.026 1476.75 697.711 1476.31 Q695.42 1475.89 692.966 1475.04 L692.966 1470.52 Q694.91 1471.66 697.225 1472.24 Q699.54 1472.82 702.063 1472.82 Q706.461 1472.82 708.753 1471.08 Q711.068 1469.34 711.068 1466.03 Q711.068 1462.98 708.915 1461.27 Q706.785 1459.53 702.966 1459.53 L698.938 1459.53 L698.938 1455.69 L703.151 1455.69 Q706.6 1455.69 708.429 1454.32 Q710.258 1452.93 710.258 1450.34 Q710.258 1447.68 708.359 1446.27 Q706.484 1444.83 702.966 1444.83 Q701.045 1444.83 698.846 1445.25 Q696.647 1445.66 694.008 1446.54 L694.008 1442.38 Q696.67 1441.64 698.984 1441.27 Q701.322 1440.89 703.383 1440.89 Q708.707 1440.89 711.808 1443.33 Q714.91 1445.73 714.91 1449.85 Q714.91 1452.72 713.267 1454.71 Q711.623 1456.68 708.591 1457.45 Z" fill="#000000" fill-rule="evenodd" fill-opacity="1" /><path clip-path="url(#clip260)" d="M 0 0 M792.364 1444.6 Q788.753 1444.6 786.924 1448.16 Q785.119 1451.71 785.119 1458.83 Q785.119 1465.94 786.924 1469.51 Q788.753 1473.05 792.364 1473.05 Q795.998 1473.05 797.804 1469.51 Q799.633 1465.94 799.633 1458.83 Q799.633 1451.71 797.804 1448.16 Q795.998 1444.6 792.364 1444.6 M792.364 1440.89 Q798.174 1440.89 801.23 1445.5 Q804.309 1450.08 804.309 1458.83 Q804.309 1467.56 801.23 1472.17 Q798.174 1476.75 792.364 1476.75 Q786.554 1476.75 783.475 1472.17 Q780.42 1467.56 780.42 1458.83 Q780.42 1450.08 783.475 1445.5 Q786.554 1440.89 792.364 1440.89 Z" fill="#000000" fill-rule="evenodd" fill-opacity="1" /><path clip-path="url(#clip260)" d="M 0 0 M809.378 1470.2 L814.262 1470.2 L814.262 1476.08 L809.378 1476.08 L809.378 1470.2 Z" fill="#000000" fill-rule="evenodd" fill-opacity="1" /><path clip-path="url(#clip260)" d="M 0 0 M829.332 1444.6 Q825.721 1444.6 823.892 1448.16 Q822.086 1451.71 822.086 1458.83 Q822.086 1465.94 823.892 1469.51 Q825.721 1473.05 829.332 1473.05 Q832.966 1473.05 834.771 1469.51 Q836.6 1465.94 836.6 1458.83 Q836.6 1451.71 834.771 1448.16 Q832.966 1444.6 829.332 1444.6 M829.332 1440.89 Q835.142 1440.89 838.197 1445.5 Q841.276 1450.08 841.276 1458.83 Q841.276 1467.56 838.197 1472.17 Q835.142 1476.75 829.332 1476.75 Q823.521 1476.75 820.443 1472.17 Q817.387 1467.56 817.387 1458.83 Q817.387 1450.08 820.443 1445.5 Q823.521 1440.89 829.332 1440.89 Z" fill="#000000" fill-rule="evenodd" fill-opacity="1" /><path clip-path="url(#clip260)" d="M 0 0 M859.193 1445.59 L847.387 1464.04 L859.193 1464.04 L859.193 1445.59 M857.966 1441.52 L863.845 1441.52 L863.845 1464.04 L868.776 1464.04 L868.776 1467.93 L863.845 1467.93 L863.845 1476.08 L859.193 1476.08 L859.193 1467.93 L843.591 1467.93 L843.591 1463.42 L857.966 1441.52 Z" fill="#000000" fill-rule="evenodd" fill-opacity="1" /><path clip-path="url(#clip260)" d="M 0 0 M945.593 1444.6 Q941.982 1444.6 940.153 1448.16 Q938.348 1451.71 938.348 1458.83 Q938.348 1465.94 940.153 1469.51 Q941.982 1473.05 945.593 1473.05 Q949.227 1473.05 951.033 1469.51 Q952.862 1465.94 952.862 1458.83 Q952.862 1451.71 951.033 1448.16 Q949.227 1444.6 945.593 1444.6 M945.593 1440.89 Q951.403 1440.89 954.459 1445.5 Q957.538 1450.08 957.538 1458.83 Q957.538 1467.56 954.459 1472.17 Q951.403 1476.75 945.593 1476.75 Q939.783 1476.75 936.704 1472.17 Q933.649 1467.56 933.649 1458.83 Q933.649 1450.08 936.704 1445.5 Q939.783 1440.89 945.593 1440.89 Z" fill="#000000" fill-rule="evenodd" fill-opacity="1" /><path clip-path="url(#clip260)" d="M 0 0 M962.607 1470.2 L967.491 1470.2 L967.491 1476.08 L962.607 1476.08 L962.607 1470.2 Z" fill="#000000" fill-rule="evenodd" fill-opacity="1" /><path clip-path="url(#clip260)" d="M 0 0 M982.561 1444.6 Q978.95 1444.6 977.121 1448.16 Q975.315 1451.71 975.315 1458.83 Q975.315 1465.94 977.121 1469.51 Q978.95 1473.05 982.561 1473.05 Q986.195 1473.05 988 1469.51 Q989.829 1465.94 989.829 1458.83 Q989.829 1451.71 988 1448.16 Q986.195 1444.6 982.561 1444.6 M982.561 1440.89 Q988.371 1440.89 991.426 1445.5 Q994.505 1450.08 994.505 1458.83 Q994.505 1467.56 991.426 1472.17 Q988.371 1476.75 982.561 1476.75 Q976.75 1476.75 973.672 1472.17 Q970.616 1467.56 970.616 1458.83 Q970.616 1450.08 973.672 1445.5 Q976.75 1440.89 982.561 1440.89 Z" fill="#000000" fill-rule="evenodd" fill-opacity="1" /><path clip-path="url(#clip260)" d="M 0 0 M999.621 1441.52 L1017.98 1441.52 L1017.98 1445.46 L1003.9 1445.46 L1003.9 1453.93 Q1004.92 1453.58 1005.94 1453.42 Q1006.96 1453.23 1007.98 1453.23 Q1013.76 1453.23 1017.14 1456.4 Q1020.52 1459.58 1020.52 1464.99 Q1020.52 1470.57 1017.05 1473.67 Q1013.58 1476.75 1007.26 1476.75 Q1005.08 1476.75 1002.82 1476.38 Q1000.57 1476.01 998.162 1475.27 L998.162 1470.57 Q1000.25 1471.7 1002.47 1472.26 Q1004.69 1472.82 1007.17 1472.82 Q1011.17 1472.82 1013.51 1470.71 Q1015.85 1468.6 1015.85 1464.99 Q1015.85 1461.38 1013.51 1459.27 Q1011.17 1457.17 1007.17 1457.17 Q1005.29 1457.17 1003.42 1457.58 Q1001.57 1458 999.621 1458.88 L999.621 1441.52 Z" fill="#000000" fill-rule="evenodd" fill-opacity="1" /><path clip-path="url(#clip260)" d="M 0 0 M127.83 1372.1 Q124.219 1372.1 122.39 1375.67 Q120.584 1379.21 120.584 1386.34 Q120.584 1393.45 122.39 1397.01 Q124.219 1400.55 127.83 1400.55 Q131.464 1400.55 133.27 1397.01 Q135.098 1393.45 135.098 1386.34 Q135.098 1379.21 133.27 1375.67 Q131.464 1372.1 127.83 1372.1 M127.83 1368.4 Q133.64 1368.4 136.695 1373.01 Q139.774 1377.59 139.774 1386.34 Q139.774 1395.07 136.695 1399.67 Q133.64 1404.26 127.83 1404.26 Q122.02 1404.26 118.941 1399.67 Q115.885 1395.07 115.885 1386.34 Q115.885 1377.59 118.941 1373.01 Q122.02 1368.4 127.83 1368.4 Z" fill="#000000" fill-rule="evenodd" fill-opacity="1" /><path clip-path="url(#clip260)" d="M 0 0 M65.8393 992.325 L73.4782 992.325 L73.4782 965.959 L65.168 967.626 L65.168 963.367 L73.4319 961.7 L78.1078 961.7 L78.1078 992.325 L85.7466 992.325 L85.7466 996.26 L65.8393 996.26 L65.8393 992.325 Z" fill="#000000" fill-rule="evenodd" fill-opacity="1" /><path clip-path="url(#clip260)" d="M 0 0 M100.816 964.779 Q97.2049 964.779 95.3762 968.343 Q93.5707 971.885 93.5707 979.015 Q93.5707 986.121 95.3762 989.686 Q97.2049 993.227 100.816 993.227 Q104.45 993.227 106.256 989.686 Q108.084 986.121 108.084 979.015 Q108.084 971.885 106.256 968.343 Q104.45 964.779 100.816 964.779 M100.816 961.075 Q106.626 961.075 109.682 965.681 Q112.76 970.265 112.76 979.015 Q112.76 987.741 109.682 992.348 Q106.626 996.931 100.816 996.931 Q95.0058 996.931 91.9272 992.348 Q88.8716 987.741 88.8716 979.015 Q88.8716 970.265 91.9272 965.681 Q95.0058 961.075 100.816 961.075 Z" fill="#000000" fill-rule="evenodd" fill-opacity="1" /><path clip-path="url(#clip260)" d="M 0 0 M127.83 964.779 Q124.219 964.779 122.39 968.343 Q120.584 971.885 120.584 979.015 Q120.584 986.121 122.39 989.686 Q124.219 993.227 127.83 993.227 Q131.464 993.227 133.27 989.686 Q135.098 986.121 135.098 979.015 Q135.098 971.885 133.27 968.343 Q131.464 964.779 127.83 964.779 M127.83 961.075 Q133.64 961.075 136.695 965.681 Q139.774 970.265 139.774 979.015 Q139.774 987.741 136.695 992.348 Q133.64 996.931 127.83 996.931 Q122.02 996.931 118.941 992.348 Q115.885 987.741 115.885 979.015 Q115.885 970.265 118.941 965.681 Q122.02 961.075 127.83 961.075 Z" fill="#000000" fill-rule="evenodd" fill-opacity="1" /><path clip-path="url(#clip260)" d="M 0 0 M69.4273 584.998 L85.7466 584.998 L85.7466 588.933 L63.8023 588.933 L63.8023 584.998 Q66.4643 582.244 71.0476 577.614 Q75.6541 572.961 76.8346 571.619 Q79.08 569.096 79.9596 567.359 Q80.8624 565.6 80.8624 563.91 Q80.8624 561.156 78.918 559.42 Q76.9967 557.684 73.8948 557.684 Q71.6958 557.684 69.2421 558.447 Q66.8115 559.211 64.0338 560.762 L64.0338 556.04 Q66.8578 554.906 69.3115 554.327 Q71.7652 553.748 73.8023 553.748 Q79.1726 553.748 82.367 556.434 Q85.5614 559.119 85.5614 563.609 Q85.5614 565.739 84.7513 567.66 Q83.9642 569.559 81.8578 572.151 Q81.2791 572.822 78.1772 576.04 Q75.0754 579.234 69.4273 584.998 Z" fill="#000000" fill-rule="evenodd" fill-opacity="1" /><path clip-path="url(#clip260)" d="M 0 0 M100.816 557.452 Q97.2049 557.452 95.3762 561.017 Q93.5707 564.559 93.5707 571.688 Q93.5707 578.795 95.3762 582.359 Q97.2049 585.901 100.816 585.901 Q104.45 585.901 106.256 582.359 Q108.084 578.795 108.084 571.688 Q108.084 564.559 106.256 561.017 Q104.45 557.452 100.816 557.452 M100.816 553.748 Q106.626 553.748 109.682 558.355 Q112.76 562.938 112.76 571.688 Q112.76 580.415 109.682 585.021 Q106.626 589.605 100.816 589.605 Q95.0058 589.605 91.9272 585.021 Q88.8716 580.415 88.8716 571.688 Q88.8716 562.938 91.9272 558.355 Q95.0058 553.748 100.816 553.748 Z" fill="#000000" fill-rule="evenodd" fill-opacity="1" /><path clip-path="url(#clip260)" d="M 0 0 M127.83 557.452 Q124.219 557.452 122.39 561.017 Q120.584 564.559 120.584 571.688 Q120.584 578.795 122.39 582.359 Q124.219 585.901 127.83 585.901 Q131.464 585.901 133.27 582.359 Q135.098 578.795 135.098 571.688 Q135.098 564.559 133.27 561.017 Q131.464 557.452 127.83 557.452 M127.83 553.748 Q133.64 553.748 136.695 558.355 Q139.774 562.938 139.774 571.688 Q139.774 580.415 136.695 585.021 Q133.64 589.605 127.83 589.605 Q122.02 589.605 118.941 585.021 Q115.885 580.415 115.885 571.688 Q115.885 562.938 118.941 558.355 Q122.02 553.748 127.83 553.748 Z" fill="#000000" fill-rule="evenodd" fill-opacity="1" /><path clip-path="url(#clip260)" d="M 0 0 M78.617 162.973 Q81.9735 163.69 83.8485 165.959 Q85.7466 168.227 85.7466 171.561 Q85.7466 176.676 82.2281 179.477 Q78.7096 182.278 72.2282 182.278 Q70.0523 182.278 67.7375 181.838 Q65.4458 181.422 62.9921 180.565 L62.9921 176.051 Q64.9366 177.186 67.2514 177.764 Q69.5662 178.343 72.0893 178.343 Q76.4874 178.343 78.7791 176.607 Q81.0939 174.871 81.0939 171.561 Q81.0939 168.505 78.9411 166.792 Q76.8115 165.056 72.9921 165.056 L68.9643 165.056 L68.9643 161.214 L73.1773 161.214 Q76.6263 161.214 78.455 159.848 Q80.2837 158.459 80.2837 155.866 Q80.2837 153.204 78.3856 151.792 Q76.5106 150.357 72.9921 150.357 Q71.0708 150.357 68.8717 150.774 Q66.6727 151.19 64.0338 152.07 L64.0338 147.903 Q66.6958 147.163 69.0106 146.792 Q71.3486 146.422 73.4087 146.422 Q78.7328 146.422 81.8346 148.853 Q84.9365 151.26 84.9365 155.38 Q84.9365 158.251 83.2929 160.241 Q81.6494 162.209 78.617 162.973 Z" fill="#000000" fill-rule="evenodd" fill-opacity="1" /><path clip-path="url(#clip260)" d="M 0 0 M100.816 150.126 Q97.2049 150.126 95.3762 153.69 Q93.5707 157.232 93.5707 164.362 Q93.5707 171.468 95.3762 175.033 Q97.2049 178.575 100.816 178.575 Q104.45 178.575 106.256 175.033 Q108.084 171.468 108.084 164.362 Q108.084 157.232 106.256 153.69 Q104.45 150.126 100.816 150.126 M100.816 146.422 Q106.626 146.422 109.682 151.028 Q112.76 155.612 112.76 164.362 Q112.76 173.088 109.682 177.695 Q106.626 182.278 100.816 182.278 Q95.0058 182.278 91.9272 177.695 Q88.8716 173.088 88.8716 164.362 Q88.8716 155.612 91.9272 151.028 Q95.0058 146.422 100.816 146.422 Z" fill="#000000" fill-rule="evenodd" fill-opacity="1" /><path clip-path="url(#clip260)" d="M 0 0 M127.83 150.126 Q124.219 150.126 122.39 153.69 Q120.584 157.232 120.584 164.362 Q120.584 171.468 122.39 175.033 Q124.219 178.575 127.83 178.575 Q131.464 178.575 133.27 175.033 Q135.098 171.468 135.098 164.362 Q135.098 157.232 133.27 153.69 Q131.464 150.126 127.83 150.126 M127.83 146.422 Q133.64 146.422 136.695 151.028 Q139.774 155.612 139.774 164.362 Q139.774 173.088 136.695 177.695 Q133.64 182.278 127.83 182.278 Q122.02 182.278 118.941 177.695 Q115.885 173.088 115.885 164.362 Q115.885 155.612 118.941 151.028 Q122.02 146.422 127.83 146.422 Z" fill="#000000" fill-rule="evenodd" fill-opacity="1" /><path clip-path="url(#clip260)" d="M 0 0 M412.565 18.8205 L412.565 41.5461 L422.854 41.5461 Q428.566 41.5461 431.685 38.5889 Q434.805 35.6318 434.805 30.163 Q434.805 24.7348 431.685 21.7777 Q428.566 18.8205 422.854 18.8205 L412.565 18.8205 M404.382 12.096 L422.854 12.096 Q433.022 12.096 438.207 16.714 Q443.433 21.2916 443.433 30.163 Q443.433 39.1155 438.207 43.6931 Q433.022 48.2706 422.854 48.2706 L412.565 48.2706 L412.565 72.576 L404.382 72.576 L404.382 12.096 Z" fill="#000000" fill-rule="evenodd" fill-opacity="1" /><path clip-path="url(#clip260)" d="M 0 0 M468.144 49.7694 Q459.11 49.7694 455.626 51.8354 Q452.142 53.9013 452.142 58.8839 Q452.142 62.8538 454.735 65.2034 Q457.368 67.5124 461.865 67.5124 Q468.063 67.5124 471.789 63.1374 Q475.557 58.7219 475.557 51.4303 L475.557 49.7694 L468.144 49.7694 M483.01 46.6907 L483.01 72.576 L475.557 72.576 L475.557 65.6895 Q473.005 69.8214 469.197 71.8063 Q465.389 73.7508 459.88 73.7508 Q452.912 73.7508 448.78 69.8619 Q444.689 65.9325 444.689 59.3701 Q444.689 51.7138 449.793 47.825 Q454.938 43.9361 465.105 43.9361 L475.557 43.9361 L475.557 43.2069 Q475.557 38.0623 472.154 35.2672 Q468.792 32.4315 462.675 32.4315 Q458.786 32.4315 455.1 33.3632 Q451.413 34.295 448.011 36.1584 L448.011 29.2718 Q452.102 27.692 455.95 26.9223 Q459.799 26.1121 463.444 26.1121 Q473.288 26.1121 478.149 31.2163 Q483.01 36.3204 483.01 46.6907 Z" fill="#000000" fill-rule="evenodd" fill-opacity="1" /><path clip-path="url(#clip260)" d="M 0 0 M517.119 34.1734 Q515.863 33.4443 514.364 33.1202 Q512.906 32.7556 511.124 32.7556 Q504.804 32.7556 501.401 36.8875 Q498.039 40.9789 498.039 48.6757 L498.039 72.576 L490.545 72.576 L490.545 27.2059 L498.039 27.2059 L498.039 34.2544 Q500.389 30.1225 504.156 28.1376 Q507.923 26.1121 513.311 26.1121 Q514.081 26.1121 515.013 26.2337 Q515.944 26.3147 517.078 26.5172 L517.119 34.1734 Z" fill="#000000" fill-rule="evenodd" fill-opacity="1" /><path clip-path="url(#clip260)" d="M 0 0 M545.556 49.7694 Q536.523 49.7694 533.039 51.8354 Q529.555 53.9013 529.555 58.8839 Q529.555 62.8538 532.148 65.2034 Q534.781 67.5124 539.277 67.5124 Q545.475 67.5124 549.202 63.1374 Q552.969 58.7219 552.969 51.4303 L552.969 49.7694 L545.556 49.7694 M560.423 46.6907 L560.423 72.576 L552.969 72.576 L552.969 65.6895 Q550.417 69.8214 546.61 71.8063 Q542.802 73.7508 537.292 73.7508 Q530.325 73.7508 526.193 69.8619 Q522.102 65.9325 522.102 59.3701 Q522.102 51.7138 527.206 47.825 Q532.35 43.9361 542.518 43.9361 L552.969 43.9361 L552.969 43.2069 Q552.969 38.0623 549.567 35.2672 Q546.204 32.4315 540.088 32.4315 Q536.199 32.4315 532.512 33.3632 Q528.826 34.295 525.423 36.1584 L525.423 29.2718 Q529.515 27.692 533.363 26.9223 Q537.211 26.1121 540.857 26.1121 Q550.701 26.1121 555.562 31.2163 Q560.423 36.3204 560.423 46.6907 Z" fill="#000000" fill-rule="evenodd" fill-opacity="1" /><path clip-path="url(#clip260)" d="M 0 0 M603.565 35.9153 Q606.36 30.8922 610.249 28.5022 Q614.138 26.1121 619.404 26.1121 Q626.493 26.1121 630.342 31.0947 Q634.19 36.0368 634.19 45.1919 L634.19 72.576 L626.696 72.576 L626.696 45.4349 Q626.696 38.913 624.387 35.7533 Q622.078 32.5936 617.338 32.5936 Q611.546 32.5936 608.183 36.4419 Q604.821 40.2903 604.821 46.9338 L604.821 72.576 L597.327 72.576 L597.327 45.4349 Q597.327 38.8725 595.018 35.7533 Q592.709 32.5936 587.888 32.5936 Q582.176 32.5936 578.814 36.4824 Q575.452 40.3308 575.452 46.9338 L575.452 72.576 L567.958 72.576 L567.958 27.2059 L575.452 27.2059 L575.452 34.2544 Q578.004 30.082 581.569 28.0971 Q585.134 26.1121 590.035 26.1121 Q594.977 26.1121 598.421 28.6237 Q601.904 31.1352 603.565 35.9153 Z" fill="#000000" fill-rule="evenodd" fill-opacity="1" /><path clip-path="url(#clip260)" d="M 0 0 M680.816 48.0275 L680.816 51.6733 L646.545 51.6733 Q647.031 59.3701 651.163 63.421 Q655.336 67.4314 662.749 67.4314 Q667.043 67.4314 671.053 66.3781 Q675.104 65.3249 679.074 63.2184 L679.074 70.267 Q675.064 71.9684 670.851 72.8596 Q666.638 73.7508 662.303 73.7508 Q651.447 73.7508 645.087 67.4314 Q638.768 61.1119 638.768 50.3365 Q638.768 39.1965 644.763 32.6746 Q650.799 26.1121 661.007 26.1121 Q670.162 26.1121 675.469 32.0264 Q680.816 37.9003 680.816 48.0275 M673.362 45.84 Q673.281 39.7232 669.919 36.0774 Q666.597 32.4315 661.088 32.4315 Q654.85 32.4315 651.082 35.9558 Q647.356 39.4801 646.788 45.8805 L673.362 45.84 Z" fill="#000000" fill-rule="evenodd" fill-opacity="1" /><path clip-path="url(#clip260)" d="M 0 0 M696.007 14.324 L696.007 27.2059 L711.36 27.2059 L711.36 32.9987 L696.007 32.9987 L696.007 57.6282 Q696.007 63.1779 697.506 64.7578 Q699.045 66.3376 703.704 66.3376 L711.36 66.3376 L711.36 72.576 L703.704 72.576 Q695.075 72.576 691.794 69.3758 Q688.513 66.1351 688.513 57.6282 L688.513 32.9987 L683.044 32.9987 L683.044 27.2059 L688.513 27.2059 L688.513 14.324 L696.007 14.324 Z" fill="#000000" fill-rule="evenodd" fill-opacity="1" /><path clip-path="url(#clip260)" d="M 0 0 M757.986 48.0275 L757.986 51.6733 L723.715 51.6733 Q724.201 59.3701 728.333 63.421 Q732.506 67.4314 739.919 67.4314 Q744.213 67.4314 748.223 66.3781 Q752.274 65.3249 756.244 63.2184 L756.244 70.267 Q752.233 71.9684 748.021 72.8596 Q743.808 73.7508 739.473 73.7508 Q728.617 73.7508 722.257 67.4314 Q715.937 61.1119 715.937 50.3365 Q715.937 39.1965 721.933 32.6746 Q727.969 26.1121 738.177 26.1121 Q747.332 26.1121 752.639 32.0264 Q757.986 37.9003 757.986 48.0275 M750.532 45.84 Q750.451 39.7232 747.089 36.0774 Q743.767 32.4315 738.258 32.4315 Q732.019 32.4315 728.252 35.9558 Q724.525 39.4801 723.958 45.8805 L750.532 45.84 Z" fill="#000000" fill-rule="evenodd" fill-opacity="1" /><path clip-path="url(#clip260)" d="M 0 0 M792.094 34.1734 Q790.839 33.4443 789.34 33.1202 Q787.881 32.7556 786.099 32.7556 Q779.78 32.7556 776.377 36.8875 Q773.015 40.9789 773.015 48.6757 L773.015 72.576 L765.52 72.576 L765.52 27.2059 L773.015 27.2059 L773.015 34.2544 Q775.364 30.1225 779.131 28.1376 Q782.899 26.1121 788.287 26.1121 Q789.056 26.1121 789.988 26.2337 Q790.92 26.3147 792.054 26.5172 L792.094 34.1734 Z" fill="#000000" fill-rule="evenodd" fill-opacity="1" /><path clip-path="url(#clip260)" d="M 0 0 M828.755 65.6895 L842.123 65.6895 L842.123 19.5497 L827.58 22.4663 L827.58 15.0127 L842.042 12.096 L850.225 12.096 L850.225 65.6895 L863.593 65.6895 L863.593 72.576 L828.755 72.576 L828.755 65.6895 Z" fill="#000000" fill-rule="evenodd" fill-opacity="1" /><path clip-path="url(#clip262)" d="
M214.645 771.243 L214.645 1386.31 L290.889 1386.31 L290.889 771.243 L214.645 771.243 L214.645 771.243  Z
  " fill="#8b0000" fill-rule="evenodd" fill-opacity="1"/>
<polyline clip-path="url(#clip262)" style="stroke:#ffffff; stroke-width:4; stroke-opacity:1; fill:none" points="
  214.645,771.243 214.645,1386.31 290.889,1386.31 290.889,771.243 214.645,771.243 
  "/>
<path clip-path="url(#clip262)" d="
M290.889 445.382 L290.889 1386.31 L367.133 1386.31 L367.133 445.382 L290.889 445.382 L290.889 445.382  Z
  " fill="#8b0000" fill-rule="evenodd" fill-opacity="1"/>
<polyline clip-path="url(#clip262)" style="stroke:#ffffff; stroke-width:4; stroke-opacity:1; fill:none" points="
  290.889,445.382 290.889,1386.31 367.133,1386.31 367.133,445.382 290.889,445.382 
  "/>
<path clip-path="url(#clip262)" d="
M367.133 160.254 L367.133 1386.31 L443.377 1386.31 L443.377 160.254 L367.133 160.254 L367.133 160.254  Z
  " fill="#8b0000" fill-rule="evenodd" fill-opacity="1"/>
<polyline clip-path="url(#clip262)" style="stroke:#ffffff; stroke-width:4; stroke-opacity:1; fill:none" points="
  367.133,160.254 367.133,1386.31 443.377,1386.31 443.377,160.254 367.133,160.254 
  "/>
<path clip-path="url(#clip262)" d="
M443.377 319.111 L443.377 1386.31 L519.621 1386.31 L519.621 319.111 L443.377 319.111 L443.377 319.111  Z
  " fill="#8b0000" fill-rule="evenodd" fill-opacity="1"/>
<polyline clip-path="url(#clip262)" style="stroke:#ffffff; stroke-width:4; stroke-opacity:1; fill:none" points="
  443.377,319.111 443.377,1386.31 519.621,1386.31 519.621,319.111 443.377,319.111 
  "/>
<path clip-path="url(#clip262)" d="
M519.621 420.943 L519.621 1386.31 L595.865 1386.31 L595.865 420.943 L519.621 420.943 L519.621 420.943  Z
  " fill="#8b0000" fill-rule="evenodd" fill-opacity="1"/>
<polyline clip-path="url(#clip262)" style="stroke:#ffffff; stroke-width:4; stroke-opacity:1; fill:none" points="
  519.621,420.943 519.621,1386.31 595.865,1386.31 595.865,420.943 519.621,420.943 
  "/>
<path clip-path="url(#clip262)" d="
M595.865 486.115 L595.865 1386.31 L672.11 1386.31 L672.11 486.115 L595.865 486.115 L595.865 486.115  Z
  " fill="#8b0000" fill-rule="evenodd" fill-opacity="1"/>
<polyline clip-path="url(#clip262)" style="stroke:#ffffff; stroke-width:4; stroke-opacity:1; fill:none" points="
  595.865,486.115 595.865,1386.31 672.11,1386.31 672.11,486.115 595.865,486.115 
  "/>
<path clip-path="url(#clip262)" d="
M672.11 600.166 L672.11 1386.31 L748.354 1386.31 L748.354 600.166 L672.11 600.166 L672.11 600.166  Z
  " fill="#8b0000" fill-rule="evenodd" fill-opacity="1"/>
<polyline clip-path="url(#clip262)" style="stroke:#ffffff; stroke-width:4; stroke-opacity:1; fill:none" points="
  672.11,600.166 672.11,1386.31 748.354,1386.31 748.354,600.166 672.11,600.166 
  "/>
<path clip-path="url(#clip262)" d="
M748.354 649.045 L748.354 1386.31 L824.598 1386.31 L824.598 649.045 L748.354 649.045 L748.354 649.045  Z
  " fill="#8b0000" fill-rule="evenodd" fill-opacity="1"/>
<polyline clip-path="url(#clip262)" style="stroke:#ffffff; stroke-width:4; stroke-opacity:1; fill:none" points="
  748.354,649.045 748.354,1386.31 824.598,1386.31 824.598,649.045 748.354,649.045 
  "/>
<path clip-path="url(#clip262)" d="
M824.598 820.123 L824.598 1386.31 L900.842 1386.31 L900.842 820.123 L824.598 820.123 L824.598 820.123  Z
  " fill="#8b0000" fill-rule="evenodd" fill-opacity="1"/>
<polyline clip-path="url(#clip262)" style="stroke:#ffffff; stroke-width:4; stroke-opacity:1; fill:none" points="
  824.598,820.123 824.598,1386.31 900.842,1386.31 900.842,820.123 824.598,820.123 
  "/>
<path clip-path="url(#clip262)" d="
M900.842 1056.37 L900.842 1386.31 L977.086 1386.31 L977.086 1056.37 L900.842 1056.37 L900.842 1056.37  Z
  " fill="#8b0000" fill-rule="evenodd" fill-opacity="1"/>
<polyline clip-path="url(#clip262)" style="stroke:#ffffff; stroke-width:4; stroke-opacity:1; fill:none" points="
  900.842,1056.37 900.842,1386.31 977.086,1386.31 977.086,1056.37 900.842,1056.37 
  "/>
<path clip-path="url(#clip262)" d="
M977.086 1374.09 L977.086 1386.31 L1053.33 1386.31 L1053.33 1374.09 L977.086 1374.09 L977.086 1374.09  Z
  " fill="#8b0000" fill-rule="evenodd" fill-opacity="1"/>
<polyline clip-path="url(#clip262)" style="stroke:#ffffff; stroke-width:4; stroke-opacity:1; fill:none" points="
  977.086,1374.09 977.086,1386.31 1053.33,1386.31 1053.33,1374.09 977.086,1374.09 
  "/>
<path clip-path="url(#clip260)" d="
M1314.41 1423.09 L2256.76 1423.09 L2256.76 123.472 L1314.41 123.472  Z
  " fill="#ffffff" fill-rule="evenodd" fill-opacity="1"/>
<defs>
  <clipPath id="clip263">
    <rect x="1314" y="123" width="943" height="1301"/>
  </clipPath>
</defs>
<polyline clip-path="url(#clip263)" style="stroke:#000000; stroke-width:2; stroke-opacity:0.1; fill:none" points="
  1333.98,1423.09 1333.98,123.472 
  "/>
<polyline clip-path="url(#clip263)" style="stroke:#000000; stroke-width:2; stroke-opacity:0.1; fill:none" points="
  1495.27,1423.09 1495.27,123.472 
  "/>
<polyline clip-path="url(#clip263)" style="stroke:#000000; stroke-width:2; stroke-opacity:0.1; fill:none" points="
  1656.55,1423.09 1656.55,123.472 
  "/>
<polyline clip-path="url(#clip263)" style="stroke:#000000; stroke-width:2; stroke-opacity:0.1; fill:none" points="
  1817.84,1423.09 1817.84,123.472 
  "/>
<polyline clip-path="url(#clip263)" style="stroke:#000000; stroke-width:2; stroke-opacity:0.1; fill:none" points="
  1979.13,1423.09 1979.13,123.472 
  "/>
<polyline clip-path="url(#clip263)" style="stroke:#000000; stroke-width:2; stroke-opacity:0.1; fill:none" points="
  2140.41,1423.09 2140.41,123.472 
  "/>
<polyline clip-path="url(#clip263)" style="stroke:#000000; stroke-width:2; stroke-opacity:0.1; fill:none" points="
  1314.41,1386.31 2256.76,1386.31 
  "/>
<polyline clip-path="url(#clip263)" style="stroke:#000000; stroke-width:2; stroke-opacity:0.1; fill:none" points="
  1314.41,1163.39 2256.76,1163.39 
  "/>
<polyline clip-path="url(#clip263)" style="stroke:#000000; stroke-width:2; stroke-opacity:0.1; fill:none" points="
  1314.41,940.469 2256.76,940.469 
  "/>
<polyline clip-path="url(#clip263)" style="stroke:#000000; stroke-width:2; stroke-opacity:0.1; fill:none" points="
  1314.41,717.55 2256.76,717.55 
  "/>
<polyline clip-path="url(#clip263)" style="stroke:#000000; stroke-width:2; stroke-opacity:0.1; fill:none" points="
  1314.41,494.632 2256.76,494.632 
  "/>
<polyline clip-path="url(#clip263)" style="stroke:#000000; stroke-width:2; stroke-opacity:0.1; fill:none" points="
  1314.41,271.713 2256.76,271.713 
  "/>
<polyline clip-path="url(#clip260)" style="stroke:#000000; stroke-width:4; stroke-opacity:1; fill:none" points="
  1314.41,1423.09 2256.76,1423.09 
  "/>
<polyline clip-path="url(#clip260)" style="stroke:#000000; stroke-width:4; stroke-opacity:1; fill:none" points="
  1314.41,1423.09 1314.41,123.472 
  "/>
<polyline clip-path="url(#clip260)" style="stroke:#000000; stroke-width:4; stroke-opacity:1; fill:none" points="
  1333.98,1423.09 1333.98,1407.49 
  "/>
<polyline clip-path="url(#clip260)" style="stroke:#000000; stroke-width:4; stroke-opacity:1; fill:none" points="
  1495.27,1423.09 1495.27,1407.49 
  "/>
<polyline clip-path="url(#clip260)" style="stroke:#000000; stroke-width:4; stroke-opacity:1; fill:none" points="
  1656.55,1423.09 1656.55,1407.49 
  "/>
<polyline clip-path="url(#clip260)" style="stroke:#000000; stroke-width:4; stroke-opacity:1; fill:none" points="
  1817.84,1423.09 1817.84,1407.49 
  "/>
<polyline clip-path="url(#clip260)" style="stroke:#000000; stroke-width:4; stroke-opacity:1; fill:none" points="
  1979.13,1423.09 1979.13,1407.49 
  "/>
<polyline clip-path="url(#clip260)" style="stroke:#000000; stroke-width:4; stroke-opacity:1; fill:none" points="
  2140.41,1423.09 2140.41,1407.49 
  "/>
<polyline clip-path="url(#clip260)" style="stroke:#000000; stroke-width:4; stroke-opacity:1; fill:none" points="
  1314.41,1386.31 1325.72,1386.31 
  "/>
<polyline clip-path="url(#clip260)" style="stroke:#000000; stroke-width:4; stroke-opacity:1; fill:none" points="
  1314.41,1163.39 1325.72,1163.39 
  "/>
<polyline clip-path="url(#clip260)" style="stroke:#000000; stroke-width:4; stroke-opacity:1; fill:none" points="
  1314.41,940.469 1325.72,940.469 
  "/>
<polyline clip-path="url(#clip260)" style="stroke:#000000; stroke-width:4; stroke-opacity:1; fill:none" points="
  1314.41,717.55 1325.72,717.55 
  "/>
<polyline clip-path="url(#clip260)" style="stroke:#000000; stroke-width:4; stroke-opacity:1; fill:none" points="
  1314.41,494.632 1325.72,494.632 
  "/>
<polyline clip-path="url(#clip260)" style="stroke:#000000; stroke-width:4; stroke-opacity:1; fill:none" points="
  1314.41,271.713 1325.72,271.713 
  "/>
<path clip-path="url(#clip260)" d="M 0 0 M1289.31 1444.6 Q1285.7 1444.6 1283.87 1448.16 Q1282.06 1451.71 1282.06 1458.83 Q1282.06 1465.94 1283.87 1469.51 Q1285.7 1473.05 1289.31 1473.05 Q1292.94 1473.05 1294.75 1469.51 Q1296.58 1465.94 1296.58 1458.83 Q1296.58 1451.71 1294.75 1448.16 Q1292.94 1444.6 1289.31 1444.6 M1289.31 1440.89 Q1295.12 1440.89 1298.17 1445.5 Q1301.25 1450.08 1301.25 1458.83 Q1301.25 1467.56 1298.17 1472.17 Q1295.12 1476.75 1289.31 1476.75 Q1283.5 1476.75 1280.42 1472.17 Q1277.36 1467.56 1277.36 1458.83 Q1277.36 1450.08 1280.42 1445.5 Q1283.5 1440.89 1289.31 1440.89 Z" fill="#000000" fill-rule="evenodd" fill-opacity="1" /><path clip-path="url(#clip260)" d="M 0 0 M1306.32 1470.2 L1311.21 1470.2 L1311.21 1476.08 L1306.32 1476.08 L1306.32 1470.2 Z" fill="#000000" fill-rule="evenodd" fill-opacity="1" /><path clip-path="url(#clip260)" d="M 0 0 M1326.27 1444.6 Q1322.66 1444.6 1320.83 1448.16 Q1319.03 1451.71 1319.03 1458.83 Q1319.03 1465.94 1320.83 1469.51 Q1322.66 1473.05 1326.27 1473.05 Q1329.91 1473.05 1331.71 1469.51 Q1333.54 1465.94 1333.54 1458.83 Q1333.54 1451.71 1331.71 1448.16 Q1329.91 1444.6 1326.27 1444.6 M1326.27 1440.89 Q1332.08 1440.89 1335.14 1445.5 Q1338.22 1450.08 1338.22 1458.83 Q1338.22 1467.56 1335.14 1472.17 Q1332.08 1476.75 1326.27 1476.75 Q1320.46 1476.75 1317.39 1472.17 Q1314.33 1467.56 1314.33 1458.83 Q1314.33 1450.08 1317.39 1445.5 Q1320.46 1440.89 1326.27 1440.89 Z" fill="#000000" fill-rule="evenodd" fill-opacity="1" /><path clip-path="url(#clip260)" d="M 0 0 M1357.45 1457.45 Q1360.81 1458.16 1362.69 1460.43 Q1364.58 1462.7 1364.58 1466.03 Q1364.58 1471.15 1361.07 1473.95 Q1357.55 1476.75 1351.07 1476.75 Q1348.89 1476.75 1346.58 1476.31 Q1344.28 1475.89 1341.83 1475.04 L1341.83 1470.52 Q1343.77 1471.66 1346.09 1472.24 Q1348.4 1472.82 1350.93 1472.82 Q1355.33 1472.82 1357.62 1471.08 Q1359.93 1469.34 1359.93 1466.03 Q1359.93 1462.98 1357.78 1461.27 Q1355.65 1459.53 1351.83 1459.53 L1347.8 1459.53 L1347.8 1455.69 L1352.01 1455.69 Q1355.46 1455.69 1357.29 1454.32 Q1359.12 1452.93 1359.12 1450.34 Q1359.12 1447.68 1357.22 1446.27 Q1355.35 1444.83 1351.83 1444.83 Q1349.91 1444.83 1347.71 1445.25 Q1345.51 1445.66 1342.87 1446.54 L1342.87 1442.38 Q1345.53 1441.64 1347.85 1441.27 Q1350.19 1440.89 1352.25 1440.89 Q1357.57 1440.89 1360.67 1443.33 Q1363.77 1445.73 1363.77 1449.85 Q1363.77 1452.72 1362.13 1454.71 Q1360.49 1456.68 1357.45 1457.45 Z" fill="#000000" fill-rule="evenodd" fill-opacity="1" /><path clip-path="url(#clip260)" d="M 0 0 M1369.7 1441.52 L1388.06 1441.52 L1388.06 1445.46 L1373.98 1445.46 L1373.98 1453.93 Q1375 1453.58 1376.02 1453.42 Q1377.04 1453.23 1378.06 1453.23 Q1383.84 1453.23 1387.22 1456.4 Q1390.6 1459.58 1390.6 1464.99 Q1390.6 1470.57 1387.13 1473.67 Q1383.66 1476.75 1377.34 1476.75 Q1375.16 1476.75 1372.89 1476.38 Q1370.65 1476.01 1368.24 1475.27 L1368.24 1470.57 Q1370.33 1471.7 1372.55 1472.26 Q1374.77 1472.82 1377.25 1472.82 Q1381.25 1472.82 1383.59 1470.71 Q1385.93 1468.6 1385.93 1464.99 Q1385.93 1461.38 1383.59 1459.27 Q1381.25 1457.17 1377.25 1457.17 Q1375.37 1457.17 1373.5 1457.58 Q1371.64 1458 1369.7 1458.88 L1369.7 1441.52 Z" fill="#000000" fill-rule="evenodd" fill-opacity="1" /><path clip-path="url(#clip260)" d="M 0 0 M1449.53 1444.6 Q1445.92 1444.6 1444.09 1448.16 Q1442.28 1451.71 1442.28 1458.83 Q1442.28 1465.94 1444.09 1469.51 Q1445.92 1473.05 1449.53 1473.05 Q1453.16 1473.05 1454.97 1469.51 Q1456.8 1465.94 1456.8 1458.83 Q1456.8 1451.71 1454.97 1448.16 Q1453.16 1444.6 1449.53 1444.6 M1449.53 1440.89 Q1455.34 1440.89 1458.39 1445.5 Q1461.47 1450.08 1461.47 1458.83 Q1461.47 1467.56 1458.39 1472.17 Q1455.34 1476.75 1449.53 1476.75 Q1443.72 1476.75 1440.64 1472.17 Q1437.58 1467.56 1437.58 1458.83 Q1437.58 1450.08 1440.64 1445.5 Q1443.72 1440.89 1449.53 1440.89 Z" fill="#000000" fill-rule="evenodd" fill-opacity="1" /><path clip-path="url(#clip260)" d="M 0 0 M1466.54 1470.2 L1471.43 1470.2 L1471.43 1476.08 L1466.54 1476.08 L1466.54 1470.2 Z" fill="#000000" fill-rule="evenodd" fill-opacity="1" /><path clip-path="url(#clip260)" d="M 0 0 M1486.5 1444.6 Q1482.88 1444.6 1481.06 1448.16 Q1479.25 1451.71 1479.25 1458.83 Q1479.25 1465.94 1481.06 1469.51 Q1482.88 1473.05 1486.5 1473.05 Q1490.13 1473.05 1491.93 1469.51 Q1493.76 1465.94 1493.76 1458.83 Q1493.76 1451.71 1491.93 1448.16 Q1490.13 1444.6 1486.5 1444.6 M1486.5 1440.89 Q1492.31 1440.89 1495.36 1445.5 Q1498.44 1450.08 1498.44 1458.83 Q1498.44 1467.56 1495.36 1472.17 Q1492.31 1476.75 1486.5 1476.75 Q1480.69 1476.75 1477.61 1472.17 Q1474.55 1467.56 1474.55 1458.83 Q1474.55 1450.08 1477.61 1445.5 Q1480.69 1440.89 1486.5 1440.89 Z" fill="#000000" fill-rule="evenodd" fill-opacity="1" /><path clip-path="url(#clip260)" d="M 0 0 M1516.36 1445.59 L1504.55 1464.04 L1516.36 1464.04 L1516.36 1445.59 M1515.13 1441.52 L1521.01 1441.52 L1521.01 1464.04 L1525.94 1464.04 L1525.94 1467.93 L1521.01 1467.93 L1521.01 1476.08 L1516.36 1476.08 L1516.36 1467.93 L1500.75 1467.93 L1500.75 1463.42 L1515.13 1441.52 Z" fill="#000000" fill-rule="evenodd" fill-opacity="1" /><path clip-path="url(#clip260)" d="M 0 0 M1541.01 1444.6 Q1537.4 1444.6 1535.57 1448.16 Q1533.76 1451.71 1533.76 1458.83 Q1533.76 1465.94 1535.57 1469.51 Q1537.4 1473.05 1541.01 1473.05 Q1544.64 1473.05 1546.45 1469.51 Q1548.28 1465.94 1548.28 1458.83 Q1548.28 1451.71 1546.45 1448.16 Q1544.64 1444.6 1541.01 1444.6 M1541.01 1440.89 Q1546.82 1440.89 1549.87 1445.5 Q1552.95 1450.08 1552.95 1458.83 Q1552.95 1467.56 1549.87 1472.17 Q1546.82 1476.75 1541.01 1476.75 Q1535.2 1476.75 1532.12 1472.17 Q1529.06 1467.56 1529.06 1458.83 Q1529.06 1450.08 1532.12 1445.5 Q1535.2 1440.89 1541.01 1440.89 Z" fill="#000000" fill-rule="evenodd" fill-opacity="1" /><path clip-path="url(#clip260)" d="M 0 0 M1611.31 1444.6 Q1607.7 1444.6 1605.87 1448.16 Q1604.07 1451.71 1604.07 1458.83 Q1604.07 1465.94 1605.87 1469.51 Q1607.7 1473.05 1611.31 1473.05 Q1614.95 1473.05 1616.75 1469.51 Q1618.58 1465.94 1618.58 1458.83 Q1618.58 1451.71 1616.75 1448.16 Q1614.95 1444.6 1611.31 1444.6 M1611.31 1440.89 Q1617.12 1440.89 1620.18 1445.5 Q1623.26 1450.08 1623.26 1458.83 Q1623.26 1467.56 1620.18 1472.17 Q1617.12 1476.75 1611.31 1476.75 Q1605.5 1476.75 1602.42 1472.17 Q1599.37 1467.56 1599.37 1458.83 Q1599.37 1450.08 1602.42 1445.5 Q1605.5 1440.89 1611.31 1440.89 Z" fill="#000000" fill-rule="evenodd" fill-opacity="1" /><path clip-path="url(#clip260)" d="M 0 0 M1628.32 1470.2 L1633.21 1470.2 L1633.21 1476.08 L1628.32 1476.08 L1628.32 1470.2 Z" fill="#000000" fill-rule="evenodd" fill-opacity="1" /><path clip-path="url(#clip260)" d="M 0 0 M1648.28 1444.6 Q1644.67 1444.6 1642.84 1448.16 Q1641.03 1451.71 1641.03 1458.83 Q1641.03 1465.94 1642.84 1469.51 Q1644.67 1473.05 1648.28 1473.05 Q1651.91 1473.05 1653.72 1469.51 Q1655.55 1465.94 1655.55 1458.83 Q1655.55 1451.71 1653.72 1448.16 Q1651.91 1444.6 1648.28 1444.6 M1648.28 1440.89 Q1654.09 1440.89 1657.14 1445.5 Q1660.22 1450.08 1660.22 1458.83 Q1660.22 1467.56 1657.14 1472.17 Q1654.09 1476.75 1648.28 1476.75 Q1642.47 1476.75 1639.39 1472.17 Q1636.33 1467.56 1636.33 1458.83 Q1636.33 1450.08 1639.39 1445.5 Q1642.47 1440.89 1648.28 1440.89 Z" fill="#000000" fill-rule="evenodd" fill-opacity="1" /><path clip-path="url(#clip260)" d="M 0 0 M1678.14 1445.59 L1666.33 1464.04 L1678.14 1464.04 L1678.14 1445.59 M1676.91 1441.52 L1682.79 1441.52 L1682.79 1464.04 L1687.72 1464.04 L1687.72 1467.93 L1682.79 1467.93 L1682.79 1476.08 L1678.14 1476.08 L1678.14 1467.93 L1662.54 1467.93 L1662.54 1463.42 L1676.91 1441.52 Z" fill="#000000" fill-rule="evenodd" fill-opacity="1" /><path clip-path="url(#clip260)" d="M 0 0 M1692.84 1441.52 L1711.19 1441.52 L1711.19 1445.46 L1697.12 1445.46 L1697.12 1453.93 Q1698.14 1453.58 1699.16 1453.42 Q1700.18 1453.23 1701.19 1453.23 Q1706.98 1453.23 1710.36 1456.4 Q1713.74 1459.58 1713.74 1464.99 Q1713.74 1470.57 1710.27 1473.67 Q1706.8 1476.75 1700.48 1476.75 Q1698.3 1476.75 1696.03 1476.38 Q1693.79 1476.01 1691.38 1475.27 L1691.38 1470.57 Q1693.46 1471.7 1695.69 1472.26 Q1697.91 1472.82 1700.38 1472.82 Q1704.39 1472.82 1706.73 1470.71 Q1709.07 1468.6 1709.07 1464.99 Q1709.07 1461.38 1706.73 1459.27 Q1704.39 1457.17 1700.38 1457.17 Q1698.51 1457.17 1696.63 1457.58 Q1694.78 1458 1692.84 1458.88 L1692.84 1441.52 Z" fill="#000000" fill-rule="evenodd" fill-opacity="1" /><path clip-path="url(#clip260)" d="M 0 0 M1772.84 1444.6 Q1769.23 1444.6 1767.4 1448.16 Q1765.59 1451.71 1765.59 1458.83 Q1765.59 1465.94 1767.4 1469.51 Q1769.23 1473.05 1772.84 1473.05 Q1776.47 1473.05 1778.28 1469.51 Q1780.11 1465.94 1780.11 1458.83 Q1780.11 1451.71 1778.28 1448.16 Q1776.47 1444.6 1772.84 1444.6 M1772.84 1440.89 Q1778.65 1440.89 1781.71 1445.5 Q1784.78 1450.08 1784.78 1458.83 Q1784.78 1467.56 1781.71 1472.17 Q1778.65 1476.75 1772.84 1476.75 Q1767.03 1476.75 1763.95 1472.17 Q1760.9 1467.56 1760.9 1458.83 Q1760.9 1450.08 1763.95 1445.5 Q1767.03 1440.89 1772.84 1440.89 Z" fill="#000000" fill-rule="evenodd" fill-opacity="1" /><path clip-path="url(#clip260)" d="M 0 0 M1789.85 1470.2 L1794.74 1470.2 L1794.74 1476.08 L1789.85 1476.08 L1789.85 1470.2 Z" fill="#000000" fill-rule="evenodd" fill-opacity="1" /><path clip-path="url(#clip260)" d="M 0 0 M1809.81 1444.6 Q1806.2 1444.6 1804.37 1448.16 Q1802.56 1451.71 1802.56 1458.83 Q1802.56 1465.94 1804.37 1469.51 Q1806.2 1473.05 1809.81 1473.05 Q1813.44 1473.05 1815.25 1469.51 Q1817.08 1465.94 1817.08 1458.83 Q1817.08 1451.71 1815.25 1448.16 Q1813.44 1444.6 1809.81 1444.6 M1809.81 1440.89 Q1815.62 1440.89 1818.67 1445.5 Q1821.75 1450.08 1821.75 1458.83 Q1821.75 1467.56 1818.67 1472.17 Q1815.62 1476.75 1809.81 1476.75 Q1804 1476.75 1800.92 1472.17 Q1797.86 1467.56 1797.86 1458.83 Q1797.86 1450.08 1800.92 1445.5 Q1804 1440.89 1809.81 1440.89 Z" fill="#000000" fill-rule="evenodd" fill-opacity="1" /><path clip-path="url(#clip260)" d="M 0 0 M1826.87 1441.52 L1845.22 1441.52 L1845.22 1445.46 L1831.15 1445.46 L1831.15 1453.93 Q1832.17 1453.58 1833.19 1453.42 Q1834.21 1453.23 1835.22 1453.23 Q1841.01 1453.23 1844.39 1456.4 Q1847.77 1459.58 1847.77 1464.99 Q1847.77 1470.57 1844.3 1473.67 Q1840.83 1476.75 1834.51 1476.75 Q1832.33 1476.75 1830.06 1476.38 Q1827.82 1476.01 1825.41 1475.27 L1825.41 1470.57 Q1827.49 1471.7 1829.71 1472.26 Q1831.94 1472.82 1834.41 1472.82 Q1838.42 1472.82 1840.76 1470.71 Q1843.09 1468.6 1843.09 1464.99 Q1843.09 1461.38 1840.76 1459.27 Q1838.42 1457.17 1834.41 1457.17 Q1832.54 1457.17 1830.66 1457.58 Q1828.81 1458 1826.87 1458.88 L1826.87 1441.52 Z" fill="#000000" fill-rule="evenodd" fill-opacity="1" /><path clip-path="url(#clip260)" d="M 0 0 M1862.84 1444.6 Q1859.23 1444.6 1857.4 1448.16 Q1855.59 1451.71 1855.59 1458.83 Q1855.59 1465.94 1857.4 1469.51 Q1859.23 1473.05 1862.84 1473.05 Q1866.47 1473.05 1868.28 1469.51 Q1870.11 1465.94 1870.11 1458.83 Q1870.11 1451.71 1868.28 1448.16 Q1866.47 1444.6 1862.84 1444.6 M1862.84 1440.89 Q1868.65 1440.89 1871.71 1445.5 Q1874.78 1450.08 1874.78 1458.83 Q1874.78 1467.56 1871.71 1472.17 Q1868.65 1476.75 1862.84 1476.75 Q1857.03 1476.75 1853.95 1472.17 Q1850.89 1467.56 1850.89 1458.83 Q1850.89 1450.08 1853.95 1445.5 Q1857.03 1440.89 1862.84 1440.89 Z" fill="#000000" fill-rule="evenodd" fill-opacity="1" /><path clip-path="url(#clip260)" d="M 0 0 M1934.62 1444.6 Q1931.01 1444.6 1929.18 1448.16 Q1927.38 1451.71 1927.38 1458.83 Q1927.38 1465.94 1929.18 1469.51 Q1931.01 1473.05 1934.62 1473.05 Q1938.26 1473.05 1940.06 1469.51 Q1941.89 1465.94 1941.89 1458.83 Q1941.89 1451.71 1940.06 1448.16 Q1938.26 1444.6 1934.62 1444.6 M1934.62 1440.89 Q1940.43 1440.89 1943.49 1445.5 Q1946.57 1450.08 1946.57 1458.83 Q1946.57 1467.56 1943.49 1472.17 Q1940.43 1476.75 1934.62 1476.75 Q1928.81 1476.75 1925.73 1472.17 Q1922.68 1467.56 1922.68 1458.83 Q1922.68 1450.08 1925.73 1445.5 Q1928.81 1440.89 1934.62 1440.89 Z" fill="#000000" fill-rule="evenodd" fill-opacity="1" /><path clip-path="url(#clip260)" d="M 0 0 M1951.64 1470.2 L1956.52 1470.2 L1956.52 1476.08 L1951.64 1476.08 L1951.64 1470.2 Z" fill="#000000" fill-rule="evenodd" fill-opacity="1" /><path clip-path="url(#clip260)" d="M 0 0 M1971.59 1444.6 Q1967.98 1444.6 1966.15 1448.16 Q1964.35 1451.71 1964.35 1458.83 Q1964.35 1465.94 1966.15 1469.51 Q1967.98 1473.05 1971.59 1473.05 Q1975.22 1473.05 1977.03 1469.51 Q1978.86 1465.94 1978.86 1458.83 Q1978.86 1451.71 1977.03 1448.16 Q1975.22 1444.6 1971.59 1444.6 M1971.59 1440.89 Q1977.4 1440.89 1980.46 1445.5 Q1983.53 1450.08 1983.53 1458.83 Q1983.53 1467.56 1980.46 1472.17 Q1977.4 1476.75 1971.59 1476.75 Q1965.78 1476.75 1962.7 1472.17 Q1959.65 1467.56 1959.65 1458.83 Q1959.65 1450.08 1962.7 1445.5 Q1965.78 1440.89 1971.59 1440.89 Z" fill="#000000" fill-rule="evenodd" fill-opacity="1" /><path clip-path="url(#clip260)" d="M 0 0 M1988.65 1441.52 L2007.01 1441.52 L2007.01 1445.46 L1992.93 1445.46 L1992.93 1453.93 Q1993.95 1453.58 1994.97 1453.42 Q1995.99 1453.23 1997.01 1453.23 Q2002.79 1453.23 2006.17 1456.4 Q2009.55 1459.58 2009.55 1464.99 Q2009.55 1470.57 2006.08 1473.67 Q2002.61 1476.75 1996.29 1476.75 Q1994.11 1476.75 1991.85 1476.38 Q1989.6 1476.01 1987.19 1475.27 L1987.19 1470.57 Q1989.28 1471.7 1991.5 1472.26 Q1993.72 1472.82 1996.2 1472.82 Q2000.2 1472.82 2002.54 1470.71 Q2004.88 1468.6 2004.88 1464.99 Q2004.88 1461.38 2002.54 1459.27 Q2000.2 1457.17 1996.2 1457.17 Q1994.32 1457.17 1992.45 1457.58 Q1990.6 1458 1988.65 1458.88 L1988.65 1441.52 Z" fill="#000000" fill-rule="evenodd" fill-opacity="1" /><path clip-path="url(#clip260)" d="M 0 0 M2014.67 1441.52 L2033.03 1441.52 L2033.03 1445.46 L2018.95 1445.46 L2018.95 1453.93 Q2019.97 1453.58 2020.99 1453.42 Q2022.01 1453.23 2023.03 1453.23 Q2028.81 1453.23 2032.19 1456.4 Q2035.57 1459.58 2035.57 1464.99 Q2035.57 1470.57 2032.1 1473.67 Q2028.63 1476.75 2022.31 1476.75 Q2020.13 1476.75 2017.86 1476.38 Q2015.62 1476.01 2013.21 1475.27 L2013.21 1470.57 Q2015.29 1471.7 2017.52 1472.26 Q2019.74 1472.82 2022.22 1472.82 Q2026.22 1472.82 2028.56 1470.71 Q2030.9 1468.6 2030.9 1464.99 Q2030.9 1461.38 2028.56 1459.27 Q2026.22 1457.17 2022.22 1457.17 Q2020.34 1457.17 2018.47 1457.58 Q2016.61 1458 2014.67 1458.88 L2014.67 1441.52 Z" fill="#000000" fill-rule="evenodd" fill-opacity="1" /><path clip-path="url(#clip260)" d="M 0 0 M2094.83 1444.6 Q2091.22 1444.6 2089.39 1448.16 Q2087.59 1451.71 2087.59 1458.83 Q2087.59 1465.94 2089.39 1469.51 Q2091.22 1473.05 2094.83 1473.05 Q2098.47 1473.05 2100.27 1469.51 Q2102.1 1465.94 2102.1 1458.83 Q2102.1 1451.71 2100.27 1448.16 Q2098.47 1444.6 2094.83 1444.6 M2094.83 1440.89 Q2100.64 1440.89 2103.7 1445.5 Q2106.78 1450.08 2106.78 1458.83 Q2106.78 1467.56 2103.7 1472.17 Q2100.64 1476.75 2094.83 1476.75 Q2089.02 1476.75 2085.94 1472.17 Q2082.89 1467.56 2082.89 1458.83 Q2082.89 1450.08 2085.94 1445.5 Q2089.02 1440.89 2094.83 1440.89 Z" fill="#000000" fill-rule="evenodd" fill-opacity="1" /><path clip-path="url(#clip260)" d="M 0 0 M2111.85 1470.2 L2116.73 1470.2 L2116.73 1476.08 L2111.85 1476.08 L2111.85 1470.2 Z" fill="#000000" fill-rule="evenodd" fill-opacity="1" /><path clip-path="url(#clip260)" d="M 0 0 M2131.8 1444.6 Q2128.19 1444.6 2126.36 1448.16 Q2124.55 1451.71 2124.55 1458.83 Q2124.55 1465.94 2126.36 1469.51 Q2128.19 1473.05 2131.8 1473.05 Q2135.43 1473.05 2137.24 1469.51 Q2139.07 1465.94 2139.07 1458.83 Q2139.07 1451.71 2137.24 1448.16 Q2135.43 1444.6 2131.8 1444.6 M2131.8 1440.89 Q2137.61 1440.89 2140.67 1445.5 Q2143.74 1450.08 2143.74 1458.83 Q2143.74 1467.56 2140.67 1472.17 Q2137.61 1476.75 2131.8 1476.75 Q2125.99 1476.75 2122.91 1472.17 Q2119.86 1467.56 2119.86 1458.83 Q2119.86 1450.08 2122.91 1445.5 Q2125.99 1440.89 2131.8 1440.89 Z" fill="#000000" fill-rule="evenodd" fill-opacity="1" /><path clip-path="url(#clip260)" d="M 0 0 M2159.39 1456.94 Q2156.24 1456.94 2154.39 1459.09 Q2152.56 1461.24 2152.56 1464.99 Q2152.56 1468.72 2154.39 1470.89 Q2156.24 1473.05 2159.39 1473.05 Q2162.54 1473.05 2164.37 1470.89 Q2166.22 1468.72 2166.22 1464.99 Q2166.22 1461.24 2164.37 1459.09 Q2162.54 1456.94 2159.39 1456.94 M2168.67 1442.28 L2168.67 1446.54 Q2166.92 1445.71 2165.11 1445.27 Q2163.33 1444.83 2161.57 1444.83 Q2156.94 1444.83 2154.48 1447.96 Q2152.05 1451.08 2151.71 1457.4 Q2153.07 1455.39 2155.13 1454.32 Q2157.19 1453.23 2159.67 1453.23 Q2164.88 1453.23 2167.89 1456.4 Q2170.92 1459.55 2170.92 1464.99 Q2170.92 1470.32 2167.77 1473.53 Q2164.62 1476.75 2159.39 1476.75 Q2153.4 1476.75 2150.23 1472.17 Q2147.05 1467.56 2147.05 1458.83 Q2147.05 1450.64 2150.94 1445.78 Q2154.83 1440.89 2161.38 1440.89 Q2163.14 1440.89 2164.92 1441.24 Q2166.73 1441.59 2168.67 1442.28 Z" fill="#000000" fill-rule="evenodd" fill-opacity="1" /><path clip-path="url(#clip260)" d="M 0 0 M2185.99 1444.6 Q2182.38 1444.6 2180.55 1448.16 Q2178.74 1451.71 2178.74 1458.83 Q2178.74 1465.94 2180.55 1469.51 Q2182.38 1473.05 2185.99 1473.05 Q2189.62 1473.05 2191.43 1469.51 Q2193.26 1465.94 2193.26 1458.83 Q2193.26 1451.71 2191.43 1448.16 Q2189.62 1444.6 2185.99 1444.6 M2185.99 1440.89 Q2191.8 1440.89 2194.86 1445.5 Q2197.93 1450.08 2197.93 1458.83 Q2197.93 1467.56 2194.86 1472.17 Q2191.8 1476.75 2185.99 1476.75 Q2180.18 1476.75 2177.1 1472.17 Q2174.04 1467.56 2174.04 1458.83 Q2174.04 1450.08 2177.1 1445.5 Q2180.18 1440.89 2185.99 1440.89 Z" fill="#000000" fill-rule="evenodd" fill-opacity="1" /><path clip-path="url(#clip260)" d="M 0 0 M1279.42 1372.1 Q1275.81 1372.1 1273.98 1375.67 Q1272.18 1379.21 1272.18 1386.34 Q1272.18 1393.45 1273.98 1397.01 Q1275.81 1400.55 1279.42 1400.55 Q1283.06 1400.55 1284.86 1397.01 Q1286.69 1393.45 1286.69 1386.34 Q1286.69 1379.21 1284.86 1375.67 Q1283.06 1372.1 1279.42 1372.1 M1279.42 1368.4 Q1285.23 1368.4 1288.29 1373.01 Q1291.37 1377.59 1291.37 1386.34 Q1291.37 1395.07 1288.29 1399.67 Q1285.23 1404.26 1279.42 1404.26 Q1273.61 1404.26 1270.54 1399.67 Q1267.48 1395.07 1267.48 1386.34 Q1267.48 1377.59 1270.54 1373.01 Q1273.61 1368.4 1279.42 1368.4 Z" fill="#000000" fill-rule="evenodd" fill-opacity="1" /><path clip-path="url(#clip260)" d="M 0 0 M1243.45 1146.11 L1261.81 1146.11 L1261.81 1150.04 L1247.74 1150.04 L1247.74 1158.51 Q1248.75 1158.17 1249.77 1158.01 Q1250.79 1157.82 1251.81 1157.82 Q1257.6 1157.82 1260.98 1160.99 Q1264.36 1164.16 1264.36 1169.58 Q1264.36 1175.16 1260.88 1178.26 Q1257.41 1181.34 1251.09 1181.34 Q1248.92 1181.34 1246.65 1180.97 Q1244.4 1180.6 1241.99 1179.86 L1241.99 1175.16 Q1244.08 1176.29 1246.3 1176.85 Q1248.52 1177.4 1251 1177.4 Q1255 1177.4 1257.34 1175.3 Q1259.68 1173.19 1259.68 1169.58 Q1259.68 1165.97 1257.34 1163.86 Q1255 1161.76 1251 1161.76 Q1249.12 1161.76 1247.25 1162.17 Q1245.4 1162.59 1243.45 1163.47 L1243.45 1146.11 Z" fill="#000000" fill-rule="evenodd" fill-opacity="1" /><path clip-path="url(#clip260)" d="M 0 0 M1279.42 1149.19 Q1275.81 1149.19 1273.98 1152.75 Q1272.18 1156.29 1272.18 1163.42 Q1272.18 1170.53 1273.98 1174.09 Q1275.81 1177.64 1279.42 1177.64 Q1283.06 1177.64 1284.86 1174.09 Q1286.69 1170.53 1286.69 1163.42 Q1286.69 1156.29 1284.86 1152.75 Q1283.06 1149.19 1279.42 1149.19 M1279.42 1145.48 Q1285.23 1145.48 1288.29 1150.09 Q1291.37 1154.67 1291.37 1163.42 Q1291.37 1172.15 1288.29 1176.76 Q1285.23 1181.34 1279.42 1181.34 Q1273.61 1181.34 1270.54 1176.76 Q1267.48 1172.15 1267.48 1163.42 Q1267.48 1154.67 1270.54 1150.09 Q1273.61 1145.48 1279.42 1145.48 Z" fill="#000000" fill-rule="evenodd" fill-opacity="1" /><path clip-path="url(#clip260)" d="M 0 0 M1217.43 953.814 L1225.07 953.814 L1225.07 927.448 L1216.76 929.115 L1216.76 924.856 L1225.03 923.189 L1229.7 923.189 L1229.7 953.814 L1237.34 953.814 L1237.34 957.749 L1217.43 957.749 L1217.43 953.814 Z" fill="#000000" fill-rule="evenodd" fill-opacity="1" /><path clip-path="url(#clip260)" d="M 0 0 M1252.41 926.268 Q1248.8 926.268 1246.97 929.832 Q1245.17 933.374 1245.17 940.504 Q1245.17 947.61 1246.97 951.175 Q1248.8 954.717 1252.41 954.717 Q1256.05 954.717 1257.85 951.175 Q1259.68 947.61 1259.68 940.504 Q1259.68 933.374 1257.85 929.832 Q1256.05 926.268 1252.41 926.268 M1252.41 922.564 Q1258.22 922.564 1261.28 927.17 Q1264.36 931.754 1264.36 940.504 Q1264.36 949.231 1261.28 953.837 Q1258.22 958.42 1252.41 958.42 Q1246.6 958.42 1243.52 953.837 Q1240.47 949.231 1240.47 940.504 Q1240.47 931.754 1243.52 927.17 Q1246.6 922.564 1252.41 922.564 Z" fill="#000000" fill-rule="evenodd" fill-opacity="1" /><path clip-path="url(#clip260)" d="M 0 0 M1279.42 926.268 Q1275.81 926.268 1273.98 929.832 Q1272.18 933.374 1272.18 940.504 Q1272.18 947.61 1273.98 951.175 Q1275.81 954.717 1279.42 954.717 Q1283.06 954.717 1284.86 951.175 Q1286.69 947.61 1286.69 940.504 Q1286.69 933.374 1284.86 929.832 Q1283.06 926.268 1279.42 926.268 M1279.42 922.564 Q1285.23 922.564 1288.29 927.17 Q1291.37 931.754 1291.37 940.504 Q1291.37 949.231 1288.29 953.837 Q1285.23 958.42 1279.42 958.42 Q1273.61 958.42 1270.54 953.837 Q1267.48 949.231 1267.48 940.504 Q1267.48 931.754 1270.54 927.17 Q1273.61 922.564 1279.42 922.564 Z" fill="#000000" fill-rule="evenodd" fill-opacity="1" /><path clip-path="url(#clip260)" d="M 0 0 M1218.43 730.895 L1226.07 730.895 L1226.07 704.53 L1217.76 706.196 L1217.76 701.937 L1226.02 700.27 L1230.7 700.27 L1230.7 730.895 L1238.34 730.895 L1238.34 734.83 L1218.43 734.83 L1218.43 730.895 Z" fill="#000000" fill-rule="evenodd" fill-opacity="1" /><path clip-path="url(#clip260)" d="M 0 0 M1243.45 700.27 L1261.81 700.27 L1261.81 704.206 L1247.74 704.206 L1247.74 712.678 Q1248.75 712.33 1249.77 712.168 Q1250.79 711.983 1251.81 711.983 Q1257.6 711.983 1260.98 715.155 Q1264.36 718.326 1264.36 723.742 Q1264.36 729.321 1260.88 732.423 Q1257.41 735.502 1251.09 735.502 Q1248.92 735.502 1246.65 735.131 Q1244.4 734.761 1241.99 734.02 L1241.99 729.321 Q1244.08 730.455 1246.3 731.011 Q1248.52 731.566 1251 731.566 Q1255 731.566 1257.34 729.46 Q1259.68 727.354 1259.68 723.742 Q1259.68 720.131 1257.34 718.025 Q1255 715.918 1251 715.918 Q1249.12 715.918 1247.25 716.335 Q1245.4 716.752 1243.45 717.631 L1243.45 700.27 Z" fill="#000000" fill-rule="evenodd" fill-opacity="1" /><path clip-path="url(#clip260)" d="M 0 0 M1279.42 703.349 Q1275.81 703.349 1273.98 706.914 Q1272.18 710.455 1272.18 717.585 Q1272.18 724.692 1273.98 728.256 Q1275.81 731.798 1279.42 731.798 Q1283.06 731.798 1284.86 728.256 Q1286.69 724.692 1286.69 717.585 Q1286.69 710.455 1284.86 706.914 Q1283.06 703.349 1279.42 703.349 M1279.42 699.645 Q1285.23 699.645 1288.29 704.252 Q1291.37 708.835 1291.37 717.585 Q1291.37 726.312 1288.29 730.918 Q1285.23 735.502 1279.42 735.502 Q1273.61 735.502 1270.54 730.918 Q1267.48 726.312 1267.48 717.585 Q1267.48 708.835 1270.54 704.252 Q1273.61 699.645 1279.42 699.645 Z" fill="#000000" fill-rule="evenodd" fill-opacity="1" /><path clip-path="url(#clip260)" d="M 0 0 M1221.02 507.977 L1237.34 507.977 L1237.34 511.912 L1215.4 511.912 L1215.4 507.977 Q1218.06 505.222 1222.64 500.592 Q1227.25 495.94 1228.43 494.597 Q1230.67 492.074 1231.55 490.338 Q1232.46 488.578 1232.46 486.889 Q1232.46 484.134 1230.51 482.398 Q1228.59 480.662 1225.49 480.662 Q1223.29 480.662 1220.84 481.426 Q1218.41 482.19 1215.63 483.741 L1215.63 479.018 Q1218.45 477.884 1220.91 477.305 Q1223.36 476.727 1225.4 476.727 Q1230.77 476.727 1233.96 479.412 Q1237.16 482.097 1237.16 486.588 Q1237.16 488.717 1236.35 490.639 Q1235.56 492.537 1233.45 495.129 Q1232.87 495.801 1229.77 499.018 Q1226.67 502.213 1221.02 507.977 Z" fill="#000000" fill-rule="evenodd" fill-opacity="1" /><path clip-path="url(#clip260)" d="M 0 0 M1252.41 480.43 Q1248.8 480.43 1246.97 483.995 Q1245.17 487.537 1245.17 494.666 Q1245.17 501.773 1246.97 505.338 Q1248.8 508.879 1252.41 508.879 Q1256.05 508.879 1257.85 505.338 Q1259.68 501.773 1259.68 494.666 Q1259.68 487.537 1257.85 483.995 Q1256.05 480.43 1252.41 480.43 M1252.41 476.727 Q1258.22 476.727 1261.28 481.333 Q1264.36 485.916 1264.36 494.666 Q1264.36 503.393 1261.28 508 Q1258.22 512.583 1252.41 512.583 Q1246.6 512.583 1243.52 508 Q1240.47 503.393 1240.47 494.666 Q1240.47 485.916 1243.52 481.333 Q1246.6 476.727 1252.41 476.727 Z" fill="#000000" fill-rule="evenodd" fill-opacity="1" /><path clip-path="url(#clip260)" d="M 0 0 M1279.42 480.43 Q1275.81 480.43 1273.98 483.995 Q1272.18 487.537 1272.18 494.666 Q1272.18 501.773 1273.98 505.338 Q1275.81 508.879 1279.42 508.879 Q1283.06 508.879 1284.86 505.338 Q1286.69 501.773 1286.69 494.666 Q1286.69 487.537 1284.86 483.995 Q1283.06 480.43 1279.42 480.43 M1279.42 476.727 Q1285.23 476.727 1288.29 481.333 Q1291.37 485.916 1291.37 494.666 Q1291.37 503.393 1288.29 508 Q1285.23 512.583 1279.42 512.583 Q1273.61 512.583 1270.54 508 Q1267.48 503.393 1267.48 494.666 Q1267.48 485.916 1270.54 481.333 Q1273.61 476.727 1279.42 476.727 Z" fill="#000000" fill-rule="evenodd" fill-opacity="1" /><path clip-path="url(#clip260)" d="M 0 0 M1222.02 285.058 L1238.34 285.058 L1238.34 288.993 L1216.39 288.993 L1216.39 285.058 Q1219.05 282.303 1223.64 277.674 Q1228.24 273.021 1229.42 271.678 Q1231.67 269.155 1232.55 267.419 Q1233.45 265.66 1233.45 263.97 Q1233.45 261.215 1231.51 259.479 Q1229.59 257.743 1226.49 257.743 Q1224.29 257.743 1221.83 258.507 Q1219.4 259.271 1216.62 260.822 L1216.62 256.1 Q1219.45 254.965 1221.9 254.387 Q1224.36 253.808 1226.39 253.808 Q1231.76 253.808 1234.96 256.493 Q1238.15 259.178 1238.15 263.669 Q1238.15 265.799 1237.34 267.72 Q1236.55 269.618 1234.45 272.211 Q1233.87 272.882 1230.77 276.1 Q1227.67 279.294 1222.02 285.058 Z" fill="#000000" fill-rule="evenodd" fill-opacity="1" /><path clip-path="url(#clip260)" d="M 0 0 M1243.45 254.433 L1261.81 254.433 L1261.81 258.368 L1247.74 258.368 L1247.74 266.84 Q1248.75 266.493 1249.77 266.331 Q1250.79 266.146 1251.81 266.146 Q1257.6 266.146 1260.98 269.317 Q1264.36 272.488 1264.36 277.905 Q1264.36 283.484 1260.88 286.586 Q1257.41 289.664 1251.09 289.664 Q1248.92 289.664 1246.65 289.294 Q1244.4 288.924 1241.99 288.183 L1241.99 283.484 Q1244.08 284.618 1246.3 285.174 Q1248.52 285.729 1251 285.729 Q1255 285.729 1257.34 283.623 Q1259.68 281.516 1259.68 277.905 Q1259.68 274.294 1257.34 272.188 Q1255 270.081 1251 270.081 Q1249.12 270.081 1247.25 270.498 Q1245.4 270.914 1243.45 271.794 L1243.45 254.433 Z" fill="#000000" fill-rule="evenodd" fill-opacity="1" /><path clip-path="url(#clip260)" d="M 0 0 M1279.42 257.512 Q1275.81 257.512 1273.98 261.077 Q1272.18 264.618 1272.18 271.748 Q1272.18 278.854 1273.98 282.419 Q1275.81 285.961 1279.42 285.961 Q1283.06 285.961 1284.86 282.419 Q1286.69 278.854 1286.69 271.748 Q1286.69 264.618 1284.86 261.077 Q1283.06 257.512 1279.42 257.512 M1279.42 253.808 Q1285.23 253.808 1288.29 258.414 Q1291.37 262.998 1291.37 271.748 Q1291.37 280.475 1288.29 285.081 Q1285.23 289.664 1279.42 289.664 Q1273.61 289.664 1270.54 285.081 Q1267.48 280.475 1267.48 271.748 Q1267.48 262.998 1270.54 258.414 Q1273.61 253.808 1279.42 253.808 Z" fill="#000000" fill-rule="evenodd" fill-opacity="1" /><path clip-path="url(#clip260)" d="M 0 0 M1564.48 18.8205 L1564.48 41.5461 L1574.77 41.5461 Q1580.49 41.5461 1583.6 38.5889 Q1586.72 35.6318 1586.72 30.163 Q1586.72 24.7348 1583.6 21.7777 Q1580.49 18.8205 1574.77 18.8205 L1564.48 18.8205 M1556.3 12.096 L1574.77 12.096 Q1584.94 12.096 1590.13 16.714 Q1595.35 21.2916 1595.35 30.163 Q1595.35 39.1155 1590.13 43.6931 Q1584.94 48.2706 1574.77 48.2706 L1564.48 48.2706 L1564.48 72.576 L1556.3 72.576 L1556.3 12.096 Z" fill="#000000" fill-rule="evenodd" fill-opacity="1" /><path clip-path="url(#clip260)" d="M 0 0 M1620.06 49.7694 Q1611.03 49.7694 1607.55 51.8354 Q1604.06 53.9013 1604.06 58.8839 Q1604.06 62.8538 1606.65 65.2034 Q1609.29 67.5124 1613.78 67.5124 Q1619.98 67.5124 1623.71 63.1374 Q1627.48 58.7219 1627.48 51.4303 L1627.48 49.7694 L1620.06 49.7694 M1634.93 46.6907 L1634.93 72.576 L1627.48 72.576 L1627.48 65.6895 Q1624.92 69.8214 1621.12 71.8063 Q1617.31 73.7508 1611.8 73.7508 Q1604.83 73.7508 1600.7 69.8619 Q1596.61 65.9325 1596.61 59.3701 Q1596.61 51.7138 1601.71 47.825 Q1606.86 43.9361 1617.02 43.9361 L1627.48 43.9361 L1627.48 43.2069 Q1627.48 38.0623 1624.07 35.2672 Q1620.71 32.4315 1614.59 32.4315 Q1610.7 32.4315 1607.02 33.3632 Q1603.33 34.295 1599.93 36.1584 L1599.93 29.2718 Q1604.02 27.692 1607.87 26.9223 Q1611.72 26.1121 1615.36 26.1121 Q1625.21 26.1121 1630.07 31.2163 Q1634.93 36.3204 1634.93 46.6907 Z" fill="#000000" fill-rule="evenodd" fill-opacity="1" /><path clip-path="url(#clip260)" d="M 0 0 M1669.04 34.1734 Q1667.78 33.4443 1666.28 33.1202 Q1664.83 32.7556 1663.04 32.7556 Q1656.72 32.7556 1653.32 36.8875 Q1649.96 40.9789 1649.96 48.6757 L1649.96 72.576 L1642.46 72.576 L1642.46 27.2059 L1649.96 27.2059 L1649.96 34.2544 Q1652.31 30.1225 1656.08 28.1376 Q1659.84 26.1121 1665.23 26.1121 Q1666 26.1121 1666.93 26.2337 Q1667.86 26.3147 1669 26.5172 L1669.04 34.1734 Z" fill="#000000" fill-rule="evenodd" fill-opacity="1" /><path clip-path="url(#clip260)" d="M 0 0 M1697.48 49.7694 Q1688.44 49.7694 1684.96 51.8354 Q1681.47 53.9013 1681.47 58.8839 Q1681.47 62.8538 1684.07 65.2034 Q1686.7 67.5124 1691.2 67.5124 Q1697.39 67.5124 1701.12 63.1374 Q1704.89 58.7219 1704.89 51.4303 L1704.89 49.7694 L1697.48 49.7694 M1712.34 46.6907 L1712.34 72.576 L1704.89 72.576 L1704.89 65.6895 Q1702.34 69.8214 1698.53 71.8063 Q1694.72 73.7508 1689.21 73.7508 Q1682.24 73.7508 1678.11 69.8619 Q1674.02 65.9325 1674.02 59.3701 Q1674.02 51.7138 1679.12 47.825 Q1684.27 43.9361 1694.44 43.9361 L1704.89 43.9361 L1704.89 43.2069 Q1704.89 38.0623 1701.49 35.2672 Q1698.12 32.4315 1692.01 32.4315 Q1688.12 32.4315 1684.43 33.3632 Q1680.75 34.295 1677.34 36.1584 L1677.34 29.2718 Q1681.43 27.692 1685.28 26.9223 Q1689.13 26.1121 1692.78 26.1121 Q1702.62 26.1121 1707.48 31.2163 Q1712.34 36.3204 1712.34 46.6907 Z" fill="#000000" fill-rule="evenodd" fill-opacity="1" /><path clip-path="url(#clip260)" d="M 0 0 M1755.48 35.9153 Q1758.28 30.8922 1762.17 28.5022 Q1766.06 26.1121 1771.32 26.1121 Q1778.41 26.1121 1782.26 31.0947 Q1786.11 36.0368 1786.11 45.1919 L1786.11 72.576 L1778.61 72.576 L1778.61 45.4349 Q1778.61 38.913 1776.31 35.7533 Q1774 32.5936 1769.26 32.5936 Q1763.46 32.5936 1760.1 36.4419 Q1756.74 40.2903 1756.74 46.9338 L1756.74 72.576 L1749.25 72.576 L1749.25 45.4349 Q1749.25 38.8725 1746.94 35.7533 Q1744.63 32.5936 1739.81 32.5936 Q1734.1 32.5936 1730.73 36.4824 Q1727.37 40.3308 1727.37 46.9338 L1727.37 72.576 L1719.88 72.576 L1719.88 27.2059 L1727.37 27.2059 L1727.37 34.2544 Q1729.92 30.082 1733.49 28.0971 Q1737.05 26.1121 1741.95 26.1121 Q1746.9 26.1121 1750.34 28.6237 Q1753.82 31.1352 1755.48 35.9153 Z" fill="#000000" fill-rule="evenodd" fill-opacity="1" /><path clip-path="url(#clip260)" d="M 0 0 M1832.73 48.0275 L1832.73 51.6733 L1798.46 51.6733 Q1798.95 59.3701 1803.08 63.421 Q1807.25 67.4314 1814.67 67.4314 Q1818.96 67.4314 1822.97 66.3781 Q1827.02 65.3249 1830.99 63.2184 L1830.99 70.267 Q1826.98 71.9684 1822.77 72.8596 Q1818.56 73.7508 1814.22 73.7508 Q1803.37 73.7508 1797.01 67.4314 Q1790.69 61.1119 1790.69 50.3365 Q1790.69 39.1965 1796.68 32.6746 Q1802.72 26.1121 1812.93 26.1121 Q1822.08 26.1121 1827.39 32.0264 Q1832.73 37.9003 1832.73 48.0275 M1825.28 45.84 Q1825.2 39.7232 1821.84 36.0774 Q1818.52 32.4315 1813.01 32.4315 Q1806.77 32.4315 1803 35.9558 Q1799.27 39.4801 1798.71 45.8805 L1825.28 45.84 Z" fill="#000000" fill-rule="evenodd" fill-opacity="1" /><path clip-path="url(#clip260)" d="M 0 0 M1847.93 14.324 L1847.93 27.2059 L1863.28 27.2059 L1863.28 32.9987 L1847.93 32.9987 L1847.93 57.6282 Q1847.93 63.1779 1849.42 64.7578 Q1850.96 66.3376 1855.62 66.3376 L1863.28 66.3376 L1863.28 72.576 L1855.62 72.576 Q1846.99 72.576 1843.71 69.3758 Q1840.43 66.1351 1840.43 57.6282 L1840.43 32.9987 L1834.96 32.9987 L1834.96 27.2059 L1840.43 27.2059 L1840.43 14.324 L1847.93 14.324 Z" fill="#000000" fill-rule="evenodd" fill-opacity="1" /><path clip-path="url(#clip260)" d="M 0 0 M1909.9 48.0275 L1909.9 51.6733 L1875.63 51.6733 Q1876.12 59.3701 1880.25 63.421 Q1884.42 67.4314 1891.84 67.4314 Q1896.13 67.4314 1900.14 66.3781 Q1904.19 65.3249 1908.16 63.2184 L1908.16 70.267 Q1904.15 71.9684 1899.94 72.8596 Q1895.73 73.7508 1891.39 73.7508 Q1880.54 73.7508 1874.18 67.4314 Q1867.86 61.1119 1867.86 50.3365 Q1867.86 39.1965 1873.85 32.6746 Q1879.89 26.1121 1890.1 26.1121 Q1899.25 26.1121 1904.56 32.0264 Q1909.9 37.9003 1909.9 48.0275 M1902.45 45.84 Q1902.37 39.7232 1899.01 36.0774 Q1895.69 32.4315 1890.18 32.4315 Q1883.94 32.4315 1880.17 35.9558 Q1876.44 39.4801 1875.88 45.8805 L1902.45 45.84 Z" fill="#000000" fill-rule="evenodd" fill-opacity="1" /><path clip-path="url(#clip260)" d="M 0 0 M1944.01 34.1734 Q1942.76 33.4443 1941.26 33.1202 Q1939.8 32.7556 1938.02 32.7556 Q1931.7 32.7556 1928.3 36.8875 Q1924.93 40.9789 1924.93 48.6757 L1924.93 72.576 L1917.44 72.576 L1917.44 27.2059 L1924.93 27.2059 L1924.93 34.2544 Q1927.28 30.1225 1931.05 28.1376 Q1934.82 26.1121 1940.21 26.1121 Q1940.98 26.1121 1941.91 26.2337 Q1942.84 26.3147 1943.97 26.5172 L1944.01 34.1734 Z" fill="#000000" fill-rule="evenodd" fill-opacity="1" /><path clip-path="url(#clip260)" d="M 0 0 M1986.3 65.6895 L2014.86 65.6895 L2014.86 72.576 L1976.46 72.576 L1976.46 65.6895 Q1981.12 60.8689 1989.14 52.7671 Q1997.2 44.6248 1999.27 42.2752 Q2003.2 37.8598 2004.74 34.8216 Q2006.32 31.7429 2006.32 28.7857 Q2006.32 23.9651 2002.91 20.927 Q1999.55 17.8888 1994.12 17.8888 Q1990.27 17.8888 1985.98 19.2256 Q1981.73 20.5624 1976.87 23.2765 L1976.87 15.0127 Q1981.81 13.0277 1986.1 12.015 Q1990.4 11.0023 1993.96 11.0023 Q2003.36 11.0023 2008.95 15.7013 Q2014.54 20.4004 2014.54 28.2591 Q2014.54 31.9859 2013.12 35.3482 Q2011.74 38.6699 2008.06 43.2069 Q2007.05 44.3817 2001.62 50.0125 Q1996.19 55.6027 1986.3 65.6895 Z" fill="#000000" fill-rule="evenodd" fill-opacity="1" /><path clip-path="url(#clip263)" d="
M1366.24 637.3 L1366.24 1386.31 L1430.75 1386.31 L1430.75 637.3 L1366.24 637.3 L1366.24 637.3  Z
  " fill="#8b0000" fill-rule="evenodd" fill-opacity="1"/>
<polyline clip-path="url(#clip263)" style="stroke:#ffffff; stroke-width:4; stroke-opacity:1; fill:none" points="
  1366.24,637.3 1366.24,1386.31 1430.75,1386.31 1430.75,637.3 1366.24,637.3 
  "/>
<path clip-path="url(#clip263)" d="
M1430.75 343.047 L1430.75 1386.31 L1495.27 1386.31 L1495.27 343.047 L1430.75 343.047 L1430.75 343.047  Z
  " fill="#8b0000" fill-rule="evenodd" fill-opacity="1"/>
<polyline clip-path="url(#clip263)" style="stroke:#ffffff; stroke-width:4; stroke-opacity:1; fill:none" points="
  1430.75,343.047 1430.75,1386.31 1495.27,1386.31 1495.27,343.047 1430.75,343.047 
  "/>
<path clip-path="url(#clip263)" d="
M1495.27 307.38 L1495.27 1386.31 L1559.78 1386.31 L1559.78 307.38 L1495.27 307.38 L1495.27 307.38  Z
  " fill="#8b0000" fill-rule="evenodd" fill-opacity="1"/>
<polyline clip-path="url(#clip263)" style="stroke:#ffffff; stroke-width:4; stroke-opacity:1; fill:none" points="
  1495.27,307.38 1495.27,1386.31 1559.78,1386.31 1559.78,307.38 1495.27,307.38 
  "/>
<path clip-path="url(#clip263)" d="
M1559.78 160.254 L1559.78 1386.31 L1624.3 1386.31 L1624.3 160.254 L1559.78 160.254 L1559.78 160.254  Z
  " fill="#8b0000" fill-rule="evenodd" fill-opacity="1"/>
<polyline clip-path="url(#clip263)" style="stroke:#ffffff; stroke-width:4; stroke-opacity:1; fill:none" points="
  1559.78,160.254 1559.78,1386.31 1624.3,1386.31 1624.3,160.254 1559.78,160.254 
  "/>
<path clip-path="url(#clip263)" d="
M1624.3 383.172 L1624.3 1386.31 L1688.81 1386.31 L1688.81 383.172 L1624.3 383.172 L1624.3 383.172  Z
  " fill="#8b0000" fill-rule="evenodd" fill-opacity="1"/>
<polyline clip-path="url(#clip263)" style="stroke:#ffffff; stroke-width:4; stroke-opacity:1; fill:none" points="
  1624.3,383.172 1624.3,1386.31 1688.81,1386.31 1688.81,383.172 1624.3,383.172 
  "/>
<path clip-path="url(#clip263)" d="
M1688.81 418.839 L1688.81 1386.31 L1753.33 1386.31 L1753.33 418.839 L1688.81 418.839 L1688.81 418.839  Z
  " fill="#8b0000" fill-rule="evenodd" fill-opacity="1"/>
<polyline clip-path="url(#clip263)" style="stroke:#ffffff; stroke-width:4; stroke-opacity:1; fill:none" points="
  1688.81,418.839 1688.81,1386.31 1753.33,1386.31 1753.33,418.839 1688.81,418.839 
  "/>
<path clip-path="url(#clip263)" d="
M1753.33 530.299 L1753.33 1386.31 L1817.84 1386.31 L1817.84 530.299 L1753.33 530.299 L1753.33 530.299  Z
  " fill="#8b0000" fill-rule="evenodd" fill-opacity="1"/>
<polyline clip-path="url(#clip263)" style="stroke:#ffffff; stroke-width:4; stroke-opacity:1; fill:none" points="
  1753.33,530.299 1753.33,1386.31 1817.84,1386.31 1817.84,530.299 1753.33,530.299 
  "/>
<path clip-path="url(#clip263)" d="
M1817.84 797.801 L1817.84 1386.31 L1882.35 1386.31 L1882.35 797.801 L1817.84 797.801 L1817.84 797.801  Z
  " fill="#8b0000" fill-rule="evenodd" fill-opacity="1"/>
<polyline clip-path="url(#clip263)" style="stroke:#ffffff; stroke-width:4; stroke-opacity:1; fill:none" points="
  1817.84,797.801 1817.84,1386.31 1882.35,1386.31 1882.35,797.801 1817.84,797.801 
  "/>
<path clip-path="url(#clip263)" d="
M1882.35 904.802 L1882.35 1386.31 L1946.87 1386.31 L1946.87 904.802 L1882.35 904.802 L1882.35 904.802  Z
  " fill="#8b0000" fill-rule="evenodd" fill-opacity="1"/>
<polyline clip-path="url(#clip263)" style="stroke:#ffffff; stroke-width:4; stroke-opacity:1; fill:none" points="
  1882.35,904.802 1882.35,1386.31 1946.87,1386.31 1946.87,904.802 1882.35,904.802 
  "/>
<path clip-path="url(#clip263)" d="
M1946.87 976.136 L1946.87 1386.31 L2011.38 1386.31 L2011.38 976.136 L1946.87 976.136 L1946.87 976.136  Z
  " fill="#8b0000" fill-rule="evenodd" fill-opacity="1"/>
<polyline clip-path="url(#clip263)" style="stroke:#ffffff; stroke-width:4; stroke-opacity:1; fill:none" points="
  1946.87,976.136 1946.87,1386.31 2011.38,1386.31 2011.38,976.136 1946.87,976.136 
  "/>
<path clip-path="url(#clip263)" d="
M2011.38 1145.55 L2011.38 1386.31 L2075.9 1386.31 L2075.9 1145.55 L2011.38 1145.55 L2011.38 1145.55  Z
  " fill="#8b0000" fill-rule="evenodd" fill-opacity="1"/>
<polyline clip-path="url(#clip263)" style="stroke:#ffffff; stroke-width:4; stroke-opacity:1; fill:none" points="
  2011.38,1145.55 2011.38,1386.31 2075.9,1386.31 2075.9,1145.55 2011.38,1145.55 
  "/>
<path clip-path="url(#clip263)" d="
M2075.9 1216.89 L2075.9 1386.31 L2140.41 1386.31 L2140.41 1216.89 L2075.9 1216.89 L2075.9 1216.89  Z
  " fill="#8b0000" fill-rule="evenodd" fill-opacity="1"/>
<polyline clip-path="url(#clip263)" style="stroke:#ffffff; stroke-width:4; stroke-opacity:1; fill:none" points="
  2075.9,1216.89 2075.9,1386.31 2140.41,1386.31 2140.41,1216.89 2075.9,1216.89 
  "/>
<path clip-path="url(#clip263)" d="
M2140.41 1283.76 L2140.41 1386.31 L2204.93 1386.31 L2204.93 1283.76 L2140.41 1283.76 L2140.41 1283.76  Z
  " fill="#8b0000" fill-rule="evenodd" fill-opacity="1"/>
<polyline clip-path="url(#clip263)" style="stroke:#ffffff; stroke-width:4; stroke-opacity:1; fill:none" points="
  2140.41,1283.76 2140.41,1386.31 2204.93,1386.31 2204.93,1283.76 2140.41,1283.76 
  "/>
</svg>
