<?xml version="1.0" encoding="utf-8"?>
<svg xmlns="http://www.w3.org/2000/svg" xmlns:xlink="http://www.w3.org/1999/xlink" width="576" height="384" viewBox="0 0 2304 1536">
<defs>
  <clipPath id="clip860">
    <rect x="0" y="0" width="2304" height="1536"/>
  </clipPath>
</defs>
<path clip-path="url(#clip860)" d="
M0 1536 L2304 1536 L2304 0 L0 0  Z
  " fill="#ffffff" fill-rule="evenodd" fill-opacity="1"/>
<defs>
  <clipPath id="clip861">
    <rect x="460" y="0" width="1614" height="1536"/>
  </clipPath>
</defs>
<path clip-path="url(#clip860)" d="
M250.92 1359.82 L2256.76 1359.82 L2256.76 47.2441 L250.92 47.2441  Z
  " fill="#ffffff" fill-rule="evenodd" fill-opacity="1"/>
<defs>
  <clipPath id="clip862">
    <rect x="250" y="47" width="2007" height="1314"/>
  </clipPath>
</defs>
<polyline clip-path="url(#clip862)" style="stroke:#000000; stroke-width:2; stroke-opacity:0.1; fill:none" points="
  307.689,1359.82 307.689,47.2441 
  "/>
<polyline clip-path="url(#clip862)" style="stroke:#000000; stroke-width:2; stroke-opacity:0.1; fill:none" points="
  780.763,1359.82 780.763,47.2441 
  "/>
<polyline clip-path="url(#clip862)" style="stroke:#000000; stroke-width:2; stroke-opacity:0.1; fill:none" points="
  1253.84,1359.82 1253.84,47.2441 
  "/>
<polyline clip-path="url(#clip862)" style="stroke:#000000; stroke-width:2; stroke-opacity:0.1; fill:none" points="
  1726.91,1359.82 1726.91,47.2441 
  "/>
<polyline clip-path="url(#clip862)" style="stroke:#000000; stroke-width:2; stroke-opacity:0.1; fill:none" points="
  2199.99,1359.82 2199.99,47.2441 
  "/>
<polyline clip-path="url(#clip862)" style="stroke:#000000; stroke-width:2; stroke-opacity:0.1; fill:none" points="
  250.92,1322.67 2256.76,1322.67 
  "/>
<polyline clip-path="url(#clip862)" style="stroke:#000000; stroke-width:2; stroke-opacity:0.1; fill:none" points="
  250.92,1009.97 2256.76,1009.97 
  "/>
<polyline clip-path="url(#clip862)" style="stroke:#000000; stroke-width:2; stroke-opacity:0.1; fill:none" points="
  250.92,697.278 2256.76,697.278 
  "/>
<polyline clip-path="url(#clip862)" style="stroke:#000000; stroke-width:2; stroke-opacity:0.1; fill:none" points="
  250.92,384.581 2256.76,384.581 
  "/>
<polyline clip-path="url(#clip862)" style="stroke:#000000; stroke-width:2; stroke-opacity:0.1; fill:none" points="
  250.92,71.8846 2256.76,71.8846 
  "/>
<polyline clip-path="url(#clip860)" style="stroke:#000000; stroke-width:4; stroke-opacity:1; fill:none" points="
  250.92,1359.82 2256.76,1359.82 
  "/>
<polyline clip-path="url(#clip860)" style="stroke:#000000; stroke-width:4; stroke-opacity:1; fill:none" points="
  250.92,1359.82 250.92,47.2441 
  "/>
<polyline clip-path="url(#clip860)" style="stroke:#000000; stroke-width:4; stroke-opacity:1; fill:none" points="
  307.689,1359.82 307.689,1344.07 
  "/>
<polyline clip-path="url(#clip860)" style="stroke:#000000; stroke-width:4; stroke-opacity:1; fill:none" points="
  780.763,1359.82 780.763,1344.07 
  "/>
<polyline clip-path="url(#clip860)" style="stroke:#000000; stroke-width:4; stroke-opacity:1; fill:none" points="
  1253.84,1359.82 1253.84,1344.07 
  "/>
<polyline clip-path="url(#clip860)" style="stroke:#000000; stroke-width:4; stroke-opacity:1; fill:none" points="
  1726.91,1359.82 1726.91,1344.07 
  "/>
<polyline clip-path="url(#clip860)" style="stroke:#000000; stroke-width:4; stroke-opacity:1; fill:none" points="
  2199.99,1359.82 2199.99,1344.07 
  "/>
<polyline clip-path="url(#clip860)" style="stroke:#000000; stroke-width:4; stroke-opacity:1; fill:none" points="
  250.92,1322.67 274.99,1322.67 
  "/>
<polyline clip-path="url(#clip860)" style="stroke:#000000; stroke-width:4; stroke-opacity:1; fill:none" points="
  250.92,1009.97 274.99,1009.97 
  "/>
<polyline clip-path="url(#clip860)" style="stroke:#000000; stroke-width:4; stroke-opacity:1; fill:none" points="
  250.92,697.278 274.99,697.278 
  "/>
<polyline clip-path="url(#clip860)" style="stroke:#000000; stroke-width:4; stroke-opacity:1; fill:none" points="
  250.92,384.581 274.99,384.581 
  "/>
<polyline clip-path="url(#clip860)" style="stroke:#000000; stroke-width:4; stroke-opacity:1; fill:none" points="
  250.92,71.8846 274.99,71.8846 
  "/>
<path clip-path="url(#clip860)" d="M 0 0 M307.689 1381.33 Q304.078 1381.33 302.249 1384.9 Q300.444 1388.44 300.444 1395.57 Q300.444 1402.67 302.249 1406.24 Q304.078 1409.78 307.689 1409.78 Q311.323 1409.78 313.129 1406.24 Q314.957 1402.67 314.957 1395.57 Q314.957 1388.44 313.129 1384.9 Q311.323 1381.33 307.689 1381.33 M307.689 1377.63 Q313.499 1377.63 316.555 1382.23 Q319.633 1386.82 319.633 1395.57 Q319.633 1404.29 316.555 1408.9 Q313.499 1413.48 307.689 1413.48 Q301.879 1413.48 298.8 1408.9 Q295.745 1404.29 295.745 1395.57 Q295.745 1386.82 298.8 1382.23 Q301.879 1377.63 307.689 1377.63 Z" fill="#000000" fill-rule="evenodd" fill-opacity="1" /><path clip-path="url(#clip860)" d="M 0 0 M757.639 1408.88 L765.277 1408.88 L765.277 1382.51 L756.967 1384.18 L756.967 1379.92 L765.231 1378.25 L769.907 1378.25 L769.907 1408.88 L777.546 1408.88 L777.546 1412.81 L757.639 1412.81 L757.639 1408.88 Z" fill="#000000" fill-rule="evenodd" fill-opacity="1" /><path clip-path="url(#clip860)" d="M 0 0 M792.615 1381.33 Q789.004 1381.33 787.175 1384.9 Q785.37 1388.44 785.37 1395.57 Q785.37 1402.67 787.175 1406.24 Q789.004 1409.78 792.615 1409.78 Q796.249 1409.78 798.055 1406.24 Q799.884 1402.67 799.884 1395.57 Q799.884 1388.44 798.055 1384.9 Q796.249 1381.33 792.615 1381.33 M792.615 1377.63 Q798.425 1377.63 801.481 1382.23 Q804.56 1386.82 804.56 1395.57 Q804.56 1404.29 801.481 1408.9 Q798.425 1413.48 792.615 1413.48 Q786.805 1413.48 783.726 1408.9 Q780.671 1404.29 780.671 1395.57 Q780.671 1386.82 783.726 1382.23 Q786.805 1377.63 792.615 1377.63 Z" fill="#000000" fill-rule="evenodd" fill-opacity="1" /><path clip-path="url(#clip860)" d="M 0 0 M1234.98 1408.88 L1251.3 1408.88 L1251.3 1412.81 L1229.36 1412.81 L1229.36 1408.88 Q1232.02 1406.12 1236.6 1401.49 Q1241.21 1396.84 1242.39 1395.5 Q1244.64 1392.97 1245.52 1391.24 Q1246.42 1389.48 1246.42 1387.79 Q1246.42 1385.03 1244.47 1383.3 Q1242.55 1381.56 1239.45 1381.56 Q1237.25 1381.56 1234.8 1382.33 Q1232.37 1383.09 1229.59 1384.64 L1229.59 1379.92 Q1232.41 1378.78 1234.87 1378.21 Q1237.32 1377.63 1239.36 1377.63 Q1244.73 1377.63 1247.92 1380.31 Q1251.12 1383 1251.12 1387.49 Q1251.12 1389.62 1250.31 1391.54 Q1249.52 1393.44 1247.41 1396.03 Q1246.84 1396.7 1243.73 1399.92 Q1240.63 1403.11 1234.98 1408.88 Z" fill="#000000" fill-rule="evenodd" fill-opacity="1" /><path clip-path="url(#clip860)" d="M 0 0 M1266.37 1381.33 Q1262.76 1381.33 1260.93 1384.9 Q1259.13 1388.44 1259.13 1395.57 Q1259.13 1402.67 1260.93 1406.24 Q1262.76 1409.78 1266.37 1409.78 Q1270.01 1409.78 1271.81 1406.24 Q1273.64 1402.67 1273.64 1395.57 Q1273.64 1388.44 1271.81 1384.9 Q1270.01 1381.33 1266.37 1381.33 M1266.37 1377.63 Q1272.18 1377.63 1275.24 1382.23 Q1278.32 1386.82 1278.32 1395.57 Q1278.32 1404.29 1275.24 1408.9 Q1272.18 1413.48 1266.37 1413.48 Q1260.56 1413.48 1257.48 1408.9 Q1254.43 1404.29 1254.43 1395.57 Q1254.43 1386.82 1257.48 1382.23 Q1260.56 1377.63 1266.37 1377.63 Z" fill="#000000" fill-rule="evenodd" fill-opacity="1" /><path clip-path="url(#clip860)" d="M 0 0 M1717.65 1394.18 Q1721.01 1394.9 1722.88 1397.16 Q1724.78 1399.43 1724.78 1402.77 Q1724.78 1407.88 1721.26 1410.68 Q1717.75 1413.48 1711.26 1413.48 Q1709.09 1413.48 1706.77 1413.04 Q1704.48 1412.63 1702.03 1411.77 L1702.03 1407.26 Q1703.97 1408.39 1706.29 1408.97 Q1708.6 1409.55 1711.13 1409.55 Q1715.52 1409.55 1717.82 1407.81 Q1720.13 1406.08 1720.13 1402.77 Q1720.13 1399.71 1717.98 1398 Q1715.85 1396.26 1712.03 1396.26 L1708 1396.26 L1708 1392.42 L1712.21 1392.42 Q1715.66 1392.42 1717.49 1391.05 Q1719.32 1389.66 1719.32 1387.07 Q1719.32 1384.41 1717.42 1383 Q1715.55 1381.56 1712.03 1381.56 Q1710.11 1381.56 1707.91 1381.98 Q1705.71 1382.4 1703.07 1383.27 L1703.07 1379.11 Q1705.73 1378.37 1708.05 1378 Q1710.38 1377.63 1712.44 1377.63 Q1717.77 1377.63 1720.87 1380.06 Q1723.97 1382.46 1723.97 1386.59 Q1723.97 1389.46 1722.33 1391.45 Q1720.69 1393.41 1717.65 1394.18 Z" fill="#000000" fill-rule="evenodd" fill-opacity="1" /><path clip-path="url(#clip860)" d="M 0 0 M1739.85 1381.33 Q1736.24 1381.33 1734.41 1384.9 Q1732.61 1388.44 1732.61 1395.57 Q1732.61 1402.67 1734.41 1406.24 Q1736.24 1409.78 1739.85 1409.78 Q1743.49 1409.78 1745.29 1406.24 Q1747.12 1402.67 1747.12 1395.57 Q1747.12 1388.44 1745.29 1384.9 Q1743.49 1381.33 1739.85 1381.33 M1739.85 1377.63 Q1745.66 1377.63 1748.72 1382.23 Q1751.8 1386.82 1751.8 1395.57 Q1751.8 1404.29 1748.72 1408.9 Q1745.66 1413.48 1739.85 1413.48 Q1734.04 1413.48 1730.96 1408.9 Q1727.91 1404.29 1727.91 1395.57 Q1727.91 1386.82 1730.96 1382.23 Q1734.04 1377.63 1739.85 1377.63 Z" fill="#000000" fill-rule="evenodd" fill-opacity="1" /><path clip-path="url(#clip860)" d="M 0 0 M2189.49 1382.33 L2177.68 1400.77 L2189.49 1400.77 L2189.49 1382.33 M2188.26 1378.25 L2194.14 1378.25 L2194.14 1400.77 L2199.07 1400.77 L2199.07 1404.66 L2194.14 1404.66 L2194.14 1412.81 L2189.49 1412.81 L2189.49 1404.66 L2173.89 1404.66 L2173.89 1400.15 L2188.26 1378.25 Z" fill="#000000" fill-rule="evenodd" fill-opacity="1" /><path clip-path="url(#clip860)" d="M 0 0 M2214.14 1381.33 Q2210.53 1381.33 2208.7 1384.9 Q2206.9 1388.44 2206.9 1395.57 Q2206.9 1402.67 2208.7 1406.24 Q2210.53 1409.78 2214.14 1409.78 Q2217.78 1409.78 2219.58 1406.24 Q2221.41 1402.67 2221.41 1395.57 Q2221.41 1388.44 2219.58 1384.9 Q2217.78 1381.33 2214.14 1381.33 M2214.14 1377.63 Q2219.95 1377.63 2223.01 1382.23 Q2226.09 1386.82 2226.09 1395.57 Q2226.09 1404.29 2223.01 1408.9 Q2219.95 1413.48 2214.14 1413.48 Q2208.33 1413.48 2205.25 1408.9 Q2202.2 1404.29 2202.2 1395.57 Q2202.2 1386.82 2205.25 1382.23 Q2208.33 1377.63 2214.14 1377.63 Z" fill="#000000" fill-rule="evenodd" fill-opacity="1" /><path clip-path="url(#clip860)" d="M 0 0 M215.936 1308.47 Q212.325 1308.47 210.496 1312.03 Q208.69 1315.58 208.69 1322.71 Q208.69 1329.81 210.496 1333.38 Q212.325 1336.92 215.936 1336.92 Q219.57 1336.92 221.375 1333.38 Q223.204 1329.81 223.204 1322.71 Q223.204 1315.58 221.375 1312.03 Q219.57 1308.47 215.936 1308.47 M215.936 1304.77 Q221.746 1304.77 224.801 1309.37 Q227.88 1313.96 227.88 1322.71 Q227.88 1331.43 224.801 1336.04 Q221.746 1340.62 215.936 1340.62 Q210.125 1340.62 207.047 1336.04 Q203.991 1331.43 203.991 1322.71 Q203.991 1313.96 207.047 1309.37 Q210.125 1304.77 215.936 1304.77 Z" fill="#000000" fill-rule="evenodd" fill-opacity="1" /><path clip-path="url(#clip860)" d="M 0 0 M158.529 1023.32 L174.848 1023.32 L174.848 1027.25 L152.904 1027.25 L152.904 1023.32 Q155.566 1020.56 160.149 1015.94 Q164.755 1011.28 165.936 1009.94 Q168.181 1007.42 169.061 1005.68 Q169.964 1003.92 169.964 1002.23 Q169.964 999.477 168.019 997.741 Q166.098 996.005 162.996 996.005 Q160.797 996.005 158.343 996.769 Q155.913 997.533 153.135 999.084 L153.135 994.361 Q155.959 993.227 158.413 992.648 Q160.866 992.07 162.903 992.07 Q168.274 992.07 171.468 994.755 Q174.663 997.44 174.663 1001.93 Q174.663 1004.06 173.852 1005.98 Q173.065 1007.88 170.959 1010.47 Q170.38 1011.14 167.278 1014.36 Q164.177 1017.56 158.529 1023.32 Z" fill="#000000" fill-rule="evenodd" fill-opacity="1" /><path clip-path="url(#clip860)" d="M 0 0 M179.964 992.695 L198.32 992.695 L198.32 996.63 L184.246 996.63 L184.246 1005.1 Q185.264 1004.75 186.283 1004.59 Q187.301 1004.41 188.32 1004.41 Q194.107 1004.41 197.487 1007.58 Q200.866 1010.75 200.866 1016.17 Q200.866 1021.75 197.394 1024.85 Q193.922 1027.93 187.602 1027.93 Q185.427 1027.93 183.158 1027.56 Q180.913 1027.19 178.505 1026.44 L178.505 1021.75 Q180.589 1022.88 182.811 1023.44 Q185.033 1023.99 187.51 1023.99 Q191.514 1023.99 193.852 1021.88 Q196.19 1019.78 196.19 1016.17 Q196.19 1012.56 193.852 1010.45 Q191.514 1008.34 187.51 1008.34 Q185.635 1008.34 183.76 1008.76 Q181.908 1009.18 179.964 1010.06 L179.964 992.695 Z" fill="#000000" fill-rule="evenodd" fill-opacity="1" /><path clip-path="url(#clip860)" d="M 0 0 M215.936 995.773 Q212.325 995.773 210.496 999.338 Q208.69 1002.88 208.69 1010.01 Q208.69 1017.12 210.496 1020.68 Q212.325 1024.22 215.936 1024.22 Q219.57 1024.22 221.375 1020.68 Q223.204 1017.12 223.204 1010.01 Q223.204 1002.88 221.375 999.338 Q219.57 995.773 215.936 995.773 M215.936 992.07 Q221.746 992.07 224.801 996.676 Q227.88 1001.26 227.88 1010.01 Q227.88 1018.74 224.801 1023.34 Q221.746 1027.93 215.936 1027.93 Q210.125 1027.93 207.047 1023.34 Q203.991 1018.74 203.991 1010.01 Q203.991 1001.26 207.047 996.676 Q210.125 992.07 215.936 992.07 Z" fill="#000000" fill-rule="evenodd" fill-opacity="1" /><path clip-path="url(#clip860)" d="M 0 0 M152.95 679.998 L171.306 679.998 L171.306 683.933 L157.232 683.933 L157.232 692.405 Q158.251 692.058 159.269 691.896 Q160.288 691.711 161.306 691.711 Q167.093 691.711 170.473 694.882 Q173.852 698.053 173.852 703.47 Q173.852 709.049 170.38 712.151 Q166.908 715.229 160.589 715.229 Q158.413 715.229 156.144 714.859 Q153.899 714.489 151.492 713.748 L151.492 709.049 Q153.575 710.183 155.797 710.739 Q158.019 711.294 160.496 711.294 Q164.501 711.294 166.839 709.188 Q169.177 707.081 169.177 703.47 Q169.177 699.859 166.839 697.753 Q164.501 695.646 160.496 695.646 Q158.621 695.646 156.746 696.063 Q154.894 696.479 152.95 697.359 L152.95 679.998 Z" fill="#000000" fill-rule="evenodd" fill-opacity="1" /><path clip-path="url(#clip860)" d="M 0 0 M188.922 683.077 Q185.311 683.077 183.482 686.642 Q181.677 690.183 181.677 697.313 Q181.677 704.419 183.482 707.984 Q185.311 711.526 188.922 711.526 Q192.556 711.526 194.362 707.984 Q196.19 704.419 196.19 697.313 Q196.19 690.183 194.362 686.642 Q192.556 683.077 188.922 683.077 M188.922 679.373 Q194.732 679.373 197.788 683.979 Q200.866 688.563 200.866 697.313 Q200.866 706.04 197.788 710.646 Q194.732 715.229 188.922 715.229 Q183.112 715.229 180.033 710.646 Q176.977 706.04 176.977 697.313 Q176.977 688.563 180.033 683.979 Q183.112 679.373 188.922 679.373 Z" fill="#000000" fill-rule="evenodd" fill-opacity="1" /><path clip-path="url(#clip860)" d="M 0 0 M215.936 683.077 Q212.325 683.077 210.496 686.642 Q208.69 690.183 208.69 697.313 Q208.69 704.419 210.496 707.984 Q212.325 711.526 215.936 711.526 Q219.57 711.526 221.375 707.984 Q223.204 704.419 223.204 697.313 Q223.204 690.183 221.375 686.642 Q219.57 683.077 215.936 683.077 M215.936 679.373 Q221.746 679.373 224.801 683.979 Q227.88 688.563 227.88 697.313 Q227.88 706.04 224.801 710.646 Q221.746 715.229 215.936 715.229 Q210.125 715.229 207.047 710.646 Q203.991 706.04 203.991 697.313 Q203.991 688.563 207.047 683.979 Q210.125 679.373 215.936 679.373 Z" fill="#000000" fill-rule="evenodd" fill-opacity="1" /><path clip-path="url(#clip860)" d="M 0 0 M152.626 367.301 L174.848 367.301 L174.848 369.292 L162.302 401.861 L157.417 401.861 L169.223 371.236 L152.626 371.236 L152.626 367.301 Z" fill="#000000" fill-rule="evenodd" fill-opacity="1" /><path clip-path="url(#clip860)" d="M 0 0 M179.964 367.301 L198.32 367.301 L198.32 371.236 L184.246 371.236 L184.246 379.709 Q185.264 379.361 186.283 379.199 Q187.301 379.014 188.32 379.014 Q194.107 379.014 197.487 382.185 Q200.866 385.357 200.866 390.773 Q200.866 396.352 197.394 399.454 Q193.922 402.533 187.602 402.533 Q185.427 402.533 183.158 402.162 Q180.913 401.792 178.505 401.051 L178.505 396.352 Q180.589 397.486 182.811 398.042 Q185.033 398.597 187.51 398.597 Q191.514 398.597 193.852 396.491 Q196.19 394.385 196.19 390.773 Q196.19 387.162 193.852 385.056 Q191.514 382.949 187.51 382.949 Q185.635 382.949 183.76 383.366 Q181.908 383.783 179.964 384.662 L179.964 367.301 Z" fill="#000000" fill-rule="evenodd" fill-opacity="1" /><path clip-path="url(#clip860)" d="M 0 0 M215.936 370.38 Q212.325 370.38 210.496 373.945 Q208.69 377.486 208.69 384.616 Q208.69 391.722 210.496 395.287 Q212.325 398.829 215.936 398.829 Q219.57 398.829 221.375 395.287 Q223.204 391.722 223.204 384.616 Q223.204 377.486 221.375 373.945 Q219.57 370.38 215.936 370.38 M215.936 366.676 Q221.746 366.676 224.801 371.283 Q227.88 375.866 227.88 384.616 Q227.88 393.343 224.801 397.949 Q221.746 402.533 215.936 402.533 Q210.125 402.533 207.047 397.949 Q203.991 393.343 203.991 384.616 Q203.991 375.866 207.047 371.283 Q210.125 366.676 215.936 366.676 Z" fill="#000000" fill-rule="evenodd" fill-opacity="1" /><path clip-path="url(#clip860)" d="M 0 0 M126.931 85.2294 L134.57 85.2294 L134.57 58.8638 L126.26 60.5305 L126.26 56.2713 L134.524 54.6046 L139.2 54.6046 L139.2 85.2294 L146.839 85.2294 L146.839 89.1646 L126.931 89.1646 L126.931 85.2294 Z" fill="#000000" fill-rule="evenodd" fill-opacity="1" /><path clip-path="url(#clip860)" d="M 0 0 M161.908 57.6833 Q158.297 57.6833 156.468 61.2481 Q154.663 64.7897 154.663 71.9193 Q154.663 79.0258 156.468 82.5906 Q158.297 86.1322 161.908 86.1322 Q165.542 86.1322 167.348 82.5906 Q169.177 79.0258 169.177 71.9193 Q169.177 64.7897 167.348 61.2481 Q165.542 57.6833 161.908 57.6833 M161.908 53.9796 Q167.718 53.9796 170.774 58.5861 Q173.852 63.1694 173.852 71.9193 Q173.852 80.6461 170.774 85.2526 Q167.718 89.8359 161.908 89.8359 Q156.098 89.8359 153.019 85.2526 Q149.964 80.6461 149.964 71.9193 Q149.964 63.1694 153.019 58.5861 Q156.098 53.9796 161.908 53.9796 Z" fill="#000000" fill-rule="evenodd" fill-opacity="1" /><path clip-path="url(#clip860)" d="M 0 0 M188.922 57.6833 Q185.311 57.6833 183.482 61.2481 Q181.677 64.7897 181.677 71.9193 Q181.677 79.0258 183.482 82.5906 Q185.311 86.1322 188.922 86.1322 Q192.556 86.1322 194.362 82.5906 Q196.19 79.0258 196.19 71.9193 Q196.19 64.7897 194.362 61.2481 Q192.556 57.6833 188.922 57.6833 M188.922 53.9796 Q194.732 53.9796 197.788 58.5861 Q200.866 63.1694 200.866 71.9193 Q200.866 80.6461 197.788 85.2526 Q194.732 89.8359 188.922 89.8359 Q183.112 89.8359 180.033 85.2526 Q176.977 80.6461 176.977 71.9193 Q176.977 63.1694 180.033 58.5861 Q183.112 53.9796 188.922 53.9796 Z" fill="#000000" fill-rule="evenodd" fill-opacity="1" /><path clip-path="url(#clip860)" d="M 0 0 M215.936 57.6833 Q212.325 57.6833 210.496 61.2481 Q208.69 64.7897 208.69 71.9193 Q208.69 79.0258 210.496 82.5906 Q212.325 86.1322 215.936 86.1322 Q219.57 86.1322 221.375 82.5906 Q223.204 79.0258 223.204 71.9193 Q223.204 64.7897 221.375 61.2481 Q219.57 57.6833 215.936 57.6833 M215.936 53.9796 Q221.746 53.9796 224.801 58.5861 Q227.88 63.1694 227.88 71.9193 Q227.88 80.6461 224.801 85.2526 Q221.746 89.8359 215.936 89.8359 Q210.125 89.8359 207.047 85.2526 Q203.991 80.6461 203.991 71.9193 Q203.991 63.1694 207.047 58.5861 Q210.125 53.9796 215.936 53.9796 Z" fill="#000000" fill-rule="evenodd" fill-opacity="1" /><path clip-path="url(#clip860)" d="M 0 0 M1181.44 1444.2 L1221.64 1444.2 L1221.64 1449.61 L1204.77 1449.61 L1204.77 1491.72 L1198.31 1491.72 L1198.31 1449.61 L1181.44 1449.61 L1181.44 1444.2 Z" fill="#000000" fill-rule="evenodd" fill-opacity="1" /><path clip-path="url(#clip860)" d="M 0 0 M1225.78 1456.08 L1231.64 1456.08 L1231.64 1491.72 L1225.78 1491.72 L1225.78 1456.08 M1225.78 1442.2 L1231.64 1442.2 L1231.64 1449.61 L1225.78 1449.61 L1225.78 1442.2 Z" fill="#000000" fill-rule="evenodd" fill-opacity="1" /><path clip-path="url(#clip860)" d="M 0 0 M1265.53 1462.92 Q1267.73 1458.97 1270.79 1457.09 Q1273.84 1455.22 1277.98 1455.22 Q1283.55 1455.22 1286.57 1459.13 Q1289.6 1463.01 1289.6 1470.21 L1289.6 1491.72 L1283.71 1491.72 L1283.71 1470.4 Q1283.71 1465.27 1281.89 1462.79 Q1280.08 1460.31 1276.36 1460.31 Q1271.81 1460.31 1269.16 1463.33 Q1266.52 1466.36 1266.52 1471.58 L1266.52 1491.72 L1260.63 1491.72 L1260.63 1470.4 Q1260.63 1465.24 1258.82 1462.79 Q1257 1460.31 1253.22 1460.31 Q1248.73 1460.31 1246.09 1463.36 Q1243.45 1466.39 1243.45 1471.58 L1243.45 1491.72 L1237.56 1491.72 L1237.56 1456.08 L1243.45 1456.08 L1243.45 1461.61 Q1245.45 1458.34 1248.25 1456.78 Q1251.05 1455.22 1254.9 1455.22 Q1258.79 1455.22 1261.49 1457.19 Q1264.23 1459.16 1265.53 1462.92 Z" fill="#000000" fill-rule="evenodd" fill-opacity="1" /><path clip-path="url(#clip860)" d="M 0 0 M1326.23 1472.44 L1326.23 1475.3 L1299.31 1475.3 Q1299.69 1481.35 1302.93 1484.53 Q1306.21 1487.68 1312.04 1487.68 Q1315.41 1487.68 1318.56 1486.85 Q1321.74 1486.03 1324.86 1484.37 L1324.86 1489.91 Q1321.71 1491.25 1318.4 1491.95 Q1315.09 1492.65 1311.69 1492.65 Q1303.16 1492.65 1298.16 1487.68 Q1293.19 1482.72 1293.19 1474.25 Q1293.19 1465.5 1297.9 1460.37 Q1302.65 1455.22 1310.67 1455.22 Q1317.86 1455.22 1322.03 1459.86 Q1326.23 1464.48 1326.23 1472.44 M1320.38 1470.72 Q1320.31 1465.91 1317.67 1463.05 Q1315.06 1460.18 1310.73 1460.18 Q1305.83 1460.18 1302.87 1462.95 Q1299.94 1465.72 1299.5 1470.75 L1320.38 1470.72 Z" fill="#000000" fill-rule="evenodd" fill-opacity="1" /><path clip-path="url(#clip860)" d="M 0 0 M41.4442 818.815 L41.4442 810.158 L81.198 789.087 L41.4442 789.087 L41.4442 782.849 L88.9642 782.849 L88.9642 791.506 L49.2103 812.577 L88.9642 812.577 L88.9642 818.815 L41.4442 818.815 Z" fill="#000000" fill-rule="evenodd" fill-opacity="1" /><path clip-path="url(#clip860)" d="M 0 0 M74.8959 777.311 L53.3162 777.311 L53.3162 771.454 L74.6731 771.454 Q79.7339 771.454 82.2802 769.481 Q84.7946 767.507 84.7946 763.561 Q84.7946 758.818 81.7709 756.081 Q78.7472 753.312 73.5273 753.312 L53.3162 753.312 L53.3162 747.455 L88.9642 747.455 L88.9642 753.312 L83.4896 753.312 Q86.7362 755.444 88.3276 758.277 Q89.8872 761.078 89.8872 764.802 Q89.8872 770.945 86.0678 774.128 Q82.2483 777.311 74.8959 777.311 M52.4568 762.574 L52.4568 762.574 Z" fill="#000000" fill-rule="evenodd" fill-opacity="1" /><path clip-path="url(#clip860)" d="M 0 0 M60.1593 713.558 Q56.2126 711.362 54.3347 708.306 Q52.4568 705.251 52.4568 701.113 Q52.4568 695.543 56.3717 692.519 Q60.2548 689.496 67.4481 689.496 L88.9642 689.496 L88.9642 695.384 L67.639 695.384 Q62.5146 695.384 60.032 697.198 Q57.5494 699.012 57.5494 702.736 Q57.5494 707.288 60.5731 709.93 Q63.5968 712.571 68.8167 712.571 L88.9642 712.571 L88.9642 718.46 L67.639 718.46 Q62.4828 718.46 60.032 720.274 Q57.5494 722.088 57.5494 725.876 Q57.5494 730.363 60.6049 733.005 Q63.6286 735.647 68.8167 735.647 L88.9642 735.647 L88.9642 741.535 L53.3162 741.535 L53.3162 735.647 L58.8544 735.647 Q55.576 733.642 54.0164 730.841 Q52.4568 728.04 52.4568 724.189 Q52.4568 720.306 54.4302 717.6 Q56.4036 714.863 60.1593 713.558 Z" fill="#000000" fill-rule="evenodd" fill-opacity="1" /><path clip-path="url(#clip860)" d="M 0 0 M71.172 657.763 Q64.7108 657.763 61.0505 660.436 Q57.3584 663.078 57.3584 667.725 Q57.3584 672.372 61.0505 675.045 Q64.7108 677.687 71.172 677.687 Q77.6332 677.687 81.3253 675.045 Q84.9856 672.372 84.9856 667.725 Q84.9856 663.078 81.3253 660.436 Q77.6332 657.763 71.172 657.763 M58.7271 677.687 Q55.5442 675.841 54.0164 673.04 Q52.4568 670.207 52.4568 666.293 Q52.4568 659.8 57.6131 655.757 Q62.7693 651.683 71.172 651.683 Q79.5747 651.683 84.731 655.757 Q89.8872 659.8 89.8872 666.293 Q89.8872 670.207 88.3594 673.04 Q86.7998 675.841 83.617 677.687 L88.9642 677.687 L88.9642 683.575 L39.439 683.575 L39.439 677.687 L58.7271 677.687 Z" fill="#000000" fill-rule="evenodd" fill-opacity="1" /><path clip-path="url(#clip860)" d="M 0 0 M69.6761 615.049 L72.5406 615.049 L72.5406 641.976 Q78.5881 641.594 81.7709 638.347 Q84.9219 635.069 84.9219 629.244 Q84.9219 625.87 84.0944 622.719 Q83.2669 619.536 81.6118 616.417 L87.1499 616.417 Q88.4867 619.568 89.187 622.878 Q89.8872 626.189 89.8872 629.594 Q89.8872 638.124 84.9219 643.121 Q79.9567 648.087 71.4903 648.087 Q62.7374 648.087 57.6131 643.376 Q52.4568 638.634 52.4568 630.613 Q52.4568 623.42 57.1038 619.25 Q61.7189 615.049 69.6761 615.049 M67.9573 620.905 Q63.1512 620.969 60.2866 623.611 Q57.4221 626.22 57.4221 630.549 Q57.4221 635.451 60.1912 638.411 Q62.9602 641.339 67.9892 641.785 L67.9573 620.905 Z" fill="#000000" fill-rule="evenodd" fill-opacity="1" /><path clip-path="url(#clip860)" d="M 0 0 M58.7907 588.249 Q58.2178 589.236 57.9632 590.413 Q57.6767 591.559 57.6767 592.96 Q57.6767 597.925 60.9232 600.598 Q64.1379 603.24 70.1853 603.24 L88.9642 603.24 L88.9642 609.129 L53.3162 609.129 L53.3162 603.24 L58.8544 603.24 Q55.6079 601.394 54.0483 598.434 Q52.4568 595.474 52.4568 591.241 Q52.4568 590.636 52.5523 589.904 Q52.616 589.172 52.7751 588.281 L58.7907 588.249 Z" fill="#000000" fill-rule="evenodd" fill-opacity="1" /><polyline clip-path="url(#clip862)" style="stroke:#009af9; stroke-width:4; stroke-opacity:1; fill:none" points="
  307.689,84.3925 312.42,85.6433 317.15,85.6433 321.881,85.6433 326.612,86.894 331.343,88.1448 336.073,90.6464 340.804,90.6464 345.535,90.6464 350.266,93.148 
  354.996,94.3988 359.727,94.3988 364.458,94.3988 369.189,95.6495 373.919,95.6495 378.65,96.9003 383.381,96.9003 388.112,96.9003 392.842,96.9003 397.573,96.9003 
  402.304,98.1511 407.035,101.903 411.765,104.405 416.496,104.405 421.227,108.157 425.958,108.157 430.688,109.408 435.419,113.161 440.15,113.161 444.881,114.411 
  449.611,115.662 454.342,115.662 459.073,116.913 463.804,116.913 468.534,118.164 473.265,118.164 477.996,118.164 482.726,118.164 487.457,119.414 492.188,120.665 
  496.919,120.665 501.649,121.916 506.38,121.916 511.111,123.167 515.842,124.418 520.572,125.668 525.303,126.919 530.034,128.17 534.765,129.421 539.495,133.173 
  544.226,135.675 548.957,136.926 553.688,139.427 558.418,143.179 563.149,143.179 567.88,143.179 572.611,144.43 577.341,145.681 582.072,149.433 586.803,150.684 
  591.534,153.186 596.264,154.437 600.995,155.687 605.726,160.69 610.457,163.192 615.187,168.195 619.918,170.697 624.649,170.697 629.38,174.449 634.11,178.201 
  638.841,180.703 643.572,184.455 648.303,184.455 653.033,188.208 657.764,189.459 662.495,194.462 667.226,200.716 671.956,201.966 676.687,203.217 681.418,203.217 
  686.149,208.22 690.879,210.722 695.61,211.973 700.341,216.976 705.072,221.979 709.802,226.982 714.533,230.735 719.264,233.236 723.994,236.988 728.725,240.741 
  733.456,241.992 738.187,245.744 742.917,249.496 747.648,251.998 752.379,255.75 757.11,255.75 761.84,257.001 766.571,257.001 771.302,259.503 776.033,262.004 
  780.763,264.506 785.494,270.76 790.225,273.261 794.956,275.763 799.686,278.264 804.417,278.264 809.148,280.766 813.879,284.518 818.609,289.522 823.34,294.525 
  828.071,298.277 832.802,302.029 837.532,304.531 842.263,304.531 846.994,307.033 851.725,310.785 856.455,317.039 861.186,319.54 865.917,325.794 870.648,330.797 
  875.378,334.55 880.109,340.804 884.84,345.807 889.571,350.81 894.301,354.562 899.032,360.816 903.763,364.569 908.494,368.321 913.224,372.073 917.955,378.327 
  922.686,378.327 927.417,388.334 932.147,392.086 936.878,395.838 941.609,404.594 946.34,408.346 951.07,409.597 955.801,414.6 960.532,420.854 965.262,422.105 
  969.993,429.61 974.724,433.362 979.455,435.864 984.185,444.619 988.916,449.622 993.647,450.873 998.378,455.876 1003.11,460.879 1007.84,463.381 1012.57,468.384 
  1017.3,472.136 1022.03,477.14 1026.76,478.39 1031.49,488.397 1036.22,493.4 1040.95,498.403 1045.69,500.904 1050.42,509.66 1055.15,512.162 1059.88,517.165 
  1064.61,523.419 1069.34,525.92 1074.07,532.174 1078.8,539.679 1083.53,543.431 1088.26,554.688 1092.99,560.942 1097.72,560.942 1102.45,562.193 1107.18,564.695 
  1111.92,570.949 1116.65,577.202 1121.38,578.453 1126.11,582.206 1130.84,588.46 1135.57,594.714 1140.3,598.466 1145.03,605.971 1149.76,615.977 1154.49,618.478 
  1159.22,622.231 1163.95,629.736 1168.68,635.989 1173.42,644.745 1178.15,647.247 1182.88,650.999 1187.61,657.253 1192.34,663.507 1197.07,666.008 1201.8,667.259 
  1206.53,673.513 1211.26,674.764 1215.99,676.015 1220.72,681.018 1225.45,684.77 1230.18,689.773 1234.91,693.526 1239.65,694.776 1244.38,697.278 1249.11,702.281 
  1253.84,703.532 1258.57,708.535 1263.3,712.287 1268.03,716.04 1272.76,719.792 1277.49,719.792 1282.22,722.294 1286.95,726.046 1291.68,731.049 1296.41,733.551 
  1301.15,739.805 1305.88,744.808 1310.61,748.56 1315.34,749.811 1320.07,752.313 1324.8,757.316 1329.53,759.817 1334.26,762.319 1338.99,769.824 1343.72,772.325 
  1348.45,779.83 1353.18,782.332 1357.91,787.335 1362.65,789.836 1367.38,791.087 1372.11,796.09 1376.84,797.341 1381.57,802.344 1386.3,803.595 1391.03,803.595 
  1395.76,804.846 1400.49,808.598 1405.22,811.1 1409.95,812.35 1414.68,814.852 1419.41,818.604 1424.14,821.106 1428.88,826.109 1433.61,827.36 1438.34,828.611 
  1443.07,828.611 1447.8,831.112 1452.53,831.112 1457.26,836.115 1461.99,839.868 1466.72,841.119 1471.45,843.62 1476.18,847.372 1480.91,849.874 1485.64,852.376 
  1490.38,853.626 1495.11,854.877 1499.84,862.382 1504.57,866.134 1509.3,867.385 1514.03,869.887 1518.76,871.137 1523.49,874.89 1528.22,874.89 1532.95,874.89 
  1537.68,876.141 1542.41,876.141 1547.14,876.141 1551.87,878.642 1556.61,878.642 1561.34,879.893 1566.07,887.398 1570.8,889.899 1575.53,894.902 1580.26,897.404 
  1584.99,898.655 1589.72,899.906 1594.45,901.156 1599.18,901.156 1603.91,902.407 1608.64,903.658 1613.37,903.658 1618.11,906.159 1622.84,906.159 1627.57,909.912 
  1632.3,909.912 1637.03,909.912 1641.76,911.163 1646.49,912.413 1651.22,912.413 1655.95,914.915 1660.68,914.915 1665.41,917.417 1670.14,919.918 1674.87,919.918 
  1679.61,919.918 1684.34,919.918 1689.07,924.921 1693.8,926.172 1698.53,928.674 1703.26,931.175 1707.99,932.426 1712.72,933.677 1717.45,936.178 1722.18,936.178 
  1726.91,938.68 1731.64,939.931 1736.37,941.181 1741.1,941.181 1745.84,942.432 1750.57,943.683 1755.3,944.934 1760.03,947.435 1764.76,948.686 1769.49,951.188 
  1774.22,951.188 1778.95,952.439 1783.68,953.689 1788.41,954.94 1793.14,957.442 1797.87,963.696 1802.6,963.696 1807.34,966.197 1812.07,967.448 1816.8,967.448 
  1821.53,967.448 1826.26,967.448 1830.99,967.448 1835.72,968.699 1840.45,968.699 1845.18,968.699 1849.91,968.699 1854.64,968.699 1859.37,968.699 1864.1,969.95 
  1868.83,969.95 1873.57,971.2 1878.3,972.451 1883.03,972.451 1887.76,972.451 1892.49,973.702 1897.22,973.702 1901.95,973.702 1906.68,973.702 1911.41,974.953 
  1916.14,974.953 1920.87,974.953 1925.6,974.953 1930.33,974.953 1935.07,974.953 1939.8,974.953 1944.53,976.204 1949.26,976.204 1953.99,976.204 1958.72,978.705 
  1963.45,978.705 1968.18,979.956 1972.91,979.956 1977.64,979.956 1982.37,979.956 1987.1,982.457 1991.83,982.457 1996.56,982.457 2001.3,983.708 2006.03,983.708 
  2010.76,986.21 2015.49,986.21 2020.22,986.21 2024.95,986.21 2029.68,986.21 2034.41,986.21 2039.14,986.21 2043.87,987.461 2048.6,987.461 2053.33,987.461 
  2058.06,987.461 2062.8,987.461 2067.53,987.461 2072.26,987.461 2076.99,987.461 2081.72,988.711 2086.45,988.711 2091.18,989.962 2095.91,989.962 2100.64,989.962 
  2105.37,991.213 2110.1,991.213 2114.83,991.213 2119.56,991.213 2124.3,991.213 2129.03,991.213 2133.76,992.464 2138.49,992.464 2143.22,992.464 2147.95,992.464 
  2152.68,992.464 2157.41,992.464 2162.14,992.464 2166.87,992.464 2171.6,992.464 2176.33,992.464 2181.06,992.464 2185.79,993.715 2190.53,993.715 2195.26,993.715 
  2199.99,993.715 
  "/>
<polyline clip-path="url(#clip862)" style="stroke:#e26f46; stroke-width:4; stroke-opacity:1; fill:none" points="
  307.689,1310.16 312.42,1308.91 317.15,1308.91 321.881,1308.91 326.612,1307.66 331.343,1306.41 336.073,1303.91 340.804,1305.16 345.535,1305.16 350.266,1303.91 
  354.996,1303.91 359.727,1305.16 364.458,1305.16 369.189,1305.16 373.919,1305.16 378.65,1305.16 383.381,1305.16 388.112,1307.66 392.842,1308.91 397.573,1310.16 
  402.304,1308.91 407.035,1305.16 411.765,1302.66 416.496,1302.66 421.227,1298.91 425.958,1298.91 430.688,1297.66 435.419,1293.9 440.15,1293.9 444.881,1292.65 
  449.611,1291.4 454.342,1292.65 459.073,1292.65 463.804,1293.9 468.534,1292.65 473.265,1293.9 477.996,1295.15 482.726,1296.4 487.457,1297.66 492.188,1296.4 
  496.919,1296.4 501.649,1295.15 506.38,1295.15 511.111,1295.15 515.842,1295.15 520.572,1295.15 525.303,1295.15 530.034,1293.9 534.765,1292.65 539.495,1290.15 
  544.226,1287.65 548.957,1287.65 553.688,1285.15 558.418,1282.65 563.149,1282.65 567.88,1283.9 572.611,1282.65 577.341,1281.4 582.072,1278.89 586.803,1277.64 
  591.534,1277.64 596.264,1277.64 600.995,1276.39 605.726,1273.89 610.457,1273.89 615.187,1273.89 619.918,1272.64 624.649,1275.14 629.38,1272.64 634.11,1270.14 
  638.841,1270.14 643.572,1266.39 648.303,1267.64 653.033,1263.88 657.764,1263.88 662.495,1263.88 667.226,1257.63 671.956,1258.88 676.687,1258.88 681.418,1258.88 
  686.149,1255.13 690.879,1252.63 695.61,1252.63 700.341,1247.62 705.072,1246.37 709.802,1243.87 714.533,1240.12 719.264,1241.37 723.994,1237.62 728.725,1236.37 
  733.456,1238.87 738.187,1237.62 742.917,1235.12 747.648,1235.12 752.379,1232.61 757.11,1235.12 761.84,1237.62 766.571,1240.12 771.302,1242.62 776.033,1241.37 
  780.763,1241.37 785.494,1237.62 790.225,1235.12 794.956,1235.12 799.686,1232.61 804.417,1236.37 809.148,1236.37 813.879,1232.61 818.609,1230.11 823.34,1230.11 
  828.071,1228.86 832.802,1226.36 837.532,1233.87 842.263,1236.37 846.994,1237.62 851.725,1238.87 856.455,1235.12 861.186,1235.12 865.917,1231.36 870.648,1227.61 
  875.378,1225.11 880.109,1222.61 884.84,1218.86 889.571,1216.35 894.301,1213.85 899.032,1210.1 903.763,1208.85 908.494,1205.1 913.224,1203.85 917.955,1203.85 
  922.686,1205.1 927.417,1200.09 932.147,1196.34 936.878,1196.34 941.609,1193.84 946.34,1195.09 951.07,1196.34 955.801,1198.84 960.532,1197.59 965.262,1197.59 
  969.993,1191.34 974.724,1192.59 979.455,1190.09 984.185,1188.84 988.916,1185.08 993.647,1187.59 998.378,1183.83 1003.11,1182.58 1007.84,1182.58 1012.57,1180.08 
  1017.3,1180.08 1022.03,1178.83 1026.76,1178.83 1031.49,1172.58 1036.22,1168.82 1040.95,1165.07 1045.69,1166.32 1050.42,1161.32 1055.15,1158.82 1059.88,1158.82 
  1064.61,1153.82 1069.34,1156.32 1074.07,1151.31 1078.8,1150.06 1083.53,1148.81 1088.26,1141.31 1092.99,1138.81 1097.72,1146.31 1102.45,1150.06 1107.18,1151.31 
  1111.92,1148.81 1116.65,1148.81 1121.38,1155.07 1126.11,1153.82 1130.84,1155.07 1135.57,1151.31 1140.3,1148.81 1145.03,1146.31 1149.76,1140.06 1154.49,1142.56 
  1159.22,1145.06 1163.95,1137.56 1168.68,1135.05 1173.42,1133.8 1178.15,1137.56 1182.88,1136.3 1187.61,1132.55 1192.34,1133.8 1197.07,1140.06 1201.8,1141.31 
  1206.53,1140.06 1211.26,1145.06 1215.99,1148.81 1220.72,1146.31 1225.45,1147.56 1230.18,1148.81 1234.91,1147.56 1239.65,1151.31 1244.38,1152.56 1249.11,1153.82 
  1253.84,1155.07 1258.57,1153.82 1263.3,1153.82 1268.03,1155.07 1272.76,1156.32 1277.49,1161.32 1282.22,1163.82 1286.95,1161.32 1291.68,1156.32 1296.41,1156.32 
  1301.15,1152.56 1305.88,1153.82 1310.61,1152.56 1315.34,1153.82 1320.07,1156.32 1324.8,1155.07 1329.53,1160.07 1334.26,1161.32 1338.99,1158.82 1343.72,1160.07 
  1348.45,1153.82 1353.18,1156.32 1357.91,1153.82 1362.65,1152.56 1367.38,1153.82 1372.11,1152.56 1376.84,1156.32 1381.57,1152.56 1386.3,1160.07 1391.03,1163.82 
  1395.76,1170.08 1400.49,1172.58 1405.22,1172.58 1409.95,1175.08 1414.68,1175.08 1419.41,1176.33 1424.14,1177.58 1428.88,1177.58 1433.61,1178.83 1438.34,1178.83 
  1443.07,1182.58 1447.8,1183.83 1452.53,1185.08 1457.26,1183.83 1461.99,1185.08 1466.72,1183.83 1471.45,1185.08 1476.18,1185.08 1480.91,1185.08 1485.64,1186.34 
  1490.38,1187.59 1495.11,1190.09 1499.84,1188.84 1504.57,1187.59 1509.3,1190.09 1514.03,1192.59 1518.76,1195.09 1523.49,1196.34 1528.22,1198.84 1532.95,1202.6 
  1537.68,1206.35 1542.41,1207.6 1547.14,1210.1 1551.87,1210.1 1556.61,1211.35 1561.34,1211.35 1566.07,1207.6 1570.8,1207.6 1575.53,1203.85 1580.26,1206.35 
  1584.99,1205.1 1589.72,1206.35 1594.45,1208.85 1599.18,1212.6 1603.91,1215.1 1608.64,1216.35 1613.37,1221.36 1618.11,1221.36 1622.84,1223.86 1627.57,1223.86 
  1632.3,1225.11 1637.03,1228.86 1641.76,1227.61 1646.49,1227.61 1651.22,1230.11 1655.95,1231.36 1660.68,1237.62 1665.41,1236.37 1670.14,1235.12 1674.87,1237.62 
  1679.61,1240.12 1684.34,1241.37 1689.07,1237.62 1693.8,1240.12 1698.53,1240.12 1703.26,1240.12 1707.99,1238.87 1712.72,1241.37 1717.45,1241.37 1722.18,1242.62 
  1726.91,1242.62 1731.64,1243.87 1736.37,1246.37 1741.1,1247.62 1745.84,1247.62 1750.57,1248.88 1755.3,1247.62 1760.03,1247.62 1764.76,1248.88 1769.49,1250.13 
  1774.22,1255.13 1778.95,1255.13 1783.68,1256.38 1788.41,1256.38 1793.14,1255.13 1797.87,1248.88 1802.6,1251.38 1807.34,1250.13 1812.07,1250.13 1816.8,1252.63 
  1821.53,1253.88 1826.26,1257.63 1830.99,1260.13 1835.72,1258.88 1840.45,1261.38 1845.18,1266.39 1849.91,1268.89 1854.64,1270.14 1859.37,1272.64 1864.1,1271.39 
  1868.83,1272.64 1873.57,1271.39 1878.3,1271.39 1883.03,1271.39 1887.76,1273.89 1892.49,1275.14 1897.22,1276.39 1901.95,1277.64 1906.68,1278.89 1911.41,1277.64 
  1916.14,1277.64 1920.87,1278.89 1925.6,1278.89 1930.33,1278.89 1935.07,1278.89 1939.8,1278.89 1944.53,1280.14 1949.26,1280.14 1953.99,1281.4 1958.72,1282.65 
  1963.45,1282.65 1968.18,1281.4 1972.91,1281.4 1977.64,1281.4 1982.37,1283.9 1987.1,1283.9 1991.83,1285.15 1996.56,1285.15 2001.3,1286.4 2006.03,1287.65 
  2010.76,1285.15 2015.49,1286.4 2020.22,1286.4 2024.95,1291.4 2029.68,1291.4 2034.41,1291.4 2039.14,1292.65 2043.87,1291.4 2048.6,1292.65 2053.33,1293.9 
  2058.06,1293.9 2062.8,1293.9 2067.53,1293.9 2072.26,1295.15 2076.99,1296.4 2081.72,1295.15 2086.45,1296.4 2091.18,1295.15 2095.91,1295.15 2100.64,1295.15 
  2105.37,1296.4 2110.1,1297.66 2114.83,1297.66 2119.56,1298.91 2124.3,1301.41 2129.03,1302.66 2133.76,1302.66 2138.49,1305.16 2143.22,1306.41 2147.95,1307.66 
  2152.68,1307.66 2157.41,1308.91 2162.14,1310.16 2166.87,1310.16 2171.6,1310.16 2176.33,1310.16 2181.06,1310.16 2185.79,1308.91 2190.53,1308.91 2195.26,1308.91 
  2199.99,1310.16 
  "/>
<polyline clip-path="url(#clip862)" style="stroke:#3da44d; stroke-width:4; stroke-opacity:1; fill:none" points="
  307.689,1322.67 312.42,1322.67 317.15,1322.67 321.881,1322.67 326.612,1322.67 331.343,1322.67 336.073,1322.67 340.804,1321.42 345.535,1321.42 350.266,1320.17 
  354.996,1318.92 359.727,1317.67 364.458,1317.67 369.189,1316.42 373.919,1316.42 378.65,1315.17 383.381,1315.17 388.112,1312.67 392.842,1311.41 397.573,1310.16 
  402.304,1310.16 407.035,1310.16 411.765,1310.16 416.496,1310.16 421.227,1310.16 425.958,1310.16 430.688,1310.16 435.419,1310.16 440.15,1310.16 444.881,1310.16 
  449.611,1310.16 454.342,1308.91 459.073,1307.66 463.804,1306.41 468.534,1306.41 473.265,1305.16 477.996,1303.91 482.726,1302.66 487.457,1300.16 492.188,1300.16 
  496.919,1300.16 501.649,1300.16 506.38,1300.16 511.111,1298.91 515.842,1297.66 520.572,1296.4 525.303,1295.15 530.034,1295.15 534.765,1295.15 539.495,1293.9 
  544.226,1293.9 548.957,1292.65 553.688,1292.65 558.418,1291.4 563.149,1291.4 567.88,1290.15 572.611,1290.15 577.341,1290.15 582.072,1288.9 586.803,1288.9 
  591.534,1286.4 596.264,1285.15 600.995,1285.15 605.726,1282.65 610.457,1280.14 615.187,1275.14 619.918,1273.89 624.649,1271.39 629.38,1270.14 634.11,1268.89 
  638.841,1266.39 643.572,1266.39 648.303,1265.14 653.033,1265.14 657.764,1263.88 662.495,1258.88 667.226,1258.88 671.956,1256.38 676.687,1255.13 681.418,1255.13 
  686.149,1253.88 690.879,1253.88 695.61,1252.63 700.341,1252.63 705.072,1248.88 709.802,1246.37 714.533,1246.37 719.264,1242.62 723.994,1242.62 728.725,1240.12 
  733.456,1236.37 738.187,1233.87 742.917,1232.61 747.648,1230.11 752.379,1228.86 757.11,1226.36 761.84,1222.61 766.571,1220.11 771.302,1215.1 776.033,1213.85 
  780.763,1211.35 785.494,1208.85 790.225,1208.85 794.956,1206.35 799.686,1206.35 804.417,1202.6 809.148,1200.09 813.879,1200.09 818.609,1197.59 823.34,1192.59 
  828.071,1190.09 832.802,1188.84 837.532,1178.83 842.263,1176.33 846.994,1172.58 851.725,1167.57 856.455,1165.07 861.186,1162.57 865.917,1160.07 870.648,1158.82 
  875.378,1157.57 880.109,1153.82 884.84,1152.56 889.571,1150.06 894.301,1148.81 899.032,1146.31 903.763,1143.81 908.494,1143.81 913.224,1141.31 917.955,1135.05 
  922.686,1133.8 927.417,1128.8 932.147,1128.8 936.878,1125.05 941.609,1118.79 946.34,1113.79 951.07,1111.29 955.801,1103.78 960.532,1098.78 965.262,1097.53 
  969.993,1096.28 974.724,1091.28 979.455,1091.28 984.185,1083.77 988.916,1082.52 993.647,1078.77 998.378,1077.52 1003.11,1073.76 1007.84,1071.26 1012.57,1068.76 
  1017.3,1065.01 1022.03,1061.26 1026.76,1060.01 1031.49,1056.25 1036.22,1055 1040.95,1053.75 1045.69,1050 1050.42,1046.25 1055.15,1046.25 1059.88,1041.24 
  1064.61,1039.99 1069.34,1034.99 1074.07,1033.74 1078.8,1027.49 1083.53,1024.98 1088.26,1021.23 1092.99,1017.48 1097.72,1009.97 1102.45,1004.97 1107.18,1001.22 
  1111.92,997.467 1116.65,991.213 1121.38,983.708 1126.11,981.207 1130.84,973.702 1135.57,971.2 1140.3,969.95 1145.03,964.946 1149.76,961.194 1154.49,956.191 
  1159.22,949.937 1163.95,949.937 1168.68,946.185 1173.42,938.68 1178.15,932.426 1182.88,929.924 1187.61,927.423 1192.34,919.918 1197.07,911.163 1201.8,908.661 
  1206.53,903.658 1211.26,897.404 1215.99,892.401 1220.72,889.899 1225.45,884.896 1230.18,878.642 1234.91,876.141 1239.65,871.137 1244.38,867.385 1249.11,861.131 
  1253.84,858.63 1258.57,854.877 1263.3,851.125 1268.03,846.122 1272.76,841.119 1277.49,836.115 1282.22,831.112 1286.95,829.861 1291.68,829.861 1296.41,827.36 
  1301.15,824.858 1305.88,818.604 1310.61,816.103 1315.34,813.601 1320.07,808.598 1324.8,804.846 1329.53,797.341 1334.26,793.589 1338.99,788.585 1343.72,784.833 
  1348.45,783.582 1353.18,778.579 1357.91,776.078 1362.65,774.827 1367.38,772.325 1372.11,768.573 1376.84,763.57 1381.57,762.319 1386.3,753.563 1391.03,749.811 
  1395.76,742.306 1400.49,736.052 1405.22,733.551 1409.95,729.798 1414.68,727.297 1419.41,722.294 1424.14,718.541 1428.88,713.538 1433.61,711.037 1438.34,709.786 
  1443.07,706.034 1447.8,702.281 1452.53,701.03 1457.26,697.278 1461.99,692.275 1466.72,692.275 1471.45,688.523 1476.18,684.77 1480.91,682.269 1485.64,678.516 
  1490.38,676.015 1495.11,672.262 1499.84,666.008 1504.57,663.507 1509.3,659.754 1514.03,654.751 1518.76,650.999 1523.49,645.996 1528.22,643.494 1532.95,639.742 
  1537.68,634.739 1542.41,633.488 1547.14,630.986 1551.87,628.485 1556.61,627.234 1561.34,625.983 1566.07,622.231 1570.8,619.729 1575.53,618.478 1580.26,613.475 
  1584.99,613.475 1589.72,610.974 1594.45,607.221 1599.18,603.469 1603.91,599.717 1608.64,597.215 1613.37,592.212 1618.11,589.71 1622.84,587.209 1627.57,583.456 
  1632.3,582.206 1637.03,578.453 1641.76,578.453 1646.49,577.202 1651.22,574.701 1655.95,570.949 1660.68,564.695 1665.41,563.444 1670.14,562.193 1674.87,559.691 
  1679.61,557.19 1684.34,555.939 1689.07,554.688 1693.8,550.936 1698.53,548.434 1703.26,545.933 1707.99,545.933 1712.72,542.18 1717.45,539.679 1722.18,538.428 
  1726.91,535.927 1731.64,533.425 1736.37,529.673 1741.1,528.422 1745.84,527.171 1750.57,524.669 1755.3,524.669 1760.03,522.168 1764.76,519.666 1769.49,515.914 
  1774.22,510.911 1778.95,509.66 1783.68,507.158 1788.41,505.908 1793.14,504.657 1797.87,504.657 1802.6,502.155 1807.34,500.904 1812.07,499.654 1816.8,497.152 
  1821.53,495.901 1826.26,492.149 1830.99,489.647 1835.72,489.647 1840.45,487.146 1845.18,482.143 1849.91,479.641 1854.64,478.39 1859.37,475.889 1864.1,475.889 
  1868.83,474.638 1873.57,474.638 1878.3,473.387 1883.03,473.387 1887.76,470.886 1892.49,468.384 1897.22,467.133 1901.95,465.882 1906.68,464.632 1911.41,464.632 
  1916.14,464.632 1920.87,463.381 1925.6,463.381 1930.33,463.381 1935.07,463.381 1939.8,463.381 1944.53,460.879 1949.26,460.879 1953.99,459.629 1958.72,455.876 
  1963.45,455.876 1968.18,455.876 1972.91,455.876 1977.64,455.876 1982.37,453.375 1987.1,450.873 1991.83,449.622 1996.56,449.622 2001.3,447.121 2006.03,445.87 
  2010.76,445.87 2015.49,444.619 2020.22,444.619 2024.95,439.616 2029.68,439.616 2034.41,439.616 2039.14,438.365 2043.87,438.365 2048.6,437.114 2053.33,435.864 
  2058.06,435.864 2062.8,435.864 2067.53,435.864 2072.26,434.613 2076.99,433.362 2081.72,433.362 2086.45,432.111 2091.18,432.111 2095.91,432.111 2100.64,432.111 
  2105.37,429.61 2110.1,428.359 2114.83,428.359 2119.56,427.108 2124.3,424.606 2129.03,423.356 2133.76,422.105 2138.49,419.603 2143.22,418.353 2147.95,417.102 
  2152.68,417.102 2157.41,415.851 2162.14,414.6 2166.87,414.6 2171.6,414.6 2176.33,414.6 2181.06,414.6 2185.79,414.6 2190.53,414.6 2195.26,414.6 
  2199.99,413.349 
  "/>
<path clip-path="url(#clip860)" d="
M1930.31 366.924 L2187.64 366.924 L2187.64 125.004 L1930.31 125.004  Z
  " fill="#ffffff" fill-rule="evenodd" fill-opacity="1"/>
<polyline clip-path="url(#clip860)" style="stroke:#000000; stroke-width:4; stroke-opacity:1; fill:none" points="
  1930.31,366.924 2187.64,366.924 2187.64,125.004 1930.31,125.004 1930.31,366.924 
  "/>
<polyline clip-path="url(#clip860)" style="stroke:#009af9; stroke-width:4; stroke-opacity:1; fill:none" points="
  1953.35,185.484 2091.59,185.484 
  "/>
<path clip-path="url(#clip860)" d="M 0 0 M2136.88 169.338 L2136.88 173.899 Q2134.22 172.625 2131.86 172 Q2129.5 171.375 2127.3 171.375 Q2123.48 171.375 2121.39 172.857 Q2119.33 174.338 2119.33 177.07 Q2119.33 179.361 2120.7 180.542 Q2122.09 181.699 2125.93 182.417 L2128.76 182.996 Q2133.99 183.991 2136.46 186.514 Q2138.96 189.014 2138.96 193.227 Q2138.96 198.25 2135.58 200.843 Q2132.23 203.435 2125.72 203.435 Q2123.27 203.435 2120.49 202.88 Q2117.74 202.324 2114.77 201.236 L2114.77 196.422 Q2117.62 198.019 2120.35 198.829 Q2123.08 199.639 2125.72 199.639 Q2129.73 199.639 2131.9 198.065 Q2134.08 196.491 2134.08 193.574 Q2134.08 191.028 2132.51 189.593 Q2130.95 188.158 2127.39 187.44 L2124.54 186.885 Q2119.31 185.843 2116.97 183.621 Q2114.63 181.398 2114.63 177.44 Q2114.63 172.857 2117.85 170.218 Q2121.09 167.579 2126.76 167.579 Q2129.19 167.579 2131.72 168.019 Q2134.24 168.459 2136.88 169.338 Z" fill="#000000" fill-rule="evenodd" fill-opacity="1" /><polyline clip-path="url(#clip860)" style="stroke:#e26f46; stroke-width:4; stroke-opacity:1; fill:none" points="
  1953.35,245.964 2091.59,245.964 
  "/>
<path clip-path="url(#clip860)" d="M 0 0 M2114.63 228.684 L2119.31 228.684 L2119.31 263.244 L2114.63 263.244 L2114.63 228.684 Z" fill="#000000" fill-rule="evenodd" fill-opacity="1" /><polyline clip-path="url(#clip860)" style="stroke:#3da44d; stroke-width:4; stroke-opacity:1; fill:none" points="
  1953.35,306.444 2091.59,306.444 
  "/>
<path clip-path="url(#clip860)" d="M 0 0 M2131.02 307.52 Q2132.53 308.03 2133.94 309.696 Q2135.38 311.363 2136.81 314.28 L2141.56 323.724 L2136.53 323.724 L2132.11 314.858 Q2130.4 311.386 2128.78 310.252 Q2127.18 309.118 2124.4 309.118 L2119.31 309.118 L2119.31 323.724 L2114.63 323.724 L2114.63 289.164 L2125.19 289.164 Q2131.12 289.164 2134.03 291.641 Q2136.95 294.118 2136.95 299.118 Q2136.95 302.382 2135.42 304.534 Q2133.92 306.687 2131.02 307.52 M2119.31 293.007 L2119.31 305.275 L2125.19 305.275 Q2128.57 305.275 2130.28 303.724 Q2132.02 302.15 2132.02 299.118 Q2132.02 296.085 2130.28 294.558 Q2128.57 293.007 2125.19 293.007 L2119.31 293.007 Z" fill="#000000" fill-rule="evenodd" fill-opacity="1" /></svg>
