<?xml version="1.0" encoding="UTF-8" standalone="no"?>
<!DOCTYPE svg PUBLIC "-//W3C//DTD SVG 1.1//EN"
 "http://www.w3.org/Graphics/SVG/1.1/DTD/svg11.dtd">
<!-- Generated by graphviz version 2.46.1 (0)
 -->
<!-- Title: G Pages: 1 -->
<svg width="256pt" height="64pt"
 viewBox="0.00 0.00 256.29 63.90" xmlns="http://www.w3.org/2000/svg" xmlns:xlink="http://www.w3.org/1999/xlink">
<g id="graph0" class="graph" transform="scale(1 1) rotate(0) translate(4 59.9)">
<title>G</title>
<polygon fill="white" stroke="transparent" points="-4,4 -4,-59.9 252.29,-59.9 252.29,4 -4,4"/>
<!-- S_S -->
<g id="node1" class="node">
<title>S_S</title>
<ellipse fill="#6c9ac3" stroke="#6c9ac3" cx="27.95" cy="-27.95" rx="27.9" ry="27.9"/>
<text text-anchor="middle" x="27.95" y="-24.25" font-family="Times,serif" font-size="14.00">S_S</text>
</g>
<!-- T_inf -->
<g id="node3" class="node">
<title>T_inf</title>
<polygon fill="#e28f41" stroke="#e28f41" points="152.9,-53.45 101.9,-53.45 101.9,-2.45 152.9,-2.45 152.9,-53.45"/>
<text text-anchor="middle" x="127.4" y="-24.25" font-family="Times,serif" font-size="14.00">T_inf</text>
</g>
<!-- S_S&#45;&gt;T_inf -->
<g id="edge2" class="edge">
<title>S_S&#45;&gt;T_inf</title>
<path fill="none" stroke="black" d="M56.09,-27.95C67.04,-27.95 79.82,-27.95 91.45,-27.95"/>
<polygon fill="black" stroke="black" points="91.73,-31.45 101.73,-27.95 91.73,-24.45 91.73,-31.45"/>
<text text-anchor="middle" x="78.9" y="-31.75" font-family="Times,serif" font-size="14.00">1</text>
</g>
<!-- S_I -->
<g id="node2" class="node">
<title>S_I</title>
<ellipse fill="#6c9ac3" stroke="#6c9ac3" cx="223.59" cy="-27.95" rx="24.9" ry="24.9"/>
<text text-anchor="middle" x="223.59" y="-24.25" font-family="Times,serif" font-size="14.00">S_I</text>
</g>
<!-- S_I&#45;&gt;T_inf -->
<g id="edge1" class="edge">
<title>S_I&#45;&gt;T_inf</title>
<path fill="none" stroke="black" d="M201.5,-16.87C195.06,-14.03 187.84,-11.38 180.9,-9.95 174.97,-8.72 168.8,-9.18 162.85,-10.57"/>
<polygon fill="black" stroke="black" points="161.61,-7.29 153.14,-13.66 163.73,-13.96 161.61,-7.29"/>
<text text-anchor="middle" x="175.9" y="-13.75" font-family="Times,serif" font-size="14.00">1</text>
</g>
<!-- T_inf&#45;&gt;S_I -->
<g id="edge3" class="edge">
<title>T_inf&#45;&gt;S_I</title>
<path fill="none" stroke="black" d="M153.14,-27.95C163.91,-27.95 176.71,-27.95 188.36,-27.95"/>
<polygon fill="black" stroke="black" points="188.66,-31.45 198.66,-27.95 188.66,-24.45 188.66,-31.45"/>
<text text-anchor="middle" x="175.9" y="-31.75" font-family="Times,serif" font-size="14.00">2</text>
</g>
</g>
</svg>
