<?xml version="1.0" encoding="UTF-8" standalone="no"?>
<!DOCTYPE svg PUBLIC "-//W3C//DTD SVG 1.1//EN"
 "http://www.w3.org/Graphics/SVG/1.1/DTD/svg11.dtd">
<!-- Generated by graphviz version 2.46.1 (0)
 -->
<!-- Title: G Pages: 1 -->
<svg width="460pt" height="65pt"
 viewBox="0.00 0.00 460.49 65.19" xmlns="http://www.w3.org/2000/svg" xmlns:xlink="http://www.w3.org/1999/xlink">
<g id="graph0" class="graph" transform="scale(1 1) rotate(0) translate(4 61.19)">
<title>G</title>
<polygon fill="white" stroke="transparent" points="-4,4 -4,-61.19 456.49,-61.19 456.49,4 -4,4"/>
<!-- S_S -->
<g id="node1" class="node">
<title>S_S</title>
<ellipse fill="#6c9ac3" stroke="#6c9ac3" cx="27.95" cy="-28.6" rx="27.9" ry="27.9"/>
<text text-anchor="middle" x="27.95" y="-24.9" font-family="Times,serif" font-size="14.00">S_S</text>
</g>
<!-- T_inf -->
<g id="node4" class="node">
<title>T_inf</title>
<polygon fill="#e28f41" stroke="#e28f41" points="152.9,-54.1 101.9,-54.1 101.9,-3.1 152.9,-3.1 152.9,-54.1"/>
<text text-anchor="middle" x="127.4" y="-24.9" font-family="Times,serif" font-size="14.00">T_inf</text>
</g>
<!-- S_S&#45;&gt;T_inf -->
<g id="edge2" class="edge">
<title>S_S&#45;&gt;T_inf</title>
<path fill="none" stroke="black" d="M56.09,-28.6C67.04,-28.6 79.82,-28.6 91.45,-28.6"/>
<polygon fill="black" stroke="black" points="91.73,-32.1 101.73,-28.6 91.73,-25.1 91.73,-32.1"/>
<text text-anchor="middle" x="78.9" y="-32.4" font-family="Times,serif" font-size="14.00">1</text>
</g>
<!-- S_I -->
<g id="node2" class="node">
<title>S_I</title>
<ellipse fill="#6c9ac3" stroke="#6c9ac3" cx="223.59" cy="-28.6" rx="24.9" ry="24.9"/>
<text text-anchor="middle" x="223.59" y="-24.9" font-family="Times,serif" font-size="14.00">S_I</text>
</g>
<!-- S_I&#45;&gt;T_inf -->
<g id="edge1" class="edge">
<title>S_I&#45;&gt;T_inf</title>
<path fill="none" stroke="black" d="M201.5,-17.52C195.06,-14.68 187.84,-12.03 180.9,-10.6 174.97,-9.37 168.8,-9.83 162.85,-11.22"/>
<polygon fill="black" stroke="black" points="161.61,-7.94 153.14,-14.31 163.73,-14.61 161.61,-7.94"/>
<text text-anchor="middle" x="175.9" y="-14.4" font-family="Times,serif" font-size="14.00">1</text>
</g>
<!-- T_rec -->
<g id="node5" class="node">
<title>T_rec</title>
<polygon fill="#e28f41" stroke="#e28f41" points="349.29,-56.1 294.29,-56.1 294.29,-1.1 349.29,-1.1 349.29,-56.1"/>
<text text-anchor="middle" x="321.79" y="-24.9" font-family="Times,serif" font-size="14.00">T_rec</text>
</g>
<!-- S_I&#45;&gt;T_rec -->
<g id="edge4" class="edge">
<title>S_I&#45;&gt;T_rec</title>
<path fill="none" stroke="black" d="M248.37,-28.6C259.13,-28.6 272.09,-28.6 284.06,-28.6"/>
<polygon fill="black" stroke="black" points="284.24,-32.1 294.24,-28.6 284.24,-25.1 284.24,-32.1"/>
<text text-anchor="middle" x="271.29" y="-32.4" font-family="Times,serif" font-size="14.00">1</text>
</g>
<!-- S_R -->
<g id="node3" class="node">
<title>S_R</title>
<ellipse fill="#6c9ac3" stroke="#6c9ac3" cx="423.89" cy="-28.6" rx="28.7" ry="28.7"/>
<text text-anchor="middle" x="423.89" y="-24.9" font-family="Times,serif" font-size="14.00">S_R</text>
</g>
<!-- T_inf&#45;&gt;S_I -->
<g id="edge3" class="edge">
<title>T_inf&#45;&gt;S_I</title>
<path fill="none" stroke="black" d="M153.14,-28.6C163.91,-28.6 176.71,-28.6 188.36,-28.6"/>
<polygon fill="black" stroke="black" points="188.66,-32.1 198.66,-28.6 188.66,-25.1 188.66,-32.1"/>
<text text-anchor="middle" x="175.9" y="-32.4" font-family="Times,serif" font-size="14.00">2</text>
</g>
<!-- T_rec&#45;&gt;S_R -->
<g id="edge5" class="edge">
<title>T_rec&#45;&gt;S_R</title>
<path fill="none" stroke="black" d="M349.35,-28.6C360.28,-28.6 373.15,-28.6 385.03,-28.6"/>
<polygon fill="black" stroke="black" points="385.15,-32.1 395.15,-28.6 385.15,-25.1 385.15,-32.1"/>
<text text-anchor="middle" x="372.29" y="-32.4" font-family="Times,serif" font-size="14.00">1</text>
</g>
</g>
</svg>
