<?xml version="1.0" encoding="UTF-8" standalone="no"?>
<!DOCTYPE svg PUBLIC "-//W3C//DTD SVG 1.1//EN"
 "http://www.w3.org/Graphics/SVG/1.1/DTD/svg11.dtd">
<!-- Generated by graphviz version 2.46.1 (0)
 -->
<!-- Title: G Pages: 1 -->
<svg width="276pt" height="198pt"
 viewBox="0.00 0.00 275.96 197.57" xmlns="http://www.w3.org/2000/svg" xmlns:xlink="http://www.w3.org/1999/xlink">
<g id="graph0" class="graph" transform="scale(1 1) rotate(0) translate(4 193.57)">
<title>G</title>
<polygon fill="white" stroke="transparent" points="-4,4 -4,-193.57 271.96,-193.57 271.96,4 -4,4"/>
<!-- n1 -->
<g id="box1" class="node">
<title>n1</title>
<ellipse fill="none" stroke="black" cx="67.41" cy="-88.05" rx="36.49" ry="18"/>
<text text-anchor="middle" x="67.41" y="-84.35" font-family="Serif" font-size="14.00">infection</text>
</g>
<!-- n6 -->
<!-- junction -->
<g id="junction1" class="node">
<title>n6</title>
<ellipse fill="black" stroke="black" cx="32.51" cy="-44.8" rx="2.5" ry="2.5"/>
<text text-anchor="middle" x="27.01" y="-51.1" font-family="Serif" font-size="14.00">s</text>
</g>
<!-- n1&#45;&#45;n6 -->
<g id="edge1" class="edge">
<title>n1&#45;&#45;n6</title>
<path fill="none" stroke="black" d="M53.62,-70.96C46.3,-61.89 38.08,-51.71 34.43,-47.19"/>
</g>
<!-- n7 -->
<!-- junction -->
<g id="junction2" class="node">
<title>n7</title>
<ellipse fill="black" stroke="black" cx="100.38" cy="-136.7" rx="2.5" ry="2.5"/>
<text text-anchor="middle" x="95.88" y="-143" font-family="Serif" font-size="14.00">i</text>
</g>
<!-- n1&#45;&#45;n7 -->
<g id="edge3" class="edge">
<title>n1&#45;&#45;n7</title>
<path fill="none" stroke="black" d="M79.13,-105.34C86.53,-116.27 95.34,-129.26 98.84,-134.43"/>
</g>
<!-- n2 -->
<g id="box2" class="node">
<title>n2</title>
<ellipse fill="none" stroke="black" cx="159.11" cy="-139.55" rx="35.14" ry="18"/>
<text text-anchor="middle" x="159.11" y="-135.85" font-family="Serif" font-size="14.00">recovery</text>
</g>
<!-- n2&#45;&#45;n7 -->
<g id="edge4" class="edge">
<title>n2&#45;&#45;n7</title>
<path fill="none" stroke="black" d="M123.93,-137.85C115.14,-137.42 107.07,-137.03 103.05,-136.83"/>
</g>
<!-- n8 -->
<!-- junction -->
<g id="junction3" class="node">
<title>n8</title>
<ellipse fill="black" stroke="black" cx="214.34" cy="-146.01" rx="2.5" ry="2.5"/>
<text text-anchor="middle" x="208.84" y="-152.31" font-family="Serif" font-size="14.00">r</text>
</g>
<!-- n2&#45;&#45;n8 -->
<g id="edge6" class="edge">
<title>n2&#45;&#45;n8</title>
<path fill="none" stroke="black" d="M193.78,-143.61C201.41,-144.5 208.27,-145.3 211.81,-145.71"/>
</g>
<!-- n3 -->
<!-- n3&#45;&#45;n6 -->
<g id="edge2" class="edge">
<title>n3&#45;&#45;n6</title>
<path fill="none" stroke="black" d="M1.06,-1.27C4.71,-6.32 25.31,-34.84 31.03,-42.76"/>
</g>
<!-- n4 -->
<!-- n4&#45;&#45;n7 -->
<g id="edge5" class="edge">
<title>n4&#45;&#45;n7</title>
<path fill="none" stroke="black" d="M71.1,-188.48C73.92,-183.49 93.87,-148.22 99.12,-138.94"/>
</g>
<!-- n5 -->
<!-- n5&#45;&#45;n8 -->
<g id="edge7" class="edge">
<title>n5&#45;&#45;n8</title>
<path fill="none" stroke="black" d="M266.87,-158.8C261.85,-157.58 226.67,-149.01 216.87,-146.62"/>
</g>
</g>
</svg>
