<?xml version="1.0" encoding="UTF-8" standalone="no"?>
<!DOCTYPE svg PUBLIC "-//W3C//DTD SVG 1.1//EN"
 "http://www.w3.org/Graphics/SVG/1.1/DTD/svg11.dtd">
<!-- Generated by graphviz version 2.46.1 (0)
 -->
<!-- Title: G Pages: 1 -->
<svg width="262pt" height="65pt"
 viewBox="0.00 0.00 261.59 65.19" xmlns="http://www.w3.org/2000/svg" xmlns:xlink="http://www.w3.org/1999/xlink">
<g id="graph0" class="graph" transform="scale(1 1) rotate(0) translate(4 61.19)">
<title>G</title>
<polygon fill="white" stroke="transparent" points="-4,4 -4,-61.19 257.59,-61.19 257.59,4 -4,4"/>
<!-- S_I -->
<g id="node1" class="node">
<title>S_I</title>
<ellipse fill="#6c9ac3" stroke="#6c9ac3" cx="24.7" cy="-28.6" rx="24.9" ry="24.9"/>
<text text-anchor="middle" x="24.7" y="-24.9" font-family="Times,serif" font-size="14.00">S_I</text>
</g>
<!-- T_rec -->
<g id="node3" class="node">
<title>T_rec</title>
<polygon fill="#e28f41" stroke="#e28f41" points="150.4,-56.1 95.4,-56.1 95.4,-1.1 150.4,-1.1 150.4,-56.1"/>
<text text-anchor="middle" x="122.9" y="-24.9" font-family="Times,serif" font-size="14.00">T_rec</text>
</g>
<!-- S_I&#45;&gt;T_rec -->
<g id="edge1" class="edge">
<title>S_I&#45;&gt;T_rec</title>
<path fill="none" stroke="black" d="M49.48,-28.6C60.24,-28.6 73.2,-28.6 85.16,-28.6"/>
<polygon fill="black" stroke="black" points="85.34,-32.1 95.34,-28.6 85.34,-25.1 85.34,-32.1"/>
<text text-anchor="middle" x="72.4" y="-32.4" font-family="Times,serif" font-size="14.00">1</text>
</g>
<!-- S_R -->
<g id="node2" class="node">
<title>S_R</title>
<ellipse fill="#6c9ac3" stroke="#6c9ac3" cx="224.99" cy="-28.6" rx="28.7" ry="28.7"/>
<text text-anchor="middle" x="224.99" y="-24.9" font-family="Times,serif" font-size="14.00">S_R</text>
</g>
<!-- T_rec&#45;&gt;S_R -->
<g id="edge2" class="edge">
<title>T_rec&#45;&gt;S_R</title>
<path fill="none" stroke="black" d="M150.46,-28.6C161.39,-28.6 174.25,-28.6 186.14,-28.6"/>
<polygon fill="black" stroke="black" points="186.26,-32.1 196.26,-28.6 186.26,-25.1 186.26,-32.1"/>
<text text-anchor="middle" x="173.4" y="-32.4" font-family="Times,serif" font-size="14.00">1</text>
</g>
</g>
</svg>
