<?xml version="1.0" encoding="utf-8"?>
<svg xmlns="http://www.w3.org/2000/svg" xmlns:xlink="http://www.w3.org/1999/xlink" width="576" height="384" viewBox="0 0 2304 1536">
<defs>
  <clipPath id="clip760">
    <rect x="0" y="0" width="2304" height="1536"/>
  </clipPath>
</defs>
<path clip-path="url(#clip760)" d="
M0 1536 L2304 1536 L2304 0 L0 0  Z
  " fill="#ffffff" fill-rule="evenodd" fill-opacity="1"/>
<defs>
  <clipPath id="clip761">
    <rect x="460" y="0" width="1614" height="1536"/>
  </clipPath>
</defs>
<path clip-path="url(#clip760)" d="
M250.92 1359.82 L2256.76 1359.82 L2256.76 47.2441 L250.92 47.2441  Z
  " fill="#ffffff" fill-rule="evenodd" fill-opacity="1"/>
<defs>
  <clipPath id="clip762">
    <rect x="250" y="47" width="2007" height="1314"/>
  </clipPath>
</defs>
<polyline clip-path="url(#clip762)" style="stroke:#000000; stroke-width:2; stroke-opacity:0.1; fill:none" points="
  307.689,1359.82 307.689,47.2441 
  "/>
<polyline clip-path="url(#clip762)" style="stroke:#000000; stroke-width:2; stroke-opacity:0.1; fill:none" points="
  780.763,1359.82 780.763,47.2441 
  "/>
<polyline clip-path="url(#clip762)" style="stroke:#000000; stroke-width:2; stroke-opacity:0.1; fill:none" points="
  1253.84,1359.82 1253.84,47.2441 
  "/>
<polyline clip-path="url(#clip762)" style="stroke:#000000; stroke-width:2; stroke-opacity:0.1; fill:none" points="
  1726.91,1359.82 1726.91,47.2441 
  "/>
<polyline clip-path="url(#clip762)" style="stroke:#000000; stroke-width:2; stroke-opacity:0.1; fill:none" points="
  2199.99,1359.82 2199.99,47.2441 
  "/>
<polyline clip-path="url(#clip762)" style="stroke:#000000; stroke-width:2; stroke-opacity:0.1; fill:none" points="
  250.92,1322.67 2256.76,1322.67 
  "/>
<polyline clip-path="url(#clip762)" style="stroke:#000000; stroke-width:2; stroke-opacity:0.1; fill:none" points="
  250.92,1009.97 2256.76,1009.97 
  "/>
<polyline clip-path="url(#clip762)" style="stroke:#000000; stroke-width:2; stroke-opacity:0.1; fill:none" points="
  250.92,697.278 2256.76,697.278 
  "/>
<polyline clip-path="url(#clip762)" style="stroke:#000000; stroke-width:2; stroke-opacity:0.1; fill:none" points="
  250.92,384.581 2256.76,384.581 
  "/>
<polyline clip-path="url(#clip762)" style="stroke:#000000; stroke-width:2; stroke-opacity:0.1; fill:none" points="
  250.92,71.8846 2256.76,71.8846 
  "/>
<polyline clip-path="url(#clip760)" style="stroke:#000000; stroke-width:4; stroke-opacity:1; fill:none" points="
  250.92,1359.82 2256.76,1359.82 
  "/>
<polyline clip-path="url(#clip760)" style="stroke:#000000; stroke-width:4; stroke-opacity:1; fill:none" points="
  250.92,1359.82 250.92,47.2441 
  "/>
<polyline clip-path="url(#clip760)" style="stroke:#000000; stroke-width:4; stroke-opacity:1; fill:none" points="
  307.689,1359.82 307.689,1344.07 
  "/>
<polyline clip-path="url(#clip760)" style="stroke:#000000; stroke-width:4; stroke-opacity:1; fill:none" points="
  780.763,1359.82 780.763,1344.07 
  "/>
<polyline clip-path="url(#clip760)" style="stroke:#000000; stroke-width:4; stroke-opacity:1; fill:none" points="
  1253.84,1359.82 1253.84,1344.07 
  "/>
<polyline clip-path="url(#clip760)" style="stroke:#000000; stroke-width:4; stroke-opacity:1; fill:none" points="
  1726.91,1359.82 1726.91,1344.07 
  "/>
<polyline clip-path="url(#clip760)" style="stroke:#000000; stroke-width:4; stroke-opacity:1; fill:none" points="
  2199.99,1359.82 2199.99,1344.07 
  "/>
<polyline clip-path="url(#clip760)" style="stroke:#000000; stroke-width:4; stroke-opacity:1; fill:none" points="
  250.92,1322.67 274.99,1322.67 
  "/>
<polyline clip-path="url(#clip760)" style="stroke:#000000; stroke-width:4; stroke-opacity:1; fill:none" points="
  250.92,1009.97 274.99,1009.97 
  "/>
<polyline clip-path="url(#clip760)" style="stroke:#000000; stroke-width:4; stroke-opacity:1; fill:none" points="
  250.92,697.278 274.99,697.278 
  "/>
<polyline clip-path="url(#clip760)" style="stroke:#000000; stroke-width:4; stroke-opacity:1; fill:none" points="
  250.92,384.581 274.99,384.581 
  "/>
<polyline clip-path="url(#clip760)" style="stroke:#000000; stroke-width:4; stroke-opacity:1; fill:none" points="
  250.92,71.8846 274.99,71.8846 
  "/>
<path clip-path="url(#clip760)" d="M 0 0 M275.698 1381.33 Q272.087 1381.33 270.259 1384.9 Q268.453 1388.44 268.453 1395.57 Q268.453 1402.67 270.259 1406.24 Q272.087 1409.78 275.698 1409.78 Q279.333 1409.78 281.138 1406.24 Q282.967 1402.67 282.967 1395.57 Q282.967 1388.44 281.138 1384.9 Q279.333 1381.33 275.698 1381.33 M275.698 1377.63 Q281.509 1377.63 284.564 1382.23 Q287.643 1386.82 287.643 1395.57 Q287.643 1404.29 284.564 1408.9 Q281.509 1413.48 275.698 1413.48 Q269.888 1413.48 266.81 1408.9 Q263.754 1404.29 263.754 1395.57 Q263.754 1386.82 266.81 1382.23 Q269.888 1377.63 275.698 1377.63 Z" fill="#000000" fill-rule="evenodd" fill-opacity="1" /><path clip-path="url(#clip760)" d="M 0 0 M292.712 1406.93 L297.596 1406.93 L297.596 1412.81 L292.712 1412.81 L292.712 1406.93 Z" fill="#000000" fill-rule="evenodd" fill-opacity="1" /><path clip-path="url(#clip760)" d="M 0 0 M312.666 1381.33 Q309.055 1381.33 307.226 1384.9 Q305.42 1388.44 305.42 1395.57 Q305.42 1402.67 307.226 1406.24 Q309.055 1409.78 312.666 1409.78 Q316.3 1409.78 318.106 1406.24 Q319.934 1402.67 319.934 1395.57 Q319.934 1388.44 318.106 1384.9 Q316.3 1381.33 312.666 1381.33 M312.666 1377.63 Q318.476 1377.63 321.531 1382.23 Q324.61 1386.82 324.61 1395.57 Q324.61 1404.29 321.531 1408.9 Q318.476 1413.48 312.666 1413.48 Q306.856 1413.48 303.777 1408.9 Q300.721 1404.29 300.721 1395.57 Q300.721 1386.82 303.777 1382.23 Q306.856 1377.63 312.666 1377.63 Z" fill="#000000" fill-rule="evenodd" fill-opacity="1" /><path clip-path="url(#clip760)" d="M 0 0 M339.679 1381.33 Q336.068 1381.33 334.24 1384.9 Q332.434 1388.44 332.434 1395.57 Q332.434 1402.67 334.24 1406.24 Q336.068 1409.78 339.679 1409.78 Q343.314 1409.78 345.119 1406.24 Q346.948 1402.67 346.948 1395.57 Q346.948 1388.44 345.119 1384.9 Q343.314 1381.33 339.679 1381.33 M339.679 1377.63 Q345.49 1377.63 348.545 1382.23 Q351.624 1386.82 351.624 1395.57 Q351.624 1404.29 348.545 1408.9 Q345.49 1413.48 339.679 1413.48 Q333.869 1413.48 330.791 1408.9 Q327.735 1404.29 327.735 1395.57 Q327.735 1386.82 330.791 1382.23 Q333.869 1377.63 339.679 1377.63 Z" fill="#000000" fill-rule="evenodd" fill-opacity="1" /><path clip-path="url(#clip760)" d="M 0 0 M750.069 1381.33 Q746.458 1381.33 744.629 1384.9 Q742.824 1388.44 742.824 1395.57 Q742.824 1402.67 744.629 1406.24 Q746.458 1409.78 750.069 1409.78 Q753.703 1409.78 755.509 1406.24 Q757.338 1402.67 757.338 1395.57 Q757.338 1388.44 755.509 1384.9 Q753.703 1381.33 750.069 1381.33 M750.069 1377.63 Q755.879 1377.63 758.935 1382.23 Q762.014 1386.82 762.014 1395.57 Q762.014 1404.29 758.935 1408.9 Q755.879 1413.48 750.069 1413.48 Q744.259 1413.48 741.18 1408.9 Q738.125 1404.29 738.125 1395.57 Q738.125 1386.82 741.18 1382.23 Q744.259 1377.63 750.069 1377.63 Z" fill="#000000" fill-rule="evenodd" fill-opacity="1" /><path clip-path="url(#clip760)" d="M 0 0 M767.083 1406.93 L771.967 1406.93 L771.967 1412.81 L767.083 1412.81 L767.083 1406.93 Z" fill="#000000" fill-rule="evenodd" fill-opacity="1" /><path clip-path="url(#clip760)" d="M 0 0 M781.064 1408.88 L797.384 1408.88 L797.384 1412.81 L775.439 1412.81 L775.439 1408.88 Q778.101 1406.12 782.685 1401.49 Q787.291 1396.84 788.472 1395.5 Q790.717 1392.97 791.597 1391.24 Q792.499 1389.48 792.499 1387.79 Q792.499 1385.03 790.555 1383.3 Q788.634 1381.56 785.532 1381.56 Q783.333 1381.56 780.879 1382.33 Q778.449 1383.09 775.671 1384.64 L775.671 1379.92 Q778.495 1378.78 780.949 1378.21 Q783.402 1377.63 785.439 1377.63 Q790.81 1377.63 794.004 1380.31 Q797.199 1383 797.199 1387.49 Q797.199 1389.62 796.388 1391.54 Q795.601 1393.44 793.495 1396.03 Q792.916 1396.7 789.814 1399.92 Q786.712 1403.11 781.064 1408.88 Z" fill="#000000" fill-rule="evenodd" fill-opacity="1" /><path clip-path="url(#clip760)" d="M 0 0 M802.499 1378.25 L820.856 1378.25 L820.856 1382.19 L806.782 1382.19 L806.782 1390.66 Q807.8 1390.31 808.819 1390.15 Q809.837 1389.96 810.856 1389.96 Q816.643 1389.96 820.022 1393.14 Q823.402 1396.31 823.402 1401.72 Q823.402 1407.3 819.93 1410.4 Q816.458 1413.48 810.138 1413.48 Q807.962 1413.48 805.694 1413.11 Q803.448 1412.74 801.041 1412 L801.041 1407.3 Q803.124 1408.44 805.347 1408.99 Q807.569 1409.55 810.046 1409.55 Q814.05 1409.55 816.388 1407.44 Q818.726 1405.34 818.726 1401.72 Q818.726 1398.11 816.388 1396.01 Q814.05 1393.9 810.046 1393.9 Q808.171 1393.9 806.296 1394.32 Q804.444 1394.73 802.499 1395.61 L802.499 1378.25 Z" fill="#000000" fill-rule="evenodd" fill-opacity="1" /><path clip-path="url(#clip760)" d="M 0 0 M1222.35 1381.33 Q1218.73 1381.33 1216.91 1384.9 Q1215.1 1388.44 1215.1 1395.57 Q1215.1 1402.67 1216.91 1406.24 Q1218.73 1409.78 1222.35 1409.78 Q1225.98 1409.78 1227.78 1406.24 Q1229.61 1402.67 1229.61 1395.57 Q1229.61 1388.44 1227.78 1384.9 Q1225.98 1381.33 1222.35 1381.33 M1222.35 1377.63 Q1228.16 1377.63 1231.21 1382.23 Q1234.29 1386.82 1234.29 1395.57 Q1234.29 1404.29 1231.21 1408.9 Q1228.16 1413.48 1222.35 1413.48 Q1216.53 1413.48 1213.46 1408.9 Q1210.4 1404.29 1210.4 1395.57 Q1210.4 1386.82 1213.46 1382.23 Q1216.53 1377.63 1222.35 1377.63 Z" fill="#000000" fill-rule="evenodd" fill-opacity="1" /><path clip-path="url(#clip760)" d="M 0 0 M1239.36 1406.93 L1244.24 1406.93 L1244.24 1412.81 L1239.36 1412.81 L1239.36 1406.93 Z" fill="#000000" fill-rule="evenodd" fill-opacity="1" /><path clip-path="url(#clip760)" d="M 0 0 M1249.36 1378.25 L1267.72 1378.25 L1267.72 1382.19 L1253.64 1382.19 L1253.64 1390.66 Q1254.66 1390.31 1255.68 1390.15 Q1256.7 1389.96 1257.72 1389.96 Q1263.5 1389.96 1266.88 1393.14 Q1270.26 1396.31 1270.26 1401.72 Q1270.26 1407.3 1266.79 1410.4 Q1263.32 1413.48 1257 1413.48 Q1254.82 1413.48 1252.55 1413.11 Q1250.31 1412.74 1247.9 1412 L1247.9 1407.3 Q1249.98 1408.44 1252.21 1408.99 Q1254.43 1409.55 1256.91 1409.55 Q1260.91 1409.55 1263.25 1407.44 Q1265.59 1405.34 1265.59 1401.72 Q1265.59 1398.11 1263.25 1396.01 Q1260.91 1393.9 1256.91 1393.9 Q1255.03 1393.9 1253.16 1394.32 Q1251.3 1394.73 1249.36 1395.61 L1249.36 1378.25 Z" fill="#000000" fill-rule="evenodd" fill-opacity="1" /><path clip-path="url(#clip760)" d="M 0 0 M1285.33 1381.33 Q1281.72 1381.33 1279.89 1384.9 Q1278.09 1388.44 1278.09 1395.57 Q1278.09 1402.67 1279.89 1406.24 Q1281.72 1409.78 1285.33 1409.78 Q1288.97 1409.78 1290.77 1406.24 Q1292.6 1402.67 1292.6 1395.57 Q1292.6 1388.44 1290.77 1384.9 Q1288.97 1381.33 1285.33 1381.33 M1285.33 1377.63 Q1291.14 1377.63 1294.2 1382.23 Q1297.28 1386.82 1297.28 1395.57 Q1297.28 1404.29 1294.2 1408.9 Q1291.14 1413.48 1285.33 1413.48 Q1279.52 1413.48 1276.44 1408.9 Q1273.39 1404.29 1273.39 1395.57 Q1273.39 1386.82 1276.44 1382.23 Q1279.52 1377.63 1285.33 1377.63 Z" fill="#000000" fill-rule="evenodd" fill-opacity="1" /><path clip-path="url(#clip760)" d="M 0 0 M1695.87 1381.33 Q1692.26 1381.33 1690.43 1384.9 Q1688.63 1388.44 1688.63 1395.57 Q1688.63 1402.67 1690.43 1406.24 Q1692.26 1409.78 1695.87 1409.78 Q1699.51 1409.78 1701.31 1406.24 Q1703.14 1402.67 1703.14 1395.57 Q1703.14 1388.44 1701.31 1384.9 Q1699.51 1381.33 1695.87 1381.33 M1695.87 1377.63 Q1701.68 1377.63 1704.74 1382.23 Q1707.82 1386.82 1707.82 1395.57 Q1707.82 1404.29 1704.74 1408.9 Q1701.68 1413.48 1695.87 1413.48 Q1690.06 1413.48 1686.98 1408.9 Q1683.93 1404.29 1683.93 1395.57 Q1683.93 1386.82 1686.98 1382.23 Q1690.06 1377.63 1695.87 1377.63 Z" fill="#000000" fill-rule="evenodd" fill-opacity="1" /><path clip-path="url(#clip760)" d="M 0 0 M1712.88 1406.93 L1717.77 1406.93 L1717.77 1412.81 L1712.88 1412.81 L1712.88 1406.93 Z" fill="#000000" fill-rule="evenodd" fill-opacity="1" /><path clip-path="url(#clip760)" d="M 0 0 M1721.66 1378.25 L1743.88 1378.25 L1743.88 1380.24 L1731.33 1412.81 L1726.45 1412.81 L1738.25 1382.19 L1721.66 1382.19 L1721.66 1378.25 Z" fill="#000000" fill-rule="evenodd" fill-opacity="1" /><path clip-path="url(#clip760)" d="M 0 0 M1749 1378.25 L1767.35 1378.25 L1767.35 1382.19 L1753.28 1382.19 L1753.28 1390.66 Q1754.3 1390.31 1755.32 1390.15 Q1756.33 1389.96 1757.35 1389.96 Q1763.14 1389.96 1766.52 1393.14 Q1769.9 1396.31 1769.9 1401.72 Q1769.9 1407.3 1766.43 1410.4 Q1762.95 1413.48 1756.63 1413.48 Q1754.46 1413.48 1752.19 1413.11 Q1749.94 1412.74 1747.54 1412 L1747.54 1407.3 Q1749.62 1408.44 1751.84 1408.99 Q1754.07 1409.55 1756.54 1409.55 Q1760.55 1409.55 1762.88 1407.44 Q1765.22 1405.34 1765.22 1401.72 Q1765.22 1398.11 1762.88 1396.01 Q1760.55 1393.9 1756.54 1393.9 Q1754.67 1393.9 1752.79 1394.32 Q1750.94 1394.73 1749 1395.61 L1749 1378.25 Z" fill="#000000" fill-rule="evenodd" fill-opacity="1" /><path clip-path="url(#clip760)" d="M 0 0 M2158.38 1408.88 L2166.02 1408.88 L2166.02 1382.51 L2157.71 1384.18 L2157.71 1379.92 L2165.97 1378.25 L2170.65 1378.25 L2170.65 1408.88 L2178.29 1408.88 L2178.29 1412.81 L2158.38 1412.81 L2158.38 1408.88 Z" fill="#000000" fill-rule="evenodd" fill-opacity="1" /><path clip-path="url(#clip760)" d="M 0 0 M2183.36 1406.93 L2188.24 1406.93 L2188.24 1412.81 L2183.36 1412.81 L2183.36 1406.93 Z" fill="#000000" fill-rule="evenodd" fill-opacity="1" /><path clip-path="url(#clip760)" d="M 0 0 M2203.31 1381.33 Q2199.7 1381.33 2197.87 1384.9 Q2196.06 1388.44 2196.06 1395.57 Q2196.06 1402.67 2197.87 1406.24 Q2199.7 1409.78 2203.31 1409.78 Q2206.94 1409.78 2208.75 1406.24 Q2210.58 1402.67 2210.58 1395.57 Q2210.58 1388.44 2208.75 1384.9 Q2206.94 1381.33 2203.31 1381.33 M2203.31 1377.63 Q2209.12 1377.63 2212.17 1382.23 Q2215.25 1386.82 2215.25 1395.57 Q2215.25 1404.29 2212.17 1408.9 Q2209.12 1413.48 2203.31 1413.48 Q2197.5 1413.48 2194.42 1408.9 Q2191.36 1404.29 2191.36 1395.57 Q2191.36 1386.82 2194.42 1382.23 Q2197.5 1377.63 2203.31 1377.63 Z" fill="#000000" fill-rule="evenodd" fill-opacity="1" /><path clip-path="url(#clip760)" d="M 0 0 M2230.32 1381.33 Q2226.71 1381.33 2224.88 1384.9 Q2223.08 1388.44 2223.08 1395.57 Q2223.08 1402.67 2224.88 1406.24 Q2226.71 1409.78 2230.32 1409.78 Q2233.96 1409.78 2235.76 1406.24 Q2237.59 1402.67 2237.59 1395.57 Q2237.59 1388.44 2235.76 1384.9 Q2233.96 1381.33 2230.32 1381.33 M2230.32 1377.63 Q2236.13 1377.63 2239.19 1382.23 Q2242.27 1386.82 2242.27 1395.57 Q2242.27 1404.29 2239.19 1408.9 Q2236.13 1413.48 2230.32 1413.48 Q2224.51 1413.48 2221.43 1408.9 Q2218.38 1404.29 2218.38 1395.57 Q2218.38 1386.82 2221.43 1382.23 Q2224.51 1377.63 2230.32 1377.63 Z" fill="#000000" fill-rule="evenodd" fill-opacity="1" /><path clip-path="url(#clip760)" d="M 0 0 M215.936 1308.47 Q212.325 1308.47 210.496 1312.03 Q208.69 1315.58 208.69 1322.71 Q208.69 1329.81 210.496 1333.38 Q212.325 1336.92 215.936 1336.92 Q219.57 1336.92 221.375 1333.38 Q223.204 1329.81 223.204 1322.71 Q223.204 1315.58 221.375 1312.03 Q219.57 1308.47 215.936 1308.47 M215.936 1304.77 Q221.746 1304.77 224.801 1309.37 Q227.88 1313.96 227.88 1322.71 Q227.88 1331.43 224.801 1336.04 Q221.746 1340.62 215.936 1340.62 Q210.125 1340.62 207.047 1336.04 Q203.991 1331.43 203.991 1322.71 Q203.991 1313.96 207.047 1309.37 Q210.125 1304.77 215.936 1304.77 Z" fill="#000000" fill-rule="evenodd" fill-opacity="1" /><path clip-path="url(#clip760)" d="M 0 0 M158.529 1023.32 L174.848 1023.32 L174.848 1027.25 L152.904 1027.25 L152.904 1023.32 Q155.566 1020.56 160.149 1015.94 Q164.755 1011.28 165.936 1009.94 Q168.181 1007.42 169.061 1005.68 Q169.964 1003.92 169.964 1002.23 Q169.964 999.477 168.019 997.741 Q166.098 996.005 162.996 996.005 Q160.797 996.005 158.343 996.769 Q155.913 997.533 153.135 999.084 L153.135 994.361 Q155.959 993.227 158.413 992.648 Q160.866 992.07 162.903 992.07 Q168.274 992.07 171.468 994.755 Q174.663 997.44 174.663 1001.93 Q174.663 1004.06 173.852 1005.98 Q173.065 1007.88 170.959 1010.47 Q170.38 1011.14 167.278 1014.36 Q164.177 1017.56 158.529 1023.32 Z" fill="#000000" fill-rule="evenodd" fill-opacity="1" /><path clip-path="url(#clip760)" d="M 0 0 M179.964 992.695 L198.32 992.695 L198.32 996.63 L184.246 996.63 L184.246 1005.1 Q185.264 1004.75 186.283 1004.59 Q187.301 1004.41 188.32 1004.41 Q194.107 1004.41 197.487 1007.58 Q200.866 1010.75 200.866 1016.17 Q200.866 1021.75 197.394 1024.85 Q193.922 1027.93 187.602 1027.93 Q185.427 1027.93 183.158 1027.56 Q180.913 1027.19 178.505 1026.44 L178.505 1021.75 Q180.589 1022.88 182.811 1023.44 Q185.033 1023.99 187.51 1023.99 Q191.514 1023.99 193.852 1021.88 Q196.19 1019.78 196.19 1016.17 Q196.19 1012.56 193.852 1010.45 Q191.514 1008.34 187.51 1008.34 Q185.635 1008.34 183.76 1008.76 Q181.908 1009.18 179.964 1010.06 L179.964 992.695 Z" fill="#000000" fill-rule="evenodd" fill-opacity="1" /><path clip-path="url(#clip760)" d="M 0 0 M215.936 995.773 Q212.325 995.773 210.496 999.338 Q208.69 1002.88 208.69 1010.01 Q208.69 1017.12 210.496 1020.68 Q212.325 1024.22 215.936 1024.22 Q219.57 1024.22 221.375 1020.68 Q223.204 1017.12 223.204 1010.01 Q223.204 1002.88 221.375 999.338 Q219.57 995.773 215.936 995.773 M215.936 992.07 Q221.746 992.07 224.801 996.676 Q227.88 1001.26 227.88 1010.01 Q227.88 1018.74 224.801 1023.34 Q221.746 1027.93 215.936 1027.93 Q210.125 1027.93 207.047 1023.34 Q203.991 1018.74 203.991 1010.01 Q203.991 1001.26 207.047 996.676 Q210.125 992.07 215.936 992.07 Z" fill="#000000" fill-rule="evenodd" fill-opacity="1" /><path clip-path="url(#clip760)" d="M 0 0 M152.95 679.998 L171.306 679.998 L171.306 683.933 L157.232 683.933 L157.232 692.405 Q158.251 692.058 159.269 691.896 Q160.288 691.711 161.306 691.711 Q167.093 691.711 170.473 694.882 Q173.852 698.053 173.852 703.47 Q173.852 709.049 170.38 712.151 Q166.908 715.229 160.589 715.229 Q158.413 715.229 156.144 714.859 Q153.899 714.489 151.492 713.748 L151.492 709.049 Q153.575 710.183 155.797 710.739 Q158.019 711.294 160.496 711.294 Q164.501 711.294 166.839 709.188 Q169.177 707.081 169.177 703.47 Q169.177 699.859 166.839 697.753 Q164.501 695.646 160.496 695.646 Q158.621 695.646 156.746 696.063 Q154.894 696.479 152.95 697.359 L152.95 679.998 Z" fill="#000000" fill-rule="evenodd" fill-opacity="1" /><path clip-path="url(#clip760)" d="M 0 0 M188.922 683.077 Q185.311 683.077 183.482 686.642 Q181.677 690.183 181.677 697.313 Q181.677 704.419 183.482 707.984 Q185.311 711.526 188.922 711.526 Q192.556 711.526 194.362 707.984 Q196.19 704.419 196.19 697.313 Q196.19 690.183 194.362 686.642 Q192.556 683.077 188.922 683.077 M188.922 679.373 Q194.732 679.373 197.788 683.979 Q200.866 688.563 200.866 697.313 Q200.866 706.04 197.788 710.646 Q194.732 715.229 188.922 715.229 Q183.112 715.229 180.033 710.646 Q176.977 706.04 176.977 697.313 Q176.977 688.563 180.033 683.979 Q183.112 679.373 188.922 679.373 Z" fill="#000000" fill-rule="evenodd" fill-opacity="1" /><path clip-path="url(#clip760)" d="M 0 0 M215.936 683.077 Q212.325 683.077 210.496 686.642 Q208.69 690.183 208.69 697.313 Q208.69 704.419 210.496 707.984 Q212.325 711.526 215.936 711.526 Q219.57 711.526 221.375 707.984 Q223.204 704.419 223.204 697.313 Q223.204 690.183 221.375 686.642 Q219.57 683.077 215.936 683.077 M215.936 679.373 Q221.746 679.373 224.801 683.979 Q227.88 688.563 227.88 697.313 Q227.88 706.04 224.801 710.646 Q221.746 715.229 215.936 715.229 Q210.125 715.229 207.047 710.646 Q203.991 706.04 203.991 697.313 Q203.991 688.563 207.047 683.979 Q210.125 679.373 215.936 679.373 Z" fill="#000000" fill-rule="evenodd" fill-opacity="1" /><path clip-path="url(#clip760)" d="M 0 0 M152.626 367.301 L174.848 367.301 L174.848 369.292 L162.302 401.861 L157.417 401.861 L169.223 371.236 L152.626 371.236 L152.626 367.301 Z" fill="#000000" fill-rule="evenodd" fill-opacity="1" /><path clip-path="url(#clip760)" d="M 0 0 M179.964 367.301 L198.32 367.301 L198.32 371.236 L184.246 371.236 L184.246 379.709 Q185.264 379.361 186.283 379.199 Q187.301 379.014 188.32 379.014 Q194.107 379.014 197.487 382.185 Q200.866 385.357 200.866 390.773 Q200.866 396.352 197.394 399.454 Q193.922 402.533 187.602 402.533 Q185.427 402.533 183.158 402.162 Q180.913 401.792 178.505 401.051 L178.505 396.352 Q180.589 397.486 182.811 398.042 Q185.033 398.597 187.51 398.597 Q191.514 398.597 193.852 396.491 Q196.19 394.385 196.19 390.773 Q196.19 387.162 193.852 385.056 Q191.514 382.949 187.51 382.949 Q185.635 382.949 183.76 383.366 Q181.908 383.783 179.964 384.662 L179.964 367.301 Z" fill="#000000" fill-rule="evenodd" fill-opacity="1" /><path clip-path="url(#clip760)" d="M 0 0 M215.936 370.38 Q212.325 370.38 210.496 373.945 Q208.69 377.486 208.69 384.616 Q208.69 391.722 210.496 395.287 Q212.325 398.829 215.936 398.829 Q219.57 398.829 221.375 395.287 Q223.204 391.722 223.204 384.616 Q223.204 377.486 221.375 373.945 Q219.57 370.38 215.936 370.38 M215.936 366.676 Q221.746 366.676 224.801 371.283 Q227.88 375.866 227.88 384.616 Q227.88 393.343 224.801 397.949 Q221.746 402.533 215.936 402.533 Q210.125 402.533 207.047 397.949 Q203.991 393.343 203.991 384.616 Q203.991 375.866 207.047 371.283 Q210.125 366.676 215.936 366.676 Z" fill="#000000" fill-rule="evenodd" fill-opacity="1" /><path clip-path="url(#clip760)" d="M 0 0 M126.931 85.2294 L134.57 85.2294 L134.57 58.8638 L126.26 60.5305 L126.26 56.2713 L134.524 54.6046 L139.2 54.6046 L139.2 85.2294 L146.839 85.2294 L146.839 89.1646 L126.931 89.1646 L126.931 85.2294 Z" fill="#000000" fill-rule="evenodd" fill-opacity="1" /><path clip-path="url(#clip760)" d="M 0 0 M161.908 57.6833 Q158.297 57.6833 156.468 61.2481 Q154.663 64.7897 154.663 71.9193 Q154.663 79.0258 156.468 82.5906 Q158.297 86.1322 161.908 86.1322 Q165.542 86.1322 167.348 82.5906 Q169.177 79.0258 169.177 71.9193 Q169.177 64.7897 167.348 61.2481 Q165.542 57.6833 161.908 57.6833 M161.908 53.9796 Q167.718 53.9796 170.774 58.5861 Q173.852 63.1694 173.852 71.9193 Q173.852 80.6461 170.774 85.2526 Q167.718 89.8359 161.908 89.8359 Q156.098 89.8359 153.019 85.2526 Q149.964 80.6461 149.964 71.9193 Q149.964 63.1694 153.019 58.5861 Q156.098 53.9796 161.908 53.9796 Z" fill="#000000" fill-rule="evenodd" fill-opacity="1" /><path clip-path="url(#clip760)" d="M 0 0 M188.922 57.6833 Q185.311 57.6833 183.482 61.2481 Q181.677 64.7897 181.677 71.9193 Q181.677 79.0258 183.482 82.5906 Q185.311 86.1322 188.922 86.1322 Q192.556 86.1322 194.362 82.5906 Q196.19 79.0258 196.19 71.9193 Q196.19 64.7897 194.362 61.2481 Q192.556 57.6833 188.922 57.6833 M188.922 53.9796 Q194.732 53.9796 197.788 58.5861 Q200.866 63.1694 200.866 71.9193 Q200.866 80.6461 197.788 85.2526 Q194.732 89.8359 188.922 89.8359 Q183.112 89.8359 180.033 85.2526 Q176.977 80.6461 176.977 71.9193 Q176.977 63.1694 180.033 58.5861 Q183.112 53.9796 188.922 53.9796 Z" fill="#000000" fill-rule="evenodd" fill-opacity="1" /><path clip-path="url(#clip760)" d="M 0 0 M215.936 57.6833 Q212.325 57.6833 210.496 61.2481 Q208.69 64.7897 208.69 71.9193 Q208.69 79.0258 210.496 82.5906 Q212.325 86.1322 215.936 86.1322 Q219.57 86.1322 221.375 82.5906 Q223.204 79.0258 223.204 71.9193 Q223.204 64.7897 221.375 61.2481 Q219.57 57.6833 215.936 57.6833 M215.936 53.9796 Q221.746 53.9796 224.801 58.5861 Q227.88 63.1694 227.88 71.9193 Q227.88 80.6461 224.801 85.2526 Q221.746 89.8359 215.936 89.8359 Q210.125 89.8359 207.047 85.2526 Q203.991 80.6461 203.991 71.9193 Q203.991 63.1694 207.047 58.5861 Q210.125 53.9796 215.936 53.9796 Z" fill="#000000" fill-rule="evenodd" fill-opacity="1" /><path clip-path="url(#clip760)" d="M 0 0 M1181.44 1444.2 L1221.64 1444.2 L1221.64 1449.61 L1204.77 1449.61 L1204.77 1491.72 L1198.31 1491.72 L1198.31 1449.61 L1181.44 1449.61 L1181.44 1444.2 Z" fill="#000000" fill-rule="evenodd" fill-opacity="1" /><path clip-path="url(#clip760)" d="M 0 0 M1225.78 1456.08 L1231.64 1456.08 L1231.64 1491.72 L1225.78 1491.72 L1225.78 1456.08 M1225.78 1442.2 L1231.64 1442.2 L1231.64 1449.61 L1225.78 1449.61 L1225.78 1442.2 Z" fill="#000000" fill-rule="evenodd" fill-opacity="1" /><path clip-path="url(#clip760)" d="M 0 0 M1265.53 1462.92 Q1267.73 1458.97 1270.79 1457.09 Q1273.84 1455.22 1277.98 1455.22 Q1283.55 1455.22 1286.57 1459.13 Q1289.6 1463.01 1289.6 1470.21 L1289.6 1491.72 L1283.71 1491.72 L1283.71 1470.4 Q1283.71 1465.27 1281.89 1462.79 Q1280.08 1460.31 1276.36 1460.31 Q1271.81 1460.31 1269.16 1463.33 Q1266.52 1466.36 1266.52 1471.58 L1266.52 1491.72 L1260.63 1491.72 L1260.63 1470.4 Q1260.63 1465.24 1258.82 1462.79 Q1257 1460.31 1253.22 1460.31 Q1248.73 1460.31 1246.09 1463.36 Q1243.45 1466.39 1243.45 1471.58 L1243.45 1491.72 L1237.56 1491.72 L1237.56 1456.08 L1243.45 1456.08 L1243.45 1461.61 Q1245.45 1458.34 1248.25 1456.78 Q1251.05 1455.22 1254.9 1455.22 Q1258.79 1455.22 1261.49 1457.19 Q1264.23 1459.16 1265.53 1462.92 Z" fill="#000000" fill-rule="evenodd" fill-opacity="1" /><path clip-path="url(#clip760)" d="M 0 0 M1326.23 1472.44 L1326.23 1475.3 L1299.31 1475.3 Q1299.69 1481.35 1302.93 1484.53 Q1306.21 1487.68 1312.04 1487.68 Q1315.41 1487.68 1318.56 1486.85 Q1321.74 1486.03 1324.86 1484.37 L1324.86 1489.91 Q1321.71 1491.25 1318.4 1491.95 Q1315.09 1492.65 1311.69 1492.65 Q1303.16 1492.65 1298.16 1487.68 Q1293.19 1482.72 1293.19 1474.25 Q1293.19 1465.5 1297.9 1460.37 Q1302.65 1455.22 1310.67 1455.22 Q1317.86 1455.22 1322.03 1459.86 Q1326.23 1464.48 1326.23 1472.44 M1320.38 1470.72 Q1320.31 1465.91 1317.67 1463.05 Q1315.06 1460.18 1310.73 1460.18 Q1305.83 1460.18 1302.87 1462.95 Q1299.94 1465.72 1299.5 1470.75 L1320.38 1470.72 Z" fill="#000000" fill-rule="evenodd" fill-opacity="1" /><path clip-path="url(#clip760)" d="M 0 0 M41.4442 818.815 L41.4442 810.158 L81.198 789.087 L41.4442 789.087 L41.4442 782.849 L88.9642 782.849 L88.9642 791.506 L49.2103 812.577 L88.9642 812.577 L88.9642 818.815 L41.4442 818.815 Z" fill="#000000" fill-rule="evenodd" fill-opacity="1" /><path clip-path="url(#clip760)" d="M 0 0 M74.8959 777.311 L53.3162 777.311 L53.3162 771.454 L74.6731 771.454 Q79.7339 771.454 82.2802 769.481 Q84.7946 767.507 84.7946 763.561 Q84.7946 758.818 81.7709 756.081 Q78.7472 753.312 73.5273 753.312 L53.3162 753.312 L53.3162 747.455 L88.9642 747.455 L88.9642 753.312 L83.4896 753.312 Q86.7362 755.444 88.3276 758.277 Q89.8872 761.078 89.8872 764.802 Q89.8872 770.945 86.0678 774.128 Q82.2483 777.311 74.8959 777.311 M52.4568 762.574 L52.4568 762.574 Z" fill="#000000" fill-rule="evenodd" fill-opacity="1" /><path clip-path="url(#clip760)" d="M 0 0 M60.1593 713.558 Q56.2126 711.362 54.3347 708.306 Q52.4568 705.251 52.4568 701.113 Q52.4568 695.543 56.3717 692.519 Q60.2548 689.496 67.4481 689.496 L88.9642 689.496 L88.9642 695.384 L67.639 695.384 Q62.5146 695.384 60.032 697.198 Q57.5494 699.012 57.5494 702.736 Q57.5494 707.288 60.5731 709.93 Q63.5968 712.571 68.8167 712.571 L88.9642 712.571 L88.9642 718.46 L67.639 718.46 Q62.4828 718.46 60.032 720.274 Q57.5494 722.088 57.5494 725.876 Q57.5494 730.363 60.6049 733.005 Q63.6286 735.647 68.8167 735.647 L88.9642 735.647 L88.9642 741.535 L53.3162 741.535 L53.3162 735.647 L58.8544 735.647 Q55.576 733.642 54.0164 730.841 Q52.4568 728.04 52.4568 724.189 Q52.4568 720.306 54.4302 717.6 Q56.4036 714.863 60.1593 713.558 Z" fill="#000000" fill-rule="evenodd" fill-opacity="1" /><path clip-path="url(#clip760)" d="M 0 0 M71.172 657.763 Q64.7108 657.763 61.0505 660.436 Q57.3584 663.078 57.3584 667.725 Q57.3584 672.372 61.0505 675.045 Q64.7108 677.687 71.172 677.687 Q77.6332 677.687 81.3253 675.045 Q84.9856 672.372 84.9856 667.725 Q84.9856 663.078 81.3253 660.436 Q77.6332 657.763 71.172 657.763 M58.7271 677.687 Q55.5442 675.841 54.0164 673.04 Q52.4568 670.207 52.4568 666.293 Q52.4568 659.8 57.6131 655.757 Q62.7693 651.683 71.172 651.683 Q79.5747 651.683 84.731 655.757 Q89.8872 659.8 89.8872 666.293 Q89.8872 670.207 88.3594 673.04 Q86.7998 675.841 83.617 677.687 L88.9642 677.687 L88.9642 683.575 L39.439 683.575 L39.439 677.687 L58.7271 677.687 Z" fill="#000000" fill-rule="evenodd" fill-opacity="1" /><path clip-path="url(#clip760)" d="M 0 0 M69.6761 615.049 L72.5406 615.049 L72.5406 641.976 Q78.5881 641.594 81.7709 638.347 Q84.9219 635.069 84.9219 629.244 Q84.9219 625.87 84.0944 622.719 Q83.2669 619.536 81.6118 616.417 L87.1499 616.417 Q88.4867 619.568 89.187 622.878 Q89.8872 626.189 89.8872 629.594 Q89.8872 638.124 84.9219 643.121 Q79.9567 648.087 71.4903 648.087 Q62.7374 648.087 57.6131 643.376 Q52.4568 638.634 52.4568 630.613 Q52.4568 623.42 57.1038 619.25 Q61.7189 615.049 69.6761 615.049 M67.9573 620.905 Q63.1512 620.969 60.2866 623.611 Q57.4221 626.22 57.4221 630.549 Q57.4221 635.451 60.1912 638.411 Q62.9602 641.339 67.9892 641.785 L67.9573 620.905 Z" fill="#000000" fill-rule="evenodd" fill-opacity="1" /><path clip-path="url(#clip760)" d="M 0 0 M58.7907 588.249 Q58.2178 589.236 57.9632 590.413 Q57.6767 591.559 57.6767 592.96 Q57.6767 597.925 60.9232 600.598 Q64.1379 603.24 70.1853 603.24 L88.9642 603.24 L88.9642 609.129 L53.3162 609.129 L53.3162 603.24 L58.8544 603.24 Q55.6079 601.394 54.0483 598.434 Q52.4568 595.474 52.4568 591.241 Q52.4568 590.636 52.5523 589.904 Q52.616 589.172 52.7751 588.281 L58.7907 588.249 Z" fill="#000000" fill-rule="evenodd" fill-opacity="1" /><path clip-path="url(#clip760)" d="
M1930.31 366.924 L2187.64 366.924 L2187.64 125.004 L1930.31 125.004  Z
  " fill="#ffffff" fill-rule="evenodd" fill-opacity="1"/>
<polyline clip-path="url(#clip760)" style="stroke:#000000; stroke-width:4; stroke-opacity:1; fill:none" points="
  1930.31,366.924 2187.64,366.924 2187.64,125.004 1930.31,125.004 1930.31,366.924 
  "/>
<polyline clip-path="url(#clip760)" style="stroke:#009af9; stroke-width:4; stroke-opacity:1; fill:none" points="
  1953.35,185.484 2091.59,185.484 
  "/>
<path clip-path="url(#clip760)" d="M 0 0 M2136.88 169.338 L2136.88 173.899 Q2134.22 172.625 2131.86 172 Q2129.5 171.375 2127.3 171.375 Q2123.48 171.375 2121.39 172.857 Q2119.33 174.338 2119.33 177.07 Q2119.33 179.361 2120.7 180.542 Q2122.09 181.699 2125.93 182.417 L2128.76 182.996 Q2133.99 183.991 2136.46 186.514 Q2138.96 189.014 2138.96 193.227 Q2138.96 198.25 2135.58 200.843 Q2132.23 203.435 2125.72 203.435 Q2123.27 203.435 2120.49 202.88 Q2117.74 202.324 2114.77 201.236 L2114.77 196.422 Q2117.62 198.019 2120.35 198.829 Q2123.08 199.639 2125.72 199.639 Q2129.73 199.639 2131.9 198.065 Q2134.08 196.491 2134.08 193.574 Q2134.08 191.028 2132.51 189.593 Q2130.95 188.158 2127.39 187.44 L2124.54 186.885 Q2119.31 185.843 2116.97 183.621 Q2114.63 181.398 2114.63 177.44 Q2114.63 172.857 2117.85 170.218 Q2121.09 167.579 2126.76 167.579 Q2129.19 167.579 2131.72 168.019 Q2134.24 168.459 2136.88 169.338 Z" fill="#000000" fill-rule="evenodd" fill-opacity="1" /><polyline clip-path="url(#clip760)" style="stroke:#e26f46; stroke-width:4; stroke-opacity:1; fill:none" points="
  1953.35,245.964 2091.59,245.964 
  "/>
<path clip-path="url(#clip760)" d="M 0 0 M2114.63 228.684 L2119.31 228.684 L2119.31 263.244 L2114.63 263.244 L2114.63 228.684 Z" fill="#000000" fill-rule="evenodd" fill-opacity="1" /><polyline clip-path="url(#clip760)" style="stroke:#3da44d; stroke-width:4; stroke-opacity:1; fill:none" points="
  1953.35,306.444 2091.59,306.444 
  "/>
<path clip-path="url(#clip760)" d="M 0 0 M2131.02 307.52 Q2132.53 308.03 2133.94 309.696 Q2135.38 311.363 2136.81 314.28 L2141.56 323.724 L2136.53 323.724 L2132.11 314.858 Q2130.4 311.386 2128.78 310.252 Q2127.18 309.118 2124.4 309.118 L2119.31 309.118 L2119.31 323.724 L2114.63 323.724 L2114.63 289.164 L2125.19 289.164 Q2131.12 289.164 2134.03 291.641 Q2136.95 294.118 2136.95 299.118 Q2136.95 302.382 2135.42 304.534 Q2133.92 306.687 2131.02 307.52 M2119.31 293.007 L2119.31 305.275 L2125.19 305.275 Q2128.57 305.275 2130.28 303.724 Q2132.02 302.15 2132.02 299.118 Q2132.02 296.085 2130.28 294.558 Q2128.57 293.007 2125.19 293.007 L2119.31 293.007 Z" fill="#000000" fill-rule="evenodd" fill-opacity="1" /></svg>
