<?xml version="1.0" encoding="utf-8"?>
<svg xmlns="http://www.w3.org/2000/svg" xmlns:xlink="http://www.w3.org/1999/xlink" width="576" height="384" viewBox="0 0 2304 1536">
<defs>
  <clipPath id="clip410">
    <rect x="0" y="0" width="2304" height="1536"/>
  </clipPath>
</defs>
<path clip-path="url(#clip410)" d="
M0 1536 L2304 1536 L2304 0 L0 0  Z
  " fill="#ffffff" fill-rule="evenodd" fill-opacity="1"/>
<defs>
  <clipPath id="clip411">
    <rect x="460" y="0" width="1614" height="1536"/>
  </clipPath>
</defs>
<path clip-path="url(#clip410)" d="
M250.92 1359.82 L2256.76 1359.82 L2256.76 47.2441 L250.92 47.2441  Z
  " fill="#ffffff" fill-rule="evenodd" fill-opacity="1"/>
<defs>
  <clipPath id="clip412">
    <rect x="250" y="47" width="2007" height="1314"/>
  </clipPath>
</defs>
<polyline clip-path="url(#clip412)" style="stroke:#000000; stroke-width:2; stroke-opacity:0.1; fill:none" points="
  307.689,1359.82 307.689,47.2441 
  "/>
<polyline clip-path="url(#clip412)" style="stroke:#000000; stroke-width:2; stroke-opacity:0.1; fill:none" points="
  780.763,1359.82 780.763,47.2441 
  "/>
<polyline clip-path="url(#clip412)" style="stroke:#000000; stroke-width:2; stroke-opacity:0.1; fill:none" points="
  1253.84,1359.82 1253.84,47.2441 
  "/>
<polyline clip-path="url(#clip412)" style="stroke:#000000; stroke-width:2; stroke-opacity:0.1; fill:none" points="
  1726.91,1359.82 1726.91,47.2441 
  "/>
<polyline clip-path="url(#clip412)" style="stroke:#000000; stroke-width:2; stroke-opacity:0.1; fill:none" points="
  2199.99,1359.82 2199.99,47.2441 
  "/>
<polyline clip-path="url(#clip412)" style="stroke:#000000; stroke-width:2; stroke-opacity:0.1; fill:none" points="
  250.92,1320.93 2256.76,1320.93 
  "/>
<polyline clip-path="url(#clip412)" style="stroke:#000000; stroke-width:2; stroke-opacity:0.1; fill:none" points="
  250.92,1009.01 2256.76,1009.01 
  "/>
<polyline clip-path="url(#clip412)" style="stroke:#000000; stroke-width:2; stroke-opacity:0.1; fill:none" points="
  250.92,697.095 2256.76,697.095 
  "/>
<polyline clip-path="url(#clip412)" style="stroke:#000000; stroke-width:2; stroke-opacity:0.1; fill:none" points="
  250.92,385.179 2256.76,385.179 
  "/>
<polyline clip-path="url(#clip412)" style="stroke:#000000; stroke-width:2; stroke-opacity:0.1; fill:none" points="
  250.92,73.2626 2256.76,73.2626 
  "/>
<polyline clip-path="url(#clip410)" style="stroke:#000000; stroke-width:4; stroke-opacity:1; fill:none" points="
  250.92,1359.82 2256.76,1359.82 
  "/>
<polyline clip-path="url(#clip410)" style="stroke:#000000; stroke-width:4; stroke-opacity:1; fill:none" points="
  250.92,1359.82 250.92,47.2441 
  "/>
<polyline clip-path="url(#clip410)" style="stroke:#000000; stroke-width:4; stroke-opacity:1; fill:none" points="
  307.689,1359.82 307.689,1344.07 
  "/>
<polyline clip-path="url(#clip410)" style="stroke:#000000; stroke-width:4; stroke-opacity:1; fill:none" points="
  780.763,1359.82 780.763,1344.07 
  "/>
<polyline clip-path="url(#clip410)" style="stroke:#000000; stroke-width:4; stroke-opacity:1; fill:none" points="
  1253.84,1359.82 1253.84,1344.07 
  "/>
<polyline clip-path="url(#clip410)" style="stroke:#000000; stroke-width:4; stroke-opacity:1; fill:none" points="
  1726.91,1359.82 1726.91,1344.07 
  "/>
<polyline clip-path="url(#clip410)" style="stroke:#000000; stroke-width:4; stroke-opacity:1; fill:none" points="
  2199.99,1359.82 2199.99,1344.07 
  "/>
<polyline clip-path="url(#clip410)" style="stroke:#000000; stroke-width:4; stroke-opacity:1; fill:none" points="
  250.92,1320.93 274.99,1320.93 
  "/>
<polyline clip-path="url(#clip410)" style="stroke:#000000; stroke-width:4; stroke-opacity:1; fill:none" points="
  250.92,1009.01 274.99,1009.01 
  "/>
<polyline clip-path="url(#clip410)" style="stroke:#000000; stroke-width:4; stroke-opacity:1; fill:none" points="
  250.92,697.095 274.99,697.095 
  "/>
<polyline clip-path="url(#clip410)" style="stroke:#000000; stroke-width:4; stroke-opacity:1; fill:none" points="
  250.92,385.179 274.99,385.179 
  "/>
<polyline clip-path="url(#clip410)" style="stroke:#000000; stroke-width:4; stroke-opacity:1; fill:none" points="
  250.92,73.2626 274.99,73.2626 
  "/>
<path clip-path="url(#clip410)" d="M 0 0 M307.689 1381.33 Q304.078 1381.33 302.249 1384.9 Q300.444 1388.44 300.444 1395.57 Q300.444 1402.67 302.249 1406.24 Q304.078 1409.78 307.689 1409.78 Q311.323 1409.78 313.129 1406.24 Q314.957 1402.67 314.957 1395.57 Q314.957 1388.44 313.129 1384.9 Q311.323 1381.33 307.689 1381.33 M307.689 1377.63 Q313.499 1377.63 316.555 1382.23 Q319.633 1386.82 319.633 1395.57 Q319.633 1404.29 316.555 1408.9 Q313.499 1413.48 307.689 1413.48 Q301.879 1413.48 298.8 1408.9 Q295.745 1404.29 295.745 1395.57 Q295.745 1386.82 298.8 1382.23 Q301.879 1377.63 307.689 1377.63 Z" fill="#000000" fill-rule="evenodd" fill-opacity="1" /><path clip-path="url(#clip410)" d="M 0 0 M757.639 1408.88 L765.277 1408.88 L765.277 1382.51 L756.967 1384.18 L756.967 1379.92 L765.231 1378.25 L769.907 1378.25 L769.907 1408.88 L777.546 1408.88 L777.546 1412.81 L757.639 1412.81 L757.639 1408.88 Z" fill="#000000" fill-rule="evenodd" fill-opacity="1" /><path clip-path="url(#clip410)" d="M 0 0 M792.615 1381.33 Q789.004 1381.33 787.175 1384.9 Q785.37 1388.44 785.37 1395.57 Q785.37 1402.67 787.175 1406.24 Q789.004 1409.78 792.615 1409.78 Q796.249 1409.78 798.055 1406.24 Q799.884 1402.67 799.884 1395.57 Q799.884 1388.44 798.055 1384.9 Q796.249 1381.33 792.615 1381.33 M792.615 1377.63 Q798.425 1377.63 801.481 1382.23 Q804.56 1386.82 804.56 1395.57 Q804.56 1404.29 801.481 1408.9 Q798.425 1413.48 792.615 1413.48 Q786.805 1413.48 783.726 1408.9 Q780.671 1404.29 780.671 1395.57 Q780.671 1386.82 783.726 1382.23 Q786.805 1377.63 792.615 1377.63 Z" fill="#000000" fill-rule="evenodd" fill-opacity="1" /><path clip-path="url(#clip410)" d="M 0 0 M1234.98 1408.88 L1251.3 1408.88 L1251.3 1412.81 L1229.36 1412.81 L1229.36 1408.88 Q1232.02 1406.12 1236.6 1401.49 Q1241.21 1396.84 1242.39 1395.5 Q1244.64 1392.97 1245.52 1391.24 Q1246.42 1389.48 1246.42 1387.79 Q1246.42 1385.03 1244.47 1383.3 Q1242.55 1381.56 1239.45 1381.56 Q1237.25 1381.56 1234.8 1382.33 Q1232.37 1383.09 1229.59 1384.64 L1229.59 1379.92 Q1232.41 1378.78 1234.87 1378.21 Q1237.32 1377.63 1239.36 1377.63 Q1244.73 1377.63 1247.92 1380.31 Q1251.12 1383 1251.12 1387.49 Q1251.12 1389.62 1250.31 1391.54 Q1249.52 1393.44 1247.41 1396.03 Q1246.84 1396.7 1243.73 1399.92 Q1240.63 1403.11 1234.98 1408.88 Z" fill="#000000" fill-rule="evenodd" fill-opacity="1" /><path clip-path="url(#clip410)" d="M 0 0 M1266.37 1381.33 Q1262.76 1381.33 1260.93 1384.9 Q1259.13 1388.44 1259.13 1395.57 Q1259.13 1402.67 1260.93 1406.24 Q1262.76 1409.78 1266.37 1409.78 Q1270.01 1409.78 1271.81 1406.24 Q1273.64 1402.67 1273.64 1395.57 Q1273.64 1388.44 1271.81 1384.9 Q1270.01 1381.33 1266.37 1381.33 M1266.37 1377.63 Q1272.18 1377.63 1275.24 1382.23 Q1278.32 1386.82 1278.32 1395.57 Q1278.32 1404.29 1275.24 1408.9 Q1272.18 1413.48 1266.37 1413.48 Q1260.56 1413.48 1257.48 1408.9 Q1254.43 1404.29 1254.43 1395.57 Q1254.43 1386.82 1257.48 1382.23 Q1260.56 1377.63 1266.37 1377.63 Z" fill="#000000" fill-rule="evenodd" fill-opacity="1" /><path clip-path="url(#clip410)" d="M 0 0 M1717.65 1394.18 Q1721.01 1394.9 1722.88 1397.16 Q1724.78 1399.43 1724.78 1402.77 Q1724.78 1407.88 1721.26 1410.68 Q1717.75 1413.48 1711.26 1413.48 Q1709.09 1413.48 1706.77 1413.04 Q1704.48 1412.63 1702.03 1411.77 L1702.03 1407.26 Q1703.97 1408.39 1706.29 1408.97 Q1708.6 1409.55 1711.13 1409.55 Q1715.52 1409.55 1717.82 1407.81 Q1720.13 1406.08 1720.13 1402.77 Q1720.13 1399.71 1717.98 1398 Q1715.85 1396.26 1712.03 1396.26 L1708 1396.26 L1708 1392.42 L1712.21 1392.42 Q1715.66 1392.42 1717.49 1391.05 Q1719.32 1389.66 1719.32 1387.07 Q1719.32 1384.41 1717.42 1383 Q1715.55 1381.56 1712.03 1381.56 Q1710.11 1381.56 1707.91 1381.98 Q1705.71 1382.4 1703.07 1383.27 L1703.07 1379.11 Q1705.73 1378.37 1708.05 1378 Q1710.38 1377.63 1712.44 1377.63 Q1717.77 1377.63 1720.87 1380.06 Q1723.97 1382.46 1723.97 1386.59 Q1723.97 1389.46 1722.33 1391.45 Q1720.69 1393.41 1717.65 1394.18 Z" fill="#000000" fill-rule="evenodd" fill-opacity="1" /><path clip-path="url(#clip410)" d="M 0 0 M1739.85 1381.33 Q1736.24 1381.33 1734.41 1384.9 Q1732.61 1388.44 1732.61 1395.57 Q1732.61 1402.67 1734.41 1406.24 Q1736.24 1409.78 1739.85 1409.78 Q1743.49 1409.78 1745.29 1406.24 Q1747.12 1402.67 1747.12 1395.57 Q1747.12 1388.44 1745.29 1384.9 Q1743.49 1381.33 1739.85 1381.33 M1739.85 1377.63 Q1745.66 1377.63 1748.72 1382.23 Q1751.8 1386.82 1751.8 1395.57 Q1751.8 1404.29 1748.72 1408.9 Q1745.66 1413.48 1739.85 1413.48 Q1734.04 1413.48 1730.96 1408.9 Q1727.91 1404.29 1727.91 1395.57 Q1727.91 1386.82 1730.96 1382.23 Q1734.04 1377.63 1739.85 1377.63 Z" fill="#000000" fill-rule="evenodd" fill-opacity="1" /><path clip-path="url(#clip410)" d="M 0 0 M2189.49 1382.33 L2177.68 1400.77 L2189.49 1400.77 L2189.49 1382.33 M2188.26 1378.25 L2194.14 1378.25 L2194.14 1400.77 L2199.07 1400.77 L2199.07 1404.66 L2194.14 1404.66 L2194.14 1412.81 L2189.49 1412.81 L2189.49 1404.66 L2173.89 1404.66 L2173.89 1400.15 L2188.26 1378.25 Z" fill="#000000" fill-rule="evenodd" fill-opacity="1" /><path clip-path="url(#clip410)" d="M 0 0 M2214.14 1381.33 Q2210.53 1381.33 2208.7 1384.9 Q2206.9 1388.44 2206.9 1395.57 Q2206.9 1402.67 2208.7 1406.24 Q2210.53 1409.78 2214.14 1409.78 Q2217.78 1409.78 2219.58 1406.24 Q2221.41 1402.67 2221.41 1395.57 Q2221.41 1388.44 2219.58 1384.9 Q2217.78 1381.33 2214.14 1381.33 M2214.14 1377.63 Q2219.95 1377.63 2223.01 1382.23 Q2226.09 1386.82 2226.09 1395.57 Q2226.09 1404.29 2223.01 1408.9 Q2219.95 1413.48 2214.14 1413.48 Q2208.33 1413.48 2205.25 1408.9 Q2202.2 1404.29 2202.2 1395.57 Q2202.2 1386.82 2205.25 1382.23 Q2208.33 1377.63 2214.14 1377.63 Z" fill="#000000" fill-rule="evenodd" fill-opacity="1" /><path clip-path="url(#clip410)" d="M 0 0 M215.936 1306.73 Q212.325 1306.73 210.496 1310.29 Q208.69 1313.83 208.69 1320.96 Q208.69 1328.07 210.496 1331.63 Q212.325 1335.17 215.936 1335.17 Q219.57 1335.17 221.375 1331.63 Q223.204 1328.07 223.204 1320.96 Q223.204 1313.83 221.375 1310.29 Q219.57 1306.73 215.936 1306.73 M215.936 1303.02 Q221.746 1303.02 224.801 1307.63 Q227.88 1312.21 227.88 1320.96 Q227.88 1329.69 224.801 1334.3 Q221.746 1338.88 215.936 1338.88 Q210.125 1338.88 207.047 1334.3 Q203.991 1329.69 203.991 1320.96 Q203.991 1312.21 207.047 1307.63 Q210.125 1303.02 215.936 1303.02 Z" fill="#000000" fill-rule="evenodd" fill-opacity="1" /><path clip-path="url(#clip410)" d="M 0 0 M158.529 1022.36 L174.848 1022.36 L174.848 1026.29 L152.904 1026.29 L152.904 1022.36 Q155.566 1019.6 160.149 1014.97 Q164.755 1010.32 165.936 1008.98 Q168.181 1006.45 169.061 1004.72 Q169.964 1002.96 169.964 1001.27 Q169.964 998.513 168.019 996.777 Q166.098 995.041 162.996 995.041 Q160.797 995.041 158.343 995.805 Q155.913 996.569 153.135 998.12 L153.135 993.398 Q155.959 992.263 158.413 991.685 Q160.866 991.106 162.903 991.106 Q168.274 991.106 171.468 993.791 Q174.663 996.476 174.663 1000.97 Q174.663 1003.1 173.852 1005.02 Q173.065 1006.92 170.959 1009.51 Q170.38 1010.18 167.278 1013.4 Q164.177 1016.59 158.529 1022.36 Z" fill="#000000" fill-rule="evenodd" fill-opacity="1" /><path clip-path="url(#clip410)" d="M 0 0 M179.964 991.731 L198.32 991.731 L198.32 995.666 L184.246 995.666 L184.246 1004.14 Q185.264 1003.79 186.283 1003.63 Q187.301 1003.44 188.32 1003.44 Q194.107 1003.44 197.487 1006.62 Q200.866 1009.79 200.866 1015.2 Q200.866 1020.78 197.394 1023.88 Q193.922 1026.96 187.602 1026.96 Q185.427 1026.96 183.158 1026.59 Q180.913 1026.22 178.505 1025.48 L178.505 1020.78 Q180.589 1021.92 182.811 1022.47 Q185.033 1023.03 187.51 1023.03 Q191.514 1023.03 193.852 1020.92 Q196.19 1018.81 196.19 1015.2 Q196.19 1011.59 193.852 1009.49 Q191.514 1007.38 187.51 1007.38 Q185.635 1007.38 183.76 1007.8 Q181.908 1008.21 179.964 1009.09 L179.964 991.731 Z" fill="#000000" fill-rule="evenodd" fill-opacity="1" /><path clip-path="url(#clip410)" d="M 0 0 M215.936 994.81 Q212.325 994.81 210.496 998.375 Q208.69 1001.92 208.69 1009.05 Q208.69 1016.15 210.496 1019.72 Q212.325 1023.26 215.936 1023.26 Q219.57 1023.26 221.375 1019.72 Q223.204 1016.15 223.204 1009.05 Q223.204 1001.92 221.375 998.375 Q219.57 994.81 215.936 994.81 M215.936 991.106 Q221.746 991.106 224.801 995.712 Q227.88 1000.3 227.88 1009.05 Q227.88 1017.77 224.801 1022.38 Q221.746 1026.96 215.936 1026.96 Q210.125 1026.96 207.047 1022.38 Q203.991 1017.77 203.991 1009.05 Q203.991 1000.3 207.047 995.712 Q210.125 991.106 215.936 991.106 Z" fill="#000000" fill-rule="evenodd" fill-opacity="1" /><path clip-path="url(#clip410)" d="M 0 0 M152.95 679.815 L171.306 679.815 L171.306 683.75 L157.232 683.75 L157.232 692.222 Q158.251 691.875 159.269 691.713 Q160.288 691.528 161.306 691.528 Q167.093 691.528 170.473 694.699 Q173.852 697.87 173.852 703.287 Q173.852 708.866 170.38 711.967 Q166.908 715.046 160.589 715.046 Q158.413 715.046 156.144 714.676 Q153.899 714.305 151.492 713.565 L151.492 708.866 Q153.575 710 155.797 710.555 Q158.019 711.111 160.496 711.111 Q164.501 711.111 166.839 709.005 Q169.177 706.898 169.177 703.287 Q169.177 699.676 166.839 697.569 Q164.501 695.463 160.496 695.463 Q158.621 695.463 156.746 695.88 Q154.894 696.296 152.95 697.176 L152.95 679.815 Z" fill="#000000" fill-rule="evenodd" fill-opacity="1" /><path clip-path="url(#clip410)" d="M 0 0 M188.922 682.894 Q185.311 682.894 183.482 686.458 Q181.677 690 181.677 697.13 Q181.677 704.236 183.482 707.801 Q185.311 711.342 188.922 711.342 Q192.556 711.342 194.362 707.801 Q196.19 704.236 196.19 697.13 Q196.19 690 194.362 686.458 Q192.556 682.894 188.922 682.894 M188.922 679.19 Q194.732 679.19 197.788 683.796 Q200.866 688.38 200.866 697.13 Q200.866 705.856 197.788 710.463 Q194.732 715.046 188.922 715.046 Q183.112 715.046 180.033 710.463 Q176.977 705.856 176.977 697.13 Q176.977 688.38 180.033 683.796 Q183.112 679.19 188.922 679.19 Z" fill="#000000" fill-rule="evenodd" fill-opacity="1" /><path clip-path="url(#clip410)" d="M 0 0 M215.936 682.894 Q212.325 682.894 210.496 686.458 Q208.69 690 208.69 697.13 Q208.69 704.236 210.496 707.801 Q212.325 711.342 215.936 711.342 Q219.57 711.342 221.375 707.801 Q223.204 704.236 223.204 697.13 Q223.204 690 221.375 686.458 Q219.57 682.894 215.936 682.894 M215.936 679.19 Q221.746 679.19 224.801 683.796 Q227.88 688.38 227.88 697.13 Q227.88 705.856 224.801 710.463 Q221.746 715.046 215.936 715.046 Q210.125 715.046 207.047 710.463 Q203.991 705.856 203.991 697.13 Q203.991 688.38 207.047 683.796 Q210.125 679.19 215.936 679.19 Z" fill="#000000" fill-rule="evenodd" fill-opacity="1" /><path clip-path="url(#clip410)" d="M 0 0 M152.626 367.899 L174.848 367.899 L174.848 369.889 L162.302 402.459 L157.417 402.459 L169.223 371.834 L152.626 371.834 L152.626 367.899 Z" fill="#000000" fill-rule="evenodd" fill-opacity="1" /><path clip-path="url(#clip410)" d="M 0 0 M179.964 367.899 L198.32 367.899 L198.32 371.834 L184.246 371.834 L184.246 380.306 Q185.264 379.959 186.283 379.797 Q187.301 379.612 188.32 379.612 Q194.107 379.612 197.487 382.783 Q200.866 385.954 200.866 391.371 Q200.866 396.95 197.394 400.051 Q193.922 403.13 187.602 403.13 Q185.427 403.13 183.158 402.76 Q180.913 402.389 178.505 401.649 L178.505 396.95 Q180.589 398.084 182.811 398.639 Q185.033 399.195 187.51 399.195 Q191.514 399.195 193.852 397.088 Q196.19 394.982 196.19 391.371 Q196.19 387.76 193.852 385.653 Q191.514 383.547 187.51 383.547 Q185.635 383.547 183.76 383.963 Q181.908 384.38 179.964 385.26 L179.964 367.899 Z" fill="#000000" fill-rule="evenodd" fill-opacity="1" /><path clip-path="url(#clip410)" d="M 0 0 M215.936 370.977 Q212.325 370.977 210.496 374.542 Q208.69 378.084 208.69 385.213 Q208.69 392.32 210.496 395.885 Q212.325 399.426 215.936 399.426 Q219.57 399.426 221.375 395.885 Q223.204 392.32 223.204 385.213 Q223.204 378.084 221.375 374.542 Q219.57 370.977 215.936 370.977 M215.936 367.274 Q221.746 367.274 224.801 371.88 Q227.88 376.464 227.88 385.213 Q227.88 393.94 224.801 398.547 Q221.746 403.13 215.936 403.13 Q210.125 403.13 207.047 398.547 Q203.991 393.94 203.991 385.213 Q203.991 376.464 207.047 371.88 Q210.125 367.274 215.936 367.274 Z" fill="#000000" fill-rule="evenodd" fill-opacity="1" /><path clip-path="url(#clip410)" d="M 0 0 M126.931 86.6074 L134.57 86.6074 L134.57 60.2418 L126.26 61.9085 L126.26 57.6493 L134.524 55.9826 L139.2 55.9826 L139.2 86.6074 L146.839 86.6074 L146.839 90.5426 L126.931 90.5426 L126.931 86.6074 Z" fill="#000000" fill-rule="evenodd" fill-opacity="1" /><path clip-path="url(#clip410)" d="M 0 0 M161.908 59.0613 Q158.297 59.0613 156.468 62.6261 Q154.663 66.1677 154.663 73.2973 Q154.663 80.4038 156.468 83.9686 Q158.297 87.5102 161.908 87.5102 Q165.542 87.5102 167.348 83.9686 Q169.177 80.4038 169.177 73.2973 Q169.177 66.1677 167.348 62.6261 Q165.542 59.0613 161.908 59.0613 M161.908 55.3576 Q167.718 55.3576 170.774 59.9641 Q173.852 64.5474 173.852 73.2973 Q173.852 82.0241 170.774 86.6306 Q167.718 91.2139 161.908 91.2139 Q156.098 91.2139 153.019 86.6306 Q149.964 82.0241 149.964 73.2973 Q149.964 64.5474 153.019 59.9641 Q156.098 55.3576 161.908 55.3576 Z" fill="#000000" fill-rule="evenodd" fill-opacity="1" /><path clip-path="url(#clip410)" d="M 0 0 M188.922 59.0613 Q185.311 59.0613 183.482 62.6261 Q181.677 66.1677 181.677 73.2973 Q181.677 80.4038 183.482 83.9686 Q185.311 87.5102 188.922 87.5102 Q192.556 87.5102 194.362 83.9686 Q196.19 80.4038 196.19 73.2973 Q196.19 66.1677 194.362 62.6261 Q192.556 59.0613 188.922 59.0613 M188.922 55.3576 Q194.732 55.3576 197.788 59.9641 Q200.866 64.5474 200.866 73.2973 Q200.866 82.0241 197.788 86.6306 Q194.732 91.2139 188.922 91.2139 Q183.112 91.2139 180.033 86.6306 Q176.977 82.0241 176.977 73.2973 Q176.977 64.5474 180.033 59.9641 Q183.112 55.3576 188.922 55.3576 Z" fill="#000000" fill-rule="evenodd" fill-opacity="1" /><path clip-path="url(#clip410)" d="M 0 0 M215.936 59.0613 Q212.325 59.0613 210.496 62.6261 Q208.69 66.1677 208.69 73.2973 Q208.69 80.4038 210.496 83.9686 Q212.325 87.5102 215.936 87.5102 Q219.57 87.5102 221.375 83.9686 Q223.204 80.4038 223.204 73.2973 Q223.204 66.1677 221.375 62.6261 Q219.57 59.0613 215.936 59.0613 M215.936 55.3576 Q221.746 55.3576 224.801 59.9641 Q227.88 64.5474 227.88 73.2973 Q227.88 82.0241 224.801 86.6306 Q221.746 91.2139 215.936 91.2139 Q210.125 91.2139 207.047 86.6306 Q203.991 82.0241 203.991 73.2973 Q203.991 64.5474 207.047 59.9641 Q210.125 55.3576 215.936 55.3576 Z" fill="#000000" fill-rule="evenodd" fill-opacity="1" /><path clip-path="url(#clip410)" d="M 0 0 M1181.44 1444.2 L1221.64 1444.2 L1221.64 1449.61 L1204.77 1449.61 L1204.77 1491.72 L1198.31 1491.72 L1198.31 1449.61 L1181.44 1449.61 L1181.44 1444.2 Z" fill="#000000" fill-rule="evenodd" fill-opacity="1" /><path clip-path="url(#clip410)" d="M 0 0 M1225.78 1456.08 L1231.64 1456.08 L1231.64 1491.72 L1225.78 1491.72 L1225.78 1456.08 M1225.78 1442.2 L1231.64 1442.2 L1231.64 1449.61 L1225.78 1449.61 L1225.78 1442.2 Z" fill="#000000" fill-rule="evenodd" fill-opacity="1" /><path clip-path="url(#clip410)" d="M 0 0 M1265.53 1462.92 Q1267.73 1458.97 1270.79 1457.09 Q1273.84 1455.22 1277.98 1455.22 Q1283.55 1455.22 1286.57 1459.13 Q1289.6 1463.01 1289.6 1470.21 L1289.6 1491.72 L1283.71 1491.72 L1283.71 1470.4 Q1283.71 1465.27 1281.89 1462.79 Q1280.08 1460.31 1276.36 1460.31 Q1271.81 1460.31 1269.16 1463.33 Q1266.52 1466.36 1266.52 1471.58 L1266.52 1491.72 L1260.63 1491.72 L1260.63 1470.4 Q1260.63 1465.24 1258.82 1462.79 Q1257 1460.31 1253.22 1460.31 Q1248.73 1460.31 1246.09 1463.36 Q1243.45 1466.39 1243.45 1471.58 L1243.45 1491.72 L1237.56 1491.72 L1237.56 1456.08 L1243.45 1456.08 L1243.45 1461.61 Q1245.45 1458.34 1248.25 1456.78 Q1251.05 1455.22 1254.9 1455.22 Q1258.79 1455.22 1261.49 1457.19 Q1264.23 1459.16 1265.53 1462.92 Z" fill="#000000" fill-rule="evenodd" fill-opacity="1" /><path clip-path="url(#clip410)" d="M 0 0 M1326.23 1472.44 L1326.23 1475.3 L1299.31 1475.3 Q1299.69 1481.35 1302.93 1484.53 Q1306.21 1487.68 1312.04 1487.68 Q1315.41 1487.68 1318.56 1486.85 Q1321.74 1486.03 1324.86 1484.37 L1324.86 1489.91 Q1321.71 1491.25 1318.4 1491.95 Q1315.09 1492.65 1311.69 1492.65 Q1303.16 1492.65 1298.16 1487.68 Q1293.19 1482.72 1293.19 1474.25 Q1293.19 1465.5 1297.9 1460.37 Q1302.65 1455.22 1310.67 1455.22 Q1317.86 1455.22 1322.03 1459.86 Q1326.23 1464.48 1326.23 1472.44 M1320.38 1470.72 Q1320.31 1465.91 1317.67 1463.05 Q1315.06 1460.18 1310.73 1460.18 Q1305.83 1460.18 1302.87 1462.95 Q1299.94 1465.72 1299.5 1470.75 L1320.38 1470.72 Z" fill="#000000" fill-rule="evenodd" fill-opacity="1" /><path clip-path="url(#clip410)" d="M 0 0 M41.4442 818.815 L41.4442 810.158 L81.198 789.087 L41.4442 789.087 L41.4442 782.849 L88.9642 782.849 L88.9642 791.506 L49.2103 812.577 L88.9642 812.577 L88.9642 818.815 L41.4442 818.815 Z" fill="#000000" fill-rule="evenodd" fill-opacity="1" /><path clip-path="url(#clip410)" d="M 0 0 M74.8959 777.311 L53.3162 777.311 L53.3162 771.454 L74.6731 771.454 Q79.7339 771.454 82.2802 769.481 Q84.7946 767.507 84.7946 763.561 Q84.7946 758.818 81.7709 756.081 Q78.7472 753.312 73.5273 753.312 L53.3162 753.312 L53.3162 747.455 L88.9642 747.455 L88.9642 753.312 L83.4896 753.312 Q86.7362 755.444 88.3276 758.277 Q89.8872 761.078 89.8872 764.802 Q89.8872 770.945 86.0678 774.128 Q82.2483 777.311 74.8959 777.311 M52.4568 762.574 L52.4568 762.574 Z" fill="#000000" fill-rule="evenodd" fill-opacity="1" /><path clip-path="url(#clip410)" d="M 0 0 M60.1593 713.558 Q56.2126 711.362 54.3347 708.306 Q52.4568 705.251 52.4568 701.113 Q52.4568 695.543 56.3717 692.519 Q60.2548 689.496 67.4481 689.496 L88.9642 689.496 L88.9642 695.384 L67.639 695.384 Q62.5146 695.384 60.032 697.198 Q57.5494 699.012 57.5494 702.736 Q57.5494 707.288 60.5731 709.93 Q63.5968 712.571 68.8167 712.571 L88.9642 712.571 L88.9642 718.46 L67.639 718.46 Q62.4828 718.46 60.032 720.274 Q57.5494 722.088 57.5494 725.876 Q57.5494 730.363 60.6049 733.005 Q63.6286 735.647 68.8167 735.647 L88.9642 735.647 L88.9642 741.535 L53.3162 741.535 L53.3162 735.647 L58.8544 735.647 Q55.576 733.642 54.0164 730.841 Q52.4568 728.04 52.4568 724.189 Q52.4568 720.306 54.4302 717.6 Q56.4036 714.863 60.1593 713.558 Z" fill="#000000" fill-rule="evenodd" fill-opacity="1" /><path clip-path="url(#clip410)" d="M 0 0 M71.172 657.763 Q64.7108 657.763 61.0505 660.436 Q57.3584 663.078 57.3584 667.725 Q57.3584 672.372 61.0505 675.045 Q64.7108 677.687 71.172 677.687 Q77.6332 677.687 81.3253 675.045 Q84.9856 672.372 84.9856 667.725 Q84.9856 663.078 81.3253 660.436 Q77.6332 657.763 71.172 657.763 M58.7271 677.687 Q55.5442 675.841 54.0164 673.04 Q52.4568 670.207 52.4568 666.293 Q52.4568 659.8 57.6131 655.757 Q62.7693 651.683 71.172 651.683 Q79.5747 651.683 84.731 655.757 Q89.8872 659.8 89.8872 666.293 Q89.8872 670.207 88.3594 673.04 Q86.7998 675.841 83.617 677.687 L88.9642 677.687 L88.9642 683.575 L39.439 683.575 L39.439 677.687 L58.7271 677.687 Z" fill="#000000" fill-rule="evenodd" fill-opacity="1" /><path clip-path="url(#clip410)" d="M 0 0 M69.6761 615.049 L72.5406 615.049 L72.5406 641.976 Q78.5881 641.594 81.7709 638.347 Q84.9219 635.069 84.9219 629.244 Q84.9219 625.87 84.0944 622.719 Q83.2669 619.536 81.6118 616.417 L87.1499 616.417 Q88.4867 619.568 89.187 622.878 Q89.8872 626.189 89.8872 629.594 Q89.8872 638.124 84.9219 643.121 Q79.9567 648.087 71.4903 648.087 Q62.7374 648.087 57.6131 643.376 Q52.4568 638.634 52.4568 630.613 Q52.4568 623.42 57.1038 619.25 Q61.7189 615.049 69.6761 615.049 M67.9573 620.905 Q63.1512 620.969 60.2866 623.611 Q57.4221 626.22 57.4221 630.549 Q57.4221 635.451 60.1912 638.411 Q62.9602 641.339 67.9892 641.785 L67.9573 620.905 Z" fill="#000000" fill-rule="evenodd" fill-opacity="1" /><path clip-path="url(#clip410)" d="M 0 0 M58.7907 588.249 Q58.2178 589.236 57.9632 590.413 Q57.6767 591.559 57.6767 592.96 Q57.6767 597.925 60.9232 600.598 Q64.1379 603.24 70.1853 603.24 L88.9642 603.24 L88.9642 609.129 L53.3162 609.129 L53.3162 603.24 L58.8544 603.24 Q55.6079 601.394 54.0483 598.434 Q52.4568 595.474 52.4568 591.241 Q52.4568 590.636 52.5523 589.904 Q52.616 589.172 52.7751 588.281 L58.7907 588.249 Z" fill="#000000" fill-rule="evenodd" fill-opacity="1" /><path clip-path="url(#clip412)" d="
M307.689 85.7393 L312.42 88.1383 L317.15 89.5916 L321.881 90.9281 L326.612 92.2237 L331.343 93.5077 L336.073 94.7951 L340.804 96.0949 L345.535 97.4133 L350.266 98.7545 
  L354.996 100.122 L359.727 101.518 L364.458 102.946 L369.189 104.406 L373.919 105.902 L378.65 107.434 L383.381 109.003 L388.112 110.612 L392.842 112.261 L397.573 113.952 
  L402.304 115.686 L407.035 117.463 L411.765 119.286 L416.496 121.154 L421.227 123.07 L425.958 125.034 L430.688 127.048 L435.419 129.111 L440.15 131.226 L444.881 133.394 
  L449.611 135.614 L454.342 137.89 L459.073 140.22 L463.804 142.607 L468.534 145.051 L473.265 147.554 L477.996 150.116 L482.726 152.738 L487.457 155.422 L492.188 158.168 
  L496.919 160.977 L501.649 163.851 L506.38 166.79 L511.111 169.794 L515.842 172.866 L520.572 176.006 L525.303 179.215 L530.034 182.493 L534.765 185.842 L539.495 189.263 
  L544.226 192.756 L548.957 196.322 L553.688 199.961 L558.418 203.676 L563.149 207.466 L567.88 211.332 L572.611 215.275 L577.341 219.295 L582.072 223.394 L586.803 227.571 
  L591.534 231.827 L596.264 236.163 L600.995 240.579 L605.726 245.076 L610.457 249.653 L615.187 254.312 L619.918 259.053 L624.649 263.876 L629.38 268.781 L634.11 273.768 
  L638.841 278.837 L643.572 283.988 L648.303 289.221 L653.033 294.536 L657.764 299.933 L662.495 305.412 L667.226 310.972 L671.956 316.613 L676.687 322.334 L681.418 328.135 
  L686.149 334.015 L690.879 339.974 L695.61 346.012 L700.341 352.126 L705.072 358.316 L709.802 364.581 L714.533 370.919 L719.264 377.331 L723.994 383.813 L728.725 390.365 
  L733.456 396.986 L738.187 403.674 L742.917 410.427 L747.648 417.244 L752.379 424.124 L757.11 431.064 L761.84 438.063 L766.571 445.118 L771.302 452.226 L776.033 459.387 
  L780.763 466.596 L785.494 473.852 L790.225 481.153 L794.956 488.495 L799.686 495.877 L804.417 503.296 L809.148 510.748 L813.879 518.232 L818.609 525.745 L823.34 533.284 
  L828.071 540.845 L832.802 548.427 L837.532 556.026 L842.263 563.64 L846.994 571.264 L851.725 578.896 L856.455 586.534 L861.186 594.172 L865.917 601.809 L870.648 609.442 
  L875.378 617.068 L880.109 624.683 L884.84 632.283 L889.571 639.865 L894.301 647.427 L899.032 654.965 L903.763 662.475 L908.494 669.956 L913.224 677.404 L917.955 684.816 
  L922.686 692.189 L927.417 699.522 L932.147 706.81 L936.878 714.052 L941.609 721.245 L946.34 728.386 L951.07 735.472 L955.801 742.502 L960.532 749.472 L965.262 756.38 
  L969.993 763.224 L974.724 770.001 L979.455 776.71 L984.185 783.349 L988.916 789.916 L993.647 796.409 L998.378 802.826 L1003.11 809.167 L1007.84 815.43 L1012.57 821.613 
  L1017.3 827.716 L1022.03 833.736 L1026.76 839.673 L1031.49 845.526 L1036.22 851.294 L1040.95 856.977 L1045.69 862.573 L1050.42 868.082 L1055.15 873.503 L1059.88 878.837 
  L1064.61 884.082 L1069.34 889.239 L1074.07 894.307 L1078.8 899.287 L1083.53 904.179 L1088.26 908.982 L1092.99 913.698 L1097.72 918.326 L1102.45 922.868 L1107.18 927.323 
  L1111.92 931.691 L1116.65 935.973 L1121.38 940.171 L1126.11 944.284 L1130.84 948.315 L1135.57 952.262 L1140.3 956.129 L1145.03 959.914 L1149.76 963.62 L1154.49 967.247 
  L1159.22 970.796 L1163.95 974.268 L1168.68 977.665 L1173.42 980.986 L1178.15 984.234 L1182.88 987.408 L1187.61 990.512 L1192.34 993.544 L1197.07 996.508 L1201.8 999.403 
  L1206.53 1002.23 L1211.26 1004.99 L1215.99 1007.69 L1220.72 1010.33 L1225.45 1012.91 L1230.18 1015.42 L1234.91 1017.88 L1239.65 1020.27 L1244.38 1022.62 L1249.11 1024.9 
  L1253.84 1027.13 L1258.57 1029.31 L1263.3 1031.44 L1268.03 1033.51 L1272.76 1035.54 L1277.49 1037.52 L1282.22 1039.45 L1286.95 1041.34 L1291.68 1043.18 L1296.41 1044.97 
  L1301.15 1046.73 L1305.88 1048.44 L1310.61 1050.11 L1315.34 1051.74 L1320.07 1053.34 L1324.8 1054.89 L1329.53 1056.42 L1334.26 1057.9 L1338.99 1059.35 L1343.72 1060.77 
  L1348.45 1062.15 L1353.18 1063.5 L1357.91 1064.82 L1362.65 1066.11 L1367.38 1067.37 L1372.11 1068.6 L1376.84 1069.8 L1381.57 1070.98 L1386.3 1072.13 L1391.03 1073.25 
  L1395.76 1074.35 L1400.49 1075.43 L1405.22 1076.48 L1409.95 1077.51 L1414.68 1078.51 L1419.41 1079.5 L1424.14 1080.46 L1428.88 1081.41 L1433.61 1082.33 L1438.34 1083.23 
  L1443.07 1084.12 L1447.8 1084.99 L1452.53 1085.84 L1457.26 1086.67 L1461.99 1087.49 L1466.72 1088.28 L1471.45 1089.07 L1476.18 1089.84 L1480.91 1090.59 L1485.64 1091.33 
  L1490.38 1092.05 L1495.11 1092.76 L1499.84 1093.46 L1504.57 1094.14 L1509.3 1094.82 L1514.03 1095.47 L1518.76 1096.12 L1523.49 1096.76 L1528.22 1097.38 L1532.95 1097.99 
  L1537.68 1098.59 L1542.41 1099.18 L1547.14 1099.77 L1551.87 1100.34 L1556.61 1100.9 L1561.34 1101.45 L1566.07 1101.99 L1570.8 1102.52 L1575.53 1103.05 L1580.26 1103.56 
  L1584.99 1104.07 L1589.72 1104.57 L1594.45 1105.06 L1599.18 1105.55 L1603.91 1106.02 L1608.64 1106.49 L1613.37 1106.95 L1618.11 1107.41 L1622.84 1107.86 L1627.57 1108.3 
  L1632.3 1108.73 L1637.03 1109.16 L1641.76 1109.58 L1646.49 1110 L1651.22 1110.41 L1655.95 1110.81 L1660.68 1111.21 L1665.41 1111.6 L1670.14 1111.99 L1674.87 1112.37 
  L1679.61 1112.74 L1684.34 1113.11 L1689.07 1113.48 L1693.8 1113.84 L1698.53 1114.19 L1703.26 1114.55 L1707.99 1114.89 L1712.72 1115.23 L1717.45 1115.57 L1722.18 1115.9 
  L1726.91 1116.23 L1731.64 1116.55 L1736.37 1116.87 L1741.1 1117.18 L1745.84 1117.5 L1750.57 1117.8 L1755.3 1118.1 L1760.03 1118.4 L1764.76 1118.7 L1769.49 1118.99 
  L1774.22 1119.28 L1778.95 1119.56 L1783.68 1119.84 L1788.41 1120.12 L1793.14 1120.39 L1797.87 1120.66 L1802.6 1120.92 L1807.34 1121.19 L1812.07 1121.45 L1816.8 1121.7 
  L1821.53 1121.96 L1826.26 1122.21 L1830.99 1122.45 L1835.72 1122.7 L1840.45 1122.94 L1845.18 1123.17 L1849.91 1123.41 L1854.64 1123.64 L1859.37 1123.87 L1864.1 1124.1 
  L1868.83 1124.32 L1873.57 1124.54 L1878.3 1124.76 L1883.03 1124.97 L1887.76 1125.18 L1892.49 1125.39 L1897.22 1125.6 L1901.95 1125.81 L1906.68 1126.01 L1911.41 1126.21 
  L1916.14 1126.4 L1920.87 1126.6 L1925.6 1126.79 L1930.33 1126.98 L1935.07 1127.17 L1939.8 1127.35 L1944.53 1127.53 L1949.26 1127.71 L1953.99 1127.89 L1958.72 1128.07 
  L1963.45 1128.24 L1968.18 1128.41 L1972.91 1128.58 L1977.64 1128.75 L1982.37 1128.91 L1987.1 1129.08 L1991.83 1129.24 L1996.56 1129.4 L2001.3 1129.55 L2006.03 1129.71 
  L2010.76 1129.86 L2015.49 1130.01 L2020.22 1130.16 L2024.95 1130.31 L2029.68 1130.45 L2034.41 1130.59 L2039.14 1130.74 L2043.87 1130.87 L2048.6 1131.01 L2053.33 1131.15 
  L2058.06 1131.28 L2062.8 1131.42 L2067.53 1131.55 L2072.26 1131.68 L2076.99 1131.8 L2081.72 1131.93 L2086.45 1132.05 L2091.18 1132.18 L2095.91 1132.3 L2100.64 1132.42 
  L2105.37 1132.53 L2110.1 1132.65 L2114.83 1132.77 L2119.56 1132.88 L2124.3 1132.99 L2129.03 1133.1 L2133.76 1133.21 L2138.49 1133.32 L2143.22 1133.42 L2147.95 1133.53 
  L2152.68 1133.63 L2157.41 1133.73 L2162.14 1133.83 L2166.87 1133.93 L2171.6 1134.03 L2176.33 1134.12 L2181.06 1134.22 L2185.79 1134.31 L2190.53 1134.41 L2195.26 1134.5 
  L2199.99 1134.59 L2199.99 983.66 L2195.26 983.368 L2190.53 983.071 L2185.79 982.77 L2181.06 982.463 L2176.33 982.152 L2171.6 981.837 L2166.87 981.516 L2162.14 981.19 
  L2157.41 980.859 L2152.68 980.523 L2147.95 980.181 L2143.22 979.834 L2138.49 979.482 L2133.76 979.124 L2129.03 978.76 L2124.3 978.391 L2119.56 978.016 L2114.83 977.634 
  L2110.1 977.247 L2105.37 976.853 L2100.64 976.453 L2095.91 976.047 L2091.18 975.634 L2086.45 975.215 L2081.72 974.788 L2076.99 974.355 L2072.26 973.915 L2067.53 973.468 
  L2062.8 973.013 L2058.06 972.551 L2053.33 972.082 L2048.6 971.605 L2043.87 971.12 L2039.14 970.628 L2034.41 970.127 L2029.68 969.618 L2024.95 969.101 L2020.22 968.575 
  L2015.49 968.041 L2010.76 967.498 L2006.03 966.947 L2001.3 966.386 L1996.56 965.816 L1991.83 965.237 L1987.1 964.649 L1982.37 964.051 L1977.64 963.443 L1972.91 962.826 
  L1968.18 962.198 L1963.45 961.56 L1958.72 960.912 L1953.99 960.254 L1949.26 959.585 L1944.53 958.905 L1939.8 958.214 L1935.07 957.511 L1930.33 956.798 L1925.6 956.072 
  L1920.87 955.335 L1916.14 954.586 L1911.41 953.824 L1906.68 953.05 L1901.95 952.264 L1897.22 951.464 L1892.49 950.652 L1887.76 949.826 L1883.03 948.987 L1878.3 948.134 
  L1873.57 947.267 L1868.83 946.386 L1864.1 945.49 L1859.37 944.58 L1854.64 943.655 L1849.91 942.715 L1845.18 941.759 L1840.45 940.787 L1835.72 939.8 L1830.99 938.797 
  L1826.26 937.777 L1821.53 936.74 L1816.8 935.686 L1812.07 934.615 L1807.34 933.527 L1802.6 932.42 L1797.87 931.296 L1793.14 930.153 L1788.41 928.992 L1783.68 927.811 
  L1778.95 926.612 L1774.22 925.392 L1769.49 924.152 L1764.76 922.893 L1760.03 921.612 L1755.3 920.311 L1750.57 918.989 L1745.84 917.645 L1741.1 916.279 L1736.37 914.891 
  L1731.64 913.481 L1726.91 912.048 L1722.18 910.591 L1717.45 909.111 L1712.72 907.607 L1707.99 906.079 L1703.26 904.525 L1698.53 902.947 L1693.8 901.344 L1689.07 899.714 
  L1684.34 898.059 L1679.61 896.376 L1674.87 894.667 L1670.14 892.93 L1665.41 891.165 L1660.68 889.373 L1655.95 887.551 L1651.22 885.7 L1646.49 883.82 L1641.76 881.91 
  L1637.03 879.97 L1632.3 877.999 L1627.57 875.996 L1622.84 873.963 L1618.11 871.897 L1613.37 869.798 L1608.64 867.667 L1603.91 865.502 L1599.18 863.303 L1594.45 861.07 
  L1589.72 858.803 L1584.99 856.5 L1580.26 854.162 L1575.53 851.787 L1570.8 849.376 L1566.07 846.928 L1561.34 844.443 L1556.61 841.92 L1551.87 839.358 L1547.14 836.758 
  L1542.41 834.118 L1537.68 831.439 L1532.95 828.72 L1528.22 825.96 L1523.49 823.16 L1518.76 820.318 L1514.03 817.434 L1509.3 814.508 L1504.57 811.539 L1499.84 808.527 
  L1495.11 805.471 L1490.38 802.372 L1485.64 799.228 L1480.91 796.039 L1476.18 792.805 L1471.45 789.525 L1466.72 786.2 L1461.99 782.829 L1457.26 779.411 L1452.53 775.945 
  L1447.8 772.433 L1443.07 768.872 L1438.34 765.263 L1433.61 761.606 L1428.88 757.9 L1424.14 754.145 L1419.41 750.341 L1414.68 746.488 L1409.95 742.585 L1405.22 738.633 
  L1400.49 734.631 L1395.76 730.578 L1391.03 726.476 L1386.3 722.324 L1381.57 718.121 L1376.84 713.869 L1372.11 709.566 L1367.38 705.212 L1362.65 700.809 L1357.91 696.355 
  L1353.18 691.851 L1348.45 687.296 L1343.72 682.691 L1338.99 678.037 L1334.26 673.333 L1329.53 668.58 L1324.8 663.779 L1320.07 658.928 L1315.34 654.029 L1310.61 649.081 
  L1305.88 644.087 L1301.15 639.045 L1296.41 633.956 L1291.68 628.822 L1286.95 623.642 L1282.22 618.418 L1277.49 613.15 L1272.76 607.839 L1268.03 602.485 L1263.3 597.091 
  L1258.57 591.656 L1253.84 586.182 L1249.11 580.669 L1244.38 575.119 L1239.65 569.534 L1234.91 563.913 L1230.18 558.258 L1225.45 552.571 L1220.72 546.852 L1215.99 541.103 
  L1211.26 535.326 L1206.53 529.522 L1201.8 523.692 L1197.07 517.84 L1192.34 511.966 L1187.61 506.071 L1182.88 500.159 L1178.15 494.229 L1173.42 488.286 L1168.68 482.329 
  L1163.95 476.362 L1159.22 470.385 L1154.49 464.402 L1149.76 458.413 L1145.03 452.422 L1140.3 446.43 L1135.57 440.439 L1130.84 434.451 L1126.11 428.469 L1121.38 422.495 
  L1116.65 416.532 L1111.92 410.581 L1107.18 404.646 L1102.45 398.729 L1097.72 392.831 L1092.99 386.955 L1088.26 381.103 L1083.53 375.278 L1078.8 369.482 L1074.07 363.718 
  L1069.34 357.988 L1064.61 352.295 L1059.88 346.64 L1055.15 341.027 L1050.42 335.457 L1045.69 329.932 L1040.95 324.454 L1036.22 319.026 L1031.49 313.65 L1026.76 308.327 
  L1022.03 303.059 L1017.3 297.849 L1012.57 292.697 L1007.84 287.606 L1003.11 282.578 L998.378 277.613 L993.647 272.715 L988.916 267.884 L984.185 263.122 L979.455 258.431 
  L974.724 253.811 L969.993 249.265 L965.262 244.794 L960.532 240.398 L955.801 236.078 L951.07 231.835 L946.34 227.67 L941.609 223.583 L936.878 219.575 L932.147 215.646 
  L927.417 211.796 L922.686 208.027 L917.955 204.339 L913.224 200.731 L908.494 197.203 L903.763 193.757 L899.032 190.391 L894.301 187.106 L889.571 183.902 L884.84 180.777 
  L880.109 177.732 L875.378 174.766 L870.648 171.879 L865.917 169.068 L861.186 166.334 L856.455 163.676 L851.725 161.093 L846.994 158.585 L842.263 156.149 L837.532 153.786 
  L832.802 151.493 L828.071 149.271 L823.34 147.117 L818.609 145.03 L813.879 143.011 L809.148 141.056 L804.417 139.165 L799.686 137.337 L794.956 135.57 L790.225 133.863 
  L785.494 132.214 L780.763 130.623 L776.033 129.088 L771.302 127.607 L766.571 126.179 L761.84 124.802 L757.11 123.475 L752.379 122.196 L747.648 120.963 L742.917 119.775 
  L738.187 118.631 L733.456 117.53 L728.725 116.47 L723.994 115.449 L719.264 114.467 L714.533 113.522 L709.802 112.613 L705.072 111.739 L700.341 110.898 L695.61 110.089 
  L690.879 109.31 L686.149 108.56 L681.418 107.839 L676.687 107.145 L671.956 106.476 L667.226 105.832 L662.495 105.212 L657.764 104.614 L653.033 104.039 L648.303 103.484 
  L643.572 102.948 L638.841 102.432 L634.11 101.933 L629.38 101.452 L624.649 100.986 L619.918 100.536 L615.187 100.1 L610.457 99.678 L605.726 99.2688 L600.995 98.8718 
  L596.264 98.4866 L591.534 98.1124 L586.803 97.7485 L582.072 97.3944 L577.341 97.0495 L572.611 96.7132 L567.88 96.385 L563.149 96.0644 L558.418 95.7509 L553.688 95.444 
  L548.957 95.1433 L544.226 94.8484 L539.495 94.5589 L534.765 94.2746 L530.034 93.9949 L525.303 93.7196 L520.572 93.4483 L515.842 93.1807 L511.111 92.9167 L506.38 92.6558 
  L501.649 92.3979 L496.919 92.1427 L492.188 91.8901 L487.457 91.6398 L482.726 91.3917 L477.996 91.1455 L473.265 90.9012 L468.534 90.6585 L463.804 90.4175 L459.073 90.1779 
  L454.342 89.9397 L449.611 89.7028 L444.881 89.4671 L440.15 89.2327 L435.419 88.9994 L430.688 88.7672 L425.958 88.5362 L421.227 88.3065 L416.496 88.0779 L411.765 87.8507 
  L407.035 87.6249 L402.304 87.4006 L397.573 87.178 L392.842 86.9573 L388.112 86.7388 L383.381 86.5228 L378.65 86.3096 L373.919 86.0997 L369.189 85.8938 L364.458 85.6923 
  L359.727 85.4964 L354.996 85.3071 L350.266 85.1258 L345.535 84.9544 L340.804 84.7955 L336.073 84.6528 L331.343 84.5315 L326.612 84.44 L321.881 84.3925 L317.15 84.4175 
  L312.42 84.5904 L307.689 85.7393  Z
  " fill="#009af9" fill-rule="evenodd" fill-opacity="0.5"/>
<polyline clip-path="url(#clip412)" style="stroke:#009af9; stroke-width:4; stroke-opacity:1; fill:none" points="
  307.689,85.7393 312.42,86.3643 317.15,87.0045 321.881,87.6603 326.612,88.3318 331.343,89.0196 336.073,89.724 340.804,90.4452 345.535,91.1838 350.266,91.9401 
  354.996,92.7145 359.727,93.5073 364.458,94.3191 369.189,95.1501 373.919,96.0008 378.65,96.8717 383.381,97.7631 388.112,98.6755 392.842,99.6093 397.573,100.565 
  402.304,101.543 407.035,102.544 411.765,103.568 416.496,104.616 421.227,105.688 425.958,106.785 430.688,107.907 435.419,109.055 440.15,110.23 444.881,111.43 
  449.611,112.659 454.342,113.915 459.073,115.199 463.804,116.512 468.534,117.855 473.265,119.227 477.996,120.631 482.726,122.065 487.457,123.531 492.188,125.029 
  496.919,126.56 501.649,128.124 506.38,129.723 511.111,131.356 515.842,133.024 520.572,134.727 525.303,136.467 530.034,138.244 534.765,140.058 539.495,141.911 
  544.226,143.802 548.957,145.732 553.688,147.703 558.418,149.713 563.149,151.765 567.88,153.858 572.611,155.994 577.341,158.172 582.072,160.394 586.803,162.66 
  591.534,164.97 596.264,167.325 600.995,169.725 605.726,172.172 610.457,174.666 615.187,177.206 619.918,179.795 624.649,182.431 629.38,185.116 634.11,187.85 
  638.841,190.634 643.572,193.468 648.303,196.352 653.033,199.288 657.764,202.274 662.495,205.312 667.226,208.402 671.956,211.544 676.687,214.739 681.418,217.987 
  686.149,221.288 690.879,224.642 695.61,228.05 700.341,231.512 705.072,235.027 709.802,238.597 714.533,242.221 719.264,245.899 723.994,249.631 728.725,253.417 
  733.456,257.258 738.187,261.153 742.917,265.101 747.648,269.104 752.379,273.16 757.11,277.27 761.84,281.433 766.571,285.648 771.302,289.917 776.033,294.237 
  780.763,298.61 785.494,303.033 790.225,307.508 794.956,312.032 799.686,316.607 804.417,321.23 809.148,325.902 813.879,330.621 818.609,335.388 823.34,340.2 
  828.071,345.058 832.802,349.96 837.532,354.906 842.263,359.894 846.994,364.924 851.725,369.995 856.455,375.105 861.186,380.253 865.917,385.439 870.648,390.66 
  875.378,395.917 880.109,401.207 884.84,406.53 889.571,411.884 894.301,417.267 899.032,422.678 903.763,428.116 908.494,433.58 913.224,439.067 917.955,444.577 
  922.686,450.108 927.417,455.659 932.147,461.228 936.878,466.813 941.609,472.414 946.34,478.028 951.07,483.654 955.801,489.29 960.532,494.935 965.262,500.587 
  969.993,506.244 974.724,511.906 979.455,517.57 984.185,523.235 988.916,528.9 993.647,534.562 998.378,540.22 1003.11,545.873 1007.84,551.518 1012.57,557.155 
  1017.3,562.782 1022.03,568.397 1026.76,574 1031.49,579.588 1036.22,585.16 1040.95,590.716 1045.69,596.252 1050.42,601.769 1055.15,607.265 1059.88,612.739 
  1064.61,618.188 1069.34,623.614 1074.07,629.013 1078.8,634.385 1083.53,639.728 1088.26,645.043 1092.99,650.327 1097.72,655.579 1102.45,660.798 1107.18,665.984 
  1111.92,671.136 1116.65,676.253 1121.38,681.333 1126.11,686.377 1130.84,691.383 1135.57,696.35 1140.3,701.279 1145.03,706.168 1149.76,711.017 1154.49,715.824 
  1159.22,720.591 1163.95,725.315 1168.68,729.997 1173.42,734.636 1178.15,739.232 1182.88,743.783 1187.61,748.291 1192.34,752.755 1197.07,757.174 1201.8,761.548 
  1206.53,765.877 1211.26,770.16 1215.99,774.398 1220.72,778.591 1225.45,782.738 1230.18,786.839 1234.91,790.894 1239.65,794.904 1244.38,798.867 1249.11,802.785 
  1253.84,806.657 1258.57,810.483 1263.3,814.264 1268.03,818 1272.76,821.689 1277.49,825.334 1282.22,828.934 1286.95,832.489 1291.68,835.999 1296.41,839.464 
  1301.15,842.886 1305.88,846.263 1310.61,849.596 1315.34,852.886 1320.07,856.133 1324.8,859.337 1329.53,862.498 1334.26,865.616 1338.99,868.693 1343.72,871.728 
  1348.45,874.722 1353.18,877.675 1357.91,880.587 1362.65,883.459 1367.38,886.29 1372.11,889.083 1376.84,891.836 1381.57,894.551 1386.3,897.227 1391.03,899.865 
  1395.76,902.466 1400.49,905.029 1405.22,907.556 1409.95,910.047 1414.68,912.501 1419.41,914.92 1424.14,917.304 1428.88,919.653 1433.61,921.968 1438.34,924.248 
  1443.07,926.496 1447.8,928.71 1452.53,930.891 1457.26,933.04 1461.99,935.157 1466.72,937.243 1471.45,939.297 1476.18,941.321 1480.91,943.314 1485.64,945.278 
  1490.38,947.212 1495.11,949.117 1499.84,950.993 1504.57,952.841 1509.3,954.661 1514.03,956.454 1518.76,958.219 1523.49,959.958 1528.22,961.67 1532.95,963.356 
  1537.68,965.016 1542.41,966.651 1547.14,968.262 1551.87,969.847 1556.61,971.408 1561.34,972.946 1566.07,974.46 1570.8,975.95 1575.53,977.418 1580.26,978.863 
  1584.99,980.286 1589.72,981.687 1594.45,983.067 1599.18,984.425 1603.91,985.763 1608.64,987.08 1613.37,988.376 1618.11,989.653 1622.84,990.909 1627.57,992.147 
  1632.3,993.365 1637.03,994.565 1641.76,995.746 1646.49,996.909 1651.22,998.053 1655.95,999.18 1660.68,1000.29 1665.41,1001.38 1670.14,1002.46 1674.87,1003.52 
  1679.61,1004.56 1684.34,1005.59 1689.07,1006.6 1693.8,1007.59 1698.53,1008.57 1703.26,1009.54 1707.99,1010.48 1712.72,1011.42 1717.45,1012.34 1722.18,1013.25 
  1726.91,1014.14 1731.64,1015.02 1736.37,1015.88 1741.1,1016.73 1745.84,1017.57 1750.57,1018.4 1755.3,1019.21 1760.03,1020.01 1764.76,1020.79 1769.49,1021.57 
  1774.22,1022.33 1778.95,1023.09 1783.68,1023.83 1788.41,1024.55 1793.14,1025.27 1797.87,1025.98 1802.6,1026.67 1807.34,1027.36 1812.07,1028.03 1816.8,1028.69 
  1821.53,1029.35 1826.26,1029.99 1830.99,1030.62 1835.72,1031.25 1840.45,1031.86 1845.18,1032.47 1849.91,1033.06 1854.64,1033.65 1859.37,1034.23 1864.1,1034.79 
  1868.83,1035.35 1873.57,1035.9 1878.3,1036.45 1883.03,1036.98 1887.76,1037.51 1892.49,1038.02 1897.22,1038.53 1901.95,1039.03 1906.68,1039.53 1911.41,1040.02 
  1916.14,1040.49 1920.87,1040.97 1925.6,1041.43 1930.33,1041.89 1935.07,1042.34 1939.8,1042.78 1944.53,1043.22 1949.26,1043.65 1953.99,1044.07 1958.72,1044.49 
  1963.45,1044.9 1968.18,1045.31 1972.91,1045.7 1977.64,1046.1 1982.37,1046.48 1987.1,1046.86 1991.83,1047.24 1996.56,1047.61 2001.3,1047.97 2006.03,1048.33 
  2010.76,1048.68 2015.49,1049.03 2020.22,1049.37 2024.95,1049.7 2029.68,1050.03 2034.41,1050.36 2039.14,1050.68 2043.87,1051 2048.6,1051.31 2053.33,1051.62 
  2058.06,1051.92 2062.8,1052.21 2067.53,1052.51 2072.26,1052.8 2076.99,1053.08 2081.72,1053.36 2086.45,1053.63 2091.18,1053.91 2095.91,1054.17 2100.64,1054.43 
  2105.37,1054.69 2110.1,1054.95 2114.83,1055.2 2119.56,1055.45 2124.3,1055.69 2129.03,1055.93 2133.76,1056.17 2138.49,1056.4 2143.22,1056.63 2147.95,1056.85 
  2152.68,1057.08 2157.41,1057.3 2162.14,1057.51 2166.87,1057.72 2171.6,1057.93 2176.33,1058.14 2181.06,1058.34 2185.79,1058.54 2190.53,1058.74 2195.26,1058.93 
  2199.99,1059.12 
  "/>
<path clip-path="url(#clip412)" d="
M307.689 1308.45 L312.42 1310.29 L317.15 1310.92 L321.881 1311.36 L326.612 1311.71 L331.343 1312 L336.073 1312.24 L340.804 1312.46 L345.535 1312.66 L350.266 1312.84 
  L354.996 1313 L359.727 1313.16 L364.458 1313.3 L369.189 1313.43 L373.919 1313.56 L378.65 1313.68 L383.381 1313.79 L388.112 1313.9 L392.842 1314 L397.573 1314.1 
  L402.304 1314.2 L407.035 1314.29 L411.765 1314.38 L416.496 1314.47 L421.227 1314.55 L425.958 1314.63 L430.688 1314.71 L435.419 1314.78 L440.15 1314.86 L444.881 1314.93 
  L449.611 1315 L454.342 1315.06 L459.073 1315.13 L463.804 1315.19 L468.534 1315.25 L473.265 1315.31 L477.996 1315.36 L482.726 1315.42 L487.457 1315.47 L492.188 1315.51 
  L496.919 1315.56 L501.649 1315.6 L506.38 1315.64 L511.111 1315.68 L515.842 1315.71 L520.572 1315.74 L525.303 1315.77 L530.034 1315.79 L534.765 1315.81 L539.495 1315.83 
  L544.226 1315.84 L548.957 1315.85 L553.688 1315.85 L558.418 1315.84 L563.149 1315.84 L567.88 1315.82 L572.611 1315.8 L577.341 1315.77 L582.072 1315.74 L586.803 1315.7 
  L591.534 1315.65 L596.264 1315.6 L600.995 1315.53 L605.726 1315.46 L610.457 1315.38 L615.187 1315.29 L619.918 1315.19 L624.649 1315.07 L629.38 1314.95 L634.11 1314.82 
  L638.841 1314.67 L643.572 1314.52 L648.303 1314.34 L653.033 1314.16 L657.764 1313.96 L662.495 1313.75 L667.226 1313.52 L671.956 1313.27 L676.687 1313.01 L681.418 1312.73 
  L686.149 1312.44 L690.879 1312.12 L695.61 1311.79 L700.341 1311.43 L705.072 1311.06 L709.802 1310.66 L714.533 1310.24 L719.264 1309.8 L723.994 1309.33 L728.725 1308.85 
  L733.456 1308.33 L738.187 1307.79 L742.917 1307.23 L747.648 1306.63 L752.379 1306.02 L757.11 1305.37 L761.84 1304.69 L766.571 1303.99 L771.302 1303.25 L776.033 1302.49 
  L780.763 1301.69 L785.494 1300.86 L790.225 1299.99 L794.956 1299.1 L799.686 1298.17 L804.417 1297.2 L809.148 1296.21 L813.879 1295.17 L818.609 1294.11 L823.34 1293 
  L828.071 1291.87 L832.802 1290.69 L837.532 1289.49 L842.263 1288.24 L846.994 1286.96 L851.725 1285.65 L856.455 1284.3 L861.186 1282.92 L865.917 1281.49 L870.648 1280.04 
  L875.378 1278.55 L880.109 1277.02 L884.84 1275.46 L889.571 1273.87 L894.301 1272.24 L899.032 1270.59 L903.763 1268.9 L908.494 1267.18 L913.224 1265.43 L917.955 1263.66 
  L922.686 1261.85 L927.417 1260.03 L932.147 1258.17 L936.878 1256.29 L941.609 1254.39 L946.34 1252.47 L951.07 1250.53 L955.801 1248.58 L960.532 1246.6 L965.262 1244.61 
  L969.993 1242.61 L974.724 1240.6 L979.455 1238.58 L984.185 1236.55 L988.916 1234.52 L993.647 1232.48 L998.378 1230.45 L1003.11 1228.41 L1007.84 1226.39 L1012.57 1224.36 
  L1017.3 1222.35 L1022.03 1220.36 L1026.76 1218.37 L1031.49 1216.41 L1036.22 1214.46 L1040.95 1212.53 L1045.69 1210.63 L1050.42 1208.76 L1055.15 1206.91 L1059.88 1205.1 
  L1064.61 1203.32 L1069.34 1201.58 L1074.07 1199.87 L1078.8 1198.21 L1083.53 1196.6 L1088.26 1195.03 L1092.99 1193.52 L1097.72 1192.06 L1102.45 1190.67 L1107.18 1189.33 
  L1111.92 1188.05 L1116.65 1186.85 L1121.38 1185.71 L1126.11 1184.64 L1130.84 1183.64 L1135.57 1182.71 L1140.3 1181.87 L1145.03 1181.1 L1149.76 1180.41 L1154.49 1179.8 
  L1159.22 1179.28 L1163.95 1178.84 L1168.68 1178.49 L1173.42 1178.22 L1178.15 1178.04 L1182.88 1177.95 L1187.61 1177.94 L1192.34 1178.02 L1197.07 1178.18 L1201.8 1178.43 
  L1206.53 1178.76 L1211.26 1179.17 L1215.99 1179.66 L1220.72 1180.22 L1225.45 1180.86 L1230.18 1181.56 L1234.91 1182.34 L1239.65 1183.18 L1244.38 1184.08 L1249.11 1185.04 
  L1253.84 1186.05 L1258.57 1187.12 L1263.3 1188.24 L1268.03 1189.4 L1272.76 1190.6 L1277.49 1191.84 L1282.22 1193.12 L1286.95 1194.43 L1291.68 1195.78 L1296.41 1197.15 
  L1301.15 1198.54 L1305.88 1199.96 L1310.61 1201.4 L1315.34 1202.86 L1320.07 1204.33 L1324.8 1205.82 L1329.53 1207.32 L1334.26 1208.83 L1338.99 1210.34 L1343.72 1211.87 
  L1348.45 1213.39 L1353.18 1214.92 L1357.91 1216.45 L1362.65 1217.98 L1367.38 1219.5 L1372.11 1221.03 L1376.84 1222.55 L1381.57 1224.06 L1386.3 1225.57 L1391.03 1227.08 
  L1395.76 1228.57 L1400.49 1230.06 L1405.22 1231.54 L1409.95 1233.01 L1414.68 1234.47 L1419.41 1235.92 L1424.14 1237.36 L1428.88 1238.78 L1433.61 1240.19 L1438.34 1241.59 
  L1443.07 1242.98 L1447.8 1244.35 L1452.53 1245.71 L1457.26 1247.05 L1461.99 1248.38 L1466.72 1249.69 L1471.45 1250.99 L1476.18 1252.28 L1480.91 1253.55 L1485.64 1254.8 
  L1490.38 1256.03 L1495.11 1257.26 L1499.84 1258.46 L1504.57 1259.65 L1509.3 1260.82 L1514.03 1261.98 L1518.76 1263.12 L1523.49 1264.25 L1528.22 1265.36 L1532.95 1266.46 
  L1537.68 1267.53 L1542.41 1268.6 L1547.14 1269.65 L1551.87 1270.68 L1556.61 1271.69 L1561.34 1272.7 L1566.07 1273.68 L1570.8 1274.65 L1575.53 1275.61 L1580.26 1276.55 
  L1584.99 1277.47 L1589.72 1278.38 L1594.45 1279.28 L1599.18 1280.16 L1603.91 1281.03 L1608.64 1281.88 L1613.37 1282.72 L1618.11 1283.54 L1622.84 1284.35 L1627.57 1285.15 
  L1632.3 1285.93 L1637.03 1286.7 L1641.76 1287.46 L1646.49 1288.21 L1651.22 1288.94 L1655.95 1289.66 L1660.68 1290.37 L1665.41 1291.06 L1670.14 1291.74 L1674.87 1292.41 
  L1679.61 1293.07 L1684.34 1293.72 L1689.07 1294.35 L1693.8 1294.98 L1698.53 1295.59 L1703.26 1296.19 L1707.99 1296.78 L1712.72 1297.36 L1717.45 1297.93 L1722.18 1298.49 
  L1726.91 1299.04 L1731.64 1299.57 L1736.37 1300.1 L1741.1 1300.62 L1745.84 1301.13 L1750.57 1301.63 L1755.3 1302.12 L1760.03 1302.6 L1764.76 1303.07 L1769.49 1303.53 
  L1774.22 1303.99 L1778.95 1304.43 L1783.68 1304.87 L1788.41 1305.3 L1793.14 1305.72 L1797.87 1306.13 L1802.6 1306.54 L1807.34 1306.93 L1812.07 1307.32 L1816.8 1307.71 
  L1821.53 1308.08 L1826.26 1308.45 L1830.99 1308.81 L1835.72 1309.16 L1840.45 1309.51 L1845.18 1309.85 L1849.91 1310.18 L1854.64 1310.51 L1859.37 1310.83 L1864.1 1311.14 
  L1868.83 1311.45 L1873.57 1311.75 L1878.3 1312.05 L1883.03 1312.34 L1887.76 1312.62 L1892.49 1312.9 L1897.22 1313.18 L1901.95 1313.44 L1906.68 1313.71 L1911.41 1313.96 
  L1916.14 1314.21 L1920.87 1314.46 L1925.6 1314.7 L1930.33 1314.94 L1935.07 1315.17 L1939.8 1315.4 L1944.53 1315.62 L1949.26 1315.84 L1953.99 1316.05 L1958.72 1316.26 
  L1963.45 1316.47 L1968.18 1316.67 L1972.91 1316.86 L1977.64 1317.06 L1982.37 1317.24 L1987.1 1317.43 L1991.83 1317.61 L1996.56 1317.78 L2001.3 1317.96 L2006.03 1318.12 
  L2010.76 1318.29 L2015.49 1318.45 L2020.22 1318.61 L2024.95 1318.77 L2029.68 1318.92 L2034.41 1319.07 L2039.14 1319.21 L2043.87 1319.35 L2048.6 1319.49 L2053.33 1319.63 
  L2058.06 1319.76 L2062.8 1319.89 L2067.53 1320.02 L2072.26 1320.15 L2076.99 1320.27 L2081.72 1320.39 L2086.45 1320.51 L2091.18 1320.63 L2095.91 1320.74 L2100.64 1320.85 
  L2105.37 1320.96 L2110.1 1321.06 L2114.83 1321.17 L2119.56 1321.27 L2124.3 1321.37 L2129.03 1321.47 L2133.76 1321.56 L2138.49 1321.65 L2143.22 1321.75 L2147.95 1321.83 
  L2152.68 1321.92 L2157.41 1322 L2162.14 1322.09 L2166.87 1322.17 L2171.6 1322.25 L2176.33 1322.32 L2181.06 1322.39 L2185.79 1322.47 L2190.53 1322.54 L2195.26 1322.6 
  L2199.99 1322.67 L2199.99 1283.07 L2195.26 1282.61 L2190.53 1282.14 L2185.79 1281.67 L2181.06 1281.19 L2176.33 1280.71 L2171.6 1280.22 L2166.87 1279.72 L2162.14 1279.22 
  L2157.41 1278.71 L2152.68 1278.2 L2147.95 1277.68 L2143.22 1277.15 L2138.49 1276.62 L2133.76 1276.08 L2129.03 1275.54 L2124.3 1274.99 L2119.56 1274.43 L2114.83 1273.86 
  L2110.1 1273.29 L2105.37 1272.71 L2100.64 1272.12 L2095.91 1271.53 L2091.18 1270.93 L2086.45 1270.32 L2081.72 1269.7 L2076.99 1269.08 L2072.26 1268.45 L2067.53 1267.81 
  L2062.8 1267.16 L2058.06 1266.51 L2053.33 1265.85 L2048.6 1265.18 L2043.87 1264.5 L2039.14 1263.81 L2034.41 1263.12 L2029.68 1262.42 L2024.95 1261.71 L2020.22 1260.99 
  L2015.49 1260.26 L2010.76 1259.53 L2006.03 1258.78 L2001.3 1258.03 L1996.56 1257.27 L1991.83 1256.5 L1987.1 1255.73 L1982.37 1254.94 L1977.64 1254.15 L1972.91 1253.34 
  L1968.18 1252.53 L1963.45 1251.71 L1958.72 1250.88 L1953.99 1250.05 L1949.26 1249.2 L1944.53 1248.34 L1939.8 1247.48 L1935.07 1246.61 L1930.33 1245.72 L1925.6 1244.83 
  L1920.87 1243.93 L1916.14 1243.02 L1911.41 1242.1 L1906.68 1241.17 L1901.95 1240.23 L1897.22 1239.28 L1892.49 1238.33 L1887.76 1237.36 L1883.03 1236.38 L1878.3 1235.4 
  L1873.57 1234.4 L1868.83 1233.39 L1864.1 1232.38 L1859.37 1231.35 L1854.64 1230.32 L1849.91 1229.28 L1845.18 1228.22 L1840.45 1227.16 L1835.72 1226.09 L1830.99 1225.01 
  L1826.26 1223.91 L1821.53 1222.81 L1816.8 1221.7 L1812.07 1220.58 L1807.34 1219.45 L1802.6 1218.31 L1797.87 1217.16 L1793.14 1216.01 L1788.41 1214.84 L1783.68 1213.66 
  L1778.95 1212.47 L1774.22 1211.28 L1769.49 1210.07 L1764.76 1208.86 L1760.03 1207.64 L1755.3 1206.41 L1750.57 1205.17 L1745.84 1203.92 L1741.1 1202.66 L1736.37 1201.39 
  L1731.64 1200.12 L1726.91 1198.84 L1722.18 1197.55 L1717.45 1196.25 L1712.72 1194.94 L1707.99 1193.63 L1703.26 1192.31 L1698.53 1190.98 L1693.8 1189.64 L1689.07 1188.3 
  L1684.34 1186.95 L1679.61 1185.6 L1674.87 1184.24 L1670.14 1182.87 L1665.41 1181.5 L1660.68 1180.12 L1655.95 1178.73 L1651.22 1177.34 L1646.49 1175.95 L1641.76 1174.55 
  L1637.03 1173.15 L1632.3 1171.74 L1627.57 1170.33 L1622.84 1168.91 L1618.11 1167.5 L1613.37 1166.08 L1608.64 1164.65 L1603.91 1163.23 L1599.18 1161.8 L1594.45 1160.37 
  L1589.72 1158.94 L1584.99 1157.51 L1580.26 1156.08 L1575.53 1154.65 L1570.8 1153.22 L1566.07 1151.8 L1561.34 1150.37 L1556.61 1148.95 L1551.87 1147.52 L1547.14 1146.1 
  L1542.41 1144.69 L1537.68 1143.28 L1532.95 1141.87 L1528.22 1140.47 L1523.49 1139.07 L1518.76 1137.68 L1514.03 1136.29 L1509.3 1134.92 L1504.57 1133.55 L1499.84 1132.18 
  L1495.11 1130.83 L1490.38 1129.48 L1485.64 1128.15 L1480.91 1126.82 L1476.18 1125.51 L1471.45 1124.21 L1466.72 1122.92 L1461.99 1121.64 L1457.26 1120.37 L1452.53 1119.12 
  L1447.8 1117.88 L1443.07 1116.66 L1438.34 1115.45 L1433.61 1114.26 L1428.88 1113.08 L1424.14 1111.92 L1419.41 1110.78 L1414.68 1109.66 L1409.95 1108.55 L1405.22 1107.46 
  L1400.49 1106.39 L1395.76 1105.34 L1391.03 1104.31 L1386.3 1103.29 L1381.57 1102.3 L1376.84 1101.33 L1372.11 1100.37 L1367.38 1099.44 L1362.65 1098.53 L1357.91 1097.64 
  L1353.18 1096.77 L1348.45 1095.92 L1343.72 1095.09 L1338.99 1094.28 L1334.26 1093.48 L1329.53 1092.71 L1324.8 1091.96 L1320.07 1091.23 L1315.34 1090.51 L1310.61 1089.81 
  L1305.88 1089.12 L1301.15 1088.45 L1296.41 1087.79 L1291.68 1087.14 L1286.95 1086.51 L1282.22 1085.88 L1277.49 1085.27 L1272.76 1084.66 L1268.03 1084.05 L1263.3 1083.45 
  L1258.57 1082.85 L1253.84 1082.25 L1249.11 1081.65 L1244.38 1081.05 L1239.65 1080.44 L1234.91 1079.83 L1230.18 1079.2 L1225.45 1078.57 L1220.72 1077.92 L1215.99 1077.26 
  L1211.26 1076.59 L1206.53 1075.9 L1201.8 1075.19 L1197.07 1074.47 L1192.34 1073.73 L1187.61 1072.97 L1182.88 1072.2 L1178.15 1071.4 L1173.42 1070.6 L1168.68 1069.77 
  L1163.95 1068.94 L1159.22 1068.09 L1154.49 1067.24 L1149.76 1066.37 L1145.03 1065.5 L1140.3 1064.63 L1135.57 1063.75 L1130.84 1062.88 L1126.11 1062.01 L1121.38 1061.15 
  L1116.65 1060.3 L1111.92 1059.46 L1107.18 1058.64 L1102.45 1057.83 L1097.72 1057.05 L1092.99 1056.28 L1088.26 1055.55 L1083.53 1054.84 L1078.8 1054.16 L1074.07 1053.52 
  L1069.34 1052.92 L1064.61 1052.36 L1059.88 1051.84 L1055.15 1051.37 L1050.42 1050.94 L1045.69 1050.57 L1040.95 1050.24 L1036.22 1049.97 L1031.49 1049.75 L1026.76 1049.59 
  L1022.03 1049.49 L1017.3 1049.45 L1012.57 1049.47 L1007.84 1049.55 L1003.11 1049.69 L998.378 1049.89 L993.647 1050.16 L988.916 1050.5 L984.185 1050.91 L979.455 1051.38 
  L974.724 1051.92 L969.993 1052.53 L965.262 1053.21 L960.532 1053.96 L955.801 1054.78 L951.07 1055.67 L946.34 1056.62 L941.609 1057.65 L936.878 1058.74 L932.147 1059.9 
  L927.417 1061.13 L922.686 1062.42 L917.955 1063.78 L913.224 1065.21 L908.494 1066.69 L903.763 1068.24 L899.032 1069.86 L894.301 1071.53 L889.571 1073.26 L884.84 1075.05 
  L880.109 1076.89 L875.378 1078.79 L870.648 1080.74 L865.917 1082.75 L861.186 1084.8 L856.455 1086.9 L851.725 1089.05 L846.994 1091.24 L842.263 1093.47 L837.532 1095.75 
  L832.802 1098.06 L828.071 1100.41 L823.34 1102.79 L818.609 1105.21 L813.879 1107.65 L809.148 1110.13 L804.417 1112.63 L799.686 1115.15 L794.956 1117.7 L790.225 1120.27 
  L785.494 1122.86 L780.763 1125.47 L776.033 1128.09 L771.302 1130.72 L766.571 1133.37 L761.84 1136.03 L757.11 1138.69 L752.379 1141.36 L747.648 1144.03 L742.917 1146.71 
  L738.187 1149.38 L733.456 1152.06 L728.725 1154.73 L723.994 1157.39 L719.264 1160.05 L714.533 1162.71 L709.802 1165.35 L705.072 1167.99 L700.341 1170.61 L695.61 1173.22 
  L690.879 1175.82 L686.149 1178.4 L681.418 1180.96 L676.687 1183.51 L671.956 1186.04 L667.226 1188.55 L662.495 1191.04 L657.764 1193.51 L653.033 1195.96 L648.303 1198.38 
  L643.572 1200.79 L638.841 1203.16 L634.11 1205.52 L629.38 1207.84 L624.649 1210.15 L619.918 1212.42 L615.187 1214.67 L610.457 1216.89 L605.726 1219.09 L600.995 1221.25 
  L596.264 1223.39 L591.534 1225.5 L586.803 1227.58 L582.072 1229.64 L577.341 1231.66 L572.611 1233.65 L567.88 1235.62 L563.149 1237.56 L558.418 1239.46 L553.688 1241.34 
  L548.957 1243.19 L544.226 1245.01 L539.495 1246.8 L534.765 1248.56 L530.034 1250.29 L525.303 1252 L520.572 1253.67 L515.842 1255.32 L511.111 1256.94 L506.38 1258.53 
  L501.649 1260.09 L496.919 1261.63 L492.188 1263.14 L487.457 1264.62 L482.726 1266.08 L477.996 1267.51 L473.265 1268.91 L468.534 1270.29 L463.804 1271.64 L459.073 1272.97 
  L454.342 1274.28 L449.611 1275.56 L444.881 1276.82 L440.15 1278.05 L435.419 1279.26 L430.688 1280.45 L425.958 1281.62 L421.227 1282.77 L416.496 1283.9 L411.765 1285 
  L407.035 1286.09 L402.304 1287.16 L397.573 1288.21 L392.842 1289.25 L388.112 1290.27 L383.381 1291.27 L378.65 1292.25 L373.919 1293.23 L369.189 1294.19 L364.458 1295.14 
  L359.727 1296.08 L354.996 1297.01 L350.266 1297.94 L345.535 1298.86 L340.804 1299.79 L336.073 1300.72 L331.343 1301.66 L326.612 1302.63 L321.881 1303.64 L317.15 1304.73 
  L312.42 1305.99 L307.689 1308.45  Z
  " fill="#e26f46" fill-rule="evenodd" fill-opacity="0.5"/>
<polyline clip-path="url(#clip412)" style="stroke:#e26f46; stroke-width:4; stroke-opacity:1; fill:none" points="
  307.689,1308.45 312.42,1308.14 317.15,1307.82 321.881,1307.5 326.612,1307.17 331.343,1306.83 336.073,1306.48 340.804,1306.13 345.535,1305.76 350.266,1305.39 
  354.996,1305.01 359.727,1304.62 364.458,1304.22 369.189,1303.81 373.919,1303.39 378.65,1302.97 383.381,1302.53 388.112,1302.08 392.842,1301.63 397.573,1301.16 
  402.304,1300.68 407.035,1300.19 411.765,1299.69 416.496,1299.18 421.227,1298.66 425.958,1298.13 430.688,1297.58 435.419,1297.02 440.15,1296.45 444.881,1295.87 
  449.611,1295.28 454.342,1294.67 459.073,1294.05 463.804,1293.42 468.534,1292.77 473.265,1292.11 477.996,1291.43 482.726,1290.75 487.457,1290.04 492.188,1289.33 
  496.919,1288.59 501.649,1287.85 506.38,1287.09 511.111,1286.31 515.842,1285.52 520.572,1284.71 525.303,1283.88 530.034,1283.04 534.765,1282.19 539.495,1281.31 
  544.226,1280.42 548.957,1279.52 553.688,1278.59 558.418,1277.65 563.149,1276.7 567.88,1275.72 572.611,1274.73 577.341,1273.72 582.072,1272.69 586.803,1271.64 
  591.534,1270.58 596.264,1269.49 600.995,1268.39 605.726,1267.27 610.457,1266.14 615.187,1264.98 619.918,1263.8 624.649,1262.61 629.38,1261.4 634.11,1260.17 
  638.841,1258.92 643.572,1257.65 648.303,1256.36 653.033,1255.06 657.764,1253.74 662.495,1252.39 667.226,1251.03 671.956,1249.66 676.687,1248.26 681.418,1246.85 
  686.149,1245.42 690.879,1243.97 695.61,1242.5 700.341,1241.02 705.072,1239.52 709.802,1238.01 714.533,1236.47 719.264,1234.93 723.994,1233.36 728.725,1231.79 
  733.456,1230.19 738.187,1228.59 742.917,1226.97 747.648,1225.33 752.379,1223.69 757.11,1222.03 761.84,1220.36 766.571,1218.68 771.302,1216.99 776.033,1215.29 
  780.763,1213.58 785.494,1211.86 790.225,1210.13 794.956,1208.4 799.686,1206.66 804.417,1204.92 809.148,1203.17 813.879,1201.41 818.609,1199.66 823.34,1197.9 
  828.071,1196.14 832.802,1194.38 837.532,1192.62 842.263,1190.86 846.994,1189.1 851.725,1187.35 856.455,1185.6 861.186,1183.86 865.917,1182.12 870.648,1180.39 
  875.378,1178.67 880.109,1176.96 884.84,1175.25 889.571,1173.56 894.301,1171.89 899.032,1170.22 903.763,1168.57 908.494,1166.94 913.224,1165.32 917.955,1163.72 
  922.686,1162.14 927.417,1160.58 932.147,1159.04 936.878,1157.52 941.609,1156.02 946.34,1154.55 951.07,1153.1 955.801,1151.68 960.532,1150.28 965.262,1148.91 
  969.993,1147.57 974.724,1146.26 979.455,1144.98 984.185,1143.73 988.916,1142.51 993.647,1141.32 998.378,1140.17 1003.11,1139.05 1007.84,1137.97 1012.57,1136.92 
  1017.3,1135.9 1022.03,1134.92 1026.76,1133.98 1031.49,1133.08 1036.22,1132.21 1040.95,1131.39 1045.69,1130.6 1050.42,1129.85 1055.15,1129.14 1059.88,1128.47 
  1064.61,1127.84 1069.34,1127.25 1074.07,1126.7 1078.8,1126.19 1083.53,1125.72 1088.26,1125.29 1092.99,1124.9 1097.72,1124.56 1102.45,1124.25 1107.18,1123.98 
  1111.92,1123.76 1116.65,1123.57 1121.38,1123.43 1126.11,1123.32 1130.84,1123.26 1135.57,1123.23 1140.3,1123.25 1145.03,1123.3 1149.76,1123.39 1154.49,1123.52 
  1159.22,1123.69 1163.95,1123.89 1168.68,1124.13 1173.42,1124.41 1178.15,1124.72 1182.88,1125.07 1187.61,1125.45 1192.34,1125.87 1197.07,1126.32 1201.8,1126.81 
  1206.53,1127.33 1211.26,1127.88 1215.99,1128.46 1220.72,1129.07 1225.45,1129.71 1230.18,1130.38 1234.91,1131.08 1239.65,1131.81 1244.38,1132.56 1249.11,1133.35 
  1253.84,1134.15 1258.57,1134.99 1263.3,1135.84 1268.03,1136.72 1272.76,1137.63 1277.49,1138.55 1282.22,1139.5 1286.95,1140.47 1291.68,1141.46 1296.41,1142.47 
  1301.15,1143.5 1305.88,1144.54 1310.61,1145.6 1315.34,1146.68 1320.07,1147.78 1324.8,1148.89 1329.53,1150.02 1334.26,1151.16 1338.99,1152.31 1343.72,1153.48 
  1348.45,1154.65 1353.18,1155.84 1357.91,1157.04 1362.65,1158.25 1367.38,1159.47 1372.11,1160.7 1376.84,1161.94 1381.57,1163.18 1386.3,1164.43 1391.03,1165.69 
  1395.76,1166.96 1400.49,1168.23 1405.22,1169.5 1409.95,1170.78 1414.68,1172.06 1419.41,1173.35 1424.14,1174.64 1428.88,1175.93 1433.61,1177.23 1438.34,1178.52 
  1443.07,1179.82 1447.8,1181.12 1452.53,1182.41 1457.26,1183.71 1461.99,1185.01 1466.72,1186.3 1471.45,1187.6 1476.18,1188.89 1480.91,1190.18 1485.64,1191.47 
  1490.38,1192.76 1495.11,1194.04 1499.84,1195.32 1504.57,1196.6 1509.3,1197.87 1514.03,1199.14 1518.76,1200.4 1523.49,1201.66 1528.22,1202.91 1532.95,1204.16 
  1537.68,1205.41 1542.41,1206.64 1547.14,1207.88 1551.87,1209.1 1556.61,1210.32 1561.34,1211.53 1566.07,1212.74 1570.8,1213.94 1575.53,1215.13 1580.26,1216.31 
  1584.99,1217.49 1589.72,1218.66 1594.45,1219.83 1599.18,1220.98 1603.91,1222.13 1608.64,1223.27 1613.37,1224.4 1618.11,1225.52 1622.84,1226.63 1627.57,1227.74 
  1632.3,1228.84 1637.03,1229.93 1641.76,1231.01 1646.49,1232.08 1651.22,1233.14 1655.95,1234.2 1660.68,1235.24 1665.41,1236.28 1670.14,1237.31 1674.87,1238.32 
  1679.61,1239.33 1684.34,1240.34 1689.07,1241.33 1693.8,1242.31 1698.53,1243.28 1703.26,1244.25 1707.99,1245.2 1712.72,1246.15 1717.45,1247.09 1722.18,1248.02 
  1726.91,1248.94 1731.64,1249.85 1736.37,1250.75 1741.1,1251.64 1745.84,1252.52 1750.57,1253.4 1755.3,1254.26 1760.03,1255.12 1764.76,1255.96 1769.49,1256.8 
  1774.22,1257.63 1778.95,1258.45 1783.68,1259.26 1788.41,1260.07 1793.14,1260.86 1797.87,1261.65 1802.6,1262.42 1807.34,1263.19 1812.07,1263.95 1816.8,1264.7 
  1821.53,1265.45 1826.26,1266.18 1830.99,1266.91 1835.72,1267.63 1840.45,1268.34 1845.18,1269.04 1849.91,1269.73 1854.64,1270.42 1859.37,1271.09 1864.1,1271.76 
  1868.83,1272.42 1873.57,1273.08 1878.3,1273.72 1883.03,1274.36 1887.76,1274.99 1892.49,1275.61 1897.22,1276.23 1901.95,1276.84 1906.68,1277.44 1911.41,1278.03 
  1916.14,1278.62 1920.87,1279.2 1925.6,1279.77 1930.33,1280.33 1935.07,1280.89 1939.8,1281.44 1944.53,1281.98 1949.26,1282.52 1953.99,1283.05 1958.72,1283.57 
  1963.45,1284.09 1968.18,1284.6 1972.91,1285.1 1977.64,1285.6 1982.37,1286.09 1987.1,1286.58 1991.83,1287.06 1996.56,1287.53 2001.3,1287.99 2006.03,1288.45 
  2010.76,1288.91 2015.49,1289.36 2020.22,1289.8 2024.95,1290.24 2029.68,1290.67 2034.41,1291.09 2039.14,1291.51 2043.87,1291.93 2048.6,1292.34 2053.33,1292.74 
  2058.06,1293.14 2062.8,1293.53 2067.53,1293.92 2072.26,1294.3 2076.99,1294.68 2081.72,1295.05 2086.45,1295.41 2091.18,1295.78 2095.91,1296.13 2100.64,1296.49 
  2105.37,1296.83 2110.1,1297.18 2114.83,1297.51 2119.56,1297.85 2124.3,1298.18 2129.03,1298.5 2133.76,1298.82 2138.49,1299.14 2143.22,1299.45 2147.95,1299.76 
  2152.68,1300.06 2157.41,1300.36 2162.14,1300.65 2166.87,1300.94 2171.6,1301.23 2176.33,1301.51 2181.06,1301.79 2185.79,1302.07 2190.53,1302.34 2195.26,1302.61 
  2199.99,1302.87 
  "/>
<path clip-path="url(#clip412)" d="
M307.689 1320.93 L312.42 1321.83 L317.15 1322 L321.881 1322.04 L326.612 1322.01 L331.343 1321.93 L336.073 1321.81 L340.804 1321.67 L345.535 1321.5 L350.266 1321.31 
  L354.996 1321.1 L359.727 1320.87 L364.458 1320.63 L369.189 1320.38 L373.919 1320.12 L378.65 1319.84 L383.381 1319.56 L388.112 1319.27 L392.842 1318.97 L397.573 1318.66 
  L402.304 1318.35 L407.035 1318.04 L411.765 1317.72 L416.496 1317.4 L421.227 1317.07 L425.958 1316.75 L430.688 1316.42 L435.419 1316.09 L440.15 1315.76 L444.881 1315.43 
  L449.611 1315.1 L454.342 1314.78 L459.073 1314.45 L463.804 1314.12 L468.534 1313.8 L473.265 1313.47 L477.996 1313.15 L482.726 1312.83 L487.457 1312.51 L492.188 1312.2 
  L496.919 1311.88 L501.649 1311.57 L506.38 1311.25 L511.111 1310.94 L515.842 1310.63 L520.572 1310.32 L525.303 1310.02 L530.034 1309.71 L534.765 1309.4 L539.495 1309.1 
  L544.226 1308.8 L548.957 1308.49 L553.688 1308.19 L558.418 1307.89 L563.149 1307.58 L567.88 1307.28 L572.611 1306.98 L577.341 1306.68 L582.072 1306.37 L586.803 1306.07 
  L591.534 1305.76 L596.264 1305.45 L600.995 1305.14 L605.726 1304.83 L610.457 1304.52 L615.187 1304.2 L619.918 1303.88 L624.649 1303.56 L629.38 1303.23 L634.11 1302.91 
  L638.841 1302.57 L643.572 1302.24 L648.303 1301.89 L653.033 1301.55 L657.764 1301.2 L662.495 1300.84 L667.226 1300.47 L671.956 1300.1 L676.687 1299.72 L681.418 1299.34 
  L686.149 1298.95 L690.879 1298.54 L695.61 1298.13 L700.341 1297.71 L705.072 1297.28 L709.802 1296.84 L714.533 1296.39 L719.264 1295.93 L723.994 1295.45 L728.725 1294.96 
  L733.456 1294.45 L738.187 1293.94 L742.917 1293.4 L747.648 1292.86 L752.379 1292.29 L757.11 1291.71 L761.84 1291.11 L766.571 1290.49 L771.302 1289.85 L776.033 1289.19 
  L780.763 1288.51 L785.494 1287.81 L790.225 1287.08 L794.956 1286.34 L799.686 1285.56 L804.417 1284.77 L809.148 1283.94 L813.879 1283.09 L818.609 1282.21 L823.34 1281.3 
  L828.071 1280.36 L832.802 1279.39 L837.532 1278.39 L842.263 1277.36 L846.994 1276.29 L851.725 1275.18 L856.455 1274.04 L861.186 1272.87 L865.917 1271.65 L870.648 1270.4 
  L875.378 1269.11 L880.109 1267.77 L884.84 1266.4 L889.571 1264.98 L894.301 1263.52 L899.032 1262.02 L903.763 1260.47 L908.494 1258.87 L913.224 1257.23 L917.955 1255.54 
  L922.686 1253.8 L927.417 1252.01 L932.147 1250.17 L936.878 1248.28 L941.609 1246.34 L946.34 1244.35 L951.07 1242.31 L955.801 1240.21 L960.532 1238.05 L965.262 1235.85 
  L969.993 1233.58 L974.724 1231.26 L979.455 1228.89 L984.185 1226.46 L988.916 1223.97 L993.647 1221.43 L998.378 1218.82 L1003.11 1216.16 L1007.84 1213.44 L1012.57 1210.67 
  L1017.3 1207.83 L1022.03 1204.94 L1026.76 1201.99 L1031.49 1198.98 L1036.22 1195.91 L1040.95 1192.78 L1045.69 1189.6 L1050.42 1186.35 L1055.15 1183.06 L1059.88 1179.7 
  L1064.61 1176.29 L1069.34 1172.82 L1074.07 1169.3 L1078.8 1165.72 L1083.53 1162.08 L1088.26 1158.4 L1092.99 1154.66 L1097.72 1150.86 L1102.45 1147.02 L1107.18 1143.12 
  L1111.92 1139.17 L1116.65 1135.18 L1121.38 1131.13 L1126.11 1127.04 L1130.84 1122.9 L1135.57 1118.71 L1140.3 1114.48 L1145.03 1110.21 L1149.76 1105.89 L1154.49 1101.53 
  L1159.22 1097.13 L1163.95 1092.69 L1168.68 1088.22 L1173.42 1083.7 L1178.15 1079.15 L1182.88 1074.57 L1187.61 1069.95 L1192.34 1065.29 L1197.07 1060.61 L1201.8 1055.9 
  L1206.53 1051.16 L1211.26 1046.39 L1215.99 1041.6 L1220.72 1036.78 L1225.45 1031.94 L1230.18 1027.08 L1234.91 1022.2 L1239.65 1017.3 L1244.38 1012.38 L1249.11 1007.44 
  L1253.84 1002.49 L1258.57 997.527 L1263.3 992.55 L1268.03 987.562 L1272.76 982.564 L1277.49 977.558 L1282.22 972.544 L1286.95 967.524 L1291.68 962.5 L1296.41 957.471 
  L1301.15 952.44 L1305.88 947.408 L1310.61 942.376 L1315.34 937.344 L1320.07 932.315 L1324.8 927.289 L1329.53 922.268 L1334.26 917.252 L1338.99 912.242 L1343.72 907.24 
  L1348.45 902.247 L1353.18 897.264 L1357.91 892.291 L1362.65 887.33 L1367.38 882.382 L1372.11 877.447 L1376.84 872.527 L1381.57 867.622 L1386.3 862.733 L1391.03 857.862 
  L1395.76 853.009 L1400.49 848.174 L1405.22 843.359 L1409.95 838.565 L1414.68 833.791 L1419.41 829.039 L1424.14 824.31 L1428.88 819.604 L1433.61 814.922 L1438.34 810.264 
  L1443.07 805.632 L1447.8 801.024 L1452.53 796.443 L1457.26 791.889 L1461.99 787.362 L1466.72 782.862 L1471.45 778.39 L1476.18 773.947 L1480.91 769.532 L1485.64 765.147 
  L1490.38 760.792 L1495.11 756.467 L1499.84 752.172 L1504.57 747.909 L1509.3 743.676 L1514.03 739.475 L1518.76 735.306 L1523.49 731.168 L1528.22 727.063 L1532.95 722.991 
  L1537.68 718.951 L1542.41 714.944 L1547.14 710.969 L1551.87 707.029 L1556.61 703.121 L1561.34 699.247 L1566.07 695.407 L1570.8 691.601 L1575.53 687.829 L1580.26 684.09 
  L1584.99 680.386 L1589.72 676.716 L1594.45 673.08 L1599.18 669.479 L1603.91 665.912 L1608.64 662.379 L1613.37 658.88 L1618.11 655.415 L1622.84 651.985 L1627.57 648.589 
  L1632.3 645.227 L1637.03 641.9 L1641.76 638.607 L1646.49 635.347 L1651.22 632.122 L1655.95 628.93 L1660.68 625.772 L1665.41 622.648 L1670.14 619.556 L1674.87 616.498 
  L1679.61 613.473 L1684.34 610.481 L1689.07 607.522 L1693.8 604.596 L1698.53 601.701 L1703.26 598.84 L1707.99 596.01 L1712.72 593.213 L1717.45 590.447 L1722.18 587.714 
  L1726.91 585.012 L1731.64 582.341 L1736.37 579.701 L1741.1 577.093 L1745.84 574.515 L1750.57 571.969 L1755.3 569.452 L1760.03 566.966 L1764.76 564.51 L1769.49 562.084 
  L1774.22 559.688 L1778.95 557.321 L1783.68 554.984 L1788.41 552.675 L1793.14 550.396 L1797.87 548.145 L1802.6 545.922 L1807.34 543.727 L1812.07 541.56 L1816.8 539.42 
  L1821.53 537.308 L1826.26 535.223 L1830.99 533.164 L1835.72 531.132 L1840.45 529.127 L1845.18 527.147 L1849.91 525.194 L1854.64 523.265 L1859.37 521.363 L1864.1 519.485 
  L1868.83 517.632 L1873.57 515.804 L1878.3 514 L1883.03 512.22 L1887.76 510.464 L1892.49 508.732 L1897.22 507.023 L1901.95 505.337 L1906.68 503.674 L1911.41 502.034 
  L1916.14 500.416 L1920.87 498.821 L1925.6 497.247 L1930.33 495.695 L1935.07 494.164 L1939.8 492.655 L1944.53 491.166 L1949.26 489.698 L1953.99 488.25 L1958.72 486.822 
  L1963.45 485.414 L1968.18 484.026 L1972.91 482.657 L1977.64 481.307 L1982.37 479.976 L1987.1 478.664 L1991.83 477.37 L1996.56 476.095 L2001.3 474.838 L2006.03 473.599 
  L2010.76 472.377 L2015.49 471.173 L2020.22 469.987 L2024.95 468.818 L2029.68 467.665 L2034.41 466.53 L2039.14 465.411 L2043.87 464.308 L2048.6 463.222 L2053.33 462.151 
  L2058.06 461.096 L2062.8 460.057 L2067.53 459.033 L2072.26 458.024 L2076.99 457.03 L2081.72 456.051 L2086.45 455.087 L2091.18 454.136 L2095.91 453.2 L2100.64 452.278 
  L2105.37 451.369 L2110.1 450.474 L2114.83 449.592 L2119.56 448.724 L2124.3 447.868 L2129.03 447.025 L2133.76 446.194 L2138.49 445.376 L2143.22 444.57 L2147.95 443.776 
  L2152.68 442.993 L2157.41 442.222 L2162.14 441.462 L2166.87 440.714 L2171.6 439.976 L2176.33 439.249 L2181.06 438.532 L2185.79 437.826 L2190.53 437.131 L2195.26 436.446 
  L2199.99 435.772 L2199.99 270.476 L2195.26 270.711 L2190.53 270.949 L2185.79 271.19 L2181.06 271.434 L2176.33 271.681 L2171.6 271.932 L2166.87 272.186 L2162.14 272.444 
  L2157.41 272.704 L2152.68 272.969 L2147.95 273.237 L2143.22 273.508 L2138.49 273.783 L2133.76 274.062 L2129.03 274.344 L2124.3 274.63 L2119.56 274.919 L2114.83 275.213 
  L2110.1 275.509 L2105.37 275.81 L2100.64 276.114 L2095.91 276.422 L2091.18 276.735 L2086.45 277.05 L2081.72 277.37 L2076.99 277.694 L2072.26 278.022 L2067.53 278.354 
  L2062.8 278.69 L2058.06 279.031 L2053.33 279.375 L2048.6 279.725 L2043.87 280.078 L2039.14 280.436 L2034.41 280.798 L2029.68 281.165 L2024.95 281.537 L2020.22 281.914 
  L2015.49 282.295 L2010.76 282.682 L2006.03 283.073 L2001.3 283.47 L1996.56 283.871 L1991.83 284.278 L1987.1 284.691 L1982.37 285.109 L1977.64 285.532 L1972.91 285.961 
  L1968.18 286.396 L1963.45 286.837 L1958.72 287.284 L1953.99 287.738 L1949.26 288.197 L1944.53 288.663 L1939.8 289.135 L1935.07 289.613 L1930.33 290.098 L1925.6 290.59 
  L1920.87 291.089 L1916.14 291.594 L1911.41 292.106 L1906.68 292.625 L1901.95 293.152 L1897.22 293.686 L1892.49 294.227 L1887.76 294.776 L1883.03 295.332 L1878.3 295.897 
  L1873.57 296.469 L1868.83 297.05 L1864.1 297.639 L1859.37 298.236 L1854.64 298.842 L1849.91 299.456 L1845.18 300.08 L1840.45 300.712 L1835.72 301.354 L1830.99 302.005 
  L1826.26 302.666 L1821.53 303.337 L1816.8 304.017 L1812.07 304.707 L1807.34 305.408 L1802.6 306.119 L1797.87 306.841 L1793.14 307.573 L1788.41 308.317 L1783.68 309.071 
  L1778.95 309.837 L1774.22 310.614 L1769.49 311.403 L1764.76 312.204 L1760.03 313.018 L1755.3 313.843 L1750.57 314.682 L1745.84 315.533 L1741.1 316.398 L1736.37 317.276 
  L1731.64 318.168 L1726.91 319.075 L1722.18 319.995 L1717.45 320.93 L1712.72 321.88 L1707.99 322.845 L1703.26 323.826 L1698.53 324.822 L1693.8 325.835 L1689.07 326.864 
  L1684.34 327.91 L1679.61 328.972 L1674.87 330.052 L1670.14 331.15 L1665.41 332.265 L1660.68 333.399 L1655.95 334.551 L1651.22 335.722 L1646.49 336.913 L1641.76 338.122 
  L1637.03 339.352 L1632.3 340.602 L1627.57 341.872 L1622.84 343.163 L1618.11 344.475 L1613.37 345.809 L1608.64 347.165 L1603.91 348.543 L1599.18 349.945 L1594.45 351.369 
  L1589.72 352.818 L1584.99 354.29 L1580.26 355.787 L1575.53 357.309 L1570.8 358.856 L1566.07 360.43 L1561.34 362.029 L1556.61 363.656 L1551.87 365.309 L1547.14 366.99 
  L1542.41 368.7 L1537.68 370.438 L1532.95 372.205 L1528.22 374.002 L1523.49 375.829 L1518.76 377.686 L1514.03 379.574 L1509.3 381.494 L1504.57 383.446 L1499.84 385.431 
  L1495.11 387.449 L1490.38 389.5 L1485.64 391.585 L1480.91 393.704 L1476.18 395.859 L1471.45 398.05 L1466.72 400.277 L1461.99 402.541 L1457.26 404.842 L1452.53 407.181 
  L1447.8 409.558 L1443.07 411.974 L1438.34 414.429 L1433.61 416.924 L1428.88 419.459 L1424.14 422.036 L1419.41 424.653 L1414.68 427.313 L1409.95 430.015 L1405.22 432.76 
  L1400.49 435.548 L1395.76 438.381 L1391.03 441.257 L1386.3 444.179 L1381.57 447.146 L1376.84 450.16 L1372.11 453.22 L1367.38 456.327 L1362.65 459.481 L1357.91 462.684 
  L1353.18 465.935 L1348.45 469.236 L1343.72 472.586 L1338.99 475.986 L1334.26 479.436 L1329.53 482.937 L1324.8 486.49 L1320.07 490.093 L1315.34 493.749 L1310.61 497.457 
  L1305.88 501.218 L1301.15 505.031 L1296.41 508.897 L1291.68 512.817 L1286.95 516.791 L1282.22 520.818 L1277.49 524.9 L1272.76 529.035 L1268.03 533.225 L1263.3 537.469 
  L1258.57 541.768 L1253.84 546.122 L1249.11 550.53 L1244.38 554.993 L1239.65 559.511 L1234.91 564.084 L1230.18 568.711 L1225.45 573.394 L1220.72 578.131 L1215.99 582.922 
  L1211.26 587.768 L1206.53 592.666 L1201.8 597.619 L1197.07 602.625 L1192.34 607.684 L1187.61 612.796 L1182.88 617.96 L1178.15 623.176 L1173.42 628.443 L1168.68 633.761 
  L1163.95 639.129 L1159.22 644.547 L1154.49 650.014 L1149.76 655.528 L1145.03 661.09 L1140.3 666.699 L1135.57 672.353 L1130.84 678.051 L1126.11 683.793 L1121.38 689.578 
  L1116.65 695.405 L1111.92 701.271 L1107.18 707.177 L1102.45 713.121 L1097.72 719.102 L1092.99 725.119 L1088.26 731.171 L1083.53 737.255 L1078.8 743.371 L1074.07 749.517 
  L1069.34 755.692 L1064.61 761.893 L1059.88 768.12 L1055.15 774.37 L1050.42 780.643 L1045.69 786.936 L1040.95 793.248 L1036.22 799.577 L1031.49 805.922 L1026.76 812.281 
  L1022.03 818.652 L1017.3 825.034 L1012.57 831.424 L1007.84 837.822 L1003.11 844.224 L998.378 850.63 L993.647 857.037 L988.916 863.443 L984.185 869.847 L979.455 876.245 
  L974.724 882.637 L969.993 889.019 L965.262 895.39 L960.532 901.749 L955.801 908.094 L951.07 914.422 L946.34 920.731 L941.609 927.021 L936.878 933.289 L932.147 939.532 
  L927.417 945.75 L922.686 951.94 L917.955 958.101 L913.224 964.231 L908.494 970.328 L903.763 976.391 L899.032 982.418 L894.301 988.407 L889.571 994.357 L884.84 1000.27 
  L880.109 1006.13 L875.378 1011.96 L870.648 1017.73 L865.917 1023.46 L861.186 1029.15 L856.455 1034.78 L851.725 1040.36 L846.994 1045.89 L842.263 1051.37 L837.532 1056.79 
  L832.802 1062.16 L828.071 1067.48 L823.34 1072.73 L818.609 1077.93 L813.879 1083.07 L809.148 1088.15 L804.417 1093.17 L799.686 1098.13 L794.956 1103.03 L790.225 1107.87 
  L785.494 1112.64 L780.763 1117.35 L776.033 1121.99 L771.302 1126.57 L766.571 1131.09 L761.84 1135.54 L757.11 1139.93 L752.379 1144.25 L747.648 1148.5 L742.917 1152.69 
  L738.187 1156.82 L733.456 1160.88 L728.725 1164.87 L723.994 1168.8 L719.264 1172.66 L714.533 1176.46 L709.802 1180.19 L705.072 1183.85 L700.341 1187.46 L695.61 1191 
  L690.879 1194.47 L686.149 1197.88 L681.418 1201.23 L676.687 1204.51 L671.956 1207.73 L667.226 1210.89 L662.495 1213.98 L657.764 1217.02 L653.033 1219.99 L648.303 1222.91 
  L643.572 1225.76 L638.841 1228.56 L634.11 1231.29 L629.38 1233.97 L624.649 1236.59 L619.918 1239.16 L615.187 1241.66 L610.457 1244.12 L605.726 1246.51 L600.995 1248.86 
  L596.264 1251.15 L591.534 1253.38 L586.803 1255.57 L582.072 1257.7 L577.341 1259.78 L572.611 1261.81 L567.88 1263.8 L563.149 1265.73 L558.418 1267.61 L553.688 1269.45 
  L548.957 1271.24 L544.226 1272.99 L539.495 1274.68 L534.765 1276.34 L530.034 1277.95 L525.303 1279.52 L520.572 1281.04 L515.842 1282.52 L511.111 1283.96 L506.38 1285.36 
  L501.649 1286.72 L496.919 1288.04 L492.188 1289.33 L487.457 1290.57 L482.726 1291.78 L477.996 1292.95 L473.265 1294.09 L468.534 1295.19 L463.804 1296.25 L459.073 1297.29 
  L454.342 1298.29 L449.611 1299.26 L444.881 1300.2 L440.15 1301.11 L435.419 1301.99 L430.688 1302.84 L425.958 1303.67 L421.227 1304.47 L416.496 1305.24 L411.765 1305.99 
  L407.035 1306.72 L402.304 1307.43 L397.573 1308.12 L392.842 1308.8 L388.112 1309.45 L383.381 1310.09 L378.65 1310.72 L373.919 1311.33 L369.189 1311.93 L364.458 1312.52 
  L359.727 1313.11 L354.996 1313.69 L350.266 1314.27 L345.535 1314.85 L340.804 1315.43 L336.073 1316.01 L331.343 1316.61 L326.612 1317.23 L321.881 1317.88 L317.15 1318.58 
  L312.42 1319.4 L307.689 1320.93  Z
  " fill="#3da44d" fill-rule="evenodd" fill-opacity="0.5"/>
<polyline clip-path="url(#clip412)" style="stroke:#3da44d; stroke-width:4; stroke-opacity:1; fill:none" points="
  307.689,1320.93 312.42,1320.61 317.15,1320.29 321.881,1319.96 326.612,1319.62 331.343,1319.27 336.073,1318.91 340.804,1318.55 345.535,1318.17 350.266,1317.79 
  354.996,1317.39 359.727,1316.99 364.458,1316.58 369.189,1316.16 373.919,1315.72 378.65,1315.28 383.381,1314.82 388.112,1314.36 392.842,1313.88 397.573,1313.39 
  402.304,1312.89 407.035,1312.38 411.765,1311.86 416.496,1311.32 421.227,1310.77 425.958,1310.21 430.688,1309.63 435.419,1309.04 440.15,1308.43 444.881,1307.81 
  449.611,1307.18 454.342,1306.53 459.073,1305.87 463.804,1305.19 468.534,1304.49 473.265,1303.78 477.996,1303.05 482.726,1302.31 487.457,1301.54 492.188,1300.76 
  496.919,1299.96 501.649,1299.14 506.38,1298.31 511.111,1297.45 515.842,1296.58 520.572,1295.68 525.303,1294.77 530.034,1293.83 534.765,1292.87 539.495,1291.89 
  544.226,1290.89 548.957,1289.87 553.688,1288.82 558.418,1287.75 563.149,1286.66 567.88,1285.54 572.611,1284.4 577.341,1283.23 582.072,1282.04 586.803,1280.82 
  591.534,1279.57 596.264,1278.3 600.995,1277 605.726,1275.67 610.457,1274.32 615.187,1272.93 619.918,1271.52 624.649,1270.08 629.38,1268.6 634.11,1267.1 
  638.841,1265.56 643.572,1264 648.303,1262.4 653.033,1260.77 657.764,1259.11 662.495,1257.41 667.226,1255.68 671.956,1253.92 676.687,1252.12 681.418,1250.28 
  686.149,1248.41 690.879,1246.51 695.61,1244.56 700.341,1242.59 705.072,1240.57 709.802,1238.51 714.533,1236.42 719.264,1234.29 723.994,1232.12 728.725,1229.91 
  733.456,1227.67 738.187,1225.38 742.917,1223.05 747.648,1220.68 752.379,1218.27 757.11,1215.82 761.84,1213.32 766.571,1210.79 771.302,1208.21 776.033,1205.59 
  780.763,1202.93 785.494,1200.22 790.225,1197.48 794.956,1194.68 799.686,1191.85 804.417,1188.97 809.148,1186.05 813.879,1183.08 818.609,1180.07 823.34,1177.02 
  828.071,1173.92 832.802,1170.78 837.532,1167.59 842.263,1164.36 846.994,1161.09 851.725,1157.77 856.455,1154.41 861.186,1151.01 865.917,1147.56 870.648,1144.07 
  875.378,1140.53 880.109,1136.95 884.84,1133.33 889.571,1129.67 894.301,1125.96 899.032,1122.22 903.763,1118.43 908.494,1114.6 913.224,1110.73 917.955,1106.82 
  922.686,1102.87 927.417,1098.88 932.147,1094.85 936.878,1090.79 941.609,1086.68 946.34,1082.54 951.07,1078.36 955.801,1074.15 960.532,1069.9 965.262,1065.62 
  969.993,1061.3 974.724,1056.95 979.455,1052.57 984.185,1048.15 988.916,1043.71 993.647,1039.23 998.378,1034.73 1003.11,1030.19 1007.84,1025.63 1012.57,1021.05 
  1017.3,1016.43 1022.03,1011.8 1026.76,1007.13 1031.49,1002.45 1036.22,997.742 1040.95,993.014 1045.69,988.266 1050.42,983.498 1055.15,978.713 1059.88,973.91 
  1064.61,969.09 1069.34,964.256 1074.07,959.407 1078.8,954.544 1083.53,949.67 1088.26,944.784 1092.99,939.888 1097.72,934.983 1102.45,930.07 1107.18,925.149 
  1111.92,920.223 1116.65,915.291 1121.38,910.355 1126.11,905.416 1130.84,900.475 1135.57,895.533 1140.3,890.591 1145.03,885.649 1149.76,880.71 1154.49,875.773 
  1159.22,870.84 1163.95,865.912 1168.68,860.989 1173.42,856.072 1178.15,851.163 1182.88,846.263 1187.61,841.371 1192.34,836.489 1197.07,831.619 1201.8,826.759 
  1206.53,821.913 1211.26,817.08 1215.99,812.26 1220.72,807.456 1225.45,802.668 1230.18,797.896 1234.91,793.141 1239.65,788.404 1244.38,783.685 1249.11,778.986 
  1253.84,774.306 1258.57,769.647 1263.3,765.01 1268.03,760.393 1272.76,755.8 1277.49,751.229 1282.22,746.681 1286.95,742.158 1291.68,737.658 1296.41,733.184 
  1301.15,728.736 1305.88,724.313 1310.61,719.916 1315.34,715.547 1320.07,711.204 1324.8,706.889 1329.53,702.603 1334.26,698.344 1338.99,694.114 1343.72,689.913 
  1348.45,685.742 1353.18,681.6 1357.91,677.488 1362.65,673.406 1367.38,669.354 1372.11,665.333 1376.84,661.343 1381.57,657.384 1386.3,653.456 1391.03,649.56 
  1395.76,645.695 1400.49,641.861 1405.22,638.06 1409.95,634.29 1414.68,630.552 1419.41,626.846 1424.14,623.173 1428.88,619.532 1433.61,615.923 1438.34,612.347 
  1443.07,608.803 1447.8,605.291 1452.53,601.812 1457.26,598.365 1461.99,594.951 1466.72,591.569 1471.45,588.22 1476.18,584.903 1480.91,581.618 1485.64,578.366 
  1490.38,575.146 1495.11,571.958 1499.84,568.802 1504.57,565.678 1509.3,562.585 1514.03,559.525 1518.76,556.496 1523.49,553.499 1528.22,550.533 1532.95,547.598 
  1537.68,544.694 1542.41,541.822 1547.14,538.98 1551.87,536.169 1556.61,533.388 1561.34,530.638 1566.07,527.919 1570.8,525.229 1575.53,522.569 1580.26,519.939 
  1584.99,517.338 1589.72,514.767 1594.45,512.225 1599.18,509.712 1603.91,507.227 1608.64,504.772 1613.37,502.344 1618.11,499.945 1622.84,497.574 1627.57,495.23 
  1632.3,492.915 1637.03,490.626 1641.76,488.365 1646.49,486.13 1651.22,483.922 1655.95,481.741 1660.68,479.586 1665.41,477.456 1670.14,475.353 1674.87,473.275 
  1679.61,471.223 1684.34,469.196 1689.07,467.193 1693.8,465.215 1698.53,463.262 1703.26,461.333 1707.99,459.428 1712.72,457.547 1717.45,455.689 1722.18,453.854 
  1726.91,452.043 1731.64,450.255 1736.37,448.489 1741.1,446.745 1745.84,445.024 1750.57,443.325 1755.3,441.648 1760.03,439.992 1764.76,438.357 1769.49,436.744 
  1774.22,435.151 1778.95,433.579 1783.68,432.027 1788.41,430.496 1793.14,428.984 1797.87,427.493 1802.6,426.02 1807.34,424.567 1812.07,423.134 1816.8,421.719 
  1821.53,420.322 1826.26,418.944 1830.99,417.585 1835.72,416.243 1840.45,414.92 1845.18,413.614 1849.91,412.325 1854.64,411.054 1859.37,409.799 1864.1,408.562 
  1868.83,407.341 1873.57,406.137 1878.3,404.948 1883.03,403.776 1887.76,402.62 1892.49,401.479 1897.22,400.354 1901.95,399.245 1906.68,398.15 1911.41,397.07 
  1916.14,396.005 1920.87,394.955 1925.6,393.918 1930.33,392.897 1935.07,391.889 1939.8,390.895 1944.53,389.914 1949.26,388.947 1953.99,387.994 1958.72,387.053 
  1963.45,386.126 1968.18,385.211 1972.91,384.309 1977.64,383.419 1982.37,382.542 1987.1,381.677 1991.83,380.824 1996.56,379.983 2001.3,379.154 2006.03,378.336 
  2010.76,377.529 2015.49,376.734 2020.22,375.95 2024.95,375.177 2029.68,374.415 2034.41,373.664 2039.14,372.923 2043.87,372.193 2048.6,371.473 2053.33,370.763 
  2058.06,370.064 2062.8,369.374 2067.53,368.694 2072.26,368.023 2076.99,367.362 2081.72,366.711 2086.45,366.068 2091.18,365.435 2095.91,364.811 2100.64,364.196 
  2105.37,363.59 2110.1,362.992 2114.83,362.402 2119.56,361.822 2124.3,361.249 2129.03,360.685 2133.76,360.128 2138.49,359.58 2143.22,359.039 2147.95,358.506 
  2152.68,357.981 2157.41,357.463 2162.14,356.953 2166.87,356.45 2171.6,355.954 2176.33,355.465 2181.06,354.983 2185.79,354.508 2190.53,354.04 2195.26,353.579 
  2199.99,353.124 
  "/>
<path clip-path="url(#clip410)" d="
M1999.43 272.437 L2256.76 272.437 L2256.76 30.5166 L1999.43 30.5166  Z
  " fill="#ffffff" fill-rule="evenodd" fill-opacity="1"/>
<polyline clip-path="url(#clip410)" style="stroke:#000000; stroke-width:4; stroke-opacity:1; fill:none" points="
  1999.43,272.437 2256.76,272.437 2256.76,30.5166 1999.43,30.5166 1999.43,272.437 
  "/>
<polyline clip-path="url(#clip410)" style="stroke:#009af9; stroke-width:4; stroke-opacity:1; fill:none" points="
  2022.47,90.9966 2160.71,90.9966 
  "/>
<path clip-path="url(#clip410)" d="M 0 0 M2206 74.8509 L2206 79.411 Q2203.34 78.1379 2200.98 77.5129 Q2198.62 76.8879 2196.42 76.8879 Q2192.6 76.8879 2190.51 78.3694 Q2188.45 79.8508 2188.45 82.5823 Q2188.45 84.874 2189.82 86.0545 Q2191.21 87.2119 2195.05 87.9295 L2197.88 88.5082 Q2203.11 89.5036 2205.58 92.0267 Q2208.08 94.5267 2208.08 98.7396 Q2208.08 103.763 2204.7 106.355 Q2201.35 108.948 2194.84 108.948 Q2192.39 108.948 2189.61 108.392 Q2186.86 107.837 2183.89 106.749 L2183.89 101.934 Q2186.74 103.531 2189.47 104.341 Q2192.2 105.152 2194.84 105.152 Q2198.85 105.152 2201.02 103.578 Q2203.2 102.004 2203.2 99.0869 Q2203.2 96.5406 2201.63 95.1054 Q2200.07 93.6702 2196.51 92.9526 L2193.66 92.3971 Q2188.43 91.3554 2186.09 89.1332 Q2183.75 86.911 2183.75 82.9527 Q2183.75 78.3694 2186.97 75.7305 Q2190.21 73.0916 2195.88 73.0916 Q2198.31 73.0916 2200.84 73.5314 Q2203.36 73.9712 2206 74.8509 Z" fill="#000000" fill-rule="evenodd" fill-opacity="1" /><polyline clip-path="url(#clip410)" style="stroke:#e26f46; stroke-width:4; stroke-opacity:1; fill:none" points="
  2022.47,151.477 2160.71,151.477 
  "/>
<path clip-path="url(#clip410)" d="M 0 0 M2183.75 134.197 L2188.43 134.197 L2188.43 168.757 L2183.75 168.757 L2183.75 134.197 Z" fill="#000000" fill-rule="evenodd" fill-opacity="1" /><polyline clip-path="url(#clip410)" style="stroke:#3da44d; stroke-width:4; stroke-opacity:1; fill:none" points="
  2022.47,211.957 2160.71,211.957 
  "/>
<path clip-path="url(#clip410)" d="M 0 0 M2200.14 213.033 Q2201.65 213.542 2203.06 215.209 Q2204.5 216.876 2205.93 219.792 L2210.68 229.237 L2205.65 229.237 L2201.23 220.371 Q2199.52 216.899 2197.9 215.764 Q2196.3 214.63 2193.52 214.63 L2188.43 214.63 L2188.43 229.237 L2183.75 229.237 L2183.75 194.677 L2194.31 194.677 Q2200.24 194.677 2203.15 197.153 Q2206.07 199.63 2206.07 204.63 Q2206.07 207.894 2204.54 210.047 Q2203.04 212.2 2200.14 213.033 M2188.43 198.519 L2188.43 210.788 L2194.31 210.788 Q2197.69 210.788 2199.4 209.237 Q2201.14 207.663 2201.14 204.63 Q2201.14 201.598 2199.4 200.07 Q2197.69 198.519 2194.31 198.519 L2188.43 198.519 Z" fill="#000000" fill-rule="evenodd" fill-opacity="1" /></svg>
