<?xml version="1.0" encoding="utf-8"?>
<svg xmlns="http://www.w3.org/2000/svg" xmlns:xlink="http://www.w3.org/1999/xlink" width="576" height="384" viewBox="0 0 2304 1536">
<defs>
  <clipPath id="clip370">
    <rect x="0" y="0" width="2304" height="1536"/>
  </clipPath>
</defs>
<path clip-path="url(#clip370)" d="
M0 1536 L2304 1536 L2304 0 L0 0  Z
  " fill="#ffffff" fill-rule="evenodd" fill-opacity="1"/>
<defs>
  <clipPath id="clip371">
    <rect x="460" y="0" width="1614" height="1536"/>
  </clipPath>
</defs>
<path clip-path="url(#clip370)" d="
M250.92 1359.82 L2256.76 1359.82 L2256.76 47.2441 L250.92 47.2441  Z
  " fill="#ffffff" fill-rule="evenodd" fill-opacity="1"/>
<defs>
  <clipPath id="clip372">
    <rect x="250" y="47" width="2007" height="1314"/>
  </clipPath>
</defs>
<polyline clip-path="url(#clip372)" style="stroke:#000000; stroke-width:2; stroke-opacity:0.1; fill:none" points="
  307.689,1359.82 307.689,47.2441 
  "/>
<polyline clip-path="url(#clip372)" style="stroke:#000000; stroke-width:2; stroke-opacity:0.1; fill:none" points="
  780.763,1359.82 780.763,47.2441 
  "/>
<polyline clip-path="url(#clip372)" style="stroke:#000000; stroke-width:2; stroke-opacity:0.1; fill:none" points="
  1253.84,1359.82 1253.84,47.2441 
  "/>
<polyline clip-path="url(#clip372)" style="stroke:#000000; stroke-width:2; stroke-opacity:0.1; fill:none" points="
  1726.91,1359.82 1726.91,47.2441 
  "/>
<polyline clip-path="url(#clip372)" style="stroke:#000000; stroke-width:2; stroke-opacity:0.1; fill:none" points="
  2199.99,1359.82 2199.99,47.2441 
  "/>
<polyline clip-path="url(#clip372)" style="stroke:#000000; stroke-width:2; stroke-opacity:0.1; fill:none" points="
  250.92,1322.67 2256.76,1322.67 
  "/>
<polyline clip-path="url(#clip372)" style="stroke:#000000; stroke-width:2; stroke-opacity:0.1; fill:none" points="
  250.92,1009.97 2256.76,1009.97 
  "/>
<polyline clip-path="url(#clip372)" style="stroke:#000000; stroke-width:2; stroke-opacity:0.1; fill:none" points="
  250.92,697.278 2256.76,697.278 
  "/>
<polyline clip-path="url(#clip372)" style="stroke:#000000; stroke-width:2; stroke-opacity:0.1; fill:none" points="
  250.92,384.581 2256.76,384.581 
  "/>
<polyline clip-path="url(#clip372)" style="stroke:#000000; stroke-width:2; stroke-opacity:0.1; fill:none" points="
  250.92,71.8846 2256.76,71.8846 
  "/>
<polyline clip-path="url(#clip370)" style="stroke:#000000; stroke-width:4; stroke-opacity:1; fill:none" points="
  250.92,1359.82 2256.76,1359.82 
  "/>
<polyline clip-path="url(#clip370)" style="stroke:#000000; stroke-width:4; stroke-opacity:1; fill:none" points="
  250.92,1359.82 250.92,47.2441 
  "/>
<polyline clip-path="url(#clip370)" style="stroke:#000000; stroke-width:4; stroke-opacity:1; fill:none" points="
  307.689,1359.82 307.689,1344.07 
  "/>
<polyline clip-path="url(#clip370)" style="stroke:#000000; stroke-width:4; stroke-opacity:1; fill:none" points="
  780.763,1359.82 780.763,1344.07 
  "/>
<polyline clip-path="url(#clip370)" style="stroke:#000000; stroke-width:4; stroke-opacity:1; fill:none" points="
  1253.84,1359.82 1253.84,1344.07 
  "/>
<polyline clip-path="url(#clip370)" style="stroke:#000000; stroke-width:4; stroke-opacity:1; fill:none" points="
  1726.91,1359.82 1726.91,1344.07 
  "/>
<polyline clip-path="url(#clip370)" style="stroke:#000000; stroke-width:4; stroke-opacity:1; fill:none" points="
  2199.99,1359.82 2199.99,1344.07 
  "/>
<polyline clip-path="url(#clip370)" style="stroke:#000000; stroke-width:4; stroke-opacity:1; fill:none" points="
  250.92,1322.67 274.99,1322.67 
  "/>
<polyline clip-path="url(#clip370)" style="stroke:#000000; stroke-width:4; stroke-opacity:1; fill:none" points="
  250.92,1009.97 274.99,1009.97 
  "/>
<polyline clip-path="url(#clip370)" style="stroke:#000000; stroke-width:4; stroke-opacity:1; fill:none" points="
  250.92,697.278 274.99,697.278 
  "/>
<polyline clip-path="url(#clip370)" style="stroke:#000000; stroke-width:4; stroke-opacity:1; fill:none" points="
  250.92,384.581 274.99,384.581 
  "/>
<polyline clip-path="url(#clip370)" style="stroke:#000000; stroke-width:4; stroke-opacity:1; fill:none" points="
  250.92,71.8846 274.99,71.8846 
  "/>
<path clip-path="url(#clip370)" d="M 0 0 M307.689 1381.33 Q304.078 1381.33 302.249 1384.9 Q300.444 1388.44 300.444 1395.57 Q300.444 1402.67 302.249 1406.24 Q304.078 1409.78 307.689 1409.78 Q311.323 1409.78 313.129 1406.24 Q314.957 1402.67 314.957 1395.57 Q314.957 1388.44 313.129 1384.9 Q311.323 1381.33 307.689 1381.33 M307.689 1377.63 Q313.499 1377.63 316.555 1382.23 Q319.633 1386.82 319.633 1395.57 Q319.633 1404.29 316.555 1408.9 Q313.499 1413.48 307.689 1413.48 Q301.879 1413.48 298.8 1408.9 Q295.745 1404.29 295.745 1395.57 Q295.745 1386.82 298.8 1382.23 Q301.879 1377.63 307.689 1377.63 Z" fill="#000000" fill-rule="evenodd" fill-opacity="1" /><path clip-path="url(#clip370)" d="M 0 0 M757.639 1408.88 L765.277 1408.88 L765.277 1382.51 L756.967 1384.18 L756.967 1379.92 L765.231 1378.25 L769.907 1378.25 L769.907 1408.88 L777.546 1408.88 L777.546 1412.81 L757.639 1412.81 L757.639 1408.88 Z" fill="#000000" fill-rule="evenodd" fill-opacity="1" /><path clip-path="url(#clip370)" d="M 0 0 M792.615 1381.33 Q789.004 1381.33 787.175 1384.9 Q785.37 1388.44 785.37 1395.57 Q785.37 1402.67 787.175 1406.24 Q789.004 1409.78 792.615 1409.78 Q796.249 1409.78 798.055 1406.24 Q799.884 1402.67 799.884 1395.57 Q799.884 1388.44 798.055 1384.9 Q796.249 1381.33 792.615 1381.33 M792.615 1377.63 Q798.425 1377.63 801.481 1382.23 Q804.56 1386.82 804.56 1395.57 Q804.56 1404.29 801.481 1408.9 Q798.425 1413.48 792.615 1413.48 Q786.805 1413.48 783.726 1408.9 Q780.671 1404.29 780.671 1395.57 Q780.671 1386.82 783.726 1382.23 Q786.805 1377.63 792.615 1377.63 Z" fill="#000000" fill-rule="evenodd" fill-opacity="1" /><path clip-path="url(#clip370)" d="M 0 0 M1234.98 1408.88 L1251.3 1408.88 L1251.3 1412.81 L1229.36 1412.81 L1229.36 1408.88 Q1232.02 1406.12 1236.6 1401.49 Q1241.21 1396.84 1242.39 1395.5 Q1244.64 1392.97 1245.52 1391.24 Q1246.42 1389.48 1246.42 1387.79 Q1246.42 1385.03 1244.47 1383.3 Q1242.55 1381.56 1239.45 1381.56 Q1237.25 1381.56 1234.8 1382.33 Q1232.37 1383.09 1229.59 1384.64 L1229.59 1379.92 Q1232.41 1378.78 1234.87 1378.21 Q1237.32 1377.63 1239.36 1377.63 Q1244.73 1377.63 1247.92 1380.31 Q1251.12 1383 1251.12 1387.49 Q1251.12 1389.62 1250.31 1391.54 Q1249.52 1393.44 1247.41 1396.03 Q1246.84 1396.7 1243.73 1399.92 Q1240.63 1403.11 1234.98 1408.88 Z" fill="#000000" fill-rule="evenodd" fill-opacity="1" /><path clip-path="url(#clip370)" d="M 0 0 M1266.37 1381.33 Q1262.76 1381.33 1260.93 1384.9 Q1259.13 1388.44 1259.13 1395.57 Q1259.13 1402.67 1260.93 1406.24 Q1262.76 1409.78 1266.37 1409.78 Q1270.01 1409.78 1271.81 1406.24 Q1273.64 1402.67 1273.64 1395.57 Q1273.64 1388.44 1271.81 1384.9 Q1270.01 1381.33 1266.37 1381.33 M1266.37 1377.63 Q1272.18 1377.63 1275.24 1382.23 Q1278.32 1386.82 1278.32 1395.57 Q1278.32 1404.29 1275.24 1408.9 Q1272.18 1413.48 1266.37 1413.48 Q1260.56 1413.48 1257.48 1408.9 Q1254.43 1404.29 1254.43 1395.57 Q1254.43 1386.82 1257.48 1382.23 Q1260.56 1377.63 1266.37 1377.63 Z" fill="#000000" fill-rule="evenodd" fill-opacity="1" /><path clip-path="url(#clip370)" d="M 0 0 M1717.65 1394.18 Q1721.01 1394.9 1722.88 1397.16 Q1724.78 1399.43 1724.78 1402.77 Q1724.78 1407.88 1721.26 1410.68 Q1717.75 1413.48 1711.26 1413.48 Q1709.09 1413.48 1706.77 1413.04 Q1704.48 1412.63 1702.03 1411.77 L1702.03 1407.26 Q1703.97 1408.39 1706.29 1408.97 Q1708.6 1409.55 1711.13 1409.55 Q1715.52 1409.55 1717.82 1407.81 Q1720.13 1406.08 1720.13 1402.77 Q1720.13 1399.71 1717.98 1398 Q1715.85 1396.26 1712.03 1396.26 L1708 1396.26 L1708 1392.42 L1712.21 1392.42 Q1715.66 1392.42 1717.49 1391.05 Q1719.32 1389.66 1719.32 1387.07 Q1719.32 1384.41 1717.42 1383 Q1715.55 1381.56 1712.03 1381.56 Q1710.11 1381.56 1707.91 1381.98 Q1705.71 1382.4 1703.07 1383.27 L1703.07 1379.11 Q1705.73 1378.37 1708.05 1378 Q1710.38 1377.63 1712.44 1377.63 Q1717.77 1377.63 1720.87 1380.06 Q1723.97 1382.46 1723.97 1386.59 Q1723.97 1389.46 1722.33 1391.45 Q1720.69 1393.41 1717.65 1394.18 Z" fill="#000000" fill-rule="evenodd" fill-opacity="1" /><path clip-path="url(#clip370)" d="M 0 0 M1739.85 1381.33 Q1736.24 1381.33 1734.41 1384.9 Q1732.61 1388.44 1732.61 1395.57 Q1732.61 1402.67 1734.41 1406.24 Q1736.24 1409.78 1739.85 1409.78 Q1743.49 1409.78 1745.29 1406.24 Q1747.12 1402.67 1747.12 1395.57 Q1747.12 1388.44 1745.29 1384.9 Q1743.49 1381.33 1739.85 1381.33 M1739.85 1377.63 Q1745.66 1377.63 1748.72 1382.23 Q1751.8 1386.82 1751.8 1395.57 Q1751.8 1404.29 1748.72 1408.9 Q1745.66 1413.48 1739.85 1413.48 Q1734.04 1413.48 1730.96 1408.9 Q1727.91 1404.29 1727.91 1395.57 Q1727.91 1386.82 1730.96 1382.23 Q1734.04 1377.63 1739.85 1377.63 Z" fill="#000000" fill-rule="evenodd" fill-opacity="1" /><path clip-path="url(#clip370)" d="M 0 0 M2189.49 1382.33 L2177.68 1400.77 L2189.49 1400.77 L2189.49 1382.33 M2188.26 1378.25 L2194.14 1378.25 L2194.14 1400.77 L2199.07 1400.77 L2199.07 1404.66 L2194.14 1404.66 L2194.14 1412.81 L2189.49 1412.81 L2189.49 1404.66 L2173.89 1404.66 L2173.89 1400.15 L2188.26 1378.25 Z" fill="#000000" fill-rule="evenodd" fill-opacity="1" /><path clip-path="url(#clip370)" d="M 0 0 M2214.14 1381.33 Q2210.53 1381.33 2208.7 1384.9 Q2206.9 1388.44 2206.9 1395.57 Q2206.9 1402.67 2208.7 1406.24 Q2210.53 1409.78 2214.14 1409.78 Q2217.78 1409.78 2219.58 1406.24 Q2221.41 1402.67 2221.41 1395.57 Q2221.41 1388.44 2219.58 1384.9 Q2217.78 1381.33 2214.14 1381.33 M2214.14 1377.63 Q2219.95 1377.63 2223.01 1382.23 Q2226.09 1386.82 2226.09 1395.57 Q2226.09 1404.29 2223.01 1408.9 Q2219.95 1413.48 2214.14 1413.48 Q2208.33 1413.48 2205.25 1408.9 Q2202.2 1404.29 2202.2 1395.57 Q2202.2 1386.82 2205.25 1382.23 Q2208.33 1377.63 2214.14 1377.63 Z" fill="#000000" fill-rule="evenodd" fill-opacity="1" /><path clip-path="url(#clip370)" d="M 0 0 M215.936 1308.47 Q212.325 1308.47 210.496 1312.03 Q208.69 1315.58 208.69 1322.71 Q208.69 1329.81 210.496 1333.38 Q212.325 1336.92 215.936 1336.92 Q219.57 1336.92 221.375 1333.38 Q223.204 1329.81 223.204 1322.71 Q223.204 1315.58 221.375 1312.03 Q219.57 1308.47 215.936 1308.47 M215.936 1304.77 Q221.746 1304.77 224.801 1309.37 Q227.88 1313.96 227.88 1322.71 Q227.88 1331.43 224.801 1336.04 Q221.746 1340.62 215.936 1340.62 Q210.125 1340.62 207.047 1336.04 Q203.991 1331.43 203.991 1322.71 Q203.991 1313.96 207.047 1309.37 Q210.125 1304.77 215.936 1304.77 Z" fill="#000000" fill-rule="evenodd" fill-opacity="1" /><path clip-path="url(#clip370)" d="M 0 0 M158.529 1023.32 L174.848 1023.32 L174.848 1027.25 L152.904 1027.25 L152.904 1023.32 Q155.566 1020.56 160.149 1015.94 Q164.755 1011.28 165.936 1009.94 Q168.181 1007.42 169.061 1005.68 Q169.964 1003.92 169.964 1002.23 Q169.964 999.477 168.019 997.741 Q166.098 996.005 162.996 996.005 Q160.797 996.005 158.343 996.769 Q155.913 997.533 153.135 999.084 L153.135 994.361 Q155.959 993.227 158.413 992.648 Q160.866 992.07 162.903 992.07 Q168.274 992.07 171.468 994.755 Q174.663 997.44 174.663 1001.93 Q174.663 1004.06 173.852 1005.98 Q173.065 1007.88 170.959 1010.47 Q170.38 1011.14 167.278 1014.36 Q164.177 1017.56 158.529 1023.32 Z" fill="#000000" fill-rule="evenodd" fill-opacity="1" /><path clip-path="url(#clip370)" d="M 0 0 M179.964 992.695 L198.32 992.695 L198.32 996.63 L184.246 996.63 L184.246 1005.1 Q185.264 1004.75 186.283 1004.59 Q187.301 1004.41 188.32 1004.41 Q194.107 1004.41 197.487 1007.58 Q200.866 1010.75 200.866 1016.17 Q200.866 1021.75 197.394 1024.85 Q193.922 1027.93 187.602 1027.93 Q185.427 1027.93 183.158 1027.56 Q180.913 1027.19 178.505 1026.44 L178.505 1021.75 Q180.589 1022.88 182.811 1023.44 Q185.033 1023.99 187.51 1023.99 Q191.514 1023.99 193.852 1021.88 Q196.19 1019.78 196.19 1016.17 Q196.19 1012.56 193.852 1010.45 Q191.514 1008.34 187.51 1008.34 Q185.635 1008.34 183.76 1008.76 Q181.908 1009.18 179.964 1010.06 L179.964 992.695 Z" fill="#000000" fill-rule="evenodd" fill-opacity="1" /><path clip-path="url(#clip370)" d="M 0 0 M215.936 995.773 Q212.325 995.773 210.496 999.338 Q208.69 1002.88 208.69 1010.01 Q208.69 1017.12 210.496 1020.68 Q212.325 1024.22 215.936 1024.22 Q219.57 1024.22 221.375 1020.68 Q223.204 1017.12 223.204 1010.01 Q223.204 1002.88 221.375 999.338 Q219.57 995.773 215.936 995.773 M215.936 992.07 Q221.746 992.07 224.801 996.676 Q227.88 1001.26 227.88 1010.01 Q227.88 1018.74 224.801 1023.34 Q221.746 1027.93 215.936 1027.93 Q210.125 1027.93 207.047 1023.34 Q203.991 1018.74 203.991 1010.01 Q203.991 1001.26 207.047 996.676 Q210.125 992.07 215.936 992.07 Z" fill="#000000" fill-rule="evenodd" fill-opacity="1" /><path clip-path="url(#clip370)" d="M 0 0 M152.95 679.998 L171.306 679.998 L171.306 683.933 L157.232 683.933 L157.232 692.405 Q158.251 692.058 159.269 691.896 Q160.288 691.711 161.306 691.711 Q167.093 691.711 170.473 694.882 Q173.852 698.053 173.852 703.47 Q173.852 709.049 170.38 712.151 Q166.908 715.229 160.589 715.229 Q158.413 715.229 156.144 714.859 Q153.899 714.489 151.492 713.748 L151.492 709.049 Q153.575 710.183 155.797 710.739 Q158.019 711.294 160.496 711.294 Q164.501 711.294 166.839 709.188 Q169.177 707.081 169.177 703.47 Q169.177 699.859 166.839 697.753 Q164.501 695.646 160.496 695.646 Q158.621 695.646 156.746 696.063 Q154.894 696.479 152.95 697.359 L152.95 679.998 Z" fill="#000000" fill-rule="evenodd" fill-opacity="1" /><path clip-path="url(#clip370)" d="M 0 0 M188.922 683.077 Q185.311 683.077 183.482 686.642 Q181.677 690.183 181.677 697.313 Q181.677 704.419 183.482 707.984 Q185.311 711.526 188.922 711.526 Q192.556 711.526 194.362 707.984 Q196.19 704.419 196.19 697.313 Q196.19 690.183 194.362 686.642 Q192.556 683.077 188.922 683.077 M188.922 679.373 Q194.732 679.373 197.788 683.979 Q200.866 688.563 200.866 697.313 Q200.866 706.04 197.788 710.646 Q194.732 715.229 188.922 715.229 Q183.112 715.229 180.033 710.646 Q176.977 706.04 176.977 697.313 Q176.977 688.563 180.033 683.979 Q183.112 679.373 188.922 679.373 Z" fill="#000000" fill-rule="evenodd" fill-opacity="1" /><path clip-path="url(#clip370)" d="M 0 0 M215.936 683.077 Q212.325 683.077 210.496 686.642 Q208.69 690.183 208.69 697.313 Q208.69 704.419 210.496 707.984 Q212.325 711.526 215.936 711.526 Q219.57 711.526 221.375 707.984 Q223.204 704.419 223.204 697.313 Q223.204 690.183 221.375 686.642 Q219.57 683.077 215.936 683.077 M215.936 679.373 Q221.746 679.373 224.801 683.979 Q227.88 688.563 227.88 697.313 Q227.88 706.04 224.801 710.646 Q221.746 715.229 215.936 715.229 Q210.125 715.229 207.047 710.646 Q203.991 706.04 203.991 697.313 Q203.991 688.563 207.047 683.979 Q210.125 679.373 215.936 679.373 Z" fill="#000000" fill-rule="evenodd" fill-opacity="1" /><path clip-path="url(#clip370)" d="M 0 0 M152.626 367.301 L174.848 367.301 L174.848 369.292 L162.302 401.861 L157.417 401.861 L169.223 371.236 L152.626 371.236 L152.626 367.301 Z" fill="#000000" fill-rule="evenodd" fill-opacity="1" /><path clip-path="url(#clip370)" d="M 0 0 M179.964 367.301 L198.32 367.301 L198.32 371.236 L184.246 371.236 L184.246 379.709 Q185.264 379.361 186.283 379.199 Q187.301 379.014 188.32 379.014 Q194.107 379.014 197.487 382.185 Q200.866 385.357 200.866 390.773 Q200.866 396.352 197.394 399.454 Q193.922 402.533 187.602 402.533 Q185.427 402.533 183.158 402.162 Q180.913 401.792 178.505 401.051 L178.505 396.352 Q180.589 397.486 182.811 398.042 Q185.033 398.597 187.51 398.597 Q191.514 398.597 193.852 396.491 Q196.19 394.385 196.19 390.773 Q196.19 387.162 193.852 385.056 Q191.514 382.949 187.51 382.949 Q185.635 382.949 183.76 383.366 Q181.908 383.783 179.964 384.662 L179.964 367.301 Z" fill="#000000" fill-rule="evenodd" fill-opacity="1" /><path clip-path="url(#clip370)" d="M 0 0 M215.936 370.38 Q212.325 370.38 210.496 373.945 Q208.69 377.486 208.69 384.616 Q208.69 391.722 210.496 395.287 Q212.325 398.829 215.936 398.829 Q219.57 398.829 221.375 395.287 Q223.204 391.722 223.204 384.616 Q223.204 377.486 221.375 373.945 Q219.57 370.38 215.936 370.38 M215.936 366.676 Q221.746 366.676 224.801 371.283 Q227.88 375.866 227.88 384.616 Q227.88 393.343 224.801 397.949 Q221.746 402.533 215.936 402.533 Q210.125 402.533 207.047 397.949 Q203.991 393.343 203.991 384.616 Q203.991 375.866 207.047 371.283 Q210.125 366.676 215.936 366.676 Z" fill="#000000" fill-rule="evenodd" fill-opacity="1" /><path clip-path="url(#clip370)" d="M 0 0 M126.931 85.2294 L134.57 85.2294 L134.57 58.8638 L126.26 60.5305 L126.26 56.2713 L134.524 54.6046 L139.2 54.6046 L139.2 85.2294 L146.839 85.2294 L146.839 89.1646 L126.931 89.1646 L126.931 85.2294 Z" fill="#000000" fill-rule="evenodd" fill-opacity="1" /><path clip-path="url(#clip370)" d="M 0 0 M161.908 57.6833 Q158.297 57.6833 156.468 61.2481 Q154.663 64.7897 154.663 71.9193 Q154.663 79.0258 156.468 82.5906 Q158.297 86.1322 161.908 86.1322 Q165.542 86.1322 167.348 82.5906 Q169.177 79.0258 169.177 71.9193 Q169.177 64.7897 167.348 61.2481 Q165.542 57.6833 161.908 57.6833 M161.908 53.9796 Q167.718 53.9796 170.774 58.5861 Q173.852 63.1694 173.852 71.9193 Q173.852 80.6461 170.774 85.2526 Q167.718 89.8359 161.908 89.8359 Q156.098 89.8359 153.019 85.2526 Q149.964 80.6461 149.964 71.9193 Q149.964 63.1694 153.019 58.5861 Q156.098 53.9796 161.908 53.9796 Z" fill="#000000" fill-rule="evenodd" fill-opacity="1" /><path clip-path="url(#clip370)" d="M 0 0 M188.922 57.6833 Q185.311 57.6833 183.482 61.2481 Q181.677 64.7897 181.677 71.9193 Q181.677 79.0258 183.482 82.5906 Q185.311 86.1322 188.922 86.1322 Q192.556 86.1322 194.362 82.5906 Q196.19 79.0258 196.19 71.9193 Q196.19 64.7897 194.362 61.2481 Q192.556 57.6833 188.922 57.6833 M188.922 53.9796 Q194.732 53.9796 197.788 58.5861 Q200.866 63.1694 200.866 71.9193 Q200.866 80.6461 197.788 85.2526 Q194.732 89.8359 188.922 89.8359 Q183.112 89.8359 180.033 85.2526 Q176.977 80.6461 176.977 71.9193 Q176.977 63.1694 180.033 58.5861 Q183.112 53.9796 188.922 53.9796 Z" fill="#000000" fill-rule="evenodd" fill-opacity="1" /><path clip-path="url(#clip370)" d="M 0 0 M215.936 57.6833 Q212.325 57.6833 210.496 61.2481 Q208.69 64.7897 208.69 71.9193 Q208.69 79.0258 210.496 82.5906 Q212.325 86.1322 215.936 86.1322 Q219.57 86.1322 221.375 82.5906 Q223.204 79.0258 223.204 71.9193 Q223.204 64.7897 221.375 61.2481 Q219.57 57.6833 215.936 57.6833 M215.936 53.9796 Q221.746 53.9796 224.801 58.5861 Q227.88 63.1694 227.88 71.9193 Q227.88 80.6461 224.801 85.2526 Q221.746 89.8359 215.936 89.8359 Q210.125 89.8359 207.047 85.2526 Q203.991 80.6461 203.991 71.9193 Q203.991 63.1694 207.047 58.5861 Q210.125 53.9796 215.936 53.9796 Z" fill="#000000" fill-rule="evenodd" fill-opacity="1" /><path clip-path="url(#clip370)" d="M 0 0 M1181.44 1444.2 L1221.64 1444.2 L1221.64 1449.61 L1204.77 1449.61 L1204.77 1491.72 L1198.31 1491.72 L1198.31 1449.61 L1181.44 1449.61 L1181.44 1444.2 Z" fill="#000000" fill-rule="evenodd" fill-opacity="1" /><path clip-path="url(#clip370)" d="M 0 0 M1225.78 1456.08 L1231.64 1456.08 L1231.64 1491.72 L1225.78 1491.72 L1225.78 1456.08 M1225.78 1442.2 L1231.64 1442.2 L1231.64 1449.61 L1225.78 1449.61 L1225.78 1442.2 Z" fill="#000000" fill-rule="evenodd" fill-opacity="1" /><path clip-path="url(#clip370)" d="M 0 0 M1265.53 1462.92 Q1267.73 1458.97 1270.79 1457.09 Q1273.84 1455.22 1277.98 1455.22 Q1283.55 1455.22 1286.57 1459.13 Q1289.6 1463.01 1289.6 1470.21 L1289.6 1491.72 L1283.71 1491.72 L1283.71 1470.4 Q1283.71 1465.27 1281.89 1462.79 Q1280.08 1460.31 1276.36 1460.31 Q1271.81 1460.31 1269.16 1463.33 Q1266.52 1466.36 1266.52 1471.58 L1266.52 1491.72 L1260.63 1491.72 L1260.63 1470.4 Q1260.63 1465.24 1258.82 1462.79 Q1257 1460.31 1253.22 1460.31 Q1248.73 1460.31 1246.09 1463.36 Q1243.45 1466.39 1243.45 1471.58 L1243.45 1491.72 L1237.56 1491.72 L1237.56 1456.08 L1243.45 1456.08 L1243.45 1461.61 Q1245.45 1458.34 1248.25 1456.78 Q1251.05 1455.22 1254.9 1455.22 Q1258.79 1455.22 1261.49 1457.19 Q1264.23 1459.16 1265.53 1462.92 Z" fill="#000000" fill-rule="evenodd" fill-opacity="1" /><path clip-path="url(#clip370)" d="M 0 0 M1326.23 1472.44 L1326.23 1475.3 L1299.31 1475.3 Q1299.69 1481.35 1302.93 1484.53 Q1306.21 1487.68 1312.04 1487.68 Q1315.41 1487.68 1318.56 1486.85 Q1321.74 1486.03 1324.86 1484.37 L1324.86 1489.91 Q1321.71 1491.25 1318.4 1491.95 Q1315.09 1492.65 1311.69 1492.65 Q1303.16 1492.65 1298.16 1487.68 Q1293.19 1482.72 1293.19 1474.25 Q1293.19 1465.5 1297.9 1460.37 Q1302.65 1455.22 1310.67 1455.22 Q1317.86 1455.22 1322.03 1459.86 Q1326.23 1464.48 1326.23 1472.44 M1320.38 1470.72 Q1320.31 1465.91 1317.67 1463.05 Q1315.06 1460.18 1310.73 1460.18 Q1305.83 1460.18 1302.87 1462.95 Q1299.94 1465.72 1299.5 1470.75 L1320.38 1470.72 Z" fill="#000000" fill-rule="evenodd" fill-opacity="1" /><path clip-path="url(#clip370)" d="M 0 0 M41.4442 818.815 L41.4442 810.158 L81.198 789.087 L41.4442 789.087 L41.4442 782.849 L88.9642 782.849 L88.9642 791.506 L49.2103 812.577 L88.9642 812.577 L88.9642 818.815 L41.4442 818.815 Z" fill="#000000" fill-rule="evenodd" fill-opacity="1" /><path clip-path="url(#clip370)" d="M 0 0 M74.8959 777.311 L53.3162 777.311 L53.3162 771.454 L74.6731 771.454 Q79.7339 771.454 82.2802 769.481 Q84.7946 767.507 84.7946 763.561 Q84.7946 758.818 81.7709 756.081 Q78.7472 753.312 73.5273 753.312 L53.3162 753.312 L53.3162 747.455 L88.9642 747.455 L88.9642 753.312 L83.4896 753.312 Q86.7362 755.444 88.3276 758.277 Q89.8872 761.078 89.8872 764.802 Q89.8872 770.945 86.0678 774.128 Q82.2483 777.311 74.8959 777.311 M52.4568 762.574 L52.4568 762.574 Z" fill="#000000" fill-rule="evenodd" fill-opacity="1" /><path clip-path="url(#clip370)" d="M 0 0 M60.1593 713.558 Q56.2126 711.362 54.3347 708.306 Q52.4568 705.251 52.4568 701.113 Q52.4568 695.543 56.3717 692.519 Q60.2548 689.496 67.4481 689.496 L88.9642 689.496 L88.9642 695.384 L67.639 695.384 Q62.5146 695.384 60.032 697.198 Q57.5494 699.012 57.5494 702.736 Q57.5494 707.288 60.5731 709.93 Q63.5968 712.571 68.8167 712.571 L88.9642 712.571 L88.9642 718.46 L67.639 718.46 Q62.4828 718.46 60.032 720.274 Q57.5494 722.088 57.5494 725.876 Q57.5494 730.363 60.6049 733.005 Q63.6286 735.647 68.8167 735.647 L88.9642 735.647 L88.9642 741.535 L53.3162 741.535 L53.3162 735.647 L58.8544 735.647 Q55.576 733.642 54.0164 730.841 Q52.4568 728.04 52.4568 724.189 Q52.4568 720.306 54.4302 717.6 Q56.4036 714.863 60.1593 713.558 Z" fill="#000000" fill-rule="evenodd" fill-opacity="1" /><path clip-path="url(#clip370)" d="M 0 0 M71.172 657.763 Q64.7108 657.763 61.0505 660.436 Q57.3584 663.078 57.3584 667.725 Q57.3584 672.372 61.0505 675.045 Q64.7108 677.687 71.172 677.687 Q77.6332 677.687 81.3253 675.045 Q84.9856 672.372 84.9856 667.725 Q84.9856 663.078 81.3253 660.436 Q77.6332 657.763 71.172 657.763 M58.7271 677.687 Q55.5442 675.841 54.0164 673.04 Q52.4568 670.207 52.4568 666.293 Q52.4568 659.8 57.6131 655.757 Q62.7693 651.683 71.172 651.683 Q79.5747 651.683 84.731 655.757 Q89.8872 659.8 89.8872 666.293 Q89.8872 670.207 88.3594 673.04 Q86.7998 675.841 83.617 677.687 L88.9642 677.687 L88.9642 683.575 L39.439 683.575 L39.439 677.687 L58.7271 677.687 Z" fill="#000000" fill-rule="evenodd" fill-opacity="1" /><path clip-path="url(#clip370)" d="M 0 0 M69.6761 615.049 L72.5406 615.049 L72.5406 641.976 Q78.5881 641.594 81.7709 638.347 Q84.9219 635.069 84.9219 629.244 Q84.9219 625.87 84.0944 622.719 Q83.2669 619.536 81.6118 616.417 L87.1499 616.417 Q88.4867 619.568 89.187 622.878 Q89.8872 626.189 89.8872 629.594 Q89.8872 638.124 84.9219 643.121 Q79.9567 648.087 71.4903 648.087 Q62.7374 648.087 57.6131 643.376 Q52.4568 638.634 52.4568 630.613 Q52.4568 623.42 57.1038 619.25 Q61.7189 615.049 69.6761 615.049 M67.9573 620.905 Q63.1512 620.969 60.2866 623.611 Q57.4221 626.22 57.4221 630.549 Q57.4221 635.451 60.1912 638.411 Q62.9602 641.339 67.9892 641.785 L67.9573 620.905 Z" fill="#000000" fill-rule="evenodd" fill-opacity="1" /><path clip-path="url(#clip370)" d="M 0 0 M58.7907 588.249 Q58.2178 589.236 57.9632 590.413 Q57.6767 591.559 57.6767 592.96 Q57.6767 597.925 60.9232 600.598 Q64.1379 603.24 70.1853 603.24 L88.9642 603.24 L88.9642 609.129 L53.3162 609.129 L53.3162 603.24 L58.8544 603.24 Q55.6079 601.394 54.0483 598.434 Q52.4568 595.474 52.4568 591.241 Q52.4568 590.636 52.5523 589.904 Q52.616 589.172 52.7751 588.281 L58.7907 588.249 Z" fill="#000000" fill-rule="evenodd" fill-opacity="1" /><polyline clip-path="url(#clip372)" style="stroke:#0000ff; stroke-width:4; stroke-opacity:1; fill:none" points="
  307.689,84.3925 312.42,85.0191 317.15,85.6609 321.881,86.3183 326.612,86.9915 331.343,87.681 336.073,88.3871 340.804,89.1102 345.535,89.8507 350.266,90.6088 
  354.996,91.3851 359.727,92.18 364.458,92.9937 369.189,93.8268 373.919,94.6797 378.65,95.5527 383.381,96.4464 388.112,97.3611 392.842,98.2973 397.573,99.2554 
  402.304,100.236 407.035,101.239 411.765,102.266 416.496,103.317 421.227,104.392 425.958,105.491 430.688,106.616 435.419,107.767 440.15,108.944 444.881,110.148 
  449.611,111.379 454.342,112.638 459.073,113.926 463.804,115.242 468.534,116.588 473.265,117.965 477.996,119.371 482.726,120.809 487.457,122.279 492.188,123.781 
  496.919,125.315 501.649,126.884 506.38,128.486 511.111,130.123 515.842,131.795 520.572,133.503 525.303,135.247 530.034,137.029 534.765,138.848 539.495,140.705 
  544.226,142.601 548.957,144.536 553.688,146.511 558.418,148.527 563.149,150.584 567.88,152.682 572.611,154.823 577.341,157.007 582.072,159.234 586.803,161.505 
  591.534,163.821 596.264,166.182 600.995,168.588 605.726,171.041 610.457,173.541 615.187,176.088 619.918,178.683 624.649,181.326 629.38,184.018 634.11,186.759 
  638.841,189.55 643.572,192.391 648.303,195.283 653.033,198.225 657.764,201.219 662.495,204.265 667.226,207.363 671.956,210.513 676.687,213.715 681.418,216.971 
  686.149,220.28 690.879,223.643 695.61,227.059 700.341,230.53 705.072,234.054 709.802,237.632 714.533,241.265 719.264,244.952 723.994,248.694 728.725,252.49 
  733.456,256.34 738.187,260.245 742.917,264.204 747.648,268.216 752.379,272.283 757.11,276.403 761.84,280.577 766.571,284.803 771.302,289.082 776.033,293.414 
  780.763,297.797 785.494,302.231 790.225,306.717 794.956,311.253 799.686,315.838 804.417,320.473 809.148,325.156 813.879,329.888 818.609,334.666 823.34,339.49 
  828.071,344.36 832.802,349.276 837.532,354.235 842.263,359.237 846.994,364.281 851.725,369.365 856.455,374.489 861.186,379.652 865.917,384.851 870.648,390.086 
  875.378,395.356 880.109,400.66 884.84,405.996 889.571,411.362 894.301,416.758 899.032,422.182 903.763,427.633 908.494,433.109 913.224,438.61 917.955,444.132 
  922.686,449.677 927.417,455.24 932.147,460.823 936.878,466.421 941.609,472.035 946.34,477.663 951.07,483.303 955.801,488.953 960.532,494.612 965.262,500.279 
  969.993,505.951 974.724,511.628 979.455,517.306 984.185,522.985 988.916,528.664 993.647,534.34 998.378,540.013 1003.11,545.68 1007.84,551.341 1012.57,556.993 
  1017.3,562.636 1022.03,568.266 1026.76,573.884 1031.49,579.487 1036.22,585.075 1040.95,590.645 1045.69,596.196 1050.42,601.728 1055.15,607.238 1059.88,612.725 
  1064.61,618.188 1069.34,623.627 1074.07,629.039 1078.8,634.424 1083.53,639.781 1088.26,645.108 1092.99,650.404 1097.72,655.669 1102.45,660.901 1107.18,666.1 
  1111.92,671.264 1116.65,676.394 1121.38,681.487 1126.11,686.543 1130.84,691.561 1135.57,696.542 1140.3,701.483 1145.03,706.384 1149.76,711.245 1154.49,716.065 
  1159.22,720.843 1163.95,725.579 1168.68,730.273 1173.42,734.923 1178.15,739.53 1182.88,744.092 1187.61,748.61 1192.34,753.084 1197.07,757.513 1201.8,761.896 
  1206.53,766.235 1211.26,770.529 1215.99,774.777 1220.72,778.979 1225.45,783.136 1230.18,787.248 1234.91,791.313 1239.65,795.333 1244.38,799.307 1249.11,803.235 
  1253.84,807.118 1258.57,810.954 1263.3,814.745 1268.03,818.491 1272.76,822.191 1277.49,825.846 1282.22,829.455 1286.95,833.019 1291.68,836.538 1296.41,840.013 
  1301.15,843.443 1305.88,846.829 1310.61,850.171 1315.34,853.469 1320.07,856.723 1324.8,859.934 1329.53,863.103 1334.26,866.228 1338.99,869.312 1343.72,872.354 
  1348.45,875.354 1353.18,878.314 1357.91,881.233 1362.65,884.112 1367.38,886.95 1372.11,889.749 1376.84,892.509 1381.57,895.229 1386.3,897.911 1391.03,900.554 
  1395.76,903.16 1400.49,905.728 1405.22,908.26 1409.95,910.755 1414.68,913.214 1419.41,915.638 1424.14,918.026 1428.88,920.38 1433.61,922.7 1438.34,924.985 
  1443.07,927.237 1447.8,929.457 1452.53,931.643 1457.26,933.797 1461.99,935.92 1466.72,938.011 1471.45,940.071 1476.18,942.101 1480.91,944.1 1485.64,946.069 
  1490.38,948.009 1495.11,949.92 1499.84,951.803 1504.57,953.657 1509.3,955.482 1514.03,957.281 1518.76,959.052 1523.49,960.796 1528.22,962.514 1532.95,964.206 
  1537.68,965.872 1542.41,967.513 1547.14,969.128 1551.87,970.719 1556.61,972.286 1561.34,973.828 1566.07,975.347 1570.8,976.842 1575.53,978.315 1580.26,979.764 
  1584.99,981.192 1589.72,982.597 1594.45,983.98 1599.18,985.342 1603.91,986.683 1608.64,988.004 1613.37,989.303 1618.11,990.583 1622.84,991.843 1627.57,993.084 
  1632.3,994.305 1637.03,995.508 1641.76,996.692 1646.49,997.858 1651.22,999.005 1655.95,1000.14 1660.68,1001.25 1665.41,1002.34 1670.14,1003.42 1674.87,1004.48 
  1679.61,1005.53 1684.34,1006.56 1689.07,1007.57 1693.8,1008.57 1698.53,1009.55 1703.26,1010.52 1707.99,1011.47 1712.72,1012.4 1717.45,1013.33 1722.18,1014.24 
  1726.91,1015.13 1731.64,1016.01 1736.37,1016.88 1741.1,1017.73 1745.84,1018.57 1750.57,1019.4 1755.3,1020.21 1760.03,1021.01 1764.76,1021.8 1769.49,1022.58 
  1774.22,1023.35 1778.95,1024.1 1783.68,1024.84 1788.41,1025.57 1793.14,1026.29 1797.87,1027 1802.6,1027.69 1807.34,1028.38 1812.07,1029.06 1816.8,1029.72 
  1821.53,1030.38 1826.26,1031.02 1830.99,1031.66 1835.72,1032.28 1840.45,1032.9 1845.18,1033.5 1849.91,1034.1 1854.64,1034.69 1859.37,1035.27 1864.1,1035.84 
  1868.83,1036.4 1873.57,1036.95 1878.3,1037.5 1883.03,1038.03 1887.76,1038.56 1892.49,1039.08 1897.22,1039.59 1901.95,1040.1 1906.68,1040.59 1911.41,1041.08 
  1916.14,1041.56 1920.87,1042.04 1925.6,1042.5 1930.33,1042.96 1935.07,1043.42 1939.8,1043.86 1944.53,1044.3 1949.26,1044.73 1953.99,1045.15 1958.72,1045.57 
  1963.45,1045.98 1968.18,1046.39 1972.91,1046.79 1977.64,1047.18 1982.37,1047.57 1987.1,1047.95 1991.83,1048.32 1996.56,1048.69 2001.3,1049.05 2006.03,1049.41 
  2010.76,1049.76 2015.49,1050.11 2020.22,1050.45 2024.95,1050.79 2029.68,1051.12 2034.41,1051.44 2039.14,1051.76 2043.87,1052.08 2048.6,1052.39 2053.33,1052.7 
  2058.06,1053 2062.8,1053.29 2067.53,1053.59 2072.26,1053.87 2076.99,1054.16 2081.72,1054.44 2086.45,1054.71 2091.18,1054.98 2095.91,1055.25 2100.64,1055.51 
  2105.37,1055.77 2110.1,1056.02 2114.83,1056.27 2119.56,1056.52 2124.3,1056.77 2129.03,1057 2133.76,1057.24 2138.49,1057.47 2143.22,1057.7 2147.95,1057.93 
  2152.68,1058.15 2157.41,1058.37 2162.14,1058.59 2166.87,1058.8 2171.6,1059.01 2176.33,1059.22 2181.06,1059.42 2185.79,1059.62 2190.53,1059.82 2195.26,1060.01 
  2199.99,1060.2 
  "/>
<polyline clip-path="url(#clip372)" style="stroke:#ff0000; stroke-width:4; stroke-opacity:1; fill:none" points="
  307.689,1310.16 312.42,1309.85 317.15,1309.54 321.881,1309.21 326.612,1308.88 331.343,1308.54 336.073,1308.19 340.804,1307.83 345.535,1307.47 350.266,1307.09 
  354.996,1306.71 359.727,1306.32 364.458,1305.92 369.189,1305.51 373.919,1305.09 378.65,1304.67 383.381,1304.23 388.112,1303.78 392.842,1303.32 397.573,1302.85 
  402.304,1302.37 407.035,1301.88 411.765,1301.38 416.496,1300.87 421.227,1300.35 425.958,1299.81 430.688,1299.27 435.419,1298.71 440.15,1298.14 444.881,1297.55 
  449.611,1296.96 454.342,1296.35 459.073,1295.73 463.804,1295.09 468.534,1294.44 473.265,1293.78 477.996,1293.11 482.726,1292.42 487.457,1291.71 492.188,1290.99 
  496.919,1290.26 501.649,1289.51 506.38,1288.75 511.111,1287.97 515.842,1287.17 520.572,1286.36 525.303,1285.54 530.034,1284.69 534.765,1283.83 539.495,1282.96 
  544.226,1282.07 548.957,1281.16 553.688,1280.23 558.418,1279.29 563.149,1278.33 567.88,1277.35 572.611,1276.36 577.341,1275.34 582.072,1274.31 586.803,1273.26 
  591.534,1272.19 596.264,1271.11 600.995,1270.01 605.726,1268.88 610.457,1267.74 615.187,1266.58 619.918,1265.41 624.649,1264.21 629.38,1262.99 634.11,1261.76 
  638.841,1260.51 643.572,1259.24 648.303,1257.95 653.033,1256.64 657.764,1255.31 662.495,1253.97 667.226,1252.6 671.956,1251.22 676.687,1249.82 681.418,1248.41 
  686.149,1246.97 690.879,1245.52 695.61,1244.05 700.341,1242.56 705.072,1241.06 709.802,1239.54 714.533,1238.01 719.264,1236.46 723.994,1234.89 728.725,1233.31 
  733.456,1231.71 738.187,1230.1 742.917,1228.48 747.648,1226.84 752.379,1225.19 757.11,1223.53 761.84,1221.85 766.571,1220.17 771.302,1218.47 776.033,1216.77 
  780.763,1215.05 785.494,1213.33 790.225,1211.6 794.956,1209.86 799.686,1208.12 804.417,1206.37 809.148,1204.62 813.879,1202.86 818.609,1201.1 823.34,1199.33 
  828.071,1197.57 832.802,1195.8 837.532,1194.04 842.263,1192.27 846.994,1190.51 851.725,1188.75 856.455,1187 861.186,1185.25 865.917,1183.51 870.648,1181.78 
  875.378,1180.05 880.109,1178.33 884.84,1176.63 889.571,1174.93 894.301,1173.25 899.032,1171.58 903.763,1169.93 908.494,1168.29 913.224,1166.67 917.955,1165.07 
  922.686,1163.49 927.417,1161.92 932.147,1160.38 936.878,1158.85 941.609,1157.35 946.34,1155.88 951.07,1154.43 955.801,1153 960.532,1151.6 965.262,1150.23 
  969.993,1148.88 974.724,1147.57 979.455,1146.28 984.185,1145.03 988.916,1143.81 993.647,1142.62 998.378,1141.46 1003.11,1140.34 1007.84,1139.25 1012.57,1138.2 
  1017.3,1137.18 1022.03,1136.2 1026.76,1135.26 1031.49,1134.35 1036.22,1133.48 1040.95,1132.65 1045.69,1131.86 1050.42,1131.11 1055.15,1130.4 1059.88,1129.73 
  1064.61,1129.09 1069.34,1128.5 1074.07,1127.95 1078.8,1127.44 1083.53,1126.97 1088.26,1126.54 1092.99,1126.15 1097.72,1125.8 1102.45,1125.49 1107.18,1125.23 
  1111.92,1125 1116.65,1124.81 1121.38,1124.67 1126.11,1124.57 1130.84,1124.5 1135.57,1124.47 1140.3,1124.49 1145.03,1124.54 1149.76,1124.63 1154.49,1124.76 
  1159.22,1124.93 1163.95,1125.14 1168.68,1125.38 1173.42,1125.66 1178.15,1125.97 1182.88,1126.32 1187.61,1126.71 1192.34,1127.13 1197.07,1127.58 1201.8,1128.07 
  1206.53,1128.59 1211.26,1129.14 1215.99,1129.72 1220.72,1130.34 1225.45,1130.98 1230.18,1131.65 1234.91,1132.35 1239.65,1133.08 1244.38,1133.84 1249.11,1134.62 
  1253.84,1135.43 1258.57,1136.26 1263.3,1137.12 1268.03,1138.01 1272.76,1138.91 1277.49,1139.84 1282.22,1140.79 1286.95,1141.76 1291.68,1142.75 1296.41,1143.76 
  1301.15,1144.79 1305.88,1145.84 1310.61,1146.91 1315.34,1147.99 1320.07,1149.09 1324.8,1150.2 1329.53,1151.33 1334.26,1152.48 1338.99,1153.63 1343.72,1154.8 
  1348.45,1155.98 1353.18,1157.18 1357.91,1158.38 1362.65,1159.59 1367.38,1160.82 1372.11,1162.05 1376.84,1163.29 1381.57,1164.53 1386.3,1165.79 1391.03,1167.05 
  1395.76,1168.32 1400.49,1169.59 1405.22,1170.87 1409.95,1172.15 1414.68,1173.43 1419.41,1174.72 1424.14,1176.01 1428.88,1177.31 1433.61,1178.61 1438.34,1179.9 
  1443.07,1181.2 1447.8,1182.5 1452.53,1183.8 1457.26,1185.11 1461.99,1186.41 1466.72,1187.7 1471.45,1189 1476.18,1190.3 1480.91,1191.59 1485.64,1192.89 
  1490.38,1194.18 1495.11,1195.46 1499.84,1196.75 1504.57,1198.02 1509.3,1199.3 1514.03,1200.57 1518.76,1201.84 1523.49,1203.1 1528.22,1204.36 1532.95,1205.61 
  1537.68,1206.86 1542.41,1208.1 1547.14,1209.33 1551.87,1210.56 1556.61,1211.78 1561.34,1213 1566.07,1214.21 1570.8,1215.41 1575.53,1216.61 1580.26,1217.79 
  1584.99,1218.97 1589.72,1220.15 1594.45,1221.31 1599.18,1222.47 1603.91,1223.62 1608.64,1224.76 1613.37,1225.9 1618.11,1227.02 1622.84,1228.14 1627.57,1229.25 
  1632.3,1230.35 1637.03,1231.44 1641.76,1232.52 1646.49,1233.6 1651.22,1234.66 1655.95,1235.72 1660.68,1236.77 1665.41,1237.81 1670.14,1238.84 1674.87,1239.86 
  1679.61,1240.87 1684.34,1241.87 1689.07,1242.87 1693.8,1243.85 1698.53,1244.83 1703.26,1245.8 1707.99,1246.76 1712.72,1247.71 1717.45,1248.65 1722.18,1249.58 
  1726.91,1250.5 1731.64,1251.41 1736.37,1252.31 1741.1,1253.21 1745.84,1254.09 1750.57,1254.97 1755.3,1255.84 1760.03,1256.7 1764.76,1257.55 1769.49,1258.39 
  1774.22,1259.22 1778.95,1260.04 1783.68,1260.85 1788.41,1261.66 1793.14,1262.46 1797.87,1263.24 1802.6,1264.02 1807.34,1264.79 1812.07,1265.55 1816.8,1266.31 
  1821.53,1267.05 1826.26,1267.79 1830.99,1268.52 1835.72,1269.24 1840.45,1269.95 1845.18,1270.65 1849.91,1271.35 1854.64,1272.03 1859.37,1272.71 1864.1,1273.39 
  1868.83,1274.05 1873.57,1274.71 1878.3,1275.35 1883.03,1275.99 1887.76,1276.63 1892.49,1277.25 1897.22,1277.87 1901.95,1278.48 1906.68,1279.08 1911.41,1279.68 
  1916.14,1280.27 1920.87,1280.85 1925.6,1281.42 1930.33,1281.99 1935.07,1282.55 1939.8,1283.1 1944.53,1283.65 1949.26,1284.19 1953.99,1284.72 1958.72,1285.25 
  1963.45,1285.77 1968.18,1286.28 1972.91,1286.78 1977.64,1287.28 1982.37,1287.78 1987.1,1288.26 1991.83,1288.74 1996.56,1289.22 2001.3,1289.68 2006.03,1290.15 
  2010.76,1290.6 2015.49,1291.05 2020.22,1291.49 2024.95,1291.93 2029.68,1292.36 2034.41,1292.79 2039.14,1293.21 2043.87,1293.62 2048.6,1294.03 2053.33,1294.43 
  2058.06,1294.83 2062.8,1295.22 2067.53,1295.61 2072.26,1295.99 2076.99,1296.37 2081.72,1296.74 2086.45,1297.11 2091.18,1297.47 2095.91,1297.83 2100.64,1298.18 
  2105.37,1298.53 2110.1,1298.87 2114.83,1299.21 2119.56,1299.54 2124.3,1299.87 2129.03,1300.19 2133.76,1300.51 2138.49,1300.83 2143.22,1301.14 2147.95,1301.45 
  2152.68,1301.75 2157.41,1302.05 2162.14,1302.35 2166.87,1302.64 2171.6,1302.92 2176.33,1303.21 2181.06,1303.49 2185.79,1303.76 2190.53,1304.04 2195.26,1304.3 
  2199.99,1304.57 
  "/>
<polyline clip-path="url(#clip372)" style="stroke:#008000; stroke-width:4; stroke-opacity:1; fill:none" points="
  307.689,1322.67 312.42,1322.35 317.15,1322.03 321.881,1321.7 326.612,1321.36 331.343,1321.01 336.073,1320.65 340.804,1320.28 345.535,1319.91 350.266,1319.52 
  354.996,1319.13 359.727,1318.73 364.458,1318.31 369.189,1317.89 373.919,1317.45 378.65,1317.01 383.381,1316.55 388.112,1316.09 392.842,1315.61 397.573,1315.12 
  402.304,1314.62 407.035,1314.1 411.765,1313.58 416.496,1313.04 421.227,1312.49 425.958,1311.92 430.688,1311.35 435.419,1310.75 440.15,1310.15 444.881,1309.53 
  449.611,1308.89 454.342,1308.24 459.073,1307.57 463.804,1306.89 468.534,1306.2 473.265,1305.48 477.996,1304.75 482.726,1304 487.457,1303.24 492.188,1302.46 
  496.919,1301.65 501.649,1300.83 506.38,1300 511.111,1299.14 515.842,1298.26 520.572,1297.36 525.303,1296.44 530.034,1295.51 534.765,1294.55 539.495,1293.56 
  544.226,1292.56 548.957,1291.53 553.688,1290.48 558.418,1289.41 563.149,1288.31 567.88,1287.19 572.611,1286.05 577.341,1284.88 582.072,1283.68 586.803,1282.46 
  591.534,1281.21 596.264,1279.94 600.995,1278.63 605.726,1277.3 610.457,1275.94 615.187,1274.56 619.918,1273.14 624.649,1271.69 629.38,1270.22 634.11,1268.71 
  638.841,1267.17 643.572,1265.6 648.303,1264 653.033,1262.36 657.764,1260.7 662.495,1259 667.226,1257.26 671.956,1255.49 676.687,1253.69 681.418,1251.85 
  686.149,1249.98 690.879,1248.06 695.61,1246.12 700.341,1244.13 705.072,1242.11 709.802,1240.05 714.533,1237.96 719.264,1235.82 723.994,1233.65 728.725,1231.43 
  733.456,1229.18 738.187,1226.88 742.917,1224.55 747.648,1222.17 752.379,1219.76 757.11,1217.3 761.84,1214.8 766.571,1212.26 771.302,1209.67 776.033,1207.05 
  780.763,1204.38 785.494,1201.66 790.225,1198.91 794.956,1196.11 799.686,1193.27 804.417,1190.38 809.148,1187.45 813.879,1184.48 818.609,1181.46 823.34,1178.4 
  828.071,1175.3 832.802,1172.15 837.532,1168.95 842.263,1165.72 846.994,1162.43 851.725,1159.11 856.455,1155.74 861.186,1152.32 865.917,1148.87 870.648,1145.37 
  875.378,1141.82 880.109,1138.23 884.84,1134.6 889.571,1130.93 894.301,1127.22 899.032,1123.46 903.763,1119.66 908.494,1115.82 913.224,1111.94 917.955,1108.02 
  922.686,1104.06 927.417,1100.07 932.147,1096.03 936.878,1091.95 941.609,1087.84 946.34,1083.69 951.07,1079.5 955.801,1075.27 960.532,1071.02 965.262,1066.72 
  969.993,1062.39 974.724,1058.03 979.455,1053.64 984.185,1049.21 988.916,1044.76 993.647,1040.27 998.378,1035.75 1003.11,1031.21 1007.84,1026.64 1012.57,1022.04 
  1017.3,1017.41 1022.03,1012.76 1026.76,1008.09 1031.49,1003.39 1036.22,998.669 1040.95,993.928 1045.69,989.168 1050.42,984.388 1055.15,979.591 1059.88,974.776 
  1064.61,969.945 1069.34,965.099 1074.07,960.239 1078.8,955.365 1083.53,950.479 1088.26,945.582 1092.99,940.675 1097.72,935.758 1102.45,930.833 1107.18,925.901 
  1111.92,920.963 1116.65,916.019 1121.38,911.071 1126.11,906.12 1130.84,901.166 1135.57,896.211 1140.3,891.256 1145.03,886.301 1149.76,881.349 1154.49,876.399 
  1159.22,871.452 1163.95,866.511 1168.68,861.575 1173.42,856.647 1178.15,851.725 1182.88,846.812 1187.61,841.908 1192.34,837.014 1197.07,832.131 1201.8,827.26 
  1206.53,822.402 1211.26,817.557 1215.99,812.726 1220.72,807.91 1225.45,803.11 1230.18,798.326 1234.91,793.56 1239.65,788.811 1244.38,784.081 1249.11,779.37 
  1253.84,774.679 1258.57,770.008 1263.3,765.359 1268.03,760.731 1272.76,756.126 1277.49,751.544 1282.22,746.985 1286.95,742.45 1291.68,737.939 1296.41,733.453 
  1301.15,728.993 1305.88,724.559 1310.61,720.152 1315.34,715.771 1320.07,711.417 1324.8,707.091 1329.53,702.793 1334.26,698.524 1338.99,694.283 1343.72,690.072 
  1348.45,685.89 1353.18,681.737 1357.91,677.615 1362.65,673.522 1367.38,669.461 1372.11,665.431 1376.84,661.432 1381.57,657.464 1386.3,653.528 1391.03,649.624 
  1395.76,645.752 1400.49,641.911 1405.22,638.102 1409.95,634.325 1414.68,630.58 1419.41,626.868 1424.14,623.187 1428.88,619.538 1433.61,615.922 1438.34,612.338 
  1443.07,608.786 1447.8,605.267 1452.53,601.78 1457.26,598.325 1461.99,594.902 1466.72,591.512 1471.45,588.154 1476.18,584.828 1480.91,581.534 1485.64,578.272 
  1490.38,575.043 1495.11,571.845 1499.84,568.68 1504.57,565.546 1509.3,562.445 1514.03,559.375 1518.76,556.336 1523.49,553.33 1528.22,550.354 1532.95,547.411 
  1537.68,544.498 1542.41,541.617 1547.14,538.766 1551.87,535.947 1556.61,533.158 1561.34,530.4 1566.07,527.672 1570.8,524.974 1575.53,522.307 1580.26,519.669 
  1584.99,517.062 1589.72,514.483 1594.45,511.934 1599.18,509.415 1603.91,506.924 1608.64,504.462 1613.37,502.028 1618.11,499.623 1622.84,497.246 1627.57,494.897 
  1632.3,492.575 1637.03,490.281 1641.76,488.014 1646.49,485.773 1651.22,483.56 1655.95,481.373 1660.68,479.213 1665.41,477.078 1670.14,474.969 1674.87,472.886 
  1679.61,470.829 1684.34,468.796 1689.07,466.789 1693.8,464.806 1698.53,462.848 1703.26,460.914 1707.99,459.004 1712.72,457.117 1717.45,455.255 1722.18,453.416 
  1726.91,451.6 1731.64,449.806 1736.37,448.036 1741.1,446.288 1745.84,444.563 1750.57,442.859 1755.3,441.177 1760.03,439.517 1764.76,437.878 1769.49,436.261 
  1774.22,434.664 1778.95,433.088 1783.68,431.532 1788.41,429.997 1793.14,428.482 1797.87,426.986 1802.6,425.511 1807.34,424.054 1812.07,422.617 1816.8,421.198 
  1821.53,419.799 1826.26,418.418 1830.99,417.055 1835.72,415.71 1840.45,414.382 1845.18,413.072 1849.91,411.779 1854.64,410.504 1859.37,409.245 1864.1,408.003 
  1868.83,406.777 1873.57,405.568 1878.3,404.375 1883.03,403.199 1887.76,402.037 1892.49,400.892 1897.22,399.762 1901.95,398.648 1906.68,397.548 1911.41,396.464 
  1916.14,395.394 1920.87,394.339 1925.6,393.299 1930.33,392.273 1935.07,391.261 1939.8,390.263 1944.53,389.279 1949.26,388.309 1953.99,387.352 1958.72,386.408 
  1963.45,385.478 1968.18,384.56 1972.91,383.656 1977.64,382.764 1982.37,381.885 1987.1,381.018 1991.83,380.163 1996.56,379.321 2001.3,378.49 2006.03,377.671 
  2010.76,376.864 2015.49,376.068 2020.22,375.284 2024.95,374.511 2029.68,373.749 2034.41,372.997 2039.14,372.257 2043.87,371.526 2048.6,370.807 2053.33,370.097 
  2058.06,369.398 2062.8,368.709 2067.53,368.03 2072.26,367.36 2076.99,366.7 2081.72,366.049 2086.45,365.408 2091.18,364.775 2095.91,364.152 2100.64,363.538 
  2105.37,362.932 2110.1,362.335 2114.83,361.746 2119.56,361.166 2124.3,360.594 2129.03,360.03 2133.76,359.473 2138.49,358.925 2143.22,358.384 2147.95,357.851 
  2152.68,357.325 2157.41,356.807 2162.14,356.295 2166.87,355.791 2171.6,355.294 2176.33,354.804 2181.06,354.32 2185.79,353.844 2190.53,353.375 2195.26,352.912 
  2199.99,352.457 
  "/>
<path clip-path="url(#clip370)" d="
M1999.43 272.437 L2256.76 272.437 L2256.76 30.5166 L1999.43 30.5166  Z
  " fill="#ffffff" fill-rule="evenodd" fill-opacity="1"/>
<polyline clip-path="url(#clip370)" style="stroke:#000000; stroke-width:4; stroke-opacity:1; fill:none" points="
  1999.43,272.437 2256.76,272.437 2256.76,30.5166 1999.43,30.5166 1999.43,272.437 
  "/>
<polyline clip-path="url(#clip370)" style="stroke:#0000ff; stroke-width:4; stroke-opacity:1; fill:none" points="
  2022.47,90.9966 2160.71,90.9966 
  "/>
<path clip-path="url(#clip370)" d="M 0 0 M2206 74.8509 L2206 79.411 Q2203.34 78.1379 2200.98 77.5129 Q2198.62 76.8879 2196.42 76.8879 Q2192.6 76.8879 2190.51 78.3694 Q2188.45 79.8508 2188.45 82.5823 Q2188.45 84.874 2189.82 86.0545 Q2191.21 87.2119 2195.05 87.9295 L2197.88 88.5082 Q2203.11 89.5036 2205.58 92.0267 Q2208.08 94.5267 2208.08 98.7396 Q2208.08 103.763 2204.7 106.355 Q2201.35 108.948 2194.84 108.948 Q2192.39 108.948 2189.61 108.392 Q2186.86 107.837 2183.89 106.749 L2183.89 101.934 Q2186.74 103.531 2189.47 104.341 Q2192.2 105.152 2194.84 105.152 Q2198.85 105.152 2201.02 103.578 Q2203.2 102.004 2203.2 99.0869 Q2203.2 96.5406 2201.63 95.1054 Q2200.07 93.6702 2196.51 92.9526 L2193.66 92.3971 Q2188.43 91.3554 2186.09 89.1332 Q2183.75 86.911 2183.75 82.9527 Q2183.75 78.3694 2186.97 75.7305 Q2190.21 73.0916 2195.88 73.0916 Q2198.31 73.0916 2200.84 73.5314 Q2203.36 73.9712 2206 74.8509 Z" fill="#000000" fill-rule="evenodd" fill-opacity="1" /><polyline clip-path="url(#clip370)" style="stroke:#ff0000; stroke-width:4; stroke-opacity:1; fill:none" points="
  2022.47,151.477 2160.71,151.477 
  "/>
<path clip-path="url(#clip370)" d="M 0 0 M2183.75 134.197 L2188.43 134.197 L2188.43 168.757 L2183.75 168.757 L2183.75 134.197 Z" fill="#000000" fill-rule="evenodd" fill-opacity="1" /><polyline clip-path="url(#clip370)" style="stroke:#008000; stroke-width:4; stroke-opacity:1; fill:none" points="
  2022.47,211.957 2160.71,211.957 
  "/>
<path clip-path="url(#clip370)" d="M 0 0 M2200.14 213.033 Q2201.65 213.542 2203.06 215.209 Q2204.5 216.876 2205.93 219.792 L2210.68 229.237 L2205.65 229.237 L2201.23 220.371 Q2199.52 216.899 2197.9 215.764 Q2196.3 214.63 2193.52 214.63 L2188.43 214.63 L2188.43 229.237 L2183.75 229.237 L2183.75 194.677 L2194.31 194.677 Q2200.24 194.677 2203.15 197.153 Q2206.07 199.63 2206.07 204.63 Q2206.07 207.894 2204.54 210.047 Q2203.04 212.2 2200.14 213.033 M2188.43 198.519 L2188.43 210.788 L2194.31 210.788 Q2197.69 210.788 2199.4 209.237 Q2201.14 207.663 2201.14 204.63 Q2201.14 201.598 2199.4 200.07 Q2197.69 198.519 2194.31 198.519 L2188.43 198.519 Z" fill="#000000" fill-rule="evenodd" fill-opacity="1" /></svg>
