<?xml version="1.0" encoding="utf-8"?>
<svg xmlns="http://www.w3.org/2000/svg" xmlns:xlink="http://www.w3.org/1999/xlink" width="576" height="384" viewBox="0 0 2304 1536">
<defs>
  <clipPath id="clip560">
    <rect x="0" y="0" width="2304" height="1536"/>
  </clipPath>
</defs>
<path clip-path="url(#clip560)" d="
M0 1536 L2304 1536 L2304 0 L0 0  Z
  " fill="#ffffff" fill-rule="evenodd" fill-opacity="1"/>
<defs>
  <clipPath id="clip561">
    <rect x="460" y="0" width="1614" height="1536"/>
  </clipPath>
</defs>
<path clip-path="url(#clip560)" d="
M250.92 1359.82 L2256.76 1359.82 L2256.76 47.2441 L250.92 47.2441  Z
  " fill="#ffffff" fill-rule="evenodd" fill-opacity="1"/>
<defs>
  <clipPath id="clip562">
    <rect x="250" y="47" width="2007" height="1314"/>
  </clipPath>
</defs>
<polyline clip-path="url(#clip562)" style="stroke:#000000; stroke-width:2; stroke-opacity:0.1; fill:none" points="
  307.689,1359.82 307.689,47.2441 
  "/>
<polyline clip-path="url(#clip562)" style="stroke:#000000; stroke-width:2; stroke-opacity:0.1; fill:none" points="
  780.763,1359.82 780.763,47.2441 
  "/>
<polyline clip-path="url(#clip562)" style="stroke:#000000; stroke-width:2; stroke-opacity:0.1; fill:none" points="
  1253.84,1359.82 1253.84,47.2441 
  "/>
<polyline clip-path="url(#clip562)" style="stroke:#000000; stroke-width:2; stroke-opacity:0.1; fill:none" points="
  1726.91,1359.82 1726.91,47.2441 
  "/>
<polyline clip-path="url(#clip562)" style="stroke:#000000; stroke-width:2; stroke-opacity:0.1; fill:none" points="
  2199.99,1359.82 2199.99,47.2441 
  "/>
<polyline clip-path="url(#clip562)" style="stroke:#000000; stroke-width:2; stroke-opacity:0.1; fill:none" points="
  250.92,1322.67 2256.76,1322.67 
  "/>
<polyline clip-path="url(#clip562)" style="stroke:#000000; stroke-width:2; stroke-opacity:0.1; fill:none" points="
  250.92,1009.97 2256.76,1009.97 
  "/>
<polyline clip-path="url(#clip562)" style="stroke:#000000; stroke-width:2; stroke-opacity:0.1; fill:none" points="
  250.92,697.278 2256.76,697.278 
  "/>
<polyline clip-path="url(#clip562)" style="stroke:#000000; stroke-width:2; stroke-opacity:0.1; fill:none" points="
  250.92,384.581 2256.76,384.581 
  "/>
<polyline clip-path="url(#clip562)" style="stroke:#000000; stroke-width:2; stroke-opacity:0.1; fill:none" points="
  250.92,71.8846 2256.76,71.8846 
  "/>
<polyline clip-path="url(#clip560)" style="stroke:#000000; stroke-width:4; stroke-opacity:1; fill:none" points="
  250.92,1359.82 2256.76,1359.82 
  "/>
<polyline clip-path="url(#clip560)" style="stroke:#000000; stroke-width:4; stroke-opacity:1; fill:none" points="
  250.92,1359.82 250.92,47.2441 
  "/>
<polyline clip-path="url(#clip560)" style="stroke:#000000; stroke-width:4; stroke-opacity:1; fill:none" points="
  307.689,1359.82 307.689,1344.07 
  "/>
<polyline clip-path="url(#clip560)" style="stroke:#000000; stroke-width:4; stroke-opacity:1; fill:none" points="
  780.763,1359.82 780.763,1344.07 
  "/>
<polyline clip-path="url(#clip560)" style="stroke:#000000; stroke-width:4; stroke-opacity:1; fill:none" points="
  1253.84,1359.82 1253.84,1344.07 
  "/>
<polyline clip-path="url(#clip560)" style="stroke:#000000; stroke-width:4; stroke-opacity:1; fill:none" points="
  1726.91,1359.82 1726.91,1344.07 
  "/>
<polyline clip-path="url(#clip560)" style="stroke:#000000; stroke-width:4; stroke-opacity:1; fill:none" points="
  2199.99,1359.82 2199.99,1344.07 
  "/>
<polyline clip-path="url(#clip560)" style="stroke:#000000; stroke-width:4; stroke-opacity:1; fill:none" points="
  250.92,1322.67 274.99,1322.67 
  "/>
<polyline clip-path="url(#clip560)" style="stroke:#000000; stroke-width:4; stroke-opacity:1; fill:none" points="
  250.92,1009.97 274.99,1009.97 
  "/>
<polyline clip-path="url(#clip560)" style="stroke:#000000; stroke-width:4; stroke-opacity:1; fill:none" points="
  250.92,697.278 274.99,697.278 
  "/>
<polyline clip-path="url(#clip560)" style="stroke:#000000; stroke-width:4; stroke-opacity:1; fill:none" points="
  250.92,384.581 274.99,384.581 
  "/>
<polyline clip-path="url(#clip560)" style="stroke:#000000; stroke-width:4; stroke-opacity:1; fill:none" points="
  250.92,71.8846 274.99,71.8846 
  "/>
<path clip-path="url(#clip560)" d="M 0 0 M307.689 1381.33 Q304.078 1381.33 302.249 1384.9 Q300.444 1388.44 300.444 1395.57 Q300.444 1402.67 302.249 1406.24 Q304.078 1409.78 307.689 1409.78 Q311.323 1409.78 313.129 1406.24 Q314.957 1402.67 314.957 1395.57 Q314.957 1388.44 313.129 1384.9 Q311.323 1381.33 307.689 1381.33 M307.689 1377.63 Q313.499 1377.63 316.555 1382.23 Q319.633 1386.82 319.633 1395.57 Q319.633 1404.29 316.555 1408.9 Q313.499 1413.48 307.689 1413.48 Q301.879 1413.48 298.8 1408.9 Q295.745 1404.29 295.745 1395.57 Q295.745 1386.82 298.8 1382.23 Q301.879 1377.63 307.689 1377.63 Z" fill="#000000" fill-rule="evenodd" fill-opacity="1" /><path clip-path="url(#clip560)" d="M 0 0 M757.639 1408.88 L765.277 1408.88 L765.277 1382.51 L756.967 1384.18 L756.967 1379.92 L765.231 1378.25 L769.907 1378.25 L769.907 1408.88 L777.546 1408.88 L777.546 1412.81 L757.639 1412.81 L757.639 1408.88 Z" fill="#000000" fill-rule="evenodd" fill-opacity="1" /><path clip-path="url(#clip560)" d="M 0 0 M792.615 1381.33 Q789.004 1381.33 787.175 1384.9 Q785.37 1388.44 785.37 1395.57 Q785.37 1402.67 787.175 1406.24 Q789.004 1409.78 792.615 1409.78 Q796.249 1409.78 798.055 1406.24 Q799.884 1402.67 799.884 1395.57 Q799.884 1388.44 798.055 1384.9 Q796.249 1381.33 792.615 1381.33 M792.615 1377.63 Q798.425 1377.63 801.481 1382.23 Q804.56 1386.82 804.56 1395.57 Q804.56 1404.29 801.481 1408.9 Q798.425 1413.48 792.615 1413.48 Q786.805 1413.48 783.726 1408.9 Q780.671 1404.29 780.671 1395.57 Q780.671 1386.82 783.726 1382.23 Q786.805 1377.63 792.615 1377.63 Z" fill="#000000" fill-rule="evenodd" fill-opacity="1" /><path clip-path="url(#clip560)" d="M 0 0 M1234.98 1408.88 L1251.3 1408.88 L1251.3 1412.81 L1229.36 1412.81 L1229.36 1408.88 Q1232.02 1406.12 1236.6 1401.49 Q1241.21 1396.84 1242.39 1395.5 Q1244.64 1392.97 1245.52 1391.24 Q1246.42 1389.48 1246.42 1387.79 Q1246.42 1385.03 1244.47 1383.3 Q1242.55 1381.56 1239.45 1381.56 Q1237.25 1381.56 1234.8 1382.33 Q1232.37 1383.09 1229.59 1384.64 L1229.59 1379.92 Q1232.41 1378.78 1234.87 1378.21 Q1237.32 1377.63 1239.36 1377.63 Q1244.73 1377.63 1247.92 1380.31 Q1251.12 1383 1251.12 1387.49 Q1251.12 1389.62 1250.31 1391.54 Q1249.52 1393.44 1247.41 1396.03 Q1246.84 1396.7 1243.73 1399.92 Q1240.63 1403.11 1234.98 1408.88 Z" fill="#000000" fill-rule="evenodd" fill-opacity="1" /><path clip-path="url(#clip560)" d="M 0 0 M1266.37 1381.33 Q1262.76 1381.33 1260.93 1384.9 Q1259.13 1388.44 1259.13 1395.57 Q1259.13 1402.67 1260.93 1406.24 Q1262.76 1409.78 1266.37 1409.78 Q1270.01 1409.78 1271.81 1406.24 Q1273.64 1402.67 1273.64 1395.57 Q1273.64 1388.44 1271.81 1384.9 Q1270.01 1381.33 1266.37 1381.33 M1266.37 1377.63 Q1272.18 1377.63 1275.24 1382.23 Q1278.32 1386.82 1278.32 1395.57 Q1278.32 1404.29 1275.24 1408.9 Q1272.18 1413.48 1266.37 1413.48 Q1260.56 1413.48 1257.48 1408.9 Q1254.43 1404.29 1254.43 1395.57 Q1254.43 1386.82 1257.48 1382.23 Q1260.56 1377.63 1266.37 1377.63 Z" fill="#000000" fill-rule="evenodd" fill-opacity="1" /><path clip-path="url(#clip560)" d="M 0 0 M1717.65 1394.18 Q1721.01 1394.9 1722.88 1397.16 Q1724.78 1399.43 1724.78 1402.77 Q1724.78 1407.88 1721.26 1410.68 Q1717.75 1413.48 1711.26 1413.48 Q1709.09 1413.48 1706.77 1413.04 Q1704.48 1412.63 1702.03 1411.77 L1702.03 1407.26 Q1703.97 1408.39 1706.29 1408.97 Q1708.6 1409.55 1711.13 1409.55 Q1715.52 1409.55 1717.82 1407.81 Q1720.13 1406.08 1720.13 1402.77 Q1720.13 1399.71 1717.98 1398 Q1715.85 1396.26 1712.03 1396.26 L1708 1396.26 L1708 1392.42 L1712.21 1392.42 Q1715.66 1392.42 1717.49 1391.05 Q1719.32 1389.66 1719.32 1387.07 Q1719.32 1384.41 1717.42 1383 Q1715.55 1381.56 1712.03 1381.56 Q1710.11 1381.56 1707.91 1381.98 Q1705.71 1382.4 1703.07 1383.27 L1703.07 1379.11 Q1705.73 1378.37 1708.05 1378 Q1710.38 1377.63 1712.44 1377.63 Q1717.77 1377.63 1720.87 1380.06 Q1723.97 1382.46 1723.97 1386.59 Q1723.97 1389.46 1722.33 1391.45 Q1720.69 1393.41 1717.65 1394.18 Z" fill="#000000" fill-rule="evenodd" fill-opacity="1" /><path clip-path="url(#clip560)" d="M 0 0 M1739.85 1381.33 Q1736.24 1381.33 1734.41 1384.9 Q1732.61 1388.44 1732.61 1395.57 Q1732.61 1402.67 1734.41 1406.24 Q1736.24 1409.78 1739.85 1409.78 Q1743.49 1409.78 1745.29 1406.24 Q1747.12 1402.67 1747.12 1395.57 Q1747.12 1388.44 1745.29 1384.9 Q1743.49 1381.33 1739.85 1381.33 M1739.85 1377.63 Q1745.66 1377.63 1748.72 1382.23 Q1751.8 1386.82 1751.8 1395.57 Q1751.8 1404.29 1748.72 1408.9 Q1745.66 1413.48 1739.85 1413.48 Q1734.04 1413.48 1730.96 1408.9 Q1727.91 1404.29 1727.91 1395.57 Q1727.91 1386.82 1730.96 1382.23 Q1734.04 1377.63 1739.85 1377.63 Z" fill="#000000" fill-rule="evenodd" fill-opacity="1" /><path clip-path="url(#clip560)" d="M 0 0 M2189.49 1382.33 L2177.68 1400.77 L2189.49 1400.77 L2189.49 1382.33 M2188.26 1378.25 L2194.14 1378.25 L2194.14 1400.77 L2199.07 1400.77 L2199.07 1404.66 L2194.14 1404.66 L2194.14 1412.81 L2189.49 1412.81 L2189.49 1404.66 L2173.89 1404.66 L2173.89 1400.15 L2188.26 1378.25 Z" fill="#000000" fill-rule="evenodd" fill-opacity="1" /><path clip-path="url(#clip560)" d="M 0 0 M2214.14 1381.33 Q2210.53 1381.33 2208.7 1384.9 Q2206.9 1388.44 2206.9 1395.57 Q2206.9 1402.67 2208.7 1406.24 Q2210.53 1409.78 2214.14 1409.78 Q2217.78 1409.78 2219.58 1406.24 Q2221.41 1402.67 2221.41 1395.57 Q2221.41 1388.44 2219.58 1384.9 Q2217.78 1381.33 2214.14 1381.33 M2214.14 1377.63 Q2219.95 1377.63 2223.01 1382.23 Q2226.09 1386.82 2226.09 1395.57 Q2226.09 1404.29 2223.01 1408.9 Q2219.95 1413.48 2214.14 1413.48 Q2208.33 1413.48 2205.25 1408.9 Q2202.2 1404.29 2202.2 1395.57 Q2202.2 1386.82 2205.25 1382.23 Q2208.33 1377.63 2214.14 1377.63 Z" fill="#000000" fill-rule="evenodd" fill-opacity="1" /><path clip-path="url(#clip560)" d="M 0 0 M215.936 1308.47 Q212.325 1308.47 210.496 1312.03 Q208.69 1315.58 208.69 1322.71 Q208.69 1329.81 210.496 1333.38 Q212.325 1336.92 215.936 1336.92 Q219.57 1336.92 221.375 1333.38 Q223.204 1329.81 223.204 1322.71 Q223.204 1315.58 221.375 1312.03 Q219.57 1308.47 215.936 1308.47 M215.936 1304.77 Q221.746 1304.77 224.801 1309.37 Q227.88 1313.96 227.88 1322.71 Q227.88 1331.43 224.801 1336.04 Q221.746 1340.62 215.936 1340.62 Q210.125 1340.62 207.047 1336.04 Q203.991 1331.43 203.991 1322.71 Q203.991 1313.96 207.047 1309.37 Q210.125 1304.77 215.936 1304.77 Z" fill="#000000" fill-rule="evenodd" fill-opacity="1" /><path clip-path="url(#clip560)" d="M 0 0 M158.529 1023.32 L174.848 1023.32 L174.848 1027.25 L152.904 1027.25 L152.904 1023.32 Q155.566 1020.56 160.149 1015.94 Q164.755 1011.28 165.936 1009.94 Q168.181 1007.42 169.061 1005.68 Q169.964 1003.92 169.964 1002.23 Q169.964 999.477 168.019 997.741 Q166.098 996.005 162.996 996.005 Q160.797 996.005 158.343 996.769 Q155.913 997.533 153.135 999.084 L153.135 994.361 Q155.959 993.227 158.413 992.648 Q160.866 992.07 162.903 992.07 Q168.274 992.07 171.468 994.755 Q174.663 997.44 174.663 1001.93 Q174.663 1004.06 173.852 1005.98 Q173.065 1007.88 170.959 1010.47 Q170.38 1011.14 167.278 1014.36 Q164.177 1017.56 158.529 1023.32 Z" fill="#000000" fill-rule="evenodd" fill-opacity="1" /><path clip-path="url(#clip560)" d="M 0 0 M179.964 992.695 L198.32 992.695 L198.32 996.63 L184.246 996.63 L184.246 1005.1 Q185.264 1004.75 186.283 1004.59 Q187.301 1004.41 188.32 1004.41 Q194.107 1004.41 197.487 1007.58 Q200.866 1010.75 200.866 1016.17 Q200.866 1021.75 197.394 1024.85 Q193.922 1027.93 187.602 1027.93 Q185.427 1027.93 183.158 1027.56 Q180.913 1027.19 178.505 1026.44 L178.505 1021.75 Q180.589 1022.88 182.811 1023.44 Q185.033 1023.99 187.51 1023.99 Q191.514 1023.99 193.852 1021.88 Q196.19 1019.78 196.19 1016.17 Q196.19 1012.56 193.852 1010.45 Q191.514 1008.34 187.51 1008.34 Q185.635 1008.34 183.76 1008.76 Q181.908 1009.18 179.964 1010.06 L179.964 992.695 Z" fill="#000000" fill-rule="evenodd" fill-opacity="1" /><path clip-path="url(#clip560)" d="M 0 0 M215.936 995.773 Q212.325 995.773 210.496 999.338 Q208.69 1002.88 208.69 1010.01 Q208.69 1017.12 210.496 1020.68 Q212.325 1024.22 215.936 1024.22 Q219.57 1024.22 221.375 1020.68 Q223.204 1017.12 223.204 1010.01 Q223.204 1002.88 221.375 999.338 Q219.57 995.773 215.936 995.773 M215.936 992.07 Q221.746 992.07 224.801 996.676 Q227.88 1001.26 227.88 1010.01 Q227.88 1018.74 224.801 1023.34 Q221.746 1027.93 215.936 1027.93 Q210.125 1027.93 207.047 1023.34 Q203.991 1018.74 203.991 1010.01 Q203.991 1001.26 207.047 996.676 Q210.125 992.07 215.936 992.07 Z" fill="#000000" fill-rule="evenodd" fill-opacity="1" /><path clip-path="url(#clip560)" d="M 0 0 M152.95 679.998 L171.306 679.998 L171.306 683.933 L157.232 683.933 L157.232 692.405 Q158.251 692.058 159.269 691.896 Q160.288 691.711 161.306 691.711 Q167.093 691.711 170.473 694.882 Q173.852 698.053 173.852 703.47 Q173.852 709.049 170.38 712.151 Q166.908 715.229 160.589 715.229 Q158.413 715.229 156.144 714.859 Q153.899 714.489 151.492 713.748 L151.492 709.049 Q153.575 710.183 155.797 710.739 Q158.019 711.294 160.496 711.294 Q164.501 711.294 166.839 709.188 Q169.177 707.081 169.177 703.47 Q169.177 699.859 166.839 697.753 Q164.501 695.646 160.496 695.646 Q158.621 695.646 156.746 696.063 Q154.894 696.479 152.95 697.359 L152.95 679.998 Z" fill="#000000" fill-rule="evenodd" fill-opacity="1" /><path clip-path="url(#clip560)" d="M 0 0 M188.922 683.077 Q185.311 683.077 183.482 686.642 Q181.677 690.183 181.677 697.313 Q181.677 704.419 183.482 707.984 Q185.311 711.526 188.922 711.526 Q192.556 711.526 194.362 707.984 Q196.19 704.419 196.19 697.313 Q196.19 690.183 194.362 686.642 Q192.556 683.077 188.922 683.077 M188.922 679.373 Q194.732 679.373 197.788 683.979 Q200.866 688.563 200.866 697.313 Q200.866 706.04 197.788 710.646 Q194.732 715.229 188.922 715.229 Q183.112 715.229 180.033 710.646 Q176.977 706.04 176.977 697.313 Q176.977 688.563 180.033 683.979 Q183.112 679.373 188.922 679.373 Z" fill="#000000" fill-rule="evenodd" fill-opacity="1" /><path clip-path="url(#clip560)" d="M 0 0 M215.936 683.077 Q212.325 683.077 210.496 686.642 Q208.69 690.183 208.69 697.313 Q208.69 704.419 210.496 707.984 Q212.325 711.526 215.936 711.526 Q219.57 711.526 221.375 707.984 Q223.204 704.419 223.204 697.313 Q223.204 690.183 221.375 686.642 Q219.57 683.077 215.936 683.077 M215.936 679.373 Q221.746 679.373 224.801 683.979 Q227.88 688.563 227.88 697.313 Q227.88 706.04 224.801 710.646 Q221.746 715.229 215.936 715.229 Q210.125 715.229 207.047 710.646 Q203.991 706.04 203.991 697.313 Q203.991 688.563 207.047 683.979 Q210.125 679.373 215.936 679.373 Z" fill="#000000" fill-rule="evenodd" fill-opacity="1" /><path clip-path="url(#clip560)" d="M 0 0 M152.626 367.301 L174.848 367.301 L174.848 369.292 L162.302 401.861 L157.417 401.861 L169.223 371.236 L152.626 371.236 L152.626 367.301 Z" fill="#000000" fill-rule="evenodd" fill-opacity="1" /><path clip-path="url(#clip560)" d="M 0 0 M179.964 367.301 L198.32 367.301 L198.32 371.236 L184.246 371.236 L184.246 379.709 Q185.264 379.361 186.283 379.199 Q187.301 379.014 188.32 379.014 Q194.107 379.014 197.487 382.185 Q200.866 385.357 200.866 390.773 Q200.866 396.352 197.394 399.454 Q193.922 402.533 187.602 402.533 Q185.427 402.533 183.158 402.162 Q180.913 401.792 178.505 401.051 L178.505 396.352 Q180.589 397.486 182.811 398.042 Q185.033 398.597 187.51 398.597 Q191.514 398.597 193.852 396.491 Q196.19 394.385 196.19 390.773 Q196.19 387.162 193.852 385.056 Q191.514 382.949 187.51 382.949 Q185.635 382.949 183.76 383.366 Q181.908 383.783 179.964 384.662 L179.964 367.301 Z" fill="#000000" fill-rule="evenodd" fill-opacity="1" /><path clip-path="url(#clip560)" d="M 0 0 M215.936 370.38 Q212.325 370.38 210.496 373.945 Q208.69 377.486 208.69 384.616 Q208.69 391.722 210.496 395.287 Q212.325 398.829 215.936 398.829 Q219.57 398.829 221.375 395.287 Q223.204 391.722 223.204 384.616 Q223.204 377.486 221.375 373.945 Q219.57 370.38 215.936 370.38 M215.936 366.676 Q221.746 366.676 224.801 371.283 Q227.88 375.866 227.88 384.616 Q227.88 393.343 224.801 397.949 Q221.746 402.533 215.936 402.533 Q210.125 402.533 207.047 397.949 Q203.991 393.343 203.991 384.616 Q203.991 375.866 207.047 371.283 Q210.125 366.676 215.936 366.676 Z" fill="#000000" fill-rule="evenodd" fill-opacity="1" /><path clip-path="url(#clip560)" d="M 0 0 M126.931 85.2294 L134.57 85.2294 L134.57 58.8638 L126.26 60.5305 L126.26 56.2713 L134.524 54.6046 L139.2 54.6046 L139.2 85.2294 L146.839 85.2294 L146.839 89.1646 L126.931 89.1646 L126.931 85.2294 Z" fill="#000000" fill-rule="evenodd" fill-opacity="1" /><path clip-path="url(#clip560)" d="M 0 0 M161.908 57.6833 Q158.297 57.6833 156.468 61.2481 Q154.663 64.7897 154.663 71.9193 Q154.663 79.0258 156.468 82.5906 Q158.297 86.1322 161.908 86.1322 Q165.542 86.1322 167.348 82.5906 Q169.177 79.0258 169.177 71.9193 Q169.177 64.7897 167.348 61.2481 Q165.542 57.6833 161.908 57.6833 M161.908 53.9796 Q167.718 53.9796 170.774 58.5861 Q173.852 63.1694 173.852 71.9193 Q173.852 80.6461 170.774 85.2526 Q167.718 89.8359 161.908 89.8359 Q156.098 89.8359 153.019 85.2526 Q149.964 80.6461 149.964 71.9193 Q149.964 63.1694 153.019 58.5861 Q156.098 53.9796 161.908 53.9796 Z" fill="#000000" fill-rule="evenodd" fill-opacity="1" /><path clip-path="url(#clip560)" d="M 0 0 M188.922 57.6833 Q185.311 57.6833 183.482 61.2481 Q181.677 64.7897 181.677 71.9193 Q181.677 79.0258 183.482 82.5906 Q185.311 86.1322 188.922 86.1322 Q192.556 86.1322 194.362 82.5906 Q196.19 79.0258 196.19 71.9193 Q196.19 64.7897 194.362 61.2481 Q192.556 57.6833 188.922 57.6833 M188.922 53.9796 Q194.732 53.9796 197.788 58.5861 Q200.866 63.1694 200.866 71.9193 Q200.866 80.6461 197.788 85.2526 Q194.732 89.8359 188.922 89.8359 Q183.112 89.8359 180.033 85.2526 Q176.977 80.6461 176.977 71.9193 Q176.977 63.1694 180.033 58.5861 Q183.112 53.9796 188.922 53.9796 Z" fill="#000000" fill-rule="evenodd" fill-opacity="1" /><path clip-path="url(#clip560)" d="M 0 0 M215.936 57.6833 Q212.325 57.6833 210.496 61.2481 Q208.69 64.7897 208.69 71.9193 Q208.69 79.0258 210.496 82.5906 Q212.325 86.1322 215.936 86.1322 Q219.57 86.1322 221.375 82.5906 Q223.204 79.0258 223.204 71.9193 Q223.204 64.7897 221.375 61.2481 Q219.57 57.6833 215.936 57.6833 M215.936 53.9796 Q221.746 53.9796 224.801 58.5861 Q227.88 63.1694 227.88 71.9193 Q227.88 80.6461 224.801 85.2526 Q221.746 89.8359 215.936 89.8359 Q210.125 89.8359 207.047 85.2526 Q203.991 80.6461 203.991 71.9193 Q203.991 63.1694 207.047 58.5861 Q210.125 53.9796 215.936 53.9796 Z" fill="#000000" fill-rule="evenodd" fill-opacity="1" /><path clip-path="url(#clip560)" d="M 0 0 M1181.44 1444.2 L1221.64 1444.2 L1221.64 1449.61 L1204.77 1449.61 L1204.77 1491.72 L1198.31 1491.72 L1198.31 1449.61 L1181.44 1449.61 L1181.44 1444.2 Z" fill="#000000" fill-rule="evenodd" fill-opacity="1" /><path clip-path="url(#clip560)" d="M 0 0 M1225.78 1456.08 L1231.64 1456.08 L1231.64 1491.72 L1225.78 1491.72 L1225.78 1456.08 M1225.78 1442.2 L1231.64 1442.2 L1231.64 1449.61 L1225.78 1449.61 L1225.78 1442.2 Z" fill="#000000" fill-rule="evenodd" fill-opacity="1" /><path clip-path="url(#clip560)" d="M 0 0 M1265.53 1462.92 Q1267.73 1458.97 1270.79 1457.09 Q1273.84 1455.22 1277.98 1455.22 Q1283.55 1455.22 1286.57 1459.13 Q1289.6 1463.01 1289.6 1470.21 L1289.6 1491.72 L1283.71 1491.72 L1283.71 1470.4 Q1283.71 1465.27 1281.89 1462.79 Q1280.08 1460.31 1276.36 1460.31 Q1271.81 1460.31 1269.16 1463.33 Q1266.52 1466.36 1266.52 1471.58 L1266.52 1491.72 L1260.63 1491.72 L1260.63 1470.4 Q1260.63 1465.24 1258.82 1462.79 Q1257 1460.31 1253.22 1460.31 Q1248.73 1460.31 1246.09 1463.36 Q1243.45 1466.39 1243.45 1471.58 L1243.45 1491.72 L1237.56 1491.72 L1237.56 1456.08 L1243.45 1456.08 L1243.45 1461.61 Q1245.45 1458.34 1248.25 1456.78 Q1251.05 1455.22 1254.9 1455.22 Q1258.79 1455.22 1261.49 1457.19 Q1264.23 1459.16 1265.53 1462.92 Z" fill="#000000" fill-rule="evenodd" fill-opacity="1" /><path clip-path="url(#clip560)" d="M 0 0 M1326.23 1472.44 L1326.23 1475.3 L1299.31 1475.3 Q1299.69 1481.35 1302.93 1484.53 Q1306.21 1487.68 1312.04 1487.68 Q1315.41 1487.68 1318.56 1486.85 Q1321.74 1486.03 1324.86 1484.37 L1324.86 1489.91 Q1321.71 1491.25 1318.4 1491.95 Q1315.09 1492.65 1311.69 1492.65 Q1303.16 1492.65 1298.16 1487.68 Q1293.19 1482.72 1293.19 1474.25 Q1293.19 1465.5 1297.9 1460.37 Q1302.65 1455.22 1310.67 1455.22 Q1317.86 1455.22 1322.03 1459.86 Q1326.23 1464.48 1326.23 1472.44 M1320.38 1470.72 Q1320.31 1465.91 1317.67 1463.05 Q1315.06 1460.18 1310.73 1460.18 Q1305.83 1460.18 1302.87 1462.95 Q1299.94 1465.72 1299.5 1470.75 L1320.38 1470.72 Z" fill="#000000" fill-rule="evenodd" fill-opacity="1" /><path clip-path="url(#clip560)" d="M 0 0 M41.4442 818.815 L41.4442 810.158 L81.198 789.087 L41.4442 789.087 L41.4442 782.849 L88.9642 782.849 L88.9642 791.506 L49.2103 812.577 L88.9642 812.577 L88.9642 818.815 L41.4442 818.815 Z" fill="#000000" fill-rule="evenodd" fill-opacity="1" /><path clip-path="url(#clip560)" d="M 0 0 M74.8959 777.311 L53.3162 777.311 L53.3162 771.454 L74.6731 771.454 Q79.7339 771.454 82.2802 769.481 Q84.7946 767.507 84.7946 763.561 Q84.7946 758.818 81.7709 756.081 Q78.7472 753.312 73.5273 753.312 L53.3162 753.312 L53.3162 747.455 L88.9642 747.455 L88.9642 753.312 L83.4896 753.312 Q86.7362 755.444 88.3276 758.277 Q89.8872 761.078 89.8872 764.802 Q89.8872 770.945 86.0678 774.128 Q82.2483 777.311 74.8959 777.311 M52.4568 762.574 L52.4568 762.574 Z" fill="#000000" fill-rule="evenodd" fill-opacity="1" /><path clip-path="url(#clip560)" d="M 0 0 M60.1593 713.558 Q56.2126 711.362 54.3347 708.306 Q52.4568 705.251 52.4568 701.113 Q52.4568 695.543 56.3717 692.519 Q60.2548 689.496 67.4481 689.496 L88.9642 689.496 L88.9642 695.384 L67.639 695.384 Q62.5146 695.384 60.032 697.198 Q57.5494 699.012 57.5494 702.736 Q57.5494 707.288 60.5731 709.93 Q63.5968 712.571 68.8167 712.571 L88.9642 712.571 L88.9642 718.46 L67.639 718.46 Q62.4828 718.46 60.032 720.274 Q57.5494 722.088 57.5494 725.876 Q57.5494 730.363 60.6049 733.005 Q63.6286 735.647 68.8167 735.647 L88.9642 735.647 L88.9642 741.535 L53.3162 741.535 L53.3162 735.647 L58.8544 735.647 Q55.576 733.642 54.0164 730.841 Q52.4568 728.04 52.4568 724.189 Q52.4568 720.306 54.4302 717.6 Q56.4036 714.863 60.1593 713.558 Z" fill="#000000" fill-rule="evenodd" fill-opacity="1" /><path clip-path="url(#clip560)" d="M 0 0 M71.172 657.763 Q64.7108 657.763 61.0505 660.436 Q57.3584 663.078 57.3584 667.725 Q57.3584 672.372 61.0505 675.045 Q64.7108 677.687 71.172 677.687 Q77.6332 677.687 81.3253 675.045 Q84.9856 672.372 84.9856 667.725 Q84.9856 663.078 81.3253 660.436 Q77.6332 657.763 71.172 657.763 M58.7271 677.687 Q55.5442 675.841 54.0164 673.04 Q52.4568 670.207 52.4568 666.293 Q52.4568 659.8 57.6131 655.757 Q62.7693 651.683 71.172 651.683 Q79.5747 651.683 84.731 655.757 Q89.8872 659.8 89.8872 666.293 Q89.8872 670.207 88.3594 673.04 Q86.7998 675.841 83.617 677.687 L88.9642 677.687 L88.9642 683.575 L39.439 683.575 L39.439 677.687 L58.7271 677.687 Z" fill="#000000" fill-rule="evenodd" fill-opacity="1" /><path clip-path="url(#clip560)" d="M 0 0 M69.6761 615.049 L72.5406 615.049 L72.5406 641.976 Q78.5881 641.594 81.7709 638.347 Q84.9219 635.069 84.9219 629.244 Q84.9219 625.87 84.0944 622.719 Q83.2669 619.536 81.6118 616.417 L87.1499 616.417 Q88.4867 619.568 89.187 622.878 Q89.8872 626.189 89.8872 629.594 Q89.8872 638.124 84.9219 643.121 Q79.9567 648.087 71.4903 648.087 Q62.7374 648.087 57.6131 643.376 Q52.4568 638.634 52.4568 630.613 Q52.4568 623.42 57.1038 619.25 Q61.7189 615.049 69.6761 615.049 M67.9573 620.905 Q63.1512 620.969 60.2866 623.611 Q57.4221 626.22 57.4221 630.549 Q57.4221 635.451 60.1912 638.411 Q62.9602 641.339 67.9892 641.785 L67.9573 620.905 Z" fill="#000000" fill-rule="evenodd" fill-opacity="1" /><path clip-path="url(#clip560)" d="M 0 0 M58.7907 588.249 Q58.2178 589.236 57.9632 590.413 Q57.6767 591.559 57.6767 592.96 Q57.6767 597.925 60.9232 600.598 Q64.1379 603.24 70.1853 603.24 L88.9642 603.24 L88.9642 609.129 L53.3162 609.129 L53.3162 603.24 L58.8544 603.24 Q55.6079 601.394 54.0483 598.434 Q52.4568 595.474 52.4568 591.241 Q52.4568 590.636 52.5523 589.904 Q52.616 589.172 52.7751 588.281 L58.7907 588.249 Z" fill="#000000" fill-rule="evenodd" fill-opacity="1" /><polyline clip-path="url(#clip562)" style="stroke:#009af9; stroke-width:4; stroke-opacity:1; fill:none" points="
  307.689,84.3925 312.42,84.3925 317.15,84.3925 321.881,84.3925 326.612,84.3925 331.343,84.3925 336.073,84.3925 340.804,85.6433 345.535,85.6433 350.266,85.6433 
  354.996,86.894 359.727,88.1448 364.458,88.1448 369.189,89.3956 373.919,89.3956 378.65,90.6464 383.381,90.6464 388.112,90.6464 392.842,90.6464 397.573,90.6464 
  402.304,90.6464 407.035,93.148 411.765,94.3988 416.496,95.6495 421.227,95.6495 425.958,96.9003 430.688,96.9003 435.419,98.1511 440.15,99.4019 444.881,99.4019 
  449.611,103.154 454.342,104.405 459.073,108.157 463.804,109.408 468.534,109.408 473.265,110.659 477.996,116.913 482.726,118.164 487.457,119.414 492.188,120.665 
  496.919,123.167 501.649,129.421 506.38,131.922 511.111,133.173 515.842,133.173 520.572,133.173 525.303,135.675 530.034,138.176 534.765,139.427 539.495,140.678 
  544.226,143.179 548.957,143.179 553.688,145.681 558.418,146.932 563.149,148.183 567.88,149.433 572.611,149.433 577.341,151.935 582.072,156.938 586.803,160.69 
  591.534,165.694 596.264,168.195 600.995,169.446 605.726,170.697 610.457,173.198 615.187,176.951 619.918,178.201 624.649,184.455 629.38,185.706 634.11,189.459 
  638.841,190.709 643.572,193.211 648.303,194.462 653.033,198.214 657.764,200.716 662.495,200.716 667.226,206.97 671.956,213.224 676.687,214.474 681.418,218.227 
  686.149,221.979 690.879,225.731 695.61,226.982 700.341,230.735 705.072,231.985 709.802,236.988 714.533,240.741 719.264,243.242 723.994,246.995 728.725,249.496 
  733.456,253.249 738.187,257.001 742.917,260.753 747.648,265.757 752.379,268.258 757.11,275.763 761.84,279.515 766.571,283.268 771.302,289.522 776.033,293.274 
  780.763,294.525 785.494,298.277 790.225,304.531 794.956,310.785 799.686,312.036 804.417,314.537 809.148,319.54 813.879,327.045 818.609,333.299 823.34,334.55 
  828.071,339.553 832.802,345.807 837.532,347.058 842.263,349.559 846.994,352.061 851.725,355.813 856.455,355.813 861.186,359.566 865.917,360.816 870.648,362.067 
  875.378,364.569 880.109,368.321 884.84,374.575 889.571,380.829 894.301,382.08 899.032,389.584 903.763,393.337 908.494,394.588 913.224,400.842 917.955,407.095 
  922.686,409.597 927.417,422.105 932.147,425.857 936.878,433.362 941.609,438.365 946.34,445.87 951.07,449.622 955.801,452.124 960.532,458.378 965.262,458.378 
  969.993,467.133 974.724,470.886 979.455,479.641 984.185,479.641 988.916,484.644 993.647,489.647 998.378,492.149 1003.11,498.403 1007.84,502.155 1012.57,509.66 
  1017.3,515.914 1022.03,525.92 1026.76,532.174 1031.49,535.927 1036.22,540.93 1040.95,548.434 1045.69,555.939 1050.42,562.193 1055.15,569.698 1059.88,579.704 
  1064.61,588.46 1069.34,597.215 1074.07,608.472 1078.8,612.225 1083.53,615.977 1088.26,618.478 1092.99,624.732 1097.72,628.485 1102.45,630.986 1107.18,635.989 
  1111.92,639.742 1116.65,647.247 1121.38,649.748 1126.11,652.25 1130.84,654.751 1135.57,664.758 1140.3,669.761 1145.03,671.012 1149.76,674.764 1154.49,676.015 
  1159.22,683.519 1163.95,687.272 1168.68,691.024 1173.42,694.776 1178.15,698.529 1182.88,703.532 1187.61,706.034 1192.34,712.287 1197.07,714.789 1201.8,721.043 
  1206.53,726.046 1211.26,727.297 1215.99,729.798 1220.72,732.3 1225.45,737.303 1230.18,738.554 1234.91,742.306 1239.65,744.808 1244.38,749.811 1249.11,753.563 
  1253.84,754.814 1258.57,762.319 1263.3,763.57 1268.03,766.071 1272.76,771.074 1277.49,773.576 1282.22,774.827 1286.95,778.579 1291.68,783.582 1296.41,791.087 
  1301.15,794.839 1305.88,797.341 1310.61,799.843 1315.34,807.347 1320.07,809.849 1324.8,814.852 1329.53,819.855 1334.26,822.357 1338.99,827.36 1343.72,831.112 
  1348.45,834.865 1353.18,834.865 1357.91,836.115 1362.65,839.868 1367.38,842.369 1372.11,843.62 1376.84,844.871 1381.57,847.372 1386.3,848.623 1391.03,851.125 
  1395.76,854.877 1400.49,861.131 1405.22,866.134 1409.95,868.636 1414.68,872.388 1419.41,873.639 1424.14,874.89 1428.88,877.391 1433.61,878.642 1438.34,881.144 
  1443.07,881.144 1447.8,882.394 1452.53,882.394 1457.26,887.398 1461.99,891.15 1466.72,892.401 1471.45,894.902 1476.18,897.404 1480.91,898.655 1485.64,899.906 
  1490.38,903.658 1495.11,904.909 1499.84,907.41 1504.57,909.912 1509.3,912.413 1514.03,914.915 1518.76,916.166 1523.49,916.166 1528.22,919.918 1532.95,921.169 
  1537.68,922.42 1542.41,923.67 1547.14,924.921 1551.87,928.674 1556.61,928.674 1561.34,934.928 1566.07,937.429 1570.8,938.68 1575.53,938.68 1580.26,941.181 
  1584.99,942.432 1589.72,942.432 1594.45,943.683 1599.18,944.934 1603.91,946.185 1608.64,948.686 1613.37,948.686 1618.11,949.937 1622.84,952.439 1627.57,954.94 
  1632.3,956.191 1637.03,958.692 1641.76,958.692 1646.49,959.943 1651.22,961.194 1655.95,962.445 1660.68,962.445 1665.41,963.696 1670.14,964.946 1674.87,967.448 
  1679.61,967.448 1684.34,967.448 1689.07,967.448 1693.8,968.699 1698.53,971.2 1703.26,972.451 1707.99,976.204 1712.72,976.204 1717.45,977.454 1722.18,978.705 
  1726.91,978.705 1731.64,978.705 1736.37,978.705 1741.1,978.705 1745.84,979.956 1750.57,981.207 1755.3,981.207 1760.03,981.207 1764.76,981.207 1769.49,984.959 
  1774.22,986.21 1778.95,986.21 1783.68,987.461 1788.41,991.213 1793.14,991.213 1797.87,991.213 1802.6,991.213 1807.34,991.213 1812.07,992.464 1816.8,994.965 
  1821.53,994.965 1826.26,998.718 1830.99,998.718 1835.72,999.968 1840.45,999.968 1845.18,999.968 1849.91,999.968 1854.64,999.968 1859.37,999.968 1864.1,1001.22 
  1868.83,1001.22 1873.57,1001.22 1878.3,1001.22 1883.03,1001.22 1887.76,1002.47 1892.49,1004.97 1897.22,1007.47 1901.95,1008.72 1906.68,1008.72 1911.41,1008.72 
  1916.14,1008.72 1920.87,1008.72 1925.6,1011.23 1930.33,1011.23 1935.07,1011.23 1939.8,1011.23 1944.53,1011.23 1949.26,1012.48 1953.99,1012.48 1958.72,1013.73 
  1963.45,1014.98 1968.18,1014.98 1972.91,1016.23 1977.64,1016.23 1982.37,1016.23 1987.1,1017.48 1991.83,1017.48 1996.56,1017.48 2001.3,1017.48 2006.03,1018.73 
  2010.76,1018.73 2015.49,1019.98 2020.22,1021.23 2024.95,1021.23 2029.68,1021.23 2034.41,1021.23 2039.14,1021.23 2043.87,1022.48 2048.6,1022.48 2053.33,1022.48 
  2058.06,1022.48 2062.8,1022.48 2067.53,1022.48 2072.26,1022.48 2076.99,1022.48 2081.72,1022.48 2086.45,1022.48 2091.18,1022.48 2095.91,1023.73 2100.64,1023.73 
  2105.37,1023.73 2110.1,1023.73 2114.83,1023.73 2119.56,1023.73 2124.3,1024.98 2129.03,1027.49 2133.76,1028.74 2138.49,1028.74 2143.22,1028.74 2147.95,1028.74 
  2152.68,1028.74 2157.41,1029.99 2162.14,1029.99 2166.87,1029.99 2171.6,1029.99 2176.33,1031.24 2181.06,1031.24 2185.79,1031.24 2190.53,1031.24 2195.26,1031.24 
  2199.99,1031.24 
  "/>
<polyline clip-path="url(#clip562)" style="stroke:#e26f46; stroke-width:4; stroke-opacity:1; fill:none" points="
  307.689,1310.16 312.42,1310.16 317.15,1311.41 321.881,1311.41 326.612,1311.41 331.343,1311.41 336.073,1311.41 340.804,1310.16 345.535,1310.16 350.266,1310.16 
  354.996,1308.91 359.727,1307.66 364.458,1307.66 369.189,1306.41 373.919,1308.91 378.65,1308.91 383.381,1310.16 388.112,1310.16 392.842,1310.16 397.573,1311.41 
  402.304,1311.41 407.035,1308.91 411.765,1307.66 416.496,1306.41 421.227,1307.66 425.958,1307.66 430.688,1307.66 435.419,1306.41 440.15,1305.16 444.881,1305.16 
  449.611,1302.66 454.342,1301.41 459.073,1297.66 463.804,1296.4 468.534,1296.4 473.265,1295.15 477.996,1290.15 482.726,1288.9 487.457,1288.9 492.188,1287.65 
  496.919,1285.15 501.649,1278.89 506.38,1277.64 511.111,1277.64 515.842,1280.14 520.572,1281.4 525.303,1280.14 530.034,1280.14 534.765,1278.89 539.495,1280.14 
  544.226,1278.89 548.957,1280.14 553.688,1278.89 558.418,1277.64 563.149,1276.39 567.88,1277.64 572.611,1277.64 577.341,1275.14 582.072,1275.14 586.803,1272.64 
  591.534,1268.89 596.264,1266.39 600.995,1266.39 605.726,1265.14 610.457,1265.14 615.187,1266.39 619.918,1266.39 624.649,1262.63 629.38,1262.63 634.11,1258.88 
  638.841,1257.63 643.572,1257.63 648.303,1258.88 653.033,1258.88 657.764,1256.38 662.495,1260.13 667.226,1253.88 671.956,1250.13 676.687,1248.88 681.418,1246.37 
  686.149,1243.87 690.879,1246.37 695.61,1246.37 700.341,1242.62 705.072,1243.87 709.802,1242.62 714.533,1240.12 719.264,1237.62 723.994,1235.12 728.725,1236.37 
  733.456,1235.12 738.187,1236.37 742.917,1233.87 747.648,1231.36 752.379,1231.36 757.11,1226.36 761.84,1226.36 766.571,1227.61 771.302,1227.61 776.033,1225.11 
  780.763,1228.86 785.494,1231.36 790.225,1227.61 794.956,1222.61 799.686,1226.36 804.417,1228.86 809.148,1225.11 813.879,1220.11 818.609,1216.35 823.34,1218.86 
  828.071,1218.86 832.802,1218.86 837.532,1220.11 842.263,1218.86 846.994,1221.36 851.725,1218.86 856.455,1220.11 861.186,1218.86 865.917,1220.11 870.648,1220.11 
  875.378,1223.86 880.109,1225.11 884.84,1221.36 889.571,1217.61 894.301,1218.86 899.032,1212.6 903.763,1210.1 908.494,1211.35 913.224,1206.35 917.955,1202.6 
  922.686,1200.09 927.417,1188.84 932.147,1187.59 936.878,1187.59 941.609,1183.83 946.34,1180.08 951.07,1178.83 955.801,1182.58 960.532,1178.83 965.262,1185.08 
  969.993,1177.58 974.724,1178.83 979.455,1172.58 984.185,1178.83 988.916,1175.08 993.647,1175.08 998.378,1172.58 1003.11,1168.82 1007.84,1166.32 1012.57,1163.82 
  1017.3,1162.57 1022.03,1158.82 1026.76,1152.56 1031.49,1155.07 1036.22,1152.56 1040.95,1146.31 1045.69,1143.81 1050.42,1138.81 1055.15,1136.3 1059.88,1127.55 
  1064.61,1125.05 1069.34,1117.54 1074.07,1115.04 1078.8,1116.29 1083.53,1113.79 1088.26,1116.29 1092.99,1116.29 1097.72,1115.04 1102.45,1120.04 1107.18,1120.04 
  1111.92,1122.55 1116.65,1122.55 1121.38,1126.3 1126.11,1123.8 1130.84,1127.55 1135.57,1126.3 1140.3,1126.3 1145.03,1131.3 1149.76,1133.8 1154.49,1137.56 
  1159.22,1133.8 1163.95,1135.05 1168.68,1135.05 1173.42,1135.05 1178.15,1135.05 1182.88,1135.05 1187.61,1140.06 1192.34,1137.56 1197.07,1140.06 1201.8,1140.06 
  1206.53,1142.56 1211.26,1146.31 1215.99,1146.31 1220.72,1146.31 1225.45,1147.56 1230.18,1151.31 1234.91,1155.07 1239.65,1153.82 1244.38,1152.56 1249.11,1150.06 
  1253.84,1153.82 1258.57,1151.31 1263.3,1156.32 1268.03,1158.82 1272.76,1156.32 1277.49,1156.32 1282.22,1157.57 1286.95,1155.07 1291.68,1152.56 1296.41,1147.56 
  1301.15,1145.06 1305.88,1142.56 1310.61,1146.31 1315.34,1141.31 1320.07,1142.56 1324.8,1142.56 1329.53,1140.06 1334.26,1140.06 1338.99,1142.56 1343.72,1142.56 
  1348.45,1146.31 1353.18,1152.56 1357.91,1155.07 1362.65,1155.07 1367.38,1157.57 1372.11,1160.07 1376.84,1160.07 1381.57,1161.32 1386.3,1166.32 1391.03,1165.07 
  1395.76,1166.32 1400.49,1163.82 1405.22,1162.57 1409.95,1163.82 1414.68,1162.57 1419.41,1163.82 1424.14,1168.82 1428.88,1168.82 1433.61,1172.58 1438.34,1172.58 
  1443.07,1177.58 1447.8,1181.33 1452.53,1185.08 1457.26,1186.34 1461.99,1185.08 1466.72,1188.84 1471.45,1187.59 1476.18,1186.34 1480.91,1190.09 1485.64,1188.84 
  1490.38,1190.09 1495.11,1191.34 1499.84,1193.84 1504.57,1197.59 1509.3,1196.34 1514.03,1198.84 1518.76,1202.6 1523.49,1203.85 1528.22,1206.35 1532.95,1207.6 
  1537.68,1213.85 1542.41,1216.35 1547.14,1217.61 1551.87,1215.1 1556.61,1216.35 1561.34,1210.1 1566.07,1210.1 1570.8,1215.1 1575.53,1216.35 1580.26,1213.85 
  1584.99,1213.85 1589.72,1215.1 1594.45,1216.35 1599.18,1217.61 1603.91,1220.11 1608.64,1226.36 1613.37,1230.11 1618.11,1228.86 1622.84,1227.61 1627.57,1228.86 
  1632.3,1228.86 1637.03,1228.86 1641.76,1235.12 1646.49,1238.87 1651.22,1242.62 1655.95,1242.62 1660.68,1242.62 1665.41,1241.37 1670.14,1243.87 1674.87,1241.37 
  1679.61,1242.62 1684.34,1243.87 1689.07,1250.13 1693.8,1252.63 1698.53,1253.88 1703.26,1255.13 1707.99,1255.13 1712.72,1255.13 1717.45,1255.13 1722.18,1256.38 
  1726.91,1258.88 1731.64,1262.63 1736.37,1265.14 1741.1,1266.39 1745.84,1267.64 1750.57,1268.89 1755.3,1268.89 1760.03,1271.39 1764.76,1272.64 1769.49,1271.39 
  1774.22,1271.39 1778.95,1272.64 1783.68,1271.39 1788.41,1268.89 1793.14,1270.14 1797.87,1270.14 1802.6,1271.39 1807.34,1272.64 1812.07,1272.64 1816.8,1271.39 
  1821.53,1271.39 1826.26,1270.14 1830.99,1270.14 1835.72,1270.14 1840.45,1272.64 1845.18,1273.89 1849.91,1277.64 1854.64,1277.64 1859.37,1277.64 1864.1,1278.89 
  1868.83,1281.4 1873.57,1283.9 1878.3,1283.9 1883.03,1283.9 1887.76,1283.9 1892.49,1282.65 1897.22,1280.14 1901.95,1280.14 1906.68,1280.14 1911.41,1281.4 
  1916.14,1281.4 1920.87,1286.4 1925.6,1285.15 1930.33,1285.15 1935.07,1286.4 1939.8,1286.4 1944.53,1286.4 1949.26,1287.65 1953.99,1288.9 1958.72,1290.15 
  1963.45,1291.4 1968.18,1292.65 1972.91,1292.65 1977.64,1292.65 1982.37,1293.9 1987.1,1292.65 1991.83,1293.9 1996.56,1295.15 2001.3,1297.66 2006.03,1296.4 
  2010.76,1297.66 2015.49,1296.4 2020.22,1296.4 2024.95,1296.4 2029.68,1296.4 2034.41,1296.4 2039.14,1297.66 2043.87,1296.4 2048.6,1296.4 2053.33,1296.4 
  2058.06,1296.4 2062.8,1297.66 2067.53,1297.66 2072.26,1297.66 2076.99,1298.91 2081.72,1298.91 2086.45,1298.91 2091.18,1300.16 2095.91,1298.91 2100.64,1298.91 
  2105.37,1298.91 2110.1,1298.91 2114.83,1298.91 2119.56,1298.91 2124.3,1297.66 2129.03,1295.15 2133.76,1295.15 2138.49,1296.4 2143.22,1296.4 2147.95,1296.4 
  2152.68,1296.4 2157.41,1295.15 2162.14,1296.4 2166.87,1297.66 2171.6,1297.66 2176.33,1297.66 2181.06,1298.91 2185.79,1300.16 2190.53,1300.16 2195.26,1300.16 
  2199.99,1301.41 
  "/>
<polyline clip-path="url(#clip562)" style="stroke:#3da44d; stroke-width:4; stroke-opacity:1; fill:none" points="
  307.689,1322.67 312.42,1322.67 317.15,1321.42 321.881,1321.42 326.612,1321.42 331.343,1321.42 336.073,1321.42 340.804,1321.42 345.535,1321.42 350.266,1321.42 
  354.996,1321.42 359.727,1321.42 364.458,1321.42 369.189,1321.42 373.919,1318.92 378.65,1317.67 383.381,1316.42 388.112,1316.42 392.842,1316.42 397.573,1315.17 
  402.304,1315.17 407.035,1315.17 411.765,1315.17 416.496,1315.17 421.227,1313.92 425.958,1312.67 430.688,1312.67 435.419,1312.67 440.15,1312.67 444.881,1312.67 
  449.611,1311.41 454.342,1311.41 459.073,1311.41 463.804,1311.41 468.534,1311.41 473.265,1311.41 477.996,1310.16 482.726,1310.16 487.457,1308.91 492.188,1308.91 
  496.919,1308.91 501.649,1308.91 506.38,1307.66 511.111,1306.41 515.842,1303.91 520.572,1302.66 525.303,1301.41 530.034,1298.91 534.765,1298.91 539.495,1296.4 
  544.226,1295.15 548.957,1293.9 553.688,1292.65 558.418,1292.65 563.149,1292.65 567.88,1290.15 572.611,1290.15 577.341,1290.15 582.072,1285.15 586.803,1283.9 
  591.534,1282.65 596.264,1282.65 600.995,1281.4 605.726,1281.4 610.457,1278.89 615.187,1273.89 619.918,1272.64 624.649,1270.14 629.38,1268.89 634.11,1268.89 
  638.841,1268.89 643.572,1266.39 648.303,1263.88 653.033,1260.13 657.764,1260.13 662.495,1256.38 667.226,1256.38 671.956,1253.88 676.687,1253.88 681.418,1252.63 
  686.149,1251.38 690.879,1245.12 695.61,1243.87 700.341,1243.87 705.072,1241.37 709.802,1237.62 714.533,1236.37 719.264,1236.37 723.994,1235.12 728.725,1231.36 
  733.456,1228.86 738.187,1223.86 742.917,1222.61 747.648,1220.11 752.379,1217.61 757.11,1215.1 761.84,1211.35 766.571,1206.35 771.302,1200.09 776.033,1198.84 
  780.763,1193.84 785.494,1187.59 790.225,1185.08 794.956,1183.83 799.686,1178.83 804.417,1173.83 809.148,1172.58 813.879,1170.08 818.609,1167.57 823.34,1163.82 
  828.071,1158.82 832.802,1152.56 837.532,1150.06 842.263,1148.81 846.994,1143.81 851.725,1142.56 856.455,1141.31 861.186,1138.81 865.917,1136.3 870.648,1135.05 
  875.378,1128.8 880.109,1123.8 884.84,1121.29 889.571,1118.79 894.301,1116.29 899.032,1115.04 903.763,1113.79 908.494,1111.29 913.224,1110.04 917.955,1107.54 
  922.686,1107.54 927.417,1106.29 932.147,1103.78 936.878,1096.28 941.609,1095.03 946.34,1091.28 951.07,1088.77 955.801,1082.52 960.532,1080.02 965.262,1073.76 
  969.993,1072.51 974.724,1067.51 979.455,1065.01 984.185,1058.76 988.916,1057.5 993.647,1052.5 998.378,1052.5 1003.11,1050 1007.84,1048.75 1012.57,1043.75 
  1017.3,1038.74 1022.03,1032.49 1026.76,1032.49 1031.49,1026.23 1036.22,1023.73 1040.95,1022.48 1045.69,1017.48 1050.42,1016.23 1055.15,1011.23 1059.88,1009.97 
  1064.61,1003.72 1069.34,1002.47 1074.07,993.715 1078.8,988.711 1083.53,987.461 1088.26,982.457 1092.99,976.204 1097.72,973.702 1102.45,966.197 1107.18,961.194 
  1111.92,954.94 1116.65,947.435 1121.38,941.181 1126.11,941.181 1130.84,934.928 1135.57,926.172 1140.3,921.169 1145.03,914.915 1149.76,908.661 1154.49,903.658 
  1159.22,899.906 1163.95,894.902 1168.68,891.15 1173.42,887.398 1178.15,883.645 1182.88,878.642 1187.61,871.137 1192.34,867.385 1197.07,862.382 1201.8,856.128 
  1206.53,848.623 1211.26,843.62 1215.99,841.119 1220.72,838.617 1225.45,832.363 1230.18,827.36 1234.91,819.855 1239.65,818.604 1244.38,814.852 1249.11,813.601 
  1253.84,808.598 1258.57,803.595 1263.3,797.341 1268.03,792.338 1272.76,789.836 1277.49,787.335 1282.22,784.833 1286.95,783.582 1291.68,781.081 1296.41,778.579 
  1301.15,777.328 1305.88,777.328 1310.61,771.074 1315.34,768.573 1320.07,764.821 1324.8,759.817 1329.53,757.316 1334.26,754.814 1338.99,747.31 1343.72,743.557 
  1348.45,736.052 1353.18,729.798 1357.91,726.046 1362.65,722.294 1367.38,717.291 1372.11,713.538 1376.84,712.287 1381.57,708.535 1386.3,702.281 1391.03,701.03 
  1395.76,696.027 1400.49,692.275 1405.22,688.523 1409.95,684.77 1414.68,682.269 1419.41,679.767 1424.14,673.513 1428.88,671.012 1433.61,666.008 1438.34,663.507 
  1443.07,658.504 1447.8,653.5 1452.53,649.748 1457.26,643.494 1461.99,640.993 1466.72,635.989 1471.45,634.739 1476.18,633.488 1480.91,628.485 1485.64,628.485 
  1490.38,623.482 1495.11,620.98 1499.84,615.977 1504.57,609.723 1509.3,608.472 1514.03,603.469 1518.76,598.466 1523.49,597.215 1528.22,590.961 1532.95,588.46 
  1537.68,580.955 1542.41,577.202 1547.14,574.701 1551.87,573.45 1556.61,572.199 1561.34,572.199 1566.07,569.698 1570.8,563.444 1575.53,562.193 1580.26,562.193 
  1584.99,560.942 1589.72,559.691 1594.45,557.19 1599.18,554.688 1603.91,550.936 1608.64,542.18 1613.37,538.428 1618.11,538.428 1622.84,537.177 1627.57,533.425 
  1632.3,532.174 1637.03,529.673 1641.76,523.419 1646.49,518.416 1651.22,513.412 1655.95,512.162 1660.68,512.162 1665.41,512.162 1670.14,508.409 1674.87,508.409 
  1679.61,507.158 1684.34,505.908 1689.07,499.654 1693.8,495.901 1698.53,492.149 1703.26,489.647 1707.99,485.895 1712.72,485.895 1717.45,484.644 1722.18,482.143 
  1726.91,479.641 1731.64,475.889 1736.37,473.387 1741.1,472.136 1745.84,469.635 1750.57,467.133 1755.3,467.133 1760.03,464.632 1764.76,463.381 1769.49,460.879 
  1774.22,459.629 1778.95,458.378 1783.68,458.378 1788.41,457.127 1793.14,455.876 1797.87,455.876 1802.6,454.625 1807.34,453.375 1812.07,452.124 1816.8,450.873 
  1821.53,450.873 1826.26,448.371 1830.99,448.371 1835.72,447.121 1840.45,444.619 1845.18,443.368 1849.91,439.616 1854.64,439.616 1859.37,439.616 1864.1,437.114 
  1868.83,434.613 1873.57,432.111 1878.3,432.111 1883.03,432.111 1887.76,430.86 1892.49,429.61 1897.22,429.61 1901.95,428.359 1906.68,428.359 1911.41,427.108 
  1916.14,427.108 1920.87,422.105 1925.6,420.854 1930.33,420.854 1935.07,419.603 1939.8,419.603 1944.53,419.603 1949.26,417.102 1953.99,415.851 1958.72,413.349 
  1963.45,410.848 1968.18,409.597 1972.91,408.346 1977.64,408.346 1982.37,407.095 1987.1,407.095 1991.83,405.845 1996.56,404.594 2001.3,402.092 2006.03,402.092 
  2010.76,400.842 2015.49,400.842 2020.22,399.591 2024.95,399.591 2029.68,399.591 2034.41,399.591 2039.14,398.34 2043.87,398.34 2048.6,398.34 2053.33,398.34 
  2058.06,398.34 2062.8,397.089 2067.53,397.089 2072.26,397.089 2076.99,395.838 2081.72,395.838 2086.45,395.838 2091.18,394.588 2095.91,394.588 2100.64,394.588 
  2105.37,394.588 2110.1,394.588 2114.83,394.588 2119.56,394.588 2124.3,394.588 2129.03,394.588 2133.76,393.337 2138.49,392.086 2143.22,392.086 2147.95,392.086 
  2152.68,392.086 2157.41,392.086 2162.14,390.835 2166.87,389.584 2171.6,389.584 2176.33,388.334 2181.06,387.083 2185.79,385.832 2190.53,385.832 2195.26,385.832 
  2199.99,384.581 
  "/>
<path clip-path="url(#clip560)" d="
M1930.31 366.924 L2187.64 366.924 L2187.64 125.004 L1930.31 125.004  Z
  " fill="#ffffff" fill-rule="evenodd" fill-opacity="1"/>
<polyline clip-path="url(#clip560)" style="stroke:#000000; stroke-width:4; stroke-opacity:1; fill:none" points="
  1930.31,366.924 2187.64,366.924 2187.64,125.004 1930.31,125.004 1930.31,366.924 
  "/>
<polyline clip-path="url(#clip560)" style="stroke:#009af9; stroke-width:4; stroke-opacity:1; fill:none" points="
  1953.35,185.484 2091.59,185.484 
  "/>
<path clip-path="url(#clip560)" d="M 0 0 M2136.88 169.338 L2136.88 173.899 Q2134.22 172.625 2131.86 172 Q2129.5 171.375 2127.3 171.375 Q2123.48 171.375 2121.39 172.857 Q2119.33 174.338 2119.33 177.07 Q2119.33 179.361 2120.7 180.542 Q2122.09 181.699 2125.93 182.417 L2128.76 182.996 Q2133.99 183.991 2136.46 186.514 Q2138.96 189.014 2138.96 193.227 Q2138.96 198.25 2135.58 200.843 Q2132.23 203.435 2125.72 203.435 Q2123.27 203.435 2120.49 202.88 Q2117.74 202.324 2114.77 201.236 L2114.77 196.422 Q2117.62 198.019 2120.35 198.829 Q2123.08 199.639 2125.72 199.639 Q2129.73 199.639 2131.9 198.065 Q2134.08 196.491 2134.08 193.574 Q2134.08 191.028 2132.51 189.593 Q2130.95 188.158 2127.39 187.44 L2124.54 186.885 Q2119.31 185.843 2116.97 183.621 Q2114.63 181.398 2114.63 177.44 Q2114.63 172.857 2117.85 170.218 Q2121.09 167.579 2126.76 167.579 Q2129.19 167.579 2131.72 168.019 Q2134.24 168.459 2136.88 169.338 Z" fill="#000000" fill-rule="evenodd" fill-opacity="1" /><polyline clip-path="url(#clip560)" style="stroke:#e26f46; stroke-width:4; stroke-opacity:1; fill:none" points="
  1953.35,245.964 2091.59,245.964 
  "/>
<path clip-path="url(#clip560)" d="M 0 0 M2114.63 228.684 L2119.31 228.684 L2119.31 263.244 L2114.63 263.244 L2114.63 228.684 Z" fill="#000000" fill-rule="evenodd" fill-opacity="1" /><polyline clip-path="url(#clip560)" style="stroke:#3da44d; stroke-width:4; stroke-opacity:1; fill:none" points="
  1953.35,306.444 2091.59,306.444 
  "/>
<path clip-path="url(#clip560)" d="M 0 0 M2131.02 307.52 Q2132.53 308.03 2133.94 309.696 Q2135.38 311.363 2136.81 314.28 L2141.56 323.724 L2136.53 323.724 L2132.11 314.858 Q2130.4 311.386 2128.78 310.252 Q2127.18 309.118 2124.4 309.118 L2119.31 309.118 L2119.31 323.724 L2114.63 323.724 L2114.63 289.164 L2125.19 289.164 Q2131.12 289.164 2134.03 291.641 Q2136.95 294.118 2136.95 299.118 Q2136.95 302.382 2135.42 304.534 Q2133.92 306.687 2131.02 307.52 M2119.31 293.007 L2119.31 305.275 L2125.19 305.275 Q2128.57 305.275 2130.28 303.724 Q2132.02 302.15 2132.02 299.118 Q2132.02 296.085 2130.28 294.558 Q2128.57 293.007 2125.19 293.007 L2119.31 293.007 Z" fill="#000000" fill-rule="evenodd" fill-opacity="1" /></svg>
