<?xml version="1.0" encoding="utf-8"?>
<svg xmlns="http://www.w3.org/2000/svg" xmlns:xlink="http://www.w3.org/1999/xlink" width="576" height="384" viewBox="0 0 2304 1536">
<defs>
  <clipPath id="clip710">
    <rect x="0" y="0" width="2304" height="1536"/>
  </clipPath>
</defs>
<path clip-path="url(#clip710)" d="
M0 1536 L2304 1536 L2304 0 L0 0  Z
  " fill="#ffffff" fill-rule="evenodd" fill-opacity="1"/>
<defs>
  <clipPath id="clip711">
    <rect x="460" y="0" width="1614" height="1536"/>
  </clipPath>
</defs>
<path clip-path="url(#clip710)" d="
M250.92 1359.82 L2256.76 1359.82 L2256.76 47.2441 L250.92 47.2441  Z
  " fill="#ffffff" fill-rule="evenodd" fill-opacity="1"/>
<defs>
  <clipPath id="clip712">
    <rect x="250" y="47" width="2007" height="1314"/>
  </clipPath>
</defs>
<polyline clip-path="url(#clip712)" style="stroke:#000000; stroke-width:2; stroke-opacity:0.1; fill:none" points="
  307.689,1359.82 307.689,47.2441 
  "/>
<polyline clip-path="url(#clip712)" style="stroke:#000000; stroke-width:2; stroke-opacity:0.1; fill:none" points="
  780.763,1359.82 780.763,47.2441 
  "/>
<polyline clip-path="url(#clip712)" style="stroke:#000000; stroke-width:2; stroke-opacity:0.1; fill:none" points="
  1253.84,1359.82 1253.84,47.2441 
  "/>
<polyline clip-path="url(#clip712)" style="stroke:#000000; stroke-width:2; stroke-opacity:0.1; fill:none" points="
  1726.91,1359.82 1726.91,47.2441 
  "/>
<polyline clip-path="url(#clip712)" style="stroke:#000000; stroke-width:2; stroke-opacity:0.1; fill:none" points="
  2199.99,1359.82 2199.99,47.2441 
  "/>
<polyline clip-path="url(#clip712)" style="stroke:#000000; stroke-width:2; stroke-opacity:0.1; fill:none" points="
  250.92,1322.67 2256.76,1322.67 
  "/>
<polyline clip-path="url(#clip712)" style="stroke:#000000; stroke-width:2; stroke-opacity:0.1; fill:none" points="
  250.92,1009.97 2256.76,1009.97 
  "/>
<polyline clip-path="url(#clip712)" style="stroke:#000000; stroke-width:2; stroke-opacity:0.1; fill:none" points="
  250.92,697.278 2256.76,697.278 
  "/>
<polyline clip-path="url(#clip712)" style="stroke:#000000; stroke-width:2; stroke-opacity:0.1; fill:none" points="
  250.92,384.581 2256.76,384.581 
  "/>
<polyline clip-path="url(#clip712)" style="stroke:#000000; stroke-width:2; stroke-opacity:0.1; fill:none" points="
  250.92,71.8846 2256.76,71.8846 
  "/>
<polyline clip-path="url(#clip710)" style="stroke:#000000; stroke-width:4; stroke-opacity:1; fill:none" points="
  250.92,1359.82 2256.76,1359.82 
  "/>
<polyline clip-path="url(#clip710)" style="stroke:#000000; stroke-width:4; stroke-opacity:1; fill:none" points="
  250.92,1359.82 250.92,47.2441 
  "/>
<polyline clip-path="url(#clip710)" style="stroke:#000000; stroke-width:4; stroke-opacity:1; fill:none" points="
  307.689,1359.82 307.689,1344.07 
  "/>
<polyline clip-path="url(#clip710)" style="stroke:#000000; stroke-width:4; stroke-opacity:1; fill:none" points="
  780.763,1359.82 780.763,1344.07 
  "/>
<polyline clip-path="url(#clip710)" style="stroke:#000000; stroke-width:4; stroke-opacity:1; fill:none" points="
  1253.84,1359.82 1253.84,1344.07 
  "/>
<polyline clip-path="url(#clip710)" style="stroke:#000000; stroke-width:4; stroke-opacity:1; fill:none" points="
  1726.91,1359.82 1726.91,1344.07 
  "/>
<polyline clip-path="url(#clip710)" style="stroke:#000000; stroke-width:4; stroke-opacity:1; fill:none" points="
  2199.99,1359.82 2199.99,1344.07 
  "/>
<polyline clip-path="url(#clip710)" style="stroke:#000000; stroke-width:4; stroke-opacity:1; fill:none" points="
  250.92,1322.67 274.99,1322.67 
  "/>
<polyline clip-path="url(#clip710)" style="stroke:#000000; stroke-width:4; stroke-opacity:1; fill:none" points="
  250.92,1009.97 274.99,1009.97 
  "/>
<polyline clip-path="url(#clip710)" style="stroke:#000000; stroke-width:4; stroke-opacity:1; fill:none" points="
  250.92,697.278 274.99,697.278 
  "/>
<polyline clip-path="url(#clip710)" style="stroke:#000000; stroke-width:4; stroke-opacity:1; fill:none" points="
  250.92,384.581 274.99,384.581 
  "/>
<polyline clip-path="url(#clip710)" style="stroke:#000000; stroke-width:4; stroke-opacity:1; fill:none" points="
  250.92,71.8846 274.99,71.8846 
  "/>
<path clip-path="url(#clip710)" d="M 0 0 M307.689 1381.33 Q304.078 1381.33 302.249 1384.9 Q300.444 1388.44 300.444 1395.57 Q300.444 1402.67 302.249 1406.24 Q304.078 1409.78 307.689 1409.78 Q311.323 1409.78 313.129 1406.24 Q314.957 1402.67 314.957 1395.57 Q314.957 1388.44 313.129 1384.9 Q311.323 1381.33 307.689 1381.33 M307.689 1377.63 Q313.499 1377.63 316.555 1382.23 Q319.633 1386.82 319.633 1395.57 Q319.633 1404.29 316.555 1408.9 Q313.499 1413.48 307.689 1413.48 Q301.879 1413.48 298.8 1408.9 Q295.745 1404.29 295.745 1395.57 Q295.745 1386.82 298.8 1382.23 Q301.879 1377.63 307.689 1377.63 Z" fill="#000000" fill-rule="evenodd" fill-opacity="1" /><path clip-path="url(#clip710)" d="M 0 0 M757.639 1408.88 L765.277 1408.88 L765.277 1382.51 L756.967 1384.18 L756.967 1379.92 L765.231 1378.25 L769.907 1378.25 L769.907 1408.88 L777.546 1408.88 L777.546 1412.81 L757.639 1412.81 L757.639 1408.88 Z" fill="#000000" fill-rule="evenodd" fill-opacity="1" /><path clip-path="url(#clip710)" d="M 0 0 M792.615 1381.33 Q789.004 1381.33 787.175 1384.9 Q785.37 1388.44 785.37 1395.57 Q785.37 1402.67 787.175 1406.24 Q789.004 1409.78 792.615 1409.78 Q796.249 1409.78 798.055 1406.24 Q799.884 1402.67 799.884 1395.57 Q799.884 1388.44 798.055 1384.9 Q796.249 1381.33 792.615 1381.33 M792.615 1377.63 Q798.425 1377.63 801.481 1382.23 Q804.56 1386.82 804.56 1395.57 Q804.56 1404.29 801.481 1408.9 Q798.425 1413.48 792.615 1413.48 Q786.805 1413.48 783.726 1408.9 Q780.671 1404.29 780.671 1395.57 Q780.671 1386.82 783.726 1382.23 Q786.805 1377.63 792.615 1377.63 Z" fill="#000000" fill-rule="evenodd" fill-opacity="1" /><path clip-path="url(#clip710)" d="M 0 0 M1234.98 1408.88 L1251.3 1408.88 L1251.3 1412.81 L1229.36 1412.81 L1229.36 1408.88 Q1232.02 1406.12 1236.6 1401.49 Q1241.21 1396.84 1242.39 1395.5 Q1244.64 1392.97 1245.52 1391.24 Q1246.42 1389.48 1246.42 1387.79 Q1246.42 1385.03 1244.47 1383.3 Q1242.55 1381.56 1239.45 1381.56 Q1237.25 1381.56 1234.8 1382.33 Q1232.37 1383.09 1229.59 1384.64 L1229.59 1379.92 Q1232.41 1378.78 1234.87 1378.21 Q1237.32 1377.63 1239.36 1377.63 Q1244.73 1377.63 1247.92 1380.31 Q1251.12 1383 1251.12 1387.49 Q1251.12 1389.62 1250.31 1391.54 Q1249.52 1393.44 1247.41 1396.03 Q1246.84 1396.7 1243.73 1399.92 Q1240.63 1403.11 1234.98 1408.88 Z" fill="#000000" fill-rule="evenodd" fill-opacity="1" /><path clip-path="url(#clip710)" d="M 0 0 M1266.37 1381.33 Q1262.76 1381.33 1260.93 1384.9 Q1259.13 1388.44 1259.13 1395.57 Q1259.13 1402.67 1260.93 1406.24 Q1262.76 1409.78 1266.37 1409.78 Q1270.01 1409.78 1271.81 1406.24 Q1273.64 1402.67 1273.64 1395.57 Q1273.64 1388.44 1271.81 1384.9 Q1270.01 1381.33 1266.37 1381.33 M1266.37 1377.63 Q1272.18 1377.63 1275.24 1382.23 Q1278.32 1386.82 1278.32 1395.57 Q1278.32 1404.29 1275.24 1408.9 Q1272.18 1413.48 1266.37 1413.48 Q1260.56 1413.48 1257.48 1408.9 Q1254.43 1404.29 1254.43 1395.57 Q1254.43 1386.82 1257.48 1382.23 Q1260.56 1377.63 1266.37 1377.63 Z" fill="#000000" fill-rule="evenodd" fill-opacity="1" /><path clip-path="url(#clip710)" d="M 0 0 M1717.65 1394.18 Q1721.01 1394.9 1722.88 1397.16 Q1724.78 1399.43 1724.78 1402.77 Q1724.78 1407.88 1721.26 1410.68 Q1717.75 1413.48 1711.26 1413.48 Q1709.09 1413.48 1706.77 1413.04 Q1704.48 1412.63 1702.03 1411.77 L1702.03 1407.26 Q1703.97 1408.39 1706.29 1408.97 Q1708.6 1409.55 1711.13 1409.55 Q1715.52 1409.55 1717.82 1407.81 Q1720.13 1406.08 1720.13 1402.77 Q1720.13 1399.71 1717.98 1398 Q1715.85 1396.26 1712.03 1396.26 L1708 1396.26 L1708 1392.42 L1712.21 1392.42 Q1715.66 1392.42 1717.49 1391.05 Q1719.32 1389.66 1719.32 1387.07 Q1719.32 1384.41 1717.42 1383 Q1715.55 1381.56 1712.03 1381.56 Q1710.11 1381.56 1707.91 1381.98 Q1705.71 1382.4 1703.07 1383.27 L1703.07 1379.11 Q1705.73 1378.37 1708.05 1378 Q1710.38 1377.63 1712.44 1377.63 Q1717.77 1377.63 1720.87 1380.06 Q1723.97 1382.46 1723.97 1386.59 Q1723.97 1389.46 1722.33 1391.45 Q1720.69 1393.41 1717.65 1394.18 Z" fill="#000000" fill-rule="evenodd" fill-opacity="1" /><path clip-path="url(#clip710)" d="M 0 0 M1739.85 1381.33 Q1736.24 1381.33 1734.41 1384.9 Q1732.61 1388.44 1732.61 1395.57 Q1732.61 1402.67 1734.41 1406.24 Q1736.24 1409.78 1739.85 1409.78 Q1743.49 1409.78 1745.29 1406.24 Q1747.12 1402.67 1747.12 1395.57 Q1747.12 1388.44 1745.29 1384.9 Q1743.49 1381.33 1739.85 1381.33 M1739.85 1377.63 Q1745.66 1377.63 1748.72 1382.23 Q1751.8 1386.82 1751.8 1395.57 Q1751.8 1404.29 1748.72 1408.9 Q1745.66 1413.48 1739.85 1413.48 Q1734.04 1413.48 1730.96 1408.9 Q1727.91 1404.29 1727.91 1395.57 Q1727.91 1386.82 1730.96 1382.23 Q1734.04 1377.63 1739.85 1377.63 Z" fill="#000000" fill-rule="evenodd" fill-opacity="1" /><path clip-path="url(#clip710)" d="M 0 0 M2189.49 1382.33 L2177.68 1400.77 L2189.49 1400.77 L2189.49 1382.33 M2188.26 1378.25 L2194.14 1378.25 L2194.14 1400.77 L2199.07 1400.77 L2199.07 1404.66 L2194.14 1404.66 L2194.14 1412.81 L2189.49 1412.81 L2189.49 1404.66 L2173.89 1404.66 L2173.89 1400.15 L2188.26 1378.25 Z" fill="#000000" fill-rule="evenodd" fill-opacity="1" /><path clip-path="url(#clip710)" d="M 0 0 M2214.14 1381.33 Q2210.53 1381.33 2208.7 1384.9 Q2206.9 1388.44 2206.9 1395.57 Q2206.9 1402.67 2208.7 1406.24 Q2210.53 1409.78 2214.14 1409.78 Q2217.78 1409.78 2219.58 1406.24 Q2221.41 1402.67 2221.41 1395.57 Q2221.41 1388.44 2219.58 1384.9 Q2217.78 1381.33 2214.14 1381.33 M2214.14 1377.63 Q2219.95 1377.63 2223.01 1382.23 Q2226.09 1386.82 2226.09 1395.57 Q2226.09 1404.29 2223.01 1408.9 Q2219.95 1413.48 2214.14 1413.48 Q2208.33 1413.48 2205.25 1408.9 Q2202.2 1404.29 2202.2 1395.57 Q2202.2 1386.82 2205.25 1382.23 Q2208.33 1377.63 2214.14 1377.63 Z" fill="#000000" fill-rule="evenodd" fill-opacity="1" /><path clip-path="url(#clip710)" d="M 0 0 M215.936 1308.47 Q212.325 1308.47 210.496 1312.03 Q208.69 1315.58 208.69 1322.71 Q208.69 1329.81 210.496 1333.38 Q212.325 1336.92 215.936 1336.92 Q219.57 1336.92 221.375 1333.38 Q223.204 1329.81 223.204 1322.71 Q223.204 1315.58 221.375 1312.03 Q219.57 1308.47 215.936 1308.47 M215.936 1304.77 Q221.746 1304.77 224.801 1309.37 Q227.88 1313.96 227.88 1322.71 Q227.88 1331.43 224.801 1336.04 Q221.746 1340.62 215.936 1340.62 Q210.125 1340.62 207.047 1336.04 Q203.991 1331.43 203.991 1322.71 Q203.991 1313.96 207.047 1309.37 Q210.125 1304.77 215.936 1304.77 Z" fill="#000000" fill-rule="evenodd" fill-opacity="1" /><path clip-path="url(#clip710)" d="M 0 0 M158.529 1023.32 L174.848 1023.32 L174.848 1027.25 L152.904 1027.25 L152.904 1023.32 Q155.566 1020.56 160.149 1015.94 Q164.755 1011.28 165.936 1009.94 Q168.181 1007.42 169.061 1005.68 Q169.964 1003.92 169.964 1002.23 Q169.964 999.477 168.019 997.741 Q166.098 996.005 162.996 996.005 Q160.797 996.005 158.343 996.769 Q155.913 997.533 153.135 999.084 L153.135 994.361 Q155.959 993.227 158.413 992.648 Q160.866 992.07 162.903 992.07 Q168.274 992.07 171.468 994.755 Q174.663 997.44 174.663 1001.93 Q174.663 1004.06 173.852 1005.98 Q173.065 1007.88 170.959 1010.47 Q170.38 1011.14 167.278 1014.36 Q164.177 1017.56 158.529 1023.32 Z" fill="#000000" fill-rule="evenodd" fill-opacity="1" /><path clip-path="url(#clip710)" d="M 0 0 M179.964 992.695 L198.32 992.695 L198.32 996.63 L184.246 996.63 L184.246 1005.1 Q185.264 1004.75 186.283 1004.59 Q187.301 1004.41 188.32 1004.41 Q194.107 1004.41 197.487 1007.58 Q200.866 1010.75 200.866 1016.17 Q200.866 1021.75 197.394 1024.85 Q193.922 1027.93 187.602 1027.93 Q185.427 1027.93 183.158 1027.56 Q180.913 1027.19 178.505 1026.44 L178.505 1021.75 Q180.589 1022.88 182.811 1023.44 Q185.033 1023.99 187.51 1023.99 Q191.514 1023.99 193.852 1021.88 Q196.19 1019.78 196.19 1016.17 Q196.19 1012.56 193.852 1010.45 Q191.514 1008.34 187.51 1008.34 Q185.635 1008.34 183.76 1008.76 Q181.908 1009.18 179.964 1010.06 L179.964 992.695 Z" fill="#000000" fill-rule="evenodd" fill-opacity="1" /><path clip-path="url(#clip710)" d="M 0 0 M215.936 995.773 Q212.325 995.773 210.496 999.338 Q208.69 1002.88 208.69 1010.01 Q208.69 1017.12 210.496 1020.68 Q212.325 1024.22 215.936 1024.22 Q219.57 1024.22 221.375 1020.68 Q223.204 1017.12 223.204 1010.01 Q223.204 1002.88 221.375 999.338 Q219.57 995.773 215.936 995.773 M215.936 992.07 Q221.746 992.07 224.801 996.676 Q227.88 1001.26 227.88 1010.01 Q227.88 1018.74 224.801 1023.34 Q221.746 1027.93 215.936 1027.93 Q210.125 1027.93 207.047 1023.34 Q203.991 1018.74 203.991 1010.01 Q203.991 1001.26 207.047 996.676 Q210.125 992.07 215.936 992.07 Z" fill="#000000" fill-rule="evenodd" fill-opacity="1" /><path clip-path="url(#clip710)" d="M 0 0 M152.95 679.998 L171.306 679.998 L171.306 683.933 L157.232 683.933 L157.232 692.405 Q158.251 692.058 159.269 691.896 Q160.288 691.711 161.306 691.711 Q167.093 691.711 170.473 694.882 Q173.852 698.053 173.852 703.47 Q173.852 709.049 170.38 712.151 Q166.908 715.229 160.589 715.229 Q158.413 715.229 156.144 714.859 Q153.899 714.489 151.492 713.748 L151.492 709.049 Q153.575 710.183 155.797 710.739 Q158.019 711.294 160.496 711.294 Q164.501 711.294 166.839 709.188 Q169.177 707.081 169.177 703.47 Q169.177 699.859 166.839 697.753 Q164.501 695.646 160.496 695.646 Q158.621 695.646 156.746 696.063 Q154.894 696.479 152.95 697.359 L152.95 679.998 Z" fill="#000000" fill-rule="evenodd" fill-opacity="1" /><path clip-path="url(#clip710)" d="M 0 0 M188.922 683.077 Q185.311 683.077 183.482 686.642 Q181.677 690.183 181.677 697.313 Q181.677 704.419 183.482 707.984 Q185.311 711.526 188.922 711.526 Q192.556 711.526 194.362 707.984 Q196.19 704.419 196.19 697.313 Q196.19 690.183 194.362 686.642 Q192.556 683.077 188.922 683.077 M188.922 679.373 Q194.732 679.373 197.788 683.979 Q200.866 688.563 200.866 697.313 Q200.866 706.04 197.788 710.646 Q194.732 715.229 188.922 715.229 Q183.112 715.229 180.033 710.646 Q176.977 706.04 176.977 697.313 Q176.977 688.563 180.033 683.979 Q183.112 679.373 188.922 679.373 Z" fill="#000000" fill-rule="evenodd" fill-opacity="1" /><path clip-path="url(#clip710)" d="M 0 0 M215.936 683.077 Q212.325 683.077 210.496 686.642 Q208.69 690.183 208.69 697.313 Q208.69 704.419 210.496 707.984 Q212.325 711.526 215.936 711.526 Q219.57 711.526 221.375 707.984 Q223.204 704.419 223.204 697.313 Q223.204 690.183 221.375 686.642 Q219.57 683.077 215.936 683.077 M215.936 679.373 Q221.746 679.373 224.801 683.979 Q227.88 688.563 227.88 697.313 Q227.88 706.04 224.801 710.646 Q221.746 715.229 215.936 715.229 Q210.125 715.229 207.047 710.646 Q203.991 706.04 203.991 697.313 Q203.991 688.563 207.047 683.979 Q210.125 679.373 215.936 679.373 Z" fill="#000000" fill-rule="evenodd" fill-opacity="1" /><path clip-path="url(#clip710)" d="M 0 0 M152.626 367.301 L174.848 367.301 L174.848 369.292 L162.302 401.861 L157.417 401.861 L169.223 371.236 L152.626 371.236 L152.626 367.301 Z" fill="#000000" fill-rule="evenodd" fill-opacity="1" /><path clip-path="url(#clip710)" d="M 0 0 M179.964 367.301 L198.32 367.301 L198.32 371.236 L184.246 371.236 L184.246 379.709 Q185.264 379.361 186.283 379.199 Q187.301 379.014 188.32 379.014 Q194.107 379.014 197.487 382.185 Q200.866 385.357 200.866 390.773 Q200.866 396.352 197.394 399.454 Q193.922 402.533 187.602 402.533 Q185.427 402.533 183.158 402.162 Q180.913 401.792 178.505 401.051 L178.505 396.352 Q180.589 397.486 182.811 398.042 Q185.033 398.597 187.51 398.597 Q191.514 398.597 193.852 396.491 Q196.19 394.385 196.19 390.773 Q196.19 387.162 193.852 385.056 Q191.514 382.949 187.51 382.949 Q185.635 382.949 183.76 383.366 Q181.908 383.783 179.964 384.662 L179.964 367.301 Z" fill="#000000" fill-rule="evenodd" fill-opacity="1" /><path clip-path="url(#clip710)" d="M 0 0 M215.936 370.38 Q212.325 370.38 210.496 373.945 Q208.69 377.486 208.69 384.616 Q208.69 391.722 210.496 395.287 Q212.325 398.829 215.936 398.829 Q219.57 398.829 221.375 395.287 Q223.204 391.722 223.204 384.616 Q223.204 377.486 221.375 373.945 Q219.57 370.38 215.936 370.38 M215.936 366.676 Q221.746 366.676 224.801 371.283 Q227.88 375.866 227.88 384.616 Q227.88 393.343 224.801 397.949 Q221.746 402.533 215.936 402.533 Q210.125 402.533 207.047 397.949 Q203.991 393.343 203.991 384.616 Q203.991 375.866 207.047 371.283 Q210.125 366.676 215.936 366.676 Z" fill="#000000" fill-rule="evenodd" fill-opacity="1" /><path clip-path="url(#clip710)" d="M 0 0 M126.931 85.2294 L134.57 85.2294 L134.57 58.8638 L126.26 60.5305 L126.26 56.2713 L134.524 54.6046 L139.2 54.6046 L139.2 85.2294 L146.839 85.2294 L146.839 89.1646 L126.931 89.1646 L126.931 85.2294 Z" fill="#000000" fill-rule="evenodd" fill-opacity="1" /><path clip-path="url(#clip710)" d="M 0 0 M161.908 57.6833 Q158.297 57.6833 156.468 61.2481 Q154.663 64.7897 154.663 71.9193 Q154.663 79.0258 156.468 82.5906 Q158.297 86.1322 161.908 86.1322 Q165.542 86.1322 167.348 82.5906 Q169.177 79.0258 169.177 71.9193 Q169.177 64.7897 167.348 61.2481 Q165.542 57.6833 161.908 57.6833 M161.908 53.9796 Q167.718 53.9796 170.774 58.5861 Q173.852 63.1694 173.852 71.9193 Q173.852 80.6461 170.774 85.2526 Q167.718 89.8359 161.908 89.8359 Q156.098 89.8359 153.019 85.2526 Q149.964 80.6461 149.964 71.9193 Q149.964 63.1694 153.019 58.5861 Q156.098 53.9796 161.908 53.9796 Z" fill="#000000" fill-rule="evenodd" fill-opacity="1" /><path clip-path="url(#clip710)" d="M 0 0 M188.922 57.6833 Q185.311 57.6833 183.482 61.2481 Q181.677 64.7897 181.677 71.9193 Q181.677 79.0258 183.482 82.5906 Q185.311 86.1322 188.922 86.1322 Q192.556 86.1322 194.362 82.5906 Q196.19 79.0258 196.19 71.9193 Q196.19 64.7897 194.362 61.2481 Q192.556 57.6833 188.922 57.6833 M188.922 53.9796 Q194.732 53.9796 197.788 58.5861 Q200.866 63.1694 200.866 71.9193 Q200.866 80.6461 197.788 85.2526 Q194.732 89.8359 188.922 89.8359 Q183.112 89.8359 180.033 85.2526 Q176.977 80.6461 176.977 71.9193 Q176.977 63.1694 180.033 58.5861 Q183.112 53.9796 188.922 53.9796 Z" fill="#000000" fill-rule="evenodd" fill-opacity="1" /><path clip-path="url(#clip710)" d="M 0 0 M215.936 57.6833 Q212.325 57.6833 210.496 61.2481 Q208.69 64.7897 208.69 71.9193 Q208.69 79.0258 210.496 82.5906 Q212.325 86.1322 215.936 86.1322 Q219.57 86.1322 221.375 82.5906 Q223.204 79.0258 223.204 71.9193 Q223.204 64.7897 221.375 61.2481 Q219.57 57.6833 215.936 57.6833 M215.936 53.9796 Q221.746 53.9796 224.801 58.5861 Q227.88 63.1694 227.88 71.9193 Q227.88 80.6461 224.801 85.2526 Q221.746 89.8359 215.936 89.8359 Q210.125 89.8359 207.047 85.2526 Q203.991 80.6461 203.991 71.9193 Q203.991 63.1694 207.047 58.5861 Q210.125 53.9796 215.936 53.9796 Z" fill="#000000" fill-rule="evenodd" fill-opacity="1" /><path clip-path="url(#clip710)" d="M 0 0 M1181.44 1444.2 L1221.64 1444.2 L1221.64 1449.61 L1204.77 1449.61 L1204.77 1491.72 L1198.31 1491.72 L1198.31 1449.61 L1181.44 1449.61 L1181.44 1444.2 Z" fill="#000000" fill-rule="evenodd" fill-opacity="1" /><path clip-path="url(#clip710)" d="M 0 0 M1225.78 1456.08 L1231.64 1456.08 L1231.64 1491.72 L1225.78 1491.72 L1225.78 1456.08 M1225.78 1442.2 L1231.64 1442.2 L1231.64 1449.61 L1225.78 1449.61 L1225.78 1442.2 Z" fill="#000000" fill-rule="evenodd" fill-opacity="1" /><path clip-path="url(#clip710)" d="M 0 0 M1265.53 1462.92 Q1267.73 1458.97 1270.79 1457.09 Q1273.84 1455.22 1277.98 1455.22 Q1283.55 1455.22 1286.57 1459.13 Q1289.6 1463.01 1289.6 1470.21 L1289.6 1491.72 L1283.71 1491.72 L1283.71 1470.4 Q1283.71 1465.27 1281.89 1462.79 Q1280.08 1460.31 1276.36 1460.31 Q1271.81 1460.31 1269.16 1463.33 Q1266.52 1466.36 1266.52 1471.58 L1266.52 1491.72 L1260.63 1491.72 L1260.63 1470.4 Q1260.63 1465.24 1258.82 1462.79 Q1257 1460.31 1253.22 1460.31 Q1248.73 1460.31 1246.09 1463.36 Q1243.45 1466.39 1243.45 1471.58 L1243.45 1491.72 L1237.56 1491.72 L1237.56 1456.08 L1243.45 1456.08 L1243.45 1461.61 Q1245.45 1458.34 1248.25 1456.78 Q1251.05 1455.22 1254.9 1455.22 Q1258.79 1455.22 1261.49 1457.19 Q1264.23 1459.16 1265.53 1462.92 Z" fill="#000000" fill-rule="evenodd" fill-opacity="1" /><path clip-path="url(#clip710)" d="M 0 0 M1326.23 1472.44 L1326.23 1475.3 L1299.31 1475.3 Q1299.69 1481.35 1302.93 1484.53 Q1306.21 1487.68 1312.04 1487.68 Q1315.41 1487.68 1318.56 1486.85 Q1321.74 1486.03 1324.86 1484.37 L1324.86 1489.91 Q1321.71 1491.25 1318.4 1491.95 Q1315.09 1492.65 1311.69 1492.65 Q1303.16 1492.65 1298.16 1487.68 Q1293.19 1482.72 1293.19 1474.25 Q1293.19 1465.5 1297.9 1460.37 Q1302.65 1455.22 1310.67 1455.22 Q1317.86 1455.22 1322.03 1459.86 Q1326.23 1464.48 1326.23 1472.44 M1320.38 1470.72 Q1320.31 1465.91 1317.67 1463.05 Q1315.06 1460.18 1310.73 1460.18 Q1305.83 1460.18 1302.87 1462.95 Q1299.94 1465.72 1299.5 1470.75 L1320.38 1470.72 Z" fill="#000000" fill-rule="evenodd" fill-opacity="1" /><path clip-path="url(#clip710)" d="M 0 0 M41.4442 818.815 L41.4442 810.158 L81.198 789.087 L41.4442 789.087 L41.4442 782.849 L88.9642 782.849 L88.9642 791.506 L49.2103 812.577 L88.9642 812.577 L88.9642 818.815 L41.4442 818.815 Z" fill="#000000" fill-rule="evenodd" fill-opacity="1" /><path clip-path="url(#clip710)" d="M 0 0 M74.8959 777.311 L53.3162 777.311 L53.3162 771.454 L74.6731 771.454 Q79.7339 771.454 82.2802 769.481 Q84.7946 767.507 84.7946 763.561 Q84.7946 758.818 81.7709 756.081 Q78.7472 753.312 73.5273 753.312 L53.3162 753.312 L53.3162 747.455 L88.9642 747.455 L88.9642 753.312 L83.4896 753.312 Q86.7362 755.444 88.3276 758.277 Q89.8872 761.078 89.8872 764.802 Q89.8872 770.945 86.0678 774.128 Q82.2483 777.311 74.8959 777.311 M52.4568 762.574 L52.4568 762.574 Z" fill="#000000" fill-rule="evenodd" fill-opacity="1" /><path clip-path="url(#clip710)" d="M 0 0 M60.1593 713.558 Q56.2126 711.362 54.3347 708.306 Q52.4568 705.251 52.4568 701.113 Q52.4568 695.543 56.3717 692.519 Q60.2548 689.496 67.4481 689.496 L88.9642 689.496 L88.9642 695.384 L67.639 695.384 Q62.5146 695.384 60.032 697.198 Q57.5494 699.012 57.5494 702.736 Q57.5494 707.288 60.5731 709.93 Q63.5968 712.571 68.8167 712.571 L88.9642 712.571 L88.9642 718.46 L67.639 718.46 Q62.4828 718.46 60.032 720.274 Q57.5494 722.088 57.5494 725.876 Q57.5494 730.363 60.6049 733.005 Q63.6286 735.647 68.8167 735.647 L88.9642 735.647 L88.9642 741.535 L53.3162 741.535 L53.3162 735.647 L58.8544 735.647 Q55.576 733.642 54.0164 730.841 Q52.4568 728.04 52.4568 724.189 Q52.4568 720.306 54.4302 717.6 Q56.4036 714.863 60.1593 713.558 Z" fill="#000000" fill-rule="evenodd" fill-opacity="1" /><path clip-path="url(#clip710)" d="M 0 0 M71.172 657.763 Q64.7108 657.763 61.0505 660.436 Q57.3584 663.078 57.3584 667.725 Q57.3584 672.372 61.0505 675.045 Q64.7108 677.687 71.172 677.687 Q77.6332 677.687 81.3253 675.045 Q84.9856 672.372 84.9856 667.725 Q84.9856 663.078 81.3253 660.436 Q77.6332 657.763 71.172 657.763 M58.7271 677.687 Q55.5442 675.841 54.0164 673.04 Q52.4568 670.207 52.4568 666.293 Q52.4568 659.8 57.6131 655.757 Q62.7693 651.683 71.172 651.683 Q79.5747 651.683 84.731 655.757 Q89.8872 659.8 89.8872 666.293 Q89.8872 670.207 88.3594 673.04 Q86.7998 675.841 83.617 677.687 L88.9642 677.687 L88.9642 683.575 L39.439 683.575 L39.439 677.687 L58.7271 677.687 Z" fill="#000000" fill-rule="evenodd" fill-opacity="1" /><path clip-path="url(#clip710)" d="M 0 0 M69.6761 615.049 L72.5406 615.049 L72.5406 641.976 Q78.5881 641.594 81.7709 638.347 Q84.9219 635.069 84.9219 629.244 Q84.9219 625.87 84.0944 622.719 Q83.2669 619.536 81.6118 616.417 L87.1499 616.417 Q88.4867 619.568 89.187 622.878 Q89.8872 626.189 89.8872 629.594 Q89.8872 638.124 84.9219 643.121 Q79.9567 648.087 71.4903 648.087 Q62.7374 648.087 57.6131 643.376 Q52.4568 638.634 52.4568 630.613 Q52.4568 623.42 57.1038 619.25 Q61.7189 615.049 69.6761 615.049 M67.9573 620.905 Q63.1512 620.969 60.2866 623.611 Q57.4221 626.22 57.4221 630.549 Q57.4221 635.451 60.1912 638.411 Q62.9602 641.339 67.9892 641.785 L67.9573 620.905 Z" fill="#000000" fill-rule="evenodd" fill-opacity="1" /><path clip-path="url(#clip710)" d="M 0 0 M58.7907 588.249 Q58.2178 589.236 57.9632 590.413 Q57.6767 591.559 57.6767 592.96 Q57.6767 597.925 60.9232 600.598 Q64.1379 603.24 70.1853 603.24 L88.9642 603.24 L88.9642 609.129 L53.3162 609.129 L53.3162 603.24 L58.8544 603.24 Q55.6079 601.394 54.0483 598.434 Q52.4568 595.474 52.4568 591.241 Q52.4568 590.636 52.5523 589.904 Q52.616 589.172 52.7751 588.281 L58.7907 588.249 Z" fill="#000000" fill-rule="evenodd" fill-opacity="1" /><polyline clip-path="url(#clip712)" style="stroke:#009af9; stroke-width:4; stroke-opacity:1; fill:none" points="
  307.689,84.3925 312.42,85.6433 317.15,85.6433 321.881,85.6433 326.612,86.894 331.343,88.1448 336.073,89.3956 340.804,89.3956 345.535,89.3956 350.266,89.3956 
  354.996,89.3956 359.727,91.8972 364.458,91.8972 369.189,91.8972 373.919,91.8972 378.65,91.8972 383.381,91.8972 388.112,95.6495 392.842,95.6495 397.573,95.6495 
  402.304,98.1511 407.035,98.1511 411.765,98.1511 416.496,99.4019 421.227,99.4019 425.958,99.4019 430.688,99.4019 435.419,99.4019 440.15,100.653 444.881,101.903 
  449.611,103.154 454.342,103.154 459.073,104.405 463.804,106.907 468.534,106.907 473.265,109.408 477.996,109.408 482.726,110.659 487.457,110.659 492.188,110.659 
  496.919,111.91 501.649,113.161 506.38,113.161 511.111,113.161 515.842,114.411 520.572,115.662 525.303,118.164 530.034,118.164 534.765,119.414 539.495,119.414 
  544.226,119.414 548.957,119.414 553.688,120.665 558.418,121.916 563.149,123.167 567.88,123.167 572.611,124.418 577.341,124.418 582.072,125.668 586.803,128.17 
  591.534,128.17 596.264,130.672 600.995,133.173 605.726,134.424 610.457,136.926 615.187,136.926 619.918,138.176 624.649,141.929 629.38,141.929 634.11,144.43 
  638.841,144.43 643.572,145.681 648.303,146.932 653.033,150.684 657.764,153.186 662.495,155.687 667.226,156.938 671.956,161.941 676.687,164.443 681.418,166.944 
  686.149,169.446 690.879,169.446 695.61,169.446 700.341,170.697 705.072,174.449 709.802,179.452 714.533,184.455 719.264,189.459 723.994,193.211 728.725,196.963 
  733.456,200.716 738.187,204.468 742.917,205.719 747.648,209.471 752.379,213.224 757.11,213.224 761.84,215.725 766.571,223.23 771.302,233.236 776.033,234.487 
  780.763,235.738 785.494,236.988 790.225,241.992 794.956,245.744 799.686,250.747 804.417,251.998 809.148,253.249 813.879,260.753 818.609,263.255 823.34,263.255 
  828.071,273.261 832.802,274.512 837.532,278.264 842.263,282.017 846.994,285.769 851.725,289.522 856.455,292.023 861.186,299.528 865.917,307.033 870.648,308.283 
  875.378,317.039 880.109,319.54 884.84,323.293 889.571,332.048 894.301,335.801 899.032,342.055 903.763,345.807 908.494,348.308 913.224,359.566 917.955,363.318 
  922.686,373.324 927.417,378.327 932.147,384.581 936.878,390.835 941.609,394.588 946.34,400.842 951.07,408.346 955.801,413.349 960.532,417.102 965.262,422.105 
  969.993,424.606 974.724,429.61 979.455,432.111 984.185,440.867 988.916,445.87 993.647,452.124 998.378,455.876 1003.11,462.13 1007.84,464.632 1012.57,473.387 
  1017.3,475.889 1022.03,485.895 1026.76,489.647 1031.49,494.651 1036.22,497.152 1040.95,502.155 1045.69,505.908 1050.42,509.66 1055.15,519.666 1059.88,522.168 
  1064.61,532.174 1069.34,535.927 1074.07,544.682 1078.8,550.936 1083.53,557.19 1088.26,564.695 1092.99,565.945 1097.72,575.952 1102.45,582.206 1107.18,590.961 
  1111.92,599.717 1116.65,604.72 1121.38,609.723 1126.11,615.977 1130.84,620.98 1135.57,630.986 1140.3,633.488 1145.03,637.24 1149.76,650.999 1154.49,656.002 
  1159.22,663.507 1163.95,666.008 1168.68,669.761 1173.42,678.516 1178.15,683.519 1182.88,686.021 1187.61,689.773 1192.34,694.776 1197.07,697.278 1201.8,703.532 
  1206.53,709.786 1211.26,718.541 1215.99,718.541 1220.72,722.294 1225.45,724.795 1230.18,729.798 1234.91,732.3 1239.65,738.554 1244.38,743.557 1249.11,747.31 
  1253.84,749.811 1258.57,756.065 1263.3,761.068 1268.03,762.319 1272.76,769.824 1277.49,774.827 1282.22,776.078 1286.95,779.83 1291.68,782.332 1296.41,787.335 
  1301.15,794.839 1305.88,801.093 1310.61,807.347 1315.34,812.35 1320.07,817.354 1324.8,818.604 1329.53,819.855 1334.26,827.36 1338.99,829.861 1343.72,832.363 
  1348.45,833.614 1353.18,836.115 1357.91,843.62 1362.65,846.122 1367.38,849.874 1372.11,854.877 1376.84,857.379 1381.57,861.131 1386.3,864.883 1391.03,869.887 
  1395.76,869.887 1400.49,873.639 1405.22,876.141 1409.95,877.391 1414.68,879.893 1419.41,884.896 1424.14,886.147 1428.88,888.648 1433.61,889.899 1438.34,893.652 
  1443.07,899.906 1447.8,904.909 1452.53,904.909 1457.26,906.159 1461.99,907.41 1466.72,908.661 1471.45,909.912 1476.18,914.915 1480.91,916.166 1485.64,917.417 
  1490.38,919.918 1495.11,926.172 1499.84,928.674 1504.57,932.426 1509.3,933.677 1514.03,936.178 1518.76,937.429 1523.49,938.68 1528.22,939.931 1532.95,941.181 
  1537.68,941.181 1542.41,942.432 1547.14,942.432 1551.87,942.432 1556.61,944.934 1561.34,944.934 1566.07,946.185 1570.8,948.686 1575.53,949.937 1580.26,952.439 
  1584.99,956.191 1589.72,957.442 1594.45,959.943 1599.18,961.194 1603.91,962.445 1608.64,967.448 1613.37,968.699 1618.11,968.699 1622.84,968.699 1627.57,971.2 
  1632.3,973.702 1637.03,974.953 1641.76,976.204 1646.49,976.204 1651.22,977.454 1655.95,977.454 1660.68,977.454 1665.41,977.454 1670.14,977.454 1674.87,978.705 
  1679.61,981.207 1684.34,981.207 1689.07,981.207 1693.8,981.207 1698.53,981.207 1703.26,981.207 1707.99,982.457 1712.72,984.959 1717.45,987.461 1722.18,987.461 
  1726.91,988.711 1731.64,988.711 1736.37,988.711 1741.1,989.962 1745.84,993.715 1750.57,993.715 1755.3,993.715 1760.03,994.965 1764.76,996.216 1769.49,996.216 
  1774.22,996.216 1778.95,996.216 1783.68,996.216 1788.41,996.216 1793.14,997.467 1797.87,997.467 1802.6,998.718 1807.34,999.968 1812.07,1001.22 1816.8,1001.22 
  1821.53,1001.22 1826.26,1001.22 1830.99,1002.47 1835.72,1002.47 1840.45,1002.47 1845.18,1002.47 1849.91,1002.47 1854.64,1002.47 1859.37,1002.47 1864.1,1002.47 
  1868.83,1002.47 1873.57,1003.72 1878.3,1003.72 1883.03,1003.72 1887.76,1003.72 1892.49,1003.72 1897.22,1003.72 1901.95,1003.72 1906.68,1004.97 1911.41,1004.97 
  1916.14,1004.97 1920.87,1004.97 1925.6,1007.47 1930.33,1007.47 1935.07,1008.72 1939.8,1008.72 1944.53,1008.72 1949.26,1009.97 1953.99,1009.97 1958.72,1012.48 
  1963.45,1013.73 1968.18,1013.73 1972.91,1013.73 1977.64,1014.98 1982.37,1014.98 1987.1,1016.23 1991.83,1016.23 1996.56,1016.23 2001.3,1016.23 2006.03,1016.23 
  2010.76,1016.23 2015.49,1016.23 2020.22,1016.23 2024.95,1016.23 2029.68,1016.23 2034.41,1016.23 2039.14,1016.23 2043.87,1016.23 2048.6,1016.23 2053.33,1017.48 
  2058.06,1021.23 2062.8,1021.23 2067.53,1021.23 2072.26,1021.23 2076.99,1022.48 2081.72,1022.48 2086.45,1022.48 2091.18,1022.48 2095.91,1024.98 2100.64,1024.98 
  2105.37,1024.98 2110.1,1024.98 2114.83,1026.23 2119.56,1026.23 2124.3,1026.23 2129.03,1026.23 2133.76,1026.23 2138.49,1026.23 2143.22,1026.23 2147.95,1026.23 
  2152.68,1026.23 2157.41,1026.23 2162.14,1026.23 2166.87,1026.23 2171.6,1027.49 2176.33,1028.74 2181.06,1028.74 2185.79,1028.74 2190.53,1028.74 2195.26,1028.74 
  2199.99,1028.74 
  "/>
<polyline clip-path="url(#clip712)" style="stroke:#e26f46; stroke-width:4; stroke-opacity:1; fill:none" points="
  307.689,1310.16 312.42,1308.91 317.15,1311.41 321.881,1311.41 326.612,1311.41 331.343,1310.16 336.073,1308.91 340.804,1308.91 345.535,1310.16 350.266,1310.16 
  354.996,1310.16 359.727,1308.91 364.458,1308.91 369.189,1308.91 373.919,1308.91 378.65,1308.91 383.381,1310.16 388.112,1306.41 392.842,1307.66 397.573,1307.66 
  402.304,1306.41 407.035,1306.41 411.765,1307.66 416.496,1307.66 421.227,1307.66 425.958,1307.66 430.688,1307.66 435.419,1307.66 440.15,1306.41 444.881,1306.41 
  449.611,1307.66 454.342,1307.66 459.073,1306.41 463.804,1305.16 468.534,1305.16 473.265,1302.66 477.996,1302.66 482.726,1301.41 487.457,1302.66 492.188,1302.66 
  496.919,1302.66 501.649,1302.66 506.38,1302.66 511.111,1303.91 515.842,1302.66 520.572,1301.41 525.303,1298.91 530.034,1300.16 534.765,1298.91 539.495,1298.91 
  544.226,1298.91 548.957,1300.16 553.688,1298.91 558.418,1297.66 563.149,1297.66 567.88,1297.66 572.611,1296.4 577.341,1296.4 582.072,1296.4 586.803,1295.15 
  591.534,1295.15 596.264,1293.9 600.995,1291.4 605.726,1290.15 610.457,1288.9 615.187,1288.9 619.918,1288.9 624.649,1285.15 629.38,1286.4 634.11,1285.15 
  638.841,1285.15 643.572,1285.15 648.303,1286.4 653.033,1282.65 657.764,1280.14 662.495,1277.64 667.226,1276.39 671.956,1273.89 676.687,1272.64 681.418,1271.39 
  686.149,1270.14 690.879,1270.14 695.61,1270.14 700.341,1268.89 705.072,1268.89 709.802,1265.14 714.533,1260.13 719.264,1258.88 723.994,1256.38 728.725,1252.63 
  733.456,1250.13 738.187,1250.13 742.917,1250.13 747.648,1247.62 752.379,1245.12 757.11,1248.88 761.84,1252.63 766.571,1246.37 771.302,1238.87 776.033,1238.87 
  780.763,1240.12 785.494,1243.87 790.225,1241.37 794.956,1241.37 799.686,1236.37 804.417,1236.37 809.148,1236.37 813.879,1231.36 818.609,1231.36 823.34,1232.61 
  828.071,1225.11 832.802,1226.36 837.532,1223.86 842.263,1222.61 846.994,1220.11 851.725,1220.11 856.455,1217.61 861.186,1212.6 865.917,1206.35 870.648,1208.85 
  875.378,1200.09 880.109,1200.09 884.84,1203.85 889.571,1196.34 894.301,1195.09 899.032,1188.84 903.763,1188.84 908.494,1190.09 913.224,1183.83 917.955,1185.08 
  922.686,1177.58 927.417,1176.33 932.147,1173.83 936.878,1170.08 941.609,1171.33 946.34,1168.82 951.07,1162.57 955.801,1158.82 960.532,1163.82 965.262,1163.82 
  969.993,1163.82 974.724,1163.82 979.455,1163.82 984.185,1158.82 988.916,1155.07 993.647,1152.56 998.378,1152.56 1003.11,1148.81 1007.84,1152.56 1012.57,1148.81 
  1017.3,1146.31 1022.03,1137.56 1026.76,1133.8 1031.49,1137.56 1036.22,1137.56 1040.95,1135.05 1045.69,1132.55 1050.42,1132.55 1055.15,1123.8 1059.88,1125.05 
  1064.61,1122.55 1069.34,1122.55 1074.07,1115.04 1078.8,1120.04 1083.53,1118.79 1088.26,1117.54 1092.99,1121.29 1097.72,1115.04 1102.45,1111.29 1107.18,1112.54 
  1111.92,1106.29 1116.65,1106.29 1121.38,1108.79 1126.11,1108.79 1130.84,1110.04 1135.57,1101.28 1140.3,1108.79 1145.03,1107.54 1149.76,1100.03 1154.49,1100.03 
  1159.22,1096.28 1163.95,1105.03 1168.68,1103.78 1173.42,1100.03 1178.15,1101.28 1182.88,1108.79 1187.61,1110.04 1192.34,1107.54 1197.07,1113.79 1201.8,1111.29 
  1206.53,1113.79 1211.26,1110.04 1215.99,1110.04 1220.72,1115.04 1225.45,1121.29 1230.18,1120.04 1234.91,1123.8 1239.65,1125.05 1244.38,1127.55 1249.11,1126.3 
  1253.84,1130.05 1258.57,1131.3 1263.3,1131.3 1268.03,1130.05 1272.76,1126.3 1277.49,1128.8 1282.22,1135.05 1286.95,1138.81 1291.68,1142.56 1296.41,1145.06 
  1301.15,1140.06 1305.88,1137.56 1310.61,1135.05 1315.34,1131.3 1320.07,1131.3 1324.8,1135.05 1329.53,1143.81 1334.26,1140.06 1338.99,1143.81 1343.72,1145.06 
  1348.45,1147.56 1353.18,1146.31 1357.91,1142.56 1362.65,1146.31 1367.38,1146.31 1372.11,1145.06 1376.84,1148.81 1381.57,1148.81 1386.3,1150.06 1391.03,1147.56 
  1395.76,1153.82 1400.49,1155.07 1405.22,1156.32 1409.95,1157.57 1414.68,1157.57 1419.41,1158.82 1424.14,1161.32 1428.88,1162.57 1433.61,1163.82 1438.34,1161.32 
  1443.07,1157.57 1447.8,1156.32 1452.53,1160.07 1457.26,1165.07 1461.99,1173.83 1466.72,1175.08 1471.45,1182.58 1476.18,1180.08 1480.91,1183.83 1485.64,1185.08 
  1490.38,1183.83 1495.11,1181.33 1499.84,1180.08 1504.57,1180.08 1509.3,1182.58 1514.03,1182.58 1518.76,1183.83 1523.49,1186.34 1528.22,1192.59 1532.95,1193.84 
  1537.68,1197.59 1542.41,1200.09 1547.14,1202.6 1551.87,1210.1 1556.61,1211.35 1561.34,1213.85 1566.07,1217.61 1570.8,1220.11 1575.53,1220.11 1580.26,1220.11 
  1584.99,1221.36 1589.72,1222.61 1594.45,1221.36 1599.18,1222.61 1603.91,1222.61 1608.64,1222.61 1613.37,1225.11 1618.11,1228.86 1622.84,1230.11 1627.57,1232.61 
  1632.3,1231.36 1637.03,1230.11 1641.76,1231.36 1646.49,1232.61 1651.22,1233.87 1655.95,1236.37 1660.68,1238.87 1665.41,1241.37 1670.14,1245.12 1674.87,1245.12 
  1679.61,1243.87 1684.34,1245.12 1689.07,1247.62 1693.8,1251.38 1698.53,1251.38 1703.26,1252.63 1707.99,1256.38 1712.72,1253.88 1717.45,1251.38 1722.18,1253.88 
  1726.91,1256.38 1731.64,1257.63 1736.37,1260.13 1741.1,1258.88 1745.84,1256.38 1750.57,1257.63 1755.3,1257.63 1760.03,1256.38 1764.76,1256.38 1769.49,1257.63 
  1774.22,1258.88 1778.95,1260.13 1783.68,1260.13 1788.41,1261.38 1793.14,1260.13 1797.87,1261.38 1802.6,1261.38 1807.34,1262.63 1812.07,1265.14 1816.8,1267.64 
  1821.53,1268.89 1826.26,1271.39 1830.99,1271.39 1835.72,1273.89 1840.45,1278.89 1845.18,1280.14 1849.91,1282.65 1854.64,1283.9 1859.37,1283.9 1864.1,1286.4 
  1868.83,1286.4 1873.57,1285.15 1878.3,1285.15 1883.03,1285.15 1887.76,1285.15 1892.49,1285.15 1897.22,1286.4 1901.95,1287.65 1906.68,1287.65 1911.41,1288.9 
  1916.14,1292.65 1920.87,1292.65 1925.6,1290.15 1930.33,1291.4 1935.07,1290.15 1939.8,1290.15 1944.53,1291.4 1949.26,1290.15 1953.99,1290.15 1958.72,1288.9 
  1963.45,1288.9 1968.18,1288.9 1972.91,1288.9 1977.64,1287.65 1982.37,1287.65 1987.1,1288.9 1991.83,1290.15 1996.56,1292.65 2001.3,1292.65 2006.03,1292.65 
  2010.76,1292.65 2015.49,1292.65 2020.22,1295.15 2024.95,1295.15 2029.68,1296.4 2034.41,1296.4 2039.14,1296.4 2043.87,1296.4 2048.6,1297.66 2053.33,1297.66 
  2058.06,1295.15 2062.8,1296.4 2067.53,1297.66 2072.26,1298.91 2076.99,1298.91 2081.72,1298.91 2086.45,1298.91 2091.18,1300.16 2095.91,1298.91 2100.64,1298.91 
  2105.37,1298.91 2110.1,1298.91 2114.83,1298.91 2119.56,1298.91 2124.3,1298.91 2129.03,1298.91 2133.76,1298.91 2138.49,1298.91 2143.22,1301.41 2147.95,1303.91 
  2152.68,1303.91 2157.41,1303.91 2162.14,1305.16 2166.87,1306.41 2171.6,1306.41 2176.33,1305.16 2181.06,1306.41 2185.79,1307.66 2190.53,1308.91 2195.26,1308.91 
  2199.99,1310.16 
  "/>
<polyline clip-path="url(#clip712)" style="stroke:#3da44d; stroke-width:4; stroke-opacity:1; fill:none" points="
  307.689,1322.67 312.42,1322.67 317.15,1320.17 321.881,1320.17 326.612,1318.92 331.343,1318.92 336.073,1318.92 340.804,1318.92 345.535,1317.67 350.266,1317.67 
  354.996,1317.67 359.727,1316.42 364.458,1316.42 369.189,1316.42 373.919,1316.42 378.65,1316.42 383.381,1315.17 388.112,1315.17 392.842,1313.92 397.573,1313.92 
  402.304,1312.67 407.035,1312.67 411.765,1311.41 416.496,1310.16 421.227,1310.16 425.958,1310.16 430.688,1310.16 435.419,1310.16 440.15,1310.16 444.881,1308.91 
  449.611,1306.41 454.342,1306.41 459.073,1306.41 463.804,1305.16 468.534,1305.16 473.265,1305.16 477.996,1305.16 482.726,1305.16 487.457,1303.91 492.188,1303.91 
  496.919,1302.66 501.649,1301.41 506.38,1301.41 511.111,1300.16 515.842,1300.16 520.572,1300.16 525.303,1300.16 530.034,1298.91 534.765,1298.91 539.495,1298.91 
  544.226,1298.91 548.957,1297.66 553.688,1297.66 558.418,1297.66 563.149,1296.4 567.88,1296.4 572.611,1296.4 577.341,1296.4 582.072,1295.15 586.803,1293.9 
  591.534,1293.9 596.264,1292.65 600.995,1292.65 605.726,1292.65 610.457,1291.4 615.187,1291.4 619.918,1290.15 624.649,1290.15 629.38,1288.9 634.11,1287.65 
  638.841,1287.65 643.572,1286.4 648.303,1283.9 653.033,1283.9 657.764,1283.9 662.495,1283.9 667.226,1283.9 671.956,1281.4 676.687,1280.14 681.418,1278.89 
  686.149,1277.64 690.879,1277.64 695.61,1277.64 700.341,1277.64 705.072,1273.89 709.802,1272.64 714.533,1272.64 719.264,1268.89 723.994,1267.64 728.725,1267.64 
  733.456,1266.39 738.187,1262.63 742.917,1261.38 747.648,1260.13 752.379,1258.88 757.11,1255.13 761.84,1248.88 766.571,1247.62 771.302,1245.12 776.033,1243.87 
  780.763,1241.37 785.494,1236.37 790.225,1233.87 794.956,1230.11 799.686,1230.11 804.417,1228.86 809.148,1227.61 813.879,1225.11 818.609,1222.61 823.34,1221.36 
  828.071,1218.86 832.802,1216.35 837.532,1215.1 842.263,1212.6 846.994,1211.35 851.725,1207.6 856.455,1207.6 861.186,1205.1 865.917,1203.85 870.648,1200.09 
  875.378,1200.09 880.109,1197.59 884.84,1190.09 889.571,1188.84 894.301,1186.34 899.032,1186.34 903.763,1182.58 908.494,1178.83 913.224,1173.83 917.955,1168.82 
  922.686,1166.32 927.417,1162.57 932.147,1158.82 936.878,1156.32 941.609,1151.31 946.34,1147.56 951.07,1146.31 955.801,1145.06 960.532,1136.3 965.262,1131.3 
  969.993,1128.8 974.724,1123.8 979.455,1121.29 984.185,1117.54 988.916,1116.29 993.647,1112.54 998.378,1108.79 1003.11,1106.29 1007.84,1100.03 1012.57,1095.03 
  1017.3,1095.03 1022.03,1093.78 1026.76,1093.78 1031.49,1085.02 1036.22,1082.52 1040.95,1080.02 1045.69,1078.77 1050.42,1075.02 1055.15,1073.76 1059.88,1070.01 
  1064.61,1062.51 1069.34,1058.76 1074.07,1057.5 1078.8,1046.25 1083.53,1041.24 1088.26,1034.99 1092.99,1029.99 1097.72,1026.23 1102.45,1023.73 1107.18,1013.73 
  1111.92,1011.23 1116.65,1006.22 1121.38,998.718 1126.11,992.464 1130.84,986.21 1135.57,984.959 1140.3,974.953 1145.03,972.451 1149.76,966.197 1154.49,961.194 
  1159.22,957.442 1163.95,946.185 1168.68,943.683 1173.42,938.68 1178.15,932.426 1182.88,922.42 1187.61,917.417 1192.34,914.915 1197.07,906.159 1201.8,902.407 
  1206.53,893.652 1211.26,888.648 1215.99,888.648 1220.72,879.893 1225.45,871.137 1230.18,867.385 1234.91,861.131 1239.65,853.626 1244.38,846.122 1249.11,843.62 
  1253.84,837.366 1258.57,829.861 1263.3,824.858 1268.03,824.858 1272.76,821.106 1277.49,813.601 1282.22,806.096 1286.95,798.592 1291.68,792.338 1296.41,784.833 
  1301.15,782.332 1305.88,778.579 1310.61,774.827 1315.34,773.576 1320.07,768.573 1324.8,763.57 1329.53,753.563 1334.26,749.811 1338.99,743.557 1343.72,739.805 
  1348.45,736.052 1353.18,734.802 1357.91,731.049 1362.65,724.795 1367.38,721.043 1372.11,717.291 1376.84,711.037 1381.57,707.284 1386.3,702.281 1391.03,699.78 
  1395.76,693.526 1400.49,688.523 1405.22,684.77 1409.95,682.269 1414.68,679.767 1419.41,673.513 1424.14,669.761 1428.88,666.008 1433.61,663.507 1438.34,662.256 
  1443.07,659.754 1447.8,656.002 1452.53,652.25 1457.26,645.996 1461.99,635.989 1466.72,633.488 1471.45,624.732 1476.18,622.231 1480.91,617.228 1485.64,614.726 
  1490.38,613.475 1495.11,609.723 1499.84,608.472 1504.57,604.72 1509.3,600.967 1514.03,598.466 1518.76,595.964 1523.49,592.212 1528.22,584.707 1532.95,582.206 
  1537.68,578.453 1542.41,574.701 1547.14,572.199 1551.87,564.695 1556.61,560.942 1561.34,558.441 1566.07,553.438 1570.8,548.434 1575.53,547.184 1580.26,544.682 
  1584.99,539.679 1589.72,537.177 1594.45,535.927 1599.18,533.425 1603.91,532.174 1608.64,527.171 1613.37,523.419 1618.11,519.666 1622.84,518.416 1627.57,513.412 
  1632.3,512.162 1637.03,512.162 1641.76,509.66 1646.49,508.409 1651.22,505.908 1655.95,503.406 1660.68,500.904 1665.41,498.403 1670.14,494.651 1674.87,493.4 
  1679.61,492.149 1684.34,490.898 1689.07,488.397 1693.8,484.644 1698.53,484.644 1703.26,483.393 1707.99,478.39 1712.72,478.39 1717.45,478.39 1722.18,475.889 
  1726.91,472.136 1731.64,470.886 1736.37,468.384 1741.1,468.384 1745.84,467.133 1750.57,465.882 1755.3,465.882 1760.03,465.882 1764.76,464.632 1769.49,463.381 
  1774.22,462.13 1778.95,460.879 1783.68,460.879 1788.41,459.629 1793.14,459.629 1797.87,458.378 1802.6,457.127 1807.34,454.625 1812.07,450.873 1816.8,448.371 
  1821.53,447.121 1826.26,444.619 1830.99,443.368 1835.72,440.867 1840.45,435.864 1845.18,434.613 1849.91,432.111 1854.64,430.86 1859.37,430.86 1864.1,428.359 
  1868.83,428.359 1873.57,428.359 1878.3,428.359 1883.03,428.359 1887.76,428.359 1892.49,428.359 1897.22,427.108 1901.95,425.857 1906.68,424.606 1911.41,423.356 
  1916.14,419.603 1920.87,419.603 1925.6,419.603 1930.33,418.353 1935.07,418.353 1939.8,418.353 1944.53,417.102 1949.26,417.102 1953.99,417.102 1958.72,415.851 
  1963.45,414.6 1968.18,414.6 1972.91,414.6 1977.64,414.6 1982.37,414.6 1987.1,412.099 1991.83,410.848 1996.56,408.346 2001.3,408.346 2006.03,408.346 
  2010.76,408.346 2015.49,408.346 2020.22,405.845 2024.95,405.845 2029.68,404.594 2034.41,404.594 2039.14,404.594 2043.87,404.594 2048.6,403.343 2053.33,402.092 
  2058.06,400.842 2062.8,399.591 2067.53,398.34 2072.26,397.089 2076.99,395.838 2081.72,395.838 2086.45,395.838 2091.18,394.588 2095.91,393.337 2100.64,393.337 
  2105.37,393.337 2110.1,393.337 2114.83,392.086 2119.56,392.086 2124.3,392.086 2129.03,392.086 2133.76,392.086 2138.49,392.086 2143.22,389.584 2147.95,387.083 
  2152.68,387.083 2157.41,387.083 2162.14,385.832 2166.87,384.581 2171.6,383.331 2176.33,383.331 2181.06,382.08 2185.79,380.829 2190.53,379.578 2195.26,379.578 
  2199.99,378.327 
  "/>
<path clip-path="url(#clip710)" d="
M1930.31 366.924 L2187.64 366.924 L2187.64 125.004 L1930.31 125.004  Z
  " fill="#ffffff" fill-rule="evenodd" fill-opacity="1"/>
<polyline clip-path="url(#clip710)" style="stroke:#000000; stroke-width:4; stroke-opacity:1; fill:none" points="
  1930.31,366.924 2187.64,366.924 2187.64,125.004 1930.31,125.004 1930.31,366.924 
  "/>
<polyline clip-path="url(#clip710)" style="stroke:#009af9; stroke-width:4; stroke-opacity:1; fill:none" points="
  1953.35,185.484 2091.59,185.484 
  "/>
<path clip-path="url(#clip710)" d="M 0 0 M2136.88 169.338 L2136.88 173.899 Q2134.22 172.625 2131.86 172 Q2129.5 171.375 2127.3 171.375 Q2123.48 171.375 2121.39 172.857 Q2119.33 174.338 2119.33 177.07 Q2119.33 179.361 2120.7 180.542 Q2122.09 181.699 2125.93 182.417 L2128.76 182.996 Q2133.99 183.991 2136.46 186.514 Q2138.96 189.014 2138.96 193.227 Q2138.96 198.25 2135.58 200.843 Q2132.23 203.435 2125.72 203.435 Q2123.27 203.435 2120.49 202.88 Q2117.74 202.324 2114.77 201.236 L2114.77 196.422 Q2117.62 198.019 2120.35 198.829 Q2123.08 199.639 2125.72 199.639 Q2129.73 199.639 2131.9 198.065 Q2134.08 196.491 2134.08 193.574 Q2134.08 191.028 2132.51 189.593 Q2130.95 188.158 2127.39 187.44 L2124.54 186.885 Q2119.31 185.843 2116.97 183.621 Q2114.63 181.398 2114.63 177.44 Q2114.63 172.857 2117.85 170.218 Q2121.09 167.579 2126.76 167.579 Q2129.19 167.579 2131.72 168.019 Q2134.24 168.459 2136.88 169.338 Z" fill="#000000" fill-rule="evenodd" fill-opacity="1" /><polyline clip-path="url(#clip710)" style="stroke:#e26f46; stroke-width:4; stroke-opacity:1; fill:none" points="
  1953.35,245.964 2091.59,245.964 
  "/>
<path clip-path="url(#clip710)" d="M 0 0 M2114.63 228.684 L2119.31 228.684 L2119.31 263.244 L2114.63 263.244 L2114.63 228.684 Z" fill="#000000" fill-rule="evenodd" fill-opacity="1" /><polyline clip-path="url(#clip710)" style="stroke:#3da44d; stroke-width:4; stroke-opacity:1; fill:none" points="
  1953.35,306.444 2091.59,306.444 
  "/>
<path clip-path="url(#clip710)" d="M 0 0 M2131.02 307.52 Q2132.53 308.03 2133.94 309.696 Q2135.38 311.363 2136.81 314.28 L2141.56 323.724 L2136.53 323.724 L2132.11 314.858 Q2130.4 311.386 2128.78 310.252 Q2127.18 309.118 2124.4 309.118 L2119.31 309.118 L2119.31 323.724 L2114.63 323.724 L2114.63 289.164 L2125.19 289.164 Q2131.12 289.164 2134.03 291.641 Q2136.95 294.118 2136.95 299.118 Q2136.95 302.382 2135.42 304.534 Q2133.92 306.687 2131.02 307.52 M2119.31 293.007 L2119.31 305.275 L2125.19 305.275 Q2128.57 305.275 2130.28 303.724 Q2132.02 302.15 2132.02 299.118 Q2132.02 296.085 2130.28 294.558 Q2128.57 293.007 2125.19 293.007 L2119.31 293.007 Z" fill="#000000" fill-rule="evenodd" fill-opacity="1" /></svg>
