<?xml version="1.0" encoding="UTF-8" standalone="no"?>
<!DOCTYPE svg PUBLIC "-//W3C//DTD SVG 1.1//EN"
 "http://www.w3.org/Graphics/SVG/1.1/DTD/svg11.dtd">
<!-- Generated by graphviz version 2.43.0 (0)
 -->
<!-- Title: G Pages: 1 -->
<svg width="422pt" height="60pt"
 viewBox="0.00 0.00 421.89 60.00" xmlns="http://www.w3.org/2000/svg" xmlns:xlink="http://www.w3.org/1999/xlink">
<g id="graph0" class="graph" transform="scale(1 1) rotate(0) translate(4 56)">
<title>G</title>
<polygon fill="white" stroke="transparent" points="-4,4 -4,-56 417.89,-56 417.89,4 -4,4"/>
<!-- S_S -->
<g id="node1" class="node">
<title>S_S</title>
<ellipse fill="#6c9ac3" stroke="#6c9ac3" cx="24.7" cy="-26" rx="24.9" ry="24.9"/>
<text text-anchor="middle" x="24.7" y="-22.3" font-family="Times,serif" font-size="14.00">S_S</text>
</g>
<!-- T_inf -->
<g id="node4" class="node">
<title>T_inf</title>
<polygon fill="#e28f41" stroke="#e28f41" points="139.4,-49.5 92.4,-49.5 92.4,-2.5 139.4,-2.5 139.4,-49.5"/>
<text text-anchor="middle" x="115.9" y="-22.3" font-family="Times,serif" font-size="14.00">T_inf</text>
</g>
<!-- S_S&#45;&gt;T_inf -->
<g id="edge1" class="edge">
<title>S_S&#45;&gt;T_inf</title>
<path fill="none" stroke="black" d="M49.6,-26C59.51,-26 71.17,-26 81.87,-26"/>
<polygon fill="black" stroke="black" points="82.16,-29.5 92.16,-26 82.16,-22.5 82.16,-29.5"/>
<text text-anchor="middle" x="70.9" y="-29.8" font-family="Times,serif" font-size="14.00">1</text>
</g>
<!-- S_I -->
<g id="node2" class="node">
<title>S_I</title>
<ellipse fill="#6c9ac3" stroke="#6c9ac3" cx="205.14" cy="-26" rx="23" ry="23"/>
<text text-anchor="middle" x="205.14" y="-22.3" font-family="Times,serif" font-size="14.00">S_I</text>
</g>
<!-- S_I&#45;&gt;T_inf -->
<g id="edge2" class="edge">
<title>S_I&#45;&gt;T_inf</title>
<path fill="none" stroke="black" d="M184.9,-15.3C178.56,-12.33 171.36,-9.5 164.4,-8 159.48,-6.94 154.4,-7.24 149.47,-8.35"/>
<polygon fill="black" stroke="black" points="148.06,-5.13 139.67,-11.6 150.26,-11.78 148.06,-5.13"/>
<text text-anchor="middle" x="160.9" y="-11.8" font-family="Times,serif" font-size="14.00">1</text>
</g>
<!-- T_rec -->
<g id="node5" class="node">
<title>T_rec</title>
<polygon fill="#e28f41" stroke="#e28f41" points="318.89,-50 270.89,-50 270.89,-2 318.89,-2 318.89,-50"/>
<text text-anchor="middle" x="294.89" y="-22.3" font-family="Times,serif" font-size="14.00">T_rec</text>
</g>
<!-- S_I&#45;&gt;T_rec -->
<g id="edge4" class="edge">
<title>S_I&#45;&gt;T_rec</title>
<path fill="none" stroke="black" d="M228.29,-26C238.14,-26 249.94,-26 260.8,-26"/>
<polygon fill="black" stroke="black" points="260.84,-29.5 270.84,-26 260.84,-22.5 260.84,-29.5"/>
<text text-anchor="middle" x="249.39" y="-29.8" font-family="Times,serif" font-size="14.00">1</text>
</g>
<!-- S_R -->
<g id="node3" class="node">
<title>S_R</title>
<ellipse fill="#6c9ac3" stroke="#6c9ac3" cx="387.89" cy="-26" rx="26" ry="26"/>
<text text-anchor="middle" x="387.89" y="-22.3" font-family="Times,serif" font-size="14.00">S_R</text>
</g>
<!-- T_inf&#45;&gt;S_I -->
<g id="edge3" class="edge">
<title>T_inf&#45;&gt;S_I</title>
<path fill="none" stroke="black" d="M139.82,-26C149.66,-26 161.34,-26 172.03,-26"/>
<polygon fill="black" stroke="black" points="172.28,-29.5 182.28,-26 172.27,-22.5 172.28,-29.5"/>
<text text-anchor="middle" x="160.9" y="-29.8" font-family="Times,serif" font-size="14.00">2</text>
</g>
<!-- T_rec&#45;&gt;S_R -->
<g id="edge5" class="edge">
<title>T_rec&#45;&gt;S_R</title>
<path fill="none" stroke="black" d="M319.33,-26C329.14,-26 340.77,-26 351.58,-26"/>
<polygon fill="black" stroke="black" points="351.62,-29.5 361.62,-26 351.62,-22.5 351.62,-29.5"/>
<text text-anchor="middle" x="340.39" y="-29.8" font-family="Times,serif" font-size="14.00">1</text>
</g>
</g>
</svg>
