<?xml version="1.0" encoding="UTF-8" standalone="no"?>
<!DOCTYPE svg PUBLIC "-//W3C//DTD SVG 1.1//EN"
 "http://www.w3.org/Graphics/SVG/1.1/DTD/svg11.dtd">
<!-- Generated by graphviz version 2.50.0 (20211204.2007)
 -->
<!-- Title: G Pages: 1 -->
<svg width="380pt" height="44pt"
 viewBox="0.00 0.00 380.17 44.00" xmlns="http://www.w3.org/2000/svg" xmlns:xlink="http://www.w3.org/1999/xlink">
<g id="graph0" class="graph" transform="scale(1 1) rotate(0) translate(4 40)">
<title>G</title>
<polygon fill="white" stroke="transparent" points="-4,4 -4,-40 376.17,-40 376.17,4 -4,4"/>
<!-- S -->
<g id="node1" class="node">
<title>S</title>
<polygon fill="#9aceeb" stroke="black" points="36,-36 0,-36 0,0 36,0 36,-36"/>
<text text-anchor="middle" x="18" y="-13.8" font-family="Times,serif" font-size="14.00">S</text>
</g>
<!-- fn_Infection -->
<g id="node4" class="node">
<title>fn_Infection</title>
<polygon fill="#9aceeb" stroke="#9aceeb" points="76.5,-11 80,-21.5 73,-21.5 76.5,-11"/>
</g>
<!-- S&#45;&gt;fn_Infection -->
<g id="edge1" class="edge">
<title>S&#45;&gt;fn_Infection</title>
<path fill="none" stroke="black" d="M36.08,-9.73C50.95,-8.41 70.09,-9.84 75.85,-14.56"/>
<path fill="none" stroke="transparent" d="M36.26,-11.73C50.8,-10.4 69.94,-11.84 74.5,-16.03"/>
<path fill="none" stroke="black" d="M36.44,-13.72C50.65,-12.4 69.79,-13.83 73.14,-17.5"/>
</g>
<!-- S&#45;&gt;fn_Infection -->
<g id="edge5" class="edge">
<title>S&#45;&gt;fn_Infection</title>
<path fill="none" stroke="black" d="M36.26,-24.27C44.95,-25.06 55.28,-24.87 63.16,-23.69"/>
<polygon fill="black" stroke="black" points="64.21,-27.03 72.94,-21.02 62.37,-20.28 64.21,-27.03"/>
</g>
<!-- I -->
<g id="node2" class="node">
<title>I</title>
<polygon fill="#9aceeb" stroke="black" points="202.53,-36 166.53,-36 166.53,0 202.53,0 202.53,-36"/>
<text text-anchor="middle" x="184.53" y="-13.8" font-family="Times,serif" font-size="14.00">I</text>
</g>
<!-- I&#45;&gt;fn_Infection -->
<g id="edge6" class="edge">
<title>I&#45;&gt;fn_Infection</title>
<path fill="none" stroke="black" d="M166.45,-16.83C160.75,-16.49 154.37,-16.17 148.53,-16 126.08,-15.36 120.43,-14.91 98,-16 95.1,-16.14 91.97,-16.39 89.06,-16.67"/>
<polygon fill="black" stroke="black" points="88.54,-13.21 78.99,-17.8 89.32,-20.17 88.54,-13.21"/>
</g>
<!-- fn_Recovery -->
<g id="node5" class="node">
<title>fn_Recovery</title>
<polygon fill="#9aceeb" stroke="#9aceeb" points="243.03,-11 246.53,-21.5 239.53,-21.5 243.03,-11"/>
</g>
<!-- I&#45;&gt;fn_Recovery -->
<g id="edge3" class="edge">
<title>I&#45;&gt;fn_Recovery</title>
<path fill="none" stroke="black" d="M202.61,-9.73C217.48,-8.41 236.62,-9.84 242.38,-14.56"/>
<path fill="none" stroke="transparent" d="M202.79,-11.73C217.33,-10.4 236.47,-11.84 241.03,-16.03"/>
<path fill="none" stroke="black" d="M202.97,-13.72C217.18,-12.4 236.32,-13.83 239.67,-17.5"/>
</g>
<!-- I&#45;&gt;fn_Recovery -->
<g id="edge7" class="edge">
<title>I&#45;&gt;fn_Recovery</title>
<path fill="none" stroke="black" d="M202.79,-24.27C211.48,-25.06 221.81,-24.87 229.69,-23.69"/>
<polygon fill="black" stroke="black" points="230.74,-27.03 239.47,-21.02 228.9,-20.28 230.74,-27.03"/>
</g>
<!-- R -->
<g id="node3" class="node">
<title>R</title>
<polygon fill="#9aceeb" stroke="black" points="372.17,-36 336.17,-36 336.17,0 372.17,0 372.17,-36"/>
<text text-anchor="middle" x="354.17" y="-13.8" font-family="Times,serif" font-size="14.00">R</text>
</g>
<!-- fn_Infection&#45;&gt;I -->
<g id="edge2" class="edge">
<title>fn_Infection&#45;&gt;I</title>
<path fill="none" stroke="black" d="M79,-16C87.3,-16 128.29,-16 156.41,-16"/>
<path fill="none" stroke="transparent" d="M79,-18C87.3,-18 128.29,-18 156.41,-18"/>
<path fill="none" stroke="black" d="M79,-20C87.3,-20 128.29,-20 156.41,-20"/>
<polygon fill="black" stroke="black" points="156.46,-21.5 166.46,-18 156.46,-14.5 156.46,-21.5"/>
<text text-anchor="middle" x="123.27" y="-22.2" font-family="Times,serif" font-size="14.00">Infection</text>
</g>
<!-- fn_Recovery&#45;&gt;R -->
<g id="edge4" class="edge">
<title>fn_Recovery&#45;&gt;R</title>
<path fill="none" stroke="black" d="M245.57,-16C254.17,-16 296.77,-16 325.72,-16"/>
<path fill="none" stroke="transparent" d="M245.57,-18C254.17,-18 296.77,-18 325.72,-18"/>
<path fill="none" stroke="black" d="M245.57,-20C254.17,-20 296.77,-20 325.72,-20"/>
<polygon fill="black" stroke="black" points="326.05,-21.5 336.05,-18 326.05,-14.5 326.05,-21.5"/>
<text text-anchor="middle" x="291.35" y="-22.2" font-family="Times,serif" font-size="14.00">Recovery</text>
</g>
</g>
</svg>
