<?xml version="1.0" encoding="UTF-8" standalone="no"?>
<!DOCTYPE svg PUBLIC "-//W3C//DTD SVG 1.1//EN"
 "http://www.w3.org/Graphics/SVG/1.1/DTD/svg11.dtd">
<!-- Generated by graphviz version 2.50.0 (20211204.2007)
 -->
<!-- Title: G Pages: 1 -->
<svg width="535pt" height="148pt"
 viewBox="0.00 0.00 534.72 148.00" xmlns="http://www.w3.org/2000/svg" xmlns:xlink="http://www.w3.org/1999/xlink">
<g id="graph0" class="graph" transform="scale(1 1) rotate(0) translate(4 144)">
<title>G</title>
<polygon fill="white" stroke="transparent" points="-4,4 -4,-144 530.72,-144 530.72,4 -4,4"/>
<!-- n1 -->
<g id="node1" class="node">
<title>n1</title>
<text text-anchor="middle" x="27" y="-60.8" font-family="Times,serif" font-size="14.00">S</text>
</g>
<!-- n4 -->
<g id="node4" class="node">
<title>n4</title>
<text text-anchor="middle" x="122.88" y="-60.8" font-family="Times,serif" font-size="14.00">infection</text>
</g>
<!-- n1&#45;&gt;n4 -->
<g id="edge5" class="edge">
<title>n1&#45;&gt;n4</title>
<path fill="none" stroke="blue" d="M54.15,-58.88C62.11,-58.36 71.06,-58.17 79.79,-58.28"/>
<polygon fill="blue" stroke="blue" points="79.76,-61.78 89.85,-58.56 79.96,-54.79 79.76,-61.78"/>
</g>
<!-- n6 -->
<g id="node6" class="node">
<title>n6</title>
<text text-anchor="middle" x="499.72" y="-52.8" font-family="Times,serif" font-size="14.00">N</text>
</g>
<!-- n1&#45;&gt;n6 -->
<g id="edge1" class="edge">
<title>n1&#45;&gt;n6</title>
<path fill="none" stroke="blue" d="M54.06,-49.92C89.76,-30.72 156.47,0 217.76,0 217.76,0 217.76,0 315.24,0 368.67,0 427.08,-22.32 463.31,-39.02"/>
<polygon fill="blue" stroke="blue" points="461.94,-42.24 472.47,-43.35 464.92,-35.91 461.94,-42.24"/>
</g>
<!-- n2 -->
<g id="node2" class="node">
<title>n2</title>
<text text-anchor="middle" x="218.76" y="-79.8" font-family="Times,serif" font-size="14.00">I</text>
</g>
<!-- n2&#45;&gt;n4 -->
<g id="edge6" class="edge">
<title>n2&#45;&gt;n4</title>
<path fill="none" stroke="blue" d="M191.62,-84.83C183.52,-83.72 174.39,-82.06 165.51,-80.14"/>
<polygon fill="blue" stroke="blue" points="166.19,-76.7 155.66,-77.86 164.62,-83.52 166.19,-76.7"/>
</g>
<!-- n5 -->
<g id="node5" class="node">
<title>n5</title>
<text text-anchor="middle" x="314.24" y="-117.8" font-family="Times,serif" font-size="14.00">recovery</text>
</g>
<!-- n2&#45;&gt;n5 -->
<g id="edge7" class="edge">
<title>n2&#45;&gt;n5</title>
<path fill="none" stroke="blue" d="M245.8,-88.46C254.89,-91.57 265.29,-95.62 275.15,-99.87"/>
<polygon fill="blue" stroke="blue" points="273.83,-103.11 284.39,-103.98 276.67,-96.72 273.83,-103.11"/>
</g>
<!-- n2&#45;&gt;n6 -->
<g id="edge2" class="edge">
<title>n2&#45;&gt;n6</title>
<path fill="none" stroke="blue" d="M246,-81.46C296.06,-76.62 405.25,-66.05 462.32,-60.52"/>
<polygon fill="blue" stroke="blue" points="462.73,-64 472.35,-59.55 462.06,-57.03 462.73,-64"/>
</g>
<!-- n3 -->
<g id="node3" class="node">
<title>n3</title>
<text text-anchor="middle" x="409.72" y="-117.8" font-family="Times,serif" font-size="14.00">R</text>
</g>
<!-- n3&#45;&gt;n6 -->
<g id="edge3" class="edge">
<title>n3&#45;&gt;n6</title>
<path fill="none" stroke="blue" d="M435.24,-103.89C444.77,-96.85 455.84,-88.68 466.04,-81.15"/>
<polygon fill="blue" stroke="blue" points="468.38,-83.77 474.34,-75.01 464.22,-78.14 468.38,-83.77"/>
</g>
<!-- n4&#45;&gt;n1 -->
<g id="edge10" class="edge">
<title>n4&#45;&gt;n1</title>
<path fill="none" stroke="blue" d="M89.85,-71.44C81.58,-71.8 72.62,-71.85 64.15,-71.59"/>
<polygon fill="blue" stroke="blue" points="64.3,-68.09 54.15,-71.12 63.98,-75.08 64.3,-68.09"/>
</g>
<!-- n4&#45;&gt;n2 -->
<g id="edge8" class="edge">
<title>n4&#45;&gt;n2</title>
<path fill="none" stroke="blue" d="M155.66,-65.01C164.07,-66.34 173.21,-68.14 181.83,-70.15"/>
<polygon fill="blue" stroke="blue" points="181.07,-73.56 191.62,-72.59 182.77,-66.77 181.07,-73.56"/>
</g>
<!-- n5&#45;&gt;n2 -->
<g id="edge11" class="edge">
<title>n5&#45;&gt;n2</title>
<path fill="none" stroke="blue" d="M281.69,-115.6C273.12,-112.5 263.78,-108.75 255.02,-104.9"/>
<polygon fill="blue" stroke="blue" points="256.35,-101.66 245.8,-100.71 253.45,-108.03 256.35,-101.66"/>
</g>
<!-- n5&#45;&gt;n3 -->
<g id="edge9" class="edge">
<title>n5&#45;&gt;n3</title>
<path fill="none" stroke="blue" d="M346.89,-122C355.18,-122 364.17,-122 372.66,-122"/>
<polygon fill="blue" stroke="blue" points="372.7,-125.5 382.7,-122 372.7,-118.5 372.7,-125.5"/>
</g>
<!-- n6&#45;&gt;n4 -->
<g id="edge4" class="edge">
<title>n6&#45;&gt;n4</title>
<path fill="none" stroke="blue" d="M472.41,-55.96C419.3,-54.1 295.5,-50.91 191.76,-57 183.42,-57.49 174.54,-58.31 166.04,-59.25"/>
<polygon fill="blue" stroke="blue" points="165.45,-55.8 155.92,-60.44 166.26,-62.75 165.45,-55.8"/>
</g>
</g>
</svg>
