<?xml version="1.0" encoding="UTF-8" standalone="no"?>
<!DOCTYPE svg PUBLIC "-//W3C//DTD SVG 1.1//EN"
 "http://www.w3.org/Graphics/SVG/1.1/DTD/svg11.dtd">
<!-- Generated by graphviz version 2.50.0 (20211204.2007)
 -->
<!-- Title: G Pages: 1 -->
<svg width="592pt" height="148pt"
 viewBox="0.00 0.00 592.47 148.00" xmlns="http://www.w3.org/2000/svg" xmlns:xlink="http://www.w3.org/1999/xlink">
<g id="graph0" class="graph" transform="scale(1 1) rotate(0) translate(4 144)">
<title>G</title>
<polygon fill="white" stroke="transparent" points="-4,4 -4,-144 588.47,-144 588.47,4 -4,4"/>
<!-- s1 -->
<g id="node1" class="node">
<title>s1</title>
<polygon fill="#9aceeb" stroke="black" points="36,-72 0,-72 0,-36 36,-36 36,-72"/>
<text text-anchor="middle" x="18" y="-49.8" font-family="Times,serif" font-size="14.00">S</text>
</g>
<!-- v1 -->
<g id="node4" class="node">
<title>v1</title>
<text text-anchor="middle" x="112.88" y="-49.8" font-family="Times,serif" font-size="14.00">v_infection</text>
</g>
<!-- s1&#45;&gt;v1 -->
<g id="edge1" class="edge">
<title>s1&#45;&gt;v1</title>
<path fill="none" stroke="black" d="M35.82,-46.65C46.34,-45.49 60.03,-45.06 73.03,-45.33"/>
<path fill="none" stroke="transparent" d="M36.04,-48.64C46.4,-47.49 60.1,-47.05 72.99,-47.33"/>
<path fill="none" stroke="black" d="M36.26,-50.62C46.47,-49.49 60.16,-49.05 72.95,-49.33"/>
</g>
<!-- s1&#45;&gt;v1 -->
<g id="edge6" class="edge">
<title>s1&#45;&gt;v1</title>
<path fill="none" stroke="black" d="M36.04,-59.36C43.73,-60.21 53.26,-60.67 62.93,-60.74"/>
<polygon fill="black" stroke="black" points="63.02,-64.24 72.99,-60.67 62.97,-57.24 63.02,-64.24"/>
</g>
<!-- sv1 -->
<g id="node6" class="node">
<title>sv1</title>
<ellipse fill="cornflowerblue" stroke="black" cx="566.46" cy="-57" rx="18.02" ry="18.02"/>
<text text-anchor="middle" x="566.46" y="-52.8" font-family="Times,serif" font-size="14.00">N</text>
</g>
<!-- s1&#45;&gt;sv1 -->
<g id="edge8" class="edge">
<title>s1&#45;&gt;sv1</title>
<path fill="none" stroke="black" d="M36.13,-36.62C53.58,-20.83 82.22,0 111.88,0 111.88,0 111.88,0 494.45,0 517.12,0 536.68,-17.89 549.5,-33.63"/>
<polygon fill="black" stroke="black" points="547.05,-36.2 555.9,-42.02 552.62,-31.95 547.05,-36.2"/>
</g>
<!-- s2 -->
<g id="node2" class="node">
<title>s2</title>
<polygon fill="#9aceeb" stroke="black" points="274.52,-114 238.52,-114 238.52,-78 274.52,-78 274.52,-114"/>
<text text-anchor="middle" x="256.52" y="-91.8" font-family="Times,serif" font-size="14.00">I</text>
</g>
<!-- s2&#45;&gt;v1 -->
<g id="edge7" class="edge">
<title>s2&#45;&gt;v1</title>
<path fill="none" stroke="black" d="M238.17,-85.32C232.68,-82.29 226.48,-79.21 220.52,-77 202.16,-70.2 181.24,-65.14 162.83,-61.52"/>
<polygon fill="black" stroke="black" points="163.36,-58.06 152.88,-59.66 162.07,-64.94 163.36,-58.06"/>
</g>
<!-- v2 -->
<g id="node5" class="node">
<title>v2</title>
<text text-anchor="middle" x="351" y="-117.8" font-family="Times,serif" font-size="14.00">v_recovery</text>
</g>
<!-- s2&#45;&gt;v2 -->
<g id="edge3" class="edge">
<title>s2&#45;&gt;v2</title>
<path fill="none" stroke="black" d="M275.25,-93.51C285.65,-95.31 299.06,-98.66 311.8,-102.51"/>
<path fill="none" stroke="transparent" d="M274.91,-95.48C285.17,-97.25 298.58,-100.6 311.22,-104.43"/>
<path fill="none" stroke="black" d="M274.57,-97.45C284.68,-99.19 298.09,-102.54 310.64,-106.34"/>
</g>
<!-- s2&#45;&gt;v2 -->
<g id="edge5" class="edge">
<title>s2&#45;&gt;v2</title>
<path fill="none" stroke="black" d="M274.91,-106.3C282.52,-109.26 291.87,-112.34 301.36,-115.07"/>
<polygon fill="black" stroke="black" points="300.65,-118.5 311.22,-117.77 302.5,-111.75 300.65,-118.5"/>
</g>
<!-- s2&#45;&gt;sv1 -->
<g id="edge9" class="edge">
<title>s2&#45;&gt;sv1</title>
<path fill="none" stroke="black" d="M274.96,-93.79C326.09,-87.32 475.92,-68.34 538.02,-60.48"/>
<polygon fill="black" stroke="black" points="538.73,-63.91 548.21,-59.18 537.85,-56.97 538.73,-63.91"/>
</g>
<!-- s3 -->
<g id="node3" class="node">
<title>s3</title>
<polygon fill="#9aceeb" stroke="black" points="511.45,-140 475.45,-140 475.45,-104 511.45,-104 511.45,-140"/>
<text text-anchor="middle" x="493.45" y="-117.8" font-family="Times,serif" font-size="14.00">R</text>
</g>
<!-- s3&#45;&gt;sv1 -->
<g id="edge10" class="edge">
<title>s3&#45;&gt;sv1</title>
<path fill="none" stroke="black" d="M511.75,-106.8C517.71,-101.52 524.4,-95.53 530.45,-90 535.38,-85.48 540.65,-80.57 545.57,-75.94"/>
<polygon fill="black" stroke="black" points="548.04,-78.42 552.9,-69 543.23,-73.33 548.04,-78.42"/>
</g>
<!-- v1&#45;&gt;s2 -->
<g id="edge2" class="edge">
<title>v1&#45;&gt;s2</title>
<path fill="none" stroke="black" d="M153.55,-66.31C159.48,-68.33 165.57,-70.33 171.34,-72.09 190.34,-77.88 212.14,-83.52 228.83,-87.62"/>
<path fill="none" stroke="transparent" d="M152.9,-68.21C158.86,-70.23 164.95,-72.23 170.76,-74 189.84,-79.82 211.64,-85.46 228.35,-89.57"/>
<path fill="none" stroke="black" d="M152.26,-70.1C158.23,-72.13 164.33,-74.13 170.18,-75.91 189.34,-81.76 211.14,-87.39 227.87,-91.51"/>
<polygon fill="black" stroke="black" points="227.97,-93.08 238.51,-92.03 229.62,-86.27 227.97,-93.08"/>
<text text-anchor="middle" x="195.64" y="-91.2" font-family="Times,serif" font-size="14.00">infection</text>
</g>
<!-- v2&#45;&gt;s3 -->
<g id="edge4" class="edge">
<title>v2&#45;&gt;s3</title>
<path fill="none" stroke="black" d="M390.75,-120C414.4,-120 444.05,-120 465.22,-120"/>
<path fill="none" stroke="transparent" d="M390.75,-122C414.4,-122 444.05,-122 465.22,-122"/>
<path fill="none" stroke="black" d="M390.75,-124C414.4,-124 444.05,-124 465.22,-124"/>
<polygon fill="black" stroke="black" points="465.44,-125.5 475.44,-122 465.44,-118.5 465.44,-125.5"/>
<text text-anchor="middle" x="432.97" y="-126.2" font-family="Times,serif" font-size="14.00">recovery</text>
</g>
<!-- sv1&#45;&gt;v1 -->
<g id="edge11" class="edge">
<title>sv1&#45;&gt;v1</title>
<path fill="none" stroke="black" d="M549.71,-50.25C535.53,-44.79 513.97,-38 494.45,-38 255.52,-38 255.52,-38 255.52,-38 224.58,-38 190.08,-41.82 162.87,-45.72"/>
<polygon fill="black" stroke="black" points="162.2,-42.28 152.82,-47.21 163.23,-49.21 162.2,-42.28"/>
</g>
</g>
</svg>
