<?xml version="1.0" encoding="utf-8"?>
<svg xmlns="http://www.w3.org/2000/svg" xmlns:xlink="http://www.w3.org/1999/xlink" width="576" height="384" viewBox="0 0 2304 1536">
<defs>
  <clipPath id="clip060">
    <rect x="0" y="0" width="2304" height="1536"/>
  </clipPath>
</defs>
<path clip-path="url(#clip060)" d="M0 1536 L2304 1536 L2304 0 L0 0  Z" fill="#ffffff" fill-rule="evenodd" fill-opacity="1"/>
<defs>
  <clipPath id="clip061">
    <rect x="460" y="0" width="1614" height="1536"/>
  </clipPath>
</defs>
<path clip-path="url(#clip060)" d="M261.591 1359.82 L2256.76 1359.82 L2256.76 47.2441 L261.591 47.2441  Z" fill="#ffffff" fill-rule="evenodd" fill-opacity="1"/>
<defs>
  <clipPath id="clip062">
    <rect x="261" y="47" width="1996" height="1314"/>
  </clipPath>
</defs>
<polyline clip-path="url(#clip062)" style="stroke:#000000; stroke-linecap:round; stroke-linejoin:round; stroke-width:2; stroke-opacity:0.1; fill:none" points="318.058,1359.82 318.058,47.2441 "/>
<polyline clip-path="url(#clip062)" style="stroke:#000000; stroke-linecap:round; stroke-linejoin:round; stroke-width:2; stroke-opacity:0.1; fill:none" points="788.616,1359.82 788.616,47.2441 "/>
<polyline clip-path="url(#clip062)" style="stroke:#000000; stroke-linecap:round; stroke-linejoin:round; stroke-width:2; stroke-opacity:0.1; fill:none" points="1259.17,1359.82 1259.17,47.2441 "/>
<polyline clip-path="url(#clip062)" style="stroke:#000000; stroke-linecap:round; stroke-linejoin:round; stroke-width:2; stroke-opacity:0.1; fill:none" points="1729.73,1359.82 1729.73,47.2441 "/>
<polyline clip-path="url(#clip062)" style="stroke:#000000; stroke-linecap:round; stroke-linejoin:round; stroke-width:2; stroke-opacity:0.1; fill:none" points="2200.29,1359.82 2200.29,47.2441 "/>
<polyline clip-path="url(#clip060)" style="stroke:#000000; stroke-linecap:round; stroke-linejoin:round; stroke-width:4; stroke-opacity:1; fill:none" points="261.591,1359.82 2256.76,1359.82 "/>
<polyline clip-path="url(#clip060)" style="stroke:#000000; stroke-linecap:round; stroke-linejoin:round; stroke-width:4; stroke-opacity:1; fill:none" points="318.058,1359.82 318.058,1340.92 "/>
<polyline clip-path="url(#clip060)" style="stroke:#000000; stroke-linecap:round; stroke-linejoin:round; stroke-width:4; stroke-opacity:1; fill:none" points="788.616,1359.82 788.616,1340.92 "/>
<polyline clip-path="url(#clip060)" style="stroke:#000000; stroke-linecap:round; stroke-linejoin:round; stroke-width:4; stroke-opacity:1; fill:none" points="1259.17,1359.82 1259.17,1340.92 "/>
<polyline clip-path="url(#clip060)" style="stroke:#000000; stroke-linecap:round; stroke-linejoin:round; stroke-width:4; stroke-opacity:1; fill:none" points="1729.73,1359.82 1729.73,1340.92 "/>
<polyline clip-path="url(#clip060)" style="stroke:#000000; stroke-linecap:round; stroke-linejoin:round; stroke-width:4; stroke-opacity:1; fill:none" points="2200.29,1359.82 2200.29,1340.92 "/>
<path clip-path="url(#clip060)" d="M318.058 1389.97 Q314.447 1389.97 312.618 1393.54 Q310.813 1397.08 310.813 1404.21 Q310.813 1411.31 312.618 1414.88 Q314.447 1418.42 318.058 1418.42 Q321.692 1418.42 323.498 1414.88 Q325.327 1411.31 325.327 1404.21 Q325.327 1397.08 323.498 1393.54 Q321.692 1389.97 318.058 1389.97 M318.058 1386.27 Q323.868 1386.27 326.924 1390.87 Q330.003 1395.46 330.003 1404.21 Q330.003 1412.93 326.924 1417.54 Q323.868 1422.12 318.058 1422.12 Q312.248 1422.12 309.169 1417.54 Q306.114 1412.93 306.114 1404.21 Q306.114 1395.46 309.169 1390.87 Q312.248 1386.27 318.058 1386.27 Z" fill="#000000" fill-rule="evenodd" fill-opacity="1" /><path clip-path="url(#clip060)" d="M763.303 1417.52 L770.942 1417.52 L770.942 1391.15 L762.632 1392.82 L762.632 1388.56 L770.896 1386.89 L775.572 1386.89 L775.572 1417.52 L783.211 1417.52 L783.211 1421.45 L763.303 1421.45 L763.303 1417.52 Z" fill="#000000" fill-rule="evenodd" fill-opacity="1" /><path clip-path="url(#clip060)" d="M802.655 1389.97 Q799.044 1389.97 797.215 1393.54 Q795.41 1397.08 795.41 1404.21 Q795.41 1411.31 797.215 1414.88 Q799.044 1418.42 802.655 1418.42 Q806.289 1418.42 808.095 1414.88 Q809.924 1411.31 809.924 1404.21 Q809.924 1397.08 808.095 1393.54 Q806.289 1389.97 802.655 1389.97 M802.655 1386.27 Q808.465 1386.27 811.521 1390.87 Q814.6 1395.46 814.6 1404.21 Q814.6 1412.93 811.521 1417.54 Q808.465 1422.12 802.655 1422.12 Q796.845 1422.12 793.766 1417.54 Q790.711 1412.93 790.711 1404.21 Q790.711 1395.46 793.766 1390.87 Q796.845 1386.27 802.655 1386.27 Z" fill="#000000" fill-rule="evenodd" fill-opacity="1" /><path clip-path="url(#clip060)" d="M1237.95 1417.52 L1254.27 1417.52 L1254.27 1421.45 L1232.32 1421.45 L1232.32 1417.52 Q1234.98 1414.76 1239.57 1410.13 Q1244.17 1405.48 1245.35 1404.14 Q1247.6 1401.61 1248.48 1399.88 Q1249.38 1398.12 1249.38 1396.43 Q1249.38 1393.67 1247.44 1391.94 Q1245.52 1390.2 1242.41 1390.2 Q1240.22 1390.2 1237.76 1390.97 Q1235.33 1391.73 1232.55 1393.28 L1232.55 1388.56 Q1235.38 1387.42 1237.83 1386.85 Q1240.28 1386.27 1242.32 1386.27 Q1247.69 1386.27 1250.89 1388.95 Q1254.08 1391.64 1254.08 1396.13 Q1254.08 1398.26 1253.27 1400.18 Q1252.48 1402.08 1250.38 1404.67 Q1249.8 1405.34 1246.7 1408.56 Q1243.59 1411.75 1237.95 1417.52 Z" fill="#000000" fill-rule="evenodd" fill-opacity="1" /><path clip-path="url(#clip060)" d="M1274.08 1389.97 Q1270.47 1389.97 1268.64 1393.54 Q1266.84 1397.08 1266.84 1404.21 Q1266.84 1411.31 1268.64 1414.88 Q1270.47 1418.42 1274.08 1418.42 Q1277.72 1418.42 1279.52 1414.88 Q1281.35 1411.31 1281.35 1404.21 Q1281.35 1397.08 1279.52 1393.54 Q1277.72 1389.97 1274.08 1389.97 M1274.08 1386.27 Q1279.89 1386.27 1282.95 1390.87 Q1286.03 1395.46 1286.03 1404.21 Q1286.03 1412.93 1282.95 1417.54 Q1279.89 1422.12 1274.08 1422.12 Q1268.27 1422.12 1265.19 1417.54 Q1262.14 1412.93 1262.14 1404.21 Q1262.14 1395.46 1265.19 1390.87 Q1268.27 1386.27 1274.08 1386.27 Z" fill="#000000" fill-rule="evenodd" fill-opacity="1" /><path clip-path="url(#clip060)" d="M1718.57 1402.82 Q1721.93 1403.54 1723.81 1405.8 Q1725.7 1408.07 1725.7 1411.41 Q1725.7 1416.52 1722.19 1419.32 Q1718.67 1422.12 1712.19 1422.12 Q1710.01 1422.12 1707.69 1421.68 Q1705.4 1421.27 1702.95 1420.41 L1702.95 1415.9 Q1704.89 1417.03 1707.21 1417.61 Q1709.52 1418.19 1712.05 1418.19 Q1716.44 1418.19 1718.74 1416.45 Q1721.05 1414.72 1721.05 1411.41 Q1721.05 1408.35 1718.9 1406.64 Q1716.77 1404.9 1712.95 1404.9 L1708.92 1404.9 L1708.92 1401.06 L1713.13 1401.06 Q1716.58 1401.06 1718.41 1399.69 Q1720.24 1398.3 1720.24 1395.71 Q1720.24 1393.05 1718.34 1391.64 Q1716.47 1390.2 1712.95 1390.2 Q1711.03 1390.2 1708.83 1390.62 Q1706.63 1391.04 1703.99 1391.91 L1703.99 1387.75 Q1706.65 1387.01 1708.97 1386.64 Q1711.31 1386.27 1713.37 1386.27 Q1718.69 1386.27 1721.79 1388.7 Q1724.89 1391.1 1724.89 1395.23 Q1724.89 1398.1 1723.25 1400.09 Q1721.61 1402.05 1718.57 1402.82 Z" fill="#000000" fill-rule="evenodd" fill-opacity="1" /><path clip-path="url(#clip060)" d="M1744.57 1389.97 Q1740.96 1389.97 1739.13 1393.54 Q1737.32 1397.08 1737.32 1404.21 Q1737.32 1411.31 1739.13 1414.88 Q1740.96 1418.42 1744.57 1418.42 Q1748.2 1418.42 1750.01 1414.88 Q1751.84 1411.31 1751.84 1404.21 Q1751.84 1397.08 1750.01 1393.54 Q1748.2 1389.97 1744.57 1389.97 M1744.57 1386.27 Q1750.38 1386.27 1753.43 1390.87 Q1756.51 1395.46 1756.51 1404.21 Q1756.51 1412.93 1753.43 1417.54 Q1750.38 1422.12 1744.57 1422.12 Q1738.76 1422.12 1735.68 1417.54 Q1732.62 1412.93 1732.62 1404.21 Q1732.62 1395.46 1735.68 1390.87 Q1738.76 1386.27 1744.57 1386.27 Z" fill="#000000" fill-rule="evenodd" fill-opacity="1" /><path clip-path="url(#clip060)" d="M2188.46 1390.97 L2176.65 1409.41 L2188.46 1409.41 L2188.46 1390.97 M2187.23 1386.89 L2193.11 1386.89 L2193.11 1409.41 L2198.04 1409.41 L2198.04 1413.3 L2193.11 1413.3 L2193.11 1421.45 L2188.46 1421.45 L2188.46 1413.3 L2172.86 1413.3 L2172.86 1408.79 L2187.23 1386.89 Z" fill="#000000" fill-rule="evenodd" fill-opacity="1" /><path clip-path="url(#clip060)" d="M2215.78 1389.97 Q2212.16 1389.97 2210.34 1393.54 Q2208.53 1397.08 2208.53 1404.21 Q2208.53 1411.31 2210.34 1414.88 Q2212.16 1418.42 2215.78 1418.42 Q2219.41 1418.42 2221.21 1414.88 Q2223.04 1411.31 2223.04 1404.21 Q2223.04 1397.08 2221.21 1393.54 Q2219.41 1389.97 2215.78 1389.97 M2215.78 1386.27 Q2221.59 1386.27 2224.64 1390.87 Q2227.72 1395.46 2227.72 1404.21 Q2227.72 1412.93 2224.64 1417.54 Q2221.59 1422.12 2215.78 1422.12 Q2209.96 1422.12 2206.89 1417.54 Q2203.83 1412.93 2203.83 1404.21 Q2203.83 1395.46 2206.89 1390.87 Q2209.96 1386.27 2215.78 1386.27 Z" fill="#000000" fill-rule="evenodd" fill-opacity="1" /><path clip-path="url(#clip060)" d="M1181.05 1455.72 L1221.25 1455.72 L1221.25 1461.13 L1204.38 1461.13 L1204.38 1503.24 L1197.92 1503.24 L1197.92 1461.13 L1181.05 1461.13 L1181.05 1455.72 Z" fill="#000000" fill-rule="evenodd" fill-opacity="1" /><path clip-path="url(#clip060)" d="M1225.2 1467.6 L1231.05 1467.6 L1231.05 1503.24 L1225.2 1503.24 L1225.2 1467.6 M1225.2 1453.72 L1231.05 1453.72 L1231.05 1461.13 L1225.2 1461.13 L1225.2 1453.72 Z" fill="#000000" fill-rule="evenodd" fill-opacity="1" /><path clip-path="url(#clip060)" d="M1271.06 1474.44 Q1273.26 1470.49 1276.31 1468.61 Q1279.37 1466.74 1283.51 1466.74 Q1289.08 1466.74 1292.1 1470.65 Q1295.12 1474.53 1295.12 1481.73 L1295.12 1503.24 L1289.24 1503.24 L1289.24 1481.92 Q1289.24 1476.79 1287.42 1474.31 Q1285.61 1471.83 1281.88 1471.83 Q1277.33 1471.83 1274.69 1474.85 Q1272.05 1477.88 1272.05 1483.1 L1272.05 1503.24 L1266.16 1503.24 L1266.16 1481.92 Q1266.16 1476.76 1264.35 1474.31 Q1262.53 1471.83 1258.74 1471.83 Q1254.26 1471.83 1251.61 1474.88 Q1248.97 1477.91 1248.97 1483.1 L1248.97 1503.24 L1243.08 1503.24 L1243.08 1467.6 L1248.97 1467.6 L1248.97 1473.13 Q1250.98 1469.86 1253.78 1468.3 Q1256.58 1466.74 1260.43 1466.74 Q1264.31 1466.74 1267.02 1468.71 Q1269.76 1470.68 1271.06 1474.44 Z" fill="#000000" fill-rule="evenodd" fill-opacity="1" /><path clip-path="url(#clip060)" d="M1337.3 1483.96 L1337.3 1486.82 L1310.37 1486.82 Q1310.75 1492.87 1314 1496.05 Q1317.28 1499.2 1323.1 1499.2 Q1326.47 1499.2 1329.63 1498.37 Q1332.81 1497.55 1335.93 1495.89 L1335.93 1501.43 Q1332.78 1502.77 1329.47 1503.47 Q1326.16 1504.17 1322.75 1504.17 Q1314.22 1504.17 1309.22 1499.2 Q1304.26 1494.24 1304.26 1485.77 Q1304.26 1477.02 1308.97 1471.89 Q1313.71 1466.74 1321.73 1466.74 Q1328.93 1466.74 1333.1 1471.38 Q1337.3 1476 1337.3 1483.96 M1331.44 1482.24 Q1331.38 1477.43 1328.73 1474.57 Q1326.12 1471.7 1321.8 1471.7 Q1316.89 1471.7 1313.93 1474.47 Q1311.01 1477.24 1310.56 1482.27 L1331.44 1482.24 Z" fill="#000000" fill-rule="evenodd" fill-opacity="1" /><polyline clip-path="url(#clip062)" style="stroke:#000000; stroke-linecap:round; stroke-linejoin:round; stroke-width:2; stroke-opacity:0.1; fill:none" points="261.591,1322.67 2256.76,1322.67 "/>
<polyline clip-path="url(#clip062)" style="stroke:#000000; stroke-linecap:round; stroke-linejoin:round; stroke-width:2; stroke-opacity:0.1; fill:none" points="261.591,1009.97 2256.76,1009.97 "/>
<polyline clip-path="url(#clip062)" style="stroke:#000000; stroke-linecap:round; stroke-linejoin:round; stroke-width:2; stroke-opacity:0.1; fill:none" points="261.591,697.278 2256.76,697.278 "/>
<polyline clip-path="url(#clip062)" style="stroke:#000000; stroke-linecap:round; stroke-linejoin:round; stroke-width:2; stroke-opacity:0.1; fill:none" points="261.591,384.581 2256.76,384.581 "/>
<polyline clip-path="url(#clip062)" style="stroke:#000000; stroke-linecap:round; stroke-linejoin:round; stroke-width:2; stroke-opacity:0.1; fill:none" points="261.591,71.8846 2256.76,71.8846 "/>
<polyline clip-path="url(#clip060)" style="stroke:#000000; stroke-linecap:round; stroke-linejoin:round; stroke-width:4; stroke-opacity:1; fill:none" points="261.591,1359.82 261.591,47.2441 "/>
<polyline clip-path="url(#clip060)" style="stroke:#000000; stroke-linecap:round; stroke-linejoin:round; stroke-width:4; stroke-opacity:1; fill:none" points="261.591,1322.67 280.489,1322.67 "/>
<polyline clip-path="url(#clip060)" style="stroke:#000000; stroke-linecap:round; stroke-linejoin:round; stroke-width:4; stroke-opacity:1; fill:none" points="261.591,1009.97 280.489,1009.97 "/>
<polyline clip-path="url(#clip060)" style="stroke:#000000; stroke-linecap:round; stroke-linejoin:round; stroke-width:4; stroke-opacity:1; fill:none" points="261.591,697.278 280.489,697.278 "/>
<polyline clip-path="url(#clip060)" style="stroke:#000000; stroke-linecap:round; stroke-linejoin:round; stroke-width:4; stroke-opacity:1; fill:none" points="261.591,384.581 280.489,384.581 "/>
<polyline clip-path="url(#clip060)" style="stroke:#000000; stroke-linecap:round; stroke-linejoin:round; stroke-width:4; stroke-opacity:1; fill:none" points="261.591,71.8846 280.489,71.8846 "/>
<path clip-path="url(#clip060)" d="M215.087 1308.47 Q211.476 1308.47 209.647 1312.03 Q207.842 1315.58 207.842 1322.71 Q207.842 1329.81 209.647 1333.38 Q211.476 1336.92 215.087 1336.92 Q218.721 1336.92 220.527 1333.38 Q222.355 1329.81 222.355 1322.71 Q222.355 1315.58 220.527 1312.03 Q218.721 1308.47 215.087 1308.47 M215.087 1304.77 Q220.897 1304.77 223.953 1309.37 Q227.031 1313.96 227.031 1322.71 Q227.031 1331.43 223.953 1336.04 Q220.897 1340.62 215.087 1340.62 Q209.277 1340.62 206.198 1336.04 Q203.142 1331.43 203.142 1322.71 Q203.142 1313.96 206.198 1309.37 Q209.277 1304.77 215.087 1304.77 Z" fill="#000000" fill-rule="evenodd" fill-opacity="1" /><path clip-path="url(#clip060)" d="M148.791 1023.32 L165.11 1023.32 L165.11 1027.25 L143.166 1027.25 L143.166 1023.32 Q145.828 1020.56 150.411 1015.94 Q155.018 1011.28 156.198 1009.94 Q158.444 1007.42 159.323 1005.68 Q160.226 1003.92 160.226 1002.23 Q160.226 999.477 158.282 997.741 Q156.36 996.005 153.258 996.005 Q151.059 996.005 148.606 996.769 Q146.175 997.533 143.397 999.084 L143.397 994.361 Q146.221 993.227 148.675 992.648 Q151.129 992.07 153.166 992.07 Q158.536 992.07 161.731 994.755 Q164.925 997.44 164.925 1001.93 Q164.925 1004.06 164.115 1005.98 Q163.328 1007.88 161.221 1010.47 Q160.643 1011.14 157.541 1014.36 Q154.439 1017.56 148.791 1023.32 Z" fill="#000000" fill-rule="evenodd" fill-opacity="1" /><path clip-path="url(#clip060)" d="M174.971 992.695 L193.328 992.695 L193.328 996.63 L179.254 996.63 L179.254 1005.1 Q180.272 1004.75 181.291 1004.59 Q182.309 1004.41 183.328 1004.41 Q189.115 1004.41 192.494 1007.58 Q195.874 1010.75 195.874 1016.17 Q195.874 1021.75 192.402 1024.85 Q188.93 1027.93 182.61 1027.93 Q180.434 1027.93 178.166 1027.56 Q175.92 1027.19 173.513 1026.44 L173.513 1021.75 Q175.596 1022.88 177.819 1023.44 Q180.041 1023.99 182.518 1023.99 Q186.522 1023.99 188.86 1021.88 Q191.198 1019.78 191.198 1016.17 Q191.198 1012.56 188.86 1010.45 Q186.522 1008.34 182.518 1008.34 Q180.643 1008.34 178.768 1008.76 Q176.916 1009.18 174.971 1010.06 L174.971 992.695 Z" fill="#000000" fill-rule="evenodd" fill-opacity="1" /><path clip-path="url(#clip060)" d="M215.087 995.773 Q211.476 995.773 209.647 999.338 Q207.842 1002.88 207.842 1010.01 Q207.842 1017.12 209.647 1020.68 Q211.476 1024.22 215.087 1024.22 Q218.721 1024.22 220.527 1020.68 Q222.355 1017.12 222.355 1010.01 Q222.355 1002.88 220.527 999.338 Q218.721 995.773 215.087 995.773 M215.087 992.07 Q220.897 992.07 223.953 996.676 Q227.031 1001.26 227.031 1010.01 Q227.031 1018.74 223.953 1023.34 Q220.897 1027.93 215.087 1027.93 Q209.277 1027.93 206.198 1023.34 Q203.142 1018.74 203.142 1010.01 Q203.142 1001.26 206.198 996.676 Q209.277 992.07 215.087 992.07 Z" fill="#000000" fill-rule="evenodd" fill-opacity="1" /><path clip-path="url(#clip060)" d="M144.809 679.998 L163.166 679.998 L163.166 683.933 L149.092 683.933 L149.092 692.405 Q150.11 692.058 151.129 691.896 Q152.147 691.711 153.166 691.711 Q158.953 691.711 162.332 694.882 Q165.712 698.053 165.712 703.47 Q165.712 709.049 162.24 712.151 Q158.768 715.229 152.448 715.229 Q150.272 715.229 148.004 714.859 Q145.759 714.489 143.351 713.748 L143.351 709.049 Q145.434 710.183 147.657 710.739 Q149.879 711.294 152.356 711.294 Q156.36 711.294 158.698 709.188 Q161.036 707.081 161.036 703.47 Q161.036 699.859 158.698 697.753 Q156.36 695.646 152.356 695.646 Q150.481 695.646 148.606 696.063 Q146.754 696.479 144.809 697.359 L144.809 679.998 Z" fill="#000000" fill-rule="evenodd" fill-opacity="1" /><path clip-path="url(#clip060)" d="M184.925 683.077 Q181.314 683.077 179.485 686.642 Q177.68 690.183 177.68 697.313 Q177.68 704.419 179.485 707.984 Q181.314 711.526 184.925 711.526 Q188.559 711.526 190.365 707.984 Q192.193 704.419 192.193 697.313 Q192.193 690.183 190.365 686.642 Q188.559 683.077 184.925 683.077 M184.925 679.373 Q190.735 679.373 193.791 683.979 Q196.869 688.563 196.869 697.313 Q196.869 706.04 193.791 710.646 Q190.735 715.229 184.925 715.229 Q179.115 715.229 176.036 710.646 Q172.981 706.04 172.981 697.313 Q172.981 688.563 176.036 683.979 Q179.115 679.373 184.925 679.373 Z" fill="#000000" fill-rule="evenodd" fill-opacity="1" /><path clip-path="url(#clip060)" d="M215.087 683.077 Q211.476 683.077 209.647 686.642 Q207.842 690.183 207.842 697.313 Q207.842 704.419 209.647 707.984 Q211.476 711.526 215.087 711.526 Q218.721 711.526 220.527 707.984 Q222.355 704.419 222.355 697.313 Q222.355 690.183 220.527 686.642 Q218.721 683.077 215.087 683.077 M215.087 679.373 Q220.897 679.373 223.953 683.979 Q227.031 688.563 227.031 697.313 Q227.031 706.04 223.953 710.646 Q220.897 715.229 215.087 715.229 Q209.277 715.229 206.198 710.646 Q203.142 706.04 203.142 697.313 Q203.142 688.563 206.198 683.979 Q209.277 679.373 215.087 679.373 Z" fill="#000000" fill-rule="evenodd" fill-opacity="1" /><path clip-path="url(#clip060)" d="M143.583 367.301 L165.805 367.301 L165.805 369.292 L153.258 401.861 L148.374 401.861 L160.18 371.236 L143.583 371.236 L143.583 367.301 Z" fill="#000000" fill-rule="evenodd" fill-opacity="1" /><path clip-path="url(#clip060)" d="M174.971 367.301 L193.328 367.301 L193.328 371.236 L179.254 371.236 L179.254 379.709 Q180.272 379.361 181.291 379.199 Q182.309 379.014 183.328 379.014 Q189.115 379.014 192.494 382.185 Q195.874 385.357 195.874 390.773 Q195.874 396.352 192.402 399.454 Q188.93 402.533 182.61 402.533 Q180.434 402.533 178.166 402.162 Q175.92 401.792 173.513 401.051 L173.513 396.352 Q175.596 397.486 177.819 398.042 Q180.041 398.597 182.518 398.597 Q186.522 398.597 188.86 396.491 Q191.198 394.385 191.198 390.773 Q191.198 387.162 188.86 385.056 Q186.522 382.949 182.518 382.949 Q180.643 382.949 178.768 383.366 Q176.916 383.783 174.971 384.662 L174.971 367.301 Z" fill="#000000" fill-rule="evenodd" fill-opacity="1" /><path clip-path="url(#clip060)" d="M215.087 370.38 Q211.476 370.38 209.647 373.945 Q207.842 377.486 207.842 384.616 Q207.842 391.722 209.647 395.287 Q211.476 398.829 215.087 398.829 Q218.721 398.829 220.527 395.287 Q222.355 391.722 222.355 384.616 Q222.355 377.486 220.527 373.945 Q218.721 370.38 215.087 370.38 M215.087 366.676 Q220.897 366.676 223.953 371.283 Q227.031 375.866 227.031 384.616 Q227.031 393.343 223.953 397.949 Q220.897 402.533 215.087 402.533 Q209.277 402.533 206.198 397.949 Q203.142 393.343 203.142 384.616 Q203.142 375.866 206.198 371.283 Q209.277 366.676 215.087 366.676 Z" fill="#000000" fill-rule="evenodd" fill-opacity="1" /><path clip-path="url(#clip060)" d="M115.411 85.2294 L123.05 85.2294 L123.05 58.8638 L114.74 60.5305 L114.74 56.2713 L123.004 54.6046 L127.68 54.6046 L127.68 85.2294 L135.319 85.2294 L135.319 89.1646 L115.411 89.1646 L115.411 85.2294 Z" fill="#000000" fill-rule="evenodd" fill-opacity="1" /><path clip-path="url(#clip060)" d="M154.763 57.6833 Q151.152 57.6833 149.323 61.2481 Q147.518 64.7897 147.518 71.9193 Q147.518 79.0258 149.323 82.5906 Q151.152 86.1322 154.763 86.1322 Q158.397 86.1322 160.203 82.5906 Q162.032 79.0258 162.032 71.9193 Q162.032 64.7897 160.203 61.2481 Q158.397 57.6833 154.763 57.6833 M154.763 53.9796 Q160.573 53.9796 163.629 58.5861 Q166.707 63.1694 166.707 71.9193 Q166.707 80.6461 163.629 85.2526 Q160.573 89.8359 154.763 89.8359 Q148.953 89.8359 145.874 85.2526 Q142.819 80.6461 142.819 71.9193 Q142.819 63.1694 145.874 58.5861 Q148.953 53.9796 154.763 53.9796 Z" fill="#000000" fill-rule="evenodd" fill-opacity="1" /><path clip-path="url(#clip060)" d="M184.925 57.6833 Q181.314 57.6833 179.485 61.2481 Q177.68 64.7897 177.68 71.9193 Q177.68 79.0258 179.485 82.5906 Q181.314 86.1322 184.925 86.1322 Q188.559 86.1322 190.365 82.5906 Q192.193 79.0258 192.193 71.9193 Q192.193 64.7897 190.365 61.2481 Q188.559 57.6833 184.925 57.6833 M184.925 53.9796 Q190.735 53.9796 193.791 58.5861 Q196.869 63.1694 196.869 71.9193 Q196.869 80.6461 193.791 85.2526 Q190.735 89.8359 184.925 89.8359 Q179.115 89.8359 176.036 85.2526 Q172.981 80.6461 172.981 71.9193 Q172.981 63.1694 176.036 58.5861 Q179.115 53.9796 184.925 53.9796 Z" fill="#000000" fill-rule="evenodd" fill-opacity="1" /><path clip-path="url(#clip060)" d="M215.087 57.6833 Q211.476 57.6833 209.647 61.2481 Q207.842 64.7897 207.842 71.9193 Q207.842 79.0258 209.647 82.5906 Q211.476 86.1322 215.087 86.1322 Q218.721 86.1322 220.527 82.5906 Q222.355 79.0258 222.355 71.9193 Q222.355 64.7897 220.527 61.2481 Q218.721 57.6833 215.087 57.6833 M215.087 53.9796 Q220.897 53.9796 223.953 58.5861 Q227.031 63.1694 227.031 71.9193 Q227.031 80.6461 223.953 85.2526 Q220.897 89.8359 215.087 89.8359 Q209.277 89.8359 206.198 85.2526 Q203.142 80.6461 203.142 71.9193 Q203.142 63.1694 206.198 58.5861 Q209.277 53.9796 215.087 53.9796 Z" fill="#000000" fill-rule="evenodd" fill-opacity="1" /><path clip-path="url(#clip060)" d="M18.4042 831.26 L18.4042 822.603 L58.158 801.532 L18.4042 801.532 L18.4042 795.294 L65.9242 795.294 L65.9242 803.951 L26.1703 825.021 L65.9242 825.021 L65.9242 831.26 L18.4042 831.26 Z" fill="#000000" fill-rule="evenodd" fill-opacity="1" /><path clip-path="url(#clip060)" d="M51.8559 783.358 L30.2762 783.358 L30.2762 777.501 L51.6331 777.501 Q56.6939 777.501 59.2402 775.528 Q61.7546 773.555 61.7546 769.608 Q61.7546 764.866 58.7309 762.128 Q55.7072 759.359 50.4873 759.359 L30.2762 759.359 L30.2762 753.503 L65.9242 753.503 L65.9242 759.359 L60.4496 759.359 Q63.6962 761.492 65.2876 764.324 Q66.8472 767.125 66.8472 770.849 Q66.8472 776.992 63.0278 780.175 Q59.2083 783.358 51.8559 783.358 M29.4168 768.621 L29.4168 768.621 Z" fill="#000000" fill-rule="evenodd" fill-opacity="1" /><path clip-path="url(#clip060)" d="M37.1193 713.685 Q33.1726 711.489 31.2947 708.434 Q29.4168 705.378 29.4168 701.24 Q29.4168 695.67 33.3317 692.647 Q37.2148 689.623 44.4081 689.623 L65.9242 689.623 L65.9242 695.511 L44.599 695.511 Q39.4746 695.511 36.992 697.325 Q34.5094 699.14 34.5094 702.864 Q34.5094 707.415 37.5331 710.057 Q40.5568 712.699 45.7767 712.699 L65.9242 712.699 L65.9242 718.587 L44.599 718.587 Q39.4428 718.587 36.992 720.401 Q34.5094 722.215 34.5094 726.003 Q34.5094 730.491 37.5649 733.133 Q40.5886 735.774 45.7767 735.774 L65.9242 735.774 L65.9242 741.663 L30.2762 741.663 L30.2762 735.774 L35.8144 735.774 Q32.536 733.769 30.9764 730.968 Q29.4168 728.167 29.4168 724.316 Q29.4168 720.433 31.3902 717.727 Q33.3636 714.99 37.1193 713.685 Z" fill="#000000" fill-rule="evenodd" fill-opacity="1" /><path clip-path="url(#clip060)" d="M48.132 652.352 Q41.6708 652.352 38.0105 655.025 Q34.3184 657.667 34.3184 662.314 Q34.3184 666.961 38.0105 669.635 Q41.6708 672.276 48.132 672.276 Q54.5932 672.276 58.2853 669.635 Q61.9456 666.961 61.9456 662.314 Q61.9456 657.667 58.2853 655.025 Q54.5932 652.352 48.132 652.352 M35.6871 672.276 Q32.5042 670.43 30.9764 667.629 Q29.4168 664.797 29.4168 660.882 Q29.4168 654.389 34.5731 650.346 Q39.7293 646.272 48.132 646.272 Q56.5347 646.272 61.691 650.346 Q66.8472 654.389 66.8472 660.882 Q66.8472 664.797 65.3194 667.629 Q63.7598 670.43 60.577 672.276 L65.9242 672.276 L65.9242 678.165 L16.399 678.165 L16.399 672.276 L35.6871 672.276 Z" fill="#000000" fill-rule="evenodd" fill-opacity="1" /><path clip-path="url(#clip060)" d="M46.6361 606.073 L49.5006 606.073 L49.5006 633 Q55.5481 632.618 58.7309 629.371 Q61.8819 626.093 61.8819 620.269 Q61.8819 616.895 61.0544 613.744 Q60.2269 610.561 58.5718 607.442 L64.1099 607.442 Q65.4467 610.593 66.147 613.903 Q66.8472 617.213 66.8472 620.619 Q66.8472 629.149 61.8819 634.146 Q56.9167 639.111 48.4503 639.111 Q39.6974 639.111 34.5731 634.4 Q29.4168 629.658 29.4168 621.637 Q29.4168 614.444 34.0638 610.274 Q38.6789 606.073 46.6361 606.073 M44.9173 611.929 Q40.1112 611.993 37.2466 614.635 Q34.3821 617.245 34.3821 621.573 Q34.3821 626.475 37.1512 629.435 Q39.9202 632.363 44.9492 632.809 L44.9173 611.929 Z" fill="#000000" fill-rule="evenodd" fill-opacity="1" /><path clip-path="url(#clip060)" d="M35.7507 575.804 Q35.1778 576.791 34.9232 577.968 Q34.6367 579.114 34.6367 580.515 Q34.6367 585.48 37.8832 588.154 Q41.0979 590.795 47.1453 590.795 L65.9242 590.795 L65.9242 596.684 L30.2762 596.684 L30.2762 590.795 L35.8144 590.795 Q32.5679 588.949 31.0083 585.989 Q29.4168 583.029 29.4168 578.796 Q29.4168 578.191 29.5123 577.459 Q29.576 576.727 29.7351 575.836 L35.7507 575.804 Z" fill="#000000" fill-rule="evenodd" fill-opacity="1" /><polyline clip-path="url(#clip062)" style="stroke:#009af9; stroke-linecap:round; stroke-linejoin:round; stroke-width:4; stroke-opacity:1; fill:none" points="318.058,84.3925 322.764,84.3925 327.469,85.6433 332.175,86.894 336.88,86.894 341.586,86.894 346.292,86.894 350.997,88.1448 355.703,88.1448 360.408,88.1448 365.114,90.6464 369.819,91.8972 374.525,91.8972 379.231,93.148 383.936,94.3988 388.642,95.6495 393.347,96.9003 398.053,98.1511 402.759,98.1511 407.464,100.653 412.17,104.405 416.875,106.907 421.581,110.659 426.286,110.659 430.992,114.411 435.698,114.411 440.403,114.411 445.109,115.662 449.814,115.662 454.52,115.662 459.225,116.913 463.931,118.164 468.637,118.164 473.342,119.414 478.048,119.414 482.753,119.414 487.459,120.665 492.164,120.665 496.87,121.916 501.576,124.418 506.281,124.418 510.987,124.418 515.692,128.17 520.398,128.17 525.104,130.672 529.809,130.672 534.515,131.922 539.22,133.173 543.926,133.173 548.631,135.675 553.337,138.176 558.043,138.176 562.748,139.427 567.454,139.427 572.159,140.678 576.865,144.43 581.57,144.43 586.276,145.681 590.982,145.681 595.687,145.681 600.393,148.183 605.098,148.183 609.804,148.183 614.51,150.684 619.215,153.186 623.921,154.437 628.626,158.189 633.332,159.44 638.037,160.69 642.743,163.192 647.449,166.944 652.154,170.697 656.86,173.198 661.565,175.7 666.271,179.452 670.976,183.205 675.682,186.957 680.388,191.96 685.093,196.963 689.799,199.465 694.504,201.966 699.21,203.217 703.915,206.97 708.621,214.474 713.327,220.728 718.032,223.23 722.738,228.233 727.443,234.487 732.149,238.239 736.855,243.242 741.56,244.493 746.266,248.246 750.971,251.998 755.677,255.75 760.382,259.503 765.088,265.757 769.794,269.509 774.499,278.264 779.205,283.268 783.91,289.522 788.616,292.023 793.321,300.779 798.027,304.531 802.733,310.785 807.438,315.788 812.144,323.293 816.849,327.045 821.555,332.048 826.26,340.804 830.966,349.559 835.672,358.315 840.377,360.816 845.083,372.073 849.788,378.327 854.494,383.331 859.2,388.334 863.905,392.086 868.611,395.838 873.316,400.842 878.022,403.343 882.727,409.597 887.433,415.851 892.139,420.854 896.844,425.857 901.55,432.111 906.255,437.114 910.961,443.368 915.666,453.375 920.372,460.879 925.078,465.882 929.783,467.133 934.489,472.136 939.194,478.39 943.9,480.892 948.605,484.644 953.311,488.397 958.017,500.904 962.722,509.66 967.428,514.663 972.133,524.669 976.839,530.923 981.545,535.927 986.25,543.431 990.956,553.438 995.661,555.939 1000.37,567.196 1005.07,573.45 1009.78,578.453 1014.48,588.46 1019.19,594.714 1023.89,595.964 1028.6,603.469 1033.31,608.472 1038.01,614.726 1042.72,617.228 1047.42,625.983 1052.13,634.739 1056.83,640.993 1061.54,647.247 1066.24,650.999 1070.95,661.005 1075.66,669.761 1080.36,679.767 1085.07,684.77 1089.77,693.526 1094.48,698.529 1099.18,701.03 1103.89,706.034 1108.6,709.786 1113.3,713.538 1118.01,721.043 1122.71,724.795 1127.42,729.798 1132.12,737.303 1136.83,742.306 1141.53,747.31 1146.24,751.062 1150.95,758.567 1155.65,759.817 1160.36,769.824 1165.06,771.074 1169.77,776.078 1174.47,777.328 1179.18,781.081 1183.88,786.084 1188.59,788.585 1193.3,792.338 1198,801.093 1202.71,804.846 1207.41,813.601 1212.12,817.354 1216.82,822.357 1221.53,827.36 1226.23,828.611 1230.94,833.614 1235.65,837.366 1240.35,839.868 1245.06,846.122 1249.76,847.372 1254.47,849.874 1259.17,852.376 1263.88,857.379 1268.58,861.131 1273.29,864.883 1278,867.385 1282.7,868.636 1287.41,874.89 1292.11,878.642 1296.82,882.394 1301.52,887.398 1306.23,887.398 1310.93,892.401 1315.64,893.652 1320.35,896.153 1325.05,902.407 1329.76,904.909 1334.46,911.163 1339.17,912.413 1343.87,919.918 1348.58,921.169 1353.29,924.921 1357.99,929.924 1362.7,933.677 1367.4,934.928 1372.11,937.429 1376.81,938.68 1381.52,941.181 1386.22,942.432 1390.93,943.683 1395.64,943.683 1400.34,946.185 1405.05,951.188 1409.75,953.689 1414.46,953.689 1419.16,959.943 1423.87,961.194 1428.57,964.946 1433.28,967.448 1437.99,967.448 1442.69,968.699 1447.4,968.699 1452.1,968.699 1456.81,968.699 1461.51,972.451 1466.22,976.204 1470.92,979.956 1475.63,979.956 1480.34,981.207 1485.04,982.457 1489.75,983.708 1494.45,987.461 1499.16,989.962 1503.86,989.962 1508.57,991.213 1513.27,993.715 1517.98,993.715 1522.69,996.216 1527.39,999.968 1532.1,1002.47 1536.8,1006.22 1541.51,1006.22 1546.21,1007.47 1550.92,1008.72 1555.62,1011.23 1560.33,1014.98 1565.04,1014.98 1569.74,1014.98 1574.45,1014.98 1579.15,1014.98 1583.86,1014.98 1588.56,1014.98 1593.27,1018.73 1597.98,1019.98 1602.68,1021.23 1607.39,1022.48 1612.09,1022.48 1616.8,1022.48 1621.5,1023.73 1626.21,1024.98 1630.91,1026.23 1635.62,1027.49 1640.33,1029.99 1645.03,1032.49 1649.74,1033.74 1654.44,1033.74 1659.15,1034.99 1663.85,1034.99 1668.56,1034.99 1673.26,1034.99 1677.97,1038.74 1682.68,1038.74 1687.38,1038.74 1692.09,1039.99 1696.79,1041.24 1701.5,1041.24 1706.2,1043.75 1710.91,1043.75 1715.61,1045 1720.32,1046.25 1725.03,1047.5 1729.73,1048.75 1734.44,1048.75 1739.14,1050 1743.85,1050 1748.55,1052.5 1753.26,1052.5 1757.96,1052.5 1762.67,1052.5 1767.38,1052.5 1772.08,1055 1776.79,1055 1781.49,1056.25 1786.2,1058.76 1790.9,1060.01 1795.61,1060.01 1800.31,1060.01 1805.02,1060.01 1809.73,1060.01 1814.43,1060.01 1819.14,1061.26 1823.84,1061.26 1828.55,1061.26 1833.25,1065.01 1837.96,1065.01 1842.67,1065.01 1847.37,1065.01 1852.08,1065.01 1856.78,1065.01 1861.49,1065.01 1866.19,1065.01 1870.9,1065.01 1875.6,1065.01 1880.31,1065.01 1885.02,1065.01 1889.72,1065.01 1894.43,1065.01 1899.13,1066.26 1903.84,1068.76 1908.54,1068.76 1913.25,1070.01 1917.95,1070.01 1922.66,1070.01 1927.37,1070.01 1932.07,1070.01 1936.78,1070.01 1941.48,1070.01 1946.19,1070.01 1950.89,1070.01 1955.6,1070.01 1960.3,1070.01 1965.01,1071.26 1969.72,1071.26 1974.42,1071.26 1979.13,1071.26 1983.83,1071.26 1988.54,1071.26 1993.24,1071.26 1997.95,1071.26 2002.65,1071.26 2007.36,1071.26 2012.07,1071.26 2016.77,1071.26 2021.48,1071.26 2026.18,1071.26 2030.89,1071.26 2035.59,1071.26 2040.3,1071.26 2045,1071.26 2049.71,1071.26 2054.42,1071.26 2059.12,1072.51 2063.83,1073.76 2068.53,1073.76 2073.24,1073.76 2077.94,1073.76 2082.65,1073.76 2087.36,1075.02 2092.06,1075.02 2096.77,1075.02 2101.47,1075.02 2106.18,1075.02 2110.88,1075.02 2115.59,1075.02 2120.29,1075.02 2125,1075.02 2129.71,1075.02 2134.41,1075.02 2139.12,1075.02 2143.82,1075.02 2148.53,1075.02 2153.23,1075.02 2157.94,1075.02 2162.64,1075.02 2167.35,1075.02 2172.06,1075.02 2176.76,1075.02 2181.47,1075.02 2186.17,1075.02 2190.88,1075.02 2195.58,1075.02 2200.29,1075.02 "/>
<polyline clip-path="url(#clip062)" style="stroke:#e26f46; stroke-linecap:round; stroke-linejoin:round; stroke-width:4; stroke-opacity:1; fill:none" points="318.058,1310.16 322.764,1310.16 327.469,1308.91 332.175,1307.66 336.88,1307.66 341.586,1307.66 346.292,1308.91 350.997,1307.66 355.703,1307.66 360.408,1307.66 365.114,1305.16 369.819,1303.91 374.525,1303.91 379.231,1302.66 383.936,1301.41 388.642,1300.16 393.347,1300.16 398.053,1298.91 402.759,1298.91 407.464,1296.4 412.17,1293.9 416.875,1291.4 421.581,1287.65 426.286,1288.9 430.992,1287.65 435.698,1288.9 440.403,1291.4 445.109,1290.15 449.814,1291.4 454.52,1291.4 459.225,1291.4 463.931,1290.15 468.637,1290.15 473.342,1290.15 478.048,1291.4 482.753,1291.4 487.459,1290.15 492.164,1291.4 496.87,1291.4 501.576,1290.15 506.281,1292.65 510.987,1293.9 515.692,1290.15 520.398,1290.15 525.104,1288.9 529.809,1291.4 534.515,1290.15 539.22,1288.9 543.926,1290.15 548.631,1287.65 553.337,1286.4 558.043,1287.65 562.748,1287.65 567.454,1288.9 572.159,1287.65 576.865,1285.15 581.57,1287.65 586.276,1286.4 590.982,1286.4 595.687,1288.9 600.393,1287.65 605.098,1287.65 609.804,1288.9 614.51,1286.4 619.215,1285.15 623.921,1286.4 628.626,1282.65 633.332,1282.65 638.037,1281.4 642.743,1278.89 647.449,1276.39 652.154,1276.39 656.86,1273.89 661.565,1271.39 666.271,1268.89 670.976,1265.14 675.682,1262.63 680.388,1258.88 685.093,1255.13 689.799,1253.88 694.504,1252.63 699.21,1252.63 703.915,1251.38 708.621,1245.12 713.327,1241.37 718.032,1240.12 722.738,1237.62 727.443,1233.87 732.149,1232.61 736.855,1228.86 741.56,1230.11 746.266,1227.61 750.971,1225.11 755.677,1223.86 760.382,1223.86 765.088,1217.61 769.794,1217.61 774.499,1211.35 779.205,1208.85 783.91,1203.85 788.616,1203.85 793.321,1196.34 798.027,1195.09 802.733,1192.59 807.438,1188.84 812.144,1182.58 816.849,1181.33 821.555,1178.83 826.26,1171.33 830.966,1165.07 835.672,1158.82 840.377,1160.07 845.083,1156.32 849.788,1152.56 854.494,1150.06 859.2,1147.56 863.905,1152.56 868.611,1151.31 873.316,1152.56 878.022,1152.56 882.727,1150.06 887.433,1146.31 892.139,1142.56 896.844,1143.81 901.55,1141.31 906.255,1140.06 910.961,1138.81 915.666,1136.3 920.372,1132.55 925.078,1132.55 929.783,1133.8 934.489,1131.3 939.194,1128.8 943.9,1131.3 948.605,1136.3 953.311,1133.8 958.017,1123.8 962.722,1121.29 967.428,1117.54 972.133,1110.04 976.839,1107.54 981.545,1110.04 986.25,1105.03 990.956,1101.28 995.661,1103.78 1000.37,1101.28 1005.07,1097.53 1009.78,1093.78 1014.48,1087.52 1019.19,1087.52 1023.89,1093.78 1028.6,1092.53 1033.31,1092.53 1038.01,1093.78 1042.72,1093.78 1047.42,1088.77 1052.13,1086.27 1056.83,1085.02 1061.54,1082.52 1066.24,1090.03 1070.95,1085.02 1075.66,1082.52 1080.36,1080.02 1085.07,1082.52 1089.77,1086.27 1094.48,1087.52 1099.18,1087.52 1103.89,1091.28 1108.6,1097.53 1113.3,1095.03 1118.01,1091.28 1122.71,1096.28 1127.42,1095.03 1132.12,1092.53 1136.83,1091.28 1141.53,1092.53 1146.24,1095.03 1150.95,1093.78 1155.65,1098.78 1160.36,1091.28 1165.06,1097.53 1169.77,1096.28 1174.47,1098.78 1179.18,1102.53 1183.88,1101.28 1188.59,1103.78 1193.3,1112.54 1198,1113.79 1202.71,1112.54 1207.41,1110.04 1212.12,1111.29 1216.82,1113.79 1221.53,1110.04 1226.23,1116.29 1230.94,1117.54 1235.65,1117.54 1240.35,1118.79 1245.06,1118.79 1249.76,1123.8 1254.47,1130.05 1259.17,1132.55 1263.88,1128.8 1268.58,1130.05 1273.29,1127.55 1278,1126.3 1282.7,1132.55 1287.41,1133.8 1292.11,1136.3 1296.82,1136.3 1301.52,1133.8 1306.23,1138.81 1310.93,1138.81 1315.64,1140.06 1320.35,1137.56 1325.05,1131.3 1329.76,1136.3 1334.46,1137.56 1339.17,1145.06 1343.87,1142.56 1348.58,1147.56 1353.29,1147.56 1357.99,1146.31 1362.7,1148.81 1367.4,1150.06 1372.11,1151.31 1376.81,1155.07 1381.52,1155.07 1386.22,1158.82 1390.93,1163.82 1395.64,1171.33 1400.34,1171.33 1405.05,1166.32 1409.75,1165.07 1414.46,1171.33 1419.16,1170.08 1423.87,1171.33 1428.57,1172.58 1433.28,1178.83 1437.99,1182.58 1442.69,1185.08 1447.4,1190.09 1452.1,1191.34 1456.81,1195.09 1461.51,1193.84 1466.22,1192.59 1470.92,1192.59 1475.63,1196.34 1480.34,1197.59 1485.04,1196.34 1489.75,1200.09 1494.45,1196.34 1499.16,1197.59 1503.86,1201.35 1508.57,1205.1 1513.27,1206.35 1517.98,1207.6 1522.69,1208.85 1527.39,1210.1 1532.1,1212.6 1536.8,1210.1 1541.51,1211.35 1546.21,1210.1 1550.92,1211.35 1555.62,1211.35 1560.33,1213.85 1565.04,1216.35 1569.74,1218.86 1574.45,1221.36 1579.15,1226.36 1583.86,1227.61 1588.56,1230.11 1593.27,1227.61 1597.98,1230.11 1602.68,1231.36 1607.39,1233.87 1612.09,1236.37 1616.8,1237.62 1621.5,1237.62 1626.21,1238.87 1630.91,1243.87 1635.62,1243.87 1640.33,1246.37 1645.03,1246.37 1649.74,1247.62 1654.44,1247.62 1659.15,1252.63 1663.85,1256.38 1668.56,1256.38 1673.26,1258.88 1677.97,1255.13 1682.68,1255.13 1687.38,1255.13 1692.09,1255.13 1696.79,1255.13 1701.5,1258.88 1706.2,1257.63 1710.91,1258.88 1715.61,1258.88 1720.32,1258.88 1725.03,1258.88 1729.73,1258.88 1734.44,1262.63 1739.14,1261.38 1743.85,1265.14 1748.55,1263.88 1753.26,1267.64 1757.96,1268.89 1762.67,1268.89 1767.38,1268.89 1772.08,1266.39 1776.79,1267.64 1781.49,1266.39 1786.2,1265.14 1790.9,1265.14 1795.61,1266.39 1800.31,1266.39 1805.02,1267.64 1809.73,1270.14 1814.43,1272.64 1819.14,1272.64 1823.84,1273.89 1828.55,1275.14 1833.25,1271.39 1837.96,1273.89 1842.67,1275.14 1847.37,1277.64 1852.08,1277.64 1856.78,1278.89 1861.49,1278.89 1866.19,1281.4 1870.9,1281.4 1875.6,1282.65 1880.31,1283.9 1885.02,1286.4 1889.72,1287.65 1894.43,1287.65 1899.13,1286.4 1903.84,1286.4 1908.54,1287.65 1913.25,1287.65 1917.95,1288.9 1922.66,1292.65 1927.37,1293.9 1932.07,1293.9 1936.78,1295.15 1941.48,1295.15 1946.19,1296.4 1950.89,1296.4 1955.6,1296.4 1960.3,1298.91 1965.01,1298.91 1969.72,1298.91 1974.42,1298.91 1979.13,1298.91 1983.83,1298.91 1988.54,1298.91 1993.24,1301.41 1997.95,1301.41 2002.65,1303.91 2007.36,1305.16 2012.07,1305.16 2016.77,1305.16 2021.48,1307.66 2026.18,1307.66 2030.89,1307.66 2035.59,1307.66 2040.3,1307.66 2045,1307.66 2049.71,1307.66 2054.42,1307.66 2059.12,1307.66 2063.83,1306.41 2068.53,1308.91 2073.24,1310.16 2077.94,1311.41 2082.65,1311.41 2087.36,1310.16 2092.06,1310.16 2096.77,1310.16 2101.47,1310.16 2106.18,1311.41 2110.88,1311.41 2115.59,1311.41 2120.29,1311.41 2125,1311.41 2129.71,1311.41 2134.41,1312.67 2139.12,1312.67 2143.82,1312.67 2148.53,1312.67 2153.23,1312.67 2157.94,1312.67 2162.64,1312.67 2167.35,1312.67 2172.06,1313.92 2176.76,1313.92 2181.47,1313.92 2186.17,1313.92 2190.88,1315.17 2195.58,1315.17 2200.29,1316.42 "/>
<polyline clip-path="url(#clip062)" style="stroke:#3da44d; stroke-linecap:round; stroke-linejoin:round; stroke-width:4; stroke-opacity:1; fill:none" points="318.058,1322.67 322.764,1322.67 327.469,1322.67 332.175,1322.67 336.88,1322.67 341.586,1322.67 346.292,1321.42 350.997,1321.42 355.703,1321.42 360.408,1321.42 365.114,1321.42 369.819,1321.42 374.525,1321.42 379.231,1321.42 383.936,1321.42 388.642,1321.42 393.347,1320.17 398.053,1320.17 402.759,1320.17 407.464,1320.17 412.17,1318.92 416.875,1318.92 421.581,1318.92 426.286,1317.67 430.992,1315.17 435.698,1313.92 440.403,1311.41 445.109,1311.41 449.814,1310.16 454.52,1310.16 459.225,1308.91 463.931,1308.91 468.637,1308.91 473.342,1307.66 478.048,1306.41 482.753,1306.41 487.459,1306.41 492.164,1305.16 496.87,1303.91 501.576,1302.66 506.281,1300.16 510.987,1298.91 515.692,1298.91 520.398,1298.91 525.104,1297.66 529.809,1295.15 534.515,1295.15 539.22,1295.15 543.926,1293.9 548.631,1293.9 553.337,1292.65 558.043,1291.4 562.748,1290.15 567.454,1288.9 572.159,1288.9 576.865,1287.65 581.57,1285.15 586.276,1285.15 590.982,1285.15 595.687,1282.65 600.393,1281.4 605.098,1281.4 609.804,1280.14 614.51,1280.14 619.215,1278.89 623.921,1276.39 628.626,1276.39 633.332,1275.14 638.037,1275.14 642.743,1275.14 647.449,1273.89 652.154,1270.14 656.86,1270.14 661.565,1270.14 666.271,1268.89 670.976,1268.89 675.682,1267.64 680.388,1266.39 685.093,1265.14 689.799,1263.88 694.504,1262.63 699.21,1261.38 703.915,1258.88 708.621,1257.63 713.327,1255.13 718.032,1253.88 722.738,1251.38 727.443,1248.88 732.149,1246.37 736.855,1245.12 741.56,1242.62 746.266,1241.37 750.971,1240.12 755.677,1237.62 760.382,1233.87 765.088,1233.87 769.794,1230.11 774.499,1227.61 779.205,1225.11 783.91,1223.86 788.616,1221.36 793.321,1220.11 798.027,1217.61 802.733,1213.85 807.438,1212.6 812.144,1211.35 816.849,1208.85 821.555,1206.35 826.26,1205.1 830.966,1202.6 835.672,1200.09 840.377,1196.34 845.083,1188.84 849.788,1186.34 854.494,1183.83 859.2,1181.33 863.905,1172.58 868.611,1170.08 873.316,1163.82 878.022,1161.32 882.727,1157.57 887.433,1155.07 892.139,1153.82 896.844,1147.56 901.55,1143.81 906.255,1140.06 910.961,1135.05 915.666,1127.55 920.372,1123.8 925.078,1118.79 929.783,1116.29 934.489,1113.79 939.194,1110.04 943.9,1105.03 948.605,1096.28 953.311,1095.03 958.017,1092.53 962.722,1086.27 967.428,1085.02 972.133,1082.52 976.839,1078.77 981.545,1071.26 986.25,1068.76 990.956,1062.51 995.661,1057.5 1000.37,1048.75 1005.07,1046.25 1009.78,1045 1014.48,1041.24 1019.19,1034.99 1023.89,1027.49 1028.6,1021.23 1033.31,1016.23 1038.01,1008.72 1042.72,1006.22 1047.42,1002.47 1052.13,996.216 1056.83,991.213 1061.54,987.461 1066.24,976.204 1070.95,971.2 1075.66,964.946 1080.36,957.442 1085.07,949.937 1089.77,937.429 1094.48,931.175 1099.18,928.674 1103.89,919.918 1108.6,909.912 1113.3,908.661 1118.01,904.909 1122.71,896.153 1127.42,892.401 1132.12,887.398 1136.83,883.645 1141.53,877.391 1146.24,871.137 1150.95,864.883 1155.65,858.63 1160.36,856.128 1165.06,848.623 1169.77,844.871 1174.47,841.119 1179.18,833.614 1183.88,829.861 1188.59,824.858 1193.3,812.35 1198,802.344 1202.71,799.843 1207.41,793.589 1212.12,788.585 1216.82,781.081 1221.53,779.83 1226.23,772.325 1230.94,766.071 1235.65,762.319 1240.35,758.567 1245.06,752.313 1249.76,746.059 1254.47,737.303 1259.17,732.3 1263.88,731.049 1268.58,726.046 1273.29,724.795 1278,723.545 1282.7,716.04 1287.41,708.535 1292.11,702.281 1296.82,698.529 1301.52,696.027 1306.23,691.024 1310.93,686.021 1315.64,683.519 1320.35,683.519 1325.05,683.519 1329.76,676.015 1334.46,668.51 1339.17,659.754 1343.87,654.751 1348.58,648.497 1353.29,644.745 1357.99,640.993 1362.7,634.739 1367.4,632.237 1372.11,628.485 1376.81,623.482 1381.52,620.98 1386.22,615.977 1390.93,609.723 1395.64,602.218 1400.34,599.717 1405.05,599.717 1409.75,598.466 1414.46,592.212 1419.16,587.209 1423.87,584.707 1428.57,579.704 1433.28,570.949 1437.99,567.196 1442.69,563.444 1447.4,558.441 1452.1,557.19 1456.81,553.438 1461.51,550.936 1466.22,548.434 1470.92,544.682 1475.63,540.93 1480.34,538.428 1485.04,538.428 1489.75,533.425 1494.45,533.425 1499.16,529.673 1503.86,525.92 1508.57,520.917 1513.27,517.165 1517.98,515.914 1522.69,512.162 1527.39,507.158 1532.1,502.155 1536.8,500.904 1541.51,499.654 1546.21,499.654 1550.92,497.152 1555.62,494.651 1560.33,488.397 1565.04,485.895 1569.74,483.393 1574.45,480.892 1579.15,475.889 1583.86,474.638 1588.56,472.136 1593.27,470.886 1597.98,467.133 1602.68,464.632 1607.39,460.879 1612.09,458.378 1616.8,457.127 1621.5,455.876 1626.21,453.375 1630.91,447.121 1635.62,445.87 1640.33,440.867 1645.03,438.365 1649.74,435.864 1654.44,435.864 1659.15,429.61 1663.85,425.857 1668.56,425.857 1673.26,423.356 1677.97,423.356 1682.68,423.356 1687.38,423.356 1692.09,422.105 1696.79,420.854 1701.5,417.102 1706.2,415.851 1710.91,414.6 1715.61,413.349 1720.32,412.099 1725.03,410.848 1729.73,409.597 1734.44,405.845 1739.14,405.845 1743.85,402.092 1748.55,400.842 1753.26,397.089 1757.96,395.838 1762.67,395.838 1767.38,395.838 1772.08,395.838 1776.79,394.588 1781.49,394.588 1786.2,393.337 1790.9,392.086 1795.61,390.835 1800.31,390.835 1805.02,389.584 1809.73,387.083 1814.43,384.581 1819.14,383.331 1823.84,382.08 1828.55,380.829 1833.25,380.829 1837.96,378.327 1842.67,377.077 1847.37,374.575 1852.08,374.575 1856.78,373.324 1861.49,373.324 1866.19,370.823 1870.9,370.823 1875.6,369.572 1880.31,368.321 1885.02,365.82 1889.72,364.569 1894.43,364.569 1899.13,364.569 1903.84,362.067 1908.54,360.816 1913.25,359.566 1917.95,358.315 1922.66,354.562 1927.37,353.312 1932.07,353.312 1936.78,352.061 1941.48,352.061 1946.19,350.81 1950.89,350.81 1955.6,350.81 1960.3,348.308 1965.01,347.058 1969.72,347.058 1974.42,347.058 1979.13,347.058 1983.83,347.058 1988.54,347.058 1993.24,344.556 1997.95,344.556 2002.65,342.055 2007.36,340.804 2012.07,340.804 2016.77,340.804 2021.48,338.302 2026.18,338.302 2030.89,338.302 2035.59,338.302 2040.3,338.302 2045,338.302 2049.71,338.302 2054.42,338.302 2059.12,337.051 2063.83,337.051 2068.53,334.55 2073.24,333.299 2077.94,332.048 2082.65,332.048 2087.36,332.048 2092.06,332.048 2096.77,332.048 2101.47,332.048 2106.18,330.797 2110.88,330.797 2115.59,330.797 2120.29,330.797 2125,330.797 2129.71,330.797 2134.41,329.547 2139.12,329.547 2143.82,329.547 2148.53,329.547 2153.23,329.547 2157.94,329.547 2162.64,329.547 2167.35,329.547 2172.06,328.296 2176.76,328.296 2181.47,328.296 2186.17,328.296 2190.88,327.045 2195.58,327.045 2200.29,325.794 "/>
<path clip-path="url(#clip060)" d="M1963.81 298.357 L2190.25 298.357 L2190.25 90.9966 L1963.81 90.9966  Z" fill="#ffffff" fill-rule="evenodd" fill-opacity="1"/>
<polyline clip-path="url(#clip060)" style="stroke:#000000; stroke-linecap:round; stroke-linejoin:round; stroke-width:4; stroke-opacity:1; fill:none" points="1963.81,298.357 2190.25,298.357 2190.25,90.9966 1963.81,90.9966 1963.81,298.357 "/>
<polyline clip-path="url(#clip060)" style="stroke:#009af9; stroke-linecap:round; stroke-linejoin:round; stroke-width:4; stroke-opacity:1; fill:none" points="1985.98,142.837 2118.99,142.837 "/>
<path clip-path="url(#clip060)" d="M2163.41 126.691 L2163.41 131.251 Q2160.74 129.978 2158.38 129.353 Q2156.02 128.728 2153.82 128.728 Q2150 128.728 2147.92 130.209 Q2145.86 131.691 2145.86 134.422 Q2145.86 136.714 2147.23 137.895 Q2148.61 139.052 2152.46 139.77 L2155.28 140.348 Q2160.51 141.344 2162.99 143.867 Q2165.49 146.367 2165.49 150.58 Q2165.49 155.603 2162.11 158.195 Q2158.75 160.788 2152.25 160.788 Q2149.79 160.788 2147.02 160.232 Q2144.26 159.677 2141.3 158.589 L2141.3 153.774 Q2144.15 155.371 2146.88 156.181 Q2149.61 156.992 2152.25 156.992 Q2156.25 156.992 2158.43 155.418 Q2160.61 153.844 2160.61 150.927 Q2160.61 148.381 2159.03 146.945 Q2157.48 145.51 2153.92 144.793 L2151.07 144.237 Q2145.84 143.195 2143.5 140.973 Q2141.16 138.751 2141.16 134.793 Q2141.16 130.209 2144.38 127.57 Q2147.62 124.932 2153.29 124.932 Q2155.72 124.932 2158.24 125.371 Q2160.77 125.811 2163.41 126.691 Z" fill="#000000" fill-rule="evenodd" fill-opacity="1" /><polyline clip-path="url(#clip060)" style="stroke:#e26f46; stroke-linecap:round; stroke-linejoin:round; stroke-width:4; stroke-opacity:1; fill:none" points="1985.98,194.677 2118.99,194.677 "/>
<path clip-path="url(#clip060)" d="M2141.16 177.397 L2145.84 177.397 L2145.84 211.957 L2141.16 211.957 L2141.16 177.397 Z" fill="#000000" fill-rule="evenodd" fill-opacity="1" /><polyline clip-path="url(#clip060)" style="stroke:#3da44d; stroke-linecap:round; stroke-linejoin:round; stroke-width:4; stroke-opacity:1; fill:none" points="1985.98,246.517 2118.99,246.517 "/>
<path clip-path="url(#clip060)" d="M2157.55 247.593 Q2159.05 248.102 2160.47 249.769 Q2161.9 251.436 2163.34 254.352 L2168.08 263.797 L2163.06 263.797 L2158.64 254.931 Q2156.92 251.459 2155.3 250.324 Q2153.71 249.19 2150.93 249.19 L2145.84 249.19 L2145.84 263.797 L2141.16 263.797 L2141.16 229.237 L2151.72 229.237 Q2157.64 229.237 2160.56 231.713 Q2163.48 234.19 2163.48 239.19 Q2163.48 242.454 2161.95 244.607 Q2160.44 246.76 2157.55 247.593 M2145.84 233.079 L2145.84 245.348 L2151.72 245.348 Q2155.1 245.348 2156.81 243.797 Q2158.54 242.223 2158.54 239.19 Q2158.54 236.158 2156.81 234.63 Q2155.1 233.079 2151.72 233.079 L2145.84 233.079 Z" fill="#000000" fill-rule="evenodd" fill-opacity="1" /></svg>
