<?xml version="1.0" encoding="utf-8"?>
<svg xmlns="http://www.w3.org/2000/svg" xmlns:xlink="http://www.w3.org/1999/xlink" width="576" height="384" viewBox="0 0 2304 1536">
<defs>
  <clipPath id="clip690">
    <rect x="0" y="0" width="2304" height="1536"/>
  </clipPath>
</defs>
<path clip-path="url(#clip690)" d="
M0 1536 L2304 1536 L2304 0 L0 0  Z
  " fill="#ffffff" fill-rule="evenodd" fill-opacity="1"/>
<defs>
  <clipPath id="clip691">
    <rect x="460" y="0" width="1614" height="1536"/>
  </clipPath>
</defs>
<path clip-path="url(#clip690)" d="
M187.652 1359.82 L2256.76 1359.82 L2256.76 47.2441 L187.652 47.2441  Z
  " fill="#ffffff" fill-rule="evenodd" fill-opacity="1"/>
<defs>
  <clipPath id="clip692">
    <rect x="187" y="47" width="2070" height="1314"/>
  </clipPath>
</defs>
<polyline clip-path="url(#clip692)" style="stroke:#000000; stroke-width:2; stroke-opacity:0.1; fill:none" points="
  187.652,1359.82 187.652,47.2441 
  "/>
<polyline clip-path="url(#clip692)" style="stroke:#000000; stroke-width:2; stroke-opacity:0.1; fill:none" points="
  704.928,1359.82 704.928,47.2441 
  "/>
<polyline clip-path="url(#clip692)" style="stroke:#000000; stroke-width:2; stroke-opacity:0.1; fill:none" points="
  1222.2,1359.82 1222.2,47.2441 
  "/>
<polyline clip-path="url(#clip692)" style="stroke:#000000; stroke-width:2; stroke-opacity:0.1; fill:none" points="
  1739.48,1359.82 1739.48,47.2441 
  "/>
<polyline clip-path="url(#clip692)" style="stroke:#000000; stroke-width:2; stroke-opacity:0.1; fill:none" points="
  2256.76,1359.82 2256.76,47.2441 
  "/>
<polyline clip-path="url(#clip692)" style="stroke:#000000; stroke-width:2; stroke-opacity:0.1; fill:none" points="
  187.652,1322.48 2256.76,1322.48 
  "/>
<polyline clip-path="url(#clip692)" style="stroke:#000000; stroke-width:2; stroke-opacity:0.1; fill:none" points="
  187.652,1009.86 2256.76,1009.86 
  "/>
<polyline clip-path="url(#clip692)" style="stroke:#000000; stroke-width:2; stroke-opacity:0.1; fill:none" points="
  187.652,697.238 2256.76,697.238 
  "/>
<polyline clip-path="url(#clip692)" style="stroke:#000000; stroke-width:2; stroke-opacity:0.1; fill:none" points="
  187.652,384.616 2256.76,384.616 
  "/>
<polyline clip-path="url(#clip692)" style="stroke:#000000; stroke-width:2; stroke-opacity:0.1; fill:none" points="
  187.652,71.994 2256.76,71.994 
  "/>
<polyline clip-path="url(#clip690)" style="stroke:#000000; stroke-width:4; stroke-opacity:1; fill:none" points="
  187.652,1359.82 2256.76,1359.82 
  "/>
<polyline clip-path="url(#clip690)" style="stroke:#000000; stroke-width:4; stroke-opacity:1; fill:none" points="
  187.652,1359.82 187.652,47.2441 
  "/>
<polyline clip-path="url(#clip690)" style="stroke:#000000; stroke-width:4; stroke-opacity:1; fill:none" points="
  187.652,1359.82 187.652,1344.07 
  "/>
<polyline clip-path="url(#clip690)" style="stroke:#000000; stroke-width:4; stroke-opacity:1; fill:none" points="
  704.928,1359.82 704.928,1344.07 
  "/>
<polyline clip-path="url(#clip690)" style="stroke:#000000; stroke-width:4; stroke-opacity:1; fill:none" points="
  1222.2,1359.82 1222.2,1344.07 
  "/>
<polyline clip-path="url(#clip690)" style="stroke:#000000; stroke-width:4; stroke-opacity:1; fill:none" points="
  1739.48,1359.82 1739.48,1344.07 
  "/>
<polyline clip-path="url(#clip690)" style="stroke:#000000; stroke-width:4; stroke-opacity:1; fill:none" points="
  2256.76,1359.82 2256.76,1344.07 
  "/>
<polyline clip-path="url(#clip690)" style="stroke:#000000; stroke-width:4; stroke-opacity:1; fill:none" points="
  187.652,1322.48 212.481,1322.48 
  "/>
<polyline clip-path="url(#clip690)" style="stroke:#000000; stroke-width:4; stroke-opacity:1; fill:none" points="
  187.652,1009.86 212.481,1009.86 
  "/>
<polyline clip-path="url(#clip690)" style="stroke:#000000; stroke-width:4; stroke-opacity:1; fill:none" points="
  187.652,697.238 212.481,697.238 
  "/>
<polyline clip-path="url(#clip690)" style="stroke:#000000; stroke-width:4; stroke-opacity:1; fill:none" points="
  187.652,384.616 212.481,384.616 
  "/>
<polyline clip-path="url(#clip690)" style="stroke:#000000; stroke-width:4; stroke-opacity:1; fill:none" points="
  187.652,71.994 212.481,71.994 
  "/>
<path clip-path="url(#clip690)" d="M 0 0 M187.652 1381.33 Q184.041 1381.33 182.212 1384.9 Q180.407 1388.44 180.407 1395.57 Q180.407 1402.67 182.212 1406.24 Q184.041 1409.78 187.652 1409.78 Q191.286 1409.78 193.092 1406.24 Q194.92 1402.67 194.92 1395.57 Q194.92 1388.44 193.092 1384.9 Q191.286 1381.33 187.652 1381.33 M187.652 1377.63 Q193.462 1377.63 196.518 1382.23 Q199.596 1386.82 199.596 1395.57 Q199.596 1404.29 196.518 1408.9 Q193.462 1413.48 187.652 1413.48 Q181.842 1413.48 178.763 1408.9 Q175.708 1404.29 175.708 1395.57 Q175.708 1386.82 178.763 1382.23 Q181.842 1377.63 187.652 1377.63 Z" fill="#000000" fill-rule="evenodd" fill-opacity="1" /><path clip-path="url(#clip690)" d="M 0 0 M681.803 1408.88 L689.442 1408.88 L689.442 1382.51 L681.132 1384.18 L681.132 1379.92 L689.396 1378.25 L694.072 1378.25 L694.072 1408.88 L701.71 1408.88 L701.71 1412.81 L681.803 1412.81 L681.803 1408.88 Z" fill="#000000" fill-rule="evenodd" fill-opacity="1" /><path clip-path="url(#clip690)" d="M 0 0 M716.78 1381.33 Q713.169 1381.33 711.34 1384.9 Q709.534 1388.44 709.534 1395.57 Q709.534 1402.67 711.34 1406.24 Q713.169 1409.78 716.78 1409.78 Q720.414 1409.78 722.22 1406.24 Q724.048 1402.67 724.048 1395.57 Q724.048 1388.44 722.22 1384.9 Q720.414 1381.33 716.78 1381.33 M716.78 1377.63 Q722.59 1377.63 725.645 1382.23 Q728.724 1386.82 728.724 1395.57 Q728.724 1404.29 725.645 1408.9 Q722.59 1413.48 716.78 1413.48 Q710.97 1413.48 707.891 1408.9 Q704.835 1404.29 704.835 1395.57 Q704.835 1386.82 707.891 1382.23 Q710.97 1377.63 716.78 1377.63 Z" fill="#000000" fill-rule="evenodd" fill-opacity="1" /><path clip-path="url(#clip690)" d="M 0 0 M1203.35 1408.88 L1219.67 1408.88 L1219.67 1412.81 L1197.72 1412.81 L1197.72 1408.88 Q1200.39 1406.12 1204.97 1401.49 Q1209.58 1396.84 1210.76 1395.5 Q1213 1392.97 1213.88 1391.24 Q1214.78 1389.48 1214.78 1387.79 Q1214.78 1385.03 1212.84 1383.3 Q1210.92 1381.56 1207.82 1381.56 Q1205.62 1381.56 1203.16 1382.33 Q1200.73 1383.09 1197.96 1384.64 L1197.96 1379.92 Q1200.78 1378.78 1203.23 1378.21 Q1205.69 1377.63 1207.72 1377.63 Q1213.1 1377.63 1216.29 1380.31 Q1219.48 1383 1219.48 1387.49 Q1219.48 1389.62 1218.67 1391.54 Q1217.89 1393.44 1215.78 1396.03 Q1215.2 1396.7 1212.1 1399.92 Q1209 1403.11 1203.35 1408.88 Z" fill="#000000" fill-rule="evenodd" fill-opacity="1" /><path clip-path="url(#clip690)" d="M 0 0 M1234.74 1381.33 Q1231.13 1381.33 1229.3 1384.9 Q1227.49 1388.44 1227.49 1395.57 Q1227.49 1402.67 1229.3 1406.24 Q1231.13 1409.78 1234.74 1409.78 Q1238.37 1409.78 1240.18 1406.24 Q1242.01 1402.67 1242.01 1395.57 Q1242.01 1388.44 1240.18 1384.9 Q1238.37 1381.33 1234.74 1381.33 M1234.74 1377.63 Q1240.55 1377.63 1243.6 1382.23 Q1246.68 1386.82 1246.68 1395.57 Q1246.68 1404.29 1243.6 1408.9 Q1240.55 1413.48 1234.74 1413.48 Q1228.93 1413.48 1225.85 1408.9 Q1222.79 1404.29 1222.79 1395.57 Q1222.79 1386.82 1225.85 1382.23 Q1228.93 1377.63 1234.74 1377.63 Z" fill="#000000" fill-rule="evenodd" fill-opacity="1" /><path clip-path="url(#clip690)" d="M 0 0 M1730.22 1394.18 Q1733.58 1394.9 1735.45 1397.16 Q1737.35 1399.43 1737.35 1402.77 Q1737.35 1407.88 1733.83 1410.68 Q1730.31 1413.48 1723.83 1413.48 Q1721.66 1413.48 1719.34 1413.04 Q1717.05 1412.63 1714.6 1411.77 L1714.6 1407.26 Q1716.54 1408.39 1718.86 1408.97 Q1721.17 1409.55 1723.69 1409.55 Q1728.09 1409.55 1730.38 1407.81 Q1732.7 1406.08 1732.7 1402.77 Q1732.7 1399.71 1730.54 1398 Q1728.42 1396.26 1724.6 1396.26 L1720.57 1396.26 L1720.57 1392.42 L1724.78 1392.42 Q1728.23 1392.42 1730.06 1391.05 Q1731.89 1389.66 1731.89 1387.07 Q1731.89 1384.41 1729.99 1383 Q1728.11 1381.56 1724.6 1381.56 Q1722.67 1381.56 1720.48 1381.98 Q1718.28 1382.4 1715.64 1383.27 L1715.64 1379.11 Q1718.3 1378.37 1720.61 1378 Q1722.95 1377.63 1725.01 1377.63 Q1730.34 1377.63 1733.44 1380.06 Q1736.54 1382.46 1736.54 1386.59 Q1736.54 1389.46 1734.9 1391.45 Q1733.25 1393.41 1730.22 1394.18 Z" fill="#000000" fill-rule="evenodd" fill-opacity="1" /><path clip-path="url(#clip690)" d="M 0 0 M1752.42 1381.33 Q1748.81 1381.33 1746.98 1384.9 Q1745.17 1388.44 1745.17 1395.57 Q1745.17 1402.67 1746.98 1406.24 Q1748.81 1409.78 1752.42 1409.78 Q1756.05 1409.78 1757.86 1406.24 Q1759.69 1402.67 1759.69 1395.57 Q1759.69 1388.44 1757.86 1384.9 Q1756.05 1381.33 1752.42 1381.33 M1752.42 1377.63 Q1758.23 1377.63 1761.29 1382.23 Q1764.36 1386.82 1764.36 1395.57 Q1764.36 1404.29 1761.29 1408.9 Q1758.23 1413.48 1752.42 1413.48 Q1746.61 1413.48 1743.53 1408.9 Q1740.48 1404.29 1740.48 1395.57 Q1740.48 1386.82 1743.53 1382.23 Q1746.61 1377.63 1752.42 1377.63 Z" fill="#000000" fill-rule="evenodd" fill-opacity="1" /><path clip-path="url(#clip690)" d="M 0 0 M2246.26 1382.33 L2234.45 1400.77 L2246.26 1400.77 L2246.26 1382.33 M2245.03 1378.25 L2250.91 1378.25 L2250.91 1400.77 L2255.84 1400.77 L2255.84 1404.66 L2250.91 1404.66 L2250.91 1412.81 L2246.26 1412.81 L2246.26 1404.66 L2230.66 1404.66 L2230.66 1400.15 L2245.03 1378.25 Z" fill="#000000" fill-rule="evenodd" fill-opacity="1" /><path clip-path="url(#clip690)" d="M 0 0 M2270.91 1381.33 Q2267.3 1381.33 2265.47 1384.9 Q2263.67 1388.44 2263.67 1395.57 Q2263.67 1402.67 2265.47 1406.24 Q2267.3 1409.78 2270.91 1409.78 Q2274.55 1409.78 2276.35 1406.24 Q2278.18 1402.67 2278.18 1395.57 Q2278.18 1388.44 2276.35 1384.9 Q2274.55 1381.33 2270.91 1381.33 M2270.91 1377.63 Q2276.72 1377.63 2279.78 1382.23 Q2282.86 1386.82 2282.86 1395.57 Q2282.86 1404.29 2279.78 1408.9 Q2276.72 1413.48 2270.91 1413.48 Q2265.1 1413.48 2262.02 1408.9 Q2258.97 1404.29 2258.97 1395.57 Q2258.97 1386.82 2262.02 1382.23 Q2265.1 1377.63 2270.91 1377.63 Z" fill="#000000" fill-rule="evenodd" fill-opacity="1" /><path clip-path="url(#clip690)" d="M 0 0 M152.668 1308.28 Q149.056 1308.28 147.228 1311.85 Q145.422 1315.39 145.422 1322.52 Q145.422 1329.62 147.228 1333.19 Q149.056 1336.73 152.668 1336.73 Q156.302 1336.73 158.107 1333.19 Q159.936 1329.62 159.936 1322.52 Q159.936 1315.39 158.107 1311.85 Q156.302 1308.28 152.668 1308.28 M152.668 1304.58 Q158.478 1304.58 161.533 1309.18 Q164.612 1313.77 164.612 1322.52 Q164.612 1331.24 161.533 1335.85 Q158.478 1340.43 152.668 1340.43 Q146.857 1340.43 143.779 1335.85 Q140.723 1331.24 140.723 1322.52 Q140.723 1313.77 143.779 1309.18 Q146.857 1304.58 152.668 1304.58 Z" fill="#000000" fill-rule="evenodd" fill-opacity="1" /><path clip-path="url(#clip690)" d="M 0 0 M95.2605 1023.2 L111.58 1023.2 L111.58 1027.14 L89.6355 1027.14 L89.6355 1023.2 Q92.2975 1020.45 96.8808 1015.82 Q101.487 1011.17 102.668 1009.83 Q104.913 1007.3 105.793 1005.57 Q106.696 1003.81 106.696 1002.12 Q106.696 999.362 104.751 997.626 Q102.83 995.89 99.728 995.89 Q97.529 995.89 95.0753 996.654 Q92.6447 997.418 89.867 998.969 L89.867 994.247 Q92.691 993.112 95.1447 992.534 Q97.5984 991.955 99.6354 991.955 Q105.006 991.955 108.2 994.64 Q111.395 997.325 111.395 1001.82 Q111.395 1003.95 110.584 1005.87 Q109.797 1007.77 107.691 1010.36 Q107.112 1011.03 104.01 1014.25 Q100.909 1017.44 95.2605 1023.2 Z" fill="#000000" fill-rule="evenodd" fill-opacity="1" /><path clip-path="url(#clip690)" d="M 0 0 M116.696 992.58 L135.052 992.58 L135.052 996.515 L120.978 996.515 L120.978 1004.99 Q121.996 1004.64 123.015 1004.48 Q124.033 1004.29 125.052 1004.29 Q130.839 1004.29 134.219 1007.46 Q137.598 1010.64 137.598 1016.05 Q137.598 1021.63 134.126 1024.73 Q130.654 1027.81 124.334 1027.81 Q122.158 1027.81 119.89 1027.44 Q117.645 1027.07 115.237 1026.33 L115.237 1021.63 Q117.321 1022.76 119.543 1023.32 Q121.765 1023.88 124.242 1023.88 Q128.246 1023.88 130.584 1021.77 Q132.922 1019.66 132.922 1016.05 Q132.922 1012.44 130.584 1010.33 Q128.246 1008.23 124.242 1008.23 Q122.367 1008.23 120.492 1008.64 Q118.64 1009.06 116.696 1009.94 L116.696 992.58 Z" fill="#000000" fill-rule="evenodd" fill-opacity="1" /><path clip-path="url(#clip690)" d="M 0 0 M152.668 995.659 Q149.056 995.659 147.228 999.223 Q145.422 1002.77 145.422 1009.89 Q145.422 1017 147.228 1020.57 Q149.056 1024.11 152.668 1024.11 Q156.302 1024.11 158.107 1020.57 Q159.936 1017 159.936 1009.89 Q159.936 1002.77 158.107 999.223 Q156.302 995.659 152.668 995.659 M152.668 991.955 Q158.478 991.955 161.533 996.561 Q164.612 1001.14 164.612 1009.89 Q164.612 1018.62 161.533 1023.23 Q158.478 1027.81 152.668 1027.81 Q146.857 1027.81 143.779 1023.23 Q140.723 1018.62 140.723 1009.89 Q140.723 1001.14 143.779 996.561 Q146.857 991.955 152.668 991.955 Z" fill="#000000" fill-rule="evenodd" fill-opacity="1" /><path clip-path="url(#clip690)" d="M 0 0 M89.6818 679.958 L108.038 679.958 L108.038 683.893 L93.9642 683.893 L93.9642 692.365 Q94.9827 692.018 96.0012 691.856 Q97.0197 691.671 98.0382 691.671 Q103.825 691.671 107.205 694.842 Q110.584 698.013 110.584 703.43 Q110.584 709.009 107.112 712.111 Q103.64 715.189 97.3206 715.189 Q95.1447 715.189 92.8762 714.819 Q90.6309 714.449 88.2235 713.708 L88.2235 709.009 Q90.3068 710.143 92.529 710.699 Q94.7512 711.254 97.2281 711.254 Q101.233 711.254 103.571 709.148 Q105.909 707.041 105.909 703.43 Q105.909 699.819 103.571 697.713 Q101.233 695.606 97.2281 695.606 Q95.3531 695.606 93.4781 696.023 Q91.6262 696.439 89.6818 697.319 L89.6818 679.958 Z" fill="#000000" fill-rule="evenodd" fill-opacity="1" /><path clip-path="url(#clip690)" d="M 0 0 M125.654 683.037 Q122.043 683.037 120.214 686.601 Q118.408 690.143 118.408 697.273 Q118.408 704.379 120.214 707.944 Q122.043 711.486 125.654 711.486 Q129.288 711.486 131.094 707.944 Q132.922 704.379 132.922 697.273 Q132.922 690.143 131.094 686.601 Q129.288 683.037 125.654 683.037 M125.654 679.333 Q131.464 679.333 134.52 683.939 Q137.598 688.523 137.598 697.273 Q137.598 705.999 134.52 710.606 Q131.464 715.189 125.654 715.189 Q119.844 715.189 116.765 710.606 Q113.709 705.999 113.709 697.273 Q113.709 688.523 116.765 683.939 Q119.844 679.333 125.654 679.333 Z" fill="#000000" fill-rule="evenodd" fill-opacity="1" /><path clip-path="url(#clip690)" d="M 0 0 M152.668 683.037 Q149.056 683.037 147.228 686.601 Q145.422 690.143 145.422 697.273 Q145.422 704.379 147.228 707.944 Q149.056 711.486 152.668 711.486 Q156.302 711.486 158.107 707.944 Q159.936 704.379 159.936 697.273 Q159.936 690.143 158.107 686.601 Q156.302 683.037 152.668 683.037 M152.668 679.333 Q158.478 679.333 161.533 683.939 Q164.612 688.523 164.612 697.273 Q164.612 705.999 161.533 710.606 Q158.478 715.189 152.668 715.189 Q146.857 715.189 143.779 710.606 Q140.723 705.999 140.723 697.273 Q140.723 688.523 143.779 683.939 Q146.857 679.333 152.668 679.333 Z" fill="#000000" fill-rule="evenodd" fill-opacity="1" /><path clip-path="url(#clip690)" d="M 0 0 M89.3577 367.336 L111.58 367.336 L111.58 369.327 L99.0336 401.896 L94.1494 401.896 L105.955 371.271 L89.3577 371.271 L89.3577 367.336 Z" fill="#000000" fill-rule="evenodd" fill-opacity="1" /><path clip-path="url(#clip690)" d="M 0 0 M116.696 367.336 L135.052 367.336 L135.052 371.271 L120.978 371.271 L120.978 379.743 Q121.996 379.396 123.015 379.234 Q124.033 379.049 125.052 379.049 Q130.839 379.049 134.219 382.22 Q137.598 385.391 137.598 390.808 Q137.598 396.387 134.126 399.489 Q130.654 402.567 124.334 402.567 Q122.158 402.567 119.89 402.197 Q117.645 401.827 115.237 401.086 L115.237 396.387 Q117.321 397.521 119.543 398.077 Q121.765 398.632 124.242 398.632 Q128.246 398.632 130.584 396.526 Q132.922 394.419 132.922 390.808 Q132.922 387.197 130.584 385.091 Q128.246 382.984 124.242 382.984 Q122.367 382.984 120.492 383.401 Q118.64 383.817 116.696 384.697 L116.696 367.336 Z" fill="#000000" fill-rule="evenodd" fill-opacity="1" /><path clip-path="url(#clip690)" d="M 0 0 M152.668 370.415 Q149.056 370.415 147.228 373.979 Q145.422 377.521 145.422 384.651 Q145.422 391.757 147.228 395.322 Q149.056 398.864 152.668 398.864 Q156.302 398.864 158.107 395.322 Q159.936 391.757 159.936 384.651 Q159.936 377.521 158.107 373.979 Q156.302 370.415 152.668 370.415 M152.668 366.711 Q158.478 366.711 161.533 371.317 Q164.612 375.901 164.612 384.651 Q164.612 393.378 161.533 397.984 Q158.478 402.567 152.668 402.567 Q146.857 402.567 143.779 397.984 Q140.723 393.378 140.723 384.651 Q140.723 375.901 143.779 371.317 Q146.857 366.711 152.668 366.711 Z" fill="#000000" fill-rule="evenodd" fill-opacity="1" /><path clip-path="url(#clip690)" d="M 0 0 M63.6634 85.3388 L71.3023 85.3388 L71.3023 58.9732 L62.9921 60.6399 L62.9921 56.3807 L71.256 54.714 L75.9319 54.714 L75.9319 85.3388 L83.5707 85.3388 L83.5707 89.274 L63.6634 89.274 L63.6634 85.3388 Z" fill="#000000" fill-rule="evenodd" fill-opacity="1" /><path clip-path="url(#clip690)" d="M 0 0 M98.6401 57.7927 Q95.029 57.7927 93.2003 61.3575 Q91.3948 64.8991 91.3948 72.0287 Q91.3948 79.1352 93.2003 82.7 Q95.029 86.2416 98.6401 86.2416 Q102.274 86.2416 104.08 82.7 Q105.909 79.1352 105.909 72.0287 Q105.909 64.8991 104.08 61.3575 Q102.274 57.7927 98.6401 57.7927 M98.6401 54.089 Q104.45 54.089 107.506 58.6955 Q110.584 63.2788 110.584 72.0287 Q110.584 80.7555 107.506 85.362 Q104.45 89.9453 98.6401 89.9453 Q92.8299 89.9453 89.7512 85.362 Q86.6957 80.7555 86.6957 72.0287 Q86.6957 63.2788 89.7512 58.6955 Q92.8299 54.089 98.6401 54.089 Z" fill="#000000" fill-rule="evenodd" fill-opacity="1" /><path clip-path="url(#clip690)" d="M 0 0 M125.654 57.7927 Q122.043 57.7927 120.214 61.3575 Q118.408 64.8991 118.408 72.0287 Q118.408 79.1352 120.214 82.7 Q122.043 86.2416 125.654 86.2416 Q129.288 86.2416 131.094 82.7 Q132.922 79.1352 132.922 72.0287 Q132.922 64.8991 131.094 61.3575 Q129.288 57.7927 125.654 57.7927 M125.654 54.089 Q131.464 54.089 134.52 58.6955 Q137.598 63.2788 137.598 72.0287 Q137.598 80.7555 134.52 85.362 Q131.464 89.9453 125.654 89.9453 Q119.844 89.9453 116.765 85.362 Q113.709 80.7555 113.709 72.0287 Q113.709 63.2788 116.765 58.6955 Q119.844 54.089 125.654 54.089 Z" fill="#000000" fill-rule="evenodd" fill-opacity="1" /><path clip-path="url(#clip690)" d="M 0 0 M152.668 57.7927 Q149.056 57.7927 147.228 61.3575 Q145.422 64.8991 145.422 72.0287 Q145.422 79.1352 147.228 82.7 Q149.056 86.2416 152.668 86.2416 Q156.302 86.2416 158.107 82.7 Q159.936 79.1352 159.936 72.0287 Q159.936 64.8991 158.107 61.3575 Q156.302 57.7927 152.668 57.7927 M152.668 54.089 Q158.478 54.089 161.533 58.6955 Q164.612 63.2788 164.612 72.0287 Q164.612 80.7555 161.533 85.362 Q158.478 89.9453 152.668 89.9453 Q146.857 89.9453 143.779 85.362 Q140.723 80.7555 140.723 72.0287 Q140.723 63.2788 143.779 58.6955 Q146.857 54.089 152.668 54.089 Z" fill="#000000" fill-rule="evenodd" fill-opacity="1" /><path clip-path="url(#clip690)" d="M 0 0 M1221.26 1445.95 L1221.26 1456.08 L1233.33 1456.08 L1233.33 1460.63 L1221.26 1460.63 L1221.26 1479.98 Q1221.26 1484.34 1222.44 1485.58 Q1223.65 1486.82 1227.31 1486.82 L1233.33 1486.82 L1233.33 1491.72 L1227.31 1491.72 Q1220.53 1491.72 1217.95 1489.21 Q1215.38 1486.66 1215.38 1479.98 L1215.38 1460.63 L1211.08 1460.63 L1211.08 1456.08 L1215.38 1456.08 L1215.38 1445.95 L1221.26 1445.95 Z" fill="#000000" fill-rule="evenodd" fill-opacity="1" /><polyline clip-path="url(#clip692)" style="stroke:#009af9; stroke-width:4; stroke-opacity:1; fill:none" points="
  187.652,84.4989 187.652,84.4981 187.652,84.4993 187.652,84.5 187.652,84.4992 187.652,84.4994 187.652,84.4993 187.652,84.5009 187.652,84.5015 187.652,84.5013 
  187.652,84.5015 187.652,84.5006 187.652,84.5 187.652,84.5012 187.652,84.5031 187.652,84.5031 187.652,84.5026 187.652,84.5011 187.652,84.5022 187.652,84.5015 
  187.652,84.5 187.652,84.4999 187.652,84.5003 187.652,84.4973 187.652,84.4962 187.652,84.5 187.652,84.4966 187.653,84.5001 187.653,84.4991 187.653,84.4985 
  187.653,84.505 187.653,84.5057 187.653,84.5034 187.653,84.5034 187.653,84.504 187.654,84.4938 187.654,84.5013 187.654,84.5004 187.654,84.5066 187.655,84.5095 
  187.655,84.5108 187.655,84.5172 187.656,84.5162 187.656,84.525 187.657,84.5178 187.657,84.4996 187.658,84.5111 187.659,84.5172 187.659,84.5149 187.66,84.5121 
  187.661,84.5513 187.663,84.5349 187.664,84.5299 187.665,84.5528 187.667,84.5537 187.669,84.5847 187.671,84.564 187.673,84.5401 187.676,84.5138 187.679,84.5316 
  187.682,84.4968 187.686,84.4902 187.691,84.5028 187.695,84.4834 187.701,84.4524 187.707,84.4993 187.714,84.5138 187.722,84.5059 187.73,84.5482 187.74,84.5036 
  187.751,84.4363 187.764,84.4606 187.778,84.4673 187.793,84.4051 187.811,84.3925 187.831,84.4802 187.853,84.541 187.878,84.5429 187.907,84.6055 187.938,84.6292 
  187.971,84.5348 188.007,84.607 188.048,84.7214 188.095,84.6878 188.146,84.7875 188.205,84.8314 188.271,84.913 188.345,84.9178 188.428,84.9456 188.521,84.9526 
  188.627,84.9718 188.745,85.0167 188.878,85.0336 189.028,85.2922 189.197,85.1258 189.249,85.075 189.307,84.9254 189.372,85.027 189.446,85.0889 189.529,84.9429 
  189.622,84.928 189.727,84.8489 189.844,84.8063 189.977,84.8387 190.126,84.9833 190.294,85.1555 190.483,85.2005 190.588,85.231 190.707,85.3644 190.841,85.4814 
  190.991,85.5561 191.16,85.7007 191.35,86.0901 191.564,86.2782 191.805,86.3491 192.059,86.454 192.344,86.1852 192.665,86.5773 193.026,86.7501 193.433,87.0908 
  193.89,86.8071 194.404,86.9465 194.983,87.2921 195.634,87.4067 196.366,87.6134 197.19,87.4844 198.117,87.4167 199.16,87.6928 200.333,88.2408 201.653,87.6486 
  202.154,87.7142 202.717,87.9172 203.351,88.784 203.681,88.9449 204.052,88.9801 204.47,88.7252 204.94,88.759 205.468,89.1357 206.063,88.8022 206.732,89.0595 
  207.484,89.5641 208.331,89.1941 209.283,89.5838 210.355,88.7732 210.968,88.2809 211.659,88.0889 212.435,88.1246 213.309,87.802 214.292,87.6852 215.397,87.5768 
  216.641,88.1381 218.04,89.2279 218.494,89.0577 219.005,88.9666 219.579,88.9076 220.225,89.085 220.952,89.1677 221.77,88.8882 222.69,88.32 223.398,88.9494 
  224.196,88.9819 225.093,89.2646 226.102,89.3423 227.237,89.7984 228.514,89.6646 229.951,90.2426 231.568,90.4553 232.929,90.7237 234.46,91.0248 236.182,91.7359 
  238.12,91.8776 240.3,92.3055 242.752,93.0668 245.511,94.2633 248.615,95.1074 250.877,94.7245 252.511,95.3665 254.35,96.7981 255.985,95.9124 257.825,96.5275 
  259.894,96.6341 262.223,97.4356 264.842,96.8515 267.789,97.5684 271.104,97.9584 274.833,98.8652 279.029,100.748 283.749,99.4999 285.691,99.3747 287.877,99.6784 
  290.336,100.085 293.102,99.8947 296.214,100.219 299.465,101.465 303.123,102.769 307.238,103.841 311.868,105.085 317.076,106.773 322.935,107.36 325.247,108.158 
  327.848,107.992 330.775,108.639 334.067,110.986 337.77,111.314 341.936,112.638 346.624,111.762 351.292,112.667 355.863,112.877 361.005,112.997 366.79,114.067 
  373.298,117.862 379.412,117.32 386.291,119.809 394.03,120.71 402.736,122.173 412.53,125.11 423.549,130.466 435.944,135.96 448.177,137.993 461.939,144.366 
  477.422,148.091 489.143,150.296 502.329,155.657 517.163,164.029 528.479,174.359 538.798,184.091 550.407,191.107 563.466,196.37 578.159,201.596 591.174,209.93 
  597.83,214.845 605.319,222.32 613.744,226.056 623.222,232.614 633.885,238.089 645.88,241.173 658.251,252.319 672.168,262.589 687.825,273.362 705.439,291.235 
  725.254,309.784 747.547,326.056 772.626,343.575 800.84,370.147 832.581,408.435 868.289,450.317 908.461,491.962 953.654,550.962 1004.5,608.487 1048.12,663.959 
  1097.19,720.274 1151.9,793.314 1204.21,839.905 1263.05,897.311 1322.2,948.761 1388.74,990.989 1450.8,1016.59 1520.62,1041.93 1589.38,1059.04 1659.44,1077.39 
  1718.31,1080.02 1784.55,1084.92 1817.03,1085.04 1853.56,1088.65 1894.67,1090.36 1940.91,1090.77 1989.59,1099.14 2016.8,1099.04 2047.42,1100.21 2081.08,1100.08 
  2118.95,1100.58 2147.18,1100.59 2178.93,1100.35 2214.65,1101.45 2245.98,1101.13 2256.76,1101.47 
  "/>
<polyline clip-path="url(#clip692)" style="stroke:#e26f46; stroke-width:4; stroke-opacity:1; fill:none" points="
  187.652,1309.98 187.652,1309.98 187.652,1309.98 187.652,1309.97 187.652,1309.98 187.652,1309.97 187.652,1309.97 187.652,1309.97 187.652,1309.97 187.652,1309.97 
  187.652,1309.97 187.652,1309.97 187.652,1309.97 187.652,1309.97 187.652,1309.97 187.652,1309.97 187.652,1309.97 187.652,1309.97 187.652,1309.97 187.652,1309.97 
  187.652,1309.97 187.652,1309.98 187.652,1309.98 187.652,1309.98 187.652,1309.98 187.652,1309.98 187.652,1309.98 187.653,1309.98 187.653,1309.98 187.653,1309.99 
  187.653,1309.98 187.653,1309.98 187.653,1309.99 187.653,1309.99 187.653,1309.98 187.654,1309.99 187.654,1309.99 187.654,1309.99 187.654,1309.98 187.655,1309.97 
  187.655,1309.97 187.655,1309.97 187.656,1309.98 187.656,1309.97 187.657,1309.98 187.657,1309.99 187.658,1309.97 187.659,1309.96 187.659,1309.97 187.66,1309.99 
  187.661,1309.95 187.663,1309.96 187.664,1309.95 187.665,1309.91 187.667,1309.89 187.669,1309.86 187.671,1309.91 187.673,1309.92 187.676,1309.97 187.679,1309.96 
  187.682,1309.99 187.686,1310.02 187.691,1309.97 187.695,1310.01 187.701,1310.04 187.707,1309.97 187.714,1309.97 187.722,1310 187.73,1309.97 187.74,1310 
  187.751,1310.12 187.764,1310.09 187.778,1310.13 187.793,1310.19 187.811,1310.25 187.831,1310.16 187.853,1310.13 187.878,1310.12 187.907,1310.01 187.938,1310.09 
  187.971,1310.13 188.007,1310.07 188.048,1309.89 188.095,1309.95 188.146,1309.81 188.205,1309.75 188.271,1309.66 188.345,1309.52 188.428,1309.42 188.521,1309.47 
  188.627,1309.35 188.745,1309.32 188.878,1309.38 189.028,1308.99 189.197,1309.56 189.249,1309.69 189.307,1309.82 189.372,1309.84 189.446,1309.86 189.529,1309.87 
  189.622,1310.04 189.727,1310.06 189.844,1310.1 189.977,1310.1 190.126,1309.9 190.294,1309.62 190.483,1309.39 190.588,1309.42 190.707,1309.12 190.841,1309.03 
  190.991,1308.87 191.16,1308.95 191.35,1308.6 191.564,1308.51 191.805,1308.72 192.059,1308.82 192.344,1309.06 192.665,1308.68 193.026,1308.71 193.433,1308.54 
  193.89,1308.71 194.404,1308.61 194.983,1308.14 195.634,1308.15 196.366,1307.83 197.19,1307.58 198.117,1308.11 199.16,1308.12 200.333,1307.44 201.653,1308.8 
  202.154,1308.73 202.717,1308.59 203.351,1307.79 203.681,1307.58 204.052,1307.48 204.47,1307.93 204.94,1307.75 205.468,1307.42 206.063,1307.82 206.732,1307.52 
  207.484,1306.97 208.331,1307.85 209.283,1307.61 210.355,1308.83 210.968,1309.35 211.659,1309.77 212.435,1309.8 213.309,1309.87 214.292,1310.15 215.397,1310.74 
  216.641,1310.47 218.04,1309.63 218.494,1309.49 219.005,1309.48 219.579,1309.62 220.225,1309.88 220.952,1309.67 221.77,1309.89 222.69,1310.08 223.398,1309.73 
  224.196,1309.99 225.093,1309.71 226.102,1309.71 227.237,1309.41 228.514,1309.54 229.951,1308.68 231.568,1308.45 232.929,1307.87 234.46,1307.79 236.182,1307.36 
  238.12,1307.08 240.3,1306.59 242.752,1305.5 245.511,1304.96 248.615,1304.51 250.877,1306.24 252.511,1305.84 254.35,1304.23 255.985,1305.45 257.825,1305.23 
  259.894,1304.92 262.223,1303.72 264.842,1305.33 267.789,1304.68 271.104,1304.59 274.833,1304.71 279.029,1302.25 283.749,1303.51 285.691,1303.98 287.877,1304.49 
  290.336,1303.97 293.102,1304.56 296.214,1303.54 299.465,1303.45 303.123,1302.17 307.238,1301.36 311.868,1300.59 317.076,1299.88 322.935,1298.08 325.247,1297.71 
  327.848,1297.27 330.775,1296.64 334.067,1294.99 337.77,1295.57 341.936,1295.73 346.624,1298.45 351.292,1299.82 355.863,1299.04 361.005,1298.92 366.79,1298.82 
  373.298,1295.97 379.412,1297.63 386.291,1296.15 394.03,1295.02 402.736,1293.37 412.53,1291.15 423.549,1288.54 435.944,1285.6 448.177,1285.28 461.939,1282.76 
  477.422,1279.11 489.143,1279.19 502.329,1274.08 517.163,1266.71 528.479,1256.44 538.798,1253.24 550.407,1252.84 563.466,1253.03 578.159,1252.13 591.174,1242.6 
  597.83,1239.63 605.319,1236.36 613.744,1234.76 623.222,1230.07 633.885,1229.28 645.88,1229.81 658.251,1224.04 672.168,1221.21 687.825,1213.45 705.439,1204.13 
  725.254,1193.77 747.547,1197.83 772.626,1196.83 800.84,1183.03 832.581,1172.25 868.289,1160.4 908.461,1143.76 953.654,1129.08 1004.5,1115.13 1048.12,1112.46 
  1097.19,1099.16 1151.9,1076.74 1204.21,1087.82 1263.05,1087.57 1322.2,1099.46 1388.74,1131.26 1450.8,1161.04 1520.62,1202.13 1589.38,1221.46 1659.44,1224.38 
  1718.31,1250.12 1784.55,1275 1817.03,1283.78 1853.56,1280.4 1894.67,1287.92 1940.91,1296.31 1989.59,1291.96 2016.8,1295.93 2047.42,1302.68 2081.08,1304.82 
  2118.95,1311.06 2147.18,1310.33 2178.93,1313.9 2214.65,1315.61 2245.98,1316.8 2256.76,1317.96 
  "/>
<polyline clip-path="url(#clip692)" style="stroke:#3da44d; stroke-width:4; stroke-opacity:1; fill:none" points="
  187.652,1322.48 187.652,1322.48 187.652,1322.48 187.652,1322.48 187.652,1322.48 187.652,1322.48 187.652,1322.48 187.652,1322.48 187.652,1322.48 187.652,1322.48 
  187.652,1322.48 187.652,1322.48 187.652,1322.49 187.652,1322.48 187.652,1322.48 187.652,1322.49 187.652,1322.49 187.652,1322.48 187.652,1322.48 187.652,1322.48 
  187.652,1322.48 187.652,1322.48 187.652,1322.48 187.652,1322.48 187.652,1322.48 187.652,1322.48 187.652,1322.48 187.653,1322.48 187.653,1322.48 187.653,1322.47 
  187.653,1322.47 187.653,1322.47 187.653,1322.47 187.653,1322.47 187.653,1322.47 187.654,1322.47 187.654,1322.47 187.654,1322.47 187.654,1322.47 187.655,1322.48 
  187.655,1322.47 187.655,1322.47 187.656,1322.47 187.656,1322.46 187.657,1322.46 187.657,1322.46 187.658,1322.48 187.659,1322.48 187.659,1322.47 187.66,1322.46 
  187.661,1322.46 187.663,1322.46 187.664,1322.48 187.665,1322.49 187.667,1322.51 187.669,1322.51 187.671,1322.49 187.673,1322.5 187.676,1322.48 187.679,1322.46 
  187.682,1322.47 187.686,1322.45 187.691,1322.48 187.695,1322.46 187.701,1322.47 187.707,1322.49 187.714,1322.47 187.722,1322.46 187.73,1322.44 187.74,1322.45 
  187.751,1322.4 187.764,1322.41 187.778,1322.36 187.793,1322.36 187.811,1322.31 187.831,1322.31 187.853,1322.29 187.878,1322.3 187.907,1322.35 187.938,1322.24 
  187.971,1322.29 188.007,1322.28 188.048,1322.35 188.095,1322.32 188.146,1322.36 188.205,1322.38 188.271,1322.39 188.345,1322.52 188.428,1322.59 188.521,1322.53 
  188.627,1322.64 188.745,1322.62 188.878,1322.55 189.028,1322.67 189.197,1322.27 189.249,1322.2 189.307,1322.21 189.372,1322.09 189.446,1322.01 189.529,1322.14 
  189.622,1321.99 189.727,1322.05 189.844,1322.05 189.977,1322.02 190.126,1322.07 190.294,1322.18 190.483,1322.36 190.588,1322.3 190.707,1322.47 190.841,1322.45 
  190.991,1322.54 191.16,1322.3 191.35,1322.27 191.564,1322.16 191.805,1321.89 192.059,1321.69 192.344,1321.71 192.665,1321.7 193.026,1321.5 193.433,1321.32 
  193.89,1321.44 194.404,1321.4 194.983,1321.53 195.634,1321.4 196.366,1321.51 197.19,1321.9 198.117,1321.43 199.16,1321.15 200.333,1321.28 201.653,1320.51 
  202.154,1320.52 202.717,1320.45 203.351,1320.38 203.681,1320.43 204.052,1320.49 204.47,1320.3 204.94,1320.45 205.468,1320.4 206.063,1320.33 206.732,1320.38 
  207.484,1320.43 208.331,1319.91 209.283,1319.76 210.355,1319.35 210.968,1319.33 211.659,1319.1 212.435,1319.03 213.309,1319.28 214.292,1319.12 215.397,1318.65 
  216.641,1318.35 218.04,1318.1 218.494,1318.41 219.005,1318.51 219.579,1318.43 220.225,1317.99 220.952,1318.12 221.77,1318.18 222.69,1318.56 223.398,1318.27 
  224.196,1317.98 225.093,1317.98 226.102,1317.91 227.237,1317.75 228.514,1317.75 229.951,1318.03 231.568,1318.05 232.929,1318.36 234.46,1318.14 236.182,1317.86 
  238.12,1318 240.3,1318.06 242.752,1318.39 245.511,1317.74 248.615,1317.34 250.877,1315.99 252.511,1315.75 254.35,1315.93 255.985,1315.6 257.825,1315.2 
  259.894,1315.4 262.223,1315.81 264.842,1314.78 267.789,1314.71 271.104,1314.41 274.833,1313.38 279.029,1313.96 283.749,1313.94 285.691,1313.6 287.877,1312.79 
  290.336,1312.9 293.102,1312.51 296.214,1313.2 299.465,1312.04 303.123,1312.02 307.238,1311.75 311.868,1311.28 317.076,1310.3 322.935,1311.52 325.247,1311.09 
  327.848,1311.69 330.775,1311.68 334.067,1310.98 337.77,1310.07 341.936,1308.58 346.624,1306.75 351.292,1304.47 355.863,1305.04 361.005,1305.04 366.79,1304.07 
  373.298,1303.13 379.412,1302.01 386.291,1301 394.03,1301.22 402.736,1301.41 412.53,1300.7 423.549,1297.95 435.944,1295.4 448.177,1293.69 461.939,1289.83 
  477.422,1289.75 489.143,1287.48 502.329,1287.22 517.163,1286.22 528.479,1286.16 538.798,1279.62 550.407,1273.01 563.466,1267.56 578.159,1263.24 591.174,1264.43 
  597.83,1262.48 605.319,1258.28 613.744,1256.14 623.222,1254.28 633.885,1249.59 645.88,1245.97 658.251,1240.6 672.168,1233.16 687.825,1230.14 705.439,1221.59 
  725.254,1213.4 747.547,1193.07 772.626,1176.55 800.84,1163.79 832.581,1136.27 868.289,1106.24 908.461,1081.23 953.654,1036.91 1004.5,993.337 1048.12,940.543 
  1097.19,897.521 1151.9,846.906 1204.21,789.231 1263.05,732.078 1322.2,668.739 1388.74,594.708 1450.8,539.335 1520.62,472.896 1589.38,436.454 1659.44,415.194 
  1718.31,386.821 1784.55,357.036 1817.03,348.134 1853.56,347.907 1894.67,338.675 1940.91,329.88 1989.59,325.856 2016.8,321.981 2047.42,314.072 2081.08,312.056 
  2118.95,305.316 2147.18,306.041 2178.93,302.707 2214.65,299.896 2245.98,299.036 2256.76,297.526 
  "/>
<path clip-path="url(#clip690)" d="
M1952.86 272.437 L2256.76 272.437 L2256.76 30.5166 L1952.86 30.5166  Z
  " fill="#ffffff" fill-rule="evenodd" fill-opacity="1"/>
<polyline clip-path="url(#clip690)" style="stroke:#000000; stroke-width:4; stroke-opacity:1; fill:none" points="
  1952.86,272.437 2256.76,272.437 2256.76,30.5166 1952.86,30.5166 1952.86,272.437 
  "/>
<polyline clip-path="url(#clip690)" style="stroke:#009af9; stroke-width:4; stroke-opacity:1; fill:none" points="
  1975.9,90.9966 2114.14,90.9966 
  "/>
<path clip-path="url(#clip690)" d="M 0 0 M2159.43 74.8509 L2159.43 79.411 Q2156.76 78.1379 2154.4 77.5129 Q2152.04 76.8879 2149.84 76.8879 Q2146.02 76.8879 2143.94 78.3694 Q2141.88 79.8508 2141.88 82.5823 Q2141.88 84.874 2143.25 86.0545 Q2144.63 87.2119 2148.48 87.9295 L2151.3 88.5082 Q2156.53 89.5036 2159.01 92.0267 Q2161.51 94.5267 2161.51 98.7396 Q2161.51 103.763 2158.13 106.355 Q2154.77 108.948 2148.27 108.948 Q2145.82 108.948 2143.04 108.392 Q2140.28 107.837 2137.32 106.749 L2137.32 101.934 Q2140.17 103.531 2142.9 104.341 Q2145.63 105.152 2148.27 105.152 Q2152.27 105.152 2154.45 103.578 Q2156.63 102.004 2156.63 99.0869 Q2156.63 96.5406 2155.05 95.1054 Q2153.5 93.6702 2149.94 92.9526 L2147.09 92.3971 Q2141.86 91.3554 2139.52 89.1332 Q2137.18 86.911 2137.18 82.9527 Q2137.18 78.3694 2140.4 75.7305 Q2143.64 73.0916 2149.31 73.0916 Q2151.74 73.0916 2154.26 73.5314 Q2156.79 73.9712 2159.43 74.8509 Z" fill="#000000" fill-rule="evenodd" fill-opacity="1" /><path clip-path="url(#clip690)" d="M 0 0 M2176.21 72.3046 Q2173.11 77.6286 2171.6 82.8369 Q2170.1 88.0452 2170.1 93.3924 Q2170.1 98.7396 2171.6 103.994 Q2173.13 109.226 2176.21 114.527 L2172.5 114.527 Q2169.03 109.087 2167.3 103.832 Q2165.58 98.5776 2165.58 93.3924 Q2165.58 88.2304 2167.3 82.999 Q2169.01 77.7675 2172.5 72.3046 L2176.21 72.3046 Z" fill="#000000" fill-rule="evenodd" fill-opacity="1" /><path clip-path="url(#clip690)" d="M 0 0 M2184.89 74.9898 L2184.89 82.3508 L2193.66 82.3508 L2193.66 85.661 L2184.89 85.661 L2184.89 99.735 Q2184.89 102.906 2185.75 103.809 Q2186.63 104.712 2189.29 104.712 L2193.66 104.712 L2193.66 108.277 L2189.29 108.277 Q2184.36 108.277 2182.48 106.448 Q2180.61 104.596 2180.61 99.735 L2180.61 85.661 L2177.48 85.661 L2177.48 82.3508 L2180.61 82.3508 L2180.61 74.9898 L2184.89 74.9898 Z" fill="#000000" fill-rule="evenodd" fill-opacity="1" /><path clip-path="url(#clip690)" d="M 0 0 M2197.46 72.3046 L2201.16 72.3046 Q2204.63 77.7675 2206.35 82.999 Q2208.08 88.2304 2208.08 93.3924 Q2208.08 98.5776 2206.35 103.832 Q2204.63 109.087 2201.16 114.527 L2197.46 114.527 Q2200.54 109.226 2202.04 103.994 Q2203.57 98.7396 2203.57 93.3924 Q2203.57 88.0452 2202.04 82.8369 Q2200.54 77.6286 2197.46 72.3046 Z" fill="#000000" fill-rule="evenodd" fill-opacity="1" /><polyline clip-path="url(#clip690)" style="stroke:#e26f46; stroke-width:4; stroke-opacity:1; fill:none" points="
  1975.9,151.477 2114.14,151.477 
  "/>
<path clip-path="url(#clip690)" d="M 0 0 M2137.18 134.197 L2141.86 134.197 L2141.86 168.757 L2137.18 168.757 L2137.18 134.197 Z" fill="#000000" fill-rule="evenodd" fill-opacity="1" /><path clip-path="url(#clip690)" d="M 0 0 M2156.56 132.785 Q2153.45 138.109 2151.95 143.317 Q2150.44 148.525 2150.44 153.872 Q2150.44 159.22 2151.95 164.474 Q2153.48 169.706 2156.56 175.007 L2152.85 175.007 Q2149.38 169.567 2147.64 164.312 Q2145.93 159.058 2145.93 153.872 Q2145.93 148.71 2147.64 143.479 Q2149.36 138.248 2152.85 132.785 L2156.56 132.785 Z" fill="#000000" fill-rule="evenodd" fill-opacity="1" /><path clip-path="url(#clip690)" d="M 0 0 M2165.24 135.47 L2165.24 142.831 L2174.01 142.831 L2174.01 146.141 L2165.24 146.141 L2165.24 160.215 Q2165.24 163.386 2166.09 164.289 Q2166.97 165.192 2169.63 165.192 L2174.01 165.192 L2174.01 168.757 L2169.63 168.757 Q2164.7 168.757 2162.83 166.928 Q2160.95 165.076 2160.95 160.215 L2160.95 146.141 L2157.83 146.141 L2157.83 142.831 L2160.95 142.831 L2160.95 135.47 L2165.24 135.47 Z" fill="#000000" fill-rule="evenodd" fill-opacity="1" /><path clip-path="url(#clip690)" d="M 0 0 M2177.81 132.785 L2181.51 132.785 Q2184.98 138.248 2186.69 143.479 Q2188.43 148.71 2188.43 153.872 Q2188.43 159.058 2186.69 164.312 Q2184.98 169.567 2181.51 175.007 L2177.81 175.007 Q2180.88 169.706 2182.39 164.474 Q2183.92 159.22 2183.92 153.872 Q2183.92 148.525 2182.39 143.317 Q2180.88 138.109 2177.81 132.785 Z" fill="#000000" fill-rule="evenodd" fill-opacity="1" /><polyline clip-path="url(#clip690)" style="stroke:#3da44d; stroke-width:4; stroke-opacity:1; fill:none" points="
  1975.9,211.957 2114.14,211.957 
  "/>
<path clip-path="url(#clip690)" d="M 0 0 M2153.57 213.033 Q2155.07 213.542 2156.49 215.209 Q2157.92 216.876 2159.36 219.792 L2164.1 229.237 L2159.08 229.237 L2154.66 220.371 Q2152.94 216.899 2151.32 215.764 Q2149.73 214.63 2146.95 214.63 L2141.86 214.63 L2141.86 229.237 L2137.18 229.237 L2137.18 194.677 L2147.74 194.677 Q2153.66 194.677 2156.58 197.153 Q2159.5 199.63 2159.5 204.63 Q2159.5 207.894 2157.97 210.047 Q2156.46 212.2 2153.57 213.033 M2141.86 198.519 L2141.86 210.788 L2147.74 210.788 Q2151.12 210.788 2152.83 209.237 Q2154.57 207.663 2154.57 204.63 Q2154.57 201.598 2152.83 200.07 Q2151.12 198.519 2147.74 198.519 L2141.86 198.519 Z" fill="#000000" fill-rule="evenodd" fill-opacity="1" /><path clip-path="url(#clip690)" d="M 0 0 M2178.8 193.265 Q2175.7 198.589 2174.19 203.797 Q2172.69 209.005 2172.69 214.352 Q2172.69 219.7 2174.19 224.954 Q2175.72 230.186 2178.8 235.487 L2175.1 235.487 Q2171.63 230.047 2169.89 224.792 Q2168.18 219.538 2168.18 214.352 Q2168.18 209.19 2169.89 203.959 Q2171.6 198.728 2175.1 193.265 L2178.8 193.265 Z" fill="#000000" fill-rule="evenodd" fill-opacity="1" /><path clip-path="url(#clip690)" d="M 0 0 M2187.48 195.95 L2187.48 203.311 L2196.25 203.311 L2196.25 206.621 L2187.48 206.621 L2187.48 220.695 Q2187.48 223.866 2188.34 224.769 Q2189.22 225.672 2191.88 225.672 L2196.25 225.672 L2196.25 229.237 L2191.88 229.237 Q2186.95 229.237 2185.07 227.408 Q2183.2 225.556 2183.2 220.695 L2183.2 206.621 L2180.07 206.621 L2180.07 203.311 L2183.2 203.311 L2183.2 195.95 L2187.48 195.95 Z" fill="#000000" fill-rule="evenodd" fill-opacity="1" /><path clip-path="url(#clip690)" d="M 0 0 M2200.05 193.265 L2203.75 193.265 Q2207.23 198.728 2208.94 203.959 Q2210.68 209.19 2210.68 214.352 Q2210.68 219.538 2208.94 224.792 Q2207.23 230.047 2203.75 235.487 L2200.05 235.487 Q2203.13 230.186 2204.63 224.954 Q2206.16 219.7 2206.16 214.352 Q2206.16 209.005 2204.63 203.797 Q2203.13 198.589 2200.05 193.265 Z" fill="#000000" fill-rule="evenodd" fill-opacity="1" /></svg>
