<?xml version="1.0" encoding="utf-8"?>
<svg xmlns="http://www.w3.org/2000/svg" xmlns:xlink="http://www.w3.org/1999/xlink" width="576" height="384" viewBox="0 0 2304 1536">
<defs>
  <clipPath id="clip520">
    <rect x="0" y="0" width="2304" height="1536"/>
  </clipPath>
</defs>
<path clip-path="url(#clip520)" d="
M0 1536 L2304 1536 L2304 0 L0 0  Z
  " fill="#ffffff" fill-rule="evenodd" fill-opacity="1"/>
<defs>
  <clipPath id="clip521">
    <rect x="460" y="0" width="1614" height="1536"/>
  </clipPath>
</defs>
<path clip-path="url(#clip520)" d="
M250.92 1359.82 L2256.76 1359.82 L2256.76 47.2441 L250.92 47.2441  Z
  " fill="#ffffff" fill-rule="evenodd" fill-opacity="1"/>
<defs>
  <clipPath id="clip522">
    <rect x="250" y="47" width="2007" height="1314"/>
  </clipPath>
</defs>
<polyline clip-path="url(#clip522)" style="stroke:#000000; stroke-width:2; stroke-opacity:0.1; fill:none" points="
  307.689,1359.82 307.689,47.2441 
  "/>
<polyline clip-path="url(#clip522)" style="stroke:#000000; stroke-width:2; stroke-opacity:0.1; fill:none" points="
  780.763,1359.82 780.763,47.2441 
  "/>
<polyline clip-path="url(#clip522)" style="stroke:#000000; stroke-width:2; stroke-opacity:0.1; fill:none" points="
  1253.84,1359.82 1253.84,47.2441 
  "/>
<polyline clip-path="url(#clip522)" style="stroke:#000000; stroke-width:2; stroke-opacity:0.1; fill:none" points="
  1726.91,1359.82 1726.91,47.2441 
  "/>
<polyline clip-path="url(#clip522)" style="stroke:#000000; stroke-width:2; stroke-opacity:0.1; fill:none" points="
  2199.99,1359.82 2199.99,47.2441 
  "/>
<polyline clip-path="url(#clip522)" style="stroke:#000000; stroke-width:2; stroke-opacity:0.1; fill:none" points="
  250.92,1322.67 2256.76,1322.67 
  "/>
<polyline clip-path="url(#clip522)" style="stroke:#000000; stroke-width:2; stroke-opacity:0.1; fill:none" points="
  250.92,1009.97 2256.76,1009.97 
  "/>
<polyline clip-path="url(#clip522)" style="stroke:#000000; stroke-width:2; stroke-opacity:0.1; fill:none" points="
  250.92,697.278 2256.76,697.278 
  "/>
<polyline clip-path="url(#clip522)" style="stroke:#000000; stroke-width:2; stroke-opacity:0.1; fill:none" points="
  250.92,384.581 2256.76,384.581 
  "/>
<polyline clip-path="url(#clip522)" style="stroke:#000000; stroke-width:2; stroke-opacity:0.1; fill:none" points="
  250.92,71.8846 2256.76,71.8846 
  "/>
<polyline clip-path="url(#clip520)" style="stroke:#000000; stroke-width:4; stroke-opacity:1; fill:none" points="
  250.92,1359.82 2256.76,1359.82 
  "/>
<polyline clip-path="url(#clip520)" style="stroke:#000000; stroke-width:4; stroke-opacity:1; fill:none" points="
  250.92,1359.82 250.92,47.2441 
  "/>
<polyline clip-path="url(#clip520)" style="stroke:#000000; stroke-width:4; stroke-opacity:1; fill:none" points="
  307.689,1359.82 307.689,1344.07 
  "/>
<polyline clip-path="url(#clip520)" style="stroke:#000000; stroke-width:4; stroke-opacity:1; fill:none" points="
  780.763,1359.82 780.763,1344.07 
  "/>
<polyline clip-path="url(#clip520)" style="stroke:#000000; stroke-width:4; stroke-opacity:1; fill:none" points="
  1253.84,1359.82 1253.84,1344.07 
  "/>
<polyline clip-path="url(#clip520)" style="stroke:#000000; stroke-width:4; stroke-opacity:1; fill:none" points="
  1726.91,1359.82 1726.91,1344.07 
  "/>
<polyline clip-path="url(#clip520)" style="stroke:#000000; stroke-width:4; stroke-opacity:1; fill:none" points="
  2199.99,1359.82 2199.99,1344.07 
  "/>
<polyline clip-path="url(#clip520)" style="stroke:#000000; stroke-width:4; stroke-opacity:1; fill:none" points="
  250.92,1322.67 274.99,1322.67 
  "/>
<polyline clip-path="url(#clip520)" style="stroke:#000000; stroke-width:4; stroke-opacity:1; fill:none" points="
  250.92,1009.97 274.99,1009.97 
  "/>
<polyline clip-path="url(#clip520)" style="stroke:#000000; stroke-width:4; stroke-opacity:1; fill:none" points="
  250.92,697.278 274.99,697.278 
  "/>
<polyline clip-path="url(#clip520)" style="stroke:#000000; stroke-width:4; stroke-opacity:1; fill:none" points="
  250.92,384.581 274.99,384.581 
  "/>
<polyline clip-path="url(#clip520)" style="stroke:#000000; stroke-width:4; stroke-opacity:1; fill:none" points="
  250.92,71.8846 274.99,71.8846 
  "/>
<path clip-path="url(#clip520)" d="M 0 0 M307.689 1381.33 Q304.078 1381.33 302.249 1384.9 Q300.444 1388.44 300.444 1395.57 Q300.444 1402.67 302.249 1406.24 Q304.078 1409.78 307.689 1409.78 Q311.323 1409.78 313.129 1406.24 Q314.957 1402.67 314.957 1395.57 Q314.957 1388.44 313.129 1384.9 Q311.323 1381.33 307.689 1381.33 M307.689 1377.63 Q313.499 1377.63 316.555 1382.23 Q319.633 1386.82 319.633 1395.57 Q319.633 1404.29 316.555 1408.9 Q313.499 1413.48 307.689 1413.48 Q301.879 1413.48 298.8 1408.9 Q295.745 1404.29 295.745 1395.57 Q295.745 1386.82 298.8 1382.23 Q301.879 1377.63 307.689 1377.63 Z" fill="#000000" fill-rule="evenodd" fill-opacity="1" /><path clip-path="url(#clip520)" d="M 0 0 M757.639 1408.88 L765.277 1408.88 L765.277 1382.51 L756.967 1384.18 L756.967 1379.92 L765.231 1378.25 L769.907 1378.25 L769.907 1408.88 L777.546 1408.88 L777.546 1412.81 L757.639 1412.81 L757.639 1408.88 Z" fill="#000000" fill-rule="evenodd" fill-opacity="1" /><path clip-path="url(#clip520)" d="M 0 0 M792.615 1381.33 Q789.004 1381.33 787.175 1384.9 Q785.37 1388.44 785.37 1395.57 Q785.37 1402.67 787.175 1406.24 Q789.004 1409.78 792.615 1409.78 Q796.249 1409.78 798.055 1406.24 Q799.884 1402.67 799.884 1395.57 Q799.884 1388.44 798.055 1384.9 Q796.249 1381.33 792.615 1381.33 M792.615 1377.63 Q798.425 1377.63 801.481 1382.23 Q804.56 1386.82 804.56 1395.57 Q804.56 1404.29 801.481 1408.9 Q798.425 1413.48 792.615 1413.48 Q786.805 1413.48 783.726 1408.9 Q780.671 1404.29 780.671 1395.57 Q780.671 1386.82 783.726 1382.23 Q786.805 1377.63 792.615 1377.63 Z" fill="#000000" fill-rule="evenodd" fill-opacity="1" /><path clip-path="url(#clip520)" d="M 0 0 M1234.98 1408.88 L1251.3 1408.88 L1251.3 1412.81 L1229.36 1412.81 L1229.36 1408.88 Q1232.02 1406.12 1236.6 1401.49 Q1241.21 1396.84 1242.39 1395.5 Q1244.64 1392.97 1245.52 1391.24 Q1246.42 1389.48 1246.42 1387.79 Q1246.42 1385.03 1244.47 1383.3 Q1242.55 1381.56 1239.45 1381.56 Q1237.25 1381.56 1234.8 1382.33 Q1232.37 1383.09 1229.59 1384.64 L1229.59 1379.92 Q1232.41 1378.78 1234.87 1378.21 Q1237.32 1377.63 1239.36 1377.63 Q1244.73 1377.63 1247.92 1380.31 Q1251.12 1383 1251.12 1387.49 Q1251.12 1389.62 1250.31 1391.54 Q1249.52 1393.44 1247.41 1396.03 Q1246.84 1396.7 1243.73 1399.92 Q1240.63 1403.11 1234.98 1408.88 Z" fill="#000000" fill-rule="evenodd" fill-opacity="1" /><path clip-path="url(#clip520)" d="M 0 0 M1266.37 1381.33 Q1262.76 1381.33 1260.93 1384.9 Q1259.13 1388.44 1259.13 1395.57 Q1259.13 1402.67 1260.93 1406.24 Q1262.76 1409.78 1266.37 1409.78 Q1270.01 1409.78 1271.81 1406.24 Q1273.64 1402.67 1273.64 1395.57 Q1273.64 1388.44 1271.81 1384.9 Q1270.01 1381.33 1266.37 1381.33 M1266.37 1377.63 Q1272.18 1377.63 1275.24 1382.23 Q1278.32 1386.82 1278.32 1395.57 Q1278.32 1404.29 1275.24 1408.9 Q1272.18 1413.48 1266.37 1413.48 Q1260.56 1413.48 1257.48 1408.9 Q1254.43 1404.29 1254.43 1395.57 Q1254.43 1386.82 1257.48 1382.23 Q1260.56 1377.63 1266.37 1377.63 Z" fill="#000000" fill-rule="evenodd" fill-opacity="1" /><path clip-path="url(#clip520)" d="M 0 0 M1717.65 1394.18 Q1721.01 1394.9 1722.88 1397.16 Q1724.78 1399.43 1724.78 1402.77 Q1724.78 1407.88 1721.26 1410.68 Q1717.75 1413.48 1711.26 1413.48 Q1709.09 1413.48 1706.77 1413.04 Q1704.48 1412.63 1702.03 1411.77 L1702.03 1407.26 Q1703.97 1408.39 1706.29 1408.97 Q1708.6 1409.55 1711.13 1409.55 Q1715.52 1409.55 1717.82 1407.81 Q1720.13 1406.08 1720.13 1402.77 Q1720.13 1399.71 1717.98 1398 Q1715.85 1396.26 1712.03 1396.26 L1708 1396.26 L1708 1392.42 L1712.21 1392.42 Q1715.66 1392.42 1717.49 1391.05 Q1719.32 1389.66 1719.32 1387.07 Q1719.32 1384.41 1717.42 1383 Q1715.55 1381.56 1712.03 1381.56 Q1710.11 1381.56 1707.91 1381.98 Q1705.71 1382.4 1703.07 1383.27 L1703.07 1379.11 Q1705.73 1378.37 1708.05 1378 Q1710.38 1377.63 1712.44 1377.63 Q1717.77 1377.63 1720.87 1380.06 Q1723.97 1382.46 1723.97 1386.59 Q1723.97 1389.46 1722.33 1391.45 Q1720.69 1393.41 1717.65 1394.18 Z" fill="#000000" fill-rule="evenodd" fill-opacity="1" /><path clip-path="url(#clip520)" d="M 0 0 M1739.85 1381.33 Q1736.24 1381.33 1734.41 1384.9 Q1732.61 1388.44 1732.61 1395.57 Q1732.61 1402.67 1734.41 1406.24 Q1736.24 1409.78 1739.85 1409.78 Q1743.49 1409.78 1745.29 1406.24 Q1747.12 1402.67 1747.12 1395.57 Q1747.12 1388.44 1745.29 1384.9 Q1743.49 1381.33 1739.85 1381.33 M1739.85 1377.63 Q1745.66 1377.63 1748.72 1382.23 Q1751.8 1386.82 1751.8 1395.57 Q1751.8 1404.29 1748.72 1408.9 Q1745.66 1413.48 1739.85 1413.48 Q1734.04 1413.48 1730.96 1408.9 Q1727.91 1404.29 1727.91 1395.57 Q1727.91 1386.82 1730.96 1382.23 Q1734.04 1377.63 1739.85 1377.63 Z" fill="#000000" fill-rule="evenodd" fill-opacity="1" /><path clip-path="url(#clip520)" d="M 0 0 M2189.49 1382.33 L2177.68 1400.77 L2189.49 1400.77 L2189.49 1382.33 M2188.26 1378.25 L2194.14 1378.25 L2194.14 1400.77 L2199.07 1400.77 L2199.07 1404.66 L2194.14 1404.66 L2194.14 1412.81 L2189.49 1412.81 L2189.49 1404.66 L2173.89 1404.66 L2173.89 1400.15 L2188.26 1378.25 Z" fill="#000000" fill-rule="evenodd" fill-opacity="1" /><path clip-path="url(#clip520)" d="M 0 0 M2214.14 1381.33 Q2210.53 1381.33 2208.7 1384.9 Q2206.9 1388.44 2206.9 1395.57 Q2206.9 1402.67 2208.7 1406.24 Q2210.53 1409.78 2214.14 1409.78 Q2217.78 1409.78 2219.58 1406.24 Q2221.41 1402.67 2221.41 1395.57 Q2221.41 1388.44 2219.58 1384.9 Q2217.78 1381.33 2214.14 1381.33 M2214.14 1377.63 Q2219.95 1377.63 2223.01 1382.23 Q2226.09 1386.82 2226.09 1395.57 Q2226.09 1404.29 2223.01 1408.9 Q2219.95 1413.48 2214.14 1413.48 Q2208.33 1413.48 2205.25 1408.9 Q2202.2 1404.29 2202.2 1395.57 Q2202.2 1386.82 2205.25 1382.23 Q2208.33 1377.63 2214.14 1377.63 Z" fill="#000000" fill-rule="evenodd" fill-opacity="1" /><path clip-path="url(#clip520)" d="M 0 0 M215.936 1308.47 Q212.325 1308.47 210.496 1312.03 Q208.69 1315.58 208.69 1322.71 Q208.69 1329.81 210.496 1333.38 Q212.325 1336.92 215.936 1336.92 Q219.57 1336.92 221.375 1333.38 Q223.204 1329.81 223.204 1322.71 Q223.204 1315.58 221.375 1312.03 Q219.57 1308.47 215.936 1308.47 M215.936 1304.77 Q221.746 1304.77 224.801 1309.37 Q227.88 1313.96 227.88 1322.71 Q227.88 1331.43 224.801 1336.04 Q221.746 1340.62 215.936 1340.62 Q210.125 1340.62 207.047 1336.04 Q203.991 1331.43 203.991 1322.71 Q203.991 1313.96 207.047 1309.37 Q210.125 1304.77 215.936 1304.77 Z" fill="#000000" fill-rule="evenodd" fill-opacity="1" /><path clip-path="url(#clip520)" d="M 0 0 M158.529 1023.32 L174.848 1023.32 L174.848 1027.25 L152.904 1027.25 L152.904 1023.32 Q155.566 1020.56 160.149 1015.94 Q164.755 1011.28 165.936 1009.94 Q168.181 1007.42 169.061 1005.68 Q169.964 1003.92 169.964 1002.23 Q169.964 999.477 168.019 997.741 Q166.098 996.005 162.996 996.005 Q160.797 996.005 158.343 996.769 Q155.913 997.533 153.135 999.084 L153.135 994.361 Q155.959 993.227 158.413 992.648 Q160.866 992.07 162.903 992.07 Q168.274 992.07 171.468 994.755 Q174.663 997.44 174.663 1001.93 Q174.663 1004.06 173.852 1005.98 Q173.065 1007.88 170.959 1010.47 Q170.38 1011.14 167.278 1014.36 Q164.177 1017.56 158.529 1023.32 Z" fill="#000000" fill-rule="evenodd" fill-opacity="1" /><path clip-path="url(#clip520)" d="M 0 0 M179.964 992.695 L198.32 992.695 L198.32 996.63 L184.246 996.63 L184.246 1005.1 Q185.264 1004.75 186.283 1004.59 Q187.301 1004.41 188.32 1004.41 Q194.107 1004.41 197.487 1007.58 Q200.866 1010.75 200.866 1016.17 Q200.866 1021.75 197.394 1024.85 Q193.922 1027.93 187.602 1027.93 Q185.427 1027.93 183.158 1027.56 Q180.913 1027.19 178.505 1026.44 L178.505 1021.75 Q180.589 1022.88 182.811 1023.44 Q185.033 1023.99 187.51 1023.99 Q191.514 1023.99 193.852 1021.88 Q196.19 1019.78 196.19 1016.17 Q196.19 1012.56 193.852 1010.45 Q191.514 1008.34 187.51 1008.34 Q185.635 1008.34 183.76 1008.76 Q181.908 1009.18 179.964 1010.06 L179.964 992.695 Z" fill="#000000" fill-rule="evenodd" fill-opacity="1" /><path clip-path="url(#clip520)" d="M 0 0 M215.936 995.773 Q212.325 995.773 210.496 999.338 Q208.69 1002.88 208.69 1010.01 Q208.69 1017.12 210.496 1020.68 Q212.325 1024.22 215.936 1024.22 Q219.57 1024.22 221.375 1020.68 Q223.204 1017.12 223.204 1010.01 Q223.204 1002.88 221.375 999.338 Q219.57 995.773 215.936 995.773 M215.936 992.07 Q221.746 992.07 224.801 996.676 Q227.88 1001.26 227.88 1010.01 Q227.88 1018.74 224.801 1023.34 Q221.746 1027.93 215.936 1027.93 Q210.125 1027.93 207.047 1023.34 Q203.991 1018.74 203.991 1010.01 Q203.991 1001.26 207.047 996.676 Q210.125 992.07 215.936 992.07 Z" fill="#000000" fill-rule="evenodd" fill-opacity="1" /><path clip-path="url(#clip520)" d="M 0 0 M152.95 679.998 L171.306 679.998 L171.306 683.933 L157.232 683.933 L157.232 692.405 Q158.251 692.058 159.269 691.896 Q160.288 691.711 161.306 691.711 Q167.093 691.711 170.473 694.882 Q173.852 698.053 173.852 703.47 Q173.852 709.049 170.38 712.151 Q166.908 715.229 160.589 715.229 Q158.413 715.229 156.144 714.859 Q153.899 714.489 151.492 713.748 L151.492 709.049 Q153.575 710.183 155.797 710.739 Q158.019 711.294 160.496 711.294 Q164.501 711.294 166.839 709.188 Q169.177 707.081 169.177 703.47 Q169.177 699.859 166.839 697.753 Q164.501 695.646 160.496 695.646 Q158.621 695.646 156.746 696.063 Q154.894 696.479 152.95 697.359 L152.95 679.998 Z" fill="#000000" fill-rule="evenodd" fill-opacity="1" /><path clip-path="url(#clip520)" d="M 0 0 M188.922 683.077 Q185.311 683.077 183.482 686.642 Q181.677 690.183 181.677 697.313 Q181.677 704.419 183.482 707.984 Q185.311 711.526 188.922 711.526 Q192.556 711.526 194.362 707.984 Q196.19 704.419 196.19 697.313 Q196.19 690.183 194.362 686.642 Q192.556 683.077 188.922 683.077 M188.922 679.373 Q194.732 679.373 197.788 683.979 Q200.866 688.563 200.866 697.313 Q200.866 706.04 197.788 710.646 Q194.732 715.229 188.922 715.229 Q183.112 715.229 180.033 710.646 Q176.977 706.04 176.977 697.313 Q176.977 688.563 180.033 683.979 Q183.112 679.373 188.922 679.373 Z" fill="#000000" fill-rule="evenodd" fill-opacity="1" /><path clip-path="url(#clip520)" d="M 0 0 M215.936 683.077 Q212.325 683.077 210.496 686.642 Q208.69 690.183 208.69 697.313 Q208.69 704.419 210.496 707.984 Q212.325 711.526 215.936 711.526 Q219.57 711.526 221.375 707.984 Q223.204 704.419 223.204 697.313 Q223.204 690.183 221.375 686.642 Q219.57 683.077 215.936 683.077 M215.936 679.373 Q221.746 679.373 224.801 683.979 Q227.88 688.563 227.88 697.313 Q227.88 706.04 224.801 710.646 Q221.746 715.229 215.936 715.229 Q210.125 715.229 207.047 710.646 Q203.991 706.04 203.991 697.313 Q203.991 688.563 207.047 683.979 Q210.125 679.373 215.936 679.373 Z" fill="#000000" fill-rule="evenodd" fill-opacity="1" /><path clip-path="url(#clip520)" d="M 0 0 M152.626 367.301 L174.848 367.301 L174.848 369.292 L162.302 401.861 L157.417 401.861 L169.223 371.236 L152.626 371.236 L152.626 367.301 Z" fill="#000000" fill-rule="evenodd" fill-opacity="1" /><path clip-path="url(#clip520)" d="M 0 0 M179.964 367.301 L198.32 367.301 L198.32 371.236 L184.246 371.236 L184.246 379.709 Q185.264 379.361 186.283 379.199 Q187.301 379.014 188.32 379.014 Q194.107 379.014 197.487 382.185 Q200.866 385.357 200.866 390.773 Q200.866 396.352 197.394 399.454 Q193.922 402.533 187.602 402.533 Q185.427 402.533 183.158 402.162 Q180.913 401.792 178.505 401.051 L178.505 396.352 Q180.589 397.486 182.811 398.042 Q185.033 398.597 187.51 398.597 Q191.514 398.597 193.852 396.491 Q196.19 394.385 196.19 390.773 Q196.19 387.162 193.852 385.056 Q191.514 382.949 187.51 382.949 Q185.635 382.949 183.76 383.366 Q181.908 383.783 179.964 384.662 L179.964 367.301 Z" fill="#000000" fill-rule="evenodd" fill-opacity="1" /><path clip-path="url(#clip520)" d="M 0 0 M215.936 370.38 Q212.325 370.38 210.496 373.945 Q208.69 377.486 208.69 384.616 Q208.69 391.722 210.496 395.287 Q212.325 398.829 215.936 398.829 Q219.57 398.829 221.375 395.287 Q223.204 391.722 223.204 384.616 Q223.204 377.486 221.375 373.945 Q219.57 370.38 215.936 370.38 M215.936 366.676 Q221.746 366.676 224.801 371.283 Q227.88 375.866 227.88 384.616 Q227.88 393.343 224.801 397.949 Q221.746 402.533 215.936 402.533 Q210.125 402.533 207.047 397.949 Q203.991 393.343 203.991 384.616 Q203.991 375.866 207.047 371.283 Q210.125 366.676 215.936 366.676 Z" fill="#000000" fill-rule="evenodd" fill-opacity="1" /><path clip-path="url(#clip520)" d="M 0 0 M126.931 85.2294 L134.57 85.2294 L134.57 58.8638 L126.26 60.5305 L126.26 56.2713 L134.524 54.6046 L139.2 54.6046 L139.2 85.2294 L146.839 85.2294 L146.839 89.1646 L126.931 89.1646 L126.931 85.2294 Z" fill="#000000" fill-rule="evenodd" fill-opacity="1" /><path clip-path="url(#clip520)" d="M 0 0 M161.908 57.6833 Q158.297 57.6833 156.468 61.2481 Q154.663 64.7897 154.663 71.9193 Q154.663 79.0258 156.468 82.5906 Q158.297 86.1322 161.908 86.1322 Q165.542 86.1322 167.348 82.5906 Q169.177 79.0258 169.177 71.9193 Q169.177 64.7897 167.348 61.2481 Q165.542 57.6833 161.908 57.6833 M161.908 53.9796 Q167.718 53.9796 170.774 58.5861 Q173.852 63.1694 173.852 71.9193 Q173.852 80.6461 170.774 85.2526 Q167.718 89.8359 161.908 89.8359 Q156.098 89.8359 153.019 85.2526 Q149.964 80.6461 149.964 71.9193 Q149.964 63.1694 153.019 58.5861 Q156.098 53.9796 161.908 53.9796 Z" fill="#000000" fill-rule="evenodd" fill-opacity="1" /><path clip-path="url(#clip520)" d="M 0 0 M188.922 57.6833 Q185.311 57.6833 183.482 61.2481 Q181.677 64.7897 181.677 71.9193 Q181.677 79.0258 183.482 82.5906 Q185.311 86.1322 188.922 86.1322 Q192.556 86.1322 194.362 82.5906 Q196.19 79.0258 196.19 71.9193 Q196.19 64.7897 194.362 61.2481 Q192.556 57.6833 188.922 57.6833 M188.922 53.9796 Q194.732 53.9796 197.788 58.5861 Q200.866 63.1694 200.866 71.9193 Q200.866 80.6461 197.788 85.2526 Q194.732 89.8359 188.922 89.8359 Q183.112 89.8359 180.033 85.2526 Q176.977 80.6461 176.977 71.9193 Q176.977 63.1694 180.033 58.5861 Q183.112 53.9796 188.922 53.9796 Z" fill="#000000" fill-rule="evenodd" fill-opacity="1" /><path clip-path="url(#clip520)" d="M 0 0 M215.936 57.6833 Q212.325 57.6833 210.496 61.2481 Q208.69 64.7897 208.69 71.9193 Q208.69 79.0258 210.496 82.5906 Q212.325 86.1322 215.936 86.1322 Q219.57 86.1322 221.375 82.5906 Q223.204 79.0258 223.204 71.9193 Q223.204 64.7897 221.375 61.2481 Q219.57 57.6833 215.936 57.6833 M215.936 53.9796 Q221.746 53.9796 224.801 58.5861 Q227.88 63.1694 227.88 71.9193 Q227.88 80.6461 224.801 85.2526 Q221.746 89.8359 215.936 89.8359 Q210.125 89.8359 207.047 85.2526 Q203.991 80.6461 203.991 71.9193 Q203.991 63.1694 207.047 58.5861 Q210.125 53.9796 215.936 53.9796 Z" fill="#000000" fill-rule="evenodd" fill-opacity="1" /><path clip-path="url(#clip520)" d="M 0 0 M1181.44 1444.2 L1221.64 1444.2 L1221.64 1449.61 L1204.77 1449.61 L1204.77 1491.72 L1198.31 1491.72 L1198.31 1449.61 L1181.44 1449.61 L1181.44 1444.2 Z" fill="#000000" fill-rule="evenodd" fill-opacity="1" /><path clip-path="url(#clip520)" d="M 0 0 M1225.78 1456.08 L1231.64 1456.08 L1231.64 1491.72 L1225.78 1491.72 L1225.78 1456.08 M1225.78 1442.2 L1231.64 1442.2 L1231.64 1449.61 L1225.78 1449.61 L1225.78 1442.2 Z" fill="#000000" fill-rule="evenodd" fill-opacity="1" /><path clip-path="url(#clip520)" d="M 0 0 M1265.53 1462.92 Q1267.73 1458.97 1270.79 1457.09 Q1273.84 1455.22 1277.98 1455.22 Q1283.55 1455.22 1286.57 1459.13 Q1289.6 1463.01 1289.6 1470.21 L1289.6 1491.72 L1283.71 1491.72 L1283.71 1470.4 Q1283.71 1465.27 1281.89 1462.79 Q1280.08 1460.31 1276.36 1460.31 Q1271.81 1460.31 1269.16 1463.33 Q1266.52 1466.36 1266.52 1471.58 L1266.52 1491.72 L1260.63 1491.72 L1260.63 1470.4 Q1260.63 1465.24 1258.82 1462.79 Q1257 1460.31 1253.22 1460.31 Q1248.73 1460.31 1246.09 1463.36 Q1243.45 1466.39 1243.45 1471.58 L1243.45 1491.72 L1237.56 1491.72 L1237.56 1456.08 L1243.45 1456.08 L1243.45 1461.61 Q1245.45 1458.34 1248.25 1456.78 Q1251.05 1455.22 1254.9 1455.22 Q1258.79 1455.22 1261.49 1457.19 Q1264.23 1459.16 1265.53 1462.92 Z" fill="#000000" fill-rule="evenodd" fill-opacity="1" /><path clip-path="url(#clip520)" d="M 0 0 M1326.23 1472.44 L1326.23 1475.3 L1299.31 1475.3 Q1299.69 1481.35 1302.93 1484.53 Q1306.21 1487.68 1312.04 1487.68 Q1315.41 1487.68 1318.56 1486.85 Q1321.74 1486.03 1324.86 1484.37 L1324.86 1489.91 Q1321.71 1491.25 1318.4 1491.95 Q1315.09 1492.65 1311.69 1492.65 Q1303.16 1492.65 1298.16 1487.68 Q1293.19 1482.72 1293.19 1474.25 Q1293.19 1465.5 1297.9 1460.37 Q1302.65 1455.22 1310.67 1455.22 Q1317.86 1455.22 1322.03 1459.86 Q1326.23 1464.48 1326.23 1472.44 M1320.38 1470.72 Q1320.31 1465.91 1317.67 1463.05 Q1315.06 1460.18 1310.73 1460.18 Q1305.83 1460.18 1302.87 1462.95 Q1299.94 1465.72 1299.5 1470.75 L1320.38 1470.72 Z" fill="#000000" fill-rule="evenodd" fill-opacity="1" /><path clip-path="url(#clip520)" d="M 0 0 M41.4442 818.815 L41.4442 810.158 L81.198 789.087 L41.4442 789.087 L41.4442 782.849 L88.9642 782.849 L88.9642 791.506 L49.2103 812.577 L88.9642 812.577 L88.9642 818.815 L41.4442 818.815 Z" fill="#000000" fill-rule="evenodd" fill-opacity="1" /><path clip-path="url(#clip520)" d="M 0 0 M74.8959 777.311 L53.3162 777.311 L53.3162 771.454 L74.6731 771.454 Q79.7339 771.454 82.2802 769.481 Q84.7946 767.507 84.7946 763.561 Q84.7946 758.818 81.7709 756.081 Q78.7472 753.312 73.5273 753.312 L53.3162 753.312 L53.3162 747.455 L88.9642 747.455 L88.9642 753.312 L83.4896 753.312 Q86.7362 755.444 88.3276 758.277 Q89.8872 761.078 89.8872 764.802 Q89.8872 770.945 86.0678 774.128 Q82.2483 777.311 74.8959 777.311 M52.4568 762.574 L52.4568 762.574 Z" fill="#000000" fill-rule="evenodd" fill-opacity="1" /><path clip-path="url(#clip520)" d="M 0 0 M60.1593 713.558 Q56.2126 711.362 54.3347 708.306 Q52.4568 705.251 52.4568 701.113 Q52.4568 695.543 56.3717 692.519 Q60.2548 689.496 67.4481 689.496 L88.9642 689.496 L88.9642 695.384 L67.639 695.384 Q62.5146 695.384 60.032 697.198 Q57.5494 699.012 57.5494 702.736 Q57.5494 707.288 60.5731 709.93 Q63.5968 712.571 68.8167 712.571 L88.9642 712.571 L88.9642 718.46 L67.639 718.46 Q62.4828 718.46 60.032 720.274 Q57.5494 722.088 57.5494 725.876 Q57.5494 730.363 60.6049 733.005 Q63.6286 735.647 68.8167 735.647 L88.9642 735.647 L88.9642 741.535 L53.3162 741.535 L53.3162 735.647 L58.8544 735.647 Q55.576 733.642 54.0164 730.841 Q52.4568 728.04 52.4568 724.189 Q52.4568 720.306 54.4302 717.6 Q56.4036 714.863 60.1593 713.558 Z" fill="#000000" fill-rule="evenodd" fill-opacity="1" /><path clip-path="url(#clip520)" d="M 0 0 M71.172 657.763 Q64.7108 657.763 61.0505 660.436 Q57.3584 663.078 57.3584 667.725 Q57.3584 672.372 61.0505 675.045 Q64.7108 677.687 71.172 677.687 Q77.6332 677.687 81.3253 675.045 Q84.9856 672.372 84.9856 667.725 Q84.9856 663.078 81.3253 660.436 Q77.6332 657.763 71.172 657.763 M58.7271 677.687 Q55.5442 675.841 54.0164 673.04 Q52.4568 670.207 52.4568 666.293 Q52.4568 659.8 57.6131 655.757 Q62.7693 651.683 71.172 651.683 Q79.5747 651.683 84.731 655.757 Q89.8872 659.8 89.8872 666.293 Q89.8872 670.207 88.3594 673.04 Q86.7998 675.841 83.617 677.687 L88.9642 677.687 L88.9642 683.575 L39.439 683.575 L39.439 677.687 L58.7271 677.687 Z" fill="#000000" fill-rule="evenodd" fill-opacity="1" /><path clip-path="url(#clip520)" d="M 0 0 M69.6761 615.049 L72.5406 615.049 L72.5406 641.976 Q78.5881 641.594 81.7709 638.347 Q84.9219 635.069 84.9219 629.244 Q84.9219 625.87 84.0944 622.719 Q83.2669 619.536 81.6118 616.417 L87.1499 616.417 Q88.4867 619.568 89.187 622.878 Q89.8872 626.189 89.8872 629.594 Q89.8872 638.124 84.9219 643.121 Q79.9567 648.087 71.4903 648.087 Q62.7374 648.087 57.6131 643.376 Q52.4568 638.634 52.4568 630.613 Q52.4568 623.42 57.1038 619.25 Q61.7189 615.049 69.6761 615.049 M67.9573 620.905 Q63.1512 620.969 60.2866 623.611 Q57.4221 626.22 57.4221 630.549 Q57.4221 635.451 60.1912 638.411 Q62.9602 641.339 67.9892 641.785 L67.9573 620.905 Z" fill="#000000" fill-rule="evenodd" fill-opacity="1" /><path clip-path="url(#clip520)" d="M 0 0 M58.7907 588.249 Q58.2178 589.236 57.9632 590.413 Q57.6767 591.559 57.6767 592.96 Q57.6767 597.925 60.9232 600.598 Q64.1379 603.24 70.1853 603.24 L88.9642 603.24 L88.9642 609.129 L53.3162 609.129 L53.3162 603.24 L58.8544 603.24 Q55.6079 601.394 54.0483 598.434 Q52.4568 595.474 52.4568 591.241 Q52.4568 590.636 52.5523 589.904 Q52.616 589.172 52.7751 588.281 L58.7907 588.249 Z" fill="#000000" fill-rule="evenodd" fill-opacity="1" /><polyline clip-path="url(#clip522)" style="stroke:#009af9; stroke-width:4; stroke-opacity:1; fill:none" points="
  307.689,84.3925 312.42,85.3227 317.15,85.7939 321.881,86.2275 326.612,88.8128 331.343,89.1221 336.073,90.8238 340.804,92.5157 345.535,93.9231 350.266,95.0713 
  354.996,94.87 359.727,94.5368 364.458,96.3923 369.189,99.3694 373.919,98.9452 378.65,100.755 383.381,101.948 388.112,102.366 392.842,102.865 397.573,103.06 
  402.304,105.415 407.035,108.824 411.765,109.231 416.496,109.96 421.227,111.268 425.958,111.27 430.688,110.755 435.419,111.999 440.15,111.343 444.881,111.858 
  449.611,111.78 454.342,112.695 459.073,113.326 463.804,113.007 468.534,115.688 473.265,117.144 477.996,117.924 482.726,118.6 487.457,121.882 492.188,121.574 
  496.919,121.395 501.649,120.243 506.38,120.575 511.111,121.758 515.842,120 520.572,121.16 525.303,121.533 530.034,123.774 534.765,122.942 539.495,122.808 
  544.226,122.66 548.957,126.028 553.688,128.472 558.418,130.856 563.149,133.675 567.88,135.251 572.611,135.603 577.341,138.354 582.072,140.302 586.803,141.403 
  591.534,140.159 596.264,141 600.995,142.37 605.726,142.557 610.457,144.65 615.187,147.906 619.918,149.994 624.649,151.602 629.38,152.784 634.11,155.093 
  638.841,158.515 643.572,161.633 648.303,164.907 653.033,167.73 657.764,168.723 662.495,168.434 667.226,170.774 671.956,172.381 676.687,175.413 681.418,179.294 
  686.149,181.836 690.879,184.967 695.61,189.211 700.341,192.497 705.072,193.079 709.802,197.691 714.533,200.919 719.264,204.637 723.994,210.861 728.725,212.694 
  733.456,216.542 738.187,216.53 742.917,220.013 747.648,221.22 752.379,221.206 757.11,224.057 761.84,228.329 766.571,228.398 771.302,230.096 776.033,231.344 
  780.763,234.195 785.494,235.914 790.225,237.601 794.956,244.304 799.686,250.52 804.417,255.767 809.148,260.042 813.879,267.37 818.609,270.369 823.34,275.804 
  828.071,278.482 832.802,279.008 837.532,283.143 842.263,286.377 846.994,292.875 851.725,295.964 856.455,299.237 861.186,304.111 865.917,311.725 870.648,317.44 
  875.378,325.029 880.109,328.421 884.84,332.895 889.571,336.424 894.301,344.944 899.032,349.857 903.763,356.273 908.494,362.403 913.224,366.713 917.955,374.99 
  922.686,381.747 927.417,387.856 932.147,394.239 936.878,401.8 941.609,405.515 946.34,411.082 951.07,416.635 955.801,426.384 960.532,431.653 965.262,434.64 
  969.993,436.944 974.724,442.874 979.455,447.665 984.185,451.647 988.916,455.442 993.647,458.851 998.378,465.081 1003.11,468.753 1007.84,476.016 1012.57,483.897 
  1017.3,487.141 1022.03,495.516 1026.76,502.555 1031.49,504.253 1036.22,511.032 1040.95,516.999 1045.69,519.438 1050.42,522.112 1055.15,527.142 1059.88,534.413 
  1064.61,541.105 1069.34,548.335 1074.07,554.42 1078.8,558.985 1083.53,564.629 1088.26,572.448 1092.99,579.455 1097.72,583.119 1102.45,589.009 1107.18,595.964 
  1111.92,603.377 1116.65,611.239 1121.38,616.976 1126.11,624.589 1130.84,632.992 1135.57,641.172 1140.3,648.193 1145.03,653.524 1149.76,660.94 1154.49,668.861 
  1159.22,676.675 1163.95,684.843 1168.68,688.797 1173.42,692.599 1178.15,697.63 1182.88,703.17 1187.61,708.507 1192.34,714.02 1197.07,720.315 1201.8,727.739 
  1206.53,735.308 1211.26,742.298 1215.99,750.516 1220.72,758.344 1225.45,761.185 1230.18,764.823 1234.91,769.149 1239.65,772.626 1244.38,776.355 1249.11,781.515 
  1253.84,786.996 1258.57,792.884 1263.3,797.826 1268.03,802.23 1272.76,806.711 1277.49,811.234 1282.22,815.588 1286.95,819.947 1291.68,823.144 1296.41,826.272 
  1301.15,830.68 1305.88,835.277 1310.61,837.402 1315.34,838.766 1320.07,841.901 1324.8,846.665 1329.53,851.119 1334.26,854.349 1338.99,857.593 1343.72,860.094 
  1348.45,862.425 1353.18,865.073 1357.91,868.338 1362.65,871.617 1367.38,875.896 1372.11,880.492 1376.84,884.797 1381.57,886.401 1386.3,888.008 1391.03,890.608 
  1395.76,895.098 1400.49,899.614 1405.22,902.999 1409.95,905.017 1414.68,907.04 1419.41,909.553 1424.14,912.637 1428.88,915.732 1433.61,919.134 1438.34,923.051 
  1443.07,926.987 1447.8,930.474 1452.53,931.807 1457.26,933.142 1461.99,934.48 1466.72,937.086 1471.45,939.864 1476.18,942.651 1480.91,944.805 1485.64,945.993 
  1490.38,947.183 1495.11,948.375 1499.84,949.944 1504.57,951.691 1509.3,953.442 1514.03,955.196 1518.76,956.54 1523.49,957.695 1528.22,958.852 1532.95,960.01 
  1537.68,961.189 1542.41,962.392 1547.14,963.597 1551.87,964.804 1556.61,966.013 1561.34,968.026 1566.07,970.133 1570.8,972.245 1575.53,974.361 1580.26,976.484 
  1584.99,978.745 1589.72,981.017 1594.45,983.295 1599.18,985.578 1603.91,987.868 1608.64,989.672 1613.37,991.369 1618.11,993.068 1622.84,994.771 1627.57,996.477 
  1632.3,998.137 1637.03,999.739 1641.76,1001.34 1646.49,1002.95 1651.22,1004.56 1655.95,1006.17 1660.68,1007.32 1665.41,1008.36 1670.14,1009.39 1674.87,1010.44 
  1679.61,1011.48 1684.34,1012.52 1689.07,1014.41 1693.8,1016.46 1698.53,1018.5 1703.26,1020.55 1707.99,1022.61 1712.72,1024.67 1717.45,1026.07 1722.18,1026.79 
  1726.91,1027.52 1731.64,1028.24 1736.37,1028.97 1741.1,1029.69 1745.84,1030.42 1750.57,1031.51 1755.3,1032.71 1760.03,1033.92 1764.76,1035.13 1769.49,1036.34 
  1774.22,1037.56 1778.95,1038.77 1783.68,1039.75 1788.41,1040.61 1793.14,1041.47 1797.87,1042.34 1802.6,1043.2 1807.34,1044.07 1812.07,1044.93 1816.8,1045.8 
  1821.53,1047.15 1826.26,1048.52 1830.99,1049.89 1835.72,1051.26 1840.45,1052.63 1845.18,1054.01 1849.91,1055.38 1854.64,1056.76 1859.37,1057.93 1864.1,1058.92 
  1868.83,1059.92 1873.57,1060.92 1878.3,1061.92 1883.03,1062.91 1887.76,1063.91 1892.49,1064.92 1897.22,1065.92 1901.95,1066.81 1906.68,1067.51 1911.41,1068.22 
  1916.14,1068.93 1920.87,1069.63 1925.6,1070.34 1930.33,1071.05 1935.07,1071.76 1939.8,1072.47 1944.53,1073.18 1949.26,1073.91 1953.99,1074.66 1958.72,1075.42 
  1963.45,1076.17 1968.18,1076.93 1972.91,1077.68 1977.64,1078.44 1982.37,1079.2 1987.1,1079.95 1991.83,1080.71 1996.56,1081.47 2001.3,1082.03 2006.03,1082.52 
  2010.76,1083 2015.49,1083.49 2020.22,1083.97 2024.95,1084.46 2029.68,1084.94 2034.41,1085.43 2039.14,1085.91 2043.87,1086.4 2048.6,1086.89 2053.33,1087.37 
  2058.06,1087.66 2062.8,1087.9 2067.53,1088.13 2072.26,1088.36 2076.99,1088.59 2081.72,1088.83 2086.45,1089.06 2091.18,1089.29 2095.91,1089.53 2100.64,1089.76 
  2105.37,1089.99 2110.1,1090.22 2114.83,1090.46 2119.56,1090.61 2124.3,1090.7 2129.03,1090.79 2133.76,1090.89 2138.49,1090.98 2143.22,1091.07 2147.95,1091.17 
  2152.68,1091.26 2157.41,1091.35 2162.14,1091.45 2166.87,1091.54 2171.6,1091.64 2176.33,1091.73 2181.06,1091.82 2185.79,1091.92 2190.53,1091.98 2195.26,1092.04 
  2199.99,1092.11 
  "/>
<polyline clip-path="url(#clip522)" style="stroke:#e26f46; stroke-width:4; stroke-opacity:1; fill:none" points="
  307.689,1310.16 312.42,1310.4 317.15,1310.32 321.881,1310.08 326.612,1307.55 331.343,1307.62 336.073,1305.73 340.804,1303.48 345.535,1302.83 350.266,1302.76 
  354.996,1303.78 359.727,1305.46 364.458,1304.74 369.189,1302.57 373.919,1303.47 378.65,1301.14 383.381,1300.69 388.112,1300.99 392.842,1300.47 397.573,1301.29 
  402.304,1299.48 407.035,1297.74 411.765,1299.06 416.496,1299.5 421.227,1298.52 425.958,1299.71 430.688,1300.37 435.419,1299.36 440.15,1300.92 444.881,1301.04 
  449.611,1301.87 454.342,1302.09 459.073,1300.69 463.804,1301.07 468.534,1299.02 473.265,1298.42 477.996,1298.25 482.726,1298.2 487.457,1296.76 492.188,1297.42 
  496.919,1298.81 501.649,1301.31 506.38,1300.22 511.111,1299.06 515.842,1300.37 520.572,1298.8 525.303,1298.93 530.034,1296.49 534.765,1299.74 539.495,1299.92 
  544.226,1300.4 548.957,1297.72 553.688,1295.35 558.418,1293.06 563.149,1290.57 567.88,1289.24 572.611,1290.19 577.341,1288.19 582.072,1286.78 586.803,1287.39 
  591.534,1289.15 596.264,1288.73 600.995,1286.9 605.726,1287.26 610.457,1285.36 615.187,1282.31 619.918,1282.62 624.649,1283.72 629.38,1282.27 634.11,1282.18 
  638.841,1281.5 643.572,1278.53 648.303,1277.95 653.033,1275.21 657.764,1275.14 662.495,1275.65 667.226,1274.47 671.956,1274.8 676.687,1272.39 681.418,1271.24 
  686.149,1270.17 690.879,1266.88 695.61,1262.69 700.341,1261.36 705.072,1261.78 709.802,1259.21 714.533,1257.85 719.264,1257.16 723.994,1251.39 728.725,1252.79 
  733.456,1250.35 738.187,1251.58 742.917,1251.76 747.648,1251.44 752.379,1252.91 757.11,1252.05 761.84,1249.69 766.571,1252.81 771.302,1252.66 776.033,1252.9 
  780.763,1251.85 785.494,1254.51 790.225,1254.5 794.956,1250.54 799.686,1247.8 804.417,1245.04 809.148,1241.47 813.879,1237.64 818.609,1237.03 823.34,1233.04 
  828.071,1232.47 832.802,1237.38 837.532,1236.48 842.263,1235.79 846.994,1230.03 851.725,1229.56 856.455,1227.61 861.186,1223.65 865.917,1217.59 870.648,1216.68 
  875.378,1209.76 880.109,1208.8 884.84,1207.52 889.571,1208.32 894.301,1204.27 899.032,1203.63 903.763,1202.67 908.494,1200.39 913.224,1197.87 917.955,1193.61 
  922.686,1192.2 927.417,1190.73 932.147,1185.81 936.878,1178.47 941.609,1179.03 946.34,1180.55 951.07,1180.35 955.801,1172.42 960.532,1169.64 965.262,1171.99 
  969.993,1171.29 974.724,1165.38 979.455,1161.61 984.185,1161.11 988.916,1160.32 993.647,1160.36 998.378,1158.17 1003.11,1158.88 1007.84,1158.56 1012.57,1153.85 
  1017.3,1154.35 1022.03,1151.07 1026.76,1150.79 1031.49,1151.71 1036.22,1148.12 1040.95,1144.62 1045.69,1148.5 1050.42,1151.05 1055.15,1153.77 1059.88,1150.66 
  1064.61,1146.3 1069.34,1141.98 1074.07,1140.01 1078.8,1140.87 1083.53,1141 1088.26,1136.79 1092.99,1134.07 1097.72,1135.09 1102.45,1133.16 1107.18,1130.1 
  1111.92,1127.62 1116.65,1126.22 1121.38,1124.61 1126.11,1121.72 1130.84,1119.2 1135.57,1117.07 1140.3,1115.13 1145.03,1115.37 1149.76,1110.82 1154.49,1105.42 
  1159.22,1101.24 1163.95,1100.57 1168.68,1104.61 1173.42,1108.61 1178.15,1110.93 1182.88,1112.4 1187.61,1114.46 1192.34,1116.16 1197.07,1115.92 1201.8,1113.52 
  1206.53,1111.35 1211.26,1111.58 1215.99,1109.96 1220.72,1108.49 1225.45,1111.79 1230.18,1115.13 1234.91,1118.53 1239.65,1120.24 1244.38,1121.46 1249.11,1121.42 
  1253.84,1119.93 1258.57,1116.55 1263.3,1117.78 1268.03,1121.75 1272.76,1126.23 1277.49,1130.96 1282.22,1131.11 1286.95,1130.79 1291.68,1136.64 1296.41,1143.07 
  1301.15,1144.33 1305.88,1144.93 1310.61,1147.2 1315.34,1149.99 1320.07,1149.96 1324.8,1147.32 1329.53,1145.58 1334.26,1147.23 1338.99,1148.9 1343.72,1151.02 
  1348.45,1153.26 1353.18,1154.51 1357.91,1153.77 1362.65,1153.03 1367.38,1154.11 1372.11,1155.77 1376.84,1157.56 1381.57,1160.26 1386.3,1162.99 1391.03,1164.13 
  1395.76,1162.23 1400.49,1160.31 1405.22,1159.91 1409.95,1161.36 1414.68,1162.82 1419.41,1163.62 1424.14,1163.62 1428.88,1163.63 1433.61,1164.04 1438.34,1165.14 
  1443.07,1166.25 1447.8,1167.98 1452.53,1172.53 1457.26,1177.12 1461.99,1181.76 1466.72,1185.02 1471.45,1188.13 1476.18,1191.28 1480.91,1194.22 1485.64,1196.79 
  1490.38,1199.38 1495.11,1201.99 1499.84,1203.83 1504.57,1205.3 1509.3,1206.79 1514.03,1208.29 1518.76,1210.36 1523.49,1212.71 1528.22,1215.07 1532.95,1217.45 
  1537.68,1219.35 1542.41,1220.66 1547.14,1221.97 1551.87,1223.29 1556.61,1224.61 1561.34,1224.1 1566.07,1223.37 1570.8,1222.65 1575.53,1221.92 1580.26,1221.19 
  1584.99,1220.49 1589.72,1219.8 1594.45,1219.1 1599.18,1218.4 1603.91,1217.7 1608.64,1218.19 1613.37,1218.95 1618.11,1219.72 1622.84,1220.49 1627.57,1221.27 
  1632.3,1222.19 1637.03,1223.3 1641.76,1224.41 1646.49,1225.53 1651.22,1226.65 1655.95,1227.78 1660.68,1228.8 1665.41,1229.8 1670.14,1230.8 1674.87,1231.8 
  1679.61,1232.81 1684.34,1233.82 1689.07,1233.74 1693.8,1233.46 1698.53,1233.19 1703.26,1232.92 1707.99,1232.64 1712.72,1232.36 1717.45,1232.76 1722.18,1233.83 
  1726.91,1234.91 1731.64,1236 1736.37,1237.08 1741.1,1238.17 1745.84,1239.27 1750.57,1240.53 1755.3,1241.84 1760.03,1243.16 1764.76,1244.49 1769.49,1245.83 
  1774.22,1247.17 1778.95,1248.51 1783.68,1249.86 1788.41,1251.22 1793.14,1252.58 1797.87,1253.95 1802.6,1255.32 1807.34,1256.7 1812.07,1258.08 1816.8,1259.47 
  1821.53,1259.8 1826.26,1260.1 1830.99,1260.41 1835.72,1260.72 1840.45,1261.03 1845.18,1261.34 1849.91,1261.65 1854.64,1261.96 1859.37,1262.28 1864.1,1262.59 
  1868.83,1262.91 1873.57,1263.22 1878.3,1263.54 1883.03,1263.86 1887.76,1264.18 1892.49,1264.5 1897.22,1264.82 1901.95,1265.27 1906.68,1265.92 1911.41,1266.58 
  1916.14,1267.24 1920.87,1267.9 1925.6,1268.56 1930.33,1269.22 1935.07,1269.89 1939.8,1270.55 1944.53,1271.22 1949.26,1271.81 1953.99,1272.32 1958.72,1272.84 
  1963.45,1273.36 1968.18,1273.88 1972.91,1274.4 1977.64,1274.93 1982.37,1275.45 1987.1,1275.98 1991.83,1276.5 1996.56,1277.03 2001.3,1277.34 2006.03,1277.57 
  2010.76,1277.8 2015.49,1278.02 2020.22,1278.25 2024.95,1278.48 2029.68,1278.71 2034.41,1278.94 2039.14,1279.17 2043.87,1279.4 2048.6,1279.63 2053.33,1279.86 
  2058.06,1280.49 2062.8,1281.23 2067.53,1281.98 2072.26,1282.73 2076.99,1283.48 2081.72,1284.24 2086.45,1284.99 2091.18,1285.74 2095.91,1286.5 2100.64,1287.25 
  2105.37,1288.01 2110.1,1288.77 2114.83,1289.52 2119.56,1290.42 2124.3,1291.4 2129.03,1292.38 2133.76,1293.37 2138.49,1294.35 2143.22,1295.34 2147.95,1296.33 
  2152.68,1297.32 2157.41,1298.31 2162.14,1299.3 2166.87,1300.3 2171.6,1301.29 2176.33,1302.29 2181.06,1303.28 2185.79,1304.27 2190.53,1304.22 2195.26,1304.18 
  2199.99,1304.13 
  "/>
<polyline clip-path="url(#clip522)" style="stroke:#3da44d; stroke-width:4; stroke-opacity:1; fill:none" points="
  307.689,1322.67 312.42,1321.5 317.15,1321.12 321.881,1320.92 326.612,1320.86 331.343,1320.48 336.073,1320.67 340.804,1321.23 345.535,1320.48 350.266,1319.4 
  354.996,1318.57 359.727,1317.23 364.458,1316.09 369.189,1315.29 373.919,1314.82 378.65,1315.34 383.381,1314.59 388.112,1313.87 392.842,1313.9 397.573,1312.88 
  402.304,1312.34 407.035,1310.66 411.765,1308.94 416.496,1307.77 421.227,1307.44 425.958,1306.25 430.688,1306.1 435.419,1305.87 440.15,1304.96 444.881,1304.33 
  449.611,1303.58 454.342,1302.45 459.073,1303.21 463.804,1303.15 468.534,1302.52 473.265,1301.67 477.996,1301.05 482.726,1300.42 487.457,1298.58 492.188,1298.23 
  496.919,1297.02 501.649,1295.67 506.38,1296.43 511.111,1296.41 515.842,1296.86 520.572,1297.27 525.303,1296.77 530.034,1296.97 534.765,1294.55 539.495,1294.5 
  544.226,1294.17 548.957,1293.48 553.688,1293.41 558.418,1293.32 563.149,1292.98 567.88,1292.73 572.611,1291.43 577.341,1290.68 582.072,1290.14 586.803,1288.43 
  591.534,1287.92 596.264,1287.49 600.995,1287.95 605.726,1287.41 610.457,1287.21 615.187,1287.01 619.918,1284.62 624.649,1281.91 629.38,1282.18 634.11,1279.96 
  638.841,1277.21 643.572,1277.07 648.303,1274.37 653.033,1274.29 657.764,1273.36 662.495,1273.15 667.226,1271.98 671.956,1270.05 676.687,1269.42 681.418,1266.69 
  686.149,1265.22 690.879,1265.38 695.61,1265.33 700.341,1263.37 705.072,1262.37 709.802,1260.33 714.533,1258.46 719.264,1255.43 723.994,1254.98 728.725,1251.75 
  733.456,1250.34 738.187,1249.12 742.917,1245.45 747.648,1244.56 752.379,1243.11 757.11,1241.12 761.84,1239.21 766.571,1236.02 771.302,1234.47 776.033,1232.99 
  780.763,1231.18 785.494,1226.81 790.225,1225.13 794.956,1222.38 799.686,1218.91 804.417,1216.42 809.148,1215.72 813.879,1212.22 818.609,1209.83 823.34,1208.38 
  828.071,1206.27 832.802,1200.84 837.532,1197.61 842.263,1195.06 846.994,1194.32 851.725,1191.7 856.455,1190.38 861.186,1189.47 865.917,1187.92 870.648,1183.11 
  875.378,1182.43 880.109,1180.01 884.84,1176.81 889.571,1172.48 894.301,1168.01 899.032,1163.74 903.763,1158.28 908.494,1154.43 913.224,1152.64 917.955,1148.63 
  922.686,1143.28 927.417,1138.64 932.147,1137.18 936.878,1136.96 941.609,1132.68 946.34,1125.6 951.07,1120.24 955.801,1118.42 960.532,1115.94 965.262,1110.59 
  969.993,1109 974.724,1108.97 979.455,1107.95 984.185,1104.47 988.916,1101.46 993.647,1098.01 998.378,1093.98 1003.11,1089.6 1007.84,1082.65 1012.57,1079.48 
  1017.3,1075.73 1022.03,1070.65 1026.76,1063.88 1031.49,1061.26 1036.22,1058.08 1040.95,1055.6 1045.69,1049.29 1050.42,1044.07 1055.15,1036.31 1059.88,1032.16 
  1064.61,1029.82 1069.34,1026.91 1074.07,1022.79 1078.8,1017.38 1083.53,1011.59 1088.26,1007.99 1092.99,1003.7 1097.72,999.023 1102.45,995.056 1107.18,991.165 
  1111.92,986.234 1116.65,979.768 1121.38,975.636 1126.11,970.914 1130.84,965.035 1135.57,958.989 1140.3,953.903 1145.03,948.335 1149.76,945.465 1154.49,942.943 
  1159.22,939.315 1163.95,931.815 1168.68,923.817 1173.42,916.016 1178.15,908.666 1182.88,901.659 1187.61,894.265 1192.34,887.045 1197.07,880.989 1201.8,875.968 
  1206.53,870.569 1211.26,863.351 1215.99,856.752 1220.72,850.391 1225.45,844.252 1230.18,837.277 1234.91,829.551 1239.65,824.363 1244.38,819.409 1249.11,814.291 
  1253.84,810.303 1258.57,807.798 1263.3,801.621 1268.03,793.248 1272.76,784.282 1277.49,775.039 1282.22,770.527 1286.95,766.491 1291.68,757.442 1296.41,747.889 
  1301.15,742.222 1305.88,737.021 1310.61,732.629 1315.34,728.467 1320.07,725.366 1324.8,723.242 1329.53,720.528 1334.26,715.649 1338.99,710.73 1343.72,706.113 
  1348.45,701.542 1353.18,697.646 1357.91,695.117 1362.65,692.579 1367.38,687.216 1372.11,680.97 1376.84,674.875 1381.57,670.568 1386.3,666.231 1391.03,662.488 
  1395.76,659.903 1400.49,657.308 1405.22,654.316 1409.95,650.849 1414.68,647.363 1419.41,644.059 1424.14,640.97 1428.88,637.866 1433.61,634.055 1438.34,629.04 
  1443.07,623.99 1447.8,618.77 1452.53,612.89 1457.26,606.962 1461.99,600.985 1466.72,595.12 1471.45,589.23 1476.18,583.291 1480.91,578.203 1485.64,574.441 
  1490.38,570.659 1495.11,566.859 1499.84,563.456 1504.57,560.232 1509.3,556.995 1514.03,553.744 1518.76,550.326 1523.49,546.822 1528.22,543.303 1532.95,539.767 
  1537.68,536.684 1542.41,534.175 1547.14,531.658 1551.87,529.133 1556.61,526.6 1561.34,525.104 1566.07,523.721 1570.8,522.336 1575.53,520.949 1580.26,519.559 
  1584.99,517.99 1589.72,516.413 1594.45,514.833 1599.18,513.249 1603.91,511.663 1608.64,509.369 1613.37,506.907 1618.11,504.439 1622.84,501.962 1627.57,499.479 
  1632.3,496.897 1637.03,494.19 1641.76,491.475 1646.49,488.751 1651.22,486.018 1655.95,483.275 1660.68,481.111 1665.41,479.076 1670.14,477.035 1674.87,474.989 
  1679.61,472.939 1684.34,470.883 1689.07,469.075 1693.8,467.307 1698.53,465.534 1703.26,463.758 1707.99,461.979 1712.72,460.195 1717.45,458.403 1722.18,456.602 
  1726.91,454.798 1731.64,452.989 1736.37,451.177 1741.1,449.361 1745.84,447.541 1750.57,445.195 1755.3,442.671 1760.03,440.141 1764.76,437.603 1769.49,435.058 
  1774.22,432.505 1778.95,429.946 1783.68,427.617 1788.41,425.397 1793.14,423.172 1797.87,420.941 1802.6,418.705 1807.34,416.463 1812.07,414.216 1816.8,411.963 
  1821.53,410.278 1826.26,408.606 1830.99,406.93 1835.72,405.251 1840.45,403.569 1845.18,401.884 1849.91,400.196 1854.64,398.504 1859.37,397.022 1864.1,395.713 
  1868.83,394.401 1873.57,393.088 1878.3,391.773 1883.03,390.456 1887.76,389.137 1892.49,387.816 1897.22,386.494 1901.95,385.156 1906.68,383.794 1911.41,382.431 
  1916.14,381.066 1920.87,379.698 1925.6,378.329 1930.33,376.958 1935.07,375.584 1939.8,374.209 1944.53,372.832 1949.26,371.51 1953.99,370.24 1958.72,368.967 
  1963.45,367.693 1968.18,366.418 1972.91,365.14 1977.64,363.861 1982.37,362.581 1987.1,361.298 1991.83,360.014 1996.56,358.728 2001.3,357.854 2006.03,357.143 
  2010.76,356.43 2015.49,355.718 2020.22,355.004 2024.95,354.29 2029.68,353.576 2034.41,352.861 2039.14,352.146 2043.87,351.43 2048.6,350.713 2053.33,349.996 
  2058.06,349.078 2062.8,348.098 2067.53,347.116 2072.26,346.133 2076.99,345.15 2081.72,344.165 2086.45,343.18 2091.18,342.193 2095.91,341.206 2100.64,340.217 
  2105.37,339.228 2110.1,338.237 2114.83,337.246 2119.56,336.204 2124.3,335.128 2129.03,334.05 2133.76,332.972 2138.49,331.892 2143.22,330.811 2147.95,329.729 
  2152.68,328.646 2157.41,327.561 2162.14,326.476 2166.87,325.389 2171.6,324.301 2176.33,323.212 2181.06,322.121 2185.79,321.043 2190.53,321.026 2195.26,321.01 
  2199.99,320.993 
  "/>
<path clip-path="url(#clip520)" d="
M1999.43 272.437 L2256.76 272.437 L2256.76 30.5166 L1999.43 30.5166  Z
  " fill="#ffffff" fill-rule="evenodd" fill-opacity="1"/>
<polyline clip-path="url(#clip520)" style="stroke:#000000; stroke-width:4; stroke-opacity:1; fill:none" points="
  1999.43,272.437 2256.76,272.437 2256.76,30.5166 1999.43,30.5166 1999.43,272.437 
  "/>
<polyline clip-path="url(#clip520)" style="stroke:#009af9; stroke-width:4; stroke-opacity:1; fill:none" points="
  2022.47,90.9966 2160.71,90.9966 
  "/>
<path clip-path="url(#clip520)" d="M 0 0 M2206 74.8509 L2206 79.411 Q2203.34 78.1379 2200.98 77.5129 Q2198.62 76.8879 2196.42 76.8879 Q2192.6 76.8879 2190.51 78.3694 Q2188.45 79.8508 2188.45 82.5823 Q2188.45 84.874 2189.82 86.0545 Q2191.21 87.2119 2195.05 87.9295 L2197.88 88.5082 Q2203.11 89.5036 2205.58 92.0267 Q2208.08 94.5267 2208.08 98.7396 Q2208.08 103.763 2204.7 106.355 Q2201.35 108.948 2194.84 108.948 Q2192.39 108.948 2189.61 108.392 Q2186.86 107.837 2183.89 106.749 L2183.89 101.934 Q2186.74 103.531 2189.47 104.341 Q2192.2 105.152 2194.84 105.152 Q2198.85 105.152 2201.02 103.578 Q2203.2 102.004 2203.2 99.0869 Q2203.2 96.5406 2201.63 95.1054 Q2200.07 93.6702 2196.51 92.9526 L2193.66 92.3971 Q2188.43 91.3554 2186.09 89.1332 Q2183.75 86.911 2183.75 82.9527 Q2183.75 78.3694 2186.97 75.7305 Q2190.21 73.0916 2195.88 73.0916 Q2198.31 73.0916 2200.84 73.5314 Q2203.36 73.9712 2206 74.8509 Z" fill="#000000" fill-rule="evenodd" fill-opacity="1" /><polyline clip-path="url(#clip520)" style="stroke:#e26f46; stroke-width:4; stroke-opacity:1; fill:none" points="
  2022.47,151.477 2160.71,151.477 
  "/>
<path clip-path="url(#clip520)" d="M 0 0 M2183.75 134.197 L2188.43 134.197 L2188.43 168.757 L2183.75 168.757 L2183.75 134.197 Z" fill="#000000" fill-rule="evenodd" fill-opacity="1" /><polyline clip-path="url(#clip520)" style="stroke:#3da44d; stroke-width:4; stroke-opacity:1; fill:none" points="
  2022.47,211.957 2160.71,211.957 
  "/>
<path clip-path="url(#clip520)" d="M 0 0 M2200.14 213.033 Q2201.65 213.542 2203.06 215.209 Q2204.5 216.876 2205.93 219.792 L2210.68 229.237 L2205.65 229.237 L2201.23 220.371 Q2199.52 216.899 2197.9 215.764 Q2196.3 214.63 2193.52 214.63 L2188.43 214.63 L2188.43 229.237 L2183.75 229.237 L2183.75 194.677 L2194.31 194.677 Q2200.24 194.677 2203.15 197.153 Q2206.07 199.63 2206.07 204.63 Q2206.07 207.894 2204.54 210.047 Q2203.04 212.2 2200.14 213.033 M2188.43 198.519 L2188.43 210.788 L2194.31 210.788 Q2197.69 210.788 2199.4 209.237 Q2201.14 207.663 2201.14 204.63 Q2201.14 201.598 2199.4 200.07 Q2197.69 198.519 2194.31 198.519 L2188.43 198.519 Z" fill="#000000" fill-rule="evenodd" fill-opacity="1" /></svg>
