<?xml version="1.0" encoding="utf-8"?>
<svg xmlns="http://www.w3.org/2000/svg" xmlns:xlink="http://www.w3.org/1999/xlink" width="576" height="384" viewBox="0 0 2304 1536">
<defs>
  <clipPath id="clip660">
    <rect x="0" y="0" width="2304" height="1536"/>
  </clipPath>
</defs>
<path clip-path="url(#clip660)" d="
M0 1536 L2304 1536 L2304 0 L0 0  Z
  " fill="#ffffff" fill-rule="evenodd" fill-opacity="1"/>
<defs>
  <clipPath id="clip661">
    <rect x="460" y="0" width="1614" height="1536"/>
  </clipPath>
</defs>
<path clip-path="url(#clip660)" d="
M124.296 1423.09 L2256.76 1423.09 L2256.76 47.2441 L124.296 47.2441  Z
  " fill="#ffffff" fill-rule="evenodd" fill-opacity="1"/>
<defs>
  <clipPath id="clip662">
    <rect x="124" y="47" width="2133" height="1377"/>
  </clipPath>
</defs>
<polyline clip-path="url(#clip662)" style="stroke:#000000; stroke-width:2; stroke-opacity:0.1; fill:none" points="
  133.065,1423.09 133.065,47.2441 
  "/>
<polyline clip-path="url(#clip662)" style="stroke:#000000; stroke-width:2; stroke-opacity:0.1; fill:none" points="
  648.9,1423.09 648.9,47.2441 
  "/>
<polyline clip-path="url(#clip662)" style="stroke:#000000; stroke-width:2; stroke-opacity:0.1; fill:none" points="
  1164.73,1423.09 1164.73,47.2441 
  "/>
<polyline clip-path="url(#clip662)" style="stroke:#000000; stroke-width:2; stroke-opacity:0.1; fill:none" points="
  1680.57,1423.09 1680.57,47.2441 
  "/>
<polyline clip-path="url(#clip662)" style="stroke:#000000; stroke-width:2; stroke-opacity:0.1; fill:none" points="
  2196.4,1423.09 2196.4,47.2441 
  "/>
<polyline clip-path="url(#clip662)" style="stroke:#000000; stroke-width:2; stroke-opacity:0.1; fill:none" points="
  124.296,1384.15 2256.76,1384.15 
  "/>
<polyline clip-path="url(#clip662)" style="stroke:#000000; stroke-width:2; stroke-opacity:0.1; fill:none" points="
  124.296,1124.56 2256.76,1124.56 
  "/>
<polyline clip-path="url(#clip662)" style="stroke:#000000; stroke-width:2; stroke-opacity:0.1; fill:none" points="
  124.296,864.963 2256.76,864.963 
  "/>
<polyline clip-path="url(#clip662)" style="stroke:#000000; stroke-width:2; stroke-opacity:0.1; fill:none" points="
  124.296,605.369 2256.76,605.369 
  "/>
<polyline clip-path="url(#clip662)" style="stroke:#000000; stroke-width:2; stroke-opacity:0.1; fill:none" points="
  124.296,345.776 2256.76,345.776 
  "/>
<polyline clip-path="url(#clip662)" style="stroke:#000000; stroke-width:2; stroke-opacity:0.1; fill:none" points="
  124.296,86.1831 2256.76,86.1831 
  "/>
<polyline clip-path="url(#clip660)" style="stroke:#000000; stroke-width:4; stroke-opacity:1; fill:none" points="
  124.296,1423.09 2256.76,1423.09 
  "/>
<polyline clip-path="url(#clip660)" style="stroke:#000000; stroke-width:4; stroke-opacity:1; fill:none" points="
  124.296,1423.09 124.296,47.2441 
  "/>
<polyline clip-path="url(#clip660)" style="stroke:#000000; stroke-width:4; stroke-opacity:1; fill:none" points="
  133.065,1423.09 133.065,1406.58 
  "/>
<polyline clip-path="url(#clip660)" style="stroke:#000000; stroke-width:4; stroke-opacity:1; fill:none" points="
  648.9,1423.09 648.9,1406.58 
  "/>
<polyline clip-path="url(#clip660)" style="stroke:#000000; stroke-width:4; stroke-opacity:1; fill:none" points="
  1164.73,1423.09 1164.73,1406.58 
  "/>
<polyline clip-path="url(#clip660)" style="stroke:#000000; stroke-width:4; stroke-opacity:1; fill:none" points="
  1680.57,1423.09 1680.57,1406.58 
  "/>
<polyline clip-path="url(#clip660)" style="stroke:#000000; stroke-width:4; stroke-opacity:1; fill:none" points="
  2196.4,1423.09 2196.4,1406.58 
  "/>
<polyline clip-path="url(#clip660)" style="stroke:#000000; stroke-width:4; stroke-opacity:1; fill:none" points="
  124.296,1384.15 149.885,1384.15 
  "/>
<polyline clip-path="url(#clip660)" style="stroke:#000000; stroke-width:4; stroke-opacity:1; fill:none" points="
  124.296,1124.56 149.885,1124.56 
  "/>
<polyline clip-path="url(#clip660)" style="stroke:#000000; stroke-width:4; stroke-opacity:1; fill:none" points="
  124.296,864.963 149.885,864.963 
  "/>
<polyline clip-path="url(#clip660)" style="stroke:#000000; stroke-width:4; stroke-opacity:1; fill:none" points="
  124.296,605.369 149.885,605.369 
  "/>
<polyline clip-path="url(#clip660)" style="stroke:#000000; stroke-width:4; stroke-opacity:1; fill:none" points="
  124.296,345.776 149.885,345.776 
  "/>
<polyline clip-path="url(#clip660)" style="stroke:#000000; stroke-width:4; stroke-opacity:1; fill:none" points="
  124.296,86.1831 149.885,86.1831 
  "/>
<path clip-path="url(#clip660)" d="M 0 0 M133.065 1444.6 Q129.454 1444.6 127.625 1448.16 Q125.82 1451.71 125.82 1458.83 Q125.82 1465.94 127.625 1469.51 Q129.454 1473.05 133.065 1473.05 Q136.699 1473.05 138.505 1469.51 Q140.333 1465.94 140.333 1458.83 Q140.333 1451.71 138.505 1448.16 Q136.699 1444.6 133.065 1444.6 M133.065 1440.89 Q138.875 1440.89 141.931 1445.5 Q145.009 1450.08 145.009 1458.83 Q145.009 1467.56 141.931 1472.17 Q138.875 1476.75 133.065 1476.75 Q127.255 1476.75 124.176 1472.17 Q121.121 1467.56 121.121 1458.83 Q121.121 1450.08 124.176 1445.5 Q127.255 1440.89 133.065 1440.89 Z" fill="#000000" fill-rule="evenodd" fill-opacity="1" /><path clip-path="url(#clip660)" d="M 0 0 M625.775 1472.14 L633.414 1472.14 L633.414 1445.78 L625.103 1447.45 L625.103 1443.19 L633.367 1441.52 L638.043 1441.52 L638.043 1472.14 L645.682 1472.14 L645.682 1476.08 L625.775 1476.08 L625.775 1472.14 Z" fill="#000000" fill-rule="evenodd" fill-opacity="1" /><path clip-path="url(#clip660)" d="M 0 0 M660.751 1444.6 Q657.14 1444.6 655.312 1448.16 Q653.506 1451.71 653.506 1458.83 Q653.506 1465.94 655.312 1469.51 Q657.14 1473.05 660.751 1473.05 Q664.386 1473.05 666.191 1469.51 Q668.02 1465.94 668.02 1458.83 Q668.02 1451.71 666.191 1448.16 Q664.386 1444.6 660.751 1444.6 M660.751 1440.89 Q666.562 1440.89 669.617 1445.5 Q672.696 1450.08 672.696 1458.83 Q672.696 1467.56 669.617 1472.17 Q666.562 1476.75 660.751 1476.75 Q654.941 1476.75 651.863 1472.17 Q648.807 1467.56 648.807 1458.83 Q648.807 1450.08 651.863 1445.5 Q654.941 1440.89 660.751 1440.89 Z" fill="#000000" fill-rule="evenodd" fill-opacity="1" /><path clip-path="url(#clip660)" d="M 0 0 M1145.88 1472.14 L1162.2 1472.14 L1162.2 1476.08 L1140.26 1476.08 L1140.26 1472.14 Q1142.92 1469.39 1147.5 1464.76 Q1152.11 1460.11 1153.29 1458.77 Q1155.53 1456.24 1156.41 1454.51 Q1157.32 1452.75 1157.32 1451.06 Q1157.32 1448.3 1155.37 1446.57 Q1153.45 1444.83 1150.35 1444.83 Q1148.15 1444.83 1145.69 1445.59 Q1143.26 1446.36 1140.49 1447.91 L1140.49 1443.19 Q1143.31 1442.05 1145.76 1441.47 Q1148.22 1440.89 1150.26 1440.89 Q1155.63 1440.89 1158.82 1443.58 Q1162.01 1446.27 1162.01 1450.76 Q1162.01 1452.89 1161.2 1454.81 Q1160.42 1456.7 1158.31 1459.3 Q1157.73 1459.97 1154.63 1463.19 Q1151.53 1466.38 1145.88 1472.14 Z" fill="#000000" fill-rule="evenodd" fill-opacity="1" /><path clip-path="url(#clip660)" d="M 0 0 M1177.27 1444.6 Q1173.66 1444.6 1171.83 1448.16 Q1170.02 1451.71 1170.02 1458.83 Q1170.02 1465.94 1171.83 1469.51 Q1173.66 1473.05 1177.27 1473.05 Q1180.9 1473.05 1182.71 1469.51 Q1184.54 1465.94 1184.54 1458.83 Q1184.54 1451.71 1182.71 1448.16 Q1180.9 1444.6 1177.27 1444.6 M1177.27 1440.89 Q1183.08 1440.89 1186.13 1445.5 Q1189.21 1450.08 1189.21 1458.83 Q1189.21 1467.56 1186.13 1472.17 Q1183.08 1476.75 1177.27 1476.75 Q1171.46 1476.75 1168.38 1472.17 Q1165.32 1467.56 1165.32 1458.83 Q1165.32 1450.08 1168.38 1445.5 Q1171.46 1440.89 1177.27 1440.89 Z" fill="#000000" fill-rule="evenodd" fill-opacity="1" /><path clip-path="url(#clip660)" d="M 0 0 M1671.31 1457.45 Q1674.67 1458.16 1676.54 1460.43 Q1678.44 1462.7 1678.44 1466.03 Q1678.44 1471.15 1674.92 1473.95 Q1671.4 1476.75 1664.92 1476.75 Q1662.74 1476.75 1660.43 1476.31 Q1658.14 1475.89 1655.68 1475.04 L1655.68 1470.52 Q1657.63 1471.66 1659.94 1472.24 Q1662.26 1472.82 1664.78 1472.82 Q1669.18 1472.82 1671.47 1471.08 Q1673.79 1469.34 1673.79 1466.03 Q1673.79 1462.98 1671.63 1461.27 Q1669.5 1459.53 1665.68 1459.53 L1661.66 1459.53 L1661.66 1455.69 L1665.87 1455.69 Q1669.32 1455.69 1671.15 1454.32 Q1672.98 1452.93 1672.98 1450.34 Q1672.98 1447.68 1671.08 1446.27 Q1669.2 1444.83 1665.68 1444.83 Q1663.76 1444.83 1661.56 1445.25 Q1659.37 1445.66 1656.73 1446.54 L1656.73 1442.38 Q1659.39 1441.64 1661.7 1441.27 Q1664.04 1440.89 1666.1 1440.89 Q1671.43 1440.89 1674.53 1443.33 Q1677.63 1445.73 1677.63 1449.85 Q1677.63 1452.72 1675.99 1454.71 Q1674.34 1456.68 1671.31 1457.45 Z" fill="#000000" fill-rule="evenodd" fill-opacity="1" /><path clip-path="url(#clip660)" d="M 0 0 M1693.51 1444.6 Q1689.9 1444.6 1688.07 1448.16 Q1686.26 1451.71 1686.26 1458.83 Q1686.26 1465.94 1688.07 1469.51 Q1689.9 1473.05 1693.51 1473.05 Q1697.14 1473.05 1698.95 1469.51 Q1700.78 1465.94 1700.78 1458.83 Q1700.78 1451.71 1698.95 1448.16 Q1697.14 1444.6 1693.51 1444.6 M1693.51 1440.89 Q1699.32 1440.89 1702.37 1445.5 Q1705.45 1450.08 1705.45 1458.83 Q1705.45 1467.56 1702.37 1472.17 Q1699.32 1476.75 1693.51 1476.75 Q1687.7 1476.75 1684.62 1472.17 Q1681.56 1467.56 1681.56 1458.83 Q1681.56 1450.08 1684.62 1445.5 Q1687.7 1440.89 1693.51 1440.89 Z" fill="#000000" fill-rule="evenodd" fill-opacity="1" /><path clip-path="url(#clip660)" d="M 0 0 M2185.91 1445.59 L2174.1 1464.04 L2185.91 1464.04 L2185.91 1445.59 M2184.68 1441.52 L2190.56 1441.52 L2190.56 1464.04 L2195.49 1464.04 L2195.49 1467.93 L2190.56 1467.93 L2190.56 1476.08 L2185.91 1476.08 L2185.91 1467.93 L2170.3 1467.93 L2170.3 1463.42 L2184.68 1441.52 Z" fill="#000000" fill-rule="evenodd" fill-opacity="1" /><path clip-path="url(#clip660)" d="M 0 0 M2210.56 1444.6 Q2206.95 1444.6 2205.12 1448.16 Q2203.31 1451.71 2203.31 1458.83 Q2203.31 1465.94 2205.12 1469.51 Q2206.95 1473.05 2210.56 1473.05 Q2214.19 1473.05 2216 1469.51 Q2217.83 1465.94 2217.83 1458.83 Q2217.83 1451.71 2216 1448.16 Q2214.19 1444.6 2210.56 1444.6 M2210.56 1440.89 Q2216.37 1440.89 2219.42 1445.5 Q2222.5 1450.08 2222.5 1458.83 Q2222.5 1467.56 2219.42 1472.17 Q2216.37 1476.75 2210.56 1476.75 Q2204.75 1476.75 2201.67 1472.17 Q2198.61 1467.56 2198.61 1458.83 Q2198.61 1450.08 2201.67 1445.5 Q2204.75 1440.89 2210.56 1440.89 Z" fill="#000000" fill-rule="evenodd" fill-opacity="1" /><path clip-path="url(#clip660)" d="M 0 0 M63.3625 1386.54 L75.8393 1386.54 L75.8393 1390.34 L63.3625 1390.34 L63.3625 1386.54 Z" fill="#000000" fill-rule="evenodd" fill-opacity="1" /><path clip-path="url(#clip660)" d="M 0 0 M84.9365 1397.49 L101.256 1397.49 L101.256 1401.43 L79.3115 1401.43 L79.3115 1397.49 Q81.9735 1394.74 86.5568 1390.11 Q91.1633 1385.46 92.3438 1384.11 Q94.5892 1381.59 95.4688 1379.85 Q96.3716 1378.1 96.3716 1376.41 Q96.3716 1373.65 94.4271 1371.92 Q92.5059 1370.18 89.404 1370.18 Q87.205 1370.18 84.7513 1370.94 Q82.3207 1371.71 79.543 1373.26 L79.543 1368.54 Q82.367 1367.4 84.8207 1366.82 Q87.2744 1366.24 89.3114 1366.24 Q94.6818 1366.24 97.8762 1368.93 Q101.071 1371.61 101.071 1376.1 Q101.071 1378.23 100.26 1380.16 Q99.4734 1382.05 97.3669 1384.65 Q96.7882 1385.32 93.6864 1388.54 Q90.5846 1391.73 84.9365 1397.49 Z" fill="#000000" fill-rule="evenodd" fill-opacity="1" /><path clip-path="url(#clip660)" d="M 0 0 M62.9921 1126.95 L75.4689 1126.95 L75.4689 1130.75 L62.9921 1130.75 L62.9921 1126.95 Z" fill="#000000" fill-rule="evenodd" fill-opacity="1" /><path clip-path="url(#clip660)" d="M 0 0 M81.3485 1137.9 L88.9874 1137.9 L88.9874 1111.53 L80.6772 1113.2 L80.6772 1108.94 L88.9411 1107.28 L93.617 1107.28 L93.617 1137.9 L101.256 1137.9 L101.256 1141.84 L81.3485 1141.84 L81.3485 1137.9 Z" fill="#000000" fill-rule="evenodd" fill-opacity="1" /><path clip-path="url(#clip660)" d="M 0 0 M89.3114 850.761 Q85.7003 850.761 83.8716 854.326 Q82.0661 857.868 82.0661 864.997 Q82.0661 872.104 83.8716 875.669 Q85.7003 879.21 89.3114 879.21 Q92.9457 879.21 94.7512 875.669 Q96.5799 872.104 96.5799 864.997 Q96.5799 857.868 94.7512 854.326 Q92.9457 850.761 89.3114 850.761 M89.3114 847.058 Q95.1216 847.058 98.1771 851.664 Q101.256 856.247 101.256 864.997 Q101.256 873.724 98.1771 878.331 Q95.1216 882.914 89.3114 882.914 Q83.5013 882.914 80.4226 878.331 Q77.367 873.724 77.367 864.997 Q77.367 856.247 80.4226 851.664 Q83.5013 847.058 89.3114 847.058 Z" fill="#000000" fill-rule="evenodd" fill-opacity="1" /><path clip-path="url(#clip660)" d="M 0 0 M81.3485 618.714 L88.9874 618.714 L88.9874 592.349 L80.6772 594.015 L80.6772 589.756 L88.9411 588.089 L93.617 588.089 L93.617 618.714 L101.256 618.714 L101.256 622.649 L81.3485 622.649 L81.3485 618.714 Z" fill="#000000" fill-rule="evenodd" fill-opacity="1" /><path clip-path="url(#clip660)" d="M 0 0 M84.9365 359.121 L101.256 359.121 L101.256 363.056 L79.3115 363.056 L79.3115 359.121 Q81.9735 356.366 86.5568 351.737 Q91.1633 347.084 92.3438 345.742 Q94.5892 343.218 95.4688 341.482 Q96.3716 339.723 96.3716 338.033 Q96.3716 335.279 94.4271 333.543 Q92.5059 331.806 89.404 331.806 Q87.205 331.806 84.7513 332.57 Q82.3207 333.334 79.543 334.885 L79.543 330.163 Q82.367 329.029 84.8207 328.45 Q87.2744 327.871 89.3114 327.871 Q94.6818 327.871 97.8762 330.556 Q101.071 333.242 101.071 337.732 Q101.071 339.862 100.26 341.783 Q99.4734 343.681 97.3669 346.274 Q96.7882 346.945 93.6864 350.163 Q90.5846 353.357 84.9365 359.121 Z" fill="#000000" fill-rule="evenodd" fill-opacity="1" /><path clip-path="url(#clip660)" d="M 0 0 M94.1262 84.8289 Q97.4827 85.5465 99.3577 87.815 Q101.256 90.0835 101.256 93.4168 Q101.256 98.5325 97.7373 101.333 Q94.2188 104.134 87.7374 104.134 Q85.5614 104.134 83.2466 103.695 Q80.955 103.278 78.5013 102.421 L78.5013 97.9075 Q80.4457 99.0418 82.7605 99.6205 Q85.0753 100.199 87.5985 100.199 Q91.9966 100.199 94.2883 98.4631 Q96.6031 96.727 96.6031 93.4168 Q96.6031 90.3613 94.4503 88.6483 Q92.3207 86.9122 88.5012 86.9122 L84.4735 86.9122 L84.4735 83.0697 L88.6864 83.0697 Q92.1355 83.0697 93.9642 81.7039 Q95.7929 80.315 95.7929 77.7225 Q95.7929 75.0604 93.8947 73.6484 Q92.0197 72.2132 88.5012 72.2132 Q86.58 72.2132 84.3809 72.6299 Q82.1818 73.0466 79.543 73.9262 L79.543 69.7595 Q82.205 69.0188 84.5198 68.6484 Q86.8577 68.2781 88.9179 68.2781 Q94.242 68.2781 97.3438 70.7086 Q100.446 73.116 100.446 77.2364 Q100.446 80.1067 98.8021 82.0974 Q97.1586 84.065 94.1262 84.8289 Z" fill="#000000" fill-rule="evenodd" fill-opacity="1" /><polyline clip-path="url(#clip662)" style="stroke:#009af9; stroke-width:4; stroke-opacity:1; fill:none" points="
  184.648,864.963 236.232,86.1831 287.815,345.776 339.399,864.963 390.982,864.963 442.566,345.776 494.149,345.776 545.733,345.776 597.316,345.776 648.9,345.776 
  700.483,86.1831 752.066,345.776 803.65,605.369 855.233,605.369 906.817,864.963 958.4,864.963 1009.98,864.963 1061.57,1124.56 1113.15,1124.56 1164.73,1384.15 
  1216.32,1384.15 1267.9,1384.15 1319.48,1384.15 1371.07,1384.15 1422.65,1124.56 1474.23,1124.56 1525.82,1124.56 1577.4,1124.56 1628.99,1124.56 1680.57,1124.56 
  1732.15,1124.56 1783.74,864.963 1835.32,864.963 1886.9,864.963 1938.49,864.963 1990.07,864.963 2041.65,864.963 2093.24,864.963 2144.82,1124.56 2196.4,864.963 
  
  "/>
<path clip-path="url(#clip660)" d="
M1906.22 245.964 L2187.64 245.964 L2187.64 125.004 L1906.22 125.004  Z
  " fill="#ffffff" fill-rule="evenodd" fill-opacity="1"/>
<polyline clip-path="url(#clip660)" style="stroke:#000000; stroke-width:4; stroke-opacity:1; fill:none" points="
  1906.22,245.964 2187.64,245.964 2187.64,125.004 1906.22,125.004 1906.22,245.964 
  "/>
<polyline clip-path="url(#clip660)" style="stroke:#009af9; stroke-width:4; stroke-opacity:1; fill:none" points="
  1929.26,185.484 2067.5,185.484 
  "/>
<path clip-path="url(#clip660)" d="M 0 0 M2104.38 205.171 Q2102.57 209.801 2100.86 211.213 Q2099.15 212.625 2096.28 212.625 L2092.88 212.625 L2092.88 209.06 L2095.38 209.06 Q2097.13 209.06 2098.11 208.227 Q2099.08 207.394 2100.26 204.292 L2101.02 202.347 L2090.54 176.838 L2095.05 176.838 L2103.15 197.116 L2111.26 176.838 L2115.77 176.838 L2104.38 205.171 Z" fill="#000000" fill-rule="evenodd" fill-opacity="1" /><path clip-path="url(#clip660)" d="M 0 0 M2121.65 198.829 L2129.29 198.829 L2129.29 172.463 L2120.98 174.13 L2120.98 169.871 L2129.24 168.204 L2133.92 168.204 L2133.92 198.829 L2141.56 198.829 L2141.56 202.764 L2121.65 202.764 L2121.65 198.829 Z" fill="#000000" fill-rule="evenodd" fill-opacity="1" /></svg>
