<?xml version="1.0" encoding="utf-8"?>
<svg xmlns="http://www.w3.org/2000/svg" xmlns:xlink="http://www.w3.org/1999/xlink" width="576" height="384" viewBox="0 0 2304 1536">
<defs>
  <clipPath id="clip620">
    <rect x="0" y="0" width="2304" height="1536"/>
  </clipPath>
</defs>
<path clip-path="url(#clip620)" d="
M0 1536 L2304 1536 L2304 0 L0 0  Z
  " fill="#ffffff" fill-rule="evenodd" fill-opacity="1"/>
<defs>
  <clipPath id="clip621">
    <rect x="460" y="0" width="1614" height="1536"/>
  </clipPath>
</defs>
<path clip-path="url(#clip620)" d="
M124.296 1423.09 L2256.76 1423.09 L2256.76 47.2441 L124.296 47.2441  Z
  " fill="#ffffff" fill-rule="evenodd" fill-opacity="1"/>
<defs>
  <clipPath id="clip622">
    <rect x="124" y="47" width="2133" height="1377"/>
  </clipPath>
</defs>
<polyline clip-path="url(#clip622)" style="stroke:#000000; stroke-width:2; stroke-opacity:0.1; fill:none" points="
  133.065,1423.09 133.065,47.2441 
  "/>
<polyline clip-path="url(#clip622)" style="stroke:#000000; stroke-width:2; stroke-opacity:0.1; fill:none" points="
  648.9,1423.09 648.9,47.2441 
  "/>
<polyline clip-path="url(#clip622)" style="stroke:#000000; stroke-width:2; stroke-opacity:0.1; fill:none" points="
  1164.73,1423.09 1164.73,47.2441 
  "/>
<polyline clip-path="url(#clip622)" style="stroke:#000000; stroke-width:2; stroke-opacity:0.1; fill:none" points="
  1680.57,1423.09 1680.57,47.2441 
  "/>
<polyline clip-path="url(#clip622)" style="stroke:#000000; stroke-width:2; stroke-opacity:0.1; fill:none" points="
  2196.4,1423.09 2196.4,47.2441 
  "/>
<polyline clip-path="url(#clip622)" style="stroke:#000000; stroke-width:2; stroke-opacity:0.1; fill:none" points="
  124.296,1417.15 2256.76,1417.15 
  "/>
<polyline clip-path="url(#clip622)" style="stroke:#000000; stroke-width:2; stroke-opacity:0.1; fill:none" points="
  124.296,1145.86 2256.76,1145.86 
  "/>
<polyline clip-path="url(#clip622)" style="stroke:#000000; stroke-width:2; stroke-opacity:0.1; fill:none" points="
  124.296,874.574 2256.76,874.574 
  "/>
<polyline clip-path="url(#clip622)" style="stroke:#000000; stroke-width:2; stroke-opacity:0.1; fill:none" points="
  124.296,603.284 2256.76,603.284 
  "/>
<polyline clip-path="url(#clip622)" style="stroke:#000000; stroke-width:2; stroke-opacity:0.1; fill:none" points="
  124.296,331.994 2256.76,331.994 
  "/>
<polyline clip-path="url(#clip622)" style="stroke:#000000; stroke-width:2; stroke-opacity:0.1; fill:none" points="
  124.296,60.7036 2256.76,60.7036 
  "/>
<polyline clip-path="url(#clip620)" style="stroke:#000000; stroke-width:4; stroke-opacity:1; fill:none" points="
  124.296,1423.09 2256.76,1423.09 
  "/>
<polyline clip-path="url(#clip620)" style="stroke:#000000; stroke-width:4; stroke-opacity:1; fill:none" points="
  124.296,1423.09 124.296,47.2441 
  "/>
<polyline clip-path="url(#clip620)" style="stroke:#000000; stroke-width:4; stroke-opacity:1; fill:none" points="
  133.065,1423.09 133.065,1406.58 
  "/>
<polyline clip-path="url(#clip620)" style="stroke:#000000; stroke-width:4; stroke-opacity:1; fill:none" points="
  648.9,1423.09 648.9,1406.58 
  "/>
<polyline clip-path="url(#clip620)" style="stroke:#000000; stroke-width:4; stroke-opacity:1; fill:none" points="
  1164.73,1423.09 1164.73,1406.58 
  "/>
<polyline clip-path="url(#clip620)" style="stroke:#000000; stroke-width:4; stroke-opacity:1; fill:none" points="
  1680.57,1423.09 1680.57,1406.58 
  "/>
<polyline clip-path="url(#clip620)" style="stroke:#000000; stroke-width:4; stroke-opacity:1; fill:none" points="
  2196.4,1423.09 2196.4,1406.58 
  "/>
<polyline clip-path="url(#clip620)" style="stroke:#000000; stroke-width:4; stroke-opacity:1; fill:none" points="
  124.296,1417.15 149.885,1417.15 
  "/>
<polyline clip-path="url(#clip620)" style="stroke:#000000; stroke-width:4; stroke-opacity:1; fill:none" points="
  124.296,1145.86 149.885,1145.86 
  "/>
<polyline clip-path="url(#clip620)" style="stroke:#000000; stroke-width:4; stroke-opacity:1; fill:none" points="
  124.296,874.574 149.885,874.574 
  "/>
<polyline clip-path="url(#clip620)" style="stroke:#000000; stroke-width:4; stroke-opacity:1; fill:none" points="
  124.296,603.284 149.885,603.284 
  "/>
<polyline clip-path="url(#clip620)" style="stroke:#000000; stroke-width:4; stroke-opacity:1; fill:none" points="
  124.296,331.994 149.885,331.994 
  "/>
<polyline clip-path="url(#clip620)" style="stroke:#000000; stroke-width:4; stroke-opacity:1; fill:none" points="
  124.296,60.7036 149.885,60.7036 
  "/>
<path clip-path="url(#clip620)" d="M 0 0 M133.065 1444.6 Q129.454 1444.6 127.625 1448.16 Q125.82 1451.71 125.82 1458.83 Q125.82 1465.94 127.625 1469.51 Q129.454 1473.05 133.065 1473.05 Q136.699 1473.05 138.505 1469.51 Q140.333 1465.94 140.333 1458.83 Q140.333 1451.71 138.505 1448.16 Q136.699 1444.6 133.065 1444.6 M133.065 1440.89 Q138.875 1440.89 141.931 1445.5 Q145.009 1450.08 145.009 1458.83 Q145.009 1467.56 141.931 1472.17 Q138.875 1476.75 133.065 1476.75 Q127.255 1476.75 124.176 1472.17 Q121.121 1467.56 121.121 1458.83 Q121.121 1450.08 124.176 1445.5 Q127.255 1440.89 133.065 1440.89 Z" fill="#000000" fill-rule="evenodd" fill-opacity="1" /><path clip-path="url(#clip620)" d="M 0 0 M625.775 1472.14 L633.414 1472.14 L633.414 1445.78 L625.103 1447.45 L625.103 1443.19 L633.367 1441.52 L638.043 1441.52 L638.043 1472.14 L645.682 1472.14 L645.682 1476.08 L625.775 1476.08 L625.775 1472.14 Z" fill="#000000" fill-rule="evenodd" fill-opacity="1" /><path clip-path="url(#clip620)" d="M 0 0 M660.751 1444.6 Q657.14 1444.6 655.312 1448.16 Q653.506 1451.71 653.506 1458.83 Q653.506 1465.94 655.312 1469.51 Q657.14 1473.05 660.751 1473.05 Q664.386 1473.05 666.191 1469.51 Q668.02 1465.94 668.02 1458.83 Q668.02 1451.71 666.191 1448.16 Q664.386 1444.6 660.751 1444.6 M660.751 1440.89 Q666.562 1440.89 669.617 1445.5 Q672.696 1450.08 672.696 1458.83 Q672.696 1467.56 669.617 1472.17 Q666.562 1476.75 660.751 1476.75 Q654.941 1476.75 651.863 1472.17 Q648.807 1467.56 648.807 1458.83 Q648.807 1450.08 651.863 1445.5 Q654.941 1440.89 660.751 1440.89 Z" fill="#000000" fill-rule="evenodd" fill-opacity="1" /><path clip-path="url(#clip620)" d="M 0 0 M1145.88 1472.14 L1162.2 1472.14 L1162.2 1476.08 L1140.26 1476.08 L1140.26 1472.14 Q1142.92 1469.39 1147.5 1464.76 Q1152.11 1460.11 1153.29 1458.77 Q1155.53 1456.24 1156.41 1454.51 Q1157.32 1452.75 1157.32 1451.06 Q1157.32 1448.3 1155.37 1446.57 Q1153.45 1444.83 1150.35 1444.83 Q1148.15 1444.83 1145.69 1445.59 Q1143.26 1446.36 1140.49 1447.91 L1140.49 1443.19 Q1143.31 1442.05 1145.76 1441.47 Q1148.22 1440.89 1150.26 1440.89 Q1155.63 1440.89 1158.82 1443.58 Q1162.01 1446.27 1162.01 1450.76 Q1162.01 1452.89 1161.2 1454.81 Q1160.42 1456.7 1158.31 1459.3 Q1157.73 1459.97 1154.63 1463.19 Q1151.53 1466.38 1145.88 1472.14 Z" fill="#000000" fill-rule="evenodd" fill-opacity="1" /><path clip-path="url(#clip620)" d="M 0 0 M1177.27 1444.6 Q1173.66 1444.6 1171.83 1448.16 Q1170.02 1451.71 1170.02 1458.83 Q1170.02 1465.94 1171.83 1469.51 Q1173.66 1473.05 1177.27 1473.05 Q1180.9 1473.05 1182.71 1469.51 Q1184.54 1465.94 1184.54 1458.83 Q1184.54 1451.71 1182.71 1448.16 Q1180.9 1444.6 1177.27 1444.6 M1177.27 1440.89 Q1183.08 1440.89 1186.13 1445.5 Q1189.21 1450.08 1189.21 1458.83 Q1189.21 1467.56 1186.13 1472.17 Q1183.08 1476.75 1177.27 1476.75 Q1171.46 1476.75 1168.38 1472.17 Q1165.32 1467.56 1165.32 1458.83 Q1165.32 1450.08 1168.38 1445.5 Q1171.46 1440.89 1177.27 1440.89 Z" fill="#000000" fill-rule="evenodd" fill-opacity="1" /><path clip-path="url(#clip620)" d="M 0 0 M1671.31 1457.45 Q1674.67 1458.16 1676.54 1460.43 Q1678.44 1462.7 1678.44 1466.03 Q1678.44 1471.15 1674.92 1473.95 Q1671.4 1476.75 1664.92 1476.75 Q1662.74 1476.75 1660.43 1476.31 Q1658.14 1475.89 1655.68 1475.04 L1655.68 1470.52 Q1657.63 1471.66 1659.94 1472.24 Q1662.26 1472.82 1664.78 1472.82 Q1669.18 1472.82 1671.47 1471.08 Q1673.79 1469.34 1673.79 1466.03 Q1673.79 1462.98 1671.63 1461.27 Q1669.5 1459.53 1665.68 1459.53 L1661.66 1459.53 L1661.66 1455.69 L1665.87 1455.69 Q1669.32 1455.69 1671.15 1454.32 Q1672.98 1452.93 1672.98 1450.34 Q1672.98 1447.68 1671.08 1446.27 Q1669.2 1444.83 1665.68 1444.83 Q1663.76 1444.83 1661.56 1445.25 Q1659.37 1445.66 1656.73 1446.54 L1656.73 1442.38 Q1659.39 1441.64 1661.7 1441.27 Q1664.04 1440.89 1666.1 1440.89 Q1671.43 1440.89 1674.53 1443.33 Q1677.63 1445.73 1677.63 1449.85 Q1677.63 1452.72 1675.99 1454.71 Q1674.34 1456.68 1671.31 1457.45 Z" fill="#000000" fill-rule="evenodd" fill-opacity="1" /><path clip-path="url(#clip620)" d="M 0 0 M1693.51 1444.6 Q1689.9 1444.6 1688.07 1448.16 Q1686.26 1451.71 1686.26 1458.83 Q1686.26 1465.94 1688.07 1469.51 Q1689.9 1473.05 1693.51 1473.05 Q1697.14 1473.05 1698.95 1469.51 Q1700.78 1465.94 1700.78 1458.83 Q1700.78 1451.71 1698.95 1448.16 Q1697.14 1444.6 1693.51 1444.6 M1693.51 1440.89 Q1699.32 1440.89 1702.37 1445.5 Q1705.45 1450.08 1705.45 1458.83 Q1705.45 1467.56 1702.37 1472.17 Q1699.32 1476.75 1693.51 1476.75 Q1687.7 1476.75 1684.62 1472.17 Q1681.56 1467.56 1681.56 1458.83 Q1681.56 1450.08 1684.62 1445.5 Q1687.7 1440.89 1693.51 1440.89 Z" fill="#000000" fill-rule="evenodd" fill-opacity="1" /><path clip-path="url(#clip620)" d="M 0 0 M2185.91 1445.59 L2174.1 1464.04 L2185.91 1464.04 L2185.91 1445.59 M2184.68 1441.52 L2190.56 1441.52 L2190.56 1464.04 L2195.49 1464.04 L2195.49 1467.93 L2190.56 1467.93 L2190.56 1476.08 L2185.91 1476.08 L2185.91 1467.93 L2170.3 1467.93 L2170.3 1463.42 L2184.68 1441.52 Z" fill="#000000" fill-rule="evenodd" fill-opacity="1" /><path clip-path="url(#clip620)" d="M 0 0 M2210.56 1444.6 Q2206.95 1444.6 2205.12 1448.16 Q2203.31 1451.71 2203.31 1458.83 Q2203.31 1465.94 2205.12 1469.51 Q2206.95 1473.05 2210.56 1473.05 Q2214.19 1473.05 2216 1469.51 Q2217.83 1465.94 2217.83 1458.83 Q2217.83 1451.71 2216 1448.16 Q2214.19 1444.6 2210.56 1444.6 M2210.56 1440.89 Q2216.37 1440.89 2219.42 1445.5 Q2222.5 1450.08 2222.5 1458.83 Q2222.5 1467.56 2219.42 1472.17 Q2216.37 1476.75 2210.56 1476.75 Q2204.75 1476.75 2201.67 1472.17 Q2198.61 1467.56 2198.61 1458.83 Q2198.61 1450.08 2201.67 1445.5 Q2204.75 1440.89 2210.56 1440.89 Z" fill="#000000" fill-rule="evenodd" fill-opacity="1" /><path clip-path="url(#clip620)" d="M 0 0 M63.3625 1419.55 L75.8393 1419.55 L75.8393 1423.35 L63.3625 1423.35 L63.3625 1419.55 Z" fill="#000000" fill-rule="evenodd" fill-opacity="1" /><path clip-path="url(#clip620)" d="M 0 0 M84.9365 1430.5 L101.256 1430.5 L101.256 1434.43 L79.3115 1434.43 L79.3115 1430.5 Q81.9735 1427.74 86.5568 1423.11 Q91.1633 1418.46 92.3438 1417.12 Q94.5892 1414.6 95.4688 1412.86 Q96.3716 1411.1 96.3716 1409.41 Q96.3716 1406.66 94.4271 1404.92 Q92.5059 1403.18 89.404 1403.18 Q87.205 1403.18 84.7513 1403.95 Q82.3207 1404.71 79.543 1406.26 L79.543 1401.54 Q82.367 1400.41 84.8207 1399.83 Q87.2744 1399.25 89.3114 1399.25 Q94.6818 1399.25 97.8762 1401.93 Q101.071 1404.62 101.071 1409.11 Q101.071 1411.24 100.26 1413.16 Q99.4734 1415.06 97.3669 1417.65 Q96.7882 1418.32 93.6864 1421.54 Q90.5846 1424.73 84.9365 1430.5 Z" fill="#000000" fill-rule="evenodd" fill-opacity="1" /><path clip-path="url(#clip620)" d="M 0 0 M62.9921 1148.26 L75.4689 1148.26 L75.4689 1152.06 L62.9921 1152.06 L62.9921 1148.26 Z" fill="#000000" fill-rule="evenodd" fill-opacity="1" /><path clip-path="url(#clip620)" d="M 0 0 M81.3485 1159.21 L88.9874 1159.21 L88.9874 1132.84 L80.6772 1134.51 L80.6772 1130.25 L88.9411 1128.58 L93.617 1128.58 L93.617 1159.21 L101.256 1159.21 L101.256 1163.14 L81.3485 1163.14 L81.3485 1159.21 Z" fill="#000000" fill-rule="evenodd" fill-opacity="1" /><path clip-path="url(#clip620)" d="M 0 0 M89.3114 860.372 Q85.7003 860.372 83.8716 863.937 Q82.0661 867.479 82.0661 874.608 Q82.0661 881.715 83.8716 885.28 Q85.7003 888.821 89.3114 888.821 Q92.9457 888.821 94.7512 885.28 Q96.5799 881.715 96.5799 874.608 Q96.5799 867.479 94.7512 863.937 Q92.9457 860.372 89.3114 860.372 M89.3114 856.669 Q95.1216 856.669 98.1771 861.275 Q101.256 865.858 101.256 874.608 Q101.256 883.335 98.1771 887.942 Q95.1216 892.525 89.3114 892.525 Q83.5013 892.525 80.4226 887.942 Q77.367 883.335 77.367 874.608 Q77.367 865.858 80.4226 861.275 Q83.5013 856.669 89.3114 856.669 Z" fill="#000000" fill-rule="evenodd" fill-opacity="1" /><path clip-path="url(#clip620)" d="M 0 0 M81.3485 616.628 L88.9874 616.628 L88.9874 590.263 L80.6772 591.93 L80.6772 587.67 L88.9411 586.004 L93.617 586.004 L93.617 616.628 L101.256 616.628 L101.256 620.564 L81.3485 620.564 L81.3485 616.628 Z" fill="#000000" fill-rule="evenodd" fill-opacity="1" /><path clip-path="url(#clip620)" d="M 0 0 M84.9365 345.338 L101.256 345.338 L101.256 349.274 L79.3115 349.274 L79.3115 345.338 Q81.9735 342.584 86.5568 337.954 Q91.1633 333.302 92.3438 331.959 Q94.5892 329.436 95.4688 327.7 Q96.3716 325.94 96.3716 324.251 Q96.3716 321.496 94.4271 319.76 Q92.5059 318.024 89.404 318.024 Q87.205 318.024 84.7513 318.788 Q82.3207 319.552 79.543 321.103 L79.543 316.38 Q82.367 315.246 84.8207 314.667 Q87.2744 314.089 89.3114 314.089 Q94.6818 314.089 97.8762 316.774 Q101.071 319.459 101.071 323.95 Q101.071 326.079 100.26 328.001 Q99.4734 329.899 97.3669 332.491 Q96.7882 333.163 93.6864 336.38 Q90.5846 339.575 84.9365 345.338 Z" fill="#000000" fill-rule="evenodd" fill-opacity="1" /><path clip-path="url(#clip620)" d="M 0 0 M94.1262 59.3495 Q97.4827 60.0671 99.3577 62.3356 Q101.256 64.6041 101.256 67.9374 Q101.256 73.0531 97.7373 75.854 Q94.2188 78.6549 87.7374 78.6549 Q85.5614 78.6549 83.2466 78.2151 Q80.955 77.7985 78.5013 76.942 L78.5013 72.4281 Q80.4457 73.5624 82.7605 74.1411 Q85.0753 74.7198 87.5985 74.7198 Q91.9966 74.7198 94.2883 72.9837 Q96.6031 71.2476 96.6031 67.9374 Q96.6031 64.8819 94.4503 63.1689 Q92.3207 61.4328 88.5012 61.4328 L84.4735 61.4328 L84.4735 57.5902 L88.6864 57.5902 Q92.1355 57.5902 93.9642 56.2245 Q95.7929 54.8356 95.7929 52.243 Q95.7929 49.581 93.8947 48.169 Q92.0197 46.7338 88.5012 46.7338 Q86.58 46.7338 84.3809 47.1505 Q82.1818 47.5671 79.543 48.4468 L79.543 44.2801 Q82.205 43.5394 84.5198 43.169 Q86.8577 42.7986 88.9179 42.7986 Q94.242 42.7986 97.3438 45.2292 Q100.446 47.6366 100.446 51.7569 Q100.446 54.6273 98.8021 56.618 Q97.1586 58.5856 94.1262 59.3495 Z" fill="#000000" fill-rule="evenodd" fill-opacity="1" /><polyline clip-path="url(#clip622)" style="stroke:#009af9; stroke-width:4; stroke-opacity:1; fill:none" points="
  184.648,874.574 236.232,86.1831 287.815,367.869 339.399,820.703 390.982,759.07 442.566,426.466 494.149,271.235 545.733,321.141 597.316,357.973 648.9,302.373 
  700.483,260.04 752.066,313.308 803.65,446.893 855.233,607.361 906.817,767.465 958.4,942.502 1009.98,1111.83 1061.57,1245.83 1113.15,1334.57 1164.73,1375.99 
  1216.32,1384.15 1267.9,1367.44 1319.48,1339.1 1371.07,1298.83 1422.65,1250.7 1474.23,1202.78 1525.82,1159.23 1577.4,1122.53 1628.99,1089.27 1680.57,1058.07 
  1732.15,1030.81 1783.74,1008.17 1835.32,988.344 1886.9,971.494 1938.49,957.243 1990.07,945.202 2041.65,935.004 2093.24,926.459 2144.82,919.495 2196.4,913.259 
  
  "/>
<path clip-path="url(#clip620)" d="
M1906.22 245.964 L2187.64 245.964 L2187.64 125.004 L1906.22 125.004  Z
  " fill="#ffffff" fill-rule="evenodd" fill-opacity="1"/>
<polyline clip-path="url(#clip620)" style="stroke:#000000; stroke-width:4; stroke-opacity:1; fill:none" points="
  1906.22,245.964 2187.64,245.964 2187.64,125.004 1906.22,125.004 1906.22,245.964 
  "/>
<polyline clip-path="url(#clip620)" style="stroke:#009af9; stroke-width:4; stroke-opacity:1; fill:none" points="
  1929.26,185.484 2067.5,185.484 
  "/>
<path clip-path="url(#clip620)" d="M 0 0 M2104.38 205.171 Q2102.57 209.801 2100.86 211.213 Q2099.15 212.625 2096.28 212.625 L2092.88 212.625 L2092.88 209.06 L2095.38 209.06 Q2097.13 209.06 2098.11 208.227 Q2099.08 207.394 2100.26 204.292 L2101.02 202.347 L2090.54 176.838 L2095.05 176.838 L2103.15 197.116 L2111.26 176.838 L2115.77 176.838 L2104.38 205.171 Z" fill="#000000" fill-rule="evenodd" fill-opacity="1" /><path clip-path="url(#clip620)" d="M 0 0 M2121.65 198.829 L2129.29 198.829 L2129.29 172.463 L2120.98 174.13 L2120.98 169.871 L2129.24 168.204 L2133.92 168.204 L2133.92 198.829 L2141.56 198.829 L2141.56 202.764 L2121.65 202.764 L2121.65 198.829 Z" fill="#000000" fill-rule="evenodd" fill-opacity="1" /></svg>
