<?xml version="1.0" encoding="utf-8"?>
<svg xmlns="http://www.w3.org/2000/svg" xmlns:xlink="http://www.w3.org/1999/xlink" width="576" height="384" viewBox="0 0 2304 1536">
<defs>
  <clipPath id="clip540">
    <rect x="0" y="0" width="2304" height="1536"/>
  </clipPath>
</defs>
<path clip-path="url(#clip540)" d="
M0 1536 L2304 1536 L2304 0 L0 0  Z
  " fill="#ffffff" fill-rule="evenodd" fill-opacity="1"/>
<defs>
  <clipPath id="clip541">
    <rect x="460" y="0" width="1614" height="1536"/>
  </clipPath>
</defs>
<path clip-path="url(#clip540)" d="
M215.522 1423.09 L2256.76 1423.09 L2256.76 47.2441 L215.522 47.2441  Z
  " fill="#ffffff" fill-rule="evenodd" fill-opacity="1"/>
<defs>
  <clipPath id="clip542">
    <rect x="215" y="47" width="2042" height="1377"/>
  </clipPath>
</defs>
<polyline clip-path="url(#clip542)" style="stroke:#000000; stroke-width:2; stroke-opacity:0.1; fill:none" points="
  223.916,1423.09 223.916,47.2441 
  "/>
<polyline clip-path="url(#clip542)" style="stroke:#000000; stroke-width:2; stroke-opacity:0.1; fill:none" points="
  717.683,1423.09 717.683,47.2441 
  "/>
<polyline clip-path="url(#clip542)" style="stroke:#000000; stroke-width:2; stroke-opacity:0.1; fill:none" points="
  1211.45,1423.09 1211.45,47.2441 
  "/>
<polyline clip-path="url(#clip542)" style="stroke:#000000; stroke-width:2; stroke-opacity:0.1; fill:none" points="
  1705.22,1423.09 1705.22,47.2441 
  "/>
<polyline clip-path="url(#clip542)" style="stroke:#000000; stroke-width:2; stroke-opacity:0.1; fill:none" points="
  2198.99,1423.09 2198.99,47.2441 
  "/>
<polyline clip-path="url(#clip542)" style="stroke:#000000; stroke-width:2; stroke-opacity:0.1; fill:none" points="
  215.522,1246.15 2256.76,1246.15 
  "/>
<polyline clip-path="url(#clip542)" style="stroke:#000000; stroke-width:2; stroke-opacity:0.1; fill:none" points="
  215.522,980.187 2256.76,980.187 
  "/>
<polyline clip-path="url(#clip542)" style="stroke:#000000; stroke-width:2; stroke-opacity:0.1; fill:none" points="
  215.522,714.224 2256.76,714.224 
  "/>
<polyline clip-path="url(#clip542)" style="stroke:#000000; stroke-width:2; stroke-opacity:0.1; fill:none" points="
  215.522,448.261 2256.76,448.261 
  "/>
<polyline clip-path="url(#clip542)" style="stroke:#000000; stroke-width:2; stroke-opacity:0.1; fill:none" points="
  215.522,182.298 2256.76,182.298 
  "/>
<polyline clip-path="url(#clip540)" style="stroke:#000000; stroke-width:4; stroke-opacity:1; fill:none" points="
  215.522,1423.09 2256.76,1423.09 
  "/>
<polyline clip-path="url(#clip540)" style="stroke:#000000; stroke-width:4; stroke-opacity:1; fill:none" points="
  215.522,1423.09 215.522,47.2441 
  "/>
<polyline clip-path="url(#clip540)" style="stroke:#000000; stroke-width:4; stroke-opacity:1; fill:none" points="
  223.916,1423.09 223.916,1406.58 
  "/>
<polyline clip-path="url(#clip540)" style="stroke:#000000; stroke-width:4; stroke-opacity:1; fill:none" points="
  717.683,1423.09 717.683,1406.58 
  "/>
<polyline clip-path="url(#clip540)" style="stroke:#000000; stroke-width:4; stroke-opacity:1; fill:none" points="
  1211.45,1423.09 1211.45,1406.58 
  "/>
<polyline clip-path="url(#clip540)" style="stroke:#000000; stroke-width:4; stroke-opacity:1; fill:none" points="
  1705.22,1423.09 1705.22,1406.58 
  "/>
<polyline clip-path="url(#clip540)" style="stroke:#000000; stroke-width:4; stroke-opacity:1; fill:none" points="
  2198.99,1423.09 2198.99,1406.58 
  "/>
<polyline clip-path="url(#clip540)" style="stroke:#000000; stroke-width:4; stroke-opacity:1; fill:none" points="
  215.522,1246.15 240.017,1246.15 
  "/>
<polyline clip-path="url(#clip540)" style="stroke:#000000; stroke-width:4; stroke-opacity:1; fill:none" points="
  215.522,980.187 240.017,980.187 
  "/>
<polyline clip-path="url(#clip540)" style="stroke:#000000; stroke-width:4; stroke-opacity:1; fill:none" points="
  215.522,714.224 240.017,714.224 
  "/>
<polyline clip-path="url(#clip540)" style="stroke:#000000; stroke-width:4; stroke-opacity:1; fill:none" points="
  215.522,448.261 240.017,448.261 
  "/>
<polyline clip-path="url(#clip540)" style="stroke:#000000; stroke-width:4; stroke-opacity:1; fill:none" points="
  215.522,182.298 240.017,182.298 
  "/>
<path clip-path="url(#clip540)" d="M 0 0 M223.916 1444.6 Q220.305 1444.6 218.476 1448.16 Q216.671 1451.71 216.671 1458.83 Q216.671 1465.94 218.476 1469.51 Q220.305 1473.05 223.916 1473.05 Q227.55 1473.05 229.356 1469.51 Q231.185 1465.94 231.185 1458.83 Q231.185 1451.71 229.356 1448.16 Q227.55 1444.6 223.916 1444.6 M223.916 1440.89 Q229.726 1440.89 232.782 1445.5 Q235.861 1450.08 235.861 1458.83 Q235.861 1467.56 232.782 1472.17 Q229.726 1476.75 223.916 1476.75 Q218.106 1476.75 215.027 1472.17 Q211.972 1467.56 211.972 1458.83 Q211.972 1450.08 215.027 1445.5 Q218.106 1440.89 223.916 1440.89 Z" fill="#000000" fill-rule="evenodd" fill-opacity="1" /><path clip-path="url(#clip540)" d="M 0 0 M694.559 1472.14 L702.197 1472.14 L702.197 1445.78 L693.887 1447.45 L693.887 1443.19 L702.151 1441.52 L706.827 1441.52 L706.827 1472.14 L714.466 1472.14 L714.466 1476.08 L694.559 1476.08 L694.559 1472.14 Z" fill="#000000" fill-rule="evenodd" fill-opacity="1" /><path clip-path="url(#clip540)" d="M 0 0 M729.535 1444.6 Q725.924 1444.6 724.095 1448.16 Q722.29 1451.71 722.29 1458.83 Q722.29 1465.94 724.095 1469.51 Q725.924 1473.05 729.535 1473.05 Q733.169 1473.05 734.975 1469.51 Q736.804 1465.94 736.804 1458.83 Q736.804 1451.71 734.975 1448.16 Q733.169 1444.6 729.535 1444.6 M729.535 1440.89 Q735.345 1440.89 738.401 1445.5 Q741.48 1450.08 741.48 1458.83 Q741.48 1467.56 738.401 1472.17 Q735.345 1476.75 729.535 1476.75 Q723.725 1476.75 720.646 1472.17 Q717.591 1467.56 717.591 1458.83 Q717.591 1450.08 720.646 1445.5 Q723.725 1440.89 729.535 1440.89 Z" fill="#000000" fill-rule="evenodd" fill-opacity="1" /><path clip-path="url(#clip540)" d="M 0 0 M1192.6 1472.14 L1208.92 1472.14 L1208.92 1476.08 L1186.97 1476.08 L1186.97 1472.14 Q1189.63 1469.39 1194.22 1464.76 Q1198.82 1460.11 1200 1458.77 Q1202.25 1456.24 1203.13 1454.51 Q1204.03 1452.75 1204.03 1451.06 Q1204.03 1448.3 1202.09 1446.57 Q1200.17 1444.83 1197.06 1444.83 Q1194.87 1444.83 1192.41 1445.59 Q1189.98 1446.36 1187.2 1447.91 L1187.2 1443.19 Q1190.03 1442.05 1192.48 1441.47 Q1194.93 1440.89 1196.97 1440.89 Q1202.34 1440.89 1205.54 1443.58 Q1208.73 1446.27 1208.73 1450.76 Q1208.73 1452.89 1207.92 1454.81 Q1207.13 1456.7 1205.03 1459.3 Q1204.45 1459.97 1201.35 1463.19 Q1198.24 1466.38 1192.6 1472.14 Z" fill="#000000" fill-rule="evenodd" fill-opacity="1" /><path clip-path="url(#clip540)" d="M 0 0 M1223.99 1444.6 Q1220.37 1444.6 1218.55 1448.16 Q1216.74 1451.71 1216.74 1458.83 Q1216.74 1465.94 1218.55 1469.51 Q1220.37 1473.05 1223.99 1473.05 Q1227.62 1473.05 1229.43 1469.51 Q1231.25 1465.94 1231.25 1458.83 Q1231.25 1451.71 1229.43 1448.16 Q1227.62 1444.6 1223.99 1444.6 M1223.99 1440.89 Q1229.8 1440.89 1232.85 1445.5 Q1235.93 1450.08 1235.93 1458.83 Q1235.93 1467.56 1232.85 1472.17 Q1229.8 1476.75 1223.99 1476.75 Q1218.18 1476.75 1215.1 1472.17 Q1212.04 1467.56 1212.04 1458.83 Q1212.04 1450.08 1215.1 1445.5 Q1218.18 1440.89 1223.99 1440.89 Z" fill="#000000" fill-rule="evenodd" fill-opacity="1" /><path clip-path="url(#clip540)" d="M 0 0 M1695.96 1457.45 Q1699.32 1458.16 1701.19 1460.43 Q1703.09 1462.7 1703.09 1466.03 Q1703.09 1471.15 1699.57 1473.95 Q1696.05 1476.75 1689.57 1476.75 Q1687.39 1476.75 1685.08 1476.31 Q1682.79 1475.89 1680.33 1475.04 L1680.33 1470.52 Q1682.28 1471.66 1684.59 1472.24 Q1686.91 1472.82 1689.43 1472.82 Q1693.83 1472.82 1696.12 1471.08 Q1698.44 1469.34 1698.44 1466.03 Q1698.44 1462.98 1696.28 1461.27 Q1694.15 1459.53 1690.33 1459.53 L1686.31 1459.53 L1686.31 1455.69 L1690.52 1455.69 Q1693.97 1455.69 1695.8 1454.32 Q1697.63 1452.93 1697.63 1450.34 Q1697.63 1447.68 1695.73 1446.27 Q1693.85 1444.83 1690.33 1444.83 Q1688.41 1444.83 1686.21 1445.25 Q1684.01 1445.66 1681.38 1446.54 L1681.38 1442.38 Q1684.04 1441.64 1686.35 1441.27 Q1688.69 1440.89 1690.75 1440.89 Q1696.07 1440.89 1699.18 1443.33 Q1702.28 1445.73 1702.28 1449.85 Q1702.28 1452.72 1700.63 1454.71 Q1698.99 1456.68 1695.96 1457.45 Z" fill="#000000" fill-rule="evenodd" fill-opacity="1" /><path clip-path="url(#clip540)" d="M 0 0 M1718.16 1444.6 Q1714.55 1444.6 1712.72 1448.16 Q1710.91 1451.71 1710.91 1458.83 Q1710.91 1465.94 1712.72 1469.51 Q1714.55 1473.05 1718.16 1473.05 Q1721.79 1473.05 1723.6 1469.51 Q1725.43 1465.94 1725.43 1458.83 Q1725.43 1451.71 1723.6 1448.16 Q1721.79 1444.6 1718.16 1444.6 M1718.16 1440.89 Q1723.97 1440.89 1727.02 1445.5 Q1730.1 1450.08 1730.1 1458.83 Q1730.1 1467.56 1727.02 1472.17 Q1723.97 1476.75 1718.16 1476.75 Q1712.35 1476.75 1709.27 1472.17 Q1706.21 1467.56 1706.21 1458.83 Q1706.21 1450.08 1709.27 1445.5 Q1712.35 1440.89 1718.16 1440.89 Z" fill="#000000" fill-rule="evenodd" fill-opacity="1" /><path clip-path="url(#clip540)" d="M 0 0 M2188.49 1445.59 L2176.68 1464.04 L2188.49 1464.04 L2188.49 1445.59 M2187.26 1441.52 L2193.14 1441.52 L2193.14 1464.04 L2198.07 1464.04 L2198.07 1467.93 L2193.14 1467.93 L2193.14 1476.08 L2188.49 1476.08 L2188.49 1467.93 L2172.89 1467.93 L2172.89 1463.42 L2187.26 1441.52 Z" fill="#000000" fill-rule="evenodd" fill-opacity="1" /><path clip-path="url(#clip540)" d="M 0 0 M2213.14 1444.6 Q2209.53 1444.6 2207.7 1448.16 Q2205.89 1451.71 2205.89 1458.83 Q2205.89 1465.94 2207.7 1469.51 Q2209.53 1473.05 2213.14 1473.05 Q2216.77 1473.05 2218.58 1469.51 Q2220.41 1465.94 2220.41 1458.83 Q2220.41 1451.71 2218.58 1448.16 Q2216.77 1444.6 2213.14 1444.6 M2213.14 1440.89 Q2218.95 1440.89 2222.01 1445.5 Q2225.08 1450.08 2225.08 1458.83 Q2225.08 1467.56 2222.01 1472.17 Q2218.95 1476.75 2213.14 1476.75 Q2207.33 1476.75 2204.25 1472.17 Q2201.2 1467.56 2201.2 1458.83 Q2201.2 1450.08 2204.25 1445.5 Q2207.33 1440.89 2213.14 1440.89 Z" fill="#000000" fill-rule="evenodd" fill-opacity="1" /><path clip-path="url(#clip540)" d="M 0 0 M63.2236 1248.55 L75.7004 1248.55 L75.7004 1252.34 L63.2236 1252.34 L63.2236 1248.55 Z" fill="#000000" fill-rule="evenodd" fill-opacity="1" /><path clip-path="url(#clip540)" d="M 0 0 M90.7698 1231.95 Q87.1587 1231.95 85.33 1235.51 Q83.5244 1239.05 83.5244 1246.18 Q83.5244 1253.29 85.33 1256.86 Q87.1587 1260.4 90.7698 1260.4 Q94.404 1260.4 96.2095 1256.86 Q98.0382 1253.29 98.0382 1246.18 Q98.0382 1239.05 96.2095 1235.51 Q94.404 1231.95 90.7698 1231.95 M90.7698 1228.24 Q96.5799 1228.24 99.6354 1232.85 Q102.714 1237.43 102.714 1246.18 Q102.714 1254.91 99.6354 1259.52 Q96.5799 1264.1 90.7698 1264.1 Q84.9596 1264.1 81.8809 1259.52 Q78.8254 1254.91 78.8254 1246.18 Q78.8254 1237.43 81.8809 1232.85 Q84.9596 1228.24 90.7698 1228.24 Z" fill="#000000" fill-rule="evenodd" fill-opacity="1" /><path clip-path="url(#clip540)" d="M 0 0 M107.784 1257.55 L112.668 1257.55 L112.668 1263.43 L107.784 1263.43 L107.784 1257.55 Z" fill="#000000" fill-rule="evenodd" fill-opacity="1" /><path clip-path="url(#clip540)" d="M 0 0 M127.737 1231.95 Q124.126 1231.95 122.297 1235.51 Q120.492 1239.05 120.492 1246.18 Q120.492 1253.29 122.297 1256.86 Q124.126 1260.4 127.737 1260.4 Q131.371 1260.4 133.177 1256.86 Q135.006 1253.29 135.006 1246.18 Q135.006 1239.05 133.177 1235.51 Q131.371 1231.95 127.737 1231.95 M127.737 1228.24 Q133.547 1228.24 136.603 1232.85 Q139.682 1237.43 139.682 1246.18 Q139.682 1254.91 136.603 1259.52 Q133.547 1264.1 127.737 1264.1 Q121.927 1264.1 118.848 1259.52 Q115.793 1254.91 115.793 1246.18 Q115.793 1237.43 118.848 1232.85 Q121.927 1228.24 127.737 1228.24 Z" fill="#000000" fill-rule="evenodd" fill-opacity="1" /><path clip-path="url(#clip540)" d="M 0 0 M145.561 1259.49 L153.2 1259.49 L153.2 1233.13 L144.89 1234.8 L144.89 1230.54 L153.154 1228.87 L157.83 1228.87 L157.83 1259.49 L165.468 1259.49 L165.468 1263.43 L145.561 1263.43 L145.561 1259.49 Z" fill="#000000" fill-rule="evenodd" fill-opacity="1" /><path clip-path="url(#clip540)" d="M 0 0 M180.538 1231.95 Q176.927 1231.95 175.098 1235.51 Q173.292 1239.05 173.292 1246.18 Q173.292 1253.29 175.098 1256.86 Q176.927 1260.4 180.538 1260.4 Q184.172 1260.4 185.978 1256.86 Q187.806 1253.29 187.806 1246.18 Q187.806 1239.05 185.978 1235.51 Q184.172 1231.95 180.538 1231.95 M180.538 1228.24 Q186.348 1228.24 189.403 1232.85 Q192.482 1237.43 192.482 1246.18 Q192.482 1254.91 189.403 1259.52 Q186.348 1264.1 180.538 1264.1 Q174.728 1264.1 171.649 1259.52 Q168.593 1254.91 168.593 1246.18 Q168.593 1237.43 171.649 1232.85 Q174.728 1228.24 180.538 1228.24 Z" fill="#000000" fill-rule="evenodd" fill-opacity="1" /><path clip-path="url(#clip540)" d="M 0 0 M62.9921 982.583 L75.4689 982.583 L75.4689 986.379 L62.9921 986.379 L62.9921 982.583 Z" fill="#000000" fill-rule="evenodd" fill-opacity="1" /><path clip-path="url(#clip540)" d="M 0 0 M90.5383 965.986 Q86.9272 965.986 85.0985 969.55 Q83.2929 973.092 83.2929 980.222 Q83.2929 987.328 85.0985 990.893 Q86.9272 994.434 90.5383 994.434 Q94.1725 994.434 95.9781 990.893 Q97.8068 987.328 97.8068 980.222 Q97.8068 973.092 95.9781 969.55 Q94.1725 965.986 90.5383 965.986 M90.5383 962.282 Q96.3484 962.282 99.404 966.888 Q102.483 971.472 102.483 980.222 Q102.483 988.948 99.404 993.555 Q96.3484 998.138 90.5383 998.138 Q84.7281 998.138 81.6494 993.555 Q78.5939 988.948 78.5939 980.222 Q78.5939 971.472 81.6494 966.888 Q84.7281 962.282 90.5383 962.282 Z" fill="#000000" fill-rule="evenodd" fill-opacity="1" /><path clip-path="url(#clip540)" d="M 0 0 M107.552 991.587 L112.436 991.587 L112.436 997.467 L107.552 997.467 L107.552 991.587 Z" fill="#000000" fill-rule="evenodd" fill-opacity="1" /><path clip-path="url(#clip540)" d="M 0 0 M127.506 965.986 Q123.895 965.986 122.066 969.55 Q120.26 973.092 120.26 980.222 Q120.26 987.328 122.066 990.893 Q123.895 994.434 127.506 994.434 Q131.14 994.434 132.945 990.893 Q134.774 987.328 134.774 980.222 Q134.774 973.092 132.945 969.55 Q131.14 965.986 127.506 965.986 M127.506 962.282 Q133.316 962.282 136.371 966.888 Q139.45 971.472 139.45 980.222 Q139.45 988.948 136.371 993.555 Q133.316 998.138 127.506 998.138 Q121.696 998.138 118.617 993.555 Q115.561 988.948 115.561 980.222 Q115.561 971.472 118.617 966.888 Q121.696 962.282 127.506 962.282 Z" fill="#000000" fill-rule="evenodd" fill-opacity="1" /><path clip-path="url(#clip540)" d="M 0 0 M154.519 965.986 Q150.908 965.986 149.08 969.55 Q147.274 973.092 147.274 980.222 Q147.274 987.328 149.08 990.893 Q150.908 994.434 154.519 994.434 Q158.154 994.434 159.959 990.893 Q161.788 987.328 161.788 980.222 Q161.788 973.092 159.959 969.55 Q158.154 965.986 154.519 965.986 M154.519 962.282 Q160.33 962.282 163.385 966.888 Q166.464 971.472 166.464 980.222 Q166.464 988.948 163.385 993.555 Q160.33 998.138 154.519 998.138 Q148.709 998.138 145.631 993.555 Q142.575 988.948 142.575 980.222 Q142.575 971.472 145.631 966.888 Q148.709 962.282 154.519 962.282 Z" fill="#000000" fill-rule="evenodd" fill-opacity="1" /><path clip-path="url(#clip540)" d="M 0 0 M171.58 962.907 L189.936 962.907 L189.936 966.842 L175.862 966.842 L175.862 975.314 Q176.88 974.967 177.899 974.805 Q178.917 974.62 179.936 974.62 Q185.723 974.62 189.103 977.791 Q192.482 980.962 192.482 986.379 Q192.482 991.958 189.01 995.059 Q185.538 998.138 179.218 998.138 Q177.042 998.138 174.774 997.768 Q172.529 997.397 170.121 996.657 L170.121 991.958 Q172.205 993.092 174.427 993.647 Q176.649 994.203 179.126 994.203 Q183.13 994.203 185.468 992.096 Q187.806 989.99 187.806 986.379 Q187.806 982.768 185.468 980.661 Q183.13 978.555 179.126 978.555 Q177.251 978.555 175.376 978.972 Q173.524 979.388 171.58 980.268 L171.58 962.907 Z" fill="#000000" fill-rule="evenodd" fill-opacity="1" /><path clip-path="url(#clip540)" d="M 0 0 M89.5429 700.022 Q85.9318 700.022 84.1031 703.587 Q82.2976 707.129 82.2976 714.258 Q82.2976 721.365 84.1031 724.93 Q85.9318 728.471 89.5429 728.471 Q93.1771 728.471 94.9827 724.93 Q96.8114 721.365 96.8114 714.258 Q96.8114 707.129 94.9827 703.587 Q93.1771 700.022 89.5429 700.022 M89.5429 696.319 Q95.3531 696.319 98.4086 700.925 Q101.487 705.509 101.487 714.258 Q101.487 722.985 98.4086 727.592 Q95.3531 732.175 89.5429 732.175 Q83.7328 732.175 80.6541 727.592 Q77.5985 722.985 77.5985 714.258 Q77.5985 705.509 80.6541 700.925 Q83.7328 696.319 89.5429 696.319 Z" fill="#000000" fill-rule="evenodd" fill-opacity="1" /><path clip-path="url(#clip540)" d="M 0 0 M106.557 725.624 L111.441 725.624 L111.441 731.504 L106.557 731.504 L106.557 725.624 Z" fill="#000000" fill-rule="evenodd" fill-opacity="1" /><path clip-path="url(#clip540)" d="M 0 0 M126.51 700.022 Q122.899 700.022 121.071 703.587 Q119.265 707.129 119.265 714.258 Q119.265 721.365 121.071 724.93 Q122.899 728.471 126.51 728.471 Q130.145 728.471 131.95 724.93 Q133.779 721.365 133.779 714.258 Q133.779 707.129 131.95 703.587 Q130.145 700.022 126.51 700.022 M126.51 696.319 Q132.32 696.319 135.376 700.925 Q138.455 705.509 138.455 714.258 Q138.455 722.985 135.376 727.592 Q132.32 732.175 126.51 732.175 Q120.7 732.175 117.621 727.592 Q114.566 722.985 114.566 714.258 Q114.566 705.509 117.621 700.925 Q120.7 696.319 126.51 696.319 Z" fill="#000000" fill-rule="evenodd" fill-opacity="1" /><path clip-path="url(#clip540)" d="M 0 0 M153.524 700.022 Q149.913 700.022 148.084 703.587 Q146.279 707.129 146.279 714.258 Q146.279 721.365 148.084 724.93 Q149.913 728.471 153.524 728.471 Q157.158 728.471 158.964 724.93 Q160.793 721.365 160.793 714.258 Q160.793 707.129 158.964 703.587 Q157.158 700.022 153.524 700.022 M153.524 696.319 Q159.334 696.319 162.39 700.925 Q165.468 705.509 165.468 714.258 Q165.468 722.985 162.39 727.592 Q159.334 732.175 153.524 732.175 Q147.714 732.175 144.635 727.592 Q141.58 722.985 141.58 714.258 Q141.58 705.509 144.635 700.925 Q147.714 696.319 153.524 696.319 Z" fill="#000000" fill-rule="evenodd" fill-opacity="1" /><path clip-path="url(#clip540)" d="M 0 0 M180.538 700.022 Q176.927 700.022 175.098 703.587 Q173.292 707.129 173.292 714.258 Q173.292 721.365 175.098 724.93 Q176.927 728.471 180.538 728.471 Q184.172 728.471 185.978 724.93 Q187.806 721.365 187.806 714.258 Q187.806 707.129 185.978 703.587 Q184.172 700.022 180.538 700.022 M180.538 696.319 Q186.348 696.319 189.403 700.925 Q192.482 705.509 192.482 714.258 Q192.482 722.985 189.403 727.592 Q186.348 732.175 180.538 732.175 Q174.728 732.175 171.649 727.592 Q168.593 722.985 168.593 714.258 Q168.593 705.509 171.649 700.925 Q174.728 696.319 180.538 696.319 Z" fill="#000000" fill-rule="evenodd" fill-opacity="1" /><path clip-path="url(#clip540)" d="M 0 0 M90.5383 434.059 Q86.9272 434.059 85.0985 437.624 Q83.2929 441.166 83.2929 448.295 Q83.2929 455.402 85.0985 458.967 Q86.9272 462.508 90.5383 462.508 Q94.1725 462.508 95.9781 458.967 Q97.8068 455.402 97.8068 448.295 Q97.8068 441.166 95.9781 437.624 Q94.1725 434.059 90.5383 434.059 M90.5383 430.356 Q96.3484 430.356 99.404 434.962 Q102.483 439.546 102.483 448.295 Q102.483 457.022 99.404 461.629 Q96.3484 466.212 90.5383 466.212 Q84.7281 466.212 81.6494 461.629 Q78.5939 457.022 78.5939 448.295 Q78.5939 439.546 81.6494 434.962 Q84.7281 430.356 90.5383 430.356 Z" fill="#000000" fill-rule="evenodd" fill-opacity="1" /><path clip-path="url(#clip540)" d="M 0 0 M107.552 459.661 L112.436 459.661 L112.436 465.541 L107.552 465.541 L107.552 459.661 Z" fill="#000000" fill-rule="evenodd" fill-opacity="1" /><path clip-path="url(#clip540)" d="M 0 0 M127.506 434.059 Q123.895 434.059 122.066 437.624 Q120.26 441.166 120.26 448.295 Q120.26 455.402 122.066 458.967 Q123.895 462.508 127.506 462.508 Q131.14 462.508 132.945 458.967 Q134.774 455.402 134.774 448.295 Q134.774 441.166 132.945 437.624 Q131.14 434.059 127.506 434.059 M127.506 430.356 Q133.316 430.356 136.371 434.962 Q139.45 439.546 139.45 448.295 Q139.45 457.022 136.371 461.629 Q133.316 466.212 127.506 466.212 Q121.696 466.212 118.617 461.629 Q115.561 457.022 115.561 448.295 Q115.561 439.546 118.617 434.962 Q121.696 430.356 127.506 430.356 Z" fill="#000000" fill-rule="evenodd" fill-opacity="1" /><path clip-path="url(#clip540)" d="M 0 0 M154.519 434.059 Q150.908 434.059 149.08 437.624 Q147.274 441.166 147.274 448.295 Q147.274 455.402 149.08 458.967 Q150.908 462.508 154.519 462.508 Q158.154 462.508 159.959 458.967 Q161.788 455.402 161.788 448.295 Q161.788 441.166 159.959 437.624 Q158.154 434.059 154.519 434.059 M154.519 430.356 Q160.33 430.356 163.385 434.962 Q166.464 439.546 166.464 448.295 Q166.464 457.022 163.385 461.629 Q160.33 466.212 154.519 466.212 Q148.709 466.212 145.631 461.629 Q142.575 457.022 142.575 448.295 Q142.575 439.546 145.631 434.962 Q148.709 430.356 154.519 430.356 Z" fill="#000000" fill-rule="evenodd" fill-opacity="1" /><path clip-path="url(#clip540)" d="M 0 0 M171.58 430.981 L189.936 430.981 L189.936 434.916 L175.862 434.916 L175.862 443.388 Q176.88 443.041 177.899 442.879 Q178.917 442.694 179.936 442.694 Q185.723 442.694 189.103 445.865 Q192.482 449.036 192.482 454.453 Q192.482 460.032 189.01 463.133 Q185.538 466.212 179.218 466.212 Q177.042 466.212 174.774 465.842 Q172.529 465.471 170.121 464.731 L170.121 460.032 Q172.205 461.166 174.427 461.721 Q176.649 462.277 179.126 462.277 Q183.13 462.277 185.468 460.17 Q187.806 458.064 187.806 454.453 Q187.806 450.842 185.468 448.735 Q183.13 446.629 179.126 446.629 Q177.251 446.629 175.376 447.045 Q173.524 447.462 171.58 448.342 L171.58 430.981 Z" fill="#000000" fill-rule="evenodd" fill-opacity="1" /><path clip-path="url(#clip540)" d="M 0 0 M90.7698 168.096 Q87.1587 168.096 85.33 171.661 Q83.5244 175.203 83.5244 182.332 Q83.5244 189.439 85.33 193.004 Q87.1587 196.545 90.7698 196.545 Q94.404 196.545 96.2095 193.004 Q98.0382 189.439 98.0382 182.332 Q98.0382 175.203 96.2095 171.661 Q94.404 168.096 90.7698 168.096 M90.7698 164.393 Q96.5799 164.393 99.6354 168.999 Q102.714 173.582 102.714 182.332 Q102.714 191.059 99.6354 195.666 Q96.5799 200.249 90.7698 200.249 Q84.9596 200.249 81.8809 195.666 Q78.8254 191.059 78.8254 182.332 Q78.8254 173.582 81.8809 168.999 Q84.9596 164.393 90.7698 164.393 Z" fill="#000000" fill-rule="evenodd" fill-opacity="1" /><path clip-path="url(#clip540)" d="M 0 0 M107.784 193.698 L112.668 193.698 L112.668 199.578 L107.784 199.578 L107.784 193.698 Z" fill="#000000" fill-rule="evenodd" fill-opacity="1" /><path clip-path="url(#clip540)" d="M 0 0 M127.737 168.096 Q124.126 168.096 122.297 171.661 Q120.492 175.203 120.492 182.332 Q120.492 189.439 122.297 193.004 Q124.126 196.545 127.737 196.545 Q131.371 196.545 133.177 193.004 Q135.006 189.439 135.006 182.332 Q135.006 175.203 133.177 171.661 Q131.371 168.096 127.737 168.096 M127.737 164.393 Q133.547 164.393 136.603 168.999 Q139.682 173.582 139.682 182.332 Q139.682 191.059 136.603 195.666 Q133.547 200.249 127.737 200.249 Q121.927 200.249 118.848 195.666 Q115.793 191.059 115.793 182.332 Q115.793 173.582 118.848 168.999 Q121.927 164.393 127.737 164.393 Z" fill="#000000" fill-rule="evenodd" fill-opacity="1" /><path clip-path="url(#clip540)" d="M 0 0 M145.561 195.643 L153.2 195.643 L153.2 169.277 L144.89 170.944 L144.89 166.684 L153.154 165.018 L157.83 165.018 L157.83 195.643 L165.468 195.643 L165.468 199.578 L145.561 199.578 L145.561 195.643 Z" fill="#000000" fill-rule="evenodd" fill-opacity="1" /><path clip-path="url(#clip540)" d="M 0 0 M180.538 168.096 Q176.927 168.096 175.098 171.661 Q173.292 175.203 173.292 182.332 Q173.292 189.439 175.098 193.004 Q176.927 196.545 180.538 196.545 Q184.172 196.545 185.978 193.004 Q187.806 189.439 187.806 182.332 Q187.806 175.203 185.978 171.661 Q184.172 168.096 180.538 168.096 M180.538 164.393 Q186.348 164.393 189.403 168.999 Q192.482 173.582 192.482 182.332 Q192.482 191.059 189.403 195.666 Q186.348 200.249 180.538 200.249 Q174.728 200.249 171.649 195.666 Q168.593 191.059 168.593 182.332 Q168.593 173.582 171.649 168.999 Q174.728 164.393 180.538 164.393 Z" fill="#000000" fill-rule="evenodd" fill-opacity="1" /><polyline clip-path="url(#clip542)" style="stroke:#009af9; stroke-width:4; stroke-opacity:1; fill:none" points="
  273.293,714.222 322.67,714.172 372.046,714.316 421.423,712.931 470.8,713.361 520.177,715.384 569.553,716.281 618.93,689.436 668.307,785.89 717.683,731.996 
  767.06,842.229 816.437,572.593 865.814,771.759 915.19,1384.15 964.567,366.636 1013.94,569.066 1063.32,879.15 1112.7,668.275 1162.07,932.601 1211.45,584.61 
  1260.83,345.205 1310.2,86.1831 1359.58,874.612 1408.96,1190.67 1458.33,818.635 1507.71,658.933 1557.09,668.045 1606.46,728.299 1655.84,788.814 1705.22,783.762 
  1754.59,797.367 1803.97,800.688 1853.35,645.928 1902.72,547.544 1952.1,579.114 2001.48,684.128 2050.85,731.699 2100.23,701.799 2149.61,680.016 2198.99,695.429 
  
  "/>
<path clip-path="url(#clip540)" d="
M1906.22 245.964 L2187.64 245.964 L2187.64 125.004 L1906.22 125.004  Z
  " fill="#ffffff" fill-rule="evenodd" fill-opacity="1"/>
<polyline clip-path="url(#clip540)" style="stroke:#000000; stroke-width:4; stroke-opacity:1; fill:none" points="
  1906.22,245.964 2187.64,245.964 2187.64,125.004 1906.22,125.004 1906.22,245.964 
  "/>
<polyline clip-path="url(#clip540)" style="stroke:#009af9; stroke-width:4; stroke-opacity:1; fill:none" points="
  1929.26,185.484 2067.5,185.484 
  "/>
<path clip-path="url(#clip540)" d="M 0 0 M2104.38 205.171 Q2102.57 209.801 2100.86 211.213 Q2099.15 212.625 2096.28 212.625 L2092.88 212.625 L2092.88 209.06 L2095.38 209.06 Q2097.13 209.06 2098.11 208.227 Q2099.08 207.394 2100.26 204.292 L2101.02 202.347 L2090.54 176.838 L2095.05 176.838 L2103.15 197.116 L2111.26 176.838 L2115.77 176.838 L2104.38 205.171 Z" fill="#000000" fill-rule="evenodd" fill-opacity="1" /><path clip-path="url(#clip540)" d="M 0 0 M2121.65 198.829 L2129.29 198.829 L2129.29 172.463 L2120.98 174.13 L2120.98 169.871 L2129.24 168.204 L2133.92 168.204 L2133.92 198.829 L2141.56 198.829 L2141.56 202.764 L2121.65 202.764 L2121.65 198.829 Z" fill="#000000" fill-rule="evenodd" fill-opacity="1" /></svg>
