<?xml version="1.0" encoding="utf-8"?>
<svg xmlns="http://www.w3.org/2000/svg" xmlns:xlink="http://www.w3.org/1999/xlink" width="576" height="384" viewBox="0 0 2304 1536">
<defs>
  <clipPath id="clip500">
    <rect x="0" y="0" width="2304" height="1536"/>
  </clipPath>
</defs>
<path clip-path="url(#clip500)" d="
M0 1536 L2304 1536 L2304 0 L0 0  Z
  " fill="#ffffff" fill-rule="evenodd" fill-opacity="1"/>
<defs>
  <clipPath id="clip501">
    <rect x="460" y="0" width="1614" height="1536"/>
  </clipPath>
</defs>
<path clip-path="url(#clip500)" d="
M303.299 1423.09 L2256.76 1423.09 L2256.76 47.2441 L303.299 47.2441  Z
  " fill="#ffffff" fill-rule="evenodd" fill-opacity="1"/>
<defs>
  <clipPath id="clip502">
    <rect x="303" y="47" width="1954" height="1377"/>
  </clipPath>
</defs>
<polyline clip-path="url(#clip502)" style="stroke:#000000; stroke-width:2; stroke-opacity:0.1; fill:none" points="
  311.333,1423.09 311.333,47.2441 
  "/>
<polyline clip-path="url(#clip502)" style="stroke:#000000; stroke-width:2; stroke-opacity:0.1; fill:none" points="
  783.867,1423.09 783.867,47.2441 
  "/>
<polyline clip-path="url(#clip502)" style="stroke:#000000; stroke-width:2; stroke-opacity:0.1; fill:none" points="
  1256.4,1423.09 1256.4,47.2441 
  "/>
<polyline clip-path="url(#clip502)" style="stroke:#000000; stroke-width:2; stroke-opacity:0.1; fill:none" points="
  1728.94,1423.09 1728.94,47.2441 
  "/>
<polyline clip-path="url(#clip502)" style="stroke:#000000; stroke-width:2; stroke-opacity:0.1; fill:none" points="
  2201.47,1423.09 2201.47,47.2441 
  "/>
<polyline clip-path="url(#clip502)" style="stroke:#000000; stroke-width:2; stroke-opacity:0.1; fill:none" points="
  303.299,1252.56 2256.76,1252.56 
  "/>
<polyline clip-path="url(#clip502)" style="stroke:#000000; stroke-width:2; stroke-opacity:0.1; fill:none" points="
  303.299,1012.2 2256.76,1012.2 
  "/>
<polyline clip-path="url(#clip502)" style="stroke:#000000; stroke-width:2; stroke-opacity:0.1; fill:none" points="
  303.299,771.842 2256.76,771.842 
  "/>
<polyline clip-path="url(#clip502)" style="stroke:#000000; stroke-width:2; stroke-opacity:0.1; fill:none" points="
  303.299,531.484 2256.76,531.484 
  "/>
<polyline clip-path="url(#clip502)" style="stroke:#000000; stroke-width:2; stroke-opacity:0.1; fill:none" points="
  303.299,291.125 2256.76,291.125 
  "/>
<polyline clip-path="url(#clip502)" style="stroke:#000000; stroke-width:2; stroke-opacity:0.1; fill:none" points="
  303.299,50.7666 2256.76,50.7666 
  "/>
<polyline clip-path="url(#clip500)" style="stroke:#000000; stroke-width:4; stroke-opacity:1; fill:none" points="
  303.299,1423.09 2256.76,1423.09 
  "/>
<polyline clip-path="url(#clip500)" style="stroke:#000000; stroke-width:4; stroke-opacity:1; fill:none" points="
  303.299,1423.09 303.299,47.2441 
  "/>
<polyline clip-path="url(#clip500)" style="stroke:#000000; stroke-width:4; stroke-opacity:1; fill:none" points="
  311.333,1423.09 311.333,1406.58 
  "/>
<polyline clip-path="url(#clip500)" style="stroke:#000000; stroke-width:4; stroke-opacity:1; fill:none" points="
  783.867,1423.09 783.867,1406.58 
  "/>
<polyline clip-path="url(#clip500)" style="stroke:#000000; stroke-width:4; stroke-opacity:1; fill:none" points="
  1256.4,1423.09 1256.4,1406.58 
  "/>
<polyline clip-path="url(#clip500)" style="stroke:#000000; stroke-width:4; stroke-opacity:1; fill:none" points="
  1728.94,1423.09 1728.94,1406.58 
  "/>
<polyline clip-path="url(#clip500)" style="stroke:#000000; stroke-width:4; stroke-opacity:1; fill:none" points="
  2201.47,1423.09 2201.47,1406.58 
  "/>
<polyline clip-path="url(#clip500)" style="stroke:#000000; stroke-width:4; stroke-opacity:1; fill:none" points="
  303.299,1252.56 326.741,1252.56 
  "/>
<polyline clip-path="url(#clip500)" style="stroke:#000000; stroke-width:4; stroke-opacity:1; fill:none" points="
  303.299,1012.2 326.741,1012.2 
  "/>
<polyline clip-path="url(#clip500)" style="stroke:#000000; stroke-width:4; stroke-opacity:1; fill:none" points="
  303.299,771.842 326.741,771.842 
  "/>
<polyline clip-path="url(#clip500)" style="stroke:#000000; stroke-width:4; stroke-opacity:1; fill:none" points="
  303.299,531.484 326.741,531.484 
  "/>
<polyline clip-path="url(#clip500)" style="stroke:#000000; stroke-width:4; stroke-opacity:1; fill:none" points="
  303.299,291.125 326.741,291.125 
  "/>
<polyline clip-path="url(#clip500)" style="stroke:#000000; stroke-width:4; stroke-opacity:1; fill:none" points="
  303.299,50.7666 326.741,50.7666 
  "/>
<path clip-path="url(#clip500)" d="M 0 0 M311.333 1444.6 Q307.721 1444.6 305.893 1448.16 Q304.087 1451.71 304.087 1458.83 Q304.087 1465.94 305.893 1469.51 Q307.721 1473.05 311.333 1473.05 Q314.967 1473.05 316.772 1469.51 Q318.601 1465.94 318.601 1458.83 Q318.601 1451.71 316.772 1448.16 Q314.967 1444.6 311.333 1444.6 M311.333 1440.89 Q317.143 1440.89 320.198 1445.5 Q323.277 1450.08 323.277 1458.83 Q323.277 1467.56 320.198 1472.17 Q317.143 1476.75 311.333 1476.75 Q305.522 1476.75 302.444 1472.17 Q299.388 1467.56 299.388 1458.83 Q299.388 1450.08 302.444 1445.5 Q305.522 1440.89 311.333 1440.89 Z" fill="#000000" fill-rule="evenodd" fill-opacity="1" /><path clip-path="url(#clip500)" d="M 0 0 M760.742 1472.14 L768.381 1472.14 L768.381 1445.78 L760.071 1447.45 L760.071 1443.19 L768.334 1441.52 L773.01 1441.52 L773.01 1472.14 L780.649 1472.14 L780.649 1476.08 L760.742 1476.08 L760.742 1472.14 Z" fill="#000000" fill-rule="evenodd" fill-opacity="1" /><path clip-path="url(#clip500)" d="M 0 0 M795.719 1444.6 Q792.107 1444.6 790.279 1448.16 Q788.473 1451.71 788.473 1458.83 Q788.473 1465.94 790.279 1469.51 Q792.107 1473.05 795.719 1473.05 Q799.353 1473.05 801.158 1469.51 Q802.987 1465.94 802.987 1458.83 Q802.987 1451.71 801.158 1448.16 Q799.353 1444.6 795.719 1444.6 M795.719 1440.89 Q801.529 1440.89 804.584 1445.5 Q807.663 1450.08 807.663 1458.83 Q807.663 1467.56 804.584 1472.17 Q801.529 1476.75 795.719 1476.75 Q789.908 1476.75 786.83 1472.17 Q783.774 1467.56 783.774 1458.83 Q783.774 1450.08 786.83 1445.5 Q789.908 1440.89 795.719 1440.89 Z" fill="#000000" fill-rule="evenodd" fill-opacity="1" /><path clip-path="url(#clip500)" d="M 0 0 M1237.55 1472.14 L1253.87 1472.14 L1253.87 1476.08 L1231.92 1476.08 L1231.92 1472.14 Q1234.58 1469.39 1239.17 1464.76 Q1243.77 1460.11 1244.95 1458.77 Q1247.2 1456.24 1248.08 1454.51 Q1248.98 1452.75 1248.98 1451.06 Q1248.98 1448.3 1247.04 1446.57 Q1245.12 1444.83 1242.01 1444.83 Q1239.82 1444.83 1237.36 1445.59 Q1234.93 1446.36 1232.15 1447.91 L1232.15 1443.19 Q1234.98 1442.05 1237.43 1441.47 Q1239.88 1440.89 1241.92 1440.89 Q1247.29 1440.89 1250.49 1443.58 Q1253.68 1446.27 1253.68 1450.76 Q1253.68 1452.89 1252.87 1454.81 Q1252.08 1456.7 1249.98 1459.3 Q1249.4 1459.97 1246.3 1463.19 Q1243.2 1466.38 1237.55 1472.14 Z" fill="#000000" fill-rule="evenodd" fill-opacity="1" /><path clip-path="url(#clip500)" d="M 0 0 M1268.94 1444.6 Q1265.32 1444.6 1263.5 1448.16 Q1261.69 1451.71 1261.69 1458.83 Q1261.69 1465.94 1263.5 1469.51 Q1265.32 1473.05 1268.94 1473.05 Q1272.57 1473.05 1274.38 1469.51 Q1276.2 1465.94 1276.2 1458.83 Q1276.2 1451.71 1274.38 1448.16 Q1272.57 1444.6 1268.94 1444.6 M1268.94 1440.89 Q1274.75 1440.89 1277.8 1445.5 Q1280.88 1450.08 1280.88 1458.83 Q1280.88 1467.56 1277.8 1472.17 Q1274.75 1476.75 1268.94 1476.75 Q1263.13 1476.75 1260.05 1472.17 Q1256.99 1467.56 1256.99 1458.83 Q1256.99 1450.08 1260.05 1445.5 Q1263.13 1440.89 1268.94 1440.89 Z" fill="#000000" fill-rule="evenodd" fill-opacity="1" /><path clip-path="url(#clip500)" d="M 0 0 M1719.68 1457.45 Q1723.03 1458.16 1724.91 1460.43 Q1726.81 1462.7 1726.81 1466.03 Q1726.81 1471.15 1723.29 1473.95 Q1719.77 1476.75 1713.29 1476.75 Q1711.11 1476.75 1708.8 1476.31 Q1706.5 1475.89 1704.05 1475.04 L1704.05 1470.52 Q1706 1471.66 1708.31 1472.24 Q1710.63 1472.82 1713.15 1472.82 Q1717.55 1472.82 1719.84 1471.08 Q1722.15 1469.34 1722.15 1466.03 Q1722.15 1462.98 1720 1461.27 Q1717.87 1459.53 1714.05 1459.53 L1710.02 1459.53 L1710.02 1455.69 L1714.24 1455.69 Q1717.69 1455.69 1719.51 1454.32 Q1721.34 1452.93 1721.34 1450.34 Q1721.34 1447.68 1719.44 1446.27 Q1717.57 1444.83 1714.05 1444.83 Q1712.13 1444.83 1709.93 1445.25 Q1707.73 1445.66 1705.09 1446.54 L1705.09 1442.38 Q1707.75 1441.64 1710.07 1441.27 Q1712.41 1440.89 1714.47 1440.89 Q1719.79 1440.89 1722.89 1443.33 Q1726 1445.73 1726 1449.85 Q1726 1452.72 1724.35 1454.71 Q1722.71 1456.68 1719.68 1457.45 Z" fill="#000000" fill-rule="evenodd" fill-opacity="1" /><path clip-path="url(#clip500)" d="M 0 0 M1741.87 1444.6 Q1738.26 1444.6 1736.44 1448.16 Q1734.63 1451.71 1734.63 1458.83 Q1734.63 1465.94 1736.44 1469.51 Q1738.26 1473.05 1741.87 1473.05 Q1745.51 1473.05 1747.31 1469.51 Q1749.14 1465.94 1749.14 1458.83 Q1749.14 1451.71 1747.31 1448.16 Q1745.51 1444.6 1741.87 1444.6 M1741.87 1440.89 Q1747.69 1440.89 1750.74 1445.5 Q1753.82 1450.08 1753.82 1458.83 Q1753.82 1467.56 1750.74 1472.17 Q1747.69 1476.75 1741.87 1476.75 Q1736.06 1476.75 1732.99 1472.17 Q1729.93 1467.56 1729.93 1458.83 Q1729.93 1450.08 1732.99 1445.5 Q1736.06 1440.89 1741.87 1440.89 Z" fill="#000000" fill-rule="evenodd" fill-opacity="1" /><path clip-path="url(#clip500)" d="M 0 0 M2190.97 1445.59 L2179.17 1464.04 L2190.97 1464.04 L2190.97 1445.59 M2189.74 1441.52 L2195.62 1441.52 L2195.62 1464.04 L2200.56 1464.04 L2200.56 1467.93 L2195.62 1467.93 L2195.62 1476.08 L2190.97 1476.08 L2190.97 1467.93 L2175.37 1467.93 L2175.37 1463.42 L2189.74 1441.52 Z" fill="#000000" fill-rule="evenodd" fill-opacity="1" /><path clip-path="url(#clip500)" d="M 0 0 M2215.62 1444.6 Q2212.01 1444.6 2210.18 1448.16 Q2208.38 1451.71 2208.38 1458.83 Q2208.38 1465.94 2210.18 1469.51 Q2212.01 1473.05 2215.62 1473.05 Q2219.26 1473.05 2221.06 1469.51 Q2222.89 1465.94 2222.89 1458.83 Q2222.89 1451.71 2221.06 1448.16 Q2219.26 1444.6 2215.62 1444.6 M2215.62 1440.89 Q2221.43 1440.89 2224.49 1445.5 Q2227.57 1450.08 2227.57 1458.83 Q2227.57 1467.56 2224.49 1472.17 Q2221.43 1476.75 2215.62 1476.75 Q2209.81 1476.75 2206.74 1472.17 Q2203.68 1467.56 2203.68 1458.83 Q2203.68 1450.08 2206.74 1445.5 Q2209.81 1440.89 2215.62 1440.89 Z" fill="#000000" fill-rule="evenodd" fill-opacity="1" /><path clip-path="url(#clip500)" d="M 0 0 M43.3771 1261.4 L55.8539 1261.4 L55.8539 1265.2 L43.3771 1265.2 L43.3771 1261.4 Z" fill="#000000" fill-rule="evenodd" fill-opacity="1" /><path clip-path="url(#clip500)" d="M 0 0 M78.6778 1272.35 L94.9972 1272.35 L94.9972 1276.29 L73.0528 1276.29 L73.0528 1272.35 Q75.7149 1269.6 80.2982 1264.97 Q84.9046 1260.31 86.0852 1258.97 Q88.3305 1256.45 89.2102 1254.71 Q90.1129 1252.95 90.1129 1251.26 Q90.1129 1248.51 88.1685 1246.77 Q86.2472 1245.04 83.1454 1245.04 Q80.9463 1245.04 78.4926 1245.8 Q76.0621 1246.56 73.2843 1248.12 L73.2843 1243.39 Q76.1084 1242.26 78.5621 1241.68 Q81.0158 1241.1 83.0528 1241.1 Q88.4231 1241.1 91.6176 1243.79 Q94.812 1246.47 94.812 1250.96 Q94.812 1253.09 94.0018 1255.01 Q93.2148 1256.91 91.1083 1259.5 Q90.5296 1260.18 87.4278 1263.39 Q84.3259 1266.59 78.6778 1272.35 Z" fill="#000000" fill-rule="evenodd" fill-opacity="1" /><path clip-path="url(#clip500)" d="M 0 0 M100.067 1270.41 L104.951 1270.41 L104.951 1276.29 L100.067 1276.29 L100.067 1270.41 Z" fill="#000000" fill-rule="evenodd" fill-opacity="1" /><path clip-path="url(#clip500)" d="M 0 0 M120.02 1244.81 Q116.409 1244.81 114.58 1248.37 Q112.775 1251.91 112.775 1259.04 Q112.775 1266.15 114.58 1269.71 Q116.409 1273.25 120.02 1273.25 Q123.654 1273.25 125.46 1269.71 Q127.289 1266.15 127.289 1259.04 Q127.289 1251.91 125.46 1248.37 Q123.654 1244.81 120.02 1244.81 M120.02 1241.1 Q125.83 1241.1 128.886 1245.71 Q131.965 1250.29 131.965 1259.04 Q131.965 1267.77 128.886 1272.37 Q125.83 1276.96 120.02 1276.96 Q114.21 1276.96 111.131 1272.37 Q108.076 1267.77 108.076 1259.04 Q108.076 1250.29 111.131 1245.71 Q114.21 1241.1 120.02 1241.1 Z" fill="#000000" fill-rule="evenodd" fill-opacity="1" /><path clip-path="url(#clip500)" d="M 0 0 M165.205 1250.82 L154.626 1261.45 L165.205 1272.03 L162.451 1274.83 L151.826 1264.2 L141.201 1274.83 L138.469 1272.03 L149.025 1261.45 L138.469 1250.82 L141.201 1248.02 L151.826 1258.65 L162.451 1248.02 L165.205 1250.82 Z" fill="#000000" fill-rule="evenodd" fill-opacity="1" /><path clip-path="url(#clip500)" d="M 0 0 M171.085 1272.35 L178.724 1272.35 L178.724 1245.99 L170.413 1247.65 L170.413 1243.39 L178.677 1241.73 L183.353 1241.73 L183.353 1272.35 L190.992 1272.35 L190.992 1276.29 L171.085 1276.29 L171.085 1272.35 Z" fill="#000000" fill-rule="evenodd" fill-opacity="1" /><path clip-path="url(#clip500)" d="M 0 0 M206.061 1244.81 Q202.45 1244.81 200.622 1248.37 Q198.816 1251.91 198.816 1259.04 Q198.816 1266.15 200.622 1269.71 Q202.45 1273.25 206.061 1273.25 Q209.696 1273.25 211.501 1269.71 Q213.33 1266.15 213.33 1259.04 Q213.33 1251.91 211.501 1248.37 Q209.696 1244.81 206.061 1244.81 M206.061 1241.1 Q211.872 1241.1 214.927 1245.71 Q218.006 1250.29 218.006 1259.04 Q218.006 1267.77 214.927 1272.37 Q211.872 1276.96 206.061 1276.96 Q200.251 1276.96 197.173 1272.37 Q194.117 1267.77 194.117 1259.04 Q194.117 1250.29 197.173 1245.71 Q200.251 1241.1 206.061 1241.1 Z" fill="#000000" fill-rule="evenodd" fill-opacity="1" /><path clip-path="url(#clip500)" d="M 0 0 M218.006 1236.78 L228.143 1236.78 L228.143 1239.87 L218.006 1239.87 L218.006 1236.78 Z" fill="#000000" fill-rule="evenodd" fill-opacity="1" /><path clip-path="url(#clip500)" d="M 0 0 M242.663 1245.68 L248.869 1245.68 L248.869 1224.26 L242.117 1225.61 L242.117 1222.15 L248.832 1220.8 L252.631 1220.8 L252.631 1245.68 L258.837 1245.68 L258.837 1248.88 L242.663 1248.88 L242.663 1245.68 Z" fill="#000000" fill-rule="evenodd" fill-opacity="1" /><path clip-path="url(#clip500)" d="M 0 0 M274.467 1233.74 Q277.194 1234.32 278.717 1236.16 Q280.259 1238.01 280.259 1240.71 Q280.259 1244.87 277.401 1247.15 Q274.542 1249.42 269.276 1249.42 Q267.508 1249.42 265.627 1249.06 Q263.765 1248.73 261.771 1248.03 L261.771 1244.36 Q263.351 1245.28 265.232 1245.75 Q267.113 1246.22 269.163 1246.22 Q272.736 1246.22 274.598 1244.81 Q276.479 1243.4 276.479 1240.71 Q276.479 1238.23 274.73 1236.84 Q273 1235.43 269.896 1235.43 L266.624 1235.43 L266.624 1232.31 L270.047 1232.31 Q272.849 1232.31 274.335 1231.2 Q275.821 1230.07 275.821 1227.96 Q275.821 1225.8 274.279 1224.65 Q272.755 1223.49 269.896 1223.49 Q268.335 1223.49 266.549 1223.82 Q264.762 1224.16 262.618 1224.88 L262.618 1221.49 Q264.781 1220.89 266.661 1220.59 Q268.561 1220.29 270.235 1220.29 Q274.561 1220.29 277.081 1222.26 Q279.601 1224.22 279.601 1227.57 Q279.601 1229.9 278.266 1231.52 Q276.931 1233.12 274.467 1233.74 Z" fill="#000000" fill-rule="evenodd" fill-opacity="1" /><path clip-path="url(#clip500)" d="M 0 0 M45.7382 1021.04 L58.215 1021.04 L58.215 1024.84 L45.7382 1024.84 L45.7382 1021.04 Z" fill="#000000" fill-rule="evenodd" fill-opacity="1" /><path clip-path="url(#clip500)" d="M 0 0 M76.0852 1031.99 L83.7241 1031.99 L83.7241 1005.63 L75.4139 1007.29 L75.4139 1003.03 L83.6778 1001.37 L88.3537 1001.37 L88.3537 1031.99 L95.9925 1031.99 L95.9925 1035.93 L76.0852 1035.93 L76.0852 1031.99 Z" fill="#000000" fill-rule="evenodd" fill-opacity="1" /><path clip-path="url(#clip500)" d="M 0 0 M101.062 1030.05 L105.946 1030.05 L105.946 1035.93 L101.062 1035.93 L101.062 1030.05 Z" fill="#000000" fill-rule="evenodd" fill-opacity="1" /><path clip-path="url(#clip500)" d="M 0 0 M111.062 1001.37 L129.418 1001.37 L129.418 1005.3 L115.344 1005.3 L115.344 1013.78 Q116.363 1013.43 117.381 1013.27 Q118.4 1013.08 119.418 1013.08 Q125.205 1013.08 128.585 1016.25 Q131.965 1019.42 131.965 1024.84 Q131.965 1030.42 128.492 1033.52 Q125.02 1036.6 118.701 1036.6 Q116.525 1036.6 114.256 1036.23 Q112.011 1035.86 109.604 1035.12 L109.604 1030.42 Q111.687 1031.55 113.909 1032.11 Q116.131 1032.66 118.608 1032.66 Q122.613 1032.66 124.951 1030.56 Q127.289 1028.45 127.289 1024.84 Q127.289 1021.23 124.951 1019.12 Q122.613 1017.02 118.608 1017.02 Q116.733 1017.02 114.858 1017.43 Q113.006 1017.85 111.062 1018.73 L111.062 1001.37 Z" fill="#000000" fill-rule="evenodd" fill-opacity="1" /><path clip-path="url(#clip500)" d="M 0 0 M165.205 1010.47 L154.626 1021.09 L165.205 1031.67 L162.451 1034.47 L151.826 1023.84 L141.201 1034.47 L138.469 1031.67 L149.025 1021.09 L138.469 1010.47 L141.201 1007.66 L151.826 1018.29 L162.451 1007.66 L165.205 1010.47 Z" fill="#000000" fill-rule="evenodd" fill-opacity="1" /><path clip-path="url(#clip500)" d="M 0 0 M171.085 1031.99 L178.724 1031.99 L178.724 1005.63 L170.413 1007.29 L170.413 1003.03 L178.677 1001.37 L183.353 1001.37 L183.353 1031.99 L190.992 1031.99 L190.992 1035.93 L171.085 1035.93 L171.085 1031.99 Z" fill="#000000" fill-rule="evenodd" fill-opacity="1" /><path clip-path="url(#clip500)" d="M 0 0 M206.061 1004.45 Q202.45 1004.45 200.622 1008.01 Q198.816 1011.55 198.816 1018.68 Q198.816 1025.79 200.622 1029.35 Q202.45 1032.9 206.061 1032.9 Q209.696 1032.9 211.501 1029.35 Q213.33 1025.79 213.33 1018.68 Q213.33 1011.55 211.501 1008.01 Q209.696 1004.45 206.061 1004.45 M206.061 1000.74 Q211.872 1000.74 214.927 1005.35 Q218.006 1009.93 218.006 1018.68 Q218.006 1027.41 214.927 1032.02 Q211.872 1036.6 206.061 1036.6 Q200.251 1036.6 197.173 1032.02 Q194.117 1027.41 194.117 1018.68 Q194.117 1009.93 197.173 1005.35 Q200.251 1000.74 206.061 1000.74 Z" fill="#000000" fill-rule="evenodd" fill-opacity="1" /><path clip-path="url(#clip500)" d="M 0 0 M218.006 996.424 L228.143 996.424 L228.143 999.509 L218.006 999.509 L218.006 996.424 Z" fill="#000000" fill-rule="evenodd" fill-opacity="1" /><path clip-path="url(#clip500)" d="M 0 0 M242.663 1005.32 L248.869 1005.32 L248.869 983.898 L242.117 985.252 L242.117 981.792 L248.832 980.438 L252.631 980.438 L252.631 1005.32 L258.837 1005.32 L258.837 1008.52 L242.663 1008.52 L242.663 1005.32 Z" fill="#000000" fill-rule="evenodd" fill-opacity="1" /><path clip-path="url(#clip500)" d="M 0 0 M274.467 993.377 Q277.194 993.96 278.717 995.804 Q280.259 997.647 280.259 1000.36 Q280.259 1004.51 277.401 1006.79 Q274.542 1009.06 269.276 1009.06 Q267.508 1009.06 265.627 1008.71 Q263.765 1008.37 261.771 1007.67 L261.771 1004 Q263.351 1004.93 265.232 1005.4 Q267.113 1005.87 269.163 1005.87 Q272.736 1005.87 274.598 1004.46 Q276.479 1003.04 276.479 1000.36 Q276.479 997.873 274.73 996.481 Q273 995.07 269.896 995.07 L266.624 995.07 L266.624 991.948 L270.047 991.948 Q272.849 991.948 274.335 990.838 Q275.821 989.71 275.821 987.603 Q275.821 985.441 274.279 984.293 Q272.755 983.127 269.896 983.127 Q268.335 983.127 266.549 983.466 Q264.762 983.804 262.618 984.519 L262.618 981.134 Q264.781 980.532 266.661 980.231 Q268.561 979.93 270.235 979.93 Q274.561 979.93 277.081 981.905 Q279.601 983.861 279.601 987.209 Q279.601 989.541 278.266 991.158 Q276.931 992.757 274.467 993.377 Z" fill="#000000" fill-rule="evenodd" fill-opacity="1" /><path clip-path="url(#clip500)" d="M 0 0 M44.7428 780.685 L57.2196 780.685 L57.2196 784.482 L44.7428 784.482 L44.7428 780.685 Z" fill="#000000" fill-rule="evenodd" fill-opacity="1" /><path clip-path="url(#clip500)" d="M 0 0 M75.0899 791.634 L82.7287 791.634 L82.7287 765.269 L74.4186 766.936 L74.4186 762.676 L82.6824 761.01 L87.3583 761.01 L87.3583 791.634 L94.9972 791.634 L94.9972 795.57 L75.0899 795.57 L75.0899 791.634 Z" fill="#000000" fill-rule="evenodd" fill-opacity="1" /><path clip-path="url(#clip500)" d="M 0 0 M100.067 789.69 L104.951 789.69 L104.951 795.57 L100.067 795.57 L100.067 789.69 Z" fill="#000000" fill-rule="evenodd" fill-opacity="1" /><path clip-path="url(#clip500)" d="M 0 0 M120.02 764.088 Q116.409 764.088 114.58 767.653 Q112.775 771.195 112.775 778.324 Q112.775 785.431 114.58 788.996 Q116.409 792.537 120.02 792.537 Q123.654 792.537 125.46 788.996 Q127.289 785.431 127.289 778.324 Q127.289 771.195 125.46 767.653 Q123.654 764.088 120.02 764.088 M120.02 760.385 Q125.83 760.385 128.886 764.991 Q131.965 769.574 131.965 778.324 Q131.965 787.051 128.886 791.658 Q125.83 796.241 120.02 796.241 Q114.21 796.241 111.131 791.658 Q108.076 787.051 108.076 778.324 Q108.076 769.574 111.131 764.991 Q114.21 760.385 120.02 760.385 Z" fill="#000000" fill-rule="evenodd" fill-opacity="1" /><path clip-path="url(#clip500)" d="M 0 0 M165.205 770.107 L154.626 780.732 L165.205 791.31 L162.451 794.111 L151.826 783.486 L141.201 794.111 L138.469 791.31 L149.025 780.732 L138.469 770.107 L141.201 767.306 L151.826 777.931 L162.451 767.306 L165.205 770.107 Z" fill="#000000" fill-rule="evenodd" fill-opacity="1" /><path clip-path="url(#clip500)" d="M 0 0 M171.085 791.634 L178.724 791.634 L178.724 765.269 L170.413 766.936 L170.413 762.676 L178.677 761.01 L183.353 761.01 L183.353 791.634 L190.992 791.634 L190.992 795.57 L171.085 795.57 L171.085 791.634 Z" fill="#000000" fill-rule="evenodd" fill-opacity="1" /><path clip-path="url(#clip500)" d="M 0 0 M206.061 764.088 Q202.45 764.088 200.622 767.653 Q198.816 771.195 198.816 778.324 Q198.816 785.431 200.622 788.996 Q202.45 792.537 206.061 792.537 Q209.696 792.537 211.501 788.996 Q213.33 785.431 213.33 778.324 Q213.33 771.195 211.501 767.653 Q209.696 764.088 206.061 764.088 M206.061 760.385 Q211.872 760.385 214.927 764.991 Q218.006 769.574 218.006 778.324 Q218.006 787.051 214.927 791.658 Q211.872 796.241 206.061 796.241 Q200.251 796.241 197.173 791.658 Q194.117 787.051 194.117 778.324 Q194.117 769.574 197.173 764.991 Q200.251 760.385 206.061 760.385 Z" fill="#000000" fill-rule="evenodd" fill-opacity="1" /><path clip-path="url(#clip500)" d="M 0 0 M218.006 756.066 L228.143 756.066 L228.143 759.15 L218.006 759.15 L218.006 756.066 Z" fill="#000000" fill-rule="evenodd" fill-opacity="1" /><path clip-path="url(#clip500)" d="M 0 0 M242.663 764.962 L248.869 764.962 L248.869 743.54 L242.117 744.894 L242.117 741.433 L248.832 740.079 L252.631 740.079 L252.631 764.962 L258.837 764.962 L258.837 768.159 L242.663 768.159 L242.663 764.962 Z" fill="#000000" fill-rule="evenodd" fill-opacity="1" /><path clip-path="url(#clip500)" d="M 0 0 M274.467 753.019 Q277.194 753.602 278.717 755.445 Q280.259 757.288 280.259 759.997 Q280.259 764.153 277.401 766.429 Q274.542 768.705 269.276 768.705 Q267.508 768.705 265.627 768.347 Q263.765 768.009 261.771 767.313 L261.771 763.645 Q263.351 764.567 265.232 765.037 Q267.113 765.507 269.163 765.507 Q272.736 765.507 274.598 764.097 Q276.479 762.686 276.479 759.997 Q276.479 757.514 274.73 756.122 Q273 754.712 269.896 754.712 L266.624 754.712 L266.624 751.59 L270.047 751.59 Q272.849 751.59 274.335 750.48 Q275.821 749.351 275.821 747.245 Q275.821 745.082 274.279 743.935 Q272.755 742.769 269.896 742.769 Q268.335 742.769 266.549 743.107 Q264.762 743.446 262.618 744.161 L262.618 740.775 Q264.781 740.173 266.661 739.872 Q268.561 739.571 270.235 739.571 Q274.561 739.571 277.081 741.546 Q279.601 743.502 279.601 746.85 Q279.601 749.182 278.266 750.8 Q276.931 752.398 274.467 753.019 Z" fill="#000000" fill-rule="evenodd" fill-opacity="1" /><path clip-path="url(#clip500)" d="M 0 0 M42.0388 540.327 L54.5156 540.327 L54.5156 544.123 L42.0388 544.123 L42.0388 540.327 Z" fill="#000000" fill-rule="evenodd" fill-opacity="1" /><path clip-path="url(#clip500)" d="M 0 0 M73.1729 520.651 L91.5293 520.651 L91.5293 524.586 L77.4553 524.586 L77.4553 533.058 Q78.4738 532.711 79.4923 532.549 Q80.5108 532.364 81.5294 532.364 Q87.3164 532.364 90.696 535.535 Q94.0756 538.707 94.0756 544.123 Q94.0756 549.702 90.6034 552.804 Q87.1312 555.882 80.8118 555.882 Q78.6359 555.882 76.3673 555.512 Q74.122 555.142 71.7146 554.401 L71.7146 549.702 Q73.7979 550.836 76.0201 551.392 Q78.2423 551.947 80.7192 551.947 Q84.7238 551.947 87.0617 549.841 Q89.3997 547.734 89.3997 544.123 Q89.3997 540.512 87.0617 538.406 Q84.7238 536.299 80.7192 536.299 Q78.8442 536.299 76.9692 536.716 Q75.1174 537.133 73.1729 538.012 L73.1729 520.651 Z" fill="#000000" fill-rule="evenodd" fill-opacity="1" /><path clip-path="url(#clip500)" d="M 0 0 M99.145 549.332 L104.029 549.332 L104.029 555.211 L99.145 555.211 L99.145 549.332 Z" fill="#000000" fill-rule="evenodd" fill-opacity="1" /><path clip-path="url(#clip500)" d="M 0 0 M119.099 523.73 Q115.488 523.73 113.659 527.295 Q111.853 530.836 111.853 537.966 Q111.853 545.072 113.659 548.637 Q115.488 552.179 119.099 552.179 Q122.733 552.179 124.538 548.637 Q126.367 545.072 126.367 537.966 Q126.367 530.836 124.538 527.295 Q122.733 523.73 119.099 523.73 M119.099 520.026 Q124.909 520.026 127.964 524.633 Q131.043 529.216 131.043 537.966 Q131.043 546.693 127.964 551.299 Q124.909 555.882 119.099 555.882 Q113.288 555.882 110.21 551.299 Q107.154 546.693 107.154 537.966 Q107.154 529.216 110.21 524.633 Q113.288 520.026 119.099 520.026 Z" fill="#000000" fill-rule="evenodd" fill-opacity="1" /><path clip-path="url(#clip500)" d="M 0 0 M164.284 529.748 L153.705 540.373 L164.284 550.952 L161.529 553.753 L150.904 543.128 L140.279 553.753 L137.548 550.952 L148.103 540.373 L137.548 529.748 L140.279 526.947 L150.904 537.572 L161.529 526.947 L164.284 529.748 Z" fill="#000000" fill-rule="evenodd" fill-opacity="1" /><path clip-path="url(#clip500)" d="M 0 0 M170.163 551.276 L177.802 551.276 L177.802 524.91 L169.492 526.577 L169.492 522.318 L177.756 520.651 L182.432 520.651 L182.432 551.276 L190.07 551.276 L190.07 555.211 L170.163 555.211 L170.163 551.276 Z" fill="#000000" fill-rule="evenodd" fill-opacity="1" /><path clip-path="url(#clip500)" d="M 0 0 M205.14 523.73 Q201.529 523.73 199.7 527.295 Q197.894 530.836 197.894 537.966 Q197.894 545.072 199.7 548.637 Q201.529 552.179 205.14 552.179 Q208.774 552.179 210.58 548.637 Q212.408 545.072 212.408 537.966 Q212.408 530.836 210.58 527.295 Q208.774 523.73 205.14 523.73 M205.14 520.026 Q210.95 520.026 214.005 524.633 Q217.084 529.216 217.084 537.966 Q217.084 546.693 214.005 551.299 Q210.95 555.882 205.14 555.882 Q199.33 555.882 196.251 551.299 Q193.195 546.693 193.195 537.966 Q193.195 529.216 196.251 524.633 Q199.33 520.026 205.14 520.026 Z" fill="#000000" fill-rule="evenodd" fill-opacity="1" /><path clip-path="url(#clip500)" d="M 0 0 M217.084 515.707 L227.222 515.707 L227.222 518.792 L217.084 518.792 L217.084 515.707 Z" fill="#000000" fill-rule="evenodd" fill-opacity="1" /><path clip-path="url(#clip500)" d="M 0 0 M241.741 524.603 L247.948 524.603 L247.948 503.181 L241.196 504.536 L241.196 501.075 L247.91 499.721 L251.709 499.721 L251.709 524.603 L257.916 524.603 L257.916 527.801 L241.741 527.801 L241.741 524.603 Z" fill="#000000" fill-rule="evenodd" fill-opacity="1" /><path clip-path="url(#clip500)" d="M 0 0 M272.473 503.031 L262.881 518.021 L272.473 518.021 L272.473 503.031 M271.476 499.721 L276.253 499.721 L276.253 518.021 L280.259 518.021 L280.259 521.18 L276.253 521.18 L276.253 527.801 L272.473 527.801 L272.473 521.18 L259.797 521.18 L259.797 517.513 L271.476 499.721 Z" fill="#000000" fill-rule="evenodd" fill-opacity="1" /><path clip-path="url(#clip500)" d="M 0 0 M268.315 276.924 Q264.704 276.924 262.875 280.489 Q261.07 284.03 261.07 291.16 Q261.07 298.266 262.875 301.831 Q264.704 305.373 268.315 305.373 Q271.949 305.373 273.755 301.831 Q275.584 298.266 275.584 291.16 Q275.584 284.03 273.755 280.489 Q271.949 276.924 268.315 276.924 M268.315 273.22 Q274.125 273.22 277.181 277.827 Q280.259 282.41 280.259 291.16 Q280.259 299.887 277.181 304.493 Q274.125 309.076 268.315 309.076 Q262.505 309.076 259.426 304.493 Q256.371 299.887 256.371 291.16 Q256.371 282.41 259.426 277.827 Q262.505 273.22 268.315 273.22 Z" fill="#000000" fill-rule="evenodd" fill-opacity="1" /><path clip-path="url(#clip500)" d="M 0 0 M73.1729 39.9342 L91.5293 39.9342 L91.5293 43.8693 L77.4553 43.8693 L77.4553 52.3415 Q78.4738 51.9943 79.4923 51.8322 Q80.5108 51.6471 81.5294 51.6471 Q87.3164 51.6471 90.696 54.8183 Q94.0756 57.9896 94.0756 63.4063 Q94.0756 68.9849 90.6034 72.0868 Q87.1312 75.1654 80.8118 75.1654 Q78.6359 75.1654 76.3673 74.7951 Q74.122 74.4247 71.7146 73.684 L71.7146 68.9849 Q73.7979 70.1192 76.0201 70.6747 Q78.2423 71.2303 80.7192 71.2303 Q84.7238 71.2303 87.0617 69.1238 Q89.3997 67.0173 89.3997 63.4063 Q89.3997 59.7952 87.0617 57.6887 Q84.7238 55.5822 80.7192 55.5822 Q78.8442 55.5822 76.9692 55.9989 Q75.1174 56.4155 73.1729 57.2952 L73.1729 39.9342 Z" fill="#000000" fill-rule="evenodd" fill-opacity="1" /><path clip-path="url(#clip500)" d="M 0 0 M99.145 68.6146 L104.029 68.6146 L104.029 74.4942 L99.145 74.4942 L99.145 68.6146 Z" fill="#000000" fill-rule="evenodd" fill-opacity="1" /><path clip-path="url(#clip500)" d="M 0 0 M119.099 43.0128 Q115.488 43.0128 113.659 46.5776 Q111.853 50.1193 111.853 57.2489 Q111.853 64.3553 113.659 67.9201 Q115.488 71.4618 119.099 71.4618 Q122.733 71.4618 124.538 67.9201 Q126.367 64.3553 126.367 57.2489 Q126.367 50.1193 124.538 46.5776 Q122.733 43.0128 119.099 43.0128 M119.099 39.3092 Q124.909 39.3092 127.964 43.9156 Q131.043 48.4989 131.043 57.2489 Q131.043 65.9757 127.964 70.5821 Q124.909 75.1654 119.099 75.1654 Q113.288 75.1654 110.21 70.5821 Q107.154 65.9757 107.154 57.2489 Q107.154 48.4989 110.21 43.9156 Q113.288 39.3092 119.099 39.3092 Z" fill="#000000" fill-rule="evenodd" fill-opacity="1" /><path clip-path="url(#clip500)" d="M 0 0 M164.284 49.0313 L153.705 59.6563 L164.284 70.2349 L161.529 73.0358 L150.904 62.4109 L140.279 73.0358 L137.548 70.2349 L148.103 59.6563 L137.548 49.0313 L140.279 46.2304 L150.904 56.8554 L161.529 46.2304 L164.284 49.0313 Z" fill="#000000" fill-rule="evenodd" fill-opacity="1" /><path clip-path="url(#clip500)" d="M 0 0 M170.163 70.559 L177.802 70.559 L177.802 44.1934 L169.492 45.86 L169.492 41.6008 L177.756 39.9342 L182.432 39.9342 L182.432 70.559 L190.07 70.559 L190.07 74.4942 L170.163 74.4942 L170.163 70.559 Z" fill="#000000" fill-rule="evenodd" fill-opacity="1" /><path clip-path="url(#clip500)" d="M 0 0 M205.14 43.0128 Q201.529 43.0128 199.7 46.5776 Q197.894 50.1193 197.894 57.2489 Q197.894 64.3553 199.7 67.9201 Q201.529 71.4618 205.14 71.4618 Q208.774 71.4618 210.58 67.9201 Q212.408 64.3553 212.408 57.2489 Q212.408 50.1193 210.58 46.5776 Q208.774 43.0128 205.14 43.0128 M205.14 39.3092 Q210.95 39.3092 214.005 43.9156 Q217.084 48.4989 217.084 57.2489 Q217.084 65.9757 214.005 70.5821 Q210.95 75.1654 205.14 75.1654 Q199.33 75.1654 196.251 70.5821 Q193.195 65.9757 193.195 57.2489 Q193.195 48.4989 196.251 43.9156 Q199.33 39.3092 205.14 39.3092 Z" fill="#000000" fill-rule="evenodd" fill-opacity="1" /><path clip-path="url(#clip500)" d="M 0 0 M217.084 34.9904 L227.222 34.9904 L227.222 38.0748 L217.084 38.0748 L217.084 34.9904 Z" fill="#000000" fill-rule="evenodd" fill-opacity="1" /><path clip-path="url(#clip500)" d="M 0 0 M241.741 43.8864 L247.948 43.8864 L247.948 22.4644 L241.196 23.8185 L241.196 20.3579 L247.91 19.0038 L251.709 19.0038 L251.709 43.8864 L257.916 43.8864 L257.916 47.0838 L241.741 47.0838 L241.741 43.8864 Z" fill="#000000" fill-rule="evenodd" fill-opacity="1" /><path clip-path="url(#clip500)" d="M 0 0 M272.473 22.3139 L262.881 37.3037 L272.473 37.3037 L272.473 22.3139 M271.476 19.0038 L276.253 19.0038 L276.253 37.3037 L280.259 37.3037 L280.259 40.4634 L276.253 40.4634 L276.253 47.0838 L272.473 47.0838 L272.473 40.4634 L259.797 40.4634 L259.797 36.7959 L271.476 19.0038 Z" fill="#000000" fill-rule="evenodd" fill-opacity="1" /><polyline clip-path="url(#clip502)" style="stroke:#009af9; stroke-width:4; stroke-opacity:1; fill:none" points="
  358.586,316.743 405.839,145.958 453.093,86.1831 500.346,120.34 547.6,393.596 594.853,154.497 642.107,359.439 689.36,86.1831 736.613,427.753 783.867,564.381 
  831.12,427.753 878.374,427.753 925.627,837.637 972.88,564.381 1020.13,564.381 1067.39,837.637 1114.64,1110.89 1161.89,837.637 1209.15,837.637 1256.4,1384.15 
  1303.65,837.637 1350.91,837.637 1398.16,291.125 1445.41,837.637 1492.67,837.637 1539.92,837.637 1587.17,837.637 1634.43,837.637 1681.68,837.637 1728.94,837.637 
  1776.19,291.125 1823.44,291.125 1870.7,837.637 1917.95,291.125 1965.2,837.637 2012.46,291.125 2059.71,291.125 2106.96,291.125 2154.22,291.125 2201.47,291.125 
  
  "/>
<path clip-path="url(#clip500)" d="
M1906.22 245.964 L2187.64 245.964 L2187.64 125.004 L1906.22 125.004  Z
  " fill="#ffffff" fill-rule="evenodd" fill-opacity="1"/>
<polyline clip-path="url(#clip500)" style="stroke:#000000; stroke-width:4; stroke-opacity:1; fill:none" points="
  1906.22,245.964 2187.64,245.964 2187.64,125.004 1906.22,125.004 1906.22,245.964 
  "/>
<polyline clip-path="url(#clip500)" style="stroke:#009af9; stroke-width:4; stroke-opacity:1; fill:none" points="
  1929.26,185.484 2067.5,185.484 
  "/>
<path clip-path="url(#clip500)" d="M 0 0 M2104.38 205.171 Q2102.57 209.801 2100.86 211.213 Q2099.15 212.625 2096.28 212.625 L2092.88 212.625 L2092.88 209.06 L2095.38 209.06 Q2097.13 209.06 2098.11 208.227 Q2099.08 207.394 2100.26 204.292 L2101.02 202.347 L2090.54 176.838 L2095.05 176.838 L2103.15 197.116 L2111.26 176.838 L2115.77 176.838 L2104.38 205.171 Z" fill="#000000" fill-rule="evenodd" fill-opacity="1" /><path clip-path="url(#clip500)" d="M 0 0 M2121.65 198.829 L2129.29 198.829 L2129.29 172.463 L2120.98 174.13 L2120.98 169.871 L2129.24 168.204 L2133.92 168.204 L2133.92 198.829 L2141.56 198.829 L2141.56 202.764 L2121.65 202.764 L2121.65 198.829 Z" fill="#000000" fill-rule="evenodd" fill-opacity="1" /></svg>
