<?xml version="1.0" encoding="utf-8"?>
<svg xmlns="http://www.w3.org/2000/svg" xmlns:xlink="http://www.w3.org/1999/xlink" width="576" height="384" viewBox="0 0 2304 1536">
<defs>
  <clipPath id="clip330">
    <rect x="0" y="0" width="2304" height="1536"/>
  </clipPath>
</defs>
<path clip-path="url(#clip330)" d="
M0 1536 L2304 1536 L2304 0 L0 0  Z
  " fill="#ffffff" fill-rule="evenodd" fill-opacity="1"/>
<defs>
  <clipPath id="clip331">
    <rect x="460" y="0" width="1614" height="1536"/>
  </clipPath>
</defs>
<path clip-path="url(#clip330)" d="
M218.906 1359.82 L2256.76 1359.82 L2256.76 47.2441 L218.906 47.2441  Z
  " fill="#ffffff" fill-rule="evenodd" fill-opacity="1"/>
<defs>
  <clipPath id="clip332">
    <rect x="218" y="47" width="2039" height="1314"/>
  </clipPath>
</defs>
<polyline clip-path="url(#clip332)" style="stroke:#000000; stroke-linecap:butt; stroke-linejoin:round; stroke-width:2; stroke-opacity:0.1; fill:none" points="
  398.165,1359.82 398.165,47.2441 
  "/>
<polyline clip-path="url(#clip332)" style="stroke:#000000; stroke-linecap:butt; stroke-linejoin:round; stroke-width:2; stroke-opacity:0.1; fill:none" points="
  566.098,1359.82 566.098,47.2441 
  "/>
<polyline clip-path="url(#clip332)" style="stroke:#000000; stroke-linecap:butt; stroke-linejoin:round; stroke-width:2; stroke-opacity:0.1; fill:none" points="
  734.031,1359.82 734.031,47.2441 
  "/>
<polyline clip-path="url(#clip332)" style="stroke:#000000; stroke-linecap:butt; stroke-linejoin:round; stroke-width:2; stroke-opacity:0.1; fill:none" points="
  901.965,1359.82 901.965,47.2441 
  "/>
<polyline clip-path="url(#clip332)" style="stroke:#000000; stroke-linecap:butt; stroke-linejoin:round; stroke-width:2; stroke-opacity:0.1; fill:none" points="
  1069.9,1359.82 1069.9,47.2441 
  "/>
<polyline clip-path="url(#clip332)" style="stroke:#000000; stroke-linecap:butt; stroke-linejoin:round; stroke-width:2; stroke-opacity:0.1; fill:none" points="
  1237.83,1359.82 1237.83,47.2441 
  "/>
<polyline clip-path="url(#clip332)" style="stroke:#000000; stroke-linecap:butt; stroke-linejoin:round; stroke-width:2; stroke-opacity:0.1; fill:none" points="
  1405.76,1359.82 1405.76,47.2441 
  "/>
<polyline clip-path="url(#clip332)" style="stroke:#000000; stroke-linecap:butt; stroke-linejoin:round; stroke-width:2; stroke-opacity:0.1; fill:none" points="
  1573.7,1359.82 1573.7,47.2441 
  "/>
<polyline clip-path="url(#clip332)" style="stroke:#000000; stroke-linecap:butt; stroke-linejoin:round; stroke-width:2; stroke-opacity:0.1; fill:none" points="
  1741.63,1359.82 1741.63,47.2441 
  "/>
<polyline clip-path="url(#clip332)" style="stroke:#000000; stroke-linecap:butt; stroke-linejoin:round; stroke-width:2; stroke-opacity:0.1; fill:none" points="
  1909.56,1359.82 1909.56,47.2441 
  "/>
<polyline clip-path="url(#clip332)" style="stroke:#000000; stroke-linecap:butt; stroke-linejoin:round; stroke-width:2; stroke-opacity:0.1; fill:none" points="
  2077.5,1359.82 2077.5,47.2441 
  "/>
<polyline clip-path="url(#clip330)" style="stroke:#000000; stroke-linecap:butt; stroke-linejoin:round; stroke-width:4; stroke-opacity:1; fill:none" points="
  218.906,1359.82 2256.76,1359.82 
  "/>
<polyline clip-path="url(#clip330)" style="stroke:#000000; stroke-linecap:butt; stroke-linejoin:round; stroke-width:4; stroke-opacity:1; fill:none" points="
  398.165,1359.82 398.165,1340.92 
  "/>
<polyline clip-path="url(#clip330)" style="stroke:#000000; stroke-linecap:butt; stroke-linejoin:round; stroke-width:4; stroke-opacity:1; fill:none" points="
  566.098,1359.82 566.098,1340.92 
  "/>
<polyline clip-path="url(#clip330)" style="stroke:#000000; stroke-linecap:butt; stroke-linejoin:round; stroke-width:4; stroke-opacity:1; fill:none" points="
  734.031,1359.82 734.031,1340.92 
  "/>
<polyline clip-path="url(#clip330)" style="stroke:#000000; stroke-linecap:butt; stroke-linejoin:round; stroke-width:4; stroke-opacity:1; fill:none" points="
  901.965,1359.82 901.965,1340.92 
  "/>
<polyline clip-path="url(#clip330)" style="stroke:#000000; stroke-linecap:butt; stroke-linejoin:round; stroke-width:4; stroke-opacity:1; fill:none" points="
  1069.9,1359.82 1069.9,1340.92 
  "/>
<polyline clip-path="url(#clip330)" style="stroke:#000000; stroke-linecap:butt; stroke-linejoin:round; stroke-width:4; stroke-opacity:1; fill:none" points="
  1237.83,1359.82 1237.83,1340.92 
  "/>
<polyline clip-path="url(#clip330)" style="stroke:#000000; stroke-linecap:butt; stroke-linejoin:round; stroke-width:4; stroke-opacity:1; fill:none" points="
  1405.76,1359.82 1405.76,1340.92 
  "/>
<polyline clip-path="url(#clip330)" style="stroke:#000000; stroke-linecap:butt; stroke-linejoin:round; stroke-width:4; stroke-opacity:1; fill:none" points="
  1573.7,1359.82 1573.7,1340.92 
  "/>
<polyline clip-path="url(#clip330)" style="stroke:#000000; stroke-linecap:butt; stroke-linejoin:round; stroke-width:4; stroke-opacity:1; fill:none" points="
  1741.63,1359.82 1741.63,1340.92 
  "/>
<polyline clip-path="url(#clip330)" style="stroke:#000000; stroke-linecap:butt; stroke-linejoin:round; stroke-width:4; stroke-opacity:1; fill:none" points="
  1909.56,1359.82 1909.56,1340.92 
  "/>
<polyline clip-path="url(#clip330)" style="stroke:#000000; stroke-linecap:butt; stroke-linejoin:round; stroke-width:4; stroke-opacity:1; fill:none" points="
  2077.5,1359.82 2077.5,1340.92 
  "/>
<path clip-path="url(#clip330)" d="M398.165 1389.97 Q394.554 1389.97 392.725 1393.54 Q390.92 1397.08 390.92 1404.21 Q390.92 1411.31 392.725 1414.88 Q394.554 1418.42 398.165 1418.42 Q401.799 1418.42 403.605 1414.88 Q405.433 1411.31 405.433 1404.21 Q405.433 1397.08 403.605 1393.54 Q401.799 1389.97 398.165 1389.97 M398.165 1386.27 Q403.975 1386.27 407.031 1390.87 Q410.109 1395.46 410.109 1404.21 Q410.109 1412.93 407.031 1417.54 Q403.975 1422.12 398.165 1422.12 Q392.355 1422.12 389.276 1417.54 Q386.221 1412.93 386.221 1404.21 Q386.221 1395.46 389.276 1390.87 Q392.355 1386.27 398.165 1386.27 Z" fill="#000000" fill-rule="evenodd" fill-opacity="1" /><path clip-path="url(#clip330)" d="M556.48 1417.52 L564.119 1417.52 L564.119 1391.15 L555.809 1392.82 L555.809 1388.56 L564.073 1386.89 L568.749 1386.89 L568.749 1417.52 L576.387 1417.52 L576.387 1421.45 L556.48 1421.45 L556.48 1417.52 Z" fill="#000000" fill-rule="evenodd" fill-opacity="1" /><path clip-path="url(#clip330)" d="M728.684 1417.52 L745.004 1417.52 L745.004 1421.45 L723.059 1421.45 L723.059 1417.52 Q725.721 1414.76 730.305 1410.13 Q734.911 1405.48 736.092 1404.14 Q738.337 1401.61 739.217 1399.88 Q740.119 1398.12 740.119 1396.43 Q740.119 1393.67 738.175 1391.94 Q736.254 1390.2 733.152 1390.2 Q730.953 1390.2 728.499 1390.97 Q726.068 1391.73 723.291 1393.28 L723.291 1388.56 Q726.115 1387.42 728.568 1386.85 Q731.022 1386.27 733.059 1386.27 Q738.43 1386.27 741.624 1388.95 Q744.818 1391.64 744.818 1396.13 Q744.818 1398.26 744.008 1400.18 Q743.221 1402.08 741.115 1404.67 Q740.536 1405.34 737.434 1408.56 Q734.332 1411.75 728.684 1417.52 Z" fill="#000000" fill-rule="evenodd" fill-opacity="1" /><path clip-path="url(#clip330)" d="M906.212 1402.82 Q909.569 1403.54 911.444 1405.8 Q913.342 1408.07 913.342 1411.41 Q913.342 1416.52 909.823 1419.32 Q906.305 1422.12 899.823 1422.12 Q897.648 1422.12 895.333 1421.68 Q893.041 1421.27 890.587 1420.41 L890.587 1415.9 Q892.532 1417.03 894.847 1417.61 Q897.161 1418.19 899.685 1418.19 Q904.083 1418.19 906.374 1416.45 Q908.689 1414.72 908.689 1411.41 Q908.689 1408.35 906.536 1406.64 Q904.407 1404.9 900.587 1404.9 L896.56 1404.9 L896.56 1401.06 L900.772 1401.06 Q904.222 1401.06 906.05 1399.69 Q907.879 1398.3 907.879 1395.71 Q907.879 1393.05 905.981 1391.64 Q904.106 1390.2 900.587 1390.2 Q898.666 1390.2 896.467 1390.62 Q894.268 1391.04 891.629 1391.91 L891.629 1387.75 Q894.291 1387.01 896.606 1386.64 Q898.944 1386.27 901.004 1386.27 Q906.328 1386.27 909.43 1388.7 Q912.532 1391.1 912.532 1395.23 Q912.532 1398.1 910.888 1400.09 Q909.245 1402.05 906.212 1402.82 Z" fill="#000000" fill-rule="evenodd" fill-opacity="1" /><path clip-path="url(#clip330)" d="M1072.91 1390.97 L1061.1 1409.41 L1072.91 1409.41 L1072.91 1390.97 M1071.68 1386.89 L1077.56 1386.89 L1077.56 1409.41 L1082.49 1409.41 L1082.49 1413.3 L1077.56 1413.3 L1077.56 1421.45 L1072.91 1421.45 L1072.91 1413.3 L1057.31 1413.3 L1057.31 1408.79 L1071.68 1386.89 Z" fill="#000000" fill-rule="evenodd" fill-opacity="1" /><path clip-path="url(#clip330)" d="M1228.11 1386.89 L1246.47 1386.89 L1246.47 1390.83 L1232.39 1390.83 L1232.39 1399.3 Q1233.41 1398.95 1234.43 1398.79 Q1235.45 1398.6 1236.47 1398.6 Q1242.25 1398.6 1245.63 1401.78 Q1249.01 1404.95 1249.01 1410.36 Q1249.01 1415.94 1245.54 1419.04 Q1242.07 1422.12 1235.75 1422.12 Q1233.57 1422.12 1231.3 1421.75 Q1229.06 1421.38 1226.65 1420.64 L1226.65 1415.94 Q1228.73 1417.08 1230.96 1417.63 Q1233.18 1418.19 1235.66 1418.19 Q1239.66 1418.19 1242 1416.08 Q1244.34 1413.98 1244.34 1410.36 Q1244.34 1406.75 1242 1404.65 Q1239.66 1402.54 1235.66 1402.54 Q1233.78 1402.54 1231.91 1402.96 Q1230.05 1403.37 1228.11 1404.25 L1228.11 1386.89 Z" fill="#000000" fill-rule="evenodd" fill-opacity="1" /><path clip-path="url(#clip330)" d="M1406.17 1402.31 Q1403.02 1402.31 1401.17 1404.46 Q1399.34 1406.61 1399.34 1410.36 Q1399.34 1414.09 1401.17 1416.27 Q1403.02 1418.42 1406.17 1418.42 Q1409.32 1418.42 1411.15 1416.27 Q1413 1414.09 1413 1410.36 Q1413 1406.61 1411.15 1404.46 Q1409.32 1402.31 1406.17 1402.31 M1415.45 1387.66 L1415.45 1391.91 Q1413.69 1391.08 1411.89 1390.64 Q1410.1 1390.2 1408.35 1390.2 Q1403.72 1390.2 1401.26 1393.33 Q1398.83 1396.45 1398.48 1402.77 Q1399.85 1400.76 1401.91 1399.69 Q1403.97 1398.6 1406.45 1398.6 Q1411.66 1398.6 1414.66 1401.78 Q1417.7 1404.92 1417.7 1410.36 Q1417.7 1415.69 1414.55 1418.91 Q1411.4 1422.12 1406.17 1422.12 Q1400.17 1422.12 1397 1417.54 Q1393.83 1412.93 1393.83 1404.21 Q1393.83 1396.01 1397.72 1391.15 Q1401.61 1386.27 1408.16 1386.27 Q1409.92 1386.27 1411.7 1386.61 Q1413.51 1386.96 1415.45 1387.66 Z" fill="#000000" fill-rule="evenodd" fill-opacity="1" /><path clip-path="url(#clip330)" d="M1562.59 1386.89 L1584.81 1386.89 L1584.81 1388.88 L1572.26 1421.45 L1567.38 1421.45 L1579.18 1390.83 L1562.59 1390.83 L1562.59 1386.89 Z" fill="#000000" fill-rule="evenodd" fill-opacity="1" /><path clip-path="url(#clip330)" d="M1741.63 1405.04 Q1738.3 1405.04 1736.38 1406.82 Q1734.48 1408.6 1734.48 1411.73 Q1734.48 1414.85 1736.38 1416.64 Q1738.3 1418.42 1741.63 1418.42 Q1744.96 1418.42 1746.89 1416.64 Q1748.81 1414.83 1748.81 1411.73 Q1748.81 1408.6 1746.89 1406.82 Q1744.99 1405.04 1741.63 1405.04 M1736.95 1403.05 Q1733.95 1402.31 1732.26 1400.25 Q1730.59 1398.19 1730.59 1395.23 Q1730.59 1391.08 1733.53 1388.67 Q1736.49 1386.27 1741.63 1386.27 Q1746.79 1386.27 1749.73 1388.67 Q1752.67 1391.08 1752.67 1395.23 Q1752.67 1398.19 1750.98 1400.25 Q1749.32 1402.31 1746.33 1403.05 Q1749.71 1403.84 1751.58 1406.13 Q1753.48 1408.42 1753.48 1411.73 Q1753.48 1416.75 1750.4 1419.44 Q1747.35 1422.12 1741.63 1422.12 Q1735.91 1422.12 1732.83 1419.44 Q1729.78 1416.75 1729.78 1411.73 Q1729.78 1408.42 1731.68 1406.13 Q1733.58 1403.84 1736.95 1403.05 M1735.24 1395.66 Q1735.24 1398.35 1736.91 1399.85 Q1738.6 1401.36 1741.63 1401.36 Q1744.64 1401.36 1746.33 1399.85 Q1748.04 1398.35 1748.04 1395.66 Q1748.04 1392.98 1746.33 1391.48 Q1744.64 1389.97 1741.63 1389.97 Q1738.6 1389.97 1736.91 1391.48 Q1735.24 1392.98 1735.24 1395.66 Z" fill="#000000" fill-rule="evenodd" fill-opacity="1" /><path clip-path="url(#clip330)" d="M1899.86 1420.73 L1899.86 1416.48 Q1901.62 1417.31 1903.43 1417.75 Q1905.24 1418.19 1906.97 1418.19 Q1911.6 1418.19 1914.03 1415.09 Q1916.49 1411.96 1916.83 1405.62 Q1915.49 1407.61 1913.43 1408.67 Q1911.37 1409.74 1908.87 1409.74 Q1903.68 1409.74 1900.65 1406.61 Q1897.64 1403.47 1897.64 1398.03 Q1897.64 1392.7 1900.79 1389.48 Q1903.94 1386.27 1909.17 1386.27 Q1915.17 1386.27 1918.31 1390.87 Q1921.49 1395.46 1921.49 1404.21 Q1921.49 1412.38 1917.6 1417.26 Q1913.73 1422.12 1907.18 1422.12 Q1905.42 1422.12 1903.61 1421.78 Q1901.81 1421.43 1899.86 1420.73 M1909.17 1406.08 Q1912.32 1406.08 1914.15 1403.93 Q1916 1401.78 1916 1398.03 Q1916 1394.3 1914.15 1392.15 Q1912.32 1389.97 1909.17 1389.97 Q1906.02 1389.97 1904.17 1392.15 Q1902.34 1394.3 1902.34 1398.03 Q1902.34 1401.78 1904.17 1403.93 Q1906.02 1406.08 1909.17 1406.08 Z" fill="#000000" fill-rule="evenodd" fill-opacity="1" /><path clip-path="url(#clip330)" d="M2052.18 1417.52 L2059.82 1417.52 L2059.82 1391.15 L2051.51 1392.82 L2051.51 1388.56 L2059.78 1386.89 L2064.45 1386.89 L2064.45 1417.52 L2072.09 1417.52 L2072.09 1421.45 L2052.18 1421.45 L2052.18 1417.52 Z" fill="#000000" fill-rule="evenodd" fill-opacity="1" /><path clip-path="url(#clip330)" d="M2091.54 1389.97 Q2087.93 1389.97 2086.1 1393.54 Q2084.29 1397.08 2084.29 1404.21 Q2084.29 1411.31 2086.1 1414.88 Q2087.93 1418.42 2091.54 1418.42 Q2095.17 1418.42 2096.98 1414.88 Q2098.81 1411.31 2098.81 1404.21 Q2098.81 1397.08 2096.98 1393.54 Q2095.17 1389.97 2091.54 1389.97 M2091.54 1386.27 Q2097.35 1386.27 2100.4 1390.87 Q2103.48 1395.46 2103.48 1404.21 Q2103.48 1412.93 2100.4 1417.54 Q2097.35 1422.12 2091.54 1422.12 Q2085.73 1422.12 2082.65 1417.54 Q2079.59 1412.93 2079.59 1404.21 Q2079.59 1395.46 2082.65 1390.87 Q2085.73 1386.27 2091.54 1386.27 Z" fill="#000000" fill-rule="evenodd" fill-opacity="1" /><path clip-path="url(#clip330)" d="M1110.1 1455.72 L1118.76 1455.72 L1139.83 1495.48 L1139.83 1455.72 L1146.07 1455.72 L1146.07 1503.24 L1137.41 1503.24 L1116.34 1463.49 L1116.34 1503.24 L1110.1 1503.24 L1110.1 1455.72 Z" fill="#000000" fill-rule="evenodd" fill-opacity="1" /><path clip-path="url(#clip330)" d="M1158.01 1489.18 L1158.01 1467.6 L1163.86 1467.6 L1163.86 1488.95 Q1163.86 1494.01 1165.83 1496.56 Q1167.81 1499.07 1171.76 1499.07 Q1176.5 1499.07 1179.23 1496.05 Q1182 1493.03 1182 1487.81 L1182 1467.6 L1187.86 1467.6 L1187.86 1503.24 L1182 1503.24 L1182 1497.77 Q1179.87 1501.02 1177.04 1502.61 Q1174.24 1504.17 1170.51 1504.17 Q1164.37 1504.17 1161.19 1500.35 Q1158.01 1496.53 1158.01 1489.18 M1172.74 1466.74 L1172.74 1466.74 Z" fill="#000000" fill-rule="evenodd" fill-opacity="1" /><path clip-path="url(#clip330)" d="M1227.68 1474.44 Q1229.87 1470.49 1232.93 1468.61 Q1235.99 1466.74 1240.12 1466.74 Q1245.69 1466.74 1248.72 1470.65 Q1251.74 1474.53 1251.74 1481.73 L1251.74 1503.24 L1245.85 1503.24 L1245.85 1481.92 Q1245.85 1476.79 1244.04 1474.31 Q1242.22 1471.83 1238.5 1471.83 Q1233.95 1471.83 1231.31 1474.85 Q1228.66 1477.88 1228.66 1483.1 L1228.66 1503.24 L1222.78 1503.24 L1222.78 1481.92 Q1222.78 1476.76 1220.96 1474.31 Q1219.15 1471.83 1215.36 1471.83 Q1210.87 1471.83 1208.23 1474.88 Q1205.59 1477.91 1205.59 1483.1 L1205.59 1503.24 L1199.7 1503.24 L1199.7 1467.6 L1205.59 1467.6 L1205.59 1473.13 Q1207.59 1469.86 1210.39 1468.3 Q1213.2 1466.74 1217.05 1466.74 Q1220.93 1466.74 1223.64 1468.71 Q1226.37 1470.68 1227.68 1474.44 Z" fill="#000000" fill-rule="evenodd" fill-opacity="1" /><path clip-path="url(#clip330)" d="M1289.01 1485.45 Q1289.01 1478.99 1286.34 1475.33 Q1283.7 1471.64 1279.05 1471.64 Q1274.4 1471.64 1271.73 1475.33 Q1269.09 1478.99 1269.09 1485.45 Q1269.09 1491.91 1271.73 1495.6 Q1274.4 1499.27 1279.05 1499.27 Q1283.7 1499.27 1286.34 1495.6 Q1289.01 1491.91 1289.01 1485.45 M1269.09 1473.01 Q1270.93 1469.82 1273.73 1468.3 Q1276.57 1466.74 1280.48 1466.74 Q1286.97 1466.74 1291.02 1471.89 Q1295.09 1477.05 1295.09 1485.45 Q1295.09 1493.85 1291.02 1499.01 Q1286.97 1504.17 1280.48 1504.17 Q1276.57 1504.17 1273.73 1502.64 Q1270.93 1501.08 1269.09 1497.9 L1269.09 1503.24 L1263.2 1503.24 L1263.2 1453.72 L1269.09 1453.72 L1269.09 1473.01 Z" fill="#000000" fill-rule="evenodd" fill-opacity="1" /><path clip-path="url(#clip330)" d="M1335.29 1483.96 L1335.29 1486.82 L1308.36 1486.82 Q1308.75 1492.87 1311.99 1496.05 Q1315.27 1499.2 1321.09 1499.2 Q1324.47 1499.2 1327.62 1498.37 Q1330.8 1497.55 1333.92 1495.89 L1333.92 1501.43 Q1330.77 1502.77 1327.46 1503.47 Q1324.15 1504.17 1320.74 1504.17 Q1312.21 1504.17 1307.22 1499.2 Q1302.25 1494.24 1302.25 1485.77 Q1302.25 1477.02 1306.96 1471.89 Q1311.71 1466.74 1319.73 1466.74 Q1326.92 1466.74 1331.09 1471.38 Q1335.29 1476 1335.29 1483.96 M1329.43 1482.24 Q1329.37 1477.43 1326.73 1474.57 Q1324.12 1471.7 1319.79 1471.7 Q1314.89 1471.7 1311.93 1474.47 Q1309 1477.24 1308.55 1482.27 L1329.43 1482.24 Z" fill="#000000" fill-rule="evenodd" fill-opacity="1" /><path clip-path="url(#clip330)" d="M1365.56 1473.07 Q1364.57 1472.5 1363.39 1472.24 Q1362.25 1471.96 1360.85 1471.96 Q1355.88 1471.96 1353.21 1475.2 Q1350.57 1478.42 1350.57 1484.47 L1350.57 1503.24 L1344.68 1503.24 L1344.68 1467.6 L1350.57 1467.6 L1350.57 1473.13 Q1352.41 1469.89 1355.37 1468.33 Q1358.33 1466.74 1362.57 1466.74 Q1363.17 1466.74 1363.9 1466.83 Q1364.64 1466.9 1365.53 1467.05 L1365.56 1473.07 Z" fill="#000000" fill-rule="evenodd" fill-opacity="1" /><polyline clip-path="url(#clip332)" style="stroke:#000000; stroke-linecap:butt; stroke-linejoin:round; stroke-width:2; stroke-opacity:0.1; fill:none" points="
  218.906,1322.67 2256.76,1322.67 
  "/>
<polyline clip-path="url(#clip332)" style="stroke:#000000; stroke-linecap:butt; stroke-linejoin:round; stroke-width:2; stroke-opacity:0.1; fill:none" points="
  218.906,1071.46 2256.76,1071.46 
  "/>
<polyline clip-path="url(#clip332)" style="stroke:#000000; stroke-linecap:butt; stroke-linejoin:round; stroke-width:2; stroke-opacity:0.1; fill:none" points="
  218.906,820.243 2256.76,820.243 
  "/>
<polyline clip-path="url(#clip332)" style="stroke:#000000; stroke-linecap:butt; stroke-linejoin:round; stroke-width:2; stroke-opacity:0.1; fill:none" points="
  218.906,569.029 2256.76,569.029 
  "/>
<polyline clip-path="url(#clip332)" style="stroke:#000000; stroke-linecap:butt; stroke-linejoin:round; stroke-width:2; stroke-opacity:0.1; fill:none" points="
  218.906,317.815 2256.76,317.815 
  "/>
<polyline clip-path="url(#clip332)" style="stroke:#000000; stroke-linecap:butt; stroke-linejoin:round; stroke-width:2; stroke-opacity:0.1; fill:none" points="
  218.906,66.6011 2256.76,66.6011 
  "/>
<polyline clip-path="url(#clip330)" style="stroke:#000000; stroke-linecap:butt; stroke-linejoin:round; stroke-width:4; stroke-opacity:1; fill:none" points="
  218.906,1359.82 218.906,47.2441 
  "/>
<polyline clip-path="url(#clip330)" style="stroke:#000000; stroke-linecap:butt; stroke-linejoin:round; stroke-width:4; stroke-opacity:1; fill:none" points="
  218.906,1322.67 237.804,1322.67 
  "/>
<polyline clip-path="url(#clip330)" style="stroke:#000000; stroke-linecap:butt; stroke-linejoin:round; stroke-width:4; stroke-opacity:1; fill:none" points="
  218.906,1071.46 237.804,1071.46 
  "/>
<polyline clip-path="url(#clip330)" style="stroke:#000000; stroke-linecap:butt; stroke-linejoin:round; stroke-width:4; stroke-opacity:1; fill:none" points="
  218.906,820.243 237.804,820.243 
  "/>
<polyline clip-path="url(#clip330)" style="stroke:#000000; stroke-linecap:butt; stroke-linejoin:round; stroke-width:4; stroke-opacity:1; fill:none" points="
  218.906,569.029 237.804,569.029 
  "/>
<polyline clip-path="url(#clip330)" style="stroke:#000000; stroke-linecap:butt; stroke-linejoin:round; stroke-width:4; stroke-opacity:1; fill:none" points="
  218.906,317.815 237.804,317.815 
  "/>
<polyline clip-path="url(#clip330)" style="stroke:#000000; stroke-linecap:butt; stroke-linejoin:round; stroke-width:4; stroke-opacity:1; fill:none" points="
  218.906,66.6011 237.804,66.6011 
  "/>
<path clip-path="url(#clip330)" d="M127.171 1308.47 Q123.56 1308.47 121.731 1312.03 Q119.925 1315.58 119.925 1322.71 Q119.925 1329.81 121.731 1333.38 Q123.56 1336.92 127.171 1336.92 Q130.805 1336.92 132.61 1333.38 Q134.439 1329.81 134.439 1322.71 Q134.439 1315.58 132.61 1312.03 Q130.805 1308.47 127.171 1308.47 M127.171 1304.77 Q132.981 1304.77 136.036 1309.37 Q139.115 1313.96 139.115 1322.71 Q139.115 1331.43 136.036 1336.04 Q132.981 1340.62 127.171 1340.62 Q121.36 1340.62 118.282 1336.04 Q115.226 1331.43 115.226 1322.71 Q115.226 1313.96 118.282 1309.37 Q121.36 1304.77 127.171 1304.77 Z" fill="#000000" fill-rule="evenodd" fill-opacity="1" /><path clip-path="url(#clip330)" d="M147.333 1334.07 L152.217 1334.07 L152.217 1339.95 L147.333 1339.95 L147.333 1334.07 Z" fill="#000000" fill-rule="evenodd" fill-opacity="1" /><path clip-path="url(#clip330)" d="M172.402 1308.47 Q168.791 1308.47 166.962 1312.03 Q165.157 1315.58 165.157 1322.71 Q165.157 1329.81 166.962 1333.38 Q168.791 1336.92 172.402 1336.92 Q176.036 1336.92 177.842 1333.38 Q179.67 1329.81 179.67 1322.71 Q179.67 1315.58 177.842 1312.03 Q176.036 1308.47 172.402 1308.47 M172.402 1304.77 Q178.212 1304.77 181.268 1309.37 Q184.346 1313.96 184.346 1322.71 Q184.346 1331.43 181.268 1336.04 Q178.212 1340.62 172.402 1340.62 Q166.592 1340.62 163.513 1336.04 Q160.458 1331.43 160.458 1322.71 Q160.458 1313.96 163.513 1309.37 Q166.592 1304.77 172.402 1304.77 Z" fill="#000000" fill-rule="evenodd" fill-opacity="1" /><path clip-path="url(#clip330)" d="M128.397 1057.26 Q124.786 1057.26 122.958 1060.82 Q121.152 1064.36 121.152 1071.49 Q121.152 1078.6 122.958 1082.16 Q124.786 1085.71 128.397 1085.71 Q132.032 1085.71 133.837 1082.16 Q135.666 1078.6 135.666 1071.49 Q135.666 1064.36 133.837 1060.82 Q132.032 1057.26 128.397 1057.26 M128.397 1053.55 Q134.208 1053.55 137.263 1058.16 Q140.342 1062.74 140.342 1071.49 Q140.342 1080.22 137.263 1084.83 Q134.208 1089.41 128.397 1089.41 Q122.587 1089.41 119.509 1084.83 Q116.453 1080.22 116.453 1071.49 Q116.453 1062.74 119.509 1058.16 Q122.587 1053.55 128.397 1053.55 Z" fill="#000000" fill-rule="evenodd" fill-opacity="1" /><path clip-path="url(#clip330)" d="M148.559 1082.86 L153.444 1082.86 L153.444 1088.74 L148.559 1088.74 L148.559 1082.86 Z" fill="#000000" fill-rule="evenodd" fill-opacity="1" /><path clip-path="url(#clip330)" d="M164.439 1084.8 L172.078 1084.8 L172.078 1058.44 L163.768 1060.1 L163.768 1055.84 L172.032 1054.18 L176.707 1054.18 L176.707 1084.8 L184.346 1084.8 L184.346 1088.74 L164.439 1088.74 L164.439 1084.8 Z" fill="#000000" fill-rule="evenodd" fill-opacity="1" /><path clip-path="url(#clip330)" d="M128.768 806.042 Q125.157 806.042 123.328 809.607 Q121.523 813.148 121.523 820.278 Q121.523 827.384 123.328 830.949 Q125.157 834.491 128.768 834.491 Q132.402 834.491 134.208 830.949 Q136.036 827.384 136.036 820.278 Q136.036 813.148 134.208 809.607 Q132.402 806.042 128.768 806.042 M128.768 802.338 Q134.578 802.338 137.634 806.945 Q140.712 811.528 140.712 820.278 Q140.712 829.005 137.634 833.611 Q134.578 838.195 128.768 838.195 Q122.958 838.195 119.879 833.611 Q116.823 829.005 116.823 820.278 Q116.823 811.528 119.879 806.945 Q122.958 802.338 128.768 802.338 Z" fill="#000000" fill-rule="evenodd" fill-opacity="1" /><path clip-path="url(#clip330)" d="M148.93 831.644 L153.814 831.644 L153.814 837.523 L148.93 837.523 L148.93 831.644 Z" fill="#000000" fill-rule="evenodd" fill-opacity="1" /><path clip-path="url(#clip330)" d="M168.027 833.588 L184.346 833.588 L184.346 837.523 L162.402 837.523 L162.402 833.588 Q165.064 830.834 169.647 826.204 Q174.254 821.551 175.434 820.209 Q177.68 817.685 178.559 815.949 Q179.462 814.19 179.462 812.5 Q179.462 809.746 177.518 808.01 Q175.596 806.273 172.494 806.273 Q170.295 806.273 167.842 807.037 Q165.411 807.801 162.633 809.352 L162.633 804.63 Q165.457 803.496 167.911 802.917 Q170.365 802.338 172.402 802.338 Q177.772 802.338 180.967 805.023 Q184.161 807.709 184.161 812.199 Q184.161 814.329 183.351 816.25 Q182.564 818.148 180.457 820.741 Q179.879 821.412 176.777 824.63 Q173.675 827.824 168.027 833.588 Z" fill="#000000" fill-rule="evenodd" fill-opacity="1" /><path clip-path="url(#clip330)" d="M127.819 554.828 Q124.208 554.828 122.379 558.393 Q120.573 561.934 120.573 569.064 Q120.573 576.17 122.379 579.735 Q124.208 583.277 127.819 583.277 Q131.453 583.277 133.259 579.735 Q135.087 576.17 135.087 569.064 Q135.087 561.934 133.259 558.393 Q131.453 554.828 127.819 554.828 M127.819 551.124 Q133.629 551.124 136.684 555.731 Q139.763 560.314 139.763 569.064 Q139.763 577.791 136.684 582.397 Q133.629 586.981 127.819 586.981 Q122.009 586.981 118.93 582.397 Q115.874 577.791 115.874 569.064 Q115.874 560.314 118.93 555.731 Q122.009 551.124 127.819 551.124 Z" fill="#000000" fill-rule="evenodd" fill-opacity="1" /><path clip-path="url(#clip330)" d="M147.981 580.43 L152.865 580.43 L152.865 586.309 L147.981 586.309 L147.981 580.43 Z" fill="#000000" fill-rule="evenodd" fill-opacity="1" /><path clip-path="url(#clip330)" d="M177.217 567.675 Q180.573 568.393 182.448 570.661 Q184.346 572.93 184.346 576.263 Q184.346 581.379 180.828 584.18 Q177.309 586.981 170.828 586.981 Q168.652 586.981 166.337 586.541 Q164.045 586.124 161.592 585.268 L161.592 580.754 Q163.536 581.888 165.851 582.467 Q168.166 583.045 170.689 583.045 Q175.087 583.045 177.379 581.309 Q179.694 579.573 179.694 576.263 Q179.694 573.207 177.541 571.495 Q175.411 569.758 171.592 569.758 L167.564 569.758 L167.564 565.916 L171.777 565.916 Q175.226 565.916 177.055 564.55 Q178.883 563.161 178.883 560.569 Q178.883 557.907 176.985 556.495 Q175.11 555.059 171.592 555.059 Q169.67 555.059 167.471 555.476 Q165.272 555.893 162.633 556.772 L162.633 552.606 Q165.295 551.865 167.61 551.495 Q169.948 551.124 172.008 551.124 Q177.332 551.124 180.434 553.555 Q183.536 555.962 183.536 560.083 Q183.536 562.953 181.893 564.944 Q180.249 566.911 177.217 567.675 Z" fill="#000000" fill-rule="evenodd" fill-opacity="1" /><path clip-path="url(#clip330)" d="M126.685 303.614 Q123.073 303.614 121.245 307.179 Q119.439 310.72 119.439 317.85 Q119.439 324.956 121.245 328.521 Q123.073 332.063 126.685 332.063 Q130.319 332.063 132.124 328.521 Q133.953 324.956 133.953 317.85 Q133.953 310.72 132.124 307.179 Q130.319 303.614 126.685 303.614 M126.685 299.91 Q132.495 299.91 135.55 304.517 Q138.629 309.1 138.629 317.85 Q138.629 326.577 135.55 331.183 Q132.495 335.766 126.685 335.766 Q120.874 335.766 117.796 331.183 Q114.74 326.577 114.74 317.85 Q114.74 309.1 117.796 304.517 Q120.874 299.91 126.685 299.91 Z" fill="#000000" fill-rule="evenodd" fill-opacity="1" /><path clip-path="url(#clip330)" d="M146.846 329.216 L151.731 329.216 L151.731 335.095 L146.846 335.095 L146.846 329.216 Z" fill="#000000" fill-rule="evenodd" fill-opacity="1" /><path clip-path="url(#clip330)" d="M174.763 304.609 L162.957 323.058 L174.763 323.058 L174.763 304.609 M173.536 300.535 L179.416 300.535 L179.416 323.058 L184.346 323.058 L184.346 326.947 L179.416 326.947 L179.416 335.095 L174.763 335.095 L174.763 326.947 L159.161 326.947 L159.161 322.433 L173.536 300.535 Z" fill="#000000" fill-rule="evenodd" fill-opacity="1" /><path clip-path="url(#clip330)" d="M128.166 52.3998 Q124.555 52.3998 122.726 55.9646 Q120.921 59.5062 120.921 66.6358 Q120.921 73.7423 122.726 77.3071 Q124.555 80.8487 128.166 80.8487 Q131.8 80.8487 133.606 77.3071 Q135.434 73.7423 135.434 66.6358 Q135.434 59.5062 133.606 55.9646 Q131.8 52.3998 128.166 52.3998 M128.166 48.6961 Q133.976 48.6961 137.032 53.3026 Q140.11 57.8859 140.11 66.6358 Q140.11 75.3626 137.032 79.9691 Q133.976 84.5524 128.166 84.5524 Q122.356 84.5524 119.277 79.9691 Q116.222 75.3626 116.222 66.6358 Q116.222 57.8859 119.277 53.3026 Q122.356 48.6961 128.166 48.6961 Z" fill="#000000" fill-rule="evenodd" fill-opacity="1" /><path clip-path="url(#clip330)" d="M148.328 78.0015 L153.212 78.0015 L153.212 83.8811 L148.328 83.8811 L148.328 78.0015 Z" fill="#000000" fill-rule="evenodd" fill-opacity="1" /><path clip-path="url(#clip330)" d="M163.444 49.3211 L181.8 49.3211 L181.8 53.2563 L167.726 53.2563 L167.726 61.7284 Q168.744 61.3812 169.763 61.2192 Q170.782 61.034 171.8 61.034 Q177.587 61.034 180.967 64.2053 Q184.346 67.3766 184.346 72.7932 Q184.346 78.3719 180.874 81.4737 Q177.402 84.5524 171.082 84.5524 Q168.907 84.5524 166.638 84.182 Q164.393 83.8117 161.985 83.0709 L161.985 78.3719 Q164.069 79.5061 166.291 80.0617 Q168.513 80.6172 170.99 80.6172 Q174.994 80.6172 177.332 78.5108 Q179.67 76.4043 179.67 72.7932 Q179.67 69.1821 177.332 67.0756 Q174.994 64.9692 170.99 64.9692 Q169.115 64.9692 167.24 65.3858 Q165.388 65.8025 163.444 66.6821 L163.444 49.3211 Z" fill="#000000" fill-rule="evenodd" fill-opacity="1" /><path clip-path="url(#clip330)" d="M23.6877 859.301 L41.5435 859.301 L41.5435 851.216 Q41.5435 846.729 39.22 844.278 Q36.8965 841.827 32.5997 841.827 Q28.3347 841.827 26.0112 844.278 Q23.6877 846.729 23.6877 851.216 L23.6877 859.301 M18.4042 865.73 L18.4042 851.216 Q18.4042 843.227 22.0326 839.153 Q25.6292 835.047 32.5997 835.047 Q39.6338 835.047 43.2304 839.153 Q46.827 843.227 46.827 851.216 L46.827 859.301 L65.9242 859.301 L65.9242 865.73 L18.4042 865.73 Z" fill="#000000" fill-rule="evenodd" fill-opacity="1" /><path clip-path="url(#clip330)" d="M35.7507 807.166 Q35.1778 808.152 34.9232 809.33 Q34.6367 810.476 34.6367 811.876 Q34.6367 816.842 37.8832 819.515 Q41.0979 822.157 47.1453 822.157 L65.9242 822.157 L65.9242 828.045 L30.2762 828.045 L30.2762 822.157 L35.8144 822.157 Q32.5679 820.311 31.0083 817.351 Q29.4168 814.391 29.4168 810.158 Q29.4168 809.553 29.5123 808.821 Q29.576 808.089 29.7351 807.198 L35.7507 807.166 Z" fill="#000000" fill-rule="evenodd" fill-opacity="1" /><path clip-path="url(#clip330)" d="M34.3821 788.641 Q34.3821 793.352 38.0742 796.089 Q41.7345 798.827 48.132 798.827 Q54.5295 798.827 58.2217 796.121 Q61.8819 793.384 61.8819 788.641 Q61.8819 783.963 58.1898 781.225 Q54.4977 778.488 48.132 778.488 Q41.7981 778.488 38.106 781.225 Q34.3821 783.963 34.3821 788.641 M29.4168 788.641 Q29.4168 781.003 34.3821 776.642 Q39.3473 772.282 48.132 772.282 Q56.8849 772.282 61.8819 776.642 Q66.8472 781.003 66.8472 788.641 Q66.8472 796.312 61.8819 800.673 Q56.8849 805.001 48.132 805.001 Q39.3473 805.001 34.3821 800.673 Q29.4168 796.312 29.4168 788.641 Z" fill="#000000" fill-rule="evenodd" fill-opacity="1" /><path clip-path="url(#clip330)" d="M60.577 756.908 L79.4831 756.908 L79.4831 762.797 L30.2762 762.797 L30.2762 756.908 L35.6871 756.908 Q32.5042 755.062 30.9764 752.261 Q29.4168 749.429 29.4168 745.514 Q29.4168 739.021 34.5731 734.979 Q39.7293 730.905 48.132 730.905 Q56.5347 730.905 61.691 734.979 Q66.8472 739.021 66.8472 745.514 Q66.8472 749.429 65.3194 752.261 Q63.7598 755.062 60.577 756.908 M48.132 736.984 Q41.6708 736.984 38.0105 739.657 Q34.3184 742.299 34.3184 746.946 Q34.3184 751.593 38.0105 754.267 Q41.6708 756.908 48.132 756.908 Q54.5932 756.908 58.2853 754.267 Q61.9456 751.593 61.9456 746.946 Q61.9456 742.299 58.2853 739.657 Q54.5932 736.984 48.132 736.984 Z" fill="#000000" fill-rule="evenodd" fill-opacity="1" /><path clip-path="url(#clip330)" d="M34.3821 707.383 Q34.3821 712.094 38.0742 714.831 Q41.7345 717.568 48.132 717.568 Q54.5295 717.568 58.2217 714.863 Q61.8819 712.126 61.8819 707.383 Q61.8819 702.704 58.1898 699.967 Q54.4977 697.23 48.132 697.23 Q41.7981 697.23 38.106 699.967 Q34.3821 702.704 34.3821 707.383 M29.4168 707.383 Q29.4168 699.744 34.3821 695.384 Q39.3473 691.023 48.132 691.023 Q56.8849 691.023 61.8819 695.384 Q66.8472 699.744 66.8472 707.383 Q66.8472 715.054 61.8819 719.414 Q56.8849 723.743 48.132 723.743 Q39.3473 723.743 34.3821 719.414 Q29.4168 715.054 29.4168 707.383 Z" fill="#000000" fill-rule="evenodd" fill-opacity="1" /><path clip-path="url(#clip330)" d="M35.7507 660.659 Q35.1778 661.646 34.9232 662.823 Q34.6367 663.969 34.6367 665.37 Q34.6367 670.335 37.8832 673.008 Q41.0979 675.65 47.1453 675.65 L65.9242 675.65 L65.9242 681.538 L30.2762 681.538 L30.2762 675.65 L35.8144 675.65 Q32.5679 673.804 31.0083 670.844 Q29.4168 667.884 29.4168 663.651 Q29.4168 663.046 29.5123 662.314 Q29.576 661.582 29.7351 660.691 L35.7507 660.659 Z" fill="#000000" fill-rule="evenodd" fill-opacity="1" /><path clip-path="url(#clip330)" d="M20.1547 648.723 L30.2762 648.723 L30.2762 636.66 L34.8277 636.66 L34.8277 648.723 L54.1794 648.723 Q58.5399 648.723 59.7813 647.546 Q61.0226 646.336 61.0226 642.676 L61.0226 636.66 L65.9242 636.66 L65.9242 642.676 Q65.9242 649.455 63.4097 652.033 Q60.8634 654.612 54.1794 654.612 L34.8277 654.612 L34.8277 658.908 L30.2762 658.908 L30.2762 654.612 L20.1547 654.612 L20.1547 648.723 Z" fill="#000000" fill-rule="evenodd" fill-opacity="1" /><path clip-path="url(#clip330)" d="M30.2762 628.958 L30.2762 623.101 L65.9242 623.101 L65.9242 628.958 L30.2762 628.958 M16.399 628.958 L16.399 623.101 L23.815 623.101 L23.815 628.958 L16.399 628.958 Z" fill="#000000" fill-rule="evenodd" fill-opacity="1" /><path clip-path="url(#clip330)" d="M34.3821 597.034 Q34.3821 601.744 38.0742 604.482 Q41.7345 607.219 48.132 607.219 Q54.5295 607.219 58.2217 604.513 Q61.8819 601.776 61.8819 597.034 Q61.8819 592.355 58.1898 589.618 Q54.4977 586.88 48.132 586.88 Q41.7981 586.88 38.106 589.618 Q34.3821 592.355 34.3821 597.034 M29.4168 597.034 Q29.4168 589.395 34.3821 585.034 Q39.3473 580.674 48.132 580.674 Q56.8849 580.674 61.8819 585.034 Q66.8472 589.395 66.8472 597.034 Q66.8472 604.704 61.8819 609.065 Q56.8849 613.394 48.132 613.394 Q39.3473 613.394 34.3821 609.065 Q29.4168 604.704 29.4168 597.034 Z" fill="#000000" fill-rule="evenodd" fill-opacity="1" /><path clip-path="url(#clip330)" d="M44.4081 541.334 L65.9242 541.334 L65.9242 547.19 L44.599 547.19 Q39.5383 547.19 37.0238 549.164 Q34.5094 551.137 34.5094 555.084 Q34.5094 559.826 37.5331 562.563 Q40.5568 565.301 45.7767 565.301 L65.9242 565.301 L65.9242 571.189 L30.2762 571.189 L30.2762 565.301 L35.8144 565.301 Q32.5997 563.2 31.0083 560.367 Q29.4168 557.503 29.4168 553.779 Q29.4168 547.636 33.2363 544.485 Q37.0238 541.334 44.4081 541.334 Z" fill="#000000" fill-rule="evenodd" fill-opacity="1" /><path clip-path="url(#clip332)" d="
M330.992 84.3925 L330.992 1322.67 L465.338 1322.67 L465.338 84.3925 L330.992 84.3925 L330.992 84.3925  Z
  " fill="#009af9" fill-rule="evenodd" fill-opacity="1"/>
<polyline clip-path="url(#clip332)" style="stroke:#000000; stroke-linecap:butt; stroke-linejoin:round; stroke-width:4; stroke-opacity:1; fill:none" points="
  330.992,84.3925 330.992,1322.67 465.338,1322.67 465.338,84.3925 330.992,84.3925 
  "/>
<path clip-path="url(#clip332)" d="
M498.925 667.949 L498.925 1322.67 L633.271 1322.67 L633.271 667.949 L498.925 667.949 L498.925 667.949  Z
  " fill="#e26f46" fill-rule="evenodd" fill-opacity="1"/>
<polyline clip-path="url(#clip332)" style="stroke:#000000; stroke-linecap:butt; stroke-linejoin:round; stroke-width:4; stroke-opacity:1; fill:none" points="
  498.925,667.949 498.925,1322.67 633.271,1322.67 633.271,667.949 498.925,667.949 
  "/>
<path clip-path="url(#clip332)" d="
M666.858 1009.54 L666.858 1322.67 L801.205 1322.67 L801.205 1009.54 L666.858 1009.54 L666.858 1009.54  Z
  " fill="#3da44d" fill-rule="evenodd" fill-opacity="1"/>
<polyline clip-path="url(#clip332)" style="stroke:#000000; stroke-linecap:butt; stroke-linejoin:round; stroke-width:4; stroke-opacity:1; fill:none" points="
  666.858,1009.54 666.858,1322.67 801.205,1322.67 801.205,1009.54 666.858,1009.54 
  "/>
<path clip-path="url(#clip332)" d="
M834.791 1162.55 L834.791 1322.67 L969.138 1322.67 L969.138 1162.55 L834.791 1162.55 L834.791 1162.55  Z
  " fill="#c271d2" fill-rule="evenodd" fill-opacity="1"/>
<polyline clip-path="url(#clip332)" style="stroke:#000000; stroke-linecap:butt; stroke-linejoin:round; stroke-width:4; stroke-opacity:1; fill:none" points="
  834.791,1162.55 834.791,1322.67 969.138,1322.67 969.138,1162.55 834.791,1162.55 
  "/>
<path clip-path="url(#clip332)" d="
M1002.72 1251.51 L1002.72 1322.67 L1137.07 1322.67 L1137.07 1251.51 L1002.72 1251.51 L1002.72 1251.51  Z
  " fill="#ac8d18" fill-rule="evenodd" fill-opacity="1"/>
<polyline clip-path="url(#clip332)" style="stroke:#000000; stroke-linecap:butt; stroke-linejoin:round; stroke-width:4; stroke-opacity:1; fill:none" points="
  1002.72,1251.51 1002.72,1322.67 1137.07,1322.67 1137.07,1251.51 1002.72,1251.51 
  "/>
<path clip-path="url(#clip332)" d="
M1170.66 1269.3 L1170.66 1322.67 L1305 1322.67 L1305 1269.3 L1170.66 1269.3 L1170.66 1269.3  Z
  " fill="#00a9ad" fill-rule="evenodd" fill-opacity="1"/>
<polyline clip-path="url(#clip332)" style="stroke:#000000; stroke-linecap:butt; stroke-linejoin:round; stroke-width:4; stroke-opacity:1; fill:none" points="
  1170.66,1269.3 1170.66,1322.67 1305,1322.67 1305,1269.3 1170.66,1269.3 
  "/>
<path clip-path="url(#clip332)" d="
M1338.59 1322.67 L1338.59 1322.67 L1472.94 1322.67 L1472.94 1322.67 L1338.59 1322.67 L1338.59 1322.67  Z
  " fill="#ed5d92" fill-rule="evenodd" fill-opacity="1"/>
<polyline clip-path="url(#clip332)" style="stroke:#000000; stroke-linecap:butt; stroke-linejoin:round; stroke-width:4; stroke-opacity:1; fill:none" points="
  1338.59,1322.67 1338.59,1322.67 1472.94,1322.67 1338.59,1322.67 
  "/>
<path clip-path="url(#clip332)" d="
M1506.52 1308.44 L1506.52 1322.67 L1640.87 1322.67 L1640.87 1308.44 L1506.52 1308.44 L1506.52 1308.44  Z
  " fill="#c68125" fill-rule="evenodd" fill-opacity="1"/>
<polyline clip-path="url(#clip332)" style="stroke:#000000; stroke-linecap:butt; stroke-linejoin:round; stroke-width:4; stroke-opacity:1; fill:none" points="
  1506.52,1308.44 1506.52,1322.67 1640.87,1322.67 1640.87,1308.44 1506.52,1308.44 
  "/>
<path clip-path="url(#clip332)" d="
M1674.46 1319.11 L1674.46 1322.67 L1808.8 1322.67 L1808.8 1319.11 L1674.46 1319.11 L1674.46 1319.11  Z
  " fill="#00a98d" fill-rule="evenodd" fill-opacity="1"/>
<polyline clip-path="url(#clip332)" style="stroke:#000000; stroke-linecap:butt; stroke-linejoin:round; stroke-width:4; stroke-opacity:1; fill:none" points="
  1674.46,1319.11 1674.46,1322.67 1808.8,1322.67 1808.8,1319.11 1674.46,1319.11 
  "/>
<path clip-path="url(#clip332)" d="
M1842.39 1322.67 L1842.39 1322.67 L1976.74 1322.67 L1976.74 1322.67 L1842.39 1322.67 L1842.39 1322.67  Z
  " fill="#8e971d" fill-rule="evenodd" fill-opacity="1"/>
<polyline clip-path="url(#clip332)" style="stroke:#000000; stroke-linecap:butt; stroke-linejoin:round; stroke-width:4; stroke-opacity:1; fill:none" points="
  1842.39,1322.67 1842.39,1322.67 1976.74,1322.67 1842.39,1322.67 
  "/>
<path clip-path="url(#clip332)" d="
M2010.32 1319.11 L2010.32 1322.67 L2144.67 1322.67 L2144.67 1319.11 L2010.32 1319.11 L2010.32 1319.11  Z
  " fill="#00a8cb" fill-rule="evenodd" fill-opacity="1"/>
<polyline clip-path="url(#clip332)" style="stroke:#000000; stroke-linecap:butt; stroke-linejoin:round; stroke-width:4; stroke-opacity:1; fill:none" points="
  2010.32,1319.11 2010.32,1322.67 2144.67,1322.67 2144.67,1319.11 2010.32,1319.11 
  "/>
<circle clip-path="url(#clip332)" style="fill:#009af9; stroke:none; fill-opacity:0" cx="398.165" cy="84.3925" r="2"/>
<circle clip-path="url(#clip332)" style="fill:#e26f46; stroke:none; fill-opacity:0" cx="566.098" cy="667.949" r="2"/>
<circle clip-path="url(#clip332)" style="fill:#3da44d; stroke:none; fill-opacity:0" cx="734.031" cy="1009.54" r="2"/>
<circle clip-path="url(#clip332)" style="fill:#c271d2; stroke:none; fill-opacity:0" cx="901.965" cy="1162.55" r="2"/>
<circle clip-path="url(#clip332)" style="fill:#ac8d18; stroke:none; fill-opacity:0" cx="1069.9" cy="1251.51" r="2"/>
<circle clip-path="url(#clip332)" style="fill:#00a9ad; stroke:none; fill-opacity:0" cx="1237.83" cy="1269.3" r="2"/>
<circle clip-path="url(#clip332)" style="fill:#ed5d92; stroke:none; fill-opacity:0" cx="1405.76" cy="1322.67" r="2"/>
<circle clip-path="url(#clip332)" style="fill:#c68125; stroke:none; fill-opacity:0" cx="1573.7" cy="1308.44" r="2"/>
<circle clip-path="url(#clip332)" style="fill:#00a98d; stroke:none; fill-opacity:0" cx="1741.63" cy="1319.11" r="2"/>
<circle clip-path="url(#clip332)" style="fill:#8e971d; stroke:none; fill-opacity:0" cx="1909.56" cy="1322.67" r="2"/>
<circle clip-path="url(#clip332)" style="fill:#00a8cb; stroke:none; fill-opacity:0" cx="2077.5" cy="1319.11" r="2"/>
</svg>
