<?xml version="1.0" encoding="utf-8"?>
<svg xmlns="http://www.w3.org/2000/svg" xmlns:xlink="http://www.w3.org/1999/xlink" width="576" height="384" viewBox="0 0 2304 1536">
<defs>
  <clipPath id="clip860">
    <rect x="0" y="0" width="2304" height="1536"/>
  </clipPath>
</defs>
<path clip-path="url(#clip860)" d="
M0 1536 L2304 1536 L2304 0 L0 0  Z
  " fill="#ffffff" fill-rule="evenodd" fill-opacity="1"/>
<defs>
  <clipPath id="clip861">
    <rect x="460" y="0" width="1614" height="1536"/>
  </clipPath>
</defs>
<path clip-path="url(#clip860)" d="
M200.916 1423.09 L1118.02 1423.09 L1118.02 123.472 L200.916 123.472  Z
  " fill="#ffffff" fill-rule="evenodd" fill-opacity="1"/>
<defs>
  <clipPath id="clip862">
    <rect x="200" y="123" width="918" height="1301"/>
  </clipPath>
</defs>
<polyline clip-path="url(#clip862)" style="stroke:#000000; stroke-width:2; stroke-opacity:0.1; fill:none" points="
  251.358,1423.09 251.358,123.472 
  "/>
<polyline clip-path="url(#clip862)" style="stroke:#000000; stroke-width:2; stroke-opacity:0.1; fill:none" points="
  376.93,1423.09 376.93,123.472 
  "/>
<polyline clip-path="url(#clip862)" style="stroke:#000000; stroke-width:2; stroke-opacity:0.1; fill:none" points="
  502.503,1423.09 502.503,123.472 
  "/>
<polyline clip-path="url(#clip862)" style="stroke:#000000; stroke-width:2; stroke-opacity:0.1; fill:none" points="
  628.075,1423.09 628.075,123.472 
  "/>
<polyline clip-path="url(#clip862)" style="stroke:#000000; stroke-width:2; stroke-opacity:0.1; fill:none" points="
  753.647,1423.09 753.647,123.472 
  "/>
<polyline clip-path="url(#clip862)" style="stroke:#000000; stroke-width:2; stroke-opacity:0.1; fill:none" points="
  879.219,1423.09 879.219,123.472 
  "/>
<polyline clip-path="url(#clip862)" style="stroke:#000000; stroke-width:2; stroke-opacity:0.1; fill:none" points="
  1004.79,1423.09 1004.79,123.472 
  "/>
<polyline clip-path="url(#clip862)" style="stroke:#000000; stroke-width:2; stroke-opacity:0.1; fill:none" points="
  200.916,1386.31 1118.02,1386.31 
  "/>
<polyline clip-path="url(#clip862)" style="stroke:#000000; stroke-width:2; stroke-opacity:0.1; fill:none" points="
  200.916,1122.67 1118.02,1122.67 
  "/>
<polyline clip-path="url(#clip862)" style="stroke:#000000; stroke-width:2; stroke-opacity:0.1; fill:none" points="
  200.916,859.026 1118.02,859.026 
  "/>
<polyline clip-path="url(#clip862)" style="stroke:#000000; stroke-width:2; stroke-opacity:0.1; fill:none" points="
  200.916,595.385 1118.02,595.385 
  "/>
<polyline clip-path="url(#clip862)" style="stroke:#000000; stroke-width:2; stroke-opacity:0.1; fill:none" points="
  200.916,331.745 1118.02,331.745 
  "/>
<polyline clip-path="url(#clip860)" style="stroke:#000000; stroke-width:4; stroke-opacity:1; fill:none" points="
  200.916,1423.09 1118.02,1423.09 
  "/>
<polyline clip-path="url(#clip860)" style="stroke:#000000; stroke-width:4; stroke-opacity:1; fill:none" points="
  200.916,1423.09 200.916,123.472 
  "/>
<polyline clip-path="url(#clip860)" style="stroke:#000000; stroke-width:4; stroke-opacity:1; fill:none" points="
  251.358,1423.09 251.358,1407.49 
  "/>
<polyline clip-path="url(#clip860)" style="stroke:#000000; stroke-width:4; stroke-opacity:1; fill:none" points="
  376.93,1423.09 376.93,1407.49 
  "/>
<polyline clip-path="url(#clip860)" style="stroke:#000000; stroke-width:4; stroke-opacity:1; fill:none" points="
  502.503,1423.09 502.503,1407.49 
  "/>
<polyline clip-path="url(#clip860)" style="stroke:#000000; stroke-width:4; stroke-opacity:1; fill:none" points="
  628.075,1423.09 628.075,1407.49 
  "/>
<polyline clip-path="url(#clip860)" style="stroke:#000000; stroke-width:4; stroke-opacity:1; fill:none" points="
  753.647,1423.09 753.647,1407.49 
  "/>
<polyline clip-path="url(#clip860)" style="stroke:#000000; stroke-width:4; stroke-opacity:1; fill:none" points="
  879.219,1423.09 879.219,1407.49 
  "/>
<polyline clip-path="url(#clip860)" style="stroke:#000000; stroke-width:4; stroke-opacity:1; fill:none" points="
  1004.79,1423.09 1004.79,1407.49 
  "/>
<polyline clip-path="url(#clip860)" style="stroke:#000000; stroke-width:4; stroke-opacity:1; fill:none" points="
  200.916,1386.31 211.921,1386.31 
  "/>
<polyline clip-path="url(#clip860)" style="stroke:#000000; stroke-width:4; stroke-opacity:1; fill:none" points="
  200.916,1122.67 211.921,1122.67 
  "/>
<polyline clip-path="url(#clip860)" style="stroke:#000000; stroke-width:4; stroke-opacity:1; fill:none" points="
  200.916,859.026 211.921,859.026 
  "/>
<polyline clip-path="url(#clip860)" style="stroke:#000000; stroke-width:4; stroke-opacity:1; fill:none" points="
  200.916,595.385 211.921,595.385 
  "/>
<polyline clip-path="url(#clip860)" style="stroke:#000000; stroke-width:4; stroke-opacity:1; fill:none" points="
  200.916,331.745 211.921,331.745 
  "/>
<path clip-path="url(#clip860)" d="M 0 0 M219.368 1444.6 Q215.756 1444.6 213.928 1448.16 Q212.122 1451.71 212.122 1458.83 Q212.122 1465.94 213.928 1469.51 Q215.756 1473.05 219.368 1473.05 Q223.002 1473.05 224.807 1469.51 Q226.636 1465.94 226.636 1458.83 Q226.636 1451.71 224.807 1448.16 Q223.002 1444.6 219.368 1444.6 M219.368 1440.89 Q225.178 1440.89 228.233 1445.5 Q231.312 1450.08 231.312 1458.83 Q231.312 1467.56 228.233 1472.17 Q225.178 1476.75 219.368 1476.75 Q213.557 1476.75 210.479 1472.17 Q207.423 1467.56 207.423 1458.83 Q207.423 1450.08 210.479 1445.5 Q213.557 1440.89 219.368 1440.89 Z" fill="#000000" fill-rule="evenodd" fill-opacity="1" /><path clip-path="url(#clip860)" d="M 0 0 M236.381 1470.2 L241.266 1470.2 L241.266 1476.08 L236.381 1476.08 L236.381 1470.2 Z" fill="#000000" fill-rule="evenodd" fill-opacity="1" /><path clip-path="url(#clip860)" d="M 0 0 M256.335 1444.6 Q252.724 1444.6 250.895 1448.16 Q249.09 1451.71 249.09 1458.83 Q249.09 1465.94 250.895 1469.51 Q252.724 1473.05 256.335 1473.05 Q259.969 1473.05 261.775 1469.51 Q263.603 1465.94 263.603 1458.83 Q263.603 1451.71 261.775 1448.16 Q259.969 1444.6 256.335 1444.6 M256.335 1440.89 Q262.145 1440.89 265.201 1445.5 Q268.279 1450.08 268.279 1458.83 Q268.279 1467.56 265.201 1472.17 Q262.145 1476.75 256.335 1476.75 Q250.525 1476.75 247.446 1472.17 Q244.391 1467.56 244.391 1458.83 Q244.391 1450.08 247.446 1445.5 Q250.525 1440.89 256.335 1440.89 Z" fill="#000000" fill-rule="evenodd" fill-opacity="1" /><path clip-path="url(#clip860)" d="M 0 0 M283.349 1444.6 Q279.738 1444.6 277.909 1448.16 Q276.103 1451.71 276.103 1458.83 Q276.103 1465.94 277.909 1469.51 Q279.738 1473.05 283.349 1473.05 Q286.983 1473.05 288.788 1469.51 Q290.617 1465.94 290.617 1458.83 Q290.617 1451.71 288.788 1448.16 Q286.983 1444.6 283.349 1444.6 M283.349 1440.89 Q289.159 1440.89 292.214 1445.5 Q295.293 1450.08 295.293 1458.83 Q295.293 1467.56 292.214 1472.17 Q289.159 1476.75 283.349 1476.75 Q277.539 1476.75 274.46 1472.17 Q271.404 1467.56 271.404 1458.83 Q271.404 1450.08 274.46 1445.5 Q277.539 1440.89 283.349 1440.89 Z" fill="#000000" fill-rule="evenodd" fill-opacity="1" /><path clip-path="url(#clip860)" d="M 0 0 M345.553 1444.6 Q341.942 1444.6 340.113 1448.16 Q338.308 1451.71 338.308 1458.83 Q338.308 1465.94 340.113 1469.51 Q341.942 1473.05 345.553 1473.05 Q349.187 1473.05 350.993 1469.51 Q352.822 1465.94 352.822 1458.83 Q352.822 1451.71 350.993 1448.16 Q349.187 1444.6 345.553 1444.6 M345.553 1440.89 Q351.363 1440.89 354.419 1445.5 Q357.498 1450.08 357.498 1458.83 Q357.498 1467.56 354.419 1472.17 Q351.363 1476.75 345.553 1476.75 Q339.743 1476.75 336.664 1472.17 Q333.609 1467.56 333.609 1458.83 Q333.609 1450.08 336.664 1445.5 Q339.743 1440.89 345.553 1440.89 Z" fill="#000000" fill-rule="evenodd" fill-opacity="1" /><path clip-path="url(#clip860)" d="M 0 0 M362.567 1470.2 L367.451 1470.2 L367.451 1476.08 L362.567 1476.08 L362.567 1470.2 Z" fill="#000000" fill-rule="evenodd" fill-opacity="1" /><path clip-path="url(#clip860)" d="M 0 0 M382.521 1444.6 Q378.909 1444.6 377.081 1448.16 Q375.275 1451.71 375.275 1458.83 Q375.275 1465.94 377.081 1469.51 Q378.909 1473.05 382.521 1473.05 Q386.155 1473.05 387.96 1469.51 Q389.789 1465.94 389.789 1458.83 Q389.789 1451.71 387.96 1448.16 Q386.155 1444.6 382.521 1444.6 M382.521 1440.89 Q388.331 1440.89 391.386 1445.5 Q394.465 1450.08 394.465 1458.83 Q394.465 1467.56 391.386 1472.17 Q388.331 1476.75 382.521 1476.75 Q376.71 1476.75 373.632 1472.17 Q370.576 1467.56 370.576 1458.83 Q370.576 1450.08 373.632 1445.5 Q376.71 1440.89 382.521 1440.89 Z" fill="#000000" fill-rule="evenodd" fill-opacity="1" /><path clip-path="url(#clip860)" d="M 0 0 M400.345 1472.14 L407.983 1472.14 L407.983 1445.78 L399.673 1447.45 L399.673 1443.19 L407.937 1441.52 L412.613 1441.52 L412.613 1472.14 L420.252 1472.14 L420.252 1476.08 L400.345 1476.08 L400.345 1472.14 Z" fill="#000000" fill-rule="evenodd" fill-opacity="1" /><path clip-path="url(#clip860)" d="M 0 0 M471.311 1444.6 Q467.699 1444.6 465.871 1448.16 Q464.065 1451.71 464.065 1458.83 Q464.065 1465.94 465.871 1469.51 Q467.699 1473.05 471.311 1473.05 Q474.945 1473.05 476.75 1469.51 Q478.579 1465.94 478.579 1458.83 Q478.579 1451.71 476.75 1448.16 Q474.945 1444.6 471.311 1444.6 M471.311 1440.89 Q477.121 1440.89 480.176 1445.5 Q483.255 1450.08 483.255 1458.83 Q483.255 1467.56 480.176 1472.17 Q477.121 1476.75 471.311 1476.75 Q465.5 1476.75 462.422 1472.17 Q459.366 1467.56 459.366 1458.83 Q459.366 1450.08 462.422 1445.5 Q465.5 1440.89 471.311 1440.89 Z" fill="#000000" fill-rule="evenodd" fill-opacity="1" /><path clip-path="url(#clip860)" d="M 0 0 M488.324 1470.2 L493.209 1470.2 L493.209 1476.08 L488.324 1476.08 L488.324 1470.2 Z" fill="#000000" fill-rule="evenodd" fill-opacity="1" /><path clip-path="url(#clip860)" d="M 0 0 M508.278 1444.6 Q504.667 1444.6 502.838 1448.16 Q501.033 1451.71 501.033 1458.83 Q501.033 1465.94 502.838 1469.51 Q504.667 1473.05 508.278 1473.05 Q511.912 1473.05 513.718 1469.51 Q515.546 1465.94 515.546 1458.83 Q515.546 1451.71 513.718 1448.16 Q511.912 1444.6 508.278 1444.6 M508.278 1440.89 Q514.088 1440.89 517.144 1445.5 Q520.222 1450.08 520.222 1458.83 Q520.222 1467.56 517.144 1472.17 Q514.088 1476.75 508.278 1476.75 Q502.468 1476.75 499.389 1472.17 Q496.334 1467.56 496.334 1458.83 Q496.334 1450.08 499.389 1445.5 Q502.468 1440.89 508.278 1440.89 Z" fill="#000000" fill-rule="evenodd" fill-opacity="1" /><path clip-path="url(#clip860)" d="M 0 0 M529.319 1472.14 L545.639 1472.14 L545.639 1476.08 L523.695 1476.08 L523.695 1472.14 Q526.357 1469.39 530.94 1464.76 Q535.546 1460.11 536.727 1458.77 Q538.972 1456.24 539.852 1454.51 Q540.755 1452.75 540.755 1451.06 Q540.755 1448.3 538.81 1446.57 Q536.889 1444.83 533.787 1444.83 Q531.588 1444.83 529.134 1445.59 Q526.704 1446.36 523.926 1447.91 L523.926 1443.19 Q526.75 1442.05 529.204 1441.47 Q531.657 1440.89 533.694 1440.89 Q539.065 1440.89 542.259 1443.58 Q545.454 1446.27 545.454 1450.76 Q545.454 1452.89 544.643 1454.81 Q543.856 1456.7 541.75 1459.3 Q541.171 1459.97 538.069 1463.19 Q534.968 1466.38 529.319 1472.14 Z" fill="#000000" fill-rule="evenodd" fill-opacity="1" /><path clip-path="url(#clip860)" d="M 0 0 M596.408 1444.6 Q592.797 1444.6 590.968 1448.16 Q589.163 1451.71 589.163 1458.83 Q589.163 1465.94 590.968 1469.51 Q592.797 1473.05 596.408 1473.05 Q600.042 1473.05 601.848 1469.51 Q603.677 1465.94 603.677 1458.83 Q603.677 1451.71 601.848 1448.16 Q600.042 1444.6 596.408 1444.6 M596.408 1440.89 Q602.218 1440.89 605.274 1445.5 Q608.353 1450.08 608.353 1458.83 Q608.353 1467.56 605.274 1472.17 Q602.218 1476.75 596.408 1476.75 Q590.598 1476.75 587.519 1472.17 Q584.464 1467.56 584.464 1458.83 Q584.464 1450.08 587.519 1445.5 Q590.598 1440.89 596.408 1440.89 Z" fill="#000000" fill-rule="evenodd" fill-opacity="1" /><path clip-path="url(#clip860)" d="M 0 0 M613.422 1470.2 L618.306 1470.2 L618.306 1476.08 L613.422 1476.08 L613.422 1470.2 Z" fill="#000000" fill-rule="evenodd" fill-opacity="1" /><path clip-path="url(#clip860)" d="M 0 0 M633.376 1444.6 Q629.765 1444.6 627.936 1448.16 Q626.13 1451.71 626.13 1458.83 Q626.13 1465.94 627.936 1469.51 Q629.765 1473.05 633.376 1473.05 Q637.01 1473.05 638.815 1469.51 Q640.644 1465.94 640.644 1458.83 Q640.644 1451.71 638.815 1448.16 Q637.01 1444.6 633.376 1444.6 M633.376 1440.89 Q639.186 1440.89 642.241 1445.5 Q645.32 1450.08 645.32 1458.83 Q645.32 1467.56 642.241 1472.17 Q639.186 1476.75 633.376 1476.75 Q627.565 1476.75 624.487 1472.17 Q621.431 1467.56 621.431 1458.83 Q621.431 1450.08 624.487 1445.5 Q627.565 1440.89 633.376 1440.89 Z" fill="#000000" fill-rule="evenodd" fill-opacity="1" /><path clip-path="url(#clip860)" d="M 0 0 M664.556 1457.45 Q667.912 1458.16 669.787 1460.43 Q671.686 1462.7 671.686 1466.03 Q671.686 1471.15 668.167 1473.95 Q664.649 1476.75 658.167 1476.75 Q655.991 1476.75 653.676 1476.31 Q651.385 1475.89 648.931 1475.04 L648.931 1470.52 Q650.876 1471.66 653.19 1472.24 Q655.505 1472.82 658.028 1472.82 Q662.426 1472.82 664.718 1471.08 Q667.033 1469.34 667.033 1466.03 Q667.033 1462.98 664.88 1461.27 Q662.75 1459.53 658.931 1459.53 L654.903 1459.53 L654.903 1455.69 L659.116 1455.69 Q662.565 1455.69 664.394 1454.32 Q666.223 1452.93 666.223 1450.34 Q666.223 1447.68 664.325 1446.27 Q662.45 1444.83 658.931 1444.83 Q657.01 1444.83 654.811 1445.25 Q652.612 1445.66 649.973 1446.54 L649.973 1442.38 Q652.635 1441.64 654.95 1441.27 Q657.288 1440.89 659.348 1440.89 Q664.672 1440.89 667.774 1443.33 Q670.875 1445.73 670.875 1449.85 Q670.875 1452.72 669.232 1454.71 Q667.588 1456.68 664.556 1457.45 Z" fill="#000000" fill-rule="evenodd" fill-opacity="1" /><path clip-path="url(#clip860)" d="M 0 0 M721.413 1444.6 Q717.802 1444.6 715.973 1448.16 Q714.168 1451.71 714.168 1458.83 Q714.168 1465.94 715.973 1469.51 Q717.802 1473.05 721.413 1473.05 Q725.048 1473.05 726.853 1469.51 Q728.682 1465.94 728.682 1458.83 Q728.682 1451.71 726.853 1448.16 Q725.048 1444.6 721.413 1444.6 M721.413 1440.89 Q727.223 1440.89 730.279 1445.5 Q733.358 1450.08 733.358 1458.83 Q733.358 1467.56 730.279 1472.17 Q727.223 1476.75 721.413 1476.75 Q715.603 1476.75 712.524 1472.17 Q709.469 1467.56 709.469 1458.83 Q709.469 1450.08 712.524 1445.5 Q715.603 1440.89 721.413 1440.89 Z" fill="#000000" fill-rule="evenodd" fill-opacity="1" /><path clip-path="url(#clip860)" d="M 0 0 M738.427 1470.2 L743.311 1470.2 L743.311 1476.08 L738.427 1476.08 L738.427 1470.2 Z" fill="#000000" fill-rule="evenodd" fill-opacity="1" /><path clip-path="url(#clip860)" d="M 0 0 M758.381 1444.6 Q754.77 1444.6 752.941 1448.16 Q751.135 1451.71 751.135 1458.83 Q751.135 1465.94 752.941 1469.51 Q754.77 1473.05 758.381 1473.05 Q762.015 1473.05 763.82 1469.51 Q765.649 1465.94 765.649 1458.83 Q765.649 1451.71 763.82 1448.16 Q762.015 1444.6 758.381 1444.6 M758.381 1440.89 Q764.191 1440.89 767.246 1445.5 Q770.325 1450.08 770.325 1458.83 Q770.325 1467.56 767.246 1472.17 Q764.191 1476.75 758.381 1476.75 Q752.571 1476.75 749.492 1472.17 Q746.436 1467.56 746.436 1458.83 Q746.436 1450.08 749.492 1445.5 Q752.571 1440.89 758.381 1440.89 Z" fill="#000000" fill-rule="evenodd" fill-opacity="1" /><path clip-path="url(#clip860)" d="M 0 0 M788.242 1445.59 L776.436 1464.04 L788.242 1464.04 L788.242 1445.59 M787.015 1441.52 L792.894 1441.52 L792.894 1464.04 L797.825 1464.04 L797.825 1467.93 L792.894 1467.93 L792.894 1476.08 L788.242 1476.08 L788.242 1467.93 L772.64 1467.93 L772.64 1463.42 L787.015 1441.52 Z" fill="#000000" fill-rule="evenodd" fill-opacity="1" /><path clip-path="url(#clip860)" d="M 0 0 M847.726 1444.6 Q844.115 1444.6 842.286 1448.16 Q840.481 1451.71 840.481 1458.83 Q840.481 1465.94 842.286 1469.51 Q844.115 1473.05 847.726 1473.05 Q851.36 1473.05 853.166 1469.51 Q854.995 1465.94 854.995 1458.83 Q854.995 1451.71 853.166 1448.16 Q851.36 1444.6 847.726 1444.6 M847.726 1440.89 Q853.536 1440.89 856.592 1445.5 Q859.671 1450.08 859.671 1458.83 Q859.671 1467.56 856.592 1472.17 Q853.536 1476.75 847.726 1476.75 Q841.916 1476.75 838.837 1472.17 Q835.782 1467.56 835.782 1458.83 Q835.782 1450.08 838.837 1445.5 Q841.916 1440.89 847.726 1440.89 Z" fill="#000000" fill-rule="evenodd" fill-opacity="1" /><path clip-path="url(#clip860)" d="M 0 0 M864.74 1470.2 L869.624 1470.2 L869.624 1476.08 L864.74 1476.08 L864.74 1470.2 Z" fill="#000000" fill-rule="evenodd" fill-opacity="1" /><path clip-path="url(#clip860)" d="M 0 0 M884.694 1444.6 Q881.083 1444.6 879.254 1448.16 Q877.448 1451.71 877.448 1458.83 Q877.448 1465.94 879.254 1469.51 Q881.083 1473.05 884.694 1473.05 Q888.328 1473.05 890.133 1469.51 Q891.962 1465.94 891.962 1458.83 Q891.962 1451.71 890.133 1448.16 Q888.328 1444.6 884.694 1444.6 M884.694 1440.89 Q890.504 1440.89 893.559 1445.5 Q896.638 1450.08 896.638 1458.83 Q896.638 1467.56 893.559 1472.17 Q890.504 1476.75 884.694 1476.75 Q878.883 1476.75 875.805 1472.17 Q872.749 1467.56 872.749 1458.83 Q872.749 1450.08 875.805 1445.5 Q878.883 1440.89 884.694 1440.89 Z" fill="#000000" fill-rule="evenodd" fill-opacity="1" /><path clip-path="url(#clip860)" d="M 0 0 M901.754 1441.52 L920.11 1441.52 L920.11 1445.46 L906.036 1445.46 L906.036 1453.93 Q907.055 1453.58 908.073 1453.42 Q909.092 1453.23 910.11 1453.23 Q915.897 1453.23 919.277 1456.4 Q922.656 1459.58 922.656 1464.99 Q922.656 1470.57 919.184 1473.67 Q915.712 1476.75 909.393 1476.75 Q907.217 1476.75 904.948 1476.38 Q902.703 1476.01 900.295 1475.27 L900.295 1470.57 Q902.379 1471.7 904.601 1472.26 Q906.823 1472.82 909.3 1472.82 Q913.305 1472.82 915.643 1470.71 Q917.98 1468.6 917.98 1464.99 Q917.98 1461.38 915.643 1459.27 Q913.305 1457.17 909.3 1457.17 Q907.425 1457.17 905.55 1457.58 Q903.698 1458 901.754 1458.88 L901.754 1441.52 Z" fill="#000000" fill-rule="evenodd" fill-opacity="1" /><path clip-path="url(#clip860)" d="M 0 0 M972.72 1444.6 Q969.109 1444.6 967.28 1448.16 Q965.474 1451.71 965.474 1458.83 Q965.474 1465.94 967.28 1469.51 Q969.109 1473.05 972.72 1473.05 Q976.354 1473.05 978.159 1469.51 Q979.988 1465.94 979.988 1458.83 Q979.988 1451.71 978.159 1448.16 Q976.354 1444.6 972.72 1444.6 M972.72 1440.89 Q978.53 1440.89 981.585 1445.5 Q984.664 1450.08 984.664 1458.83 Q984.664 1467.56 981.585 1472.17 Q978.53 1476.75 972.72 1476.75 Q966.91 1476.75 963.831 1472.17 Q960.775 1467.56 960.775 1458.83 Q960.775 1450.08 963.831 1445.5 Q966.91 1440.89 972.72 1440.89 Z" fill="#000000" fill-rule="evenodd" fill-opacity="1" /><path clip-path="url(#clip860)" d="M 0 0 M989.733 1470.2 L994.618 1470.2 L994.618 1476.08 L989.733 1476.08 L989.733 1470.2 Z" fill="#000000" fill-rule="evenodd" fill-opacity="1" /><path clip-path="url(#clip860)" d="M 0 0 M1009.69 1444.6 Q1006.08 1444.6 1004.25 1448.16 Q1002.44 1451.71 1002.44 1458.83 Q1002.44 1465.94 1004.25 1469.51 Q1006.08 1473.05 1009.69 1473.05 Q1013.32 1473.05 1015.13 1469.51 Q1016.96 1465.94 1016.96 1458.83 Q1016.96 1451.71 1015.13 1448.16 Q1013.32 1444.6 1009.69 1444.6 M1009.69 1440.89 Q1015.5 1440.89 1018.55 1445.5 Q1021.63 1450.08 1021.63 1458.83 Q1021.63 1467.56 1018.55 1472.17 Q1015.5 1476.75 1009.69 1476.75 Q1003.88 1476.75 1000.8 1472.17 Q997.743 1467.56 997.743 1458.83 Q997.743 1450.08 1000.8 1445.5 Q1003.88 1440.89 1009.69 1440.89 Z" fill="#000000" fill-rule="evenodd" fill-opacity="1" /><path clip-path="url(#clip860)" d="M 0 0 M1037.28 1456.94 Q1034.13 1456.94 1032.28 1459.09 Q1030.45 1461.24 1030.45 1464.99 Q1030.45 1468.72 1032.28 1470.89 Q1034.13 1473.05 1037.28 1473.05 Q1040.43 1473.05 1042.26 1470.89 Q1044.11 1468.72 1044.11 1464.99 Q1044.11 1461.24 1042.26 1459.09 Q1040.43 1456.94 1037.28 1456.94 M1046.56 1442.28 L1046.56 1446.54 Q1044.8 1445.71 1043 1445.27 Q1041.21 1444.83 1039.46 1444.83 Q1034.83 1444.83 1032.37 1447.96 Q1029.94 1451.08 1029.59 1457.4 Q1030.96 1455.39 1033.02 1454.32 Q1035.08 1453.23 1037.56 1453.23 Q1042.77 1453.23 1045.77 1456.4 Q1048.81 1459.55 1048.81 1464.99 Q1048.81 1470.32 1045.66 1473.53 Q1042.51 1476.75 1037.28 1476.75 Q1031.28 1476.75 1028.11 1472.17 Q1024.94 1467.56 1024.94 1458.83 Q1024.94 1450.64 1028.83 1445.78 Q1032.72 1440.89 1039.27 1440.89 Q1041.03 1440.89 1042.81 1441.24 Q1044.62 1441.59 1046.56 1442.28 Z" fill="#000000" fill-rule="evenodd" fill-opacity="1" /><path clip-path="url(#clip860)" d="M 0 0 M74.9365 1372.1 Q71.3254 1372.1 69.4967 1375.67 Q67.6912 1379.21 67.6912 1386.34 Q67.6912 1393.45 69.4967 1397.01 Q71.3254 1400.55 74.9365 1400.55 Q78.5707 1400.55 80.3763 1397.01 Q82.205 1393.45 82.205 1386.34 Q82.205 1379.21 80.3763 1375.67 Q78.5707 1372.1 74.9365 1372.1 M74.9365 1368.4 Q80.7467 1368.4 83.8022 1373.01 Q86.8809 1377.59 86.8809 1386.34 Q86.8809 1395.07 83.8022 1399.67 Q80.7467 1404.26 74.9365 1404.26 Q69.1264 1404.26 66.0477 1399.67 Q62.9921 1395.07 62.9921 1386.34 Q62.9921 1377.59 66.0477 1373.01 Q69.1264 1368.4 74.9365 1368.4 Z" fill="#000000" fill-rule="evenodd" fill-opacity="1" /><path clip-path="url(#clip860)" d="M 0 0 M91.9503 1397.71 L96.8345 1397.71 L96.8345 1403.59 L91.9503 1403.59 L91.9503 1397.71 Z" fill="#000000" fill-rule="evenodd" fill-opacity="1" /><path clip-path="url(#clip860)" d="M 0 0 M111.904 1372.1 Q108.293 1372.1 106.464 1375.67 Q104.659 1379.21 104.659 1386.34 Q104.659 1393.45 106.464 1397.01 Q108.293 1400.55 111.904 1400.55 Q115.538 1400.55 117.344 1397.01 Q119.172 1393.45 119.172 1386.34 Q119.172 1379.21 117.344 1375.67 Q115.538 1372.1 111.904 1372.1 M111.904 1368.4 Q117.714 1368.4 120.77 1373.01 Q123.848 1377.59 123.848 1386.34 Q123.848 1395.07 120.77 1399.67 Q117.714 1404.26 111.904 1404.26 Q106.094 1404.26 103.015 1399.67 Q99.9595 1395.07 99.9595 1386.34 Q99.9595 1377.59 103.015 1373.01 Q106.094 1368.4 111.904 1368.4 Z" fill="#000000" fill-rule="evenodd" fill-opacity="1" /><path clip-path="url(#clip860)" d="M 0 0 M138.918 1372.1 Q135.307 1372.1 133.478 1375.67 Q131.672 1379.21 131.672 1386.34 Q131.672 1393.45 133.478 1397.01 Q135.307 1400.55 138.918 1400.55 Q142.552 1400.55 144.357 1397.01 Q146.186 1393.45 146.186 1386.34 Q146.186 1379.21 144.357 1375.67 Q142.552 1372.1 138.918 1372.1 M138.918 1368.4 Q144.728 1368.4 147.783 1373.01 Q150.862 1377.59 150.862 1386.34 Q150.862 1395.07 147.783 1399.67 Q144.728 1404.26 138.918 1404.26 Q133.107 1404.26 130.029 1399.67 Q126.973 1395.07 126.973 1386.34 Q126.973 1377.59 130.029 1373.01 Q133.107 1368.4 138.918 1368.4 Z" fill="#000000" fill-rule="evenodd" fill-opacity="1" /><path clip-path="url(#clip860)" d="M 0 0 M165.931 1372.1 Q162.32 1372.1 160.492 1375.67 Q158.686 1379.21 158.686 1386.34 Q158.686 1393.45 160.492 1397.01 Q162.32 1400.55 165.931 1400.55 Q169.566 1400.55 171.371 1397.01 Q173.2 1393.45 173.2 1386.34 Q173.2 1379.21 171.371 1375.67 Q169.566 1372.1 165.931 1372.1 M165.931 1368.4 Q171.742 1368.4 174.797 1373.01 Q177.876 1377.59 177.876 1386.34 Q177.876 1395.07 174.797 1399.67 Q171.742 1404.26 165.931 1404.26 Q160.121 1404.26 157.043 1399.67 Q153.987 1395.07 153.987 1386.34 Q153.987 1377.59 157.043 1373.01 Q160.121 1368.4 165.931 1368.4 Z" fill="#000000" fill-rule="evenodd" fill-opacity="1" /><path clip-path="url(#clip860)" d="M 0 0 M77.5291 1108.46 Q73.918 1108.46 72.0893 1112.03 Q70.2838 1115.57 70.2838 1122.7 Q70.2838 1129.81 72.0893 1133.37 Q73.918 1136.91 77.5291 1136.91 Q81.1633 1136.91 82.9689 1133.37 Q84.7976 1129.81 84.7976 1122.7 Q84.7976 1115.57 82.9689 1112.03 Q81.1633 1108.46 77.5291 1108.46 M77.5291 1104.76 Q83.3392 1104.76 86.3948 1109.37 Q89.4735 1113.95 89.4735 1122.7 Q89.4735 1131.43 86.3948 1136.03 Q83.3392 1140.62 77.5291 1140.62 Q71.7189 1140.62 68.6402 1136.03 Q65.5847 1131.43 65.5847 1122.7 Q65.5847 1113.95 68.6402 1109.37 Q71.7189 1104.76 77.5291 1104.76 Z" fill="#000000" fill-rule="evenodd" fill-opacity="1" /><path clip-path="url(#clip860)" d="M 0 0 M94.5429 1134.07 L99.4271 1134.07 L99.4271 1139.95 L94.5429 1139.95 L94.5429 1134.07 Z" fill="#000000" fill-rule="evenodd" fill-opacity="1" /><path clip-path="url(#clip860)" d="M 0 0 M114.496 1108.46 Q110.885 1108.46 109.057 1112.03 Q107.251 1115.57 107.251 1122.7 Q107.251 1129.81 109.057 1133.37 Q110.885 1136.91 114.496 1136.91 Q118.131 1136.91 119.936 1133.37 Q121.765 1129.81 121.765 1122.7 Q121.765 1115.57 119.936 1112.03 Q118.131 1108.46 114.496 1108.46 M114.496 1104.76 Q120.307 1104.76 123.362 1109.37 Q126.441 1113.95 126.441 1122.7 Q126.441 1131.43 123.362 1136.03 Q120.307 1140.62 114.496 1140.62 Q108.686 1140.62 105.608 1136.03 Q102.552 1131.43 102.552 1122.7 Q102.552 1113.95 105.608 1109.37 Q108.686 1104.76 114.496 1104.76 Z" fill="#000000" fill-rule="evenodd" fill-opacity="1" /><path clip-path="url(#clip860)" d="M 0 0 M135.538 1136.01 L151.857 1136.01 L151.857 1139.95 L129.913 1139.95 L129.913 1136.01 Q132.575 1133.26 137.158 1128.63 Q141.765 1123.97 142.945 1122.63 Q145.191 1120.11 146.07 1118.37 Q146.973 1116.61 146.973 1114.92 Q146.973 1112.17 145.029 1110.43 Q143.107 1108.7 140.006 1108.7 Q137.807 1108.7 135.353 1109.46 Q132.922 1110.22 130.145 1111.77 L130.145 1107.05 Q132.969 1105.92 135.422 1105.34 Q137.876 1104.76 139.913 1104.76 Q145.283 1104.76 148.478 1107.45 Q151.672 1110.13 151.672 1114.62 Q151.672 1116.75 150.862 1118.67 Q150.075 1120.57 147.969 1123.16 Q147.39 1123.83 144.288 1127.05 Q141.186 1130.25 135.538 1136.01 Z" fill="#000000" fill-rule="evenodd" fill-opacity="1" /><path clip-path="url(#clip860)" d="M 0 0 M156.973 1105.39 L175.329 1105.39 L175.329 1109.32 L161.255 1109.32 L161.255 1117.79 Q162.274 1117.45 163.293 1117.28 Q164.311 1117.1 165.33 1117.1 Q171.117 1117.1 174.496 1120.27 Q177.876 1123.44 177.876 1128.86 Q177.876 1134.44 174.404 1137.54 Q170.931 1140.62 164.612 1140.62 Q162.436 1140.62 160.168 1140.25 Q157.922 1139.88 155.515 1139.14 L155.515 1134.44 Q157.598 1135.57 159.82 1136.13 Q162.043 1136.68 164.519 1136.68 Q168.524 1136.68 170.862 1134.58 Q173.2 1132.47 173.2 1128.86 Q173.2 1125.25 170.862 1123.14 Q168.524 1121.03 164.519 1121.03 Q162.644 1121.03 160.769 1121.45 Q158.918 1121.87 156.973 1122.75 L156.973 1105.39 Z" fill="#000000" fill-rule="evenodd" fill-opacity="1" /><path clip-path="url(#clip860)" d="M 0 0 M75.9319 844.824 Q72.3208 844.824 70.4921 848.389 Q68.6865 851.931 68.6865 859.06 Q68.6865 866.167 70.4921 869.732 Q72.3208 873.273 75.9319 873.273 Q79.5661 873.273 81.3717 869.732 Q83.2004 866.167 83.2004 859.06 Q83.2004 851.931 81.3717 848.389 Q79.5661 844.824 75.9319 844.824 M75.9319 841.121 Q81.742 841.121 84.7976 845.727 Q87.8763 850.31 87.8763 859.06 Q87.8763 867.787 84.7976 872.394 Q81.742 876.977 75.9319 876.977 Q70.1217 876.977 67.043 872.394 Q63.9875 867.787 63.9875 859.06 Q63.9875 850.31 67.043 845.727 Q70.1217 841.121 75.9319 841.121 Z" fill="#000000" fill-rule="evenodd" fill-opacity="1" /><path clip-path="url(#clip860)" d="M 0 0 M92.9457 870.426 L97.8299 870.426 L97.8299 876.306 L92.9457 876.306 L92.9457 870.426 Z" fill="#000000" fill-rule="evenodd" fill-opacity="1" /><path clip-path="url(#clip860)" d="M 0 0 M112.899 844.824 Q109.288 844.824 107.459 848.389 Q105.654 851.931 105.654 859.06 Q105.654 866.167 107.459 869.732 Q109.288 873.273 112.899 873.273 Q116.534 873.273 118.339 869.732 Q120.168 866.167 120.168 859.06 Q120.168 851.931 118.339 848.389 Q116.534 844.824 112.899 844.824 M112.899 841.121 Q118.709 841.121 121.765 845.727 Q124.844 850.31 124.844 859.06 Q124.844 867.787 121.765 872.394 Q118.709 876.977 112.899 876.977 Q107.089 876.977 104.01 872.394 Q100.955 867.787 100.955 859.06 Q100.955 850.31 104.01 845.727 Q107.089 841.121 112.899 841.121 Z" fill="#000000" fill-rule="evenodd" fill-opacity="1" /><path clip-path="url(#clip860)" d="M 0 0 M129.959 841.746 L148.316 841.746 L148.316 845.681 L134.242 845.681 L134.242 854.153 Q135.26 853.806 136.279 853.644 Q137.297 853.459 138.316 853.459 Q144.103 853.459 147.482 856.63 Q150.862 859.801 150.862 865.218 Q150.862 870.796 147.39 873.898 Q143.918 876.977 137.598 876.977 Q135.422 876.977 133.154 876.607 Q130.908 876.236 128.501 875.496 L128.501 870.796 Q130.584 871.931 132.807 872.486 Q135.029 873.042 137.506 873.042 Q141.51 873.042 143.848 870.935 Q146.186 868.829 146.186 865.218 Q146.186 861.607 143.848 859.5 Q141.51 857.394 137.506 857.394 Q135.631 857.394 133.756 857.81 Q131.904 858.227 129.959 859.107 L129.959 841.746 Z" fill="#000000" fill-rule="evenodd" fill-opacity="1" /><path clip-path="url(#clip860)" d="M 0 0 M165.931 844.824 Q162.32 844.824 160.492 848.389 Q158.686 851.931 158.686 859.06 Q158.686 866.167 160.492 869.732 Q162.32 873.273 165.931 873.273 Q169.566 873.273 171.371 869.732 Q173.2 866.167 173.2 859.06 Q173.2 851.931 171.371 848.389 Q169.566 844.824 165.931 844.824 M165.931 841.121 Q171.742 841.121 174.797 845.727 Q177.876 850.31 177.876 859.06 Q177.876 867.787 174.797 872.394 Q171.742 876.977 165.931 876.977 Q160.121 876.977 157.043 872.394 Q153.987 867.787 153.987 859.06 Q153.987 850.31 157.043 845.727 Q160.121 841.121 165.931 841.121 Z" fill="#000000" fill-rule="evenodd" fill-opacity="1" /><path clip-path="url(#clip860)" d="M 0 0 M76.8346 581.184 Q73.2236 581.184 71.3949 584.749 Q69.5893 588.291 69.5893 595.42 Q69.5893 602.527 71.3949 606.091 Q73.2236 609.633 76.8346 609.633 Q80.4689 609.633 82.2744 606.091 Q84.1031 602.527 84.1031 595.42 Q84.1031 588.291 82.2744 584.749 Q80.4689 581.184 76.8346 581.184 M76.8346 577.48 Q82.6448 577.48 85.7003 582.087 Q88.779 586.67 88.779 595.42 Q88.779 604.147 85.7003 608.753 Q82.6448 613.337 76.8346 613.337 Q71.0245 613.337 67.9458 608.753 Q64.8903 604.147 64.8903 595.42 Q64.8903 586.67 67.9458 582.087 Q71.0245 577.48 76.8346 577.48 Z" fill="#000000" fill-rule="evenodd" fill-opacity="1" /><path clip-path="url(#clip860)" d="M 0 0 M93.8484 606.786 L98.7327 606.786 L98.7327 612.665 L93.8484 612.665 L93.8484 606.786 Z" fill="#000000" fill-rule="evenodd" fill-opacity="1" /><path clip-path="url(#clip860)" d="M 0 0 M113.802 581.184 Q110.191 581.184 108.362 584.749 Q106.557 588.291 106.557 595.42 Q106.557 602.527 108.362 606.091 Q110.191 609.633 113.802 609.633 Q117.436 609.633 119.242 606.091 Q121.071 602.527 121.071 595.42 Q121.071 588.291 119.242 584.749 Q117.436 581.184 113.802 581.184 M113.802 577.48 Q119.612 577.48 122.668 582.087 Q125.746 586.67 125.746 595.42 Q125.746 604.147 122.668 608.753 Q119.612 613.337 113.802 613.337 Q107.992 613.337 104.913 608.753 Q101.858 604.147 101.858 595.42 Q101.858 586.67 104.913 582.087 Q107.992 577.48 113.802 577.48 Z" fill="#000000" fill-rule="evenodd" fill-opacity="1" /><path clip-path="url(#clip860)" d="M 0 0 M129.635 578.105 L151.857 578.105 L151.857 580.096 L139.311 612.665 L134.427 612.665 L146.232 582.041 L129.635 582.041 L129.635 578.105 Z" fill="#000000" fill-rule="evenodd" fill-opacity="1" /><path clip-path="url(#clip860)" d="M 0 0 M156.973 578.105 L175.329 578.105 L175.329 582.041 L161.255 582.041 L161.255 590.513 Q162.274 590.166 163.293 590.004 Q164.311 589.818 165.33 589.818 Q171.117 589.818 174.496 592.99 Q177.876 596.161 177.876 601.578 Q177.876 607.156 174.404 610.258 Q170.931 613.337 164.612 613.337 Q162.436 613.337 160.168 612.966 Q157.922 612.596 155.515 611.855 L155.515 607.156 Q157.598 608.29 159.82 608.846 Q162.043 609.402 164.519 609.402 Q168.524 609.402 170.862 607.295 Q173.2 605.189 173.2 601.578 Q173.2 597.966 170.862 595.86 Q168.524 593.753 164.519 593.753 Q162.644 593.753 160.769 594.17 Q158.918 594.587 156.973 595.466 L156.973 578.105 Z" fill="#000000" fill-rule="evenodd" fill-opacity="1" /><path clip-path="url(#clip860)" d="M 0 0 M76.1634 317.544 Q72.5523 317.544 70.7236 321.109 Q68.918 324.65 68.918 331.78 Q68.918 338.886 70.7236 342.451 Q72.5523 345.993 76.1634 345.993 Q79.7976 345.993 81.6031 342.451 Q83.4318 338.886 83.4318 331.78 Q83.4318 324.65 81.6031 321.109 Q79.7976 317.544 76.1634 317.544 M76.1634 313.84 Q81.9735 313.84 85.029 318.447 Q88.1077 323.03 88.1077 331.78 Q88.1077 340.507 85.029 345.113 Q81.9735 349.696 76.1634 349.696 Q70.3532 349.696 67.2745 345.113 Q64.219 340.507 64.219 331.78 Q64.219 323.03 67.2745 318.447 Q70.3532 313.84 76.1634 313.84 Z" fill="#000000" fill-rule="evenodd" fill-opacity="1" /><path clip-path="url(#clip860)" d="M 0 0 M93.1771 343.146 L98.0614 343.146 L98.0614 349.025 L93.1771 349.025 L93.1771 343.146 Z" fill="#000000" fill-rule="evenodd" fill-opacity="1" /><path clip-path="url(#clip860)" d="M 0 0 M103.941 345.09 L111.58 345.09 L111.58 318.724 L103.27 320.391 L103.27 316.132 L111.534 314.465 L116.209 314.465 L116.209 345.09 L123.848 345.09 L123.848 349.025 L103.941 349.025 L103.941 345.09 Z" fill="#000000" fill-rule="evenodd" fill-opacity="1" /><path clip-path="url(#clip860)" d="M 0 0 M138.918 317.544 Q135.307 317.544 133.478 321.109 Q131.672 324.65 131.672 331.78 Q131.672 338.886 133.478 342.451 Q135.307 345.993 138.918 345.993 Q142.552 345.993 144.357 342.451 Q146.186 338.886 146.186 331.78 Q146.186 324.65 144.357 321.109 Q142.552 317.544 138.918 317.544 M138.918 313.84 Q144.728 313.84 147.783 318.447 Q150.862 323.03 150.862 331.78 Q150.862 340.507 147.783 345.113 Q144.728 349.696 138.918 349.696 Q133.107 349.696 130.029 345.113 Q126.973 340.507 126.973 331.78 Q126.973 323.03 130.029 318.447 Q133.107 313.84 138.918 313.84 Z" fill="#000000" fill-rule="evenodd" fill-opacity="1" /><path clip-path="url(#clip860)" d="M 0 0 M165.931 317.544 Q162.32 317.544 160.492 321.109 Q158.686 324.65 158.686 331.78 Q158.686 338.886 160.492 342.451 Q162.32 345.993 165.931 345.993 Q169.566 345.993 171.371 342.451 Q173.2 338.886 173.2 331.78 Q173.2 324.65 171.371 321.109 Q169.566 317.544 165.931 317.544 M165.931 313.84 Q171.742 313.84 174.797 318.447 Q177.876 323.03 177.876 331.78 Q177.876 340.507 174.797 345.113 Q171.742 349.696 165.931 349.696 Q160.121 349.696 157.043 345.113 Q153.987 340.507 153.987 331.78 Q153.987 323.03 157.043 318.447 Q160.121 313.84 165.931 313.84 Z" fill="#000000" fill-rule="evenodd" fill-opacity="1" /><path clip-path="url(#clip860)" d="M 0 0 M438.045 18.8205 L438.045 41.5461 L448.335 41.5461 Q454.046 41.5461 457.166 38.5889 Q460.285 35.6318 460.285 30.163 Q460.285 24.7348 457.166 21.7777 Q454.046 18.8205 448.335 18.8205 L438.045 18.8205 M429.862 12.096 L448.335 12.096 Q458.502 12.096 463.688 16.714 Q468.913 21.2916 468.913 30.163 Q468.913 39.1155 463.688 43.6931 Q458.502 48.2706 448.335 48.2706 L438.045 48.2706 L438.045 72.576 L429.862 72.576 L429.862 12.096 Z" fill="#000000" fill-rule="evenodd" fill-opacity="1" /><path clip-path="url(#clip860)" d="M 0 0 M493.624 49.7694 Q484.59 49.7694 481.106 51.8354 Q477.623 53.9013 477.623 58.8839 Q477.623 62.8538 480.215 65.2034 Q482.848 67.5124 487.345 67.5124 Q493.543 67.5124 497.27 63.1374 Q501.037 58.7219 501.037 51.4303 L501.037 49.7694 L493.624 49.7694 M508.491 46.6907 L508.491 72.576 L501.037 72.576 L501.037 65.6895 Q498.485 69.8214 494.677 71.8063 Q490.869 73.7508 485.36 73.7508 Q478.392 73.7508 474.26 69.8619 Q470.169 65.9325 470.169 59.3701 Q470.169 51.7138 475.273 47.825 Q480.418 43.9361 490.586 43.9361 L501.037 43.9361 L501.037 43.2069 Q501.037 38.0623 497.634 35.2672 Q494.272 32.4315 488.155 32.4315 Q484.266 32.4315 480.58 33.3632 Q476.893 34.295 473.491 36.1584 L473.491 29.2718 Q477.582 27.692 481.431 26.9223 Q485.279 26.1121 488.925 26.1121 Q498.768 26.1121 503.629 31.2163 Q508.491 36.3204 508.491 46.6907 Z" fill="#000000" fill-rule="evenodd" fill-opacity="1" /><path clip-path="url(#clip860)" d="M 0 0 M542.599 34.1734 Q541.343 33.4443 539.845 33.1202 Q538.386 32.7556 536.604 32.7556 Q530.284 32.7556 526.882 36.8875 Q523.519 40.9789 523.519 48.6757 L523.519 72.576 L516.025 72.576 L516.025 27.2059 L523.519 27.2059 L523.519 34.2544 Q525.869 30.1225 529.636 28.1376 Q533.404 26.1121 538.791 26.1121 Q539.561 26.1121 540.493 26.2337 Q541.424 26.3147 542.559 26.5172 L542.599 34.1734 Z" fill="#000000" fill-rule="evenodd" fill-opacity="1" /><path clip-path="url(#clip860)" d="M 0 0 M571.037 49.7694 Q562.003 49.7694 558.519 51.8354 Q555.035 53.9013 555.035 58.8839 Q555.035 62.8538 557.628 65.2034 Q560.261 67.5124 564.758 67.5124 Q570.955 67.5124 574.682 63.1374 Q578.45 58.7219 578.45 51.4303 L578.45 49.7694 L571.037 49.7694 M585.903 46.6907 L585.903 72.576 L578.45 72.576 L578.45 65.6895 Q575.898 69.8214 572.09 71.8063 Q568.282 73.7508 562.773 73.7508 Q555.805 73.7508 551.673 69.8619 Q547.582 65.9325 547.582 59.3701 Q547.582 51.7138 552.686 47.825 Q557.831 43.9361 567.998 43.9361 L578.45 43.9361 L578.45 43.2069 Q578.45 38.0623 575.047 35.2672 Q571.685 32.4315 565.568 32.4315 Q561.679 32.4315 557.993 33.3632 Q554.306 34.295 550.904 36.1584 L550.904 29.2718 Q554.995 27.692 558.843 26.9223 Q562.692 26.1121 566.337 26.1121 Q576.181 26.1121 581.042 31.2163 Q585.903 36.3204 585.903 46.6907 Z" fill="#000000" fill-rule="evenodd" fill-opacity="1" /><path clip-path="url(#clip860)" d="M 0 0 M629.045 35.9153 Q631.841 30.8922 635.729 28.5022 Q639.618 26.1121 644.884 26.1121 Q651.974 26.1121 655.822 31.0947 Q659.67 36.0368 659.67 45.1919 L659.67 72.576 L652.176 72.576 L652.176 45.4349 Q652.176 38.913 649.867 35.7533 Q647.558 32.5936 642.819 32.5936 Q637.026 32.5936 633.663 36.4419 Q630.301 40.2903 630.301 46.9338 L630.301 72.576 L622.807 72.576 L622.807 45.4349 Q622.807 38.8725 620.498 35.7533 Q618.189 32.5936 613.368 32.5936 Q607.657 32.5936 604.294 36.4824 Q600.932 40.3308 600.932 46.9338 L600.932 72.576 L593.438 72.576 L593.438 27.2059 L600.932 27.2059 L600.932 34.2544 Q603.484 30.082 607.049 28.0971 Q610.614 26.1121 615.515 26.1121 Q620.458 26.1121 623.901 28.6237 Q627.385 31.1352 629.045 35.9153 Z" fill="#000000" fill-rule="evenodd" fill-opacity="1" /><path clip-path="url(#clip860)" d="M 0 0 M706.296 48.0275 L706.296 51.6733 L672.026 51.6733 Q672.512 59.3701 676.644 63.421 Q680.816 67.4314 688.229 67.4314 Q692.523 67.4314 696.534 66.3781 Q700.584 65.3249 704.554 63.2184 L704.554 70.267 Q700.544 71.9684 696.331 72.8596 Q692.118 73.7508 687.784 73.7508 Q676.927 73.7508 670.567 67.4314 Q664.248 61.1119 664.248 50.3365 Q664.248 39.1965 670.243 32.6746 Q676.279 26.1121 686.487 26.1121 Q695.642 26.1121 700.949 32.0264 Q706.296 37.9003 706.296 48.0275 M698.843 45.84 Q698.762 39.7232 695.399 36.0774 Q692.078 32.4315 686.568 32.4315 Q680.33 32.4315 676.563 35.9558 Q672.836 39.4801 672.269 45.8805 L698.843 45.84 Z" fill="#000000" fill-rule="evenodd" fill-opacity="1" /><path clip-path="url(#clip860)" d="M 0 0 M721.487 14.324 L721.487 27.2059 L736.84 27.2059 L736.84 32.9987 L721.487 32.9987 L721.487 57.6282 Q721.487 63.1779 722.986 64.7578 Q724.525 66.3376 729.184 66.3376 L736.84 66.3376 L736.84 72.576 L729.184 72.576 Q720.555 72.576 717.274 69.3758 Q713.993 66.1351 713.993 57.6282 L713.993 32.9987 L708.524 32.9987 L708.524 27.2059 L713.993 27.2059 L713.993 14.324 L721.487 14.324 Z" fill="#000000" fill-rule="evenodd" fill-opacity="1" /><path clip-path="url(#clip860)" d="M 0 0 M783.466 48.0275 L783.466 51.6733 L749.195 51.6733 Q749.681 59.3701 753.813 63.421 Q757.986 67.4314 765.399 67.4314 Q769.693 67.4314 773.703 66.3781 Q777.754 65.3249 781.724 63.2184 L781.724 70.267 Q777.714 71.9684 773.501 72.8596 Q769.288 73.7508 764.953 73.7508 Q754.097 73.7508 747.737 67.4314 Q741.418 61.1119 741.418 50.3365 Q741.418 39.1965 747.413 32.6746 Q753.449 26.1121 763.657 26.1121 Q772.812 26.1121 778.119 32.0264 Q783.466 37.9003 783.466 48.0275 M776.012 45.84 Q775.931 39.7232 772.569 36.0774 Q769.247 32.4315 763.738 32.4315 Q757.5 32.4315 753.732 35.9558 Q750.005 39.4801 749.438 45.8805 L776.012 45.84 Z" fill="#000000" fill-rule="evenodd" fill-opacity="1" /><path clip-path="url(#clip860)" d="M 0 0 M817.575 34.1734 Q816.319 33.4443 814.82 33.1202 Q813.362 32.7556 811.579 32.7556 Q805.26 32.7556 801.857 36.8875 Q798.495 40.9789 798.495 48.6757 L798.495 72.576 L791.001 72.576 L791.001 27.2059 L798.495 27.2059 L798.495 34.2544 Q800.844 30.1225 804.612 28.1376 Q808.379 26.1121 813.767 26.1121 Q814.536 26.1121 815.468 26.2337 Q816.4 26.3147 817.534 26.5172 L817.575 34.1734 Z" fill="#000000" fill-rule="evenodd" fill-opacity="1" /><path clip-path="url(#clip860)" d="M 0 0 M854.235 65.6895 L867.603 65.6895 L867.603 19.5497 L853.06 22.4663 L853.06 15.0127 L867.522 12.096 L875.705 12.096 L875.705 65.6895 L889.073 65.6895 L889.073 72.576 L854.235 72.576 L854.235 65.6895 Z" fill="#000000" fill-rule="evenodd" fill-opacity="1" /><path clip-path="url(#clip862)" d="
M251.358 524.551 L251.358 1386.31 L314.144 1386.31 L314.144 524.551 L251.358 524.551 L251.358 524.551  Z
  " fill="#8b0000" fill-rule="evenodd" fill-opacity="1"/>
<polyline clip-path="url(#clip862)" style="stroke:#ffffff; stroke-width:4; stroke-opacity:1; fill:none" points="
  251.358,524.551 251.358,1386.31 314.144,1386.31 314.144,524.551 251.358,524.551 
  "/>
<path clip-path="url(#clip862)" d="
M314.144 259.397 L314.144 1386.31 L376.93 1386.31 L376.93 259.397 L314.144 259.397 L314.144 259.397  Z
  " fill="#8b0000" fill-rule="evenodd" fill-opacity="1"/>
<polyline clip-path="url(#clip862)" style="stroke:#ffffff; stroke-width:4; stroke-opacity:1; fill:none" points="
  314.144,259.397 314.144,1386.31 376.93,1386.31 376.93,259.397 314.144,259.397 
  "/>
<path clip-path="url(#clip862)" d="
M376.93 160.254 L376.93 1386.31 L439.716 1386.31 L439.716 160.254 L376.93 160.254 L376.93 160.254  Z
  " fill="#8b0000" fill-rule="evenodd" fill-opacity="1"/>
<polyline clip-path="url(#clip862)" style="stroke:#ffffff; stroke-width:4; stroke-opacity:1; fill:none" points="
  376.93,160.254 376.93,1386.31 439.716,1386.31 439.716,160.254 376.93,160.254 
  "/>
<path clip-path="url(#clip862)" d="
M439.716 218.703 L439.716 1386.31 L502.503 1386.31 L502.503 218.703 L439.716 218.703 L439.716 218.703  Z
  " fill="#8b0000" fill-rule="evenodd" fill-opacity="1"/>
<polyline clip-path="url(#clip862)" style="stroke:#ffffff; stroke-width:4; stroke-opacity:1; fill:none" points="
  439.716,218.703 439.716,1386.31 502.503,1386.31 502.503,218.703 439.716,218.703 
  "/>
<path clip-path="url(#clip862)" d="
M502.503 317.75 L502.503 1386.31 L565.289 1386.31 L565.289 317.75 L502.503 317.75 L502.503 317.75  Z
  " fill="#8b0000" fill-rule="evenodd" fill-opacity="1"/>
<polyline clip-path="url(#clip862)" style="stroke:#ffffff; stroke-width:4; stroke-opacity:1; fill:none" points="
  502.503,317.75 502.503,1386.31 565.289,1386.31 565.289,317.75 502.503,317.75 
  "/>
<path clip-path="url(#clip862)" d="
M565.289 342.639 L565.289 1386.31 L628.075 1386.31 L628.075 342.639 L565.289 342.639 L565.289 342.639  Z
  " fill="#8b0000" fill-rule="evenodd" fill-opacity="1"/>
<polyline clip-path="url(#clip862)" style="stroke:#ffffff; stroke-width:4; stroke-opacity:1; fill:none" points="
  565.289,342.639 565.289,1386.31 628.075,1386.31 628.075,342.639 565.289,342.639 
  "/>
<path clip-path="url(#clip862)" d="
M628.075 497.544 L628.075 1386.31 L690.861 1386.31 L690.861 497.544 L628.075 497.544 L628.075 497.544  Z
  " fill="#8b0000" fill-rule="evenodd" fill-opacity="1"/>
<polyline clip-path="url(#clip862)" style="stroke:#ffffff; stroke-width:4; stroke-opacity:1; fill:none" points="
  628.075,497.544 628.075,1386.31 690.861,1386.31 690.861,497.544 628.075,497.544 
  "/>
<path clip-path="url(#clip862)" d="
M690.861 593.338 L690.861 1386.31 L753.647 1386.31 L753.647 593.338 L690.861 593.338 L690.861 593.338  Z
  " fill="#8b0000" fill-rule="evenodd" fill-opacity="1"/>
<polyline clip-path="url(#clip862)" style="stroke:#ffffff; stroke-width:4; stroke-opacity:1; fill:none" points="
  690.861,593.338 690.861,1386.31 753.647,1386.31 753.647,593.338 690.861,593.338 
  "/>
<path clip-path="url(#clip862)" d="
M753.647 547.815 L753.647 1386.31 L816.433 1386.31 L816.433 547.815 L753.647 547.815 L753.647 547.815  Z
  " fill="#8b0000" fill-rule="evenodd" fill-opacity="1"/>
<polyline clip-path="url(#clip862)" style="stroke:#ffffff; stroke-width:4; stroke-opacity:1; fill:none" points="
  753.647,547.815 753.647,1386.31 816.433,1386.31 816.433,547.815 753.647,547.815 
  "/>
<path clip-path="url(#clip862)" d="
M816.433 717.213 L816.433 1386.31 L879.219 1386.31 L879.219 717.213 L816.433 717.213 L816.433 717.213  Z
  " fill="#8b0000" fill-rule="evenodd" fill-opacity="1"/>
<polyline clip-path="url(#clip862)" style="stroke:#ffffff; stroke-width:4; stroke-opacity:1; fill:none" points="
  816.433,717.213 816.433,1386.31 879.219,1386.31 879.219,717.213 816.433,717.213 
  "/>
<path clip-path="url(#clip862)" d="
M879.219 837.072 L879.219 1386.31 L942.005 1386.31 L942.005 837.072 L879.219 837.072 L879.219 837.072  Z
  " fill="#8b0000" fill-rule="evenodd" fill-opacity="1"/>
<polyline clip-path="url(#clip862)" style="stroke:#ffffff; stroke-width:4; stroke-opacity:1; fill:none" points="
  879.219,837.072 879.219,1386.31 942.005,1386.31 942.005,837.072 879.219,837.072 
  "/>
<path clip-path="url(#clip862)" d="
M942.005 1087.2 L942.005 1386.31 L1004.79 1386.31 L1004.79 1087.2 L942.005 1087.2 L942.005 1087.2  Z
  " fill="#8b0000" fill-rule="evenodd" fill-opacity="1"/>
<polyline clip-path="url(#clip862)" style="stroke:#ffffff; stroke-width:4; stroke-opacity:1; fill:none" points="
  942.005,1087.2 942.005,1386.31 1004.79,1386.31 1004.79,1087.2 942.005,1087.2 
  "/>
<path clip-path="url(#clip862)" d="
M1004.79 1372.9 L1004.79 1386.31 L1067.58 1386.31 L1067.58 1372.9 L1004.79 1372.9 L1004.79 1372.9  Z
  " fill="#8b0000" fill-rule="evenodd" fill-opacity="1"/>
<polyline clip-path="url(#clip862)" style="stroke:#ffffff; stroke-width:4; stroke-opacity:1; fill:none" points="
  1004.79,1372.9 1004.79,1386.31 1067.58,1386.31 1067.58,1372.9 1004.79,1372.9 
  "/>
<path clip-path="url(#clip860)" d="
M1339.65 1423.09 L2256.76 1423.09 L2256.76 123.472 L1339.65 123.472  Z
  " fill="#ffffff" fill-rule="evenodd" fill-opacity="1"/>
<defs>
  <clipPath id="clip863">
    <rect x="1339" y="123" width="918" height="1301"/>
  </clipPath>
</defs>
<polyline clip-path="url(#clip863)" style="stroke:#000000; stroke-width:2; stroke-opacity:0.1; fill:none" points="
  1417.3,1423.09 1417.3,123.472 
  "/>
<polyline clip-path="url(#clip863)" style="stroke:#000000; stroke-width:2; stroke-opacity:0.1; fill:none" points="
  1553.34,1423.09 1553.34,123.472 
  "/>
<polyline clip-path="url(#clip863)" style="stroke:#000000; stroke-width:2; stroke-opacity:0.1; fill:none" points="
  1689.37,1423.09 1689.37,123.472 
  "/>
<polyline clip-path="url(#clip863)" style="stroke:#000000; stroke-width:2; stroke-opacity:0.1; fill:none" points="
  1825.41,1423.09 1825.41,123.472 
  "/>
<polyline clip-path="url(#clip863)" style="stroke:#000000; stroke-width:2; stroke-opacity:0.1; fill:none" points="
  1961.45,1423.09 1961.45,123.472 
  "/>
<polyline clip-path="url(#clip863)" style="stroke:#000000; stroke-width:2; stroke-opacity:0.1; fill:none" points="
  2097.48,1423.09 2097.48,123.472 
  "/>
<polyline clip-path="url(#clip863)" style="stroke:#000000; stroke-width:2; stroke-opacity:0.1; fill:none" points="
  2233.52,1423.09 2233.52,123.472 
  "/>
<polyline clip-path="url(#clip863)" style="stroke:#000000; stroke-width:2; stroke-opacity:0.1; fill:none" points="
  1339.65,1386.31 2256.76,1386.31 
  "/>
<polyline clip-path="url(#clip863)" style="stroke:#000000; stroke-width:2; stroke-opacity:0.1; fill:none" points="
  1339.65,1202.3 2256.76,1202.3 
  "/>
<polyline clip-path="url(#clip863)" style="stroke:#000000; stroke-width:2; stroke-opacity:0.1; fill:none" points="
  1339.65,1018.29 2256.76,1018.29 
  "/>
<polyline clip-path="url(#clip863)" style="stroke:#000000; stroke-width:2; stroke-opacity:0.1; fill:none" points="
  1339.65,834.277 2256.76,834.277 
  "/>
<polyline clip-path="url(#clip863)" style="stroke:#000000; stroke-width:2; stroke-opacity:0.1; fill:none" points="
  1339.65,650.268 2256.76,650.268 
  "/>
<polyline clip-path="url(#clip863)" style="stroke:#000000; stroke-width:2; stroke-opacity:0.1; fill:none" points="
  1339.65,466.258 2256.76,466.258 
  "/>
<polyline clip-path="url(#clip863)" style="stroke:#000000; stroke-width:2; stroke-opacity:0.1; fill:none" points="
  1339.65,282.248 2256.76,282.248 
  "/>
<polyline clip-path="url(#clip860)" style="stroke:#000000; stroke-width:4; stroke-opacity:1; fill:none" points="
  1339.65,1423.09 2256.76,1423.09 
  "/>
<polyline clip-path="url(#clip860)" style="stroke:#000000; stroke-width:4; stroke-opacity:1; fill:none" points="
  1339.65,1423.09 1339.65,123.472 
  "/>
<polyline clip-path="url(#clip860)" style="stroke:#000000; stroke-width:4; stroke-opacity:1; fill:none" points="
  1417.3,1423.09 1417.3,1407.49 
  "/>
<polyline clip-path="url(#clip860)" style="stroke:#000000; stroke-width:4; stroke-opacity:1; fill:none" points="
  1553.34,1423.09 1553.34,1407.49 
  "/>
<polyline clip-path="url(#clip860)" style="stroke:#000000; stroke-width:4; stroke-opacity:1; fill:none" points="
  1689.37,1423.09 1689.37,1407.49 
  "/>
<polyline clip-path="url(#clip860)" style="stroke:#000000; stroke-width:4; stroke-opacity:1; fill:none" points="
  1825.41,1423.09 1825.41,1407.49 
  "/>
<polyline clip-path="url(#clip860)" style="stroke:#000000; stroke-width:4; stroke-opacity:1; fill:none" points="
  1961.45,1423.09 1961.45,1407.49 
  "/>
<polyline clip-path="url(#clip860)" style="stroke:#000000; stroke-width:4; stroke-opacity:1; fill:none" points="
  2097.48,1423.09 2097.48,1407.49 
  "/>
<polyline clip-path="url(#clip860)" style="stroke:#000000; stroke-width:4; stroke-opacity:1; fill:none" points="
  2233.52,1423.09 2233.52,1407.49 
  "/>
<polyline clip-path="url(#clip860)" style="stroke:#000000; stroke-width:4; stroke-opacity:1; fill:none" points="
  1339.65,1386.31 1350.66,1386.31 
  "/>
<polyline clip-path="url(#clip860)" style="stroke:#000000; stroke-width:4; stroke-opacity:1; fill:none" points="
  1339.65,1202.3 1350.66,1202.3 
  "/>
<polyline clip-path="url(#clip860)" style="stroke:#000000; stroke-width:4; stroke-opacity:1; fill:none" points="
  1339.65,1018.29 1350.66,1018.29 
  "/>
<polyline clip-path="url(#clip860)" style="stroke:#000000; stroke-width:4; stroke-opacity:1; fill:none" points="
  1339.65,834.277 1350.66,834.277 
  "/>
<polyline clip-path="url(#clip860)" style="stroke:#000000; stroke-width:4; stroke-opacity:1; fill:none" points="
  1339.65,650.268 1350.66,650.268 
  "/>
<polyline clip-path="url(#clip860)" style="stroke:#000000; stroke-width:4; stroke-opacity:1; fill:none" points="
  1339.65,466.258 1350.66,466.258 
  "/>
<polyline clip-path="url(#clip860)" style="stroke:#000000; stroke-width:4; stroke-opacity:1; fill:none" points="
  1339.65,282.248 1350.66,282.248 
  "/>
<path clip-path="url(#clip860)" d="M 0 0 M1372.63 1444.6 Q1369.01 1444.6 1367.19 1448.16 Q1365.38 1451.71 1365.38 1458.83 Q1365.38 1465.94 1367.19 1469.51 Q1369.01 1473.05 1372.63 1473.05 Q1376.26 1473.05 1378.07 1469.51 Q1379.89 1465.94 1379.89 1458.83 Q1379.89 1451.71 1378.07 1448.16 Q1376.26 1444.6 1372.63 1444.6 M1372.63 1440.89 Q1378.44 1440.89 1381.49 1445.5 Q1384.57 1450.08 1384.57 1458.83 Q1384.57 1467.56 1381.49 1472.17 Q1378.44 1476.75 1372.63 1476.75 Q1366.82 1476.75 1363.74 1472.17 Q1360.68 1467.56 1360.68 1458.83 Q1360.68 1450.08 1363.74 1445.5 Q1366.82 1440.89 1372.63 1440.89 Z" fill="#000000" fill-rule="evenodd" fill-opacity="1" /><path clip-path="url(#clip860)" d="M 0 0 M1389.64 1470.2 L1394.52 1470.2 L1394.52 1476.08 L1389.64 1476.08 L1389.64 1470.2 Z" fill="#000000" fill-rule="evenodd" fill-opacity="1" /><path clip-path="url(#clip860)" d="M 0 0 M1409.59 1444.6 Q1405.98 1444.6 1404.15 1448.16 Q1402.35 1451.71 1402.35 1458.83 Q1402.35 1465.94 1404.15 1469.51 Q1405.98 1473.05 1409.59 1473.05 Q1413.23 1473.05 1415.03 1469.51 Q1416.86 1465.94 1416.86 1458.83 Q1416.86 1451.71 1415.03 1448.16 Q1413.23 1444.6 1409.59 1444.6 M1409.59 1440.89 Q1415.4 1440.89 1418.46 1445.5 Q1421.54 1450.08 1421.54 1458.83 Q1421.54 1467.56 1418.46 1472.17 Q1415.4 1476.75 1409.59 1476.75 Q1403.78 1476.75 1400.7 1472.17 Q1397.65 1467.56 1397.65 1458.83 Q1397.65 1450.08 1400.7 1445.5 Q1403.78 1440.89 1409.59 1440.89 Z" fill="#000000" fill-rule="evenodd" fill-opacity="1" /><path clip-path="url(#clip860)" d="M 0 0 M1440.77 1457.45 Q1444.13 1458.16 1446.01 1460.43 Q1447.9 1462.7 1447.9 1466.03 Q1447.9 1471.15 1444.38 1473.95 Q1440.87 1476.75 1434.38 1476.75 Q1432.21 1476.75 1429.89 1476.31 Q1427.6 1475.89 1425.15 1475.04 L1425.15 1470.52 Q1427.09 1471.66 1429.41 1472.24 Q1431.72 1472.82 1434.25 1472.82 Q1438.64 1472.82 1440.94 1471.08 Q1443.25 1469.34 1443.25 1466.03 Q1443.25 1462.98 1441.1 1461.27 Q1438.97 1459.53 1435.15 1459.53 L1431.12 1459.53 L1431.12 1455.69 L1435.33 1455.69 Q1438.78 1455.69 1440.61 1454.32 Q1442.44 1452.93 1442.44 1450.34 Q1442.44 1447.68 1440.54 1446.27 Q1438.67 1444.83 1435.15 1444.83 Q1433.23 1444.83 1431.03 1445.25 Q1428.83 1445.66 1426.19 1446.54 L1426.19 1442.38 Q1428.85 1441.64 1431.17 1441.27 Q1433.51 1440.89 1435.57 1440.89 Q1440.89 1440.89 1443.99 1443.33 Q1447.09 1445.73 1447.09 1449.85 Q1447.09 1452.72 1445.45 1454.71 Q1443.81 1456.68 1440.77 1457.45 Z" fill="#000000" fill-rule="evenodd" fill-opacity="1" /><path clip-path="url(#clip860)" d="M 0 0 M1453.02 1441.52 L1471.38 1441.52 L1471.38 1445.46 L1457.3 1445.46 L1457.3 1453.93 Q1458.32 1453.58 1459.34 1453.42 Q1460.36 1453.23 1461.38 1453.23 Q1467.16 1453.23 1470.54 1456.4 Q1473.92 1459.58 1473.92 1464.99 Q1473.92 1470.57 1470.45 1473.67 Q1466.98 1476.75 1460.66 1476.75 Q1458.48 1476.75 1456.21 1476.38 Q1453.97 1476.01 1451.56 1475.27 L1451.56 1470.57 Q1453.64 1471.7 1455.87 1472.26 Q1458.09 1472.82 1460.57 1472.82 Q1464.57 1472.82 1466.91 1470.71 Q1469.25 1468.6 1469.25 1464.99 Q1469.25 1461.38 1466.91 1459.27 Q1464.57 1457.17 1460.57 1457.17 Q1458.69 1457.17 1456.82 1457.58 Q1454.96 1458 1453.02 1458.88 L1453.02 1441.52 Z" fill="#000000" fill-rule="evenodd" fill-opacity="1" /><path clip-path="url(#clip860)" d="M 0 0 M1507.6 1444.6 Q1503.99 1444.6 1502.16 1448.16 Q1500.35 1451.71 1500.35 1458.83 Q1500.35 1465.94 1502.16 1469.51 Q1503.99 1473.05 1507.6 1473.05 Q1511.23 1473.05 1513.04 1469.51 Q1514.87 1465.94 1514.87 1458.83 Q1514.87 1451.71 1513.04 1448.16 Q1511.23 1444.6 1507.6 1444.6 M1507.6 1440.89 Q1513.41 1440.89 1516.46 1445.5 Q1519.54 1450.08 1519.54 1458.83 Q1519.54 1467.56 1516.46 1472.17 Q1513.41 1476.75 1507.6 1476.75 Q1501.79 1476.75 1498.71 1472.17 Q1495.65 1467.56 1495.65 1458.83 Q1495.65 1450.08 1498.71 1445.5 Q1501.79 1440.89 1507.6 1440.89 Z" fill="#000000" fill-rule="evenodd" fill-opacity="1" /><path clip-path="url(#clip860)" d="M 0 0 M1524.61 1470.2 L1529.5 1470.2 L1529.5 1476.08 L1524.61 1476.08 L1524.61 1470.2 Z" fill="#000000" fill-rule="evenodd" fill-opacity="1" /><path clip-path="url(#clip860)" d="M 0 0 M1544.57 1444.6 Q1540.95 1444.6 1539.13 1448.16 Q1537.32 1451.71 1537.32 1458.83 Q1537.32 1465.94 1539.13 1469.51 Q1540.95 1473.05 1544.57 1473.05 Q1548.2 1473.05 1550 1469.51 Q1551.83 1465.94 1551.83 1458.83 Q1551.83 1451.71 1550 1448.16 Q1548.2 1444.6 1544.57 1444.6 M1544.57 1440.89 Q1550.38 1440.89 1553.43 1445.5 Q1556.51 1450.08 1556.51 1458.83 Q1556.51 1467.56 1553.43 1472.17 Q1550.38 1476.75 1544.57 1476.75 Q1538.75 1476.75 1535.68 1472.17 Q1532.62 1467.56 1532.62 1458.83 Q1532.62 1450.08 1535.68 1445.5 Q1538.75 1440.89 1544.57 1440.89 Z" fill="#000000" fill-rule="evenodd" fill-opacity="1" /><path clip-path="url(#clip860)" d="M 0 0 M1574.43 1445.59 L1562.62 1464.04 L1574.43 1464.04 L1574.43 1445.59 M1573.2 1441.52 L1579.08 1441.52 L1579.08 1464.04 L1584.01 1464.04 L1584.01 1467.93 L1579.08 1467.93 L1579.08 1476.08 L1574.43 1476.08 L1574.43 1467.93 L1558.82 1467.93 L1558.82 1463.42 L1573.2 1441.52 Z" fill="#000000" fill-rule="evenodd" fill-opacity="1" /><path clip-path="url(#clip860)" d="M 0 0 M1599.08 1444.6 Q1595.47 1444.6 1593.64 1448.16 Q1591.83 1451.71 1591.83 1458.83 Q1591.83 1465.94 1593.64 1469.51 Q1595.47 1473.05 1599.08 1473.05 Q1602.71 1473.05 1604.52 1469.51 Q1606.35 1465.94 1606.35 1458.83 Q1606.35 1451.71 1604.52 1448.16 Q1602.71 1444.6 1599.08 1444.6 M1599.08 1440.89 Q1604.89 1440.89 1607.94 1445.5 Q1611.02 1450.08 1611.02 1458.83 Q1611.02 1467.56 1607.94 1472.17 Q1604.89 1476.75 1599.08 1476.75 Q1593.27 1476.75 1590.19 1472.17 Q1587.13 1467.56 1587.13 1458.83 Q1587.13 1450.08 1590.19 1445.5 Q1593.27 1440.89 1599.08 1440.89 Z" fill="#000000" fill-rule="evenodd" fill-opacity="1" /><path clip-path="url(#clip860)" d="M 0 0 M1644.13 1444.6 Q1640.52 1444.6 1638.69 1448.16 Q1636.89 1451.71 1636.89 1458.83 Q1636.89 1465.94 1638.69 1469.51 Q1640.52 1473.05 1644.13 1473.05 Q1647.77 1473.05 1649.57 1469.51 Q1651.4 1465.94 1651.4 1458.83 Q1651.4 1451.71 1649.57 1448.16 Q1647.77 1444.6 1644.13 1444.6 M1644.13 1440.89 Q1649.94 1440.89 1653 1445.5 Q1656.08 1450.08 1656.08 1458.83 Q1656.08 1467.56 1653 1472.17 Q1649.94 1476.75 1644.13 1476.75 Q1638.32 1476.75 1635.24 1472.17 Q1632.19 1467.56 1632.19 1458.83 Q1632.19 1450.08 1635.24 1445.5 Q1638.32 1440.89 1644.13 1440.89 Z" fill="#000000" fill-rule="evenodd" fill-opacity="1" /><path clip-path="url(#clip860)" d="M 0 0 M1661.15 1470.2 L1666.03 1470.2 L1666.03 1476.08 L1661.15 1476.08 L1661.15 1470.2 Z" fill="#000000" fill-rule="evenodd" fill-opacity="1" /><path clip-path="url(#clip860)" d="M 0 0 M1681.1 1444.6 Q1677.49 1444.6 1675.66 1448.16 Q1673.85 1451.71 1673.85 1458.83 Q1673.85 1465.94 1675.66 1469.51 Q1677.49 1473.05 1681.1 1473.05 Q1684.73 1473.05 1686.54 1469.51 Q1688.37 1465.94 1688.37 1458.83 Q1688.37 1451.71 1686.54 1448.16 Q1684.73 1444.6 1681.1 1444.6 M1681.1 1440.89 Q1686.91 1440.89 1689.96 1445.5 Q1693.04 1450.08 1693.04 1458.83 Q1693.04 1467.56 1689.96 1472.17 Q1686.91 1476.75 1681.1 1476.75 Q1675.29 1476.75 1672.21 1472.17 Q1669.15 1467.56 1669.15 1458.83 Q1669.15 1450.08 1672.21 1445.5 Q1675.29 1440.89 1681.1 1440.89 Z" fill="#000000" fill-rule="evenodd" fill-opacity="1" /><path clip-path="url(#clip860)" d="M 0 0 M1710.96 1445.59 L1699.15 1464.04 L1710.96 1464.04 L1710.96 1445.59 M1709.73 1441.52 L1715.61 1441.52 L1715.61 1464.04 L1720.54 1464.04 L1720.54 1467.93 L1715.61 1467.93 L1715.61 1476.08 L1710.96 1476.08 L1710.96 1467.93 L1695.36 1467.93 L1695.36 1463.42 L1709.73 1441.52 Z" fill="#000000" fill-rule="evenodd" fill-opacity="1" /><path clip-path="url(#clip860)" d="M 0 0 M1725.66 1441.52 L1744.02 1441.52 L1744.02 1445.46 L1729.94 1445.46 L1729.94 1453.93 Q1730.96 1453.58 1731.98 1453.42 Q1733 1453.23 1734.02 1453.23 Q1739.8 1453.23 1743.18 1456.4 Q1746.56 1459.58 1746.56 1464.99 Q1746.56 1470.57 1743.09 1473.67 Q1739.62 1476.75 1733.3 1476.75 Q1731.12 1476.75 1728.85 1476.38 Q1726.61 1476.01 1724.2 1475.27 L1724.2 1470.57 Q1726.28 1471.7 1728.51 1472.26 Q1730.73 1472.82 1733.21 1472.82 Q1737.21 1472.82 1739.55 1470.71 Q1741.89 1468.6 1741.89 1464.99 Q1741.89 1461.38 1739.55 1459.27 Q1737.21 1457.17 1733.21 1457.17 Q1731.33 1457.17 1729.46 1457.58 Q1727.6 1458 1725.66 1458.88 L1725.66 1441.52 Z" fill="#000000" fill-rule="evenodd" fill-opacity="1" /><path clip-path="url(#clip860)" d="M 0 0 M1780.41 1444.6 Q1776.8 1444.6 1774.97 1448.16 Q1773.17 1451.71 1773.17 1458.83 Q1773.17 1465.94 1774.97 1469.51 Q1776.8 1473.05 1780.41 1473.05 Q1784.05 1473.05 1785.85 1469.51 Q1787.68 1465.94 1787.68 1458.83 Q1787.68 1451.71 1785.85 1448.16 Q1784.05 1444.6 1780.41 1444.6 M1780.41 1440.89 Q1786.22 1440.89 1789.28 1445.5 Q1792.36 1450.08 1792.36 1458.83 Q1792.36 1467.56 1789.28 1472.17 Q1786.22 1476.75 1780.41 1476.75 Q1774.6 1476.75 1771.52 1472.17 Q1768.47 1467.56 1768.47 1458.83 Q1768.47 1450.08 1771.52 1445.5 Q1774.6 1440.89 1780.41 1440.89 Z" fill="#000000" fill-rule="evenodd" fill-opacity="1" /><path clip-path="url(#clip860)" d="M 0 0 M1797.43 1470.2 L1802.31 1470.2 L1802.31 1476.08 L1797.43 1476.08 L1797.43 1470.2 Z" fill="#000000" fill-rule="evenodd" fill-opacity="1" /><path clip-path="url(#clip860)" d="M 0 0 M1817.38 1444.6 Q1813.77 1444.6 1811.94 1448.16 Q1810.13 1451.71 1810.13 1458.83 Q1810.13 1465.94 1811.94 1469.51 Q1813.77 1473.05 1817.38 1473.05 Q1821.01 1473.05 1822.82 1469.51 Q1824.65 1465.94 1824.65 1458.83 Q1824.65 1451.71 1822.82 1448.16 Q1821.01 1444.6 1817.38 1444.6 M1817.38 1440.89 Q1823.19 1440.89 1826.24 1445.5 Q1829.32 1450.08 1829.32 1458.83 Q1829.32 1467.56 1826.24 1472.17 Q1823.19 1476.75 1817.38 1476.75 Q1811.57 1476.75 1808.49 1472.17 Q1805.43 1467.56 1805.43 1458.83 Q1805.43 1450.08 1808.49 1445.5 Q1811.57 1440.89 1817.38 1440.89 Z" fill="#000000" fill-rule="evenodd" fill-opacity="1" /><path clip-path="url(#clip860)" d="M 0 0 M1834.44 1441.52 L1852.8 1441.52 L1852.8 1445.46 L1838.72 1445.46 L1838.72 1453.93 Q1839.74 1453.58 1840.76 1453.42 Q1841.78 1453.23 1842.8 1453.23 Q1848.58 1453.23 1851.96 1456.4 Q1855.34 1459.58 1855.34 1464.99 Q1855.34 1470.57 1851.87 1473.67 Q1848.4 1476.75 1842.08 1476.75 Q1839.9 1476.75 1837.63 1476.38 Q1835.39 1476.01 1832.98 1475.27 L1832.98 1470.57 Q1835.06 1471.7 1837.29 1472.26 Q1839.51 1472.82 1841.99 1472.82 Q1845.99 1472.82 1848.33 1470.71 Q1850.67 1468.6 1850.67 1464.99 Q1850.67 1461.38 1848.33 1459.27 Q1845.99 1457.17 1841.99 1457.17 Q1840.11 1457.17 1838.24 1457.58 Q1836.38 1458 1834.44 1458.88 L1834.44 1441.52 Z" fill="#000000" fill-rule="evenodd" fill-opacity="1" /><path clip-path="url(#clip860)" d="M 0 0 M1870.41 1444.6 Q1866.8 1444.6 1864.97 1448.16 Q1863.17 1451.71 1863.17 1458.83 Q1863.17 1465.94 1864.97 1469.51 Q1866.8 1473.05 1870.41 1473.05 Q1874.05 1473.05 1875.85 1469.51 Q1877.68 1465.94 1877.68 1458.83 Q1877.68 1451.71 1875.85 1448.16 Q1874.05 1444.6 1870.41 1444.6 M1870.41 1440.89 Q1876.22 1440.89 1879.28 1445.5 Q1882.36 1450.08 1882.36 1458.83 Q1882.36 1467.56 1879.28 1472.17 Q1876.22 1476.75 1870.41 1476.75 Q1864.6 1476.75 1861.52 1472.17 Q1858.47 1467.56 1858.47 1458.83 Q1858.47 1450.08 1861.52 1445.5 Q1864.6 1440.89 1870.41 1440.89 Z" fill="#000000" fill-rule="evenodd" fill-opacity="1" /><path clip-path="url(#clip860)" d="M 0 0 M1916.95 1444.6 Q1913.33 1444.6 1911.51 1448.16 Q1909.7 1451.71 1909.7 1458.83 Q1909.7 1465.94 1911.51 1469.51 Q1913.33 1473.05 1916.95 1473.05 Q1920.58 1473.05 1922.39 1469.51 Q1924.21 1465.94 1924.21 1458.83 Q1924.21 1451.71 1922.39 1448.16 Q1920.58 1444.6 1916.95 1444.6 M1916.95 1440.89 Q1922.76 1440.89 1925.81 1445.5 Q1928.89 1450.08 1928.89 1458.83 Q1928.89 1467.56 1925.81 1472.17 Q1922.76 1476.75 1916.95 1476.75 Q1911.14 1476.75 1908.06 1472.17 Q1905 1467.56 1905 1458.83 Q1905 1450.08 1908.06 1445.5 Q1911.14 1440.89 1916.95 1440.89 Z" fill="#000000" fill-rule="evenodd" fill-opacity="1" /><path clip-path="url(#clip860)" d="M 0 0 M1933.96 1470.2 L1938.84 1470.2 L1938.84 1476.08 L1933.96 1476.08 L1933.96 1470.2 Z" fill="#000000" fill-rule="evenodd" fill-opacity="1" /><path clip-path="url(#clip860)" d="M 0 0 M1953.91 1444.6 Q1950.3 1444.6 1948.47 1448.16 Q1946.67 1451.71 1946.67 1458.83 Q1946.67 1465.94 1948.47 1469.51 Q1950.3 1473.05 1953.91 1473.05 Q1957.55 1473.05 1959.35 1469.51 Q1961.18 1465.94 1961.18 1458.83 Q1961.18 1451.71 1959.35 1448.16 Q1957.55 1444.6 1953.91 1444.6 M1953.91 1440.89 Q1959.72 1440.89 1962.78 1445.5 Q1965.86 1450.08 1965.86 1458.83 Q1965.86 1467.56 1962.78 1472.17 Q1959.72 1476.75 1953.91 1476.75 Q1948.1 1476.75 1945.02 1472.17 Q1941.97 1467.56 1941.97 1458.83 Q1941.97 1450.08 1945.02 1445.5 Q1948.1 1440.89 1953.91 1440.89 Z" fill="#000000" fill-rule="evenodd" fill-opacity="1" /><path clip-path="url(#clip860)" d="M 0 0 M1970.97 1441.52 L1989.33 1441.52 L1989.33 1445.46 L1975.26 1445.46 L1975.26 1453.93 Q1976.27 1453.58 1977.29 1453.42 Q1978.31 1453.23 1979.33 1453.23 Q1985.12 1453.23 1988.5 1456.4 Q1991.88 1459.58 1991.88 1464.99 Q1991.88 1470.57 1988.4 1473.67 Q1984.93 1476.75 1978.61 1476.75 Q1976.44 1476.75 1974.17 1476.38 Q1971.92 1476.01 1969.51 1475.27 L1969.51 1470.57 Q1971.6 1471.7 1973.82 1472.26 Q1976.04 1472.82 1978.52 1472.82 Q1982.52 1472.82 1984.86 1470.71 Q1987.2 1468.6 1987.2 1464.99 Q1987.2 1461.38 1984.86 1459.27 Q1982.52 1457.17 1978.52 1457.17 Q1976.64 1457.17 1974.77 1457.58 Q1972.92 1458 1970.97 1458.88 L1970.97 1441.52 Z" fill="#000000" fill-rule="evenodd" fill-opacity="1" /><path clip-path="url(#clip860)" d="M 0 0 M1996.99 1441.52 L2015.35 1441.52 L2015.35 1445.46 L2001.27 1445.46 L2001.27 1453.93 Q2002.29 1453.58 2003.31 1453.42 Q2004.33 1453.23 2005.35 1453.23 Q2011.14 1453.23 2014.51 1456.4 Q2017.89 1459.58 2017.89 1464.99 Q2017.89 1470.57 2014.42 1473.67 Q2010.95 1476.75 2004.63 1476.75 Q2002.45 1476.75 2000.19 1476.38 Q1997.94 1476.01 1995.53 1475.27 L1995.53 1470.57 Q1997.62 1471.7 1999.84 1472.26 Q2002.06 1472.82 2004.54 1472.82 Q2008.54 1472.82 2010.88 1470.71 Q2013.22 1468.6 2013.22 1464.99 Q2013.22 1461.38 2010.88 1459.27 Q2008.54 1457.17 2004.54 1457.17 Q2002.66 1457.17 2000.79 1457.58 Q1998.94 1458 1996.99 1458.88 L1996.99 1441.52 Z" fill="#000000" fill-rule="evenodd" fill-opacity="1" /><path clip-path="url(#clip860)" d="M 0 0 M2051.91 1444.6 Q2048.29 1444.6 2046.47 1448.16 Q2044.66 1451.71 2044.66 1458.83 Q2044.66 1465.94 2046.47 1469.51 Q2048.29 1473.05 2051.91 1473.05 Q2055.54 1473.05 2057.35 1469.51 Q2059.17 1465.94 2059.17 1458.83 Q2059.17 1451.71 2057.35 1448.16 Q2055.54 1444.6 2051.91 1444.6 M2051.91 1440.89 Q2057.72 1440.89 2060.77 1445.5 Q2063.85 1450.08 2063.85 1458.83 Q2063.85 1467.56 2060.77 1472.17 Q2057.72 1476.75 2051.91 1476.75 Q2046.1 1476.75 2043.02 1472.17 Q2039.96 1467.56 2039.96 1458.83 Q2039.96 1450.08 2043.02 1445.5 Q2046.1 1440.89 2051.91 1440.89 Z" fill="#000000" fill-rule="evenodd" fill-opacity="1" /><path clip-path="url(#clip860)" d="M 0 0 M2068.92 1470.2 L2073.8 1470.2 L2073.8 1476.08 L2068.92 1476.08 L2068.92 1470.2 Z" fill="#000000" fill-rule="evenodd" fill-opacity="1" /><path clip-path="url(#clip860)" d="M 0 0 M2088.87 1444.6 Q2085.26 1444.6 2083.43 1448.16 Q2081.63 1451.71 2081.63 1458.83 Q2081.63 1465.94 2083.43 1469.51 Q2085.26 1473.05 2088.87 1473.05 Q2092.51 1473.05 2094.31 1469.51 Q2096.14 1465.94 2096.14 1458.83 Q2096.14 1451.71 2094.31 1448.16 Q2092.51 1444.6 2088.87 1444.6 M2088.87 1440.89 Q2094.68 1440.89 2097.74 1445.5 Q2100.82 1450.08 2100.82 1458.83 Q2100.82 1467.56 2097.74 1472.17 Q2094.68 1476.75 2088.87 1476.75 Q2083.06 1476.75 2079.98 1472.17 Q2076.93 1467.56 2076.93 1458.83 Q2076.93 1450.08 2079.98 1445.5 Q2083.06 1440.89 2088.87 1440.89 Z" fill="#000000" fill-rule="evenodd" fill-opacity="1" /><path clip-path="url(#clip860)" d="M 0 0 M2116.47 1456.94 Q2113.32 1456.94 2111.47 1459.09 Q2109.64 1461.24 2109.64 1464.99 Q2109.64 1468.72 2111.47 1470.89 Q2113.32 1473.05 2116.47 1473.05 Q2119.61 1473.05 2121.44 1470.89 Q2123.29 1468.72 2123.29 1464.99 Q2123.29 1461.24 2121.44 1459.09 Q2119.61 1456.94 2116.47 1456.94 M2125.75 1442.28 L2125.75 1446.54 Q2123.99 1445.71 2122.18 1445.27 Q2120.4 1444.83 2118.64 1444.83 Q2114.01 1444.83 2111.56 1447.96 Q2109.13 1451.08 2108.78 1457.4 Q2110.15 1455.39 2112.21 1454.32 Q2114.27 1453.23 2116.74 1453.23 Q2121.95 1453.23 2124.96 1456.4 Q2127.99 1459.55 2127.99 1464.99 Q2127.99 1470.32 2124.85 1473.53 Q2121.7 1476.75 2116.47 1476.75 Q2110.47 1476.75 2107.3 1472.17 Q2104.13 1467.56 2104.13 1458.83 Q2104.13 1450.64 2108.02 1445.78 Q2111.91 1440.89 2118.46 1440.89 Q2120.22 1440.89 2122 1441.24 Q2123.8 1441.59 2125.75 1442.28 Z" fill="#000000" fill-rule="evenodd" fill-opacity="1" /><path clip-path="url(#clip860)" d="M 0 0 M2143.06 1444.6 Q2139.45 1444.6 2137.62 1448.16 Q2135.82 1451.71 2135.82 1458.83 Q2135.82 1465.94 2137.62 1469.51 Q2139.45 1473.05 2143.06 1473.05 Q2146.7 1473.05 2148.5 1469.51 Q2150.33 1465.94 2150.33 1458.83 Q2150.33 1451.71 2148.5 1448.16 Q2146.7 1444.6 2143.06 1444.6 M2143.06 1440.89 Q2148.87 1440.89 2151.93 1445.5 Q2155.01 1450.08 2155.01 1458.83 Q2155.01 1467.56 2151.93 1472.17 Q2148.87 1476.75 2143.06 1476.75 Q2137.25 1476.75 2134.17 1472.17 Q2131.12 1467.56 2131.12 1458.83 Q2131.12 1450.08 2134.17 1445.5 Q2137.25 1440.89 2143.06 1440.89 Z" fill="#000000" fill-rule="evenodd" fill-opacity="1" /><path clip-path="url(#clip860)" d="M 0 0 M2188.44 1444.6 Q2184.83 1444.6 2183 1448.16 Q2181.19 1451.71 2181.19 1458.83 Q2181.19 1465.94 2183 1469.51 Q2184.83 1473.05 2188.44 1473.05 Q2192.07 1473.05 2193.88 1469.51 Q2195.71 1465.94 2195.71 1458.83 Q2195.71 1451.71 2193.88 1448.16 Q2192.07 1444.6 2188.44 1444.6 M2188.44 1440.89 Q2194.25 1440.89 2197.31 1445.5 Q2200.38 1450.08 2200.38 1458.83 Q2200.38 1467.56 2197.31 1472.17 Q2194.25 1476.75 2188.44 1476.75 Q2182.63 1476.75 2179.55 1472.17 Q2176.5 1467.56 2176.5 1458.83 Q2176.5 1450.08 2179.55 1445.5 Q2182.63 1440.89 2188.44 1440.89 Z" fill="#000000" fill-rule="evenodd" fill-opacity="1" /><path clip-path="url(#clip860)" d="M 0 0 M2205.45 1470.2 L2210.34 1470.2 L2210.34 1476.08 L2205.45 1476.08 L2205.45 1470.2 Z" fill="#000000" fill-rule="evenodd" fill-opacity="1" /><path clip-path="url(#clip860)" d="M 0 0 M2225.41 1444.6 Q2221.8 1444.6 2219.97 1448.16 Q2218.16 1451.71 2218.16 1458.83 Q2218.16 1465.94 2219.97 1469.51 Q2221.8 1473.05 2225.41 1473.05 Q2229.04 1473.05 2230.85 1469.51 Q2232.68 1465.94 2232.68 1458.83 Q2232.68 1451.71 2230.85 1448.16 Q2229.04 1444.6 2225.41 1444.6 M2225.41 1440.89 Q2231.22 1440.89 2234.27 1445.5 Q2237.35 1450.08 2237.35 1458.83 Q2237.35 1467.56 2234.27 1472.17 Q2231.22 1476.75 2225.41 1476.75 Q2219.6 1476.75 2216.52 1472.17 Q2213.46 1467.56 2213.46 1458.83 Q2213.46 1450.08 2216.52 1445.5 Q2219.6 1440.89 2225.41 1440.89 Z" fill="#000000" fill-rule="evenodd" fill-opacity="1" /><path clip-path="url(#clip860)" d="M 0 0 M2253 1456.94 Q2249.85 1456.94 2248 1459.09 Q2246.17 1461.24 2246.17 1464.99 Q2246.17 1468.72 2248 1470.89 Q2249.85 1473.05 2253 1473.05 Q2256.15 1473.05 2257.98 1470.89 Q2259.83 1468.72 2259.83 1464.99 Q2259.83 1461.24 2257.98 1459.09 Q2256.15 1456.94 2253 1456.94 M2262.28 1442.28 L2262.28 1446.54 Q2260.52 1445.71 2258.72 1445.27 Q2256.94 1444.83 2255.18 1444.83 Q2250.55 1444.83 2248.09 1447.96 Q2245.66 1451.08 2245.31 1457.4 Q2246.68 1455.39 2248.74 1454.32 Q2250.8 1453.23 2253.28 1453.23 Q2258.49 1453.23 2261.5 1456.4 Q2264.53 1459.55 2264.53 1464.99 Q2264.53 1470.32 2261.38 1473.53 Q2258.23 1476.75 2253 1476.75 Q2247 1476.75 2243.83 1472.17 Q2240.66 1467.56 2240.66 1458.83 Q2240.66 1450.64 2244.55 1445.78 Q2248.44 1440.89 2254.99 1440.89 Q2256.75 1440.89 2258.53 1441.24 Q2260.34 1441.59 2262.28 1442.28 Z" fill="#000000" fill-rule="evenodd" fill-opacity="1" /><path clip-path="url(#clip860)" d="M 0 0 M2269.64 1441.52 L2288 1441.52 L2288 1445.46 L2273.93 1445.46 L2273.93 1453.93 Q2274.94 1453.58 2275.96 1453.42 Q2276.98 1453.23 2278 1453.23 Q2283.79 1453.23 2287.17 1456.4 Q2290.55 1459.58 2290.55 1464.99 Q2290.55 1470.57 2287.07 1473.67 Q2283.6 1476.75 2277.28 1476.75 Q2275.11 1476.75 2272.84 1476.38 Q2270.59 1476.01 2268.19 1475.27 L2268.19 1470.57 Q2270.27 1471.7 2272.49 1472.26 Q2274.71 1472.82 2277.19 1472.82 Q2281.19 1472.82 2283.53 1470.71 Q2285.87 1468.6 2285.87 1464.99 Q2285.87 1461.38 2283.53 1459.27 Q2281.19 1457.17 2277.19 1457.17 Q2275.31 1457.17 2273.44 1457.58 Q2271.59 1458 2269.64 1458.88 L2269.64 1441.52 Z" fill="#000000" fill-rule="evenodd" fill-opacity="1" /><path clip-path="url(#clip860)" d="M 0 0 M1240.69 1372.1 Q1237.08 1372.1 1235.25 1375.67 Q1233.44 1379.21 1233.44 1386.34 Q1233.44 1393.45 1235.25 1397.01 Q1237.08 1400.55 1240.69 1400.55 Q1244.32 1400.55 1246.13 1397.01 Q1247.95 1393.45 1247.95 1386.34 Q1247.95 1379.21 1246.13 1375.67 Q1244.32 1372.1 1240.69 1372.1 M1240.69 1368.4 Q1246.5 1368.4 1249.55 1373.01 Q1252.63 1377.59 1252.63 1386.34 Q1252.63 1395.07 1249.55 1399.67 Q1246.5 1404.26 1240.69 1404.26 Q1234.88 1404.26 1231.8 1399.67 Q1228.74 1395.07 1228.74 1386.34 Q1228.74 1377.59 1231.8 1373.01 Q1234.88 1368.4 1240.69 1368.4 Z" fill="#000000" fill-rule="evenodd" fill-opacity="1" /><path clip-path="url(#clip860)" d="M 0 0 M1257.7 1397.71 L1262.58 1397.71 L1262.58 1403.59 L1257.7 1403.59 L1257.7 1397.71 Z" fill="#000000" fill-rule="evenodd" fill-opacity="1" /><path clip-path="url(#clip860)" d="M 0 0 M1277.65 1372.1 Q1274.04 1372.1 1272.21 1375.67 Q1270.41 1379.21 1270.41 1386.34 Q1270.41 1393.45 1272.21 1397.01 Q1274.04 1400.55 1277.65 1400.55 Q1281.29 1400.55 1283.09 1397.01 Q1284.92 1393.45 1284.92 1386.34 Q1284.92 1379.21 1283.09 1375.67 Q1281.29 1372.1 1277.65 1372.1 M1277.65 1368.4 Q1283.46 1368.4 1286.52 1373.01 Q1289.6 1377.59 1289.6 1386.34 Q1289.6 1395.07 1286.52 1399.67 Q1283.46 1404.26 1277.65 1404.26 Q1271.84 1404.26 1268.76 1399.67 Q1265.71 1395.07 1265.71 1386.34 Q1265.71 1377.59 1268.76 1373.01 Q1271.84 1368.4 1277.65 1368.4 Z" fill="#000000" fill-rule="evenodd" fill-opacity="1" /><path clip-path="url(#clip860)" d="M 0 0 M1304.67 1372.1 Q1301.06 1372.1 1299.23 1375.67 Q1297.42 1379.21 1297.42 1386.34 Q1297.42 1393.45 1299.23 1397.01 Q1301.06 1400.55 1304.67 1400.55 Q1308.3 1400.55 1310.11 1397.01 Q1311.94 1393.45 1311.94 1386.34 Q1311.94 1379.21 1310.11 1375.67 Q1308.3 1372.1 1304.67 1372.1 M1304.67 1368.4 Q1310.48 1368.4 1313.53 1373.01 Q1316.61 1377.59 1316.61 1386.34 Q1316.61 1395.07 1313.53 1399.67 Q1310.48 1404.26 1304.67 1404.26 Q1298.86 1404.26 1295.78 1399.67 Q1292.72 1395.07 1292.72 1386.34 Q1292.72 1377.59 1295.78 1373.01 Q1298.86 1368.4 1304.67 1368.4 Z" fill="#000000" fill-rule="evenodd" fill-opacity="1" /><path clip-path="url(#clip860)" d="M 0 0 M1242.28 1188.1 Q1238.67 1188.1 1236.84 1191.66 Q1235.04 1195.2 1235.04 1202.33 Q1235.04 1209.44 1236.84 1213 Q1238.67 1216.54 1242.28 1216.54 Q1245.92 1216.54 1247.72 1213 Q1249.55 1209.44 1249.55 1202.33 Q1249.55 1195.2 1247.72 1191.66 Q1245.92 1188.1 1242.28 1188.1 M1242.28 1184.39 Q1248.09 1184.39 1251.15 1189 Q1254.23 1193.58 1254.23 1202.33 Q1254.23 1211.06 1251.15 1215.66 Q1248.09 1220.25 1242.28 1220.25 Q1236.47 1220.25 1233.39 1215.66 Q1230.34 1211.06 1230.34 1202.33 Q1230.34 1193.58 1233.39 1189 Q1236.47 1184.39 1242.28 1184.39 Z" fill="#000000" fill-rule="evenodd" fill-opacity="1" /><path clip-path="url(#clip860)" d="M 0 0 M1259.3 1213.7 L1264.18 1213.7 L1264.18 1219.58 L1259.3 1219.58 L1259.3 1213.7 Z" fill="#000000" fill-rule="evenodd" fill-opacity="1" /><path clip-path="url(#clip860)" d="M 0 0 M1279.25 1188.1 Q1275.64 1188.1 1273.81 1191.66 Q1272.01 1195.2 1272.01 1202.33 Q1272.01 1209.44 1273.81 1213 Q1275.64 1216.54 1279.25 1216.54 Q1282.89 1216.54 1284.69 1213 Q1286.52 1209.44 1286.52 1202.33 Q1286.52 1195.2 1284.69 1191.66 Q1282.89 1188.1 1279.25 1188.1 M1279.25 1184.39 Q1285.06 1184.39 1288.12 1189 Q1291.2 1193.58 1291.2 1202.33 Q1291.2 1211.06 1288.12 1215.66 Q1285.06 1220.25 1279.25 1220.25 Q1273.44 1220.25 1270.36 1215.66 Q1267.31 1211.06 1267.31 1202.33 Q1267.31 1193.58 1270.36 1189 Q1273.44 1184.39 1279.25 1184.39 Z" fill="#000000" fill-rule="evenodd" fill-opacity="1" /><path clip-path="url(#clip860)" d="M 0 0 M1300.29 1215.64 L1316.61 1215.64 L1316.61 1219.58 L1294.67 1219.58 L1294.67 1215.64 Q1297.33 1212.89 1301.91 1208.26 Q1306.52 1203.6 1307.7 1202.26 Q1309.95 1199.74 1310.82 1198 Q1311.73 1196.24 1311.73 1194.55 Q1311.73 1191.8 1309.78 1190.06 Q1307.86 1188.33 1304.76 1188.33 Q1302.56 1188.33 1300.11 1189.09 Q1297.68 1189.85 1294.9 1191.41 L1294.9 1186.68 Q1297.72 1185.55 1300.18 1184.97 Q1302.63 1184.39 1304.67 1184.39 Q1310.04 1184.39 1313.23 1187.08 Q1316.43 1189.76 1316.43 1194.25 Q1316.43 1196.38 1315.62 1198.3 Q1314.83 1200.2 1312.72 1202.79 Q1312.14 1203.47 1309.04 1206.68 Q1305.94 1209.88 1300.29 1215.64 Z" fill="#000000" fill-rule="evenodd" fill-opacity="1" /><path clip-path="url(#clip860)" d="M 0 0 M1240.2 1004.09 Q1236.59 1004.09 1234.76 1007.65 Q1232.95 1011.19 1232.95 1018.32 Q1232.95 1025.43 1234.76 1028.99 Q1236.59 1032.53 1240.2 1032.53 Q1243.83 1032.53 1245.64 1028.99 Q1247.47 1025.43 1247.47 1018.32 Q1247.47 1011.19 1245.64 1007.65 Q1243.83 1004.09 1240.2 1004.09 M1240.2 1000.38 Q1246.01 1000.38 1249.07 1004.99 Q1252.14 1009.57 1252.14 1018.32 Q1252.14 1027.05 1249.07 1031.65 Q1246.01 1036.24 1240.2 1036.24 Q1234.39 1036.24 1231.31 1031.65 Q1228.26 1027.05 1228.26 1018.32 Q1228.26 1009.57 1231.31 1004.99 Q1234.39 1000.38 1240.2 1000.38 Z" fill="#000000" fill-rule="evenodd" fill-opacity="1" /><path clip-path="url(#clip860)" d="M 0 0 M1257.21 1029.69 L1262.1 1029.69 L1262.1 1035.57 L1257.21 1035.57 L1257.21 1029.69 Z" fill="#000000" fill-rule="evenodd" fill-opacity="1" /><path clip-path="url(#clip860)" d="M 0 0 M1277.17 1004.09 Q1273.56 1004.09 1271.73 1007.65 Q1269.92 1011.19 1269.92 1018.32 Q1269.92 1025.43 1271.73 1028.99 Q1273.56 1032.53 1277.17 1032.53 Q1280.8 1032.53 1282.61 1028.99 Q1284.44 1025.43 1284.44 1018.32 Q1284.44 1011.19 1282.61 1007.65 Q1280.8 1004.09 1277.17 1004.09 M1277.17 1000.38 Q1282.98 1000.38 1286.03 1004.99 Q1289.11 1009.57 1289.11 1018.32 Q1289.11 1027.05 1286.03 1031.65 Q1282.98 1036.24 1277.17 1036.24 Q1271.36 1036.24 1268.28 1031.65 Q1265.22 1027.05 1265.22 1018.32 Q1265.22 1009.57 1268.28 1004.99 Q1271.36 1000.38 1277.17 1000.38 Z" fill="#000000" fill-rule="evenodd" fill-opacity="1" /><path clip-path="url(#clip860)" d="M 0 0 M1307.03 1005.08 L1295.22 1023.53 L1307.03 1023.53 L1307.03 1005.08 M1305.8 1001.01 L1311.68 1001.01 L1311.68 1023.53 L1316.61 1023.53 L1316.61 1027.42 L1311.68 1027.42 L1311.68 1035.57 L1307.03 1035.57 L1307.03 1027.42 L1291.43 1027.42 L1291.43 1022.91 L1305.8 1001.01 Z" fill="#000000" fill-rule="evenodd" fill-opacity="1" /><path clip-path="url(#clip860)" d="M 0 0 M1240.52 820.076 Q1236.91 820.076 1235.08 823.641 Q1233.28 827.182 1233.28 834.312 Q1233.28 841.418 1235.08 844.983 Q1236.91 848.525 1240.52 848.525 Q1244.16 848.525 1245.96 844.983 Q1247.79 841.418 1247.79 834.312 Q1247.79 827.182 1245.96 823.641 Q1244.16 820.076 1240.52 820.076 M1240.52 816.372 Q1246.33 816.372 1249.39 820.979 Q1252.47 825.562 1252.47 834.312 Q1252.47 843.039 1249.39 847.645 Q1246.33 852.229 1240.52 852.229 Q1234.71 852.229 1231.64 847.645 Q1228.58 843.039 1228.58 834.312 Q1228.58 825.562 1231.64 820.979 Q1234.71 816.372 1240.52 816.372 Z" fill="#000000" fill-rule="evenodd" fill-opacity="1" /><path clip-path="url(#clip860)" d="M 0 0 M1257.54 845.678 L1262.42 845.678 L1262.42 851.557 L1257.54 851.557 L1257.54 845.678 Z" fill="#000000" fill-rule="evenodd" fill-opacity="1" /><path clip-path="url(#clip860)" d="M 0 0 M1277.49 820.076 Q1273.88 820.076 1272.05 823.641 Q1270.25 827.182 1270.25 834.312 Q1270.25 841.418 1272.05 844.983 Q1273.88 848.525 1277.49 848.525 Q1281.13 848.525 1282.93 844.983 Q1284.76 841.418 1284.76 834.312 Q1284.76 827.182 1282.93 823.641 Q1281.13 820.076 1277.49 820.076 M1277.49 816.372 Q1283.3 816.372 1286.36 820.979 Q1289.44 825.562 1289.44 834.312 Q1289.44 843.039 1286.36 847.645 Q1283.3 852.229 1277.49 852.229 Q1271.68 852.229 1268.6 847.645 Q1265.55 843.039 1265.55 834.312 Q1265.55 825.562 1268.6 820.979 Q1271.68 816.372 1277.49 816.372 Z" fill="#000000" fill-rule="evenodd" fill-opacity="1" /><path clip-path="url(#clip860)" d="M 0 0 M1305.08 832.414 Q1301.94 832.414 1300.08 834.567 Q1298.26 836.719 1298.26 840.469 Q1298.26 844.196 1300.08 846.372 Q1301.94 848.525 1305.08 848.525 Q1308.23 848.525 1310.06 846.372 Q1311.91 844.196 1311.91 840.469 Q1311.91 836.719 1310.06 834.567 Q1308.23 832.414 1305.08 832.414 M1314.37 817.761 L1314.37 822.02 Q1312.61 821.187 1310.8 820.747 Q1309.02 820.307 1307.26 820.307 Q1302.63 820.307 1300.18 823.432 Q1297.75 826.557 1297.4 832.877 Q1298.76 830.863 1300.82 829.798 Q1302.89 828.71 1305.36 828.71 Q1310.57 828.71 1313.58 831.881 Q1316.61 835.03 1316.61 840.469 Q1316.61 845.793 1313.46 849.011 Q1310.32 852.229 1305.08 852.229 Q1299.09 852.229 1295.92 847.645 Q1292.75 843.039 1292.75 834.312 Q1292.75 826.118 1296.64 821.257 Q1300.52 816.372 1307.07 816.372 Q1308.83 816.372 1310.62 816.72 Q1312.42 817.067 1314.37 817.761 Z" fill="#000000" fill-rule="evenodd" fill-opacity="1" /><path clip-path="url(#clip860)" d="M 0 0 M1240.78 636.066 Q1237.17 636.066 1235.34 639.631 Q1233.53 643.173 1233.53 650.302 Q1233.53 657.409 1235.34 660.974 Q1237.17 664.515 1240.78 664.515 Q1244.41 664.515 1246.22 660.974 Q1248.05 657.409 1248.05 650.302 Q1248.05 643.173 1246.22 639.631 Q1244.41 636.066 1240.78 636.066 M1240.78 632.363 Q1246.59 632.363 1249.64 636.969 Q1252.72 641.552 1252.72 650.302 Q1252.72 659.029 1249.64 663.636 Q1246.59 668.219 1240.78 668.219 Q1234.97 668.219 1231.89 663.636 Q1228.83 659.029 1228.83 650.302 Q1228.83 641.552 1231.89 636.969 Q1234.97 632.363 1240.78 632.363 Z" fill="#000000" fill-rule="evenodd" fill-opacity="1" /><path clip-path="url(#clip860)" d="M 0 0 M1257.79 661.668 L1262.68 661.668 L1262.68 667.548 L1257.79 667.548 L1257.79 661.668 Z" fill="#000000" fill-rule="evenodd" fill-opacity="1" /><path clip-path="url(#clip860)" d="M 0 0 M1277.75 636.066 Q1274.14 636.066 1272.31 639.631 Q1270.5 643.173 1270.5 650.302 Q1270.5 657.409 1272.31 660.974 Q1274.14 664.515 1277.75 664.515 Q1281.38 664.515 1283.19 660.974 Q1285.01 657.409 1285.01 650.302 Q1285.01 643.173 1283.19 639.631 Q1281.38 636.066 1277.75 636.066 M1277.75 632.363 Q1283.56 632.363 1286.61 636.969 Q1289.69 641.552 1289.69 650.302 Q1289.69 659.029 1286.61 663.636 Q1283.56 668.219 1277.75 668.219 Q1271.94 668.219 1268.86 663.636 Q1265.8 659.029 1265.8 650.302 Q1265.8 641.552 1268.86 636.969 Q1271.94 632.363 1277.75 632.363 Z" fill="#000000" fill-rule="evenodd" fill-opacity="1" /><path clip-path="url(#clip860)" d="M 0 0 M1304.76 651.136 Q1301.43 651.136 1299.51 652.918 Q1297.61 654.701 1297.61 657.825 Q1297.61 660.95 1299.51 662.733 Q1301.43 664.515 1304.76 664.515 Q1308.09 664.515 1310.01 662.733 Q1311.94 660.927 1311.94 657.825 Q1311.94 654.701 1310.01 652.918 Q1308.12 651.136 1304.76 651.136 M1300.08 649.145 Q1297.08 648.404 1295.39 646.344 Q1293.72 644.284 1293.72 641.321 Q1293.72 637.177 1296.66 634.77 Q1299.62 632.363 1304.76 632.363 Q1309.92 632.363 1312.86 634.77 Q1315.8 637.177 1315.8 641.321 Q1315.8 644.284 1314.11 646.344 Q1312.45 648.404 1309.46 649.145 Q1312.84 649.932 1314.71 652.224 Q1316.61 654.515 1316.61 657.825 Q1316.61 662.849 1313.53 665.534 Q1310.48 668.219 1304.76 668.219 Q1299.04 668.219 1295.96 665.534 Q1292.91 662.849 1292.91 657.825 Q1292.91 654.515 1294.81 652.224 Q1296.7 649.932 1300.08 649.145 M1298.37 641.761 Q1298.37 644.446 1300.04 645.951 Q1301.73 647.455 1304.76 647.455 Q1307.77 647.455 1309.46 645.951 Q1311.17 644.446 1311.17 641.761 Q1311.17 639.076 1309.46 637.571 Q1307.77 636.066 1304.76 636.066 Q1301.73 636.066 1300.04 637.571 Q1298.37 639.076 1298.37 641.761 Z" fill="#000000" fill-rule="evenodd" fill-opacity="1" /><path clip-path="url(#clip860)" d="M 0 0 M1241.91 452.057 Q1238.3 452.057 1236.47 455.621 Q1234.67 459.163 1234.67 466.293 Q1234.67 473.399 1236.47 476.964 Q1238.3 480.506 1241.91 480.506 Q1245.55 480.506 1247.35 476.964 Q1249.18 473.399 1249.18 466.293 Q1249.18 459.163 1247.35 455.621 Q1245.55 452.057 1241.91 452.057 M1241.91 448.353 Q1247.72 448.353 1250.78 452.959 Q1253.86 457.543 1253.86 466.293 Q1253.86 475.02 1250.78 479.626 Q1247.72 484.209 1241.91 484.209 Q1236.1 484.209 1233.02 479.626 Q1229.97 475.02 1229.97 466.293 Q1229.97 457.543 1233.02 452.959 Q1236.1 448.353 1241.91 448.353 Z" fill="#000000" fill-rule="evenodd" fill-opacity="1" /><path clip-path="url(#clip860)" d="M 0 0 M1258.93 477.658 L1263.81 477.658 L1263.81 483.538 L1258.93 483.538 L1258.93 477.658 Z" fill="#000000" fill-rule="evenodd" fill-opacity="1" /><path clip-path="url(#clip860)" d="M 0 0 M1269.69 479.603 L1277.33 479.603 L1277.33 453.237 L1269.02 454.904 L1269.02 450.645 L1277.28 448.978 L1281.96 448.978 L1281.96 479.603 L1289.6 479.603 L1289.6 483.538 L1269.69 483.538 L1269.69 479.603 Z" fill="#000000" fill-rule="evenodd" fill-opacity="1" /><path clip-path="url(#clip860)" d="M 0 0 M1304.67 452.057 Q1301.06 452.057 1299.23 455.621 Q1297.42 459.163 1297.42 466.293 Q1297.42 473.399 1299.23 476.964 Q1301.06 480.506 1304.67 480.506 Q1308.3 480.506 1310.11 476.964 Q1311.94 473.399 1311.94 466.293 Q1311.94 459.163 1310.11 455.621 Q1308.3 452.057 1304.67 452.057 M1304.67 448.353 Q1310.48 448.353 1313.53 452.959 Q1316.61 457.543 1316.61 466.293 Q1316.61 475.02 1313.53 479.626 Q1310.48 484.209 1304.67 484.209 Q1298.86 484.209 1295.78 479.626 Q1292.72 475.02 1292.72 466.293 Q1292.72 457.543 1295.78 452.959 Q1298.86 448.353 1304.67 448.353 Z" fill="#000000" fill-rule="evenodd" fill-opacity="1" /><path clip-path="url(#clip860)" d="M 0 0 M1243.51 268.047 Q1239.9 268.047 1238.07 271.612 Q1236.27 275.153 1236.27 282.283 Q1236.27 289.389 1238.07 292.954 Q1239.9 296.496 1243.51 296.496 Q1247.14 296.496 1248.95 292.954 Q1250.78 289.389 1250.78 282.283 Q1250.78 275.153 1248.95 271.612 Q1247.14 268.047 1243.51 268.047 M1243.51 264.343 Q1249.32 264.343 1252.38 268.95 Q1255.45 273.533 1255.45 282.283 Q1255.45 291.01 1252.38 295.616 Q1249.32 300.2 1243.51 300.2 Q1237.7 300.2 1234.62 295.616 Q1231.57 291.01 1231.57 282.283 Q1231.57 273.533 1234.62 268.95 Q1237.7 264.343 1243.51 264.343 Z" fill="#000000" fill-rule="evenodd" fill-opacity="1" /><path clip-path="url(#clip860)" d="M 0 0 M1260.52 293.649 L1265.41 293.649 L1265.41 299.528 L1260.52 299.528 L1260.52 293.649 Z" fill="#000000" fill-rule="evenodd" fill-opacity="1" /><path clip-path="url(#clip860)" d="M 0 0 M1271.29 295.593 L1278.93 295.593 L1278.93 269.228 L1270.62 270.894 L1270.62 266.635 L1278.88 264.968 L1283.56 264.968 L1283.56 295.593 L1291.2 295.593 L1291.2 299.528 L1271.29 299.528 L1271.29 295.593 Z" fill="#000000" fill-rule="evenodd" fill-opacity="1" /><path clip-path="url(#clip860)" d="M 0 0 M1300.29 295.593 L1316.61 295.593 L1316.61 299.528 L1294.67 299.528 L1294.67 295.593 Q1297.33 292.839 1301.91 288.209 Q1306.52 283.556 1307.7 282.214 Q1309.95 279.69 1310.82 277.954 Q1311.73 276.195 1311.73 274.505 Q1311.73 271.751 1309.78 270.015 Q1307.86 268.279 1304.76 268.279 Q1302.56 268.279 1300.11 269.042 Q1297.68 269.806 1294.9 271.357 L1294.9 266.635 Q1297.72 265.501 1300.18 264.922 Q1302.63 264.343 1304.67 264.343 Q1310.04 264.343 1313.23 267.029 Q1316.43 269.714 1316.43 274.204 Q1316.43 276.334 1315.62 278.255 Q1314.83 280.153 1312.72 282.746 Q1312.14 283.417 1309.04 286.635 Q1305.94 289.829 1300.29 295.593 Z" fill="#000000" fill-rule="evenodd" fill-opacity="1" /><path clip-path="url(#clip860)" d="M 0 0 M1577.11 18.8205 L1577.11 41.5461 L1587.39 41.5461 Q1593.11 41.5461 1596.23 38.5889 Q1599.35 35.6318 1599.35 30.163 Q1599.35 24.7348 1596.23 21.7777 Q1593.11 18.8205 1587.39 18.8205 L1577.11 18.8205 M1568.92 12.096 L1587.39 12.096 Q1597.56 12.096 1602.75 16.714 Q1607.97 21.2916 1607.97 30.163 Q1607.97 39.1155 1602.75 43.6931 Q1597.56 48.2706 1587.39 48.2706 L1577.11 48.2706 L1577.11 72.576 L1568.92 72.576 L1568.92 12.096 Z" fill="#000000" fill-rule="evenodd" fill-opacity="1" /><path clip-path="url(#clip860)" d="M 0 0 M1632.68 49.7694 Q1623.65 49.7694 1620.17 51.8354 Q1616.68 53.9013 1616.68 58.8839 Q1616.68 62.8538 1619.28 65.2034 Q1621.91 67.5124 1626.41 67.5124 Q1632.6 67.5124 1636.33 63.1374 Q1640.1 58.7219 1640.1 51.4303 L1640.1 49.7694 L1632.68 49.7694 M1647.55 46.6907 L1647.55 72.576 L1640.1 72.576 L1640.1 65.6895 Q1637.55 69.8214 1633.74 71.8063 Q1629.93 73.7508 1624.42 73.7508 Q1617.45 73.7508 1613.32 69.8619 Q1609.23 65.9325 1609.23 59.3701 Q1609.23 51.7138 1614.33 47.825 Q1619.48 43.9361 1629.65 43.9361 L1640.1 43.9361 L1640.1 43.2069 Q1640.1 38.0623 1636.69 35.2672 Q1633.33 32.4315 1627.22 32.4315 Q1623.33 32.4315 1619.64 33.3632 Q1615.95 34.295 1612.55 36.1584 L1612.55 29.2718 Q1616.64 27.692 1620.49 26.9223 Q1624.34 26.1121 1627.98 26.1121 Q1637.83 26.1121 1642.69 31.2163 Q1647.55 36.3204 1647.55 46.6907 Z" fill="#000000" fill-rule="evenodd" fill-opacity="1" /><path clip-path="url(#clip860)" d="M 0 0 M1681.66 34.1734 Q1680.4 33.4443 1678.9 33.1202 Q1677.45 32.7556 1675.66 32.7556 Q1669.34 32.7556 1665.94 36.8875 Q1662.58 40.9789 1662.58 48.6757 L1662.58 72.576 L1655.09 72.576 L1655.09 27.2059 L1662.58 27.2059 L1662.58 34.2544 Q1664.93 30.1225 1668.7 28.1376 Q1672.46 26.1121 1677.85 26.1121 Q1678.62 26.1121 1679.55 26.2337 Q1680.48 26.3147 1681.62 26.5172 L1681.66 34.1734 Z" fill="#000000" fill-rule="evenodd" fill-opacity="1" /><path clip-path="url(#clip860)" d="M 0 0 M1710.1 49.7694 Q1701.06 49.7694 1697.58 51.8354 Q1694.1 53.9013 1694.1 58.8839 Q1694.1 62.8538 1696.69 65.2034 Q1699.32 67.5124 1703.82 67.5124 Q1710.02 67.5124 1713.74 63.1374 Q1717.51 58.7219 1717.51 51.4303 L1717.51 49.7694 L1710.1 49.7694 M1724.96 46.6907 L1724.96 72.576 L1717.51 72.576 L1717.51 65.6895 Q1714.96 69.8214 1711.15 71.8063 Q1707.34 73.7508 1701.83 73.7508 Q1694.87 73.7508 1690.73 69.8619 Q1686.64 65.9325 1686.64 59.3701 Q1686.64 51.7138 1691.75 47.825 Q1696.89 43.9361 1707.06 43.9361 L1717.51 43.9361 L1717.51 43.2069 Q1717.51 38.0623 1714.11 35.2672 Q1710.74 32.4315 1704.63 32.4315 Q1700.74 32.4315 1697.05 33.3632 Q1693.37 34.295 1689.96 36.1584 L1689.96 29.2718 Q1694.06 27.692 1697.9 26.9223 Q1701.75 26.1121 1705.4 26.1121 Q1715.24 26.1121 1720.1 31.2163 Q1724.96 36.3204 1724.96 46.6907 Z" fill="#000000" fill-rule="evenodd" fill-opacity="1" /><path clip-path="url(#clip860)" d="M 0 0 M1768.11 35.9153 Q1770.9 30.8922 1774.79 28.5022 Q1778.68 26.1121 1783.94 26.1121 Q1791.03 26.1121 1794.88 31.0947 Q1798.73 36.0368 1798.73 45.1919 L1798.73 72.576 L1791.24 72.576 L1791.24 45.4349 Q1791.24 38.913 1788.93 35.7533 Q1786.62 32.5936 1781.88 32.5936 Q1776.09 32.5936 1772.72 36.4419 Q1769.36 40.2903 1769.36 46.9338 L1769.36 72.576 L1761.87 72.576 L1761.87 45.4349 Q1761.87 38.8725 1759.56 35.7533 Q1757.25 32.5936 1752.43 32.5936 Q1746.72 32.5936 1743.35 36.4824 Q1739.99 40.3308 1739.99 46.9338 L1739.99 72.576 L1732.5 72.576 L1732.5 27.2059 L1739.99 27.2059 L1739.99 34.2544 Q1742.54 30.082 1746.11 28.0971 Q1749.67 26.1121 1754.58 26.1121 Q1759.52 26.1121 1762.96 28.6237 Q1766.44 31.1352 1768.11 35.9153 Z" fill="#000000" fill-rule="evenodd" fill-opacity="1" /><path clip-path="url(#clip860)" d="M 0 0 M1845.36 48.0275 L1845.36 51.6733 L1811.09 51.6733 Q1811.57 59.3701 1815.7 63.421 Q1819.88 67.4314 1827.29 67.4314 Q1831.58 67.4314 1835.59 66.3781 Q1839.64 65.3249 1843.61 63.2184 L1843.61 70.267 Q1839.6 71.9684 1835.39 72.8596 Q1831.18 73.7508 1826.84 73.7508 Q1815.99 73.7508 1809.63 67.4314 Q1803.31 61.1119 1803.31 50.3365 Q1803.31 39.1965 1809.3 32.6746 Q1815.34 26.1121 1825.55 26.1121 Q1834.7 26.1121 1840.01 32.0264 Q1845.36 37.9003 1845.36 48.0275 M1837.9 45.84 Q1837.82 39.7232 1834.46 36.0774 Q1831.14 32.4315 1825.63 32.4315 Q1819.39 32.4315 1815.62 35.9558 Q1811.9 39.4801 1811.33 45.8805 L1837.9 45.84 Z" fill="#000000" fill-rule="evenodd" fill-opacity="1" /><path clip-path="url(#clip860)" d="M 0 0 M1860.55 14.324 L1860.55 27.2059 L1875.9 27.2059 L1875.9 32.9987 L1860.55 32.9987 L1860.55 57.6282 Q1860.55 63.1779 1862.05 64.7578 Q1863.59 66.3376 1868.24 66.3376 L1875.9 66.3376 L1875.9 72.576 L1868.24 72.576 Q1859.62 72.576 1856.33 69.3758 Q1853.05 66.1351 1853.05 57.6282 L1853.05 32.9987 L1847.58 32.9987 L1847.58 27.2059 L1853.05 27.2059 L1853.05 14.324 L1860.55 14.324 Z" fill="#000000" fill-rule="evenodd" fill-opacity="1" /><path clip-path="url(#clip860)" d="M 0 0 M1922.53 48.0275 L1922.53 51.6733 L1888.26 51.6733 Q1888.74 59.3701 1892.87 63.421 Q1897.05 67.4314 1904.46 67.4314 Q1908.75 67.4314 1912.76 66.3781 Q1916.81 65.3249 1920.78 63.2184 L1920.78 70.267 Q1916.77 71.9684 1912.56 72.8596 Q1908.35 73.7508 1904.01 73.7508 Q1893.16 73.7508 1886.8 67.4314 Q1880.48 61.1119 1880.48 50.3365 Q1880.48 39.1965 1886.47 32.6746 Q1892.51 26.1121 1902.72 26.1121 Q1911.87 26.1121 1917.18 32.0264 Q1922.53 37.9003 1922.53 48.0275 M1915.07 45.84 Q1914.99 39.7232 1911.63 36.0774 Q1908.31 32.4315 1902.8 32.4315 Q1896.56 32.4315 1892.79 35.9558 Q1889.07 39.4801 1888.5 45.8805 L1915.07 45.84 Z" fill="#000000" fill-rule="evenodd" fill-opacity="1" /><path clip-path="url(#clip860)" d="M 0 0 M1956.63 34.1734 Q1955.38 33.4443 1953.88 33.1202 Q1952.42 32.7556 1950.64 32.7556 Q1944.32 32.7556 1940.92 36.8875 Q1937.56 40.9789 1937.56 48.6757 L1937.56 72.576 L1930.06 72.576 L1930.06 27.2059 L1937.56 27.2059 L1937.56 34.2544 Q1939.9 30.1225 1943.67 28.1376 Q1947.44 26.1121 1952.83 26.1121 Q1953.6 26.1121 1954.53 26.2337 Q1955.46 26.3147 1956.59 26.5172 L1956.63 34.1734 Z" fill="#000000" fill-rule="evenodd" fill-opacity="1" /><path clip-path="url(#clip860)" d="M 0 0 M1998.93 65.6895 L2027.49 65.6895 L2027.49 72.576 L1989.08 72.576 L1989.08 65.6895 Q1993.74 60.8689 2001.76 52.7671 Q2009.82 44.6248 2011.89 42.2752 Q2015.82 37.8598 2017.36 34.8216 Q2018.94 31.7429 2018.94 28.7857 Q2018.94 23.9651 2015.53 20.927 Q2012.17 17.8888 2006.74 17.8888 Q2002.9 17.8888 1998.6 19.2256 Q1994.35 20.5624 1989.49 23.2765 L1989.49 15.0127 Q1994.43 13.0277 1998.72 12.015 Q2003.02 11.0023 2006.58 11.0023 Q2015.98 11.0023 2021.57 15.7013 Q2027.16 20.4004 2027.16 28.2591 Q2027.16 31.9859 2025.74 35.3482 Q2024.37 38.6699 2020.68 43.2069 Q2019.67 44.3817 2014.24 50.0125 Q2008.81 55.6027 1998.93 65.6895 Z" fill="#000000" fill-rule="evenodd" fill-opacity="1" /><path clip-path="url(#clip863)" d="
M1390.09 934.902 L1390.09 1386.31 L1444.51 1386.31 L1444.51 934.902 L1390.09 934.902 L1390.09 934.902  Z
  " fill="#8b0000" fill-rule="evenodd" fill-opacity="1"/>
<polyline clip-path="url(#clip863)" style="stroke:#ffffff; stroke-width:4; stroke-opacity:1; fill:none" points="
  1390.09,934.902 1390.09,1386.31 1444.51,1386.31 1444.51,934.902 1390.09,934.902 
  "/>
<path clip-path="url(#clip863)" d="
M1444.51 428.129 L1444.51 1386.31 L1498.92 1386.31 L1498.92 428.129 L1444.51 428.129 L1444.51 428.129  Z
  " fill="#8b0000" fill-rule="evenodd" fill-opacity="1"/>
<polyline clip-path="url(#clip863)" style="stroke:#ffffff; stroke-width:4; stroke-opacity:1; fill:none" points="
  1444.51,428.129 1444.51,1386.31 1498.92,1386.31 1498.92,428.129 1444.51,428.129 
  "/>
<path clip-path="url(#clip863)" d="
M1498.92 319.865 L1498.92 1386.31 L1553.34 1386.31 L1553.34 319.865 L1498.92 319.865 L1498.92 319.865  Z
  " fill="#8b0000" fill-rule="evenodd" fill-opacity="1"/>
<polyline clip-path="url(#clip863)" style="stroke:#ffffff; stroke-width:4; stroke-opacity:1; fill:none" points="
  1498.92,319.865 1498.92,1386.31 1553.34,1386.31 1553.34,319.865 1498.92,319.865 
  "/>
<path clip-path="url(#clip863)" d="
M1553.34 160.254 L1553.34 1386.31 L1607.75 1386.31 L1607.75 160.254 L1553.34 160.254 L1553.34 160.254  Z
  " fill="#8b0000" fill-rule="evenodd" fill-opacity="1"/>
<polyline clip-path="url(#clip863)" style="stroke:#ffffff; stroke-width:4; stroke-opacity:1; fill:none" points="
  1553.34,160.254 1553.34,1386.31 1607.75,1386.31 1607.75,160.254 1553.34,160.254 
  "/>
<path clip-path="url(#clip863)" d="
M1607.75 406.164 L1607.75 1386.31 L1662.17 1386.31 L1662.17 406.164 L1607.75 406.164 L1607.75 406.164  Z
  " fill="#8b0000" fill-rule="evenodd" fill-opacity="1"/>
<polyline clip-path="url(#clip863)" style="stroke:#ffffff; stroke-width:4; stroke-opacity:1; fill:none" points="
  1607.75,406.164 1607.75,1386.31 1662.17,1386.31 1662.17,406.164 1607.75,406.164 
  "/>
<path clip-path="url(#clip863)" d="
M1662.17 513.809 L1662.17 1386.31 L1716.58 1386.31 L1716.58 513.809 L1662.17 513.809 L1662.17 513.809  Z
  " fill="#8b0000" fill-rule="evenodd" fill-opacity="1"/>
<polyline clip-path="url(#clip863)" style="stroke:#ffffff; stroke-width:4; stroke-opacity:1; fill:none" points="
  1662.17,513.809 1662.17,1386.31 1716.58,1386.31 1716.58,513.809 1662.17,513.809 
  "/>
<path clip-path="url(#clip863)" d="
M1716.58 531.957 L1716.58 1386.31 L1771 1386.31 L1771 531.957 L1716.58 531.957 L1716.58 531.957  Z
  " fill="#8b0000" fill-rule="evenodd" fill-opacity="1"/>
<polyline clip-path="url(#clip863)" style="stroke:#ffffff; stroke-width:4; stroke-opacity:1; fill:none" points="
  1716.58,531.957 1716.58,1386.31 1771,1386.31 1771,531.957 1716.58,531.957 
  "/>
<path clip-path="url(#clip863)" d="
M1771 607.686 L1771 1386.31 L1825.41 1386.31 L1825.41 607.686 L1771 607.686 L1771 607.686  Z
  " fill="#8b0000" fill-rule="evenodd" fill-opacity="1"/>
<polyline clip-path="url(#clip863)" style="stroke:#ffffff; stroke-width:4; stroke-opacity:1; fill:none" points="
  1771,607.686 1771,1386.31 1825.41,1386.31 1825.41,607.686 1771,607.686 
  "/>
<path clip-path="url(#clip863)" d="
M1825.41 790.597 L1825.41 1386.31 L1879.83 1386.31 L1879.83 790.597 L1825.41 790.597 L1825.41 790.597  Z
  " fill="#8b0000" fill-rule="evenodd" fill-opacity="1"/>
<polyline clip-path="url(#clip863)" style="stroke:#ffffff; stroke-width:4; stroke-opacity:1; fill:none" points="
  1825.41,790.597 1825.41,1386.31 1879.83,1386.31 1879.83,790.597 1825.41,790.597 
  "/>
<path clip-path="url(#clip863)" d="
M1879.83 903.285 L1879.83 1386.31 L1934.24 1386.31 L1934.24 903.285 L1879.83 903.285 L1879.83 903.285  Z
  " fill="#8b0000" fill-rule="evenodd" fill-opacity="1"/>
<polyline clip-path="url(#clip863)" style="stroke:#ffffff; stroke-width:4; stroke-opacity:1; fill:none" points="
  1879.83,903.285 1879.83,1386.31 1934.24,1386.31 1934.24,903.285 1879.83,903.285 
  "/>
<path clip-path="url(#clip863)" d="
M1934.24 1039.38 L1934.24 1386.31 L1988.66 1386.31 L1988.66 1039.38 L1934.24 1039.38 L1934.24 1039.38  Z
  " fill="#8b0000" fill-rule="evenodd" fill-opacity="1"/>
<polyline clip-path="url(#clip863)" style="stroke:#ffffff; stroke-width:4; stroke-opacity:1; fill:none" points="
  1934.24,1039.38 1934.24,1386.31 1988.66,1386.31 1988.66,1039.38 1934.24,1039.38 
  "/>
<path clip-path="url(#clip863)" d="
M1988.66 1160.87 L1988.66 1386.31 L2043.07 1386.31 L2043.07 1160.87 L1988.66 1160.87 L1988.66 1160.87  Z
  " fill="#8b0000" fill-rule="evenodd" fill-opacity="1"/>
<polyline clip-path="url(#clip863)" style="stroke:#ffffff; stroke-width:4; stroke-opacity:1; fill:none" points="
  1988.66,1160.87 1988.66,1386.31 2043.07,1386.31 2043.07,1160.87 1988.66,1160.87 
  "/>
<path clip-path="url(#clip863)" d="
M2043.07 1196.91 L2043.07 1386.31 L2097.48 1386.31 L2097.48 1196.91 L2043.07 1196.91 L2043.07 1196.91  Z
  " fill="#8b0000" fill-rule="evenodd" fill-opacity="1"/>
<polyline clip-path="url(#clip863)" style="stroke:#ffffff; stroke-width:4; stroke-opacity:1; fill:none" points="
  2043.07,1196.91 2043.07,1386.31 2097.48,1386.31 2097.48,1196.91 2043.07,1196.91 
  "/>
<path clip-path="url(#clip863)" d="
M2097.48 1257.35 L2097.48 1386.31 L2151.9 1386.31 L2151.9 1257.35 L2097.48 1257.35 L2097.48 1257.35  Z
  " fill="#8b0000" fill-rule="evenodd" fill-opacity="1"/>
<polyline clip-path="url(#clip863)" style="stroke:#ffffff; stroke-width:4; stroke-opacity:1; fill:none" points="
  2097.48,1257.35 2097.48,1386.31 2151.9,1386.31 2151.9,1257.35 2097.48,1257.35 
  "/>
<path clip-path="url(#clip863)" d="
M2151.9 1342.95 L2151.9 1386.31 L2206.31 1386.31 L2206.31 1342.95 L2151.9 1342.95 L2151.9 1342.95  Z
  " fill="#8b0000" fill-rule="evenodd" fill-opacity="1"/>
<polyline clip-path="url(#clip863)" style="stroke:#ffffff; stroke-width:4; stroke-opacity:1; fill:none" points="
  2151.9,1342.95 2151.9,1386.31 2206.31,1386.31 2206.31,1342.95 2151.9,1342.95 
  "/>
</svg>
