<?xml version="1.0" encoding="utf-8"?>
<svg xmlns="http://www.w3.org/2000/svg" xmlns:xlink="http://www.w3.org/1999/xlink" width="576" height="384" viewBox="0 0 2304 1536">
<defs>
  <clipPath id="clip820">
    <rect x="0" y="0" width="2304" height="1536"/>
  </clipPath>
</defs>
<path clip-path="url(#clip820)" d="
M0 1536 L2304 1536 L2304 0 L0 0  Z
  " fill="#ffffff" fill-rule="evenodd" fill-opacity="1"/>
<defs>
  <clipPath id="clip821">
    <rect x="460" y="0" width="1614" height="1536"/>
  </clipPath>
</defs>
<path clip-path="url(#clip820)" d="
M162.814 1423.09 L1105.16 1423.09 L1105.16 123.472 L162.814 123.472  Z
  " fill="#ffffff" fill-rule="evenodd" fill-opacity="1"/>
<defs>
  <clipPath id="clip822">
    <rect x="162" y="123" width="943" height="1301"/>
  </clipPath>
</defs>
<polyline clip-path="url(#clip822)" style="stroke:#000000; stroke-width:2; stroke-opacity:0.1; fill:none" points="
  214.645,1423.09 214.645,123.472 
  "/>
<polyline clip-path="url(#clip822)" style="stroke:#000000; stroke-width:2; stroke-opacity:0.1; fill:none" points="
  367.133,1423.09 367.133,123.472 
  "/>
<polyline clip-path="url(#clip822)" style="stroke:#000000; stroke-width:2; stroke-opacity:0.1; fill:none" points="
  519.621,1423.09 519.621,123.472 
  "/>
<polyline clip-path="url(#clip822)" style="stroke:#000000; stroke-width:2; stroke-opacity:0.1; fill:none" points="
  672.11,1423.09 672.11,123.472 
  "/>
<polyline clip-path="url(#clip822)" style="stroke:#000000; stroke-width:2; stroke-opacity:0.1; fill:none" points="
  824.598,1423.09 824.598,123.472 
  "/>
<polyline clip-path="url(#clip822)" style="stroke:#000000; stroke-width:2; stroke-opacity:0.1; fill:none" points="
  977.086,1423.09 977.086,123.472 
  "/>
<polyline clip-path="url(#clip822)" style="stroke:#000000; stroke-width:2; stroke-opacity:0.1; fill:none" points="
  162.814,1386.31 1105.16,1386.31 
  "/>
<polyline clip-path="url(#clip822)" style="stroke:#000000; stroke-width:2; stroke-opacity:0.1; fill:none" points="
  162.814,966.425 1105.16,966.425 
  "/>
<polyline clip-path="url(#clip822)" style="stroke:#000000; stroke-width:2; stroke-opacity:0.1; fill:none" points="
  162.814,546.544 1105.16,546.544 
  "/>
<polyline clip-path="url(#clip822)" style="stroke:#000000; stroke-width:2; stroke-opacity:0.1; fill:none" points="
  162.814,126.663 1105.16,126.663 
  "/>
<polyline clip-path="url(#clip820)" style="stroke:#000000; stroke-width:4; stroke-opacity:1; fill:none" points="
  162.814,1423.09 1105.16,1423.09 
  "/>
<polyline clip-path="url(#clip820)" style="stroke:#000000; stroke-width:4; stroke-opacity:1; fill:none" points="
  162.814,1423.09 162.814,123.472 
  "/>
<polyline clip-path="url(#clip820)" style="stroke:#000000; stroke-width:4; stroke-opacity:1; fill:none" points="
  214.645,1423.09 214.645,1407.49 
  "/>
<polyline clip-path="url(#clip820)" style="stroke:#000000; stroke-width:4; stroke-opacity:1; fill:none" points="
  367.133,1423.09 367.133,1407.49 
  "/>
<polyline clip-path="url(#clip820)" style="stroke:#000000; stroke-width:4; stroke-opacity:1; fill:none" points="
  519.621,1423.09 519.621,1407.49 
  "/>
<polyline clip-path="url(#clip820)" style="stroke:#000000; stroke-width:4; stroke-opacity:1; fill:none" points="
  672.11,1423.09 672.11,1407.49 
  "/>
<polyline clip-path="url(#clip820)" style="stroke:#000000; stroke-width:4; stroke-opacity:1; fill:none" points="
  824.598,1423.09 824.598,1407.49 
  "/>
<polyline clip-path="url(#clip820)" style="stroke:#000000; stroke-width:4; stroke-opacity:1; fill:none" points="
  977.086,1423.09 977.086,1407.49 
  "/>
<polyline clip-path="url(#clip820)" style="stroke:#000000; stroke-width:4; stroke-opacity:1; fill:none" points="
  162.814,1386.31 174.122,1386.31 
  "/>
<polyline clip-path="url(#clip820)" style="stroke:#000000; stroke-width:4; stroke-opacity:1; fill:none" points="
  162.814,966.425 174.122,966.425 
  "/>
<polyline clip-path="url(#clip820)" style="stroke:#000000; stroke-width:4; stroke-opacity:1; fill:none" points="
  162.814,546.544 174.122,546.544 
  "/>
<polyline clip-path="url(#clip820)" style="stroke:#000000; stroke-width:4; stroke-opacity:1; fill:none" points="
  162.814,126.663 174.122,126.663 
  "/>
<path clip-path="url(#clip820)" d="M 0 0 M182.654 1444.6 Q179.043 1444.6 177.215 1448.16 Q175.409 1451.71 175.409 1458.83 Q175.409 1465.94 177.215 1469.51 Q179.043 1473.05 182.654 1473.05 Q186.289 1473.05 188.094 1469.51 Q189.923 1465.94 189.923 1458.83 Q189.923 1451.71 188.094 1448.16 Q186.289 1444.6 182.654 1444.6 M182.654 1440.89 Q188.464 1440.89 191.52 1445.5 Q194.599 1450.08 194.599 1458.83 Q194.599 1467.56 191.52 1472.17 Q188.464 1476.75 182.654 1476.75 Q176.844 1476.75 173.765 1472.17 Q170.71 1467.56 170.71 1458.83 Q170.71 1450.08 173.765 1445.5 Q176.844 1440.89 182.654 1440.89 Z" fill="#000000" fill-rule="evenodd" fill-opacity="1" /><path clip-path="url(#clip820)" d="M 0 0 M199.668 1470.2 L204.552 1470.2 L204.552 1476.08 L199.668 1476.08 L199.668 1470.2 Z" fill="#000000" fill-rule="evenodd" fill-opacity="1" /><path clip-path="url(#clip820)" d="M 0 0 M219.622 1444.6 Q216.011 1444.6 214.182 1448.16 Q212.376 1451.71 212.376 1458.83 Q212.376 1465.94 214.182 1469.51 Q216.011 1473.05 219.622 1473.05 Q223.256 1473.05 225.061 1469.51 Q226.89 1465.94 226.89 1458.83 Q226.89 1451.71 225.061 1448.16 Q223.256 1444.6 219.622 1444.6 M219.622 1440.89 Q225.432 1440.89 228.487 1445.5 Q231.566 1450.08 231.566 1458.83 Q231.566 1467.56 228.487 1472.17 Q225.432 1476.75 219.622 1476.75 Q213.812 1476.75 210.733 1472.17 Q207.677 1467.56 207.677 1458.83 Q207.677 1450.08 210.733 1445.5 Q213.812 1440.89 219.622 1440.89 Z" fill="#000000" fill-rule="evenodd" fill-opacity="1" /><path clip-path="url(#clip820)" d="M 0 0 M246.635 1444.6 Q243.024 1444.6 241.196 1448.16 Q239.39 1451.71 239.39 1458.83 Q239.39 1465.94 241.196 1469.51 Q243.024 1473.05 246.635 1473.05 Q250.27 1473.05 252.075 1469.51 Q253.904 1465.94 253.904 1458.83 Q253.904 1451.71 252.075 1448.16 Q250.27 1444.6 246.635 1444.6 M246.635 1440.89 Q252.446 1440.89 255.501 1445.5 Q258.58 1450.08 258.58 1458.83 Q258.58 1467.56 255.501 1472.17 Q252.446 1476.75 246.635 1476.75 Q240.825 1476.75 237.747 1472.17 Q234.691 1467.56 234.691 1458.83 Q234.691 1450.08 237.747 1445.5 Q240.825 1440.89 246.635 1440.89 Z" fill="#000000" fill-rule="evenodd" fill-opacity="1" /><path clip-path="url(#clip820)" d="M 0 0 M335.756 1444.6 Q332.145 1444.6 330.316 1448.16 Q328.511 1451.71 328.511 1458.83 Q328.511 1465.94 330.316 1469.51 Q332.145 1473.05 335.756 1473.05 Q339.39 1473.05 341.196 1469.51 Q343.024 1465.94 343.024 1458.83 Q343.024 1451.71 341.196 1448.16 Q339.39 1444.6 335.756 1444.6 M335.756 1440.89 Q341.566 1440.89 344.622 1445.5 Q347.7 1450.08 347.7 1458.83 Q347.7 1467.56 344.622 1472.17 Q341.566 1476.75 335.756 1476.75 Q329.946 1476.75 326.867 1472.17 Q323.812 1467.56 323.812 1458.83 Q323.812 1450.08 326.867 1445.5 Q329.946 1440.89 335.756 1440.89 Z" fill="#000000" fill-rule="evenodd" fill-opacity="1" /><path clip-path="url(#clip820)" d="M 0 0 M352.77 1470.2 L357.654 1470.2 L357.654 1476.08 L352.77 1476.08 L352.77 1470.2 Z" fill="#000000" fill-rule="evenodd" fill-opacity="1" /><path clip-path="url(#clip820)" d="M 0 0 M372.723 1444.6 Q369.112 1444.6 367.284 1448.16 Q365.478 1451.71 365.478 1458.83 Q365.478 1465.94 367.284 1469.51 Q369.112 1473.05 372.723 1473.05 Q376.358 1473.05 378.163 1469.51 Q379.992 1465.94 379.992 1458.83 Q379.992 1451.71 378.163 1448.16 Q376.358 1444.6 372.723 1444.6 M372.723 1440.89 Q378.534 1440.89 381.589 1445.5 Q384.668 1450.08 384.668 1458.83 Q384.668 1467.56 381.589 1472.17 Q378.534 1476.75 372.723 1476.75 Q366.913 1476.75 363.835 1472.17 Q360.779 1467.56 360.779 1458.83 Q360.779 1450.08 363.835 1445.5 Q366.913 1440.89 372.723 1440.89 Z" fill="#000000" fill-rule="evenodd" fill-opacity="1" /><path clip-path="url(#clip820)" d="M 0 0 M390.547 1472.14 L398.186 1472.14 L398.186 1445.78 L389.876 1447.45 L389.876 1443.19 L398.14 1441.52 L402.816 1441.52 L402.816 1472.14 L410.455 1472.14 L410.455 1476.08 L390.547 1476.08 L390.547 1472.14 Z" fill="#000000" fill-rule="evenodd" fill-opacity="1" /><path clip-path="url(#clip820)" d="M 0 0 M488.429 1444.6 Q484.818 1444.6 482.99 1448.16 Q481.184 1451.71 481.184 1458.83 Q481.184 1465.94 482.99 1469.51 Q484.818 1473.05 488.429 1473.05 Q492.064 1473.05 493.869 1469.51 Q495.698 1465.94 495.698 1458.83 Q495.698 1451.71 493.869 1448.16 Q492.064 1444.6 488.429 1444.6 M488.429 1440.89 Q494.24 1440.89 497.295 1445.5 Q500.374 1450.08 500.374 1458.83 Q500.374 1467.56 497.295 1472.17 Q494.24 1476.75 488.429 1476.75 Q482.619 1476.75 479.541 1472.17 Q476.485 1467.56 476.485 1458.83 Q476.485 1450.08 479.541 1445.5 Q482.619 1440.89 488.429 1440.89 Z" fill="#000000" fill-rule="evenodd" fill-opacity="1" /><path clip-path="url(#clip820)" d="M 0 0 M505.443 1470.2 L510.327 1470.2 L510.327 1476.08 L505.443 1476.08 L505.443 1470.2 Z" fill="#000000" fill-rule="evenodd" fill-opacity="1" /><path clip-path="url(#clip820)" d="M 0 0 M525.397 1444.6 Q521.786 1444.6 519.957 1448.16 Q518.151 1451.71 518.151 1458.83 Q518.151 1465.94 519.957 1469.51 Q521.786 1473.05 525.397 1473.05 Q529.031 1473.05 530.837 1469.51 Q532.665 1465.94 532.665 1458.83 Q532.665 1451.71 530.837 1448.16 Q529.031 1444.6 525.397 1444.6 M525.397 1440.89 Q531.207 1440.89 534.262 1445.5 Q537.341 1450.08 537.341 1458.83 Q537.341 1467.56 534.262 1472.17 Q531.207 1476.75 525.397 1476.75 Q519.587 1476.75 516.508 1472.17 Q513.452 1467.56 513.452 1458.83 Q513.452 1450.08 516.508 1445.5 Q519.587 1440.89 525.397 1440.89 Z" fill="#000000" fill-rule="evenodd" fill-opacity="1" /><path clip-path="url(#clip820)" d="M 0 0 M546.438 1472.14 L562.758 1472.14 L562.758 1476.08 L540.813 1476.08 L540.813 1472.14 Q543.475 1469.39 548.059 1464.76 Q552.665 1460.11 553.846 1458.77 Q556.091 1456.24 556.971 1454.51 Q557.873 1452.75 557.873 1451.06 Q557.873 1448.3 555.929 1446.57 Q554.008 1444.83 550.906 1444.83 Q548.707 1444.83 546.253 1445.59 Q543.823 1446.36 541.045 1447.91 L541.045 1443.19 Q543.869 1442.05 546.323 1441.47 Q548.776 1440.89 550.813 1440.89 Q556.184 1440.89 559.378 1443.58 Q562.573 1446.27 562.573 1450.76 Q562.573 1452.89 561.762 1454.81 Q560.975 1456.7 558.869 1459.3 Q558.29 1459.97 555.188 1463.19 Q552.086 1466.38 546.438 1472.14 Z" fill="#000000" fill-rule="evenodd" fill-opacity="1" /><path clip-path="url(#clip820)" d="M 0 0 M640.443 1444.6 Q636.832 1444.6 635.003 1448.16 Q633.198 1451.71 633.198 1458.83 Q633.198 1465.94 635.003 1469.51 Q636.832 1473.05 640.443 1473.05 Q644.077 1473.05 645.883 1469.51 Q647.712 1465.94 647.712 1458.83 Q647.712 1451.71 645.883 1448.16 Q644.077 1444.6 640.443 1444.6 M640.443 1440.89 Q646.253 1440.89 649.309 1445.5 Q652.388 1450.08 652.388 1458.83 Q652.388 1467.56 649.309 1472.17 Q646.253 1476.75 640.443 1476.75 Q634.633 1476.75 631.554 1472.17 Q628.499 1467.56 628.499 1458.83 Q628.499 1450.08 631.554 1445.5 Q634.633 1440.89 640.443 1440.89 Z" fill="#000000" fill-rule="evenodd" fill-opacity="1" /><path clip-path="url(#clip820)" d="M 0 0 M657.457 1470.2 L662.341 1470.2 L662.341 1476.08 L657.457 1476.08 L657.457 1470.2 Z" fill="#000000" fill-rule="evenodd" fill-opacity="1" /><path clip-path="url(#clip820)" d="M 0 0 M677.411 1444.6 Q673.799 1444.6 671.971 1448.16 Q670.165 1451.71 670.165 1458.83 Q670.165 1465.94 671.971 1469.51 Q673.799 1473.05 677.411 1473.05 Q681.045 1473.05 682.85 1469.51 Q684.679 1465.94 684.679 1458.83 Q684.679 1451.71 682.85 1448.16 Q681.045 1444.6 677.411 1444.6 M677.411 1440.89 Q683.221 1440.89 686.276 1445.5 Q689.355 1450.08 689.355 1458.83 Q689.355 1467.56 686.276 1472.17 Q683.221 1476.75 677.411 1476.75 Q671.6 1476.75 668.522 1472.17 Q665.466 1467.56 665.466 1458.83 Q665.466 1450.08 668.522 1445.5 Q671.6 1440.89 677.411 1440.89 Z" fill="#000000" fill-rule="evenodd" fill-opacity="1" /><path clip-path="url(#clip820)" d="M 0 0 M708.591 1457.45 Q711.947 1458.16 713.822 1460.43 Q715.72 1462.7 715.72 1466.03 Q715.72 1471.15 712.202 1473.95 Q708.683 1476.75 702.202 1476.75 Q700.026 1476.75 697.711 1476.31 Q695.42 1475.89 692.966 1475.04 L692.966 1470.52 Q694.91 1471.66 697.225 1472.24 Q699.54 1472.82 702.063 1472.82 Q706.461 1472.82 708.753 1471.08 Q711.068 1469.34 711.068 1466.03 Q711.068 1462.98 708.915 1461.27 Q706.785 1459.53 702.966 1459.53 L698.938 1459.53 L698.938 1455.69 L703.151 1455.69 Q706.6 1455.69 708.429 1454.32 Q710.258 1452.93 710.258 1450.34 Q710.258 1447.68 708.359 1446.27 Q706.484 1444.83 702.966 1444.83 Q701.045 1444.83 698.846 1445.25 Q696.647 1445.66 694.008 1446.54 L694.008 1442.38 Q696.67 1441.64 698.984 1441.27 Q701.322 1440.89 703.383 1440.89 Q708.707 1440.89 711.808 1443.33 Q714.91 1445.73 714.91 1449.85 Q714.91 1452.72 713.267 1454.71 Q711.623 1456.68 708.591 1457.45 Z" fill="#000000" fill-rule="evenodd" fill-opacity="1" /><path clip-path="url(#clip820)" d="M 0 0 M792.364 1444.6 Q788.753 1444.6 786.924 1448.16 Q785.119 1451.71 785.119 1458.83 Q785.119 1465.94 786.924 1469.51 Q788.753 1473.05 792.364 1473.05 Q795.998 1473.05 797.804 1469.51 Q799.633 1465.94 799.633 1458.83 Q799.633 1451.71 797.804 1448.16 Q795.998 1444.6 792.364 1444.6 M792.364 1440.89 Q798.174 1440.89 801.23 1445.5 Q804.309 1450.08 804.309 1458.83 Q804.309 1467.56 801.23 1472.17 Q798.174 1476.75 792.364 1476.75 Q786.554 1476.75 783.475 1472.17 Q780.42 1467.56 780.42 1458.83 Q780.42 1450.08 783.475 1445.5 Q786.554 1440.89 792.364 1440.89 Z" fill="#000000" fill-rule="evenodd" fill-opacity="1" /><path clip-path="url(#clip820)" d="M 0 0 M809.378 1470.2 L814.262 1470.2 L814.262 1476.08 L809.378 1476.08 L809.378 1470.2 Z" fill="#000000" fill-rule="evenodd" fill-opacity="1" /><path clip-path="url(#clip820)" d="M 0 0 M829.332 1444.6 Q825.721 1444.6 823.892 1448.16 Q822.086 1451.71 822.086 1458.83 Q822.086 1465.94 823.892 1469.51 Q825.721 1473.05 829.332 1473.05 Q832.966 1473.05 834.771 1469.51 Q836.6 1465.94 836.6 1458.83 Q836.6 1451.71 834.771 1448.16 Q832.966 1444.6 829.332 1444.6 M829.332 1440.89 Q835.142 1440.89 838.197 1445.5 Q841.276 1450.08 841.276 1458.83 Q841.276 1467.56 838.197 1472.17 Q835.142 1476.75 829.332 1476.75 Q823.521 1476.75 820.443 1472.17 Q817.387 1467.56 817.387 1458.83 Q817.387 1450.08 820.443 1445.5 Q823.521 1440.89 829.332 1440.89 Z" fill="#000000" fill-rule="evenodd" fill-opacity="1" /><path clip-path="url(#clip820)" d="M 0 0 M859.193 1445.59 L847.387 1464.04 L859.193 1464.04 L859.193 1445.59 M857.966 1441.52 L863.845 1441.52 L863.845 1464.04 L868.776 1464.04 L868.776 1467.93 L863.845 1467.93 L863.845 1476.08 L859.193 1476.08 L859.193 1467.93 L843.591 1467.93 L843.591 1463.42 L857.966 1441.52 Z" fill="#000000" fill-rule="evenodd" fill-opacity="1" /><path clip-path="url(#clip820)" d="M 0 0 M945.593 1444.6 Q941.982 1444.6 940.153 1448.16 Q938.348 1451.71 938.348 1458.83 Q938.348 1465.94 940.153 1469.51 Q941.982 1473.05 945.593 1473.05 Q949.227 1473.05 951.033 1469.51 Q952.862 1465.94 952.862 1458.83 Q952.862 1451.71 951.033 1448.16 Q949.227 1444.6 945.593 1444.6 M945.593 1440.89 Q951.403 1440.89 954.459 1445.5 Q957.538 1450.08 957.538 1458.83 Q957.538 1467.56 954.459 1472.17 Q951.403 1476.75 945.593 1476.75 Q939.783 1476.75 936.704 1472.17 Q933.649 1467.56 933.649 1458.83 Q933.649 1450.08 936.704 1445.5 Q939.783 1440.89 945.593 1440.89 Z" fill="#000000" fill-rule="evenodd" fill-opacity="1" /><path clip-path="url(#clip820)" d="M 0 0 M962.607 1470.2 L967.491 1470.2 L967.491 1476.08 L962.607 1476.08 L962.607 1470.2 Z" fill="#000000" fill-rule="evenodd" fill-opacity="1" /><path clip-path="url(#clip820)" d="M 0 0 M982.561 1444.6 Q978.95 1444.6 977.121 1448.16 Q975.315 1451.71 975.315 1458.83 Q975.315 1465.94 977.121 1469.51 Q978.95 1473.05 982.561 1473.05 Q986.195 1473.05 988 1469.51 Q989.829 1465.94 989.829 1458.83 Q989.829 1451.71 988 1448.16 Q986.195 1444.6 982.561 1444.6 M982.561 1440.89 Q988.371 1440.89 991.426 1445.5 Q994.505 1450.08 994.505 1458.83 Q994.505 1467.56 991.426 1472.17 Q988.371 1476.75 982.561 1476.75 Q976.75 1476.75 973.672 1472.17 Q970.616 1467.56 970.616 1458.83 Q970.616 1450.08 973.672 1445.5 Q976.75 1440.89 982.561 1440.89 Z" fill="#000000" fill-rule="evenodd" fill-opacity="1" /><path clip-path="url(#clip820)" d="M 0 0 M999.621 1441.52 L1017.98 1441.52 L1017.98 1445.46 L1003.9 1445.46 L1003.9 1453.93 Q1004.92 1453.58 1005.94 1453.42 Q1006.96 1453.23 1007.98 1453.23 Q1013.76 1453.23 1017.14 1456.4 Q1020.52 1459.58 1020.52 1464.99 Q1020.52 1470.57 1017.05 1473.67 Q1013.58 1476.75 1007.26 1476.75 Q1005.08 1476.75 1002.82 1476.38 Q1000.57 1476.01 998.162 1475.27 L998.162 1470.57 Q1000.25 1471.7 1002.47 1472.26 Q1004.69 1472.82 1007.17 1472.82 Q1011.17 1472.82 1013.51 1470.71 Q1015.85 1468.6 1015.85 1464.99 Q1015.85 1461.38 1013.51 1459.27 Q1011.17 1457.17 1007.17 1457.17 Q1005.29 1457.17 1003.42 1457.58 Q1001.57 1458 999.621 1458.88 L999.621 1441.52 Z" fill="#000000" fill-rule="evenodd" fill-opacity="1" /><path clip-path="url(#clip820)" d="M 0 0 M127.83 1372.1 Q124.219 1372.1 122.39 1375.67 Q120.584 1379.21 120.584 1386.34 Q120.584 1393.45 122.39 1397.01 Q124.219 1400.55 127.83 1400.55 Q131.464 1400.55 133.27 1397.01 Q135.098 1393.45 135.098 1386.34 Q135.098 1379.21 133.27 1375.67 Q131.464 1372.1 127.83 1372.1 M127.83 1368.4 Q133.64 1368.4 136.695 1373.01 Q139.774 1377.59 139.774 1386.34 Q139.774 1395.07 136.695 1399.67 Q133.64 1404.26 127.83 1404.26 Q122.02 1404.26 118.941 1399.67 Q115.885 1395.07 115.885 1386.34 Q115.885 1377.59 118.941 1373.01 Q122.02 1368.4 127.83 1368.4 Z" fill="#000000" fill-rule="evenodd" fill-opacity="1" /><path clip-path="url(#clip820)" d="M 0 0 M65.8393 979.77 L73.4782 979.77 L73.4782 953.405 L65.168 955.071 L65.168 950.812 L73.4319 949.145 L78.1078 949.145 L78.1078 979.77 L85.7466 979.77 L85.7466 983.705 L65.8393 983.705 L65.8393 979.77 Z" fill="#000000" fill-rule="evenodd" fill-opacity="1" /><path clip-path="url(#clip820)" d="M 0 0 M100.816 952.224 Q97.2049 952.224 95.3762 955.789 Q93.5707 959.33 93.5707 966.46 Q93.5707 973.566 95.3762 977.131 Q97.2049 980.673 100.816 980.673 Q104.45 980.673 106.256 977.131 Q108.084 973.566 108.084 966.46 Q108.084 959.33 106.256 955.789 Q104.45 952.224 100.816 952.224 M100.816 948.52 Q106.626 948.52 109.682 953.127 Q112.76 957.71 112.76 966.46 Q112.76 975.187 109.682 979.793 Q106.626 984.377 100.816 984.377 Q95.0058 984.377 91.9272 979.793 Q88.8716 975.187 88.8716 966.46 Q88.8716 957.71 91.9272 953.127 Q95.0058 948.52 100.816 948.52 Z" fill="#000000" fill-rule="evenodd" fill-opacity="1" /><path clip-path="url(#clip820)" d="M 0 0 M127.83 952.224 Q124.219 952.224 122.39 955.789 Q120.584 959.33 120.584 966.46 Q120.584 973.566 122.39 977.131 Q124.219 980.673 127.83 980.673 Q131.464 980.673 133.27 977.131 Q135.098 973.566 135.098 966.46 Q135.098 959.33 133.27 955.789 Q131.464 952.224 127.83 952.224 M127.83 948.52 Q133.64 948.52 136.695 953.127 Q139.774 957.71 139.774 966.46 Q139.774 975.187 136.695 979.793 Q133.64 984.377 127.83 984.377 Q122.02 984.377 118.941 979.793 Q115.885 975.187 115.885 966.46 Q115.885 957.71 118.941 953.127 Q122.02 948.52 127.83 948.52 Z" fill="#000000" fill-rule="evenodd" fill-opacity="1" /><path clip-path="url(#clip820)" d="M 0 0 M69.4273 559.889 L85.7466 559.889 L85.7466 563.824 L63.8023 563.824 L63.8023 559.889 Q66.4643 557.134 71.0476 552.505 Q75.6541 547.852 76.8346 546.51 Q79.08 543.986 79.9596 542.25 Q80.8624 540.491 80.8624 538.801 Q80.8624 536.047 78.918 534.311 Q76.9967 532.574 73.8948 532.574 Q71.6958 532.574 69.2421 533.338 Q66.8115 534.102 64.0338 535.653 L64.0338 530.931 Q66.8578 529.797 69.3115 529.218 Q71.7652 528.639 73.8023 528.639 Q79.1726 528.639 82.367 531.324 Q85.5614 534.01 85.5614 538.5 Q85.5614 540.63 84.7513 542.551 Q83.9642 544.449 81.8578 547.042 Q81.2791 547.713 78.1772 550.931 Q75.0754 554.125 69.4273 559.889 Z" fill="#000000" fill-rule="evenodd" fill-opacity="1" /><path clip-path="url(#clip820)" d="M 0 0 M100.816 532.343 Q97.2049 532.343 95.3762 535.908 Q93.5707 539.449 93.5707 546.579 Q93.5707 553.685 95.3762 557.25 Q97.2049 560.792 100.816 560.792 Q104.45 560.792 106.256 557.25 Q108.084 553.685 108.084 546.579 Q108.084 539.449 106.256 535.908 Q104.45 532.343 100.816 532.343 M100.816 528.639 Q106.626 528.639 109.682 533.246 Q112.76 537.829 112.76 546.579 Q112.76 555.306 109.682 559.912 Q106.626 564.496 100.816 564.496 Q95.0058 564.496 91.9272 559.912 Q88.8716 555.306 88.8716 546.579 Q88.8716 537.829 91.9272 533.246 Q95.0058 528.639 100.816 528.639 Z" fill="#000000" fill-rule="evenodd" fill-opacity="1" /><path clip-path="url(#clip820)" d="M 0 0 M127.83 532.343 Q124.219 532.343 122.39 535.908 Q120.584 539.449 120.584 546.579 Q120.584 553.685 122.39 557.25 Q124.219 560.792 127.83 560.792 Q131.464 560.792 133.27 557.25 Q135.098 553.685 135.098 546.579 Q135.098 539.449 133.27 535.908 Q131.464 532.343 127.83 532.343 M127.83 528.639 Q133.64 528.639 136.695 533.246 Q139.774 537.829 139.774 546.579 Q139.774 555.306 136.695 559.912 Q133.64 564.496 127.83 564.496 Q122.02 564.496 118.941 559.912 Q115.885 555.306 115.885 546.579 Q115.885 537.829 118.941 533.246 Q122.02 528.639 127.83 528.639 Z" fill="#000000" fill-rule="evenodd" fill-opacity="1" /><path clip-path="url(#clip820)" d="M 0 0 M78.617 125.309 Q81.9735 126.027 83.8485 128.295 Q85.7466 130.564 85.7466 133.897 Q85.7466 139.013 82.2281 141.814 Q78.7096 144.615 72.2282 144.615 Q70.0523 144.615 67.7375 144.175 Q65.4458 143.758 62.9921 142.902 L62.9921 138.388 Q64.9366 139.522 67.2514 140.101 Q69.5662 140.679 72.0893 140.679 Q76.4874 140.679 78.7791 138.943 Q81.0939 137.207 81.0939 133.897 Q81.0939 130.841 78.9411 129.128 Q76.8115 127.392 72.9921 127.392 L68.9643 127.392 L68.9643 123.55 L73.1773 123.55 Q76.6263 123.55 78.455 122.184 Q80.2837 120.795 80.2837 118.203 Q80.2837 115.541 78.3856 114.129 Q76.5106 112.693 72.9921 112.693 Q71.0708 112.693 68.8717 113.11 Q66.6727 113.527 64.0338 114.406 L64.0338 110.24 Q66.6958 109.499 69.0106 109.129 Q71.3486 108.758 73.4087 108.758 Q78.7328 108.758 81.8346 111.189 Q84.9365 113.596 84.9365 117.717 Q84.9365 120.587 83.2929 122.578 Q81.6494 124.545 78.617 125.309 Z" fill="#000000" fill-rule="evenodd" fill-opacity="1" /><path clip-path="url(#clip820)" d="M 0 0 M100.816 112.462 Q97.2049 112.462 95.3762 116.027 Q93.5707 119.568 93.5707 126.698 Q93.5707 133.804 95.3762 137.369 Q97.2049 140.911 100.816 140.911 Q104.45 140.911 106.256 137.369 Q108.084 133.804 108.084 126.698 Q108.084 119.568 106.256 116.027 Q104.45 112.462 100.816 112.462 M100.816 108.758 Q106.626 108.758 109.682 113.365 Q112.76 117.948 112.76 126.698 Q112.76 135.425 109.682 140.031 Q106.626 144.615 100.816 144.615 Q95.0058 144.615 91.9272 140.031 Q88.8716 135.425 88.8716 126.698 Q88.8716 117.948 91.9272 113.365 Q95.0058 108.758 100.816 108.758 Z" fill="#000000" fill-rule="evenodd" fill-opacity="1" /><path clip-path="url(#clip820)" d="M 0 0 M127.83 112.462 Q124.219 112.462 122.39 116.027 Q120.584 119.568 120.584 126.698 Q120.584 133.804 122.39 137.369 Q124.219 140.911 127.83 140.911 Q131.464 140.911 133.27 137.369 Q135.098 133.804 135.098 126.698 Q135.098 119.568 133.27 116.027 Q131.464 112.462 127.83 112.462 M127.83 108.758 Q133.64 108.758 136.695 113.365 Q139.774 117.948 139.774 126.698 Q139.774 135.425 136.695 140.031 Q133.64 144.615 127.83 144.615 Q122.02 144.615 118.941 140.031 Q115.885 135.425 115.885 126.698 Q115.885 117.948 118.941 113.365 Q122.02 108.758 127.83 108.758 Z" fill="#000000" fill-rule="evenodd" fill-opacity="1" /><path clip-path="url(#clip820)" d="M 0 0 M412.565 18.8205 L412.565 41.5461 L422.854 41.5461 Q428.566 41.5461 431.685 38.5889 Q434.805 35.6318 434.805 30.163 Q434.805 24.7348 431.685 21.7777 Q428.566 18.8205 422.854 18.8205 L412.565 18.8205 M404.382 12.096 L422.854 12.096 Q433.022 12.096 438.207 16.714 Q443.433 21.2916 443.433 30.163 Q443.433 39.1155 438.207 43.6931 Q433.022 48.2706 422.854 48.2706 L412.565 48.2706 L412.565 72.576 L404.382 72.576 L404.382 12.096 Z" fill="#000000" fill-rule="evenodd" fill-opacity="1" /><path clip-path="url(#clip820)" d="M 0 0 M468.144 49.7694 Q459.11 49.7694 455.626 51.8354 Q452.142 53.9013 452.142 58.8839 Q452.142 62.8538 454.735 65.2034 Q457.368 67.5124 461.865 67.5124 Q468.063 67.5124 471.789 63.1374 Q475.557 58.7219 475.557 51.4303 L475.557 49.7694 L468.144 49.7694 M483.01 46.6907 L483.01 72.576 L475.557 72.576 L475.557 65.6895 Q473.005 69.8214 469.197 71.8063 Q465.389 73.7508 459.88 73.7508 Q452.912 73.7508 448.78 69.8619 Q444.689 65.9325 444.689 59.3701 Q444.689 51.7138 449.793 47.825 Q454.938 43.9361 465.105 43.9361 L475.557 43.9361 L475.557 43.2069 Q475.557 38.0623 472.154 35.2672 Q468.792 32.4315 462.675 32.4315 Q458.786 32.4315 455.1 33.3632 Q451.413 34.295 448.011 36.1584 L448.011 29.2718 Q452.102 27.692 455.95 26.9223 Q459.799 26.1121 463.444 26.1121 Q473.288 26.1121 478.149 31.2163 Q483.01 36.3204 483.01 46.6907 Z" fill="#000000" fill-rule="evenodd" fill-opacity="1" /><path clip-path="url(#clip820)" d="M 0 0 M517.119 34.1734 Q515.863 33.4443 514.364 33.1202 Q512.906 32.7556 511.124 32.7556 Q504.804 32.7556 501.401 36.8875 Q498.039 40.9789 498.039 48.6757 L498.039 72.576 L490.545 72.576 L490.545 27.2059 L498.039 27.2059 L498.039 34.2544 Q500.389 30.1225 504.156 28.1376 Q507.923 26.1121 513.311 26.1121 Q514.081 26.1121 515.013 26.2337 Q515.944 26.3147 517.078 26.5172 L517.119 34.1734 Z" fill="#000000" fill-rule="evenodd" fill-opacity="1" /><path clip-path="url(#clip820)" d="M 0 0 M545.556 49.7694 Q536.523 49.7694 533.039 51.8354 Q529.555 53.9013 529.555 58.8839 Q529.555 62.8538 532.148 65.2034 Q534.781 67.5124 539.277 67.5124 Q545.475 67.5124 549.202 63.1374 Q552.969 58.7219 552.969 51.4303 L552.969 49.7694 L545.556 49.7694 M560.423 46.6907 L560.423 72.576 L552.969 72.576 L552.969 65.6895 Q550.417 69.8214 546.61 71.8063 Q542.802 73.7508 537.292 73.7508 Q530.325 73.7508 526.193 69.8619 Q522.102 65.9325 522.102 59.3701 Q522.102 51.7138 527.206 47.825 Q532.35 43.9361 542.518 43.9361 L552.969 43.9361 L552.969 43.2069 Q552.969 38.0623 549.567 35.2672 Q546.204 32.4315 540.088 32.4315 Q536.199 32.4315 532.512 33.3632 Q528.826 34.295 525.423 36.1584 L525.423 29.2718 Q529.515 27.692 533.363 26.9223 Q537.211 26.1121 540.857 26.1121 Q550.701 26.1121 555.562 31.2163 Q560.423 36.3204 560.423 46.6907 Z" fill="#000000" fill-rule="evenodd" fill-opacity="1" /><path clip-path="url(#clip820)" d="M 0 0 M603.565 35.9153 Q606.36 30.8922 610.249 28.5022 Q614.138 26.1121 619.404 26.1121 Q626.493 26.1121 630.342 31.0947 Q634.19 36.0368 634.19 45.1919 L634.19 72.576 L626.696 72.576 L626.696 45.4349 Q626.696 38.913 624.387 35.7533 Q622.078 32.5936 617.338 32.5936 Q611.546 32.5936 608.183 36.4419 Q604.821 40.2903 604.821 46.9338 L604.821 72.576 L597.327 72.576 L597.327 45.4349 Q597.327 38.8725 595.018 35.7533 Q592.709 32.5936 587.888 32.5936 Q582.176 32.5936 578.814 36.4824 Q575.452 40.3308 575.452 46.9338 L575.452 72.576 L567.958 72.576 L567.958 27.2059 L575.452 27.2059 L575.452 34.2544 Q578.004 30.082 581.569 28.0971 Q585.134 26.1121 590.035 26.1121 Q594.977 26.1121 598.421 28.6237 Q601.904 31.1352 603.565 35.9153 Z" fill="#000000" fill-rule="evenodd" fill-opacity="1" /><path clip-path="url(#clip820)" d="M 0 0 M680.816 48.0275 L680.816 51.6733 L646.545 51.6733 Q647.031 59.3701 651.163 63.421 Q655.336 67.4314 662.749 67.4314 Q667.043 67.4314 671.053 66.3781 Q675.104 65.3249 679.074 63.2184 L679.074 70.267 Q675.064 71.9684 670.851 72.8596 Q666.638 73.7508 662.303 73.7508 Q651.447 73.7508 645.087 67.4314 Q638.768 61.1119 638.768 50.3365 Q638.768 39.1965 644.763 32.6746 Q650.799 26.1121 661.007 26.1121 Q670.162 26.1121 675.469 32.0264 Q680.816 37.9003 680.816 48.0275 M673.362 45.84 Q673.281 39.7232 669.919 36.0774 Q666.597 32.4315 661.088 32.4315 Q654.85 32.4315 651.082 35.9558 Q647.356 39.4801 646.788 45.8805 L673.362 45.84 Z" fill="#000000" fill-rule="evenodd" fill-opacity="1" /><path clip-path="url(#clip820)" d="M 0 0 M696.007 14.324 L696.007 27.2059 L711.36 27.2059 L711.36 32.9987 L696.007 32.9987 L696.007 57.6282 Q696.007 63.1779 697.506 64.7578 Q699.045 66.3376 703.704 66.3376 L711.36 66.3376 L711.36 72.576 L703.704 72.576 Q695.075 72.576 691.794 69.3758 Q688.513 66.1351 688.513 57.6282 L688.513 32.9987 L683.044 32.9987 L683.044 27.2059 L688.513 27.2059 L688.513 14.324 L696.007 14.324 Z" fill="#000000" fill-rule="evenodd" fill-opacity="1" /><path clip-path="url(#clip820)" d="M 0 0 M757.986 48.0275 L757.986 51.6733 L723.715 51.6733 Q724.201 59.3701 728.333 63.421 Q732.506 67.4314 739.919 67.4314 Q744.213 67.4314 748.223 66.3781 Q752.274 65.3249 756.244 63.2184 L756.244 70.267 Q752.233 71.9684 748.021 72.8596 Q743.808 73.7508 739.473 73.7508 Q728.617 73.7508 722.257 67.4314 Q715.937 61.1119 715.937 50.3365 Q715.937 39.1965 721.933 32.6746 Q727.969 26.1121 738.177 26.1121 Q747.332 26.1121 752.639 32.0264 Q757.986 37.9003 757.986 48.0275 M750.532 45.84 Q750.451 39.7232 747.089 36.0774 Q743.767 32.4315 738.258 32.4315 Q732.019 32.4315 728.252 35.9558 Q724.525 39.4801 723.958 45.8805 L750.532 45.84 Z" fill="#000000" fill-rule="evenodd" fill-opacity="1" /><path clip-path="url(#clip820)" d="M 0 0 M792.094 34.1734 Q790.839 33.4443 789.34 33.1202 Q787.881 32.7556 786.099 32.7556 Q779.78 32.7556 776.377 36.8875 Q773.015 40.9789 773.015 48.6757 L773.015 72.576 L765.52 72.576 L765.52 27.2059 L773.015 27.2059 L773.015 34.2544 Q775.364 30.1225 779.131 28.1376 Q782.899 26.1121 788.287 26.1121 Q789.056 26.1121 789.988 26.2337 Q790.92 26.3147 792.054 26.5172 L792.094 34.1734 Z" fill="#000000" fill-rule="evenodd" fill-opacity="1" /><path clip-path="url(#clip820)" d="M 0 0 M828.755 65.6895 L842.123 65.6895 L842.123 19.5497 L827.58 22.4663 L827.58 15.0127 L842.042 12.096 L850.225 12.096 L850.225 65.6895 L863.593 65.6895 L863.593 72.576 L828.755 72.576 L828.755 65.6895 Z" fill="#000000" fill-rule="evenodd" fill-opacity="1" /><path clip-path="url(#clip822)" d="
M214.645 756.485 L214.645 1386.31 L290.889 1386.31 L290.889 756.485 L214.645 756.485 L214.645 756.485  Z
  " fill="#8b0000" fill-rule="evenodd" fill-opacity="1"/>
<polyline clip-path="url(#clip822)" style="stroke:#ffffff; stroke-width:4; stroke-opacity:1; fill:none" points="
  214.645,756.485 214.645,1386.31 290.889,1386.31 290.889,756.485 214.645,756.485 
  "/>
<path clip-path="url(#clip822)" d="
M290.889 160.254 L290.889 1386.31 L367.133 1386.31 L367.133 160.254 L290.889 160.254 L290.889 160.254  Z
  " fill="#8b0000" fill-rule="evenodd" fill-opacity="1"/>
<polyline clip-path="url(#clip822)" style="stroke:#ffffff; stroke-width:4; stroke-opacity:1; fill:none" points="
  290.889,160.254 290.889,1386.31 367.133,1386.31 367.133,160.254 290.889,160.254 
  "/>
<path clip-path="url(#clip822)" d="
M367.133 294.616 L367.133 1386.31 L443.377 1386.31 L443.377 294.616 L367.133 294.616 L367.133 294.616  Z
  " fill="#8b0000" fill-rule="evenodd" fill-opacity="1"/>
<polyline clip-path="url(#clip822)" style="stroke:#ffffff; stroke-width:4; stroke-opacity:1; fill:none" points="
  367.133,294.616 367.133,1386.31 443.377,1386.31 443.377,294.616 367.133,294.616 
  "/>
<path clip-path="url(#clip822)" d="
M443.377 219.037 L443.377 1386.31 L519.621 1386.31 L519.621 219.037 L443.377 219.037 L443.377 219.037  Z
  " fill="#8b0000" fill-rule="evenodd" fill-opacity="1"/>
<polyline clip-path="url(#clip822)" style="stroke:#ffffff; stroke-width:4; stroke-opacity:1; fill:none" points="
  443.377,219.037 443.377,1386.31 519.621,1386.31 519.621,219.037 443.377,219.037 
  "/>
<path clip-path="url(#clip822)" d="
M519.621 454.17 L519.621 1386.31 L595.865 1386.31 L595.865 454.17 L519.621 454.17 L519.621 454.17  Z
  " fill="#8b0000" fill-rule="evenodd" fill-opacity="1"/>
<polyline clip-path="url(#clip822)" style="stroke:#ffffff; stroke-width:4; stroke-opacity:1; fill:none" points="
  519.621,454.17 519.621,1386.31 595.865,1386.31 595.865,454.17 519.621,454.17 
  "/>
<path clip-path="url(#clip822)" d="
M595.865 382.791 L595.865 1386.31 L672.11 1386.31 L672.11 382.791 L595.865 382.791 L595.865 382.791  Z
  " fill="#8b0000" fill-rule="evenodd" fill-opacity="1"/>
<polyline clip-path="url(#clip822)" style="stroke:#ffffff; stroke-width:4; stroke-opacity:1; fill:none" points="
  595.865,382.791 595.865,1386.31 672.11,1386.31 672.11,382.791 595.865,382.791 
  "/>
<path clip-path="url(#clip822)" d="
M672.11 567.538 L672.11 1386.31 L748.354 1386.31 L748.354 567.538 L672.11 567.538 L672.11 567.538  Z
  " fill="#8b0000" fill-rule="evenodd" fill-opacity="1"/>
<polyline clip-path="url(#clip822)" style="stroke:#ffffff; stroke-width:4; stroke-opacity:1; fill:none" points="
  672.11,567.538 672.11,1386.31 748.354,1386.31 748.354,567.538 672.11,567.538 
  "/>
<path clip-path="url(#clip822)" d="
M748.354 680.906 L748.354 1386.31 L824.598 1386.31 L824.598 680.906 L748.354 680.906 L748.354 680.906  Z
  " fill="#8b0000" fill-rule="evenodd" fill-opacity="1"/>
<polyline clip-path="url(#clip822)" style="stroke:#ffffff; stroke-width:4; stroke-opacity:1; fill:none" points="
  748.354,680.906 748.354,1386.31 824.598,1386.31 824.598,680.906 748.354,680.906 
  "/>
<path clip-path="url(#clip822)" d="
M824.598 878.25 L824.598 1386.31 L900.842 1386.31 L900.842 878.25 L824.598 878.25 L824.598 878.25  Z
  " fill="#8b0000" fill-rule="evenodd" fill-opacity="1"/>
<polyline clip-path="url(#clip822)" style="stroke:#ffffff; stroke-width:4; stroke-opacity:1; fill:none" points="
  824.598,878.25 824.598,1386.31 900.842,1386.31 900.842,878.25 824.598,878.25 
  "/>
<path clip-path="url(#clip822)" d="
M900.842 1088.19 L900.842 1386.31 L977.086 1386.31 L977.086 1088.19 L900.842 1088.19 L900.842 1088.19  Z
  " fill="#8b0000" fill-rule="evenodd" fill-opacity="1"/>
<polyline clip-path="url(#clip822)" style="stroke:#ffffff; stroke-width:4; stroke-opacity:1; fill:none" points="
  900.842,1088.19 900.842,1386.31 977.086,1386.31 977.086,1088.19 900.842,1088.19 
  "/>
<path clip-path="url(#clip822)" d="
M977.086 1369.51 L977.086 1386.31 L1053.33 1386.31 L1053.33 1369.51 L977.086 1369.51 L977.086 1369.51  Z
  " fill="#8b0000" fill-rule="evenodd" fill-opacity="1"/>
<polyline clip-path="url(#clip822)" style="stroke:#ffffff; stroke-width:4; stroke-opacity:1; fill:none" points="
  977.086,1369.51 977.086,1386.31 1053.33,1386.31 1053.33,1369.51 977.086,1369.51 
  "/>
<path clip-path="url(#clip820)" d="
M1314.41 1423.09 L2256.76 1423.09 L2256.76 123.472 L1314.41 123.472  Z
  " fill="#ffffff" fill-rule="evenodd" fill-opacity="1"/>
<defs>
  <clipPath id="clip823">
    <rect x="1314" y="123" width="943" height="1301"/>
  </clipPath>
</defs>
<polyline clip-path="url(#clip823)" style="stroke:#000000; stroke-width:2; stroke-opacity:0.1; fill:none" points="
  1336.29,1423.09 1336.29,123.472 
  "/>
<polyline clip-path="url(#clip823)" style="stroke:#000000; stroke-width:2; stroke-opacity:0.1; fill:none" points="
  1486.05,1423.09 1486.05,123.472 
  "/>
<polyline clip-path="url(#clip823)" style="stroke:#000000; stroke-width:2; stroke-opacity:0.1; fill:none" points="
  1635.82,1423.09 1635.82,123.472 
  "/>
<polyline clip-path="url(#clip823)" style="stroke:#000000; stroke-width:2; stroke-opacity:0.1; fill:none" points="
  1785.58,1423.09 1785.58,123.472 
  "/>
<polyline clip-path="url(#clip823)" style="stroke:#000000; stroke-width:2; stroke-opacity:0.1; fill:none" points="
  1935.35,1423.09 1935.35,123.472 
  "/>
<polyline clip-path="url(#clip823)" style="stroke:#000000; stroke-width:2; stroke-opacity:0.1; fill:none" points="
  2085.11,1423.09 2085.11,123.472 
  "/>
<polyline clip-path="url(#clip823)" style="stroke:#000000; stroke-width:2; stroke-opacity:0.1; fill:none" points="
  2234.88,1423.09 2234.88,123.472 
  "/>
<polyline clip-path="url(#clip823)" style="stroke:#000000; stroke-width:2; stroke-opacity:0.1; fill:none" points="
  1314.41,1386.31 2256.76,1386.31 
  "/>
<polyline clip-path="url(#clip823)" style="stroke:#000000; stroke-width:2; stroke-opacity:0.1; fill:none" points="
  1314.41,1156.71 2256.76,1156.71 
  "/>
<polyline clip-path="url(#clip823)" style="stroke:#000000; stroke-width:2; stroke-opacity:0.1; fill:none" points="
  1314.41,927.111 2256.76,927.111 
  "/>
<polyline clip-path="url(#clip823)" style="stroke:#000000; stroke-width:2; stroke-opacity:0.1; fill:none" points="
  1314.41,697.513 2256.76,697.513 
  "/>
<polyline clip-path="url(#clip823)" style="stroke:#000000; stroke-width:2; stroke-opacity:0.1; fill:none" points="
  1314.41,467.915 2256.76,467.915 
  "/>
<polyline clip-path="url(#clip823)" style="stroke:#000000; stroke-width:2; stroke-opacity:0.1; fill:none" points="
  1314.41,238.317 2256.76,238.317 
  "/>
<polyline clip-path="url(#clip820)" style="stroke:#000000; stroke-width:4; stroke-opacity:1; fill:none" points="
  1314.41,1423.09 2256.76,1423.09 
  "/>
<polyline clip-path="url(#clip820)" style="stroke:#000000; stroke-width:4; stroke-opacity:1; fill:none" points="
  1314.41,1423.09 1314.41,123.472 
  "/>
<polyline clip-path="url(#clip820)" style="stroke:#000000; stroke-width:4; stroke-opacity:1; fill:none" points="
  1336.29,1423.09 1336.29,1407.49 
  "/>
<polyline clip-path="url(#clip820)" style="stroke:#000000; stroke-width:4; stroke-opacity:1; fill:none" points="
  1486.05,1423.09 1486.05,1407.49 
  "/>
<polyline clip-path="url(#clip820)" style="stroke:#000000; stroke-width:4; stroke-opacity:1; fill:none" points="
  1635.82,1423.09 1635.82,1407.49 
  "/>
<polyline clip-path="url(#clip820)" style="stroke:#000000; stroke-width:4; stroke-opacity:1; fill:none" points="
  1785.58,1423.09 1785.58,1407.49 
  "/>
<polyline clip-path="url(#clip820)" style="stroke:#000000; stroke-width:4; stroke-opacity:1; fill:none" points="
  1935.35,1423.09 1935.35,1407.49 
  "/>
<polyline clip-path="url(#clip820)" style="stroke:#000000; stroke-width:4; stroke-opacity:1; fill:none" points="
  2085.11,1423.09 2085.11,1407.49 
  "/>
<polyline clip-path="url(#clip820)" style="stroke:#000000; stroke-width:4; stroke-opacity:1; fill:none" points="
  2234.88,1423.09 2234.88,1407.49 
  "/>
<polyline clip-path="url(#clip820)" style="stroke:#000000; stroke-width:4; stroke-opacity:1; fill:none" points="
  1314.41,1386.31 1325.72,1386.31 
  "/>
<polyline clip-path="url(#clip820)" style="stroke:#000000; stroke-width:4; stroke-opacity:1; fill:none" points="
  1314.41,1156.71 1325.72,1156.71 
  "/>
<polyline clip-path="url(#clip820)" style="stroke:#000000; stroke-width:4; stroke-opacity:1; fill:none" points="
  1314.41,927.111 1325.72,927.111 
  "/>
<polyline clip-path="url(#clip820)" style="stroke:#000000; stroke-width:4; stroke-opacity:1; fill:none" points="
  1314.41,697.513 1325.72,697.513 
  "/>
<polyline clip-path="url(#clip820)" style="stroke:#000000; stroke-width:4; stroke-opacity:1; fill:none" points="
  1314.41,467.915 1325.72,467.915 
  "/>
<polyline clip-path="url(#clip820)" style="stroke:#000000; stroke-width:4; stroke-opacity:1; fill:none" points="
  1314.41,238.317 1325.72,238.317 
  "/>
<path clip-path="url(#clip820)" d="M 0 0 M1291.61 1444.6 Q1288 1444.6 1286.17 1448.16 Q1284.37 1451.71 1284.37 1458.83 Q1284.37 1465.94 1286.17 1469.51 Q1288 1473.05 1291.61 1473.05 Q1295.25 1473.05 1297.05 1469.51 Q1298.88 1465.94 1298.88 1458.83 Q1298.88 1451.71 1297.05 1448.16 Q1295.25 1444.6 1291.61 1444.6 M1291.61 1440.89 Q1297.42 1440.89 1300.48 1445.5 Q1303.56 1450.08 1303.56 1458.83 Q1303.56 1467.56 1300.48 1472.17 Q1297.42 1476.75 1291.61 1476.75 Q1285.8 1476.75 1282.72 1472.17 Q1279.67 1467.56 1279.67 1458.83 Q1279.67 1450.08 1282.72 1445.5 Q1285.8 1440.89 1291.61 1440.89 Z" fill="#000000" fill-rule="evenodd" fill-opacity="1" /><path clip-path="url(#clip820)" d="M 0 0 M1308.62 1470.2 L1313.51 1470.2 L1313.51 1476.08 L1308.62 1476.08 L1308.62 1470.2 Z" fill="#000000" fill-rule="evenodd" fill-opacity="1" /><path clip-path="url(#clip820)" d="M 0 0 M1328.58 1444.6 Q1324.97 1444.6 1323.14 1448.16 Q1321.33 1451.71 1321.33 1458.83 Q1321.33 1465.94 1323.14 1469.51 Q1324.97 1473.05 1328.58 1473.05 Q1332.21 1473.05 1334.02 1469.51 Q1335.85 1465.94 1335.85 1458.83 Q1335.85 1451.71 1334.02 1448.16 Q1332.21 1444.6 1328.58 1444.6 M1328.58 1440.89 Q1334.39 1440.89 1337.44 1445.5 Q1340.52 1450.08 1340.52 1458.83 Q1340.52 1467.56 1337.44 1472.17 Q1334.39 1476.75 1328.58 1476.75 Q1322.77 1476.75 1319.69 1472.17 Q1316.63 1467.56 1316.63 1458.83 Q1316.63 1450.08 1319.69 1445.5 Q1322.77 1440.89 1328.58 1440.89 Z" fill="#000000" fill-rule="evenodd" fill-opacity="1" /><path clip-path="url(#clip820)" d="M 0 0 M1359.76 1457.45 Q1363.12 1458.16 1364.99 1460.43 Q1366.89 1462.7 1366.89 1466.03 Q1366.89 1471.15 1363.37 1473.95 Q1359.85 1476.75 1353.37 1476.75 Q1351.19 1476.75 1348.88 1476.31 Q1346.59 1475.89 1344.13 1475.04 L1344.13 1470.52 Q1346.08 1471.66 1348.39 1472.24 Q1350.71 1472.82 1353.23 1472.82 Q1357.63 1472.82 1359.92 1471.08 Q1362.24 1469.34 1362.24 1466.03 Q1362.24 1462.98 1360.08 1461.27 Q1357.95 1459.53 1354.13 1459.53 L1350.11 1459.53 L1350.11 1455.69 L1354.32 1455.69 Q1357.77 1455.69 1359.6 1454.32 Q1361.43 1452.93 1361.43 1450.34 Q1361.43 1447.68 1359.53 1446.27 Q1357.65 1444.83 1354.13 1444.83 Q1352.21 1444.83 1350.01 1445.25 Q1347.81 1445.66 1345.18 1446.54 L1345.18 1442.38 Q1347.84 1441.64 1350.15 1441.27 Q1352.49 1440.89 1354.55 1440.89 Q1359.87 1440.89 1362.98 1443.33 Q1366.08 1445.73 1366.08 1449.85 Q1366.08 1452.72 1364.43 1454.71 Q1362.79 1456.68 1359.76 1457.45 Z" fill="#000000" fill-rule="evenodd" fill-opacity="1" /><path clip-path="url(#clip820)" d="M 0 0 M1372 1441.52 L1390.36 1441.52 L1390.36 1445.46 L1376.29 1445.46 L1376.29 1453.93 Q1377.31 1453.58 1378.32 1453.42 Q1379.34 1453.23 1380.36 1453.23 Q1386.15 1453.23 1389.53 1456.4 Q1392.91 1459.58 1392.91 1464.99 Q1392.91 1470.57 1389.43 1473.67 Q1385.96 1476.75 1379.64 1476.75 Q1377.47 1476.75 1375.2 1476.38 Q1372.95 1476.01 1370.55 1475.27 L1370.55 1470.57 Q1372.63 1471.7 1374.85 1472.26 Q1377.07 1472.82 1379.55 1472.82 Q1383.56 1472.82 1385.89 1470.71 Q1388.23 1468.6 1388.23 1464.99 Q1388.23 1461.38 1385.89 1459.27 Q1383.56 1457.17 1379.55 1457.17 Q1377.68 1457.17 1375.8 1457.58 Q1373.95 1458 1372 1458.88 L1372 1441.52 Z" fill="#000000" fill-rule="evenodd" fill-opacity="1" /><path clip-path="url(#clip820)" d="M 0 0 M1440.31 1444.6 Q1436.7 1444.6 1434.87 1448.16 Q1433.07 1451.71 1433.07 1458.83 Q1433.07 1465.94 1434.87 1469.51 Q1436.7 1473.05 1440.31 1473.05 Q1443.95 1473.05 1445.75 1469.51 Q1447.58 1465.94 1447.58 1458.83 Q1447.58 1451.71 1445.75 1448.16 Q1443.95 1444.6 1440.31 1444.6 M1440.31 1440.89 Q1446.12 1440.89 1449.18 1445.5 Q1452.26 1450.08 1452.26 1458.83 Q1452.26 1467.56 1449.18 1472.17 Q1446.12 1476.75 1440.31 1476.75 Q1434.5 1476.75 1431.42 1472.17 Q1428.37 1467.56 1428.37 1458.83 Q1428.37 1450.08 1431.42 1445.5 Q1434.5 1440.89 1440.31 1440.89 Z" fill="#000000" fill-rule="evenodd" fill-opacity="1" /><path clip-path="url(#clip820)" d="M 0 0 M1457.33 1470.2 L1462.21 1470.2 L1462.21 1476.08 L1457.33 1476.08 L1457.33 1470.2 Z" fill="#000000" fill-rule="evenodd" fill-opacity="1" /><path clip-path="url(#clip820)" d="M 0 0 M1477.28 1444.6 Q1473.67 1444.6 1471.84 1448.16 Q1470.03 1451.71 1470.03 1458.83 Q1470.03 1465.94 1471.84 1469.51 Q1473.67 1473.05 1477.28 1473.05 Q1480.91 1473.05 1482.72 1469.51 Q1484.55 1465.94 1484.55 1458.83 Q1484.55 1451.71 1482.72 1448.16 Q1480.91 1444.6 1477.28 1444.6 M1477.28 1440.89 Q1483.09 1440.89 1486.14 1445.5 Q1489.22 1450.08 1489.22 1458.83 Q1489.22 1467.56 1486.14 1472.17 Q1483.09 1476.75 1477.28 1476.75 Q1471.47 1476.75 1468.39 1472.17 Q1465.33 1467.56 1465.33 1458.83 Q1465.33 1450.08 1468.39 1445.5 Q1471.47 1440.89 1477.28 1440.89 Z" fill="#000000" fill-rule="evenodd" fill-opacity="1" /><path clip-path="url(#clip820)" d="M 0 0 M1507.14 1445.59 L1495.33 1464.04 L1507.14 1464.04 L1507.14 1445.59 M1505.91 1441.52 L1511.79 1441.52 L1511.79 1464.04 L1516.72 1464.04 L1516.72 1467.93 L1511.79 1467.93 L1511.79 1476.08 L1507.14 1476.08 L1507.14 1467.93 L1491.54 1467.93 L1491.54 1463.42 L1505.91 1441.52 Z" fill="#000000" fill-rule="evenodd" fill-opacity="1" /><path clip-path="url(#clip820)" d="M 0 0 M1531.79 1444.6 Q1528.18 1444.6 1526.35 1448.16 Q1524.55 1451.71 1524.55 1458.83 Q1524.55 1465.94 1526.35 1469.51 Q1528.18 1473.05 1531.79 1473.05 Q1535.43 1473.05 1537.23 1469.51 Q1539.06 1465.94 1539.06 1458.83 Q1539.06 1451.71 1537.23 1448.16 Q1535.43 1444.6 1531.79 1444.6 M1531.79 1440.89 Q1537.6 1440.89 1540.66 1445.5 Q1543.74 1450.08 1543.74 1458.83 Q1543.74 1467.56 1540.66 1472.17 Q1537.6 1476.75 1531.79 1476.75 Q1525.98 1476.75 1522.9 1472.17 Q1519.85 1467.56 1519.85 1458.83 Q1519.85 1450.08 1522.9 1445.5 Q1525.98 1440.89 1531.79 1440.89 Z" fill="#000000" fill-rule="evenodd" fill-opacity="1" /><path clip-path="url(#clip820)" d="M 0 0 M1590.57 1444.6 Q1586.96 1444.6 1585.13 1448.16 Q1583.33 1451.71 1583.33 1458.83 Q1583.33 1465.94 1585.13 1469.51 Q1586.96 1473.05 1590.57 1473.05 Q1594.21 1473.05 1596.01 1469.51 Q1597.84 1465.94 1597.84 1458.83 Q1597.84 1451.71 1596.01 1448.16 Q1594.21 1444.6 1590.57 1444.6 M1590.57 1440.89 Q1596.38 1440.89 1599.44 1445.5 Q1602.52 1450.08 1602.52 1458.83 Q1602.52 1467.56 1599.44 1472.17 Q1596.38 1476.75 1590.57 1476.75 Q1584.76 1476.75 1581.69 1472.17 Q1578.63 1467.56 1578.63 1458.83 Q1578.63 1450.08 1581.69 1445.5 Q1584.76 1440.89 1590.57 1440.89 Z" fill="#000000" fill-rule="evenodd" fill-opacity="1" /><path clip-path="url(#clip820)" d="M 0 0 M1607.59 1470.2 L1612.47 1470.2 L1612.47 1476.08 L1607.59 1476.08 L1607.59 1470.2 Z" fill="#000000" fill-rule="evenodd" fill-opacity="1" /><path clip-path="url(#clip820)" d="M 0 0 M1627.54 1444.6 Q1623.93 1444.6 1622.1 1448.16 Q1620.3 1451.71 1620.3 1458.83 Q1620.3 1465.94 1622.1 1469.51 Q1623.93 1473.05 1627.54 1473.05 Q1631.18 1473.05 1632.98 1469.51 Q1634.81 1465.94 1634.81 1458.83 Q1634.81 1451.71 1632.98 1448.16 Q1631.18 1444.6 1627.54 1444.6 M1627.54 1440.89 Q1633.35 1440.89 1636.41 1445.5 Q1639.49 1450.08 1639.49 1458.83 Q1639.49 1467.56 1636.41 1472.17 Q1633.35 1476.75 1627.54 1476.75 Q1621.73 1476.75 1618.65 1472.17 Q1615.6 1467.56 1615.6 1458.83 Q1615.6 1450.08 1618.65 1445.5 Q1621.73 1440.89 1627.54 1440.89 Z" fill="#000000" fill-rule="evenodd" fill-opacity="1" /><path clip-path="url(#clip820)" d="M 0 0 M1657.4 1445.59 L1645.6 1464.04 L1657.4 1464.04 L1657.4 1445.59 M1656.18 1441.52 L1662.06 1441.52 L1662.06 1464.04 L1666.99 1464.04 L1666.99 1467.93 L1662.06 1467.93 L1662.06 1476.08 L1657.4 1476.08 L1657.4 1467.93 L1641.8 1467.93 L1641.8 1463.42 L1656.18 1441.52 Z" fill="#000000" fill-rule="evenodd" fill-opacity="1" /><path clip-path="url(#clip820)" d="M 0 0 M1672.1 1441.52 L1690.46 1441.52 L1690.46 1445.46 L1676.38 1445.46 L1676.38 1453.93 Q1677.4 1453.58 1678.42 1453.42 Q1679.44 1453.23 1680.46 1453.23 Q1686.25 1453.23 1689.62 1456.4 Q1693 1459.58 1693 1464.99 Q1693 1470.57 1689.53 1473.67 Q1686.06 1476.75 1679.74 1476.75 Q1677.56 1476.75 1675.3 1476.38 Q1673.05 1476.01 1670.64 1475.27 L1670.64 1470.57 Q1672.73 1471.7 1674.95 1472.26 Q1677.17 1472.82 1679.65 1472.82 Q1683.65 1472.82 1685.99 1470.71 Q1688.33 1468.6 1688.33 1464.99 Q1688.33 1461.38 1685.99 1459.27 Q1683.65 1457.17 1679.65 1457.17 Q1677.77 1457.17 1675.9 1457.58 Q1674.05 1458 1672.1 1458.88 L1672.1 1441.52 Z" fill="#000000" fill-rule="evenodd" fill-opacity="1" /><path clip-path="url(#clip820)" d="M 0 0 M1740.58 1444.6 Q1736.97 1444.6 1735.14 1448.16 Q1733.34 1451.71 1733.34 1458.83 Q1733.34 1465.94 1735.14 1469.51 Q1736.97 1473.05 1740.58 1473.05 Q1744.22 1473.05 1746.02 1469.51 Q1747.85 1465.94 1747.85 1458.83 Q1747.85 1451.71 1746.02 1448.16 Q1744.22 1444.6 1740.58 1444.6 M1740.58 1440.89 Q1746.39 1440.89 1749.45 1445.5 Q1752.53 1450.08 1752.53 1458.83 Q1752.53 1467.56 1749.45 1472.17 Q1746.39 1476.75 1740.58 1476.75 Q1734.77 1476.75 1731.69 1472.17 Q1728.64 1467.56 1728.64 1458.83 Q1728.64 1450.08 1731.69 1445.5 Q1734.77 1440.89 1740.58 1440.89 Z" fill="#000000" fill-rule="evenodd" fill-opacity="1" /><path clip-path="url(#clip820)" d="M 0 0 M1757.6 1470.2 L1762.48 1470.2 L1762.48 1476.08 L1757.6 1476.08 L1757.6 1470.2 Z" fill="#000000" fill-rule="evenodd" fill-opacity="1" /><path clip-path="url(#clip820)" d="M 0 0 M1777.55 1444.6 Q1773.94 1444.6 1772.11 1448.16 Q1770.3 1451.71 1770.3 1458.83 Q1770.3 1465.94 1772.11 1469.51 Q1773.94 1473.05 1777.55 1473.05 Q1781.18 1473.05 1782.99 1469.51 Q1784.82 1465.94 1784.82 1458.83 Q1784.82 1451.71 1782.99 1448.16 Q1781.18 1444.6 1777.55 1444.6 M1777.55 1440.89 Q1783.36 1440.89 1786.42 1445.5 Q1789.49 1450.08 1789.49 1458.83 Q1789.49 1467.56 1786.42 1472.17 Q1783.36 1476.75 1777.55 1476.75 Q1771.74 1476.75 1768.66 1472.17 Q1765.61 1467.56 1765.61 1458.83 Q1765.61 1450.08 1768.66 1445.5 Q1771.74 1440.89 1777.55 1440.89 Z" fill="#000000" fill-rule="evenodd" fill-opacity="1" /><path clip-path="url(#clip820)" d="M 0 0 M1794.61 1441.52 L1812.97 1441.52 L1812.97 1445.46 L1798.89 1445.46 L1798.89 1453.93 Q1799.91 1453.58 1800.93 1453.42 Q1801.95 1453.23 1802.97 1453.23 Q1808.75 1453.23 1812.13 1456.4 Q1815.51 1459.58 1815.51 1464.99 Q1815.51 1470.57 1812.04 1473.67 Q1808.57 1476.75 1802.25 1476.75 Q1800.07 1476.75 1797.8 1476.38 Q1795.56 1476.01 1793.15 1475.27 L1793.15 1470.57 Q1795.24 1471.7 1797.46 1472.26 Q1799.68 1472.82 1802.16 1472.82 Q1806.16 1472.82 1808.5 1470.71 Q1810.84 1468.6 1810.84 1464.99 Q1810.84 1461.38 1808.5 1459.27 Q1806.16 1457.17 1802.16 1457.17 Q1800.28 1457.17 1798.41 1457.58 Q1796.55 1458 1794.61 1458.88 L1794.61 1441.52 Z" fill="#000000" fill-rule="evenodd" fill-opacity="1" /><path clip-path="url(#clip820)" d="M 0 0 M1830.58 1444.6 Q1826.97 1444.6 1825.14 1448.16 Q1823.34 1451.71 1823.34 1458.83 Q1823.34 1465.94 1825.14 1469.51 Q1826.97 1473.05 1830.58 1473.05 Q1834.22 1473.05 1836.02 1469.51 Q1837.85 1465.94 1837.85 1458.83 Q1837.85 1451.71 1836.02 1448.16 Q1834.22 1444.6 1830.58 1444.6 M1830.58 1440.89 Q1836.39 1440.89 1839.45 1445.5 Q1842.53 1450.08 1842.53 1458.83 Q1842.53 1467.56 1839.45 1472.17 Q1836.39 1476.75 1830.58 1476.75 Q1824.77 1476.75 1821.69 1472.17 Q1818.64 1467.56 1818.64 1458.83 Q1818.64 1450.08 1821.69 1445.5 Q1824.77 1440.89 1830.58 1440.89 Z" fill="#000000" fill-rule="evenodd" fill-opacity="1" /><path clip-path="url(#clip820)" d="M 0 0 M1890.85 1444.6 Q1887.23 1444.6 1885.41 1448.16 Q1883.6 1451.71 1883.6 1458.83 Q1883.6 1465.94 1885.41 1469.51 Q1887.23 1473.05 1890.85 1473.05 Q1894.48 1473.05 1896.29 1469.51 Q1898.11 1465.94 1898.11 1458.83 Q1898.11 1451.71 1896.29 1448.16 Q1894.48 1444.6 1890.85 1444.6 M1890.85 1440.89 Q1896.66 1440.89 1899.71 1445.5 Q1902.79 1450.08 1902.79 1458.83 Q1902.79 1467.56 1899.71 1472.17 Q1896.66 1476.75 1890.85 1476.75 Q1885.04 1476.75 1881.96 1472.17 Q1878.9 1467.56 1878.9 1458.83 Q1878.9 1450.08 1881.96 1445.5 Q1885.04 1440.89 1890.85 1440.89 Z" fill="#000000" fill-rule="evenodd" fill-opacity="1" /><path clip-path="url(#clip820)" d="M 0 0 M1907.86 1470.2 L1912.74 1470.2 L1912.74 1476.08 L1907.86 1476.08 L1907.86 1470.2 Z" fill="#000000" fill-rule="evenodd" fill-opacity="1" /><path clip-path="url(#clip820)" d="M 0 0 M1927.81 1444.6 Q1924.2 1444.6 1922.37 1448.16 Q1920.57 1451.71 1920.57 1458.83 Q1920.57 1465.94 1922.37 1469.51 Q1924.2 1473.05 1927.81 1473.05 Q1931.45 1473.05 1933.25 1469.51 Q1935.08 1465.94 1935.08 1458.83 Q1935.08 1451.71 1933.25 1448.16 Q1931.45 1444.6 1927.81 1444.6 M1927.81 1440.89 Q1933.62 1440.89 1936.68 1445.5 Q1939.76 1450.08 1939.76 1458.83 Q1939.76 1467.56 1936.68 1472.17 Q1933.62 1476.75 1927.81 1476.75 Q1922 1476.75 1918.92 1472.17 Q1915.87 1467.56 1915.87 1458.83 Q1915.87 1450.08 1918.92 1445.5 Q1922 1440.89 1927.81 1440.89 Z" fill="#000000" fill-rule="evenodd" fill-opacity="1" /><path clip-path="url(#clip820)" d="M 0 0 M1944.87 1441.52 L1963.23 1441.52 L1963.23 1445.46 L1949.16 1445.46 L1949.16 1453.93 Q1950.17 1453.58 1951.19 1453.42 Q1952.21 1453.23 1953.23 1453.23 Q1959.02 1453.23 1962.4 1456.4 Q1965.78 1459.58 1965.78 1464.99 Q1965.78 1470.57 1962.3 1473.67 Q1958.83 1476.75 1952.51 1476.75 Q1950.34 1476.75 1948.07 1476.38 Q1945.82 1476.01 1943.41 1475.27 L1943.41 1470.57 Q1945.5 1471.7 1947.72 1472.26 Q1949.94 1472.82 1952.42 1472.82 Q1956.42 1472.82 1958.76 1470.71 Q1961.1 1468.6 1961.1 1464.99 Q1961.1 1461.38 1958.76 1459.27 Q1956.42 1457.17 1952.42 1457.17 Q1950.54 1457.17 1948.67 1457.58 Q1946.82 1458 1944.87 1458.88 L1944.87 1441.52 Z" fill="#000000" fill-rule="evenodd" fill-opacity="1" /><path clip-path="url(#clip820)" d="M 0 0 M1970.89 1441.52 L1989.25 1441.52 L1989.25 1445.46 L1975.17 1445.46 L1975.17 1453.93 Q1976.19 1453.58 1977.21 1453.42 Q1978.23 1453.23 1979.25 1453.23 Q1985.03 1453.23 1988.41 1456.4 Q1991.79 1459.58 1991.79 1464.99 Q1991.79 1470.57 1988.32 1473.67 Q1984.85 1476.75 1978.53 1476.75 Q1976.35 1476.75 1974.09 1476.38 Q1971.84 1476.01 1969.43 1475.27 L1969.43 1470.57 Q1971.52 1471.7 1973.74 1472.26 Q1975.96 1472.82 1978.44 1472.82 Q1982.44 1472.82 1984.78 1470.71 Q1987.12 1468.6 1987.12 1464.99 Q1987.12 1461.38 1984.78 1459.27 Q1982.44 1457.17 1978.44 1457.17 Q1976.56 1457.17 1974.69 1457.58 Q1972.84 1458 1970.89 1458.88 L1970.89 1441.52 Z" fill="#000000" fill-rule="evenodd" fill-opacity="1" /><path clip-path="url(#clip820)" d="M 0 0 M2039.53 1444.6 Q2035.92 1444.6 2034.09 1448.16 Q2032.29 1451.71 2032.29 1458.83 Q2032.29 1465.94 2034.09 1469.51 Q2035.92 1473.05 2039.53 1473.05 Q2043.17 1473.05 2044.97 1469.51 Q2046.8 1465.94 2046.8 1458.83 Q2046.8 1451.71 2044.97 1448.16 Q2043.17 1444.6 2039.53 1444.6 M2039.53 1440.89 Q2045.34 1440.89 2048.4 1445.5 Q2051.48 1450.08 2051.48 1458.83 Q2051.48 1467.56 2048.4 1472.17 Q2045.34 1476.75 2039.53 1476.75 Q2033.72 1476.75 2030.65 1472.17 Q2027.59 1467.56 2027.59 1458.83 Q2027.59 1450.08 2030.65 1445.5 Q2033.72 1440.89 2039.53 1440.89 Z" fill="#000000" fill-rule="evenodd" fill-opacity="1" /><path clip-path="url(#clip820)" d="M 0 0 M2056.55 1470.2 L2061.43 1470.2 L2061.43 1476.08 L2056.55 1476.08 L2056.55 1470.2 Z" fill="#000000" fill-rule="evenodd" fill-opacity="1" /><path clip-path="url(#clip820)" d="M 0 0 M2076.5 1444.6 Q2072.89 1444.6 2071.06 1448.16 Q2069.26 1451.71 2069.26 1458.83 Q2069.26 1465.94 2071.06 1469.51 Q2072.89 1473.05 2076.5 1473.05 Q2080.14 1473.05 2081.94 1469.51 Q2083.77 1465.94 2083.77 1458.83 Q2083.77 1451.71 2081.94 1448.16 Q2080.14 1444.6 2076.5 1444.6 M2076.5 1440.89 Q2082.31 1440.89 2085.37 1445.5 Q2088.45 1450.08 2088.45 1458.83 Q2088.45 1467.56 2085.37 1472.17 Q2082.31 1476.75 2076.5 1476.75 Q2070.69 1476.75 2067.61 1472.17 Q2064.56 1467.56 2064.56 1458.83 Q2064.56 1450.08 2067.61 1445.5 Q2070.69 1440.89 2076.5 1440.89 Z" fill="#000000" fill-rule="evenodd" fill-opacity="1" /><path clip-path="url(#clip820)" d="M 0 0 M2104.09 1456.94 Q2100.95 1456.94 2099.09 1459.09 Q2097.27 1461.24 2097.27 1464.99 Q2097.27 1468.72 2099.09 1470.89 Q2100.95 1473.05 2104.09 1473.05 Q2107.24 1473.05 2109.07 1470.89 Q2110.92 1468.72 2110.92 1464.99 Q2110.92 1461.24 2109.07 1459.09 Q2107.24 1456.94 2104.09 1456.94 M2113.38 1442.28 L2113.38 1446.54 Q2111.62 1445.71 2109.81 1445.27 Q2108.03 1444.83 2106.27 1444.83 Q2101.64 1444.83 2099.19 1447.96 Q2096.76 1451.08 2096.41 1457.4 Q2097.77 1455.39 2099.84 1454.32 Q2101.9 1453.23 2104.37 1453.23 Q2109.58 1453.23 2112.59 1456.4 Q2115.62 1459.55 2115.62 1464.99 Q2115.62 1470.32 2112.47 1473.53 Q2109.33 1476.75 2104.09 1476.75 Q2098.1 1476.75 2094.93 1472.17 Q2091.76 1467.56 2091.76 1458.83 Q2091.76 1450.64 2095.65 1445.78 Q2099.53 1440.89 2106.09 1440.89 Q2107.84 1440.89 2109.63 1441.24 Q2111.43 1441.59 2113.38 1442.28 Z" fill="#000000" fill-rule="evenodd" fill-opacity="1" /><path clip-path="url(#clip820)" d="M 0 0 M2130.69 1444.6 Q2127.08 1444.6 2125.25 1448.16 Q2123.45 1451.71 2123.45 1458.83 Q2123.45 1465.94 2125.25 1469.51 Q2127.08 1473.05 2130.69 1473.05 Q2134.33 1473.05 2136.13 1469.51 Q2137.96 1465.94 2137.96 1458.83 Q2137.96 1451.71 2136.13 1448.16 Q2134.33 1444.6 2130.69 1444.6 M2130.69 1440.89 Q2136.5 1440.89 2139.56 1445.5 Q2142.64 1450.08 2142.64 1458.83 Q2142.64 1467.56 2139.56 1472.17 Q2136.5 1476.75 2130.69 1476.75 Q2124.88 1476.75 2121.8 1472.17 Q2118.75 1467.56 2118.75 1458.83 Q2118.75 1450.08 2121.8 1445.5 Q2124.88 1440.89 2130.69 1440.89 Z" fill="#000000" fill-rule="evenodd" fill-opacity="1" /><path clip-path="url(#clip820)" d="M 0 0 M2189.8 1444.6 Q2186.19 1444.6 2184.36 1448.16 Q2182.55 1451.71 2182.55 1458.83 Q2182.55 1465.94 2184.36 1469.51 Q2186.19 1473.05 2189.8 1473.05 Q2193.43 1473.05 2195.24 1469.51 Q2197.07 1465.94 2197.07 1458.83 Q2197.07 1451.71 2195.24 1448.16 Q2193.43 1444.6 2189.8 1444.6 M2189.8 1440.89 Q2195.61 1440.89 2198.66 1445.5 Q2201.74 1450.08 2201.74 1458.83 Q2201.74 1467.56 2198.66 1472.17 Q2195.61 1476.75 2189.8 1476.75 Q2183.99 1476.75 2180.91 1472.17 Q2177.85 1467.56 2177.85 1458.83 Q2177.85 1450.08 2180.91 1445.5 Q2183.99 1440.89 2189.8 1440.89 Z" fill="#000000" fill-rule="evenodd" fill-opacity="1" /><path clip-path="url(#clip820)" d="M 0 0 M2206.81 1470.2 L2211.7 1470.2 L2211.7 1476.08 L2206.81 1476.08 L2206.81 1470.2 Z" fill="#000000" fill-rule="evenodd" fill-opacity="1" /><path clip-path="url(#clip820)" d="M 0 0 M2226.76 1444.6 Q2223.15 1444.6 2221.33 1448.16 Q2219.52 1451.71 2219.52 1458.83 Q2219.52 1465.94 2221.33 1469.51 Q2223.15 1473.05 2226.76 1473.05 Q2230.4 1473.05 2232.2 1469.51 Q2234.03 1465.94 2234.03 1458.83 Q2234.03 1451.71 2232.2 1448.16 Q2230.4 1444.6 2226.76 1444.6 M2226.76 1440.89 Q2232.57 1440.89 2235.63 1445.5 Q2238.71 1450.08 2238.71 1458.83 Q2238.71 1467.56 2235.63 1472.17 Q2232.57 1476.75 2226.76 1476.75 Q2220.95 1476.75 2217.88 1472.17 Q2214.82 1467.56 2214.82 1458.83 Q2214.82 1450.08 2217.88 1445.5 Q2220.95 1440.89 2226.76 1440.89 Z" fill="#000000" fill-rule="evenodd" fill-opacity="1" /><path clip-path="url(#clip820)" d="M 0 0 M2254.36 1456.94 Q2251.21 1456.94 2249.36 1459.09 Q2247.53 1461.24 2247.53 1464.99 Q2247.53 1468.72 2249.36 1470.89 Q2251.21 1473.05 2254.36 1473.05 Q2257.51 1473.05 2259.33 1470.89 Q2261.19 1468.72 2261.19 1464.99 Q2261.19 1461.24 2259.33 1459.09 Q2257.51 1456.94 2254.36 1456.94 M2263.64 1442.28 L2263.64 1446.54 Q2261.88 1445.71 2260.07 1445.27 Q2258.29 1444.83 2256.53 1444.83 Q2251.9 1444.83 2249.45 1447.96 Q2247.02 1451.08 2246.67 1457.4 Q2248.04 1455.39 2250.1 1454.32 Q2252.16 1453.23 2254.64 1453.23 Q2259.84 1453.23 2262.85 1456.4 Q2265.88 1459.55 2265.88 1464.99 Q2265.88 1470.32 2262.74 1473.53 Q2259.59 1476.75 2254.36 1476.75 Q2248.36 1476.75 2245.19 1472.17 Q2242.02 1467.56 2242.02 1458.83 Q2242.02 1450.64 2245.91 1445.78 Q2249.8 1440.89 2256.35 1440.89 Q2258.11 1440.89 2259.89 1441.24 Q2261.7 1441.59 2263.64 1442.28 Z" fill="#000000" fill-rule="evenodd" fill-opacity="1" /><path clip-path="url(#clip820)" d="M 0 0 M2271 1441.52 L2289.36 1441.52 L2289.36 1445.46 L2275.28 1445.46 L2275.28 1453.93 Q2276.3 1453.58 2277.32 1453.42 Q2278.34 1453.23 2279.36 1453.23 Q2285.14 1453.23 2288.52 1456.4 Q2291.9 1459.58 2291.9 1464.99 Q2291.9 1470.57 2288.43 1473.67 Q2284.96 1476.75 2278.64 1476.75 Q2276.46 1476.75 2274.2 1476.38 Q2271.95 1476.01 2269.54 1475.27 L2269.54 1470.57 Q2271.63 1471.7 2273.85 1472.26 Q2276.07 1472.82 2278.55 1472.82 Q2282.55 1472.82 2284.89 1470.71 Q2287.23 1468.6 2287.23 1464.99 Q2287.23 1461.38 2284.89 1459.27 Q2282.55 1457.17 2278.55 1457.17 Q2276.67 1457.17 2274.8 1457.58 Q2272.95 1458 2271 1458.88 L2271 1441.52 Z" fill="#000000" fill-rule="evenodd" fill-opacity="1" /><path clip-path="url(#clip820)" d="M 0 0 M1279.42 1372.1 Q1275.81 1372.1 1273.98 1375.67 Q1272.18 1379.21 1272.18 1386.34 Q1272.18 1393.45 1273.98 1397.01 Q1275.81 1400.55 1279.42 1400.55 Q1283.06 1400.55 1284.86 1397.01 Q1286.69 1393.45 1286.69 1386.34 Q1286.69 1379.21 1284.86 1375.67 Q1283.06 1372.1 1279.42 1372.1 M1279.42 1368.4 Q1285.23 1368.4 1288.29 1373.01 Q1291.37 1377.59 1291.37 1386.34 Q1291.37 1395.07 1288.29 1399.67 Q1285.23 1404.26 1279.42 1404.26 Q1273.61 1404.26 1270.54 1399.67 Q1267.48 1395.07 1267.48 1386.34 Q1267.48 1377.59 1270.54 1373.01 Q1273.61 1368.4 1279.42 1368.4 Z" fill="#000000" fill-rule="evenodd" fill-opacity="1" /><path clip-path="url(#clip820)" d="M 0 0 M1243.45 1139.43 L1261.81 1139.43 L1261.81 1143.36 L1247.74 1143.36 L1247.74 1151.84 Q1248.75 1151.49 1249.77 1151.33 Q1250.79 1151.14 1251.81 1151.14 Q1257.6 1151.14 1260.98 1154.31 Q1264.36 1157.48 1264.36 1162.9 Q1264.36 1168.48 1260.88 1171.58 Q1257.41 1174.66 1251.09 1174.66 Q1248.92 1174.66 1246.65 1174.29 Q1244.4 1173.92 1241.99 1173.18 L1241.99 1168.48 Q1244.08 1169.61 1246.3 1170.17 Q1248.52 1170.72 1251 1170.72 Q1255 1170.72 1257.34 1168.62 Q1259.68 1166.51 1259.68 1162.9 Q1259.68 1159.29 1257.34 1157.18 Q1255 1155.08 1251 1155.08 Q1249.12 1155.08 1247.25 1155.49 Q1245.4 1155.91 1243.45 1156.79 L1243.45 1139.43 Z" fill="#000000" fill-rule="evenodd" fill-opacity="1" /><path clip-path="url(#clip820)" d="M 0 0 M1279.42 1142.51 Q1275.81 1142.51 1273.98 1146.07 Q1272.18 1149.61 1272.18 1156.74 Q1272.18 1163.85 1273.98 1167.41 Q1275.81 1170.96 1279.42 1170.96 Q1283.06 1170.96 1284.86 1167.41 Q1286.69 1163.85 1286.69 1156.74 Q1286.69 1149.61 1284.86 1146.07 Q1283.06 1142.51 1279.42 1142.51 M1279.42 1138.8 Q1285.23 1138.8 1288.29 1143.41 Q1291.37 1147.99 1291.37 1156.74 Q1291.37 1165.47 1288.29 1170.08 Q1285.23 1174.66 1279.42 1174.66 Q1273.61 1174.66 1270.54 1170.08 Q1267.48 1165.47 1267.48 1156.74 Q1267.48 1147.99 1270.54 1143.41 Q1273.61 1138.8 1279.42 1138.8 Z" fill="#000000" fill-rule="evenodd" fill-opacity="1" /><path clip-path="url(#clip820)" d="M 0 0 M1217.43 940.455 L1225.07 940.455 L1225.07 914.09 L1216.76 915.756 L1216.76 911.497 L1225.03 909.831 L1229.7 909.831 L1229.7 940.455 L1237.34 940.455 L1237.34 944.391 L1217.43 944.391 L1217.43 940.455 Z" fill="#000000" fill-rule="evenodd" fill-opacity="1" /><path clip-path="url(#clip820)" d="M 0 0 M1252.41 912.909 Q1248.8 912.909 1246.97 916.474 Q1245.17 920.016 1245.17 927.145 Q1245.17 934.252 1246.97 937.817 Q1248.8 941.358 1252.41 941.358 Q1256.05 941.358 1257.85 937.817 Q1259.68 934.252 1259.68 927.145 Q1259.68 920.016 1257.85 916.474 Q1256.05 912.909 1252.41 912.909 M1252.41 909.206 Q1258.22 909.206 1261.28 913.812 Q1264.36 918.395 1264.36 927.145 Q1264.36 935.872 1261.28 940.479 Q1258.22 945.062 1252.41 945.062 Q1246.6 945.062 1243.52 940.479 Q1240.47 935.872 1240.47 927.145 Q1240.47 918.395 1243.52 913.812 Q1246.6 909.206 1252.41 909.206 Z" fill="#000000" fill-rule="evenodd" fill-opacity="1" /><path clip-path="url(#clip820)" d="M 0 0 M1279.42 912.909 Q1275.81 912.909 1273.98 916.474 Q1272.18 920.016 1272.18 927.145 Q1272.18 934.252 1273.98 937.817 Q1275.81 941.358 1279.42 941.358 Q1283.06 941.358 1284.86 937.817 Q1286.69 934.252 1286.69 927.145 Q1286.69 920.016 1284.86 916.474 Q1283.06 912.909 1279.42 912.909 M1279.42 909.206 Q1285.23 909.206 1288.29 913.812 Q1291.37 918.395 1291.37 927.145 Q1291.37 935.872 1288.29 940.479 Q1285.23 945.062 1279.42 945.062 Q1273.61 945.062 1270.54 940.479 Q1267.48 935.872 1267.48 927.145 Q1267.48 918.395 1270.54 913.812 Q1273.61 909.206 1279.42 909.206 Z" fill="#000000" fill-rule="evenodd" fill-opacity="1" /><path clip-path="url(#clip820)" d="M 0 0 M1218.43 710.858 L1226.07 710.858 L1226.07 684.492 L1217.76 686.159 L1217.76 681.899 L1226.02 680.233 L1230.7 680.233 L1230.7 710.858 L1238.34 710.858 L1238.34 714.793 L1218.43 714.793 L1218.43 710.858 Z" fill="#000000" fill-rule="evenodd" fill-opacity="1" /><path clip-path="url(#clip820)" d="M 0 0 M1243.45 680.233 L1261.81 680.233 L1261.81 684.168 L1247.74 684.168 L1247.74 692.64 Q1248.75 692.293 1249.77 692.131 Q1250.79 691.946 1251.81 691.946 Q1257.6 691.946 1260.98 695.117 Q1264.36 698.288 1264.36 703.705 Q1264.36 709.283 1260.88 712.385 Q1257.41 715.464 1251.09 715.464 Q1248.92 715.464 1246.65 715.094 Q1244.4 714.723 1241.99 713.983 L1241.99 709.283 Q1244.08 710.418 1246.3 710.973 Q1248.52 711.529 1251 711.529 Q1255 711.529 1257.34 709.422 Q1259.68 707.316 1259.68 703.705 Q1259.68 700.094 1257.34 697.987 Q1255 695.881 1251 695.881 Q1249.12 695.881 1247.25 696.297 Q1245.4 696.714 1243.45 697.594 L1243.45 680.233 Z" fill="#000000" fill-rule="evenodd" fill-opacity="1" /><path clip-path="url(#clip820)" d="M 0 0 M1279.42 683.311 Q1275.81 683.311 1273.98 686.876 Q1272.18 690.418 1272.18 697.547 Q1272.18 704.654 1273.98 708.219 Q1275.81 711.76 1279.42 711.76 Q1283.06 711.76 1284.86 708.219 Q1286.69 704.654 1286.69 697.547 Q1286.69 690.418 1284.86 686.876 Q1283.06 683.311 1279.42 683.311 M1279.42 679.608 Q1285.23 679.608 1288.29 684.214 Q1291.37 688.797 1291.37 697.547 Q1291.37 706.274 1288.29 710.881 Q1285.23 715.464 1279.42 715.464 Q1273.61 715.464 1270.54 710.881 Q1267.48 706.274 1267.48 697.547 Q1267.48 688.797 1270.54 684.214 Q1273.61 679.608 1279.42 679.608 Z" fill="#000000" fill-rule="evenodd" fill-opacity="1" /><path clip-path="url(#clip820)" d="M 0 0 M1221.02 481.26 L1237.34 481.26 L1237.34 485.195 L1215.4 485.195 L1215.4 481.26 Q1218.06 478.505 1222.64 473.875 Q1227.25 469.223 1228.43 467.88 Q1230.67 465.357 1231.55 463.621 Q1232.46 461.862 1232.46 460.172 Q1232.46 457.417 1230.51 455.681 Q1228.59 453.945 1225.49 453.945 Q1223.29 453.945 1220.84 454.709 Q1218.41 455.473 1215.63 457.024 L1215.63 452.301 Q1218.45 451.167 1220.91 450.589 Q1223.36 450.01 1225.4 450.01 Q1230.77 450.01 1233.96 452.695 Q1237.16 455.38 1237.16 459.871 Q1237.16 462.001 1236.35 463.922 Q1235.56 465.82 1233.45 468.413 Q1232.87 469.084 1229.77 472.301 Q1226.67 475.496 1221.02 481.26 Z" fill="#000000" fill-rule="evenodd" fill-opacity="1" /><path clip-path="url(#clip820)" d="M 0 0 M1252.41 453.714 Q1248.8 453.714 1246.97 457.278 Q1245.17 460.82 1245.17 467.95 Q1245.17 475.056 1246.97 478.621 Q1248.8 482.162 1252.41 482.162 Q1256.05 482.162 1257.85 478.621 Q1259.68 475.056 1259.68 467.95 Q1259.68 460.82 1257.85 457.278 Q1256.05 453.714 1252.41 453.714 M1252.41 450.01 Q1258.22 450.01 1261.28 454.616 Q1264.36 459.2 1264.36 467.95 Q1264.36 476.676 1261.28 481.283 Q1258.22 485.866 1252.41 485.866 Q1246.6 485.866 1243.52 481.283 Q1240.47 476.676 1240.47 467.95 Q1240.47 459.2 1243.52 454.616 Q1246.6 450.01 1252.41 450.01 Z" fill="#000000" fill-rule="evenodd" fill-opacity="1" /><path clip-path="url(#clip820)" d="M 0 0 M1279.42 453.714 Q1275.81 453.714 1273.98 457.278 Q1272.18 460.82 1272.18 467.95 Q1272.18 475.056 1273.98 478.621 Q1275.81 482.162 1279.42 482.162 Q1283.06 482.162 1284.86 478.621 Q1286.69 475.056 1286.69 467.95 Q1286.69 460.82 1284.86 457.278 Q1283.06 453.714 1279.42 453.714 M1279.42 450.01 Q1285.23 450.01 1288.29 454.616 Q1291.37 459.2 1291.37 467.95 Q1291.37 476.676 1288.29 481.283 Q1285.23 485.866 1279.42 485.866 Q1273.61 485.866 1270.54 481.283 Q1267.48 476.676 1267.48 467.95 Q1267.48 459.2 1270.54 454.616 Q1273.61 450.01 1279.42 450.01 Z" fill="#000000" fill-rule="evenodd" fill-opacity="1" /><path clip-path="url(#clip820)" d="M 0 0 M1222.02 251.662 L1238.34 251.662 L1238.34 255.597 L1216.39 255.597 L1216.39 251.662 Q1219.05 248.907 1223.64 244.278 Q1228.24 239.625 1229.42 238.282 Q1231.67 235.759 1232.55 234.023 Q1233.45 232.264 1233.45 230.574 Q1233.45 227.819 1231.51 226.083 Q1229.59 224.347 1226.49 224.347 Q1224.29 224.347 1221.83 225.111 Q1219.4 225.875 1216.62 227.426 L1216.62 222.704 Q1219.45 221.569 1221.9 220.991 Q1224.36 220.412 1226.39 220.412 Q1231.76 220.412 1234.96 223.097 Q1238.15 225.782 1238.15 230.273 Q1238.15 232.403 1237.34 234.324 Q1236.55 236.222 1234.45 238.815 Q1233.87 239.486 1230.77 242.704 Q1227.67 245.898 1222.02 251.662 Z" fill="#000000" fill-rule="evenodd" fill-opacity="1" /><path clip-path="url(#clip820)" d="M 0 0 M1243.45 221.037 L1261.81 221.037 L1261.81 224.972 L1247.74 224.972 L1247.74 233.444 Q1248.75 233.097 1249.77 232.935 Q1250.79 232.75 1251.81 232.75 Q1257.6 232.75 1260.98 235.921 Q1264.36 239.092 1264.36 244.509 Q1264.36 250.088 1260.88 253.19 Q1257.41 256.268 1251.09 256.268 Q1248.92 256.268 1246.65 255.898 Q1244.4 255.528 1241.99 254.787 L1241.99 250.088 Q1244.08 251.222 1246.3 251.778 Q1248.52 252.333 1251 252.333 Q1255 252.333 1257.34 250.227 Q1259.68 248.12 1259.68 244.509 Q1259.68 240.898 1257.34 238.792 Q1255 236.685 1251 236.685 Q1249.12 236.685 1247.25 237.102 Q1245.4 237.518 1243.45 238.398 L1243.45 221.037 Z" fill="#000000" fill-rule="evenodd" fill-opacity="1" /><path clip-path="url(#clip820)" d="M 0 0 M1279.42 224.116 Q1275.81 224.116 1273.98 227.68 Q1272.18 231.222 1272.18 238.352 Q1272.18 245.458 1273.98 249.023 Q1275.81 252.565 1279.42 252.565 Q1283.06 252.565 1284.86 249.023 Q1286.69 245.458 1286.69 238.352 Q1286.69 231.222 1284.86 227.68 Q1283.06 224.116 1279.42 224.116 M1279.42 220.412 Q1285.23 220.412 1288.29 225.018 Q1291.37 229.602 1291.37 238.352 Q1291.37 247.079 1288.29 251.685 Q1285.23 256.268 1279.42 256.268 Q1273.61 256.268 1270.54 251.685 Q1267.48 247.079 1267.48 238.352 Q1267.48 229.602 1270.54 225.018 Q1273.61 220.412 1279.42 220.412 Z" fill="#000000" fill-rule="evenodd" fill-opacity="1" /><path clip-path="url(#clip820)" d="M 0 0 M1564.48 18.8205 L1564.48 41.5461 L1574.77 41.5461 Q1580.49 41.5461 1583.6 38.5889 Q1586.72 35.6318 1586.72 30.163 Q1586.72 24.7348 1583.6 21.7777 Q1580.49 18.8205 1574.77 18.8205 L1564.48 18.8205 M1556.3 12.096 L1574.77 12.096 Q1584.94 12.096 1590.13 16.714 Q1595.35 21.2916 1595.35 30.163 Q1595.35 39.1155 1590.13 43.6931 Q1584.94 48.2706 1574.77 48.2706 L1564.48 48.2706 L1564.48 72.576 L1556.3 72.576 L1556.3 12.096 Z" fill="#000000" fill-rule="evenodd" fill-opacity="1" /><path clip-path="url(#clip820)" d="M 0 0 M1620.06 49.7694 Q1611.03 49.7694 1607.55 51.8354 Q1604.06 53.9013 1604.06 58.8839 Q1604.06 62.8538 1606.65 65.2034 Q1609.29 67.5124 1613.78 67.5124 Q1619.98 67.5124 1623.71 63.1374 Q1627.48 58.7219 1627.48 51.4303 L1627.48 49.7694 L1620.06 49.7694 M1634.93 46.6907 L1634.93 72.576 L1627.48 72.576 L1627.48 65.6895 Q1624.92 69.8214 1621.12 71.8063 Q1617.31 73.7508 1611.8 73.7508 Q1604.83 73.7508 1600.7 69.8619 Q1596.61 65.9325 1596.61 59.3701 Q1596.61 51.7138 1601.71 47.825 Q1606.86 43.9361 1617.02 43.9361 L1627.48 43.9361 L1627.48 43.2069 Q1627.48 38.0623 1624.07 35.2672 Q1620.71 32.4315 1614.59 32.4315 Q1610.7 32.4315 1607.02 33.3632 Q1603.33 34.295 1599.93 36.1584 L1599.93 29.2718 Q1604.02 27.692 1607.87 26.9223 Q1611.72 26.1121 1615.36 26.1121 Q1625.21 26.1121 1630.07 31.2163 Q1634.93 36.3204 1634.93 46.6907 Z" fill="#000000" fill-rule="evenodd" fill-opacity="1" /><path clip-path="url(#clip820)" d="M 0 0 M1669.04 34.1734 Q1667.78 33.4443 1666.28 33.1202 Q1664.83 32.7556 1663.04 32.7556 Q1656.72 32.7556 1653.32 36.8875 Q1649.96 40.9789 1649.96 48.6757 L1649.96 72.576 L1642.46 72.576 L1642.46 27.2059 L1649.96 27.2059 L1649.96 34.2544 Q1652.31 30.1225 1656.08 28.1376 Q1659.84 26.1121 1665.23 26.1121 Q1666 26.1121 1666.93 26.2337 Q1667.86 26.3147 1669 26.5172 L1669.04 34.1734 Z" fill="#000000" fill-rule="evenodd" fill-opacity="1" /><path clip-path="url(#clip820)" d="M 0 0 M1697.48 49.7694 Q1688.44 49.7694 1684.96 51.8354 Q1681.47 53.9013 1681.47 58.8839 Q1681.47 62.8538 1684.07 65.2034 Q1686.7 67.5124 1691.2 67.5124 Q1697.39 67.5124 1701.12 63.1374 Q1704.89 58.7219 1704.89 51.4303 L1704.89 49.7694 L1697.48 49.7694 M1712.34 46.6907 L1712.34 72.576 L1704.89 72.576 L1704.89 65.6895 Q1702.34 69.8214 1698.53 71.8063 Q1694.72 73.7508 1689.21 73.7508 Q1682.24 73.7508 1678.11 69.8619 Q1674.02 65.9325 1674.02 59.3701 Q1674.02 51.7138 1679.12 47.825 Q1684.27 43.9361 1694.44 43.9361 L1704.89 43.9361 L1704.89 43.2069 Q1704.89 38.0623 1701.49 35.2672 Q1698.12 32.4315 1692.01 32.4315 Q1688.12 32.4315 1684.43 33.3632 Q1680.75 34.295 1677.34 36.1584 L1677.34 29.2718 Q1681.43 27.692 1685.28 26.9223 Q1689.13 26.1121 1692.78 26.1121 Q1702.62 26.1121 1707.48 31.2163 Q1712.34 36.3204 1712.34 46.6907 Z" fill="#000000" fill-rule="evenodd" fill-opacity="1" /><path clip-path="url(#clip820)" d="M 0 0 M1755.48 35.9153 Q1758.28 30.8922 1762.17 28.5022 Q1766.06 26.1121 1771.32 26.1121 Q1778.41 26.1121 1782.26 31.0947 Q1786.11 36.0368 1786.11 45.1919 L1786.11 72.576 L1778.61 72.576 L1778.61 45.4349 Q1778.61 38.913 1776.31 35.7533 Q1774 32.5936 1769.26 32.5936 Q1763.46 32.5936 1760.1 36.4419 Q1756.74 40.2903 1756.74 46.9338 L1756.74 72.576 L1749.25 72.576 L1749.25 45.4349 Q1749.25 38.8725 1746.94 35.7533 Q1744.63 32.5936 1739.81 32.5936 Q1734.1 32.5936 1730.73 36.4824 Q1727.37 40.3308 1727.37 46.9338 L1727.37 72.576 L1719.88 72.576 L1719.88 27.2059 L1727.37 27.2059 L1727.37 34.2544 Q1729.92 30.082 1733.49 28.0971 Q1737.05 26.1121 1741.95 26.1121 Q1746.9 26.1121 1750.34 28.6237 Q1753.82 31.1352 1755.48 35.9153 Z" fill="#000000" fill-rule="evenodd" fill-opacity="1" /><path clip-path="url(#clip820)" d="M 0 0 M1832.73 48.0275 L1832.73 51.6733 L1798.46 51.6733 Q1798.95 59.3701 1803.08 63.421 Q1807.25 67.4314 1814.67 67.4314 Q1818.96 67.4314 1822.97 66.3781 Q1827.02 65.3249 1830.99 63.2184 L1830.99 70.267 Q1826.98 71.9684 1822.77 72.8596 Q1818.56 73.7508 1814.22 73.7508 Q1803.37 73.7508 1797.01 67.4314 Q1790.69 61.1119 1790.69 50.3365 Q1790.69 39.1965 1796.68 32.6746 Q1802.72 26.1121 1812.93 26.1121 Q1822.08 26.1121 1827.39 32.0264 Q1832.73 37.9003 1832.73 48.0275 M1825.28 45.84 Q1825.2 39.7232 1821.84 36.0774 Q1818.52 32.4315 1813.01 32.4315 Q1806.77 32.4315 1803 35.9558 Q1799.27 39.4801 1798.71 45.8805 L1825.28 45.84 Z" fill="#000000" fill-rule="evenodd" fill-opacity="1" /><path clip-path="url(#clip820)" d="M 0 0 M1847.93 14.324 L1847.93 27.2059 L1863.28 27.2059 L1863.28 32.9987 L1847.93 32.9987 L1847.93 57.6282 Q1847.93 63.1779 1849.42 64.7578 Q1850.96 66.3376 1855.62 66.3376 L1863.28 66.3376 L1863.28 72.576 L1855.62 72.576 Q1846.99 72.576 1843.71 69.3758 Q1840.43 66.1351 1840.43 57.6282 L1840.43 32.9987 L1834.96 32.9987 L1834.96 27.2059 L1840.43 27.2059 L1840.43 14.324 L1847.93 14.324 Z" fill="#000000" fill-rule="evenodd" fill-opacity="1" /><path clip-path="url(#clip820)" d="M 0 0 M1909.9 48.0275 L1909.9 51.6733 L1875.63 51.6733 Q1876.12 59.3701 1880.25 63.421 Q1884.42 67.4314 1891.84 67.4314 Q1896.13 67.4314 1900.14 66.3781 Q1904.19 65.3249 1908.16 63.2184 L1908.16 70.267 Q1904.15 71.9684 1899.94 72.8596 Q1895.73 73.7508 1891.39 73.7508 Q1880.54 73.7508 1874.18 67.4314 Q1867.86 61.1119 1867.86 50.3365 Q1867.86 39.1965 1873.85 32.6746 Q1879.89 26.1121 1890.1 26.1121 Q1899.25 26.1121 1904.56 32.0264 Q1909.9 37.9003 1909.9 48.0275 M1902.45 45.84 Q1902.37 39.7232 1899.01 36.0774 Q1895.69 32.4315 1890.18 32.4315 Q1883.94 32.4315 1880.17 35.9558 Q1876.44 39.4801 1875.88 45.8805 L1902.45 45.84 Z" fill="#000000" fill-rule="evenodd" fill-opacity="1" /><path clip-path="url(#clip820)" d="M 0 0 M1944.01 34.1734 Q1942.76 33.4443 1941.26 33.1202 Q1939.8 32.7556 1938.02 32.7556 Q1931.7 32.7556 1928.3 36.8875 Q1924.93 40.9789 1924.93 48.6757 L1924.93 72.576 L1917.44 72.576 L1917.44 27.2059 L1924.93 27.2059 L1924.93 34.2544 Q1927.28 30.1225 1931.05 28.1376 Q1934.82 26.1121 1940.21 26.1121 Q1940.98 26.1121 1941.91 26.2337 Q1942.84 26.3147 1943.97 26.5172 L1944.01 34.1734 Z" fill="#000000" fill-rule="evenodd" fill-opacity="1" /><path clip-path="url(#clip820)" d="M 0 0 M1986.3 65.6895 L2014.86 65.6895 L2014.86 72.576 L1976.46 72.576 L1976.46 65.6895 Q1981.12 60.8689 1989.14 52.7671 Q1997.2 44.6248 1999.27 42.2752 Q2003.2 37.8598 2004.74 34.8216 Q2006.32 31.7429 2006.32 28.7857 Q2006.32 23.9651 2002.91 20.927 Q1999.55 17.8888 1994.12 17.8888 Q1990.27 17.8888 1985.98 19.2256 Q1981.73 20.5624 1976.87 23.2765 L1976.87 15.0127 Q1981.81 13.0277 1986.1 12.015 Q1990.4 11.0023 1993.96 11.0023 Q2003.36 11.0023 2008.95 15.7013 Q2014.54 20.4004 2014.54 28.2591 Q2014.54 31.9859 2013.12 35.3482 Q2011.74 38.6699 2008.06 43.2069 Q2007.05 44.3817 2001.62 50.0125 Q1996.19 55.6027 1986.3 65.6895 Z" fill="#000000" fill-rule="evenodd" fill-opacity="1" /><path clip-path="url(#clip823)" d="
M1366.24 706.697 L1366.24 1386.31 L1426.15 1386.31 L1426.15 706.697 L1366.24 706.697 L1366.24 706.697  Z
  " fill="#8b0000" fill-rule="evenodd" fill-opacity="1"/>
<polyline clip-path="url(#clip823)" style="stroke:#ffffff; stroke-width:4; stroke-opacity:1; fill:none" points="
  1366.24,706.697 1366.24,1386.31 1426.15,1386.31 1426.15,706.697 1366.24,706.697 
  "/>
<path clip-path="url(#clip823)" d="
M1426.15 293.42 L1426.15 1386.31 L1486.05 1386.31 L1486.05 293.42 L1426.15 293.42 L1426.15 293.42  Z
  " fill="#8b0000" fill-rule="evenodd" fill-opacity="1"/>
<polyline clip-path="url(#clip823)" style="stroke:#ffffff; stroke-width:4; stroke-opacity:1; fill:none" points="
  1426.15,293.42 1426.15,1386.31 1486.05,1386.31 1486.05,293.42 1426.15,293.42 
  "/>
<path clip-path="url(#clip823)" d="
M1486.05 307.196 L1486.05 1386.31 L1545.96 1386.31 L1545.96 307.196 L1486.05 307.196 L1486.05 307.196  Z
  " fill="#8b0000" fill-rule="evenodd" fill-opacity="1"/>
<polyline clip-path="url(#clip823)" style="stroke:#ffffff; stroke-width:4; stroke-opacity:1; fill:none" points="
  1486.05,307.196 1486.05,1386.31 1545.96,1386.31 1545.96,307.196 1486.05,307.196 
  "/>
<path clip-path="url(#clip823)" d="
M1545.96 160.254 L1545.96 1386.31 L1605.86 1386.31 L1605.86 160.254 L1545.96 160.254 L1545.96 160.254  Z
  " fill="#8b0000" fill-rule="evenodd" fill-opacity="1"/>
<polyline clip-path="url(#clip823)" style="stroke:#ffffff; stroke-width:4; stroke-opacity:1; fill:none" points="
  1545.96,160.254 1545.96,1386.31 1605.86,1386.31 1605.86,160.254 1545.96,160.254 
  "/>
<path clip-path="url(#clip823)" d="
M1605.86 311.788 L1605.86 1386.31 L1665.77 1386.31 L1665.77 311.788 L1605.86 311.788 L1605.86 311.788  Z
  " fill="#8b0000" fill-rule="evenodd" fill-opacity="1"/>
<polyline clip-path="url(#clip823)" style="stroke:#ffffff; stroke-width:4; stroke-opacity:1; fill:none" points="
  1605.86,311.788 1605.86,1386.31 1665.77,1386.31 1665.77,311.788 1605.86,311.788 
  "/>
<path clip-path="url(#clip823)" d="
M1665.77 399.035 L1665.77 1386.31 L1725.68 1386.31 L1725.68 399.035 L1665.77 399.035 L1665.77 399.035  Z
  " fill="#8b0000" fill-rule="evenodd" fill-opacity="1"/>
<polyline clip-path="url(#clip823)" style="stroke:#ffffff; stroke-width:4; stroke-opacity:1; fill:none" points="
  1665.77,399.035 1665.77,1386.31 1725.68,1386.31 1725.68,399.035 1665.77,399.035 
  "/>
<path clip-path="url(#clip823)" d="
M1725.68 477.099 L1725.68 1386.31 L1785.58 1386.31 L1785.58 477.099 L1725.68 477.099 L1725.68 477.099  Z
  " fill="#8b0000" fill-rule="evenodd" fill-opacity="1"/>
<polyline clip-path="url(#clip823)" style="stroke:#ffffff; stroke-width:4; stroke-opacity:1; fill:none" points="
  1725.68,477.099 1725.68,1386.31 1785.58,1386.31 1785.58,477.099 1725.68,477.099 
  "/>
<path clip-path="url(#clip823)" d="
M1785.58 803.128 L1785.58 1386.31 L1845.49 1386.31 L1845.49 803.128 L1785.58 803.128 L1785.58 803.128  Z
  " fill="#8b0000" fill-rule="evenodd" fill-opacity="1"/>
<polyline clip-path="url(#clip823)" style="stroke:#ffffff; stroke-width:4; stroke-opacity:1; fill:none" points="
  1785.58,803.128 1785.58,1386.31 1845.49,1386.31 1845.49,803.128 1785.58,803.128 
  "/>
<path clip-path="url(#clip823)" d="
M1845.49 766.392 L1845.49 1386.31 L1905.39 1386.31 L1905.39 766.392 L1845.49 766.392 L1845.49 766.392  Z
  " fill="#8b0000" fill-rule="evenodd" fill-opacity="1"/>
<polyline clip-path="url(#clip823)" style="stroke:#ffffff; stroke-width:4; stroke-opacity:1; fill:none" points="
  1845.49,766.392 1845.49,1386.31 1905.39,1386.31 1905.39,766.392 1845.49,766.392 
  "/>
<path clip-path="url(#clip823)" d="
M1905.39 963.846 L1905.39 1386.31 L1965.3 1386.31 L1965.3 963.846 L1905.39 963.846 L1905.39 963.846  Z
  " fill="#8b0000" fill-rule="evenodd" fill-opacity="1"/>
<polyline clip-path="url(#clip823)" style="stroke:#ffffff; stroke-width:4; stroke-opacity:1; fill:none" points="
  1905.39,963.846 1905.39,1386.31 1965.3,1386.31 1965.3,963.846 1905.39,963.846 
  "/>
<path clip-path="url(#clip823)" d="
M1965.3 1129.16 L1965.3 1386.31 L2025.21 1386.31 L2025.21 1129.16 L1965.3 1129.16 L1965.3 1129.16  Z
  " fill="#8b0000" fill-rule="evenodd" fill-opacity="1"/>
<polyline clip-path="url(#clip823)" style="stroke:#ffffff; stroke-width:4; stroke-opacity:1; fill:none" points="
  1965.3,1129.16 1965.3,1386.31 2025.21,1386.31 2025.21,1129.16 1965.3,1129.16 
  "/>
<path clip-path="url(#clip823)" d="
M2025.21 1198.04 L2025.21 1386.31 L2085.11 1386.31 L2085.11 1198.04 L2025.21 1198.04 L2025.21 1198.04  Z
  " fill="#8b0000" fill-rule="evenodd" fill-opacity="1"/>
<polyline clip-path="url(#clip823)" style="stroke:#ffffff; stroke-width:4; stroke-opacity:1; fill:none" points="
  2025.21,1198.04 2025.21,1386.31 2085.11,1386.31 2085.11,1198.04 2025.21,1198.04 
  "/>
<path clip-path="url(#clip823)" d="
M2085.11 1326.61 L2085.11 1386.31 L2145.02 1386.31 L2145.02 1326.61 L2085.11 1326.61 L2085.11 1326.61  Z
  " fill="#8b0000" fill-rule="evenodd" fill-opacity="1"/>
<polyline clip-path="url(#clip823)" style="stroke:#ffffff; stroke-width:4; stroke-opacity:1; fill:none" points="
  2085.11,1326.61 2085.11,1386.31 2145.02,1386.31 2145.02,1326.61 2085.11,1326.61 
  "/>
<path clip-path="url(#clip823)" d="
M2145.02 1381.71 L2145.02 1386.31 L2204.93 1386.31 L2204.93 1381.71 L2145.02 1381.71 L2145.02 1381.71  Z
  " fill="#8b0000" fill-rule="evenodd" fill-opacity="1"/>
<polyline clip-path="url(#clip823)" style="stroke:#ffffff; stroke-width:4; stroke-opacity:1; fill:none" points="
  2145.02,1381.71 2145.02,1386.31 2204.93,1386.31 2204.93,1381.71 2145.02,1381.71 
  "/>
</svg>
