<?xml version="1.0" encoding="utf-8"?>
<svg xmlns="http://www.w3.org/2000/svg" xmlns:xlink="http://www.w3.org/1999/xlink" width="576" height="384" viewBox="0 0 2304 1536">
<defs>
  <clipPath id="clip470">
    <rect x="0" y="0" width="2304" height="1536"/>
  </clipPath>
</defs>
<path clip-path="url(#clip470)" d="
M0 1536 L2304 1536 L2304 0 L0 0  Z
  " fill="#ffffff" fill-rule="evenodd" fill-opacity="1"/>
<defs>
  <clipPath id="clip471">
    <rect x="460" y="0" width="1614" height="1536"/>
  </clipPath>
</defs>
<path clip-path="url(#clip470)" d="
M250.92 1359.82 L2256.76 1359.82 L2256.76 47.2441 L250.92 47.2441  Z
  " fill="#ffffff" fill-rule="evenodd" fill-opacity="1"/>
<defs>
  <clipPath id="clip472">
    <rect x="250" y="47" width="2007" height="1314"/>
  </clipPath>
</defs>
<polyline clip-path="url(#clip472)" style="stroke:#000000; stroke-width:2; stroke-opacity:0.1; fill:none" points="
  307.689,1359.82 307.689,47.2441 
  "/>
<polyline clip-path="url(#clip472)" style="stroke:#000000; stroke-width:2; stroke-opacity:0.1; fill:none" points="
  780.763,1359.82 780.763,47.2441 
  "/>
<polyline clip-path="url(#clip472)" style="stroke:#000000; stroke-width:2; stroke-opacity:0.1; fill:none" points="
  1253.84,1359.82 1253.84,47.2441 
  "/>
<polyline clip-path="url(#clip472)" style="stroke:#000000; stroke-width:2; stroke-opacity:0.1; fill:none" points="
  1726.91,1359.82 1726.91,47.2441 
  "/>
<polyline clip-path="url(#clip472)" style="stroke:#000000; stroke-width:2; stroke-opacity:0.1; fill:none" points="
  2199.99,1359.82 2199.99,47.2441 
  "/>
<polyline clip-path="url(#clip472)" style="stroke:#000000; stroke-width:2; stroke-opacity:0.1; fill:none" points="
  250.92,1322.67 2256.76,1322.67 
  "/>
<polyline clip-path="url(#clip472)" style="stroke:#000000; stroke-width:2; stroke-opacity:0.1; fill:none" points="
  250.92,1009.97 2256.76,1009.97 
  "/>
<polyline clip-path="url(#clip472)" style="stroke:#000000; stroke-width:2; stroke-opacity:0.1; fill:none" points="
  250.92,697.278 2256.76,697.278 
  "/>
<polyline clip-path="url(#clip472)" style="stroke:#000000; stroke-width:2; stroke-opacity:0.1; fill:none" points="
  250.92,384.581 2256.76,384.581 
  "/>
<polyline clip-path="url(#clip472)" style="stroke:#000000; stroke-width:2; stroke-opacity:0.1; fill:none" points="
  250.92,71.8846 2256.76,71.8846 
  "/>
<polyline clip-path="url(#clip470)" style="stroke:#000000; stroke-width:4; stroke-opacity:1; fill:none" points="
  250.92,1359.82 2256.76,1359.82 
  "/>
<polyline clip-path="url(#clip470)" style="stroke:#000000; stroke-width:4; stroke-opacity:1; fill:none" points="
  250.92,1359.82 250.92,47.2441 
  "/>
<polyline clip-path="url(#clip470)" style="stroke:#000000; stroke-width:4; stroke-opacity:1; fill:none" points="
  307.689,1359.82 307.689,1344.07 
  "/>
<polyline clip-path="url(#clip470)" style="stroke:#000000; stroke-width:4; stroke-opacity:1; fill:none" points="
  780.763,1359.82 780.763,1344.07 
  "/>
<polyline clip-path="url(#clip470)" style="stroke:#000000; stroke-width:4; stroke-opacity:1; fill:none" points="
  1253.84,1359.82 1253.84,1344.07 
  "/>
<polyline clip-path="url(#clip470)" style="stroke:#000000; stroke-width:4; stroke-opacity:1; fill:none" points="
  1726.91,1359.82 1726.91,1344.07 
  "/>
<polyline clip-path="url(#clip470)" style="stroke:#000000; stroke-width:4; stroke-opacity:1; fill:none" points="
  2199.99,1359.82 2199.99,1344.07 
  "/>
<polyline clip-path="url(#clip470)" style="stroke:#000000; stroke-width:4; stroke-opacity:1; fill:none" points="
  250.92,1322.67 274.99,1322.67 
  "/>
<polyline clip-path="url(#clip470)" style="stroke:#000000; stroke-width:4; stroke-opacity:1; fill:none" points="
  250.92,1009.97 274.99,1009.97 
  "/>
<polyline clip-path="url(#clip470)" style="stroke:#000000; stroke-width:4; stroke-opacity:1; fill:none" points="
  250.92,697.278 274.99,697.278 
  "/>
<polyline clip-path="url(#clip470)" style="stroke:#000000; stroke-width:4; stroke-opacity:1; fill:none" points="
  250.92,384.581 274.99,384.581 
  "/>
<polyline clip-path="url(#clip470)" style="stroke:#000000; stroke-width:4; stroke-opacity:1; fill:none" points="
  250.92,71.8846 274.99,71.8846 
  "/>
<path clip-path="url(#clip470)" d="M 0 0 M307.689 1381.33 Q304.078 1381.33 302.249 1384.9 Q300.444 1388.44 300.444 1395.57 Q300.444 1402.67 302.249 1406.24 Q304.078 1409.78 307.689 1409.78 Q311.323 1409.78 313.129 1406.24 Q314.957 1402.67 314.957 1395.57 Q314.957 1388.44 313.129 1384.9 Q311.323 1381.33 307.689 1381.33 M307.689 1377.63 Q313.499 1377.63 316.555 1382.23 Q319.633 1386.82 319.633 1395.57 Q319.633 1404.29 316.555 1408.9 Q313.499 1413.48 307.689 1413.48 Q301.879 1413.48 298.8 1408.9 Q295.745 1404.29 295.745 1395.57 Q295.745 1386.82 298.8 1382.23 Q301.879 1377.63 307.689 1377.63 Z" fill="#000000" fill-rule="evenodd" fill-opacity="1" /><path clip-path="url(#clip470)" d="M 0 0 M757.639 1408.88 L765.277 1408.88 L765.277 1382.51 L756.967 1384.18 L756.967 1379.92 L765.231 1378.25 L769.907 1378.25 L769.907 1408.88 L777.546 1408.88 L777.546 1412.81 L757.639 1412.81 L757.639 1408.88 Z" fill="#000000" fill-rule="evenodd" fill-opacity="1" /><path clip-path="url(#clip470)" d="M 0 0 M792.615 1381.33 Q789.004 1381.33 787.175 1384.9 Q785.37 1388.44 785.37 1395.57 Q785.37 1402.67 787.175 1406.24 Q789.004 1409.78 792.615 1409.78 Q796.249 1409.78 798.055 1406.24 Q799.884 1402.67 799.884 1395.57 Q799.884 1388.44 798.055 1384.9 Q796.249 1381.33 792.615 1381.33 M792.615 1377.63 Q798.425 1377.63 801.481 1382.23 Q804.56 1386.82 804.56 1395.57 Q804.56 1404.29 801.481 1408.9 Q798.425 1413.48 792.615 1413.48 Q786.805 1413.48 783.726 1408.9 Q780.671 1404.29 780.671 1395.57 Q780.671 1386.82 783.726 1382.23 Q786.805 1377.63 792.615 1377.63 Z" fill="#000000" fill-rule="evenodd" fill-opacity="1" /><path clip-path="url(#clip470)" d="M 0 0 M1234.98 1408.88 L1251.3 1408.88 L1251.3 1412.81 L1229.36 1412.81 L1229.36 1408.88 Q1232.02 1406.12 1236.6 1401.49 Q1241.21 1396.84 1242.39 1395.5 Q1244.64 1392.97 1245.52 1391.24 Q1246.42 1389.48 1246.42 1387.79 Q1246.42 1385.03 1244.47 1383.3 Q1242.55 1381.56 1239.45 1381.56 Q1237.25 1381.56 1234.8 1382.33 Q1232.37 1383.09 1229.59 1384.64 L1229.59 1379.92 Q1232.41 1378.78 1234.87 1378.21 Q1237.32 1377.63 1239.36 1377.63 Q1244.73 1377.63 1247.92 1380.31 Q1251.12 1383 1251.12 1387.49 Q1251.12 1389.62 1250.31 1391.54 Q1249.52 1393.44 1247.41 1396.03 Q1246.84 1396.7 1243.73 1399.92 Q1240.63 1403.11 1234.98 1408.88 Z" fill="#000000" fill-rule="evenodd" fill-opacity="1" /><path clip-path="url(#clip470)" d="M 0 0 M1266.37 1381.33 Q1262.76 1381.33 1260.93 1384.9 Q1259.13 1388.44 1259.13 1395.57 Q1259.13 1402.67 1260.93 1406.24 Q1262.76 1409.78 1266.37 1409.78 Q1270.01 1409.78 1271.81 1406.24 Q1273.64 1402.67 1273.64 1395.57 Q1273.64 1388.44 1271.81 1384.9 Q1270.01 1381.33 1266.37 1381.33 M1266.37 1377.63 Q1272.18 1377.63 1275.24 1382.23 Q1278.32 1386.82 1278.32 1395.57 Q1278.32 1404.29 1275.24 1408.9 Q1272.18 1413.48 1266.37 1413.48 Q1260.56 1413.48 1257.48 1408.9 Q1254.43 1404.29 1254.43 1395.57 Q1254.43 1386.82 1257.48 1382.23 Q1260.56 1377.63 1266.37 1377.63 Z" fill="#000000" fill-rule="evenodd" fill-opacity="1" /><path clip-path="url(#clip470)" d="M 0 0 M1717.65 1394.18 Q1721.01 1394.9 1722.88 1397.16 Q1724.78 1399.43 1724.78 1402.77 Q1724.78 1407.88 1721.26 1410.68 Q1717.75 1413.48 1711.26 1413.48 Q1709.09 1413.48 1706.77 1413.04 Q1704.48 1412.63 1702.03 1411.77 L1702.03 1407.26 Q1703.97 1408.39 1706.29 1408.97 Q1708.6 1409.55 1711.13 1409.55 Q1715.52 1409.55 1717.82 1407.81 Q1720.13 1406.08 1720.13 1402.77 Q1720.13 1399.71 1717.98 1398 Q1715.85 1396.26 1712.03 1396.26 L1708 1396.26 L1708 1392.42 L1712.21 1392.42 Q1715.66 1392.42 1717.49 1391.05 Q1719.32 1389.66 1719.32 1387.07 Q1719.32 1384.41 1717.42 1383 Q1715.55 1381.56 1712.03 1381.56 Q1710.11 1381.56 1707.91 1381.98 Q1705.71 1382.4 1703.07 1383.27 L1703.07 1379.11 Q1705.73 1378.37 1708.05 1378 Q1710.38 1377.63 1712.44 1377.63 Q1717.77 1377.63 1720.87 1380.06 Q1723.97 1382.46 1723.97 1386.59 Q1723.97 1389.46 1722.33 1391.45 Q1720.69 1393.41 1717.65 1394.18 Z" fill="#000000" fill-rule="evenodd" fill-opacity="1" /><path clip-path="url(#clip470)" d="M 0 0 M1739.85 1381.33 Q1736.24 1381.33 1734.41 1384.9 Q1732.61 1388.44 1732.61 1395.57 Q1732.61 1402.67 1734.41 1406.24 Q1736.24 1409.78 1739.85 1409.78 Q1743.49 1409.78 1745.29 1406.24 Q1747.12 1402.67 1747.12 1395.57 Q1747.12 1388.44 1745.29 1384.9 Q1743.49 1381.33 1739.85 1381.33 M1739.85 1377.63 Q1745.66 1377.63 1748.72 1382.23 Q1751.8 1386.82 1751.8 1395.57 Q1751.8 1404.29 1748.72 1408.9 Q1745.66 1413.48 1739.85 1413.48 Q1734.04 1413.48 1730.96 1408.9 Q1727.91 1404.29 1727.91 1395.57 Q1727.91 1386.82 1730.96 1382.23 Q1734.04 1377.63 1739.85 1377.63 Z" fill="#000000" fill-rule="evenodd" fill-opacity="1" /><path clip-path="url(#clip470)" d="M 0 0 M2189.49 1382.33 L2177.68 1400.77 L2189.49 1400.77 L2189.49 1382.33 M2188.26 1378.25 L2194.14 1378.25 L2194.14 1400.77 L2199.07 1400.77 L2199.07 1404.66 L2194.14 1404.66 L2194.14 1412.81 L2189.49 1412.81 L2189.49 1404.66 L2173.89 1404.66 L2173.89 1400.15 L2188.26 1378.25 Z" fill="#000000" fill-rule="evenodd" fill-opacity="1" /><path clip-path="url(#clip470)" d="M 0 0 M2214.14 1381.33 Q2210.53 1381.33 2208.7 1384.9 Q2206.9 1388.44 2206.9 1395.57 Q2206.9 1402.67 2208.7 1406.24 Q2210.53 1409.78 2214.14 1409.78 Q2217.78 1409.78 2219.58 1406.24 Q2221.41 1402.67 2221.41 1395.57 Q2221.41 1388.44 2219.58 1384.9 Q2217.78 1381.33 2214.14 1381.33 M2214.14 1377.63 Q2219.95 1377.63 2223.01 1382.23 Q2226.09 1386.82 2226.09 1395.57 Q2226.09 1404.29 2223.01 1408.9 Q2219.95 1413.48 2214.14 1413.48 Q2208.33 1413.48 2205.25 1408.9 Q2202.2 1404.29 2202.2 1395.57 Q2202.2 1386.82 2205.25 1382.23 Q2208.33 1377.63 2214.14 1377.63 Z" fill="#000000" fill-rule="evenodd" fill-opacity="1" /><path clip-path="url(#clip470)" d="M 0 0 M215.936 1308.47 Q212.325 1308.47 210.496 1312.03 Q208.69 1315.58 208.69 1322.71 Q208.69 1329.81 210.496 1333.38 Q212.325 1336.92 215.936 1336.92 Q219.57 1336.92 221.375 1333.38 Q223.204 1329.81 223.204 1322.71 Q223.204 1315.58 221.375 1312.03 Q219.57 1308.47 215.936 1308.47 M215.936 1304.77 Q221.746 1304.77 224.801 1309.37 Q227.88 1313.96 227.88 1322.71 Q227.88 1331.43 224.801 1336.04 Q221.746 1340.62 215.936 1340.62 Q210.125 1340.62 207.047 1336.04 Q203.991 1331.43 203.991 1322.71 Q203.991 1313.96 207.047 1309.37 Q210.125 1304.77 215.936 1304.77 Z" fill="#000000" fill-rule="evenodd" fill-opacity="1" /><path clip-path="url(#clip470)" d="M 0 0 M158.529 1023.32 L174.848 1023.32 L174.848 1027.25 L152.904 1027.25 L152.904 1023.32 Q155.566 1020.56 160.149 1015.94 Q164.755 1011.28 165.936 1009.94 Q168.181 1007.42 169.061 1005.68 Q169.964 1003.92 169.964 1002.23 Q169.964 999.477 168.019 997.741 Q166.098 996.005 162.996 996.005 Q160.797 996.005 158.343 996.769 Q155.913 997.533 153.135 999.084 L153.135 994.361 Q155.959 993.227 158.413 992.648 Q160.866 992.07 162.903 992.07 Q168.274 992.07 171.468 994.755 Q174.663 997.44 174.663 1001.93 Q174.663 1004.06 173.852 1005.98 Q173.065 1007.88 170.959 1010.47 Q170.38 1011.14 167.278 1014.36 Q164.177 1017.56 158.529 1023.32 Z" fill="#000000" fill-rule="evenodd" fill-opacity="1" /><path clip-path="url(#clip470)" d="M 0 0 M179.964 992.695 L198.32 992.695 L198.32 996.63 L184.246 996.63 L184.246 1005.1 Q185.264 1004.75 186.283 1004.59 Q187.301 1004.41 188.32 1004.41 Q194.107 1004.41 197.487 1007.58 Q200.866 1010.75 200.866 1016.17 Q200.866 1021.75 197.394 1024.85 Q193.922 1027.93 187.602 1027.93 Q185.427 1027.93 183.158 1027.56 Q180.913 1027.19 178.505 1026.44 L178.505 1021.75 Q180.589 1022.88 182.811 1023.44 Q185.033 1023.99 187.51 1023.99 Q191.514 1023.99 193.852 1021.88 Q196.19 1019.78 196.19 1016.17 Q196.19 1012.56 193.852 1010.45 Q191.514 1008.34 187.51 1008.34 Q185.635 1008.34 183.76 1008.76 Q181.908 1009.18 179.964 1010.06 L179.964 992.695 Z" fill="#000000" fill-rule="evenodd" fill-opacity="1" /><path clip-path="url(#clip470)" d="M 0 0 M215.936 995.773 Q212.325 995.773 210.496 999.338 Q208.69 1002.88 208.69 1010.01 Q208.69 1017.12 210.496 1020.68 Q212.325 1024.22 215.936 1024.22 Q219.57 1024.22 221.375 1020.68 Q223.204 1017.12 223.204 1010.01 Q223.204 1002.88 221.375 999.338 Q219.57 995.773 215.936 995.773 M215.936 992.07 Q221.746 992.07 224.801 996.676 Q227.88 1001.26 227.88 1010.01 Q227.88 1018.74 224.801 1023.34 Q221.746 1027.93 215.936 1027.93 Q210.125 1027.93 207.047 1023.34 Q203.991 1018.74 203.991 1010.01 Q203.991 1001.26 207.047 996.676 Q210.125 992.07 215.936 992.07 Z" fill="#000000" fill-rule="evenodd" fill-opacity="1" /><path clip-path="url(#clip470)" d="M 0 0 M152.95 679.998 L171.306 679.998 L171.306 683.933 L157.232 683.933 L157.232 692.405 Q158.251 692.058 159.269 691.896 Q160.288 691.711 161.306 691.711 Q167.093 691.711 170.473 694.882 Q173.852 698.053 173.852 703.47 Q173.852 709.049 170.38 712.151 Q166.908 715.229 160.589 715.229 Q158.413 715.229 156.144 714.859 Q153.899 714.489 151.492 713.748 L151.492 709.049 Q153.575 710.183 155.797 710.739 Q158.019 711.294 160.496 711.294 Q164.501 711.294 166.839 709.188 Q169.177 707.081 169.177 703.47 Q169.177 699.859 166.839 697.753 Q164.501 695.646 160.496 695.646 Q158.621 695.646 156.746 696.063 Q154.894 696.479 152.95 697.359 L152.95 679.998 Z" fill="#000000" fill-rule="evenodd" fill-opacity="1" /><path clip-path="url(#clip470)" d="M 0 0 M188.922 683.077 Q185.311 683.077 183.482 686.642 Q181.677 690.183 181.677 697.313 Q181.677 704.419 183.482 707.984 Q185.311 711.526 188.922 711.526 Q192.556 711.526 194.362 707.984 Q196.19 704.419 196.19 697.313 Q196.19 690.183 194.362 686.642 Q192.556 683.077 188.922 683.077 M188.922 679.373 Q194.732 679.373 197.788 683.979 Q200.866 688.563 200.866 697.313 Q200.866 706.04 197.788 710.646 Q194.732 715.229 188.922 715.229 Q183.112 715.229 180.033 710.646 Q176.977 706.04 176.977 697.313 Q176.977 688.563 180.033 683.979 Q183.112 679.373 188.922 679.373 Z" fill="#000000" fill-rule="evenodd" fill-opacity="1" /><path clip-path="url(#clip470)" d="M 0 0 M215.936 683.077 Q212.325 683.077 210.496 686.642 Q208.69 690.183 208.69 697.313 Q208.69 704.419 210.496 707.984 Q212.325 711.526 215.936 711.526 Q219.57 711.526 221.375 707.984 Q223.204 704.419 223.204 697.313 Q223.204 690.183 221.375 686.642 Q219.57 683.077 215.936 683.077 M215.936 679.373 Q221.746 679.373 224.801 683.979 Q227.88 688.563 227.88 697.313 Q227.88 706.04 224.801 710.646 Q221.746 715.229 215.936 715.229 Q210.125 715.229 207.047 710.646 Q203.991 706.04 203.991 697.313 Q203.991 688.563 207.047 683.979 Q210.125 679.373 215.936 679.373 Z" fill="#000000" fill-rule="evenodd" fill-opacity="1" /><path clip-path="url(#clip470)" d="M 0 0 M152.626 367.301 L174.848 367.301 L174.848 369.292 L162.302 401.861 L157.417 401.861 L169.223 371.236 L152.626 371.236 L152.626 367.301 Z" fill="#000000" fill-rule="evenodd" fill-opacity="1" /><path clip-path="url(#clip470)" d="M 0 0 M179.964 367.301 L198.32 367.301 L198.32 371.236 L184.246 371.236 L184.246 379.709 Q185.264 379.361 186.283 379.199 Q187.301 379.014 188.32 379.014 Q194.107 379.014 197.487 382.185 Q200.866 385.357 200.866 390.773 Q200.866 396.352 197.394 399.454 Q193.922 402.533 187.602 402.533 Q185.427 402.533 183.158 402.162 Q180.913 401.792 178.505 401.051 L178.505 396.352 Q180.589 397.486 182.811 398.042 Q185.033 398.597 187.51 398.597 Q191.514 398.597 193.852 396.491 Q196.19 394.385 196.19 390.773 Q196.19 387.162 193.852 385.056 Q191.514 382.949 187.51 382.949 Q185.635 382.949 183.76 383.366 Q181.908 383.783 179.964 384.662 L179.964 367.301 Z" fill="#000000" fill-rule="evenodd" fill-opacity="1" /><path clip-path="url(#clip470)" d="M 0 0 M215.936 370.38 Q212.325 370.38 210.496 373.945 Q208.69 377.486 208.69 384.616 Q208.69 391.722 210.496 395.287 Q212.325 398.829 215.936 398.829 Q219.57 398.829 221.375 395.287 Q223.204 391.722 223.204 384.616 Q223.204 377.486 221.375 373.945 Q219.57 370.38 215.936 370.38 M215.936 366.676 Q221.746 366.676 224.801 371.283 Q227.88 375.866 227.88 384.616 Q227.88 393.343 224.801 397.949 Q221.746 402.533 215.936 402.533 Q210.125 402.533 207.047 397.949 Q203.991 393.343 203.991 384.616 Q203.991 375.866 207.047 371.283 Q210.125 366.676 215.936 366.676 Z" fill="#000000" fill-rule="evenodd" fill-opacity="1" /><path clip-path="url(#clip470)" d="M 0 0 M126.931 85.2294 L134.57 85.2294 L134.57 58.8638 L126.26 60.5305 L126.26 56.2713 L134.524 54.6046 L139.2 54.6046 L139.2 85.2294 L146.839 85.2294 L146.839 89.1646 L126.931 89.1646 L126.931 85.2294 Z" fill="#000000" fill-rule="evenodd" fill-opacity="1" /><path clip-path="url(#clip470)" d="M 0 0 M161.908 57.6833 Q158.297 57.6833 156.468 61.2481 Q154.663 64.7897 154.663 71.9193 Q154.663 79.0258 156.468 82.5906 Q158.297 86.1322 161.908 86.1322 Q165.542 86.1322 167.348 82.5906 Q169.177 79.0258 169.177 71.9193 Q169.177 64.7897 167.348 61.2481 Q165.542 57.6833 161.908 57.6833 M161.908 53.9796 Q167.718 53.9796 170.774 58.5861 Q173.852 63.1694 173.852 71.9193 Q173.852 80.6461 170.774 85.2526 Q167.718 89.8359 161.908 89.8359 Q156.098 89.8359 153.019 85.2526 Q149.964 80.6461 149.964 71.9193 Q149.964 63.1694 153.019 58.5861 Q156.098 53.9796 161.908 53.9796 Z" fill="#000000" fill-rule="evenodd" fill-opacity="1" /><path clip-path="url(#clip470)" d="M 0 0 M188.922 57.6833 Q185.311 57.6833 183.482 61.2481 Q181.677 64.7897 181.677 71.9193 Q181.677 79.0258 183.482 82.5906 Q185.311 86.1322 188.922 86.1322 Q192.556 86.1322 194.362 82.5906 Q196.19 79.0258 196.19 71.9193 Q196.19 64.7897 194.362 61.2481 Q192.556 57.6833 188.922 57.6833 M188.922 53.9796 Q194.732 53.9796 197.788 58.5861 Q200.866 63.1694 200.866 71.9193 Q200.866 80.6461 197.788 85.2526 Q194.732 89.8359 188.922 89.8359 Q183.112 89.8359 180.033 85.2526 Q176.977 80.6461 176.977 71.9193 Q176.977 63.1694 180.033 58.5861 Q183.112 53.9796 188.922 53.9796 Z" fill="#000000" fill-rule="evenodd" fill-opacity="1" /><path clip-path="url(#clip470)" d="M 0 0 M215.936 57.6833 Q212.325 57.6833 210.496 61.2481 Q208.69 64.7897 208.69 71.9193 Q208.69 79.0258 210.496 82.5906 Q212.325 86.1322 215.936 86.1322 Q219.57 86.1322 221.375 82.5906 Q223.204 79.0258 223.204 71.9193 Q223.204 64.7897 221.375 61.2481 Q219.57 57.6833 215.936 57.6833 M215.936 53.9796 Q221.746 53.9796 224.801 58.5861 Q227.88 63.1694 227.88 71.9193 Q227.88 80.6461 224.801 85.2526 Q221.746 89.8359 215.936 89.8359 Q210.125 89.8359 207.047 85.2526 Q203.991 80.6461 203.991 71.9193 Q203.991 63.1694 207.047 58.5861 Q210.125 53.9796 215.936 53.9796 Z" fill="#000000" fill-rule="evenodd" fill-opacity="1" /><path clip-path="url(#clip470)" d="M 0 0 M1181.44 1444.2 L1221.64 1444.2 L1221.64 1449.61 L1204.77 1449.61 L1204.77 1491.72 L1198.31 1491.72 L1198.31 1449.61 L1181.44 1449.61 L1181.44 1444.2 Z" fill="#000000" fill-rule="evenodd" fill-opacity="1" /><path clip-path="url(#clip470)" d="M 0 0 M1225.78 1456.08 L1231.64 1456.08 L1231.64 1491.72 L1225.78 1491.72 L1225.78 1456.08 M1225.78 1442.2 L1231.64 1442.2 L1231.64 1449.61 L1225.78 1449.61 L1225.78 1442.2 Z" fill="#000000" fill-rule="evenodd" fill-opacity="1" /><path clip-path="url(#clip470)" d="M 0 0 M1265.53 1462.92 Q1267.73 1458.97 1270.79 1457.09 Q1273.84 1455.22 1277.98 1455.22 Q1283.55 1455.22 1286.57 1459.13 Q1289.6 1463.01 1289.6 1470.21 L1289.6 1491.72 L1283.71 1491.72 L1283.71 1470.4 Q1283.71 1465.27 1281.89 1462.79 Q1280.08 1460.31 1276.36 1460.31 Q1271.81 1460.31 1269.16 1463.33 Q1266.52 1466.36 1266.52 1471.58 L1266.52 1491.72 L1260.63 1491.72 L1260.63 1470.4 Q1260.63 1465.24 1258.82 1462.79 Q1257 1460.31 1253.22 1460.31 Q1248.73 1460.31 1246.09 1463.36 Q1243.45 1466.39 1243.45 1471.58 L1243.45 1491.72 L1237.56 1491.72 L1237.56 1456.08 L1243.45 1456.08 L1243.45 1461.61 Q1245.45 1458.34 1248.25 1456.78 Q1251.05 1455.22 1254.9 1455.22 Q1258.79 1455.22 1261.49 1457.19 Q1264.23 1459.16 1265.53 1462.92 Z" fill="#000000" fill-rule="evenodd" fill-opacity="1" /><path clip-path="url(#clip470)" d="M 0 0 M1326.23 1472.44 L1326.23 1475.3 L1299.31 1475.3 Q1299.69 1481.35 1302.93 1484.53 Q1306.21 1487.68 1312.04 1487.68 Q1315.41 1487.68 1318.56 1486.85 Q1321.74 1486.03 1324.86 1484.37 L1324.86 1489.91 Q1321.71 1491.25 1318.4 1491.95 Q1315.09 1492.65 1311.69 1492.65 Q1303.16 1492.65 1298.16 1487.68 Q1293.19 1482.72 1293.19 1474.25 Q1293.19 1465.5 1297.9 1460.37 Q1302.65 1455.22 1310.67 1455.22 Q1317.86 1455.22 1322.03 1459.86 Q1326.23 1464.48 1326.23 1472.44 M1320.38 1470.72 Q1320.31 1465.91 1317.67 1463.05 Q1315.06 1460.18 1310.73 1460.18 Q1305.83 1460.18 1302.87 1462.95 Q1299.94 1465.72 1299.5 1470.75 L1320.38 1470.72 Z" fill="#000000" fill-rule="evenodd" fill-opacity="1" /><path clip-path="url(#clip470)" d="M 0 0 M41.4442 818.815 L41.4442 810.158 L81.198 789.087 L41.4442 789.087 L41.4442 782.849 L88.9642 782.849 L88.9642 791.506 L49.2103 812.577 L88.9642 812.577 L88.9642 818.815 L41.4442 818.815 Z" fill="#000000" fill-rule="evenodd" fill-opacity="1" /><path clip-path="url(#clip470)" d="M 0 0 M74.8959 777.311 L53.3162 777.311 L53.3162 771.454 L74.6731 771.454 Q79.7339 771.454 82.2802 769.481 Q84.7946 767.507 84.7946 763.561 Q84.7946 758.818 81.7709 756.081 Q78.7472 753.312 73.5273 753.312 L53.3162 753.312 L53.3162 747.455 L88.9642 747.455 L88.9642 753.312 L83.4896 753.312 Q86.7362 755.444 88.3276 758.277 Q89.8872 761.078 89.8872 764.802 Q89.8872 770.945 86.0678 774.128 Q82.2483 777.311 74.8959 777.311 M52.4568 762.574 L52.4568 762.574 Z" fill="#000000" fill-rule="evenodd" fill-opacity="1" /><path clip-path="url(#clip470)" d="M 0 0 M60.1593 713.558 Q56.2126 711.362 54.3347 708.306 Q52.4568 705.251 52.4568 701.113 Q52.4568 695.543 56.3717 692.519 Q60.2548 689.496 67.4481 689.496 L88.9642 689.496 L88.9642 695.384 L67.639 695.384 Q62.5146 695.384 60.032 697.198 Q57.5494 699.012 57.5494 702.736 Q57.5494 707.288 60.5731 709.93 Q63.5968 712.571 68.8167 712.571 L88.9642 712.571 L88.9642 718.46 L67.639 718.46 Q62.4828 718.46 60.032 720.274 Q57.5494 722.088 57.5494 725.876 Q57.5494 730.363 60.6049 733.005 Q63.6286 735.647 68.8167 735.647 L88.9642 735.647 L88.9642 741.535 L53.3162 741.535 L53.3162 735.647 L58.8544 735.647 Q55.576 733.642 54.0164 730.841 Q52.4568 728.04 52.4568 724.189 Q52.4568 720.306 54.4302 717.6 Q56.4036 714.863 60.1593 713.558 Z" fill="#000000" fill-rule="evenodd" fill-opacity="1" /><path clip-path="url(#clip470)" d="M 0 0 M71.172 657.763 Q64.7108 657.763 61.0505 660.436 Q57.3584 663.078 57.3584 667.725 Q57.3584 672.372 61.0505 675.045 Q64.7108 677.687 71.172 677.687 Q77.6332 677.687 81.3253 675.045 Q84.9856 672.372 84.9856 667.725 Q84.9856 663.078 81.3253 660.436 Q77.6332 657.763 71.172 657.763 M58.7271 677.687 Q55.5442 675.841 54.0164 673.04 Q52.4568 670.207 52.4568 666.293 Q52.4568 659.8 57.6131 655.757 Q62.7693 651.683 71.172 651.683 Q79.5747 651.683 84.731 655.757 Q89.8872 659.8 89.8872 666.293 Q89.8872 670.207 88.3594 673.04 Q86.7998 675.841 83.617 677.687 L88.9642 677.687 L88.9642 683.575 L39.439 683.575 L39.439 677.687 L58.7271 677.687 Z" fill="#000000" fill-rule="evenodd" fill-opacity="1" /><path clip-path="url(#clip470)" d="M 0 0 M69.6761 615.049 L72.5406 615.049 L72.5406 641.976 Q78.5881 641.594 81.7709 638.347 Q84.9219 635.069 84.9219 629.244 Q84.9219 625.87 84.0944 622.719 Q83.2669 619.536 81.6118 616.417 L87.1499 616.417 Q88.4867 619.568 89.187 622.878 Q89.8872 626.189 89.8872 629.594 Q89.8872 638.124 84.9219 643.121 Q79.9567 648.087 71.4903 648.087 Q62.7374 648.087 57.6131 643.376 Q52.4568 638.634 52.4568 630.613 Q52.4568 623.42 57.1038 619.25 Q61.7189 615.049 69.6761 615.049 M67.9573 620.905 Q63.1512 620.969 60.2866 623.611 Q57.4221 626.22 57.4221 630.549 Q57.4221 635.451 60.1912 638.411 Q62.9602 641.339 67.9892 641.785 L67.9573 620.905 Z" fill="#000000" fill-rule="evenodd" fill-opacity="1" /><path clip-path="url(#clip470)" d="M 0 0 M58.7907 588.249 Q58.2178 589.236 57.9632 590.413 Q57.6767 591.559 57.6767 592.96 Q57.6767 597.925 60.9232 600.598 Q64.1379 603.24 70.1853 603.24 L88.9642 603.24 L88.9642 609.129 L53.3162 609.129 L53.3162 603.24 L58.8544 603.24 Q55.6079 601.394 54.0483 598.434 Q52.4568 595.474 52.4568 591.241 Q52.4568 590.636 52.5523 589.904 Q52.616 589.172 52.7751 588.281 L58.7907 588.249 Z" fill="#000000" fill-rule="evenodd" fill-opacity="1" /><polyline clip-path="url(#clip472)" style="stroke:#009af9; stroke-width:4; stroke-opacity:1; fill:none" points="
  307.689,84.3925 312.42,84.3925 317.15,84.3925 321.881,84.3925 326.612,84.3925 331.343,85.6433 336.073,88.1448 340.804,90.6464 345.535,91.8972 350.266,91.8972 
  354.996,94.3988 359.727,96.9003 364.458,96.9003 369.189,96.9003 373.919,96.9003 378.65,96.9003 383.381,96.9003 388.112,96.9003 392.842,96.9003 397.573,98.1511 
  402.304,100.653 407.035,101.903 411.765,104.405 416.496,105.656 421.227,106.907 425.958,108.157 430.688,110.659 435.419,110.659 440.15,114.411 444.881,116.913 
  449.611,119.414 454.342,121.916 459.073,121.916 463.804,121.916 468.534,123.167 473.265,124.418 477.996,126.919 482.726,128.17 487.457,129.421 492.188,130.672 
  496.919,131.922 501.649,131.922 506.38,133.173 511.111,135.675 515.842,135.675 520.572,136.926 525.303,140.678 530.034,140.678 534.765,141.929 539.495,143.179 
  544.226,148.183 548.957,150.684 553.688,153.186 558.418,156.938 563.149,159.44 567.88,161.941 572.611,164.443 577.341,168.195 582.072,169.446 586.803,170.697 
  591.534,173.198 596.264,175.7 600.995,175.7 605.726,176.951 610.457,179.452 615.187,185.706 619.918,190.709 624.649,194.462 629.38,194.462 634.11,199.465 
  638.841,201.966 643.572,206.97 648.303,209.471 653.033,215.725 657.764,216.976 662.495,219.477 667.226,230.735 671.956,233.236 676.687,234.487 681.418,236.988 
  686.149,239.49 690.879,246.995 695.61,250.747 700.341,253.249 705.072,260.753 709.802,265.757 714.533,273.261 719.264,278.264 723.994,283.268 728.725,288.271 
  733.456,290.772 738.187,297.026 742.917,302.029 747.648,303.28 752.379,312.036 757.11,315.788 761.84,318.29 766.571,319.54 771.302,327.045 776.033,334.55 
  780.763,340.804 785.494,344.556 790.225,349.559 794.956,354.562 799.686,357.064 804.417,360.816 809.148,370.823 813.879,372.073 818.609,375.826 823.34,380.829 
  828.071,388.334 832.802,394.588 837.532,394.588 842.263,399.591 846.994,400.842 851.725,408.346 856.455,409.597 861.186,414.6 865.917,423.356 870.648,429.61 
  875.378,437.114 880.109,439.616 884.84,444.619 889.571,448.371 894.301,450.873 899.032,452.124 903.763,458.378 908.494,460.879 913.224,468.384 917.955,474.638 
  922.686,483.393 927.417,490.898 932.147,500.904 936.878,504.657 941.609,509.66 946.34,510.911 951.07,514.663 955.801,525.92 960.532,528.422 965.262,529.673 
  969.993,537.177 974.724,542.18 979.455,549.685 984.185,557.19 988.916,558.441 993.647,565.945 998.378,569.698 1003.11,577.202 1007.84,583.456 1012.57,592.212 
  1017.3,595.964 1022.03,603.469 1026.76,607.221 1031.49,613.475 1036.22,620.98 1040.95,627.234 1045.69,634.739 1050.42,639.742 1055.15,647.247 1059.88,653.5 
  1064.61,659.754 1069.34,668.51 1074.07,669.761 1078.8,678.516 1083.53,682.269 1088.26,688.523 1092.99,694.776 1097.72,697.278 1102.45,701.03 1107.18,707.284 
  1111.92,716.04 1116.65,718.541 1121.38,724.795 1126.11,732.3 1130.84,736.052 1135.57,736.052 1140.3,739.805 1145.03,743.557 1149.76,747.31 1154.49,756.065 
  1159.22,763.57 1163.95,767.322 1168.68,771.074 1173.42,777.328 1178.15,781.081 1182.88,787.335 1187.61,792.338 1192.34,794.839 1197.07,798.592 1201.8,801.093 
  1206.53,802.344 1211.26,806.096 1215.99,807.347 1220.72,813.601 1225.45,814.852 1230.18,818.604 1234.91,824.858 1239.65,829.861 1244.38,833.614 1249.11,838.617 
  1253.84,844.871 1258.57,846.122 1263.3,848.623 1268.03,851.125 1272.76,853.626 1277.49,856.128 1282.22,861.131 1286.95,866.134 1291.68,868.636 1296.41,873.639 
  1301.15,879.893 1305.88,881.144 1310.61,884.896 1315.34,889.899 1320.07,893.652 1324.8,897.404 1329.53,899.906 1334.26,903.658 1338.99,906.159 1343.72,908.661 
  1348.45,911.163 1353.18,911.163 1357.91,914.915 1362.65,917.417 1367.38,924.921 1372.11,927.423 1376.84,931.175 1381.57,932.426 1386.3,939.931 1391.03,941.181 
  1395.76,943.683 1400.49,948.686 1405.22,951.188 1409.95,951.188 1414.68,953.689 1419.41,958.692 1424.14,959.943 1428.88,964.946 1433.61,967.448 1438.34,968.699 
  1443.07,972.451 1447.8,973.702 1452.53,974.953 1457.26,979.956 1461.99,981.207 1466.72,981.207 1471.45,984.959 1476.18,987.461 1480.91,991.213 1485.64,994.965 
  1490.38,996.216 1495.11,996.216 1499.84,997.467 1504.57,999.968 1509.3,1003.72 1514.03,1004.97 1518.76,1006.22 1523.49,1008.72 1528.22,1011.23 1532.95,1014.98 
  1537.68,1016.23 1542.41,1017.48 1547.14,1019.98 1551.87,1022.48 1556.61,1022.48 1561.34,1022.48 1566.07,1022.48 1570.8,1022.48 1575.53,1026.23 1580.26,1028.74 
  1584.99,1031.24 1589.72,1034.99 1594.45,1036.24 1599.18,1036.24 1603.91,1036.24 1608.64,1037.49 1613.37,1038.74 1618.11,1039.99 1622.84,1039.99 1627.57,1041.24 
  1632.3,1041.24 1637.03,1045 1641.76,1046.25 1646.49,1046.25 1651.22,1046.25 1655.95,1050 1660.68,1050 1665.41,1050 1670.14,1050 1674.87,1050 
  1679.61,1051.25 1684.34,1052.5 1689.07,1053.75 1693.8,1053.75 1698.53,1055 1703.26,1055 1707.99,1055 1712.72,1055 1717.45,1055 1722.18,1056.25 
  1726.91,1056.25 1731.64,1057.5 1736.37,1057.5 1741.1,1057.5 1745.84,1060.01 1750.57,1060.01 1755.3,1062.51 1760.03,1062.51 1764.76,1062.51 1769.49,1063.76 
  1774.22,1063.76 1778.95,1065.01 1783.68,1065.01 1788.41,1065.01 1793.14,1065.01 1797.87,1065.01 1802.6,1065.01 1807.34,1066.26 1812.07,1067.51 1816.8,1068.76 
  1821.53,1068.76 1826.26,1071.26 1830.99,1071.26 1835.72,1071.26 1840.45,1071.26 1845.18,1071.26 1849.91,1072.51 1854.64,1072.51 1859.37,1073.76 1864.1,1076.27 
  1868.83,1076.27 1873.57,1080.02 1878.3,1080.02 1883.03,1080.02 1887.76,1081.27 1892.49,1081.27 1897.22,1081.27 1901.95,1081.27 1906.68,1082.52 1911.41,1083.77 
  1916.14,1083.77 1920.87,1083.77 1925.6,1083.77 1930.33,1083.77 1935.07,1083.77 1939.8,1085.02 1944.53,1085.02 1949.26,1085.02 1953.99,1086.27 1958.72,1087.52 
  1963.45,1088.77 1968.18,1088.77 1972.91,1088.77 1977.64,1088.77 1982.37,1088.77 1987.1,1088.77 1991.83,1088.77 1996.56,1088.77 2001.3,1090.03 2006.03,1090.03 
  2010.76,1090.03 2015.49,1090.03 2020.22,1090.03 2024.95,1090.03 2029.68,1091.28 2034.41,1092.53 2039.14,1092.53 2043.87,1092.53 2048.6,1092.53 2053.33,1092.53 
  2058.06,1092.53 2062.8,1092.53 2067.53,1092.53 2072.26,1092.53 2076.99,1092.53 2081.72,1092.53 2086.45,1092.53 2091.18,1095.03 2095.91,1095.03 2100.64,1095.03 
  2105.37,1095.03 2110.1,1096.28 2114.83,1097.53 2119.56,1098.78 2124.3,1098.78 2129.03,1098.78 2133.76,1098.78 2138.49,1098.78 2143.22,1098.78 2147.95,1098.78 
  2152.68,1098.78 2157.41,1098.78 2162.14,1098.78 2166.87,1098.78 2171.6,1098.78 2176.33,1098.78 2181.06,1098.78 2185.79,1098.78 2190.53,1098.78 2195.26,1098.78 
  2199.99,1100.03 
  "/>
<polyline clip-path="url(#clip472)" style="stroke:#e26f46; stroke-width:4; stroke-opacity:1; fill:none" points="
  307.689,1310.16 312.42,1310.16 317.15,1310.16 321.881,1310.16 326.612,1310.16 331.343,1308.91 336.073,1306.41 340.804,1305.16 345.535,1303.91 350.266,1306.41 
  354.996,1303.91 359.727,1301.41 364.458,1302.66 369.189,1306.41 373.919,1307.66 378.65,1307.66 383.381,1307.66 388.112,1307.66 392.842,1307.66 397.573,1307.66 
  402.304,1305.16 407.035,1305.16 411.765,1303.91 416.496,1302.66 421.227,1301.41 425.958,1301.41 430.688,1300.16 435.419,1301.41 440.15,1297.66 444.881,1295.15 
  449.611,1292.65 454.342,1291.4 459.073,1291.4 463.804,1292.65 468.534,1292.65 473.265,1291.4 477.996,1291.4 482.726,1291.4 487.457,1290.15 492.188,1290.15 
  496.919,1290.15 501.649,1290.15 506.38,1290.15 511.111,1290.15 515.842,1291.4 520.572,1291.4 525.303,1288.9 530.034,1288.9 534.765,1287.65 539.495,1287.65 
  544.226,1282.65 548.957,1280.14 553.688,1277.64 558.418,1275.14 563.149,1273.89 567.88,1272.64 572.611,1270.14 577.341,1267.64 582.072,1271.39 586.803,1272.64 
  591.534,1271.39 596.264,1268.89 600.995,1270.14 605.726,1272.64 610.457,1272.64 615.187,1267.64 619.918,1262.63 624.649,1262.63 629.38,1262.63 634.11,1260.13 
  638.841,1260.13 643.572,1256.38 648.303,1253.88 653.033,1247.62 657.764,1251.38 662.495,1250.13 667.226,1238.87 671.956,1237.62 676.687,1237.62 681.418,1238.87 
  686.149,1237.62 690.879,1231.36 695.61,1230.11 700.341,1233.87 705.072,1228.86 709.802,1226.36 714.533,1220.11 719.264,1217.61 723.994,1215.1 728.725,1212.6 
  733.456,1212.6 738.187,1206.35 742.917,1202.6 747.648,1203.85 752.379,1197.59 757.11,1195.09 761.84,1195.09 766.571,1196.34 771.302,1191.34 776.033,1186.34 
  780.763,1183.83 785.494,1182.58 790.225,1178.83 794.956,1177.58 799.686,1182.58 804.417,1182.58 809.148,1178.83 813.879,1178.83 818.609,1176.33 823.34,1175.08 
  828.071,1173.83 832.802,1172.58 837.532,1177.58 842.263,1175.08 846.994,1178.83 851.725,1172.58 856.455,1171.33 861.186,1170.08 865.917,1165.07 870.648,1165.07 
  875.378,1160.07 880.109,1161.32 884.84,1158.82 889.571,1161.32 894.301,1163.82 899.032,1167.57 903.763,1162.57 908.494,1162.57 913.224,1158.82 917.955,1155.07 
  922.686,1148.81 927.417,1143.81 932.147,1136.3 936.878,1136.3 941.609,1135.05 946.34,1137.56 951.07,1138.81 955.801,1128.8 960.532,1128.8 965.262,1132.55 
  969.993,1132.55 974.724,1130.05 979.455,1123.8 984.185,1117.54 988.916,1118.79 993.647,1118.79 998.378,1115.04 1003.11,1113.79 1007.84,1111.29 1012.57,1105.03 
  1017.3,1105.03 1022.03,1100.03 1026.76,1102.53 1031.49,1098.78 1036.22,1096.28 1040.95,1095.03 1045.69,1093.78 1050.42,1097.53 1055.15,1093.78 1059.88,1091.28 
  1064.61,1091.28 1069.34,1090.03 1074.07,1100.03 1078.8,1098.78 1083.53,1098.78 1088.26,1095.03 1092.99,1093.78 1097.72,1096.28 1102.45,1101.28 1107.18,1101.28 
  1111.92,1095.03 1116.65,1102.53 1121.38,1105.03 1126.11,1103.78 1130.84,1105.03 1135.57,1107.54 1140.3,1115.04 1145.03,1116.29 1149.76,1121.29 1154.49,1115.04 
  1159.22,1113.79 1163.95,1116.29 1168.68,1118.79 1173.42,1121.29 1178.15,1120.04 1182.88,1115.04 1187.61,1116.29 1192.34,1117.54 1197.07,1120.04 1201.8,1125.05 
  1206.53,1130.05 1211.26,1133.8 1215.99,1137.56 1220.72,1133.8 1225.45,1136.3 1230.18,1136.3 1234.91,1133.8 1239.65,1131.3 1244.38,1131.3 1249.11,1128.8 
  1253.84,1130.05 1258.57,1133.8 1263.3,1140.06 1268.03,1141.31 1272.76,1145.06 1277.49,1146.31 1282.22,1145.06 1286.95,1143.81 1291.68,1142.56 1296.41,1138.81 
  1301.15,1136.3 1305.88,1138.81 1310.61,1140.06 1315.34,1135.05 1320.07,1135.05 1324.8,1136.3 1329.53,1135.05 1334.26,1135.05 1338.99,1133.8 1343.72,1133.8 
  1348.45,1135.05 1353.18,1142.56 1357.91,1142.56 1362.65,1143.81 1367.38,1138.81 1372.11,1137.56 1376.84,1141.31 1381.57,1143.81 1386.3,1137.56 1391.03,1142.56 
  1395.76,1143.81 1400.49,1143.81 1405.22,1143.81 1409.95,1146.31 1414.68,1151.31 1419.41,1147.56 1424.14,1146.31 1428.88,1145.06 1433.61,1150.06 1438.34,1155.07 
  1443.07,1161.32 1447.8,1168.82 1452.53,1172.58 1457.26,1170.08 1461.99,1173.83 1466.72,1177.58 1471.45,1175.08 1476.18,1175.08 1480.91,1175.08 1485.64,1175.08 
  1490.38,1177.58 1495.11,1182.58 1499.84,1182.58 1504.57,1181.33 1509.3,1180.08 1514.03,1182.58 1518.76,1182.58 1523.49,1182.58 1528.22,1181.33 1532.95,1180.08 
  1537.68,1186.34 1542.41,1187.59 1547.14,1185.08 1551.87,1183.83 1556.61,1187.59 1561.34,1195.09 1566.07,1196.34 1570.8,1198.84 1575.53,1200.09 1580.26,1198.84 
  1584.99,1198.84 1589.72,1198.84 1594.45,1202.6 1599.18,1203.85 1603.91,1210.1 1608.64,1210.1 1613.37,1210.1 1618.11,1212.6 1622.84,1215.1 1627.57,1217.61 
  1632.3,1221.36 1637.03,1220.11 1641.76,1226.36 1646.49,1230.11 1651.22,1232.61 1655.95,1228.86 1660.68,1228.86 1665.41,1231.36 1670.14,1235.12 1674.87,1236.37 
  1679.61,1237.62 1684.34,1237.62 1689.07,1237.62 1693.8,1238.87 1698.53,1237.62 1703.26,1240.12 1707.99,1242.62 1712.72,1243.87 1717.45,1243.87 1722.18,1243.87 
  1726.91,1245.12 1731.64,1243.87 1736.37,1246.37 1741.1,1250.13 1745.84,1251.38 1750.57,1251.38 1755.3,1250.13 1760.03,1252.63 1764.76,1255.13 1769.49,1255.13 
  1774.22,1255.13 1778.95,1258.88 1783.68,1260.13 1788.41,1262.63 1793.14,1262.63 1797.87,1262.63 1802.6,1263.88 1807.34,1266.39 1812.07,1265.14 1816.8,1263.88 
  1821.53,1263.88 1826.26,1263.88 1830.99,1268.89 1835.72,1268.89 1840.45,1271.39 1845.18,1272.64 1849.91,1271.39 1854.64,1276.39 1859.37,1275.14 1864.1,1272.64 
  1868.83,1272.64 1873.57,1268.89 1878.3,1268.89 1883.03,1270.14 1887.76,1270.14 1892.49,1270.14 1897.22,1270.14 1901.95,1270.14 1906.68,1271.39 1911.41,1271.39 
  1916.14,1272.64 1920.87,1273.89 1925.6,1275.14 1930.33,1277.64 1935.07,1278.89 1939.8,1278.89 1944.53,1281.4 1949.26,1286.4 1953.99,1285.15 1958.72,1286.4 
  1963.45,1286.4 1968.18,1287.65 1972.91,1287.65 1977.64,1287.65 1982.37,1287.65 1987.1,1287.65 1991.83,1290.15 1996.56,1291.4 2001.3,1290.15 2006.03,1290.15 
  2010.76,1292.65 2015.49,1292.65 2020.22,1292.65 2024.95,1292.65 2029.68,1292.65 2034.41,1293.9 2039.14,1295.15 2043.87,1297.66 2048.6,1298.91 2053.33,1300.16 
  2058.06,1300.16 2062.8,1300.16 2067.53,1300.16 2072.26,1300.16 2076.99,1300.16 2081.72,1301.41 2086.45,1301.41 2091.18,1298.91 2095.91,1298.91 2100.64,1301.41 
  2105.37,1301.41 2110.1,1302.66 2114.83,1301.41 2119.56,1300.16 2124.3,1301.41 2129.03,1301.41 2133.76,1302.66 2138.49,1303.91 2143.22,1303.91 2147.95,1303.91 
  2152.68,1303.91 2157.41,1303.91 2162.14,1303.91 2166.87,1303.91 2171.6,1303.91 2176.33,1305.16 2181.06,1308.91 2185.79,1308.91 2190.53,1311.41 2195.26,1311.41 
  2199.99,1310.16 
  "/>
<polyline clip-path="url(#clip472)" style="stroke:#3da44d; stroke-width:4; stroke-opacity:1; fill:none" points="
  307.689,1322.67 312.42,1322.67 317.15,1322.67 321.881,1322.67 326.612,1322.67 331.343,1322.67 336.073,1322.67 340.804,1321.42 345.535,1321.42 350.266,1318.92 
  354.996,1318.92 359.727,1318.92 364.458,1317.67 369.189,1313.92 373.919,1312.67 378.65,1312.67 383.381,1312.67 388.112,1312.67 392.842,1312.67 397.573,1311.41 
  402.304,1311.41 407.035,1310.16 411.765,1308.91 416.496,1308.91 421.227,1308.91 425.958,1307.66 430.688,1306.41 435.419,1305.16 440.15,1305.16 444.881,1305.16 
  449.611,1305.16 454.342,1303.91 459.073,1303.91 463.804,1302.66 468.534,1301.41 473.265,1301.41 477.996,1298.91 482.726,1297.66 487.457,1297.66 492.188,1296.4 
  496.919,1295.15 501.649,1295.15 506.38,1293.9 511.111,1291.4 515.842,1290.15 520.572,1288.9 525.303,1287.65 530.034,1287.65 534.765,1287.65 539.495,1286.4 
  544.226,1286.4 548.957,1286.4 553.688,1286.4 558.418,1285.15 563.149,1283.9 567.88,1282.65 572.611,1282.65 577.341,1281.4 582.072,1276.39 586.803,1273.89 
  591.534,1272.64 596.264,1272.64 600.995,1271.39 605.726,1267.64 610.457,1265.14 615.187,1263.88 619.918,1263.88 624.649,1260.13 629.38,1260.13 634.11,1257.63 
  638.841,1255.13 643.572,1253.88 648.303,1253.88 653.033,1253.88 657.764,1248.88 662.495,1247.62 667.226,1247.62 671.956,1246.37 676.687,1245.12 681.418,1241.37 
  686.149,1240.12 690.879,1238.87 695.61,1236.37 700.341,1230.11 705.072,1227.61 709.802,1225.11 714.533,1223.86 719.264,1221.36 723.994,1218.86 728.725,1216.35 
  733.456,1213.85 738.187,1213.85 742.917,1212.6 747.648,1210.1 752.379,1207.6 757.11,1206.35 761.84,1203.85 766.571,1201.35 771.302,1198.84 776.033,1196.34 
  780.763,1192.59 785.494,1190.09 790.225,1188.84 794.956,1185.08 799.686,1177.58 804.417,1173.83 809.148,1167.57 813.879,1166.32 818.609,1165.07 823.34,1161.32 
  828.071,1155.07 832.802,1150.06 837.532,1145.06 842.263,1142.56 846.994,1137.56 851.725,1136.3 856.455,1136.3 861.186,1132.55 865.917,1128.8 870.648,1122.55 
  875.378,1120.04 880.109,1116.29 884.84,1113.79 889.571,1107.54 894.301,1102.53 899.032,1097.53 903.763,1096.28 908.494,1093.78 913.224,1090.03 917.955,1087.52 
  922.686,1085.02 927.417,1082.52 932.147,1080.02 936.878,1076.27 941.609,1072.51 946.34,1068.76 951.07,1063.76 955.801,1062.51 960.532,1060.01 965.262,1055 
  969.993,1047.5 974.724,1045 979.455,1043.75 984.185,1042.5 988.916,1039.99 993.647,1032.49 998.378,1032.49 1003.11,1026.23 1007.84,1022.48 1012.57,1019.98 
  1017.3,1016.23 1022.03,1013.73 1026.76,1007.47 1031.49,1004.97 1036.22,999.968 1040.95,994.965 1045.69,988.711 1050.42,979.956 1055.15,976.204 1059.88,972.451 
  1064.61,966.197 1069.34,958.692 1074.07,947.435 1078.8,939.931 1083.53,936.178 1088.26,933.677 1092.99,928.674 1097.72,923.67 1102.45,914.915 1107.18,908.661 
  1111.92,906.159 1116.65,896.153 1121.38,887.398 1126.11,881.144 1130.84,876.141 1135.57,873.639 1140.3,862.382 1145.03,857.379 1149.76,848.623 1154.49,846.122 
  1159.22,839.868 1163.95,833.614 1168.68,827.36 1173.42,818.604 1178.15,816.103 1182.88,814.852 1187.61,808.598 1192.34,804.846 1197.07,798.592 1201.8,791.087 
  1206.53,784.833 1211.26,777.328 1215.99,772.325 1220.72,769.824 1225.45,766.071 1230.18,762.319 1234.91,758.567 1239.65,756.065 1244.38,752.313 1249.11,749.811 
  1253.84,742.306 1258.57,737.303 1263.3,728.548 1268.03,724.795 1272.76,718.541 1277.49,714.789 1282.22,711.037 1286.95,707.284 1291.68,706.034 1296.41,704.783 
  1301.15,701.03 1305.88,697.278 1310.61,692.275 1315.34,692.275 1320.07,688.523 1324.8,683.519 1329.53,682.269 1334.26,678.516 1338.99,677.265 1343.72,674.764 
  1348.45,671.012 1353.18,663.507 1357.91,659.754 1362.65,656.002 1367.38,653.5 1372.11,652.25 1376.84,644.745 1381.57,640.993 1386.3,639.742 1391.03,633.488 
  1395.76,629.736 1400.49,624.732 1405.22,622.231 1409.95,619.729 1414.68,612.225 1419.41,610.974 1424.14,610.974 1428.88,607.221 1433.61,599.717 1438.34,593.463 
  1443.07,583.456 1447.8,574.701 1452.53,569.698 1457.26,567.196 1461.99,562.193 1466.72,558.441 1471.45,557.19 1476.18,554.688 1480.91,550.936 1485.64,547.184 
  1490.38,543.431 1495.11,538.428 1499.84,537.177 1504.57,535.927 1509.3,533.425 1514.03,529.673 1518.76,528.422 1523.49,525.92 1528.22,524.669 1532.95,522.168 
  1537.68,514.663 1542.41,512.162 1547.14,512.162 1551.87,510.911 1556.61,507.158 1561.34,499.654 1566.07,498.403 1570.8,495.901 1575.53,490.898 1580.26,489.647 
  1584.99,487.146 1589.72,483.393 1594.45,478.39 1599.18,477.14 1603.91,470.886 1608.64,469.635 1613.37,468.384 1618.11,464.632 1622.84,462.13 1627.57,458.378 
  1632.3,454.625 1637.03,452.124 1641.76,444.619 1646.49,440.867 1651.22,438.365 1655.95,438.365 1660.68,438.365 1665.41,435.864 1670.14,432.111 1674.87,430.86 
  1679.61,428.359 1684.34,427.108 1689.07,425.857 1693.8,424.606 1698.53,424.606 1703.26,422.105 1707.99,419.603 1712.72,418.353 1717.45,418.353 1722.18,417.102 
  1726.91,415.851 1731.64,415.851 1736.37,413.349 1741.1,409.597 1745.84,405.845 1750.57,405.845 1755.3,404.594 1760.03,402.092 1764.76,399.591 1769.49,398.34 
  1774.22,398.34 1778.95,393.337 1783.68,392.086 1788.41,389.584 1793.14,389.584 1797.87,389.584 1802.6,388.334 1807.34,384.581 1812.07,384.581 1816.8,384.581 
  1821.53,384.581 1826.26,382.08 1830.99,377.077 1835.72,377.077 1840.45,374.575 1845.18,373.324 1849.91,373.324 1854.64,368.321 1859.37,368.321 1864.1,368.321 
  1868.83,368.321 1873.57,368.321 1878.3,368.321 1883.03,367.07 1887.76,365.82 1892.49,365.82 1897.22,365.82 1901.95,365.82 1906.68,363.318 1911.41,362.067 
  1916.14,360.816 1920.87,359.566 1925.6,358.315 1930.33,355.813 1935.07,354.562 1939.8,353.312 1944.53,350.81 1949.26,345.807 1953.99,345.807 1958.72,343.305 
  1963.45,342.055 1968.18,340.804 1972.91,340.804 1977.64,340.804 1982.37,340.804 1987.1,340.804 1991.83,338.302 1996.56,337.051 2001.3,337.051 2006.03,337.051 
  2010.76,334.55 2015.49,334.55 2020.22,334.55 2024.95,334.55 2029.68,333.299 2034.41,330.797 2039.14,329.547 2043.87,327.045 2048.6,325.794 2053.33,324.544 
  2058.06,324.544 2062.8,324.544 2067.53,324.544 2072.26,324.544 2076.99,324.544 2081.72,323.293 2086.45,323.293 2091.18,323.293 2095.91,323.293 2100.64,320.791 
  2105.37,320.791 2110.1,318.29 2114.83,318.29 2119.56,318.29 2124.3,317.039 2129.03,317.039 2133.76,315.788 2138.49,314.537 2143.22,314.537 2147.95,314.537 
  2152.68,314.537 2157.41,314.537 2162.14,314.537 2166.87,314.537 2171.6,314.537 2176.33,313.286 2181.06,309.534 2185.79,309.534 2190.53,307.033 2195.26,307.033 
  2199.99,307.033 
  "/>
<path clip-path="url(#clip470)" d="
M1999.43 272.437 L2256.76 272.437 L2256.76 30.5166 L1999.43 30.5166  Z
  " fill="#ffffff" fill-rule="evenodd" fill-opacity="1"/>
<polyline clip-path="url(#clip470)" style="stroke:#000000; stroke-width:4; stroke-opacity:1; fill:none" points="
  1999.43,272.437 2256.76,272.437 2256.76,30.5166 1999.43,30.5166 1999.43,272.437 
  "/>
<polyline clip-path="url(#clip470)" style="stroke:#009af9; stroke-width:4; stroke-opacity:1; fill:none" points="
  2022.47,90.9966 2160.71,90.9966 
  "/>
<path clip-path="url(#clip470)" d="M 0 0 M2206 74.8509 L2206 79.411 Q2203.34 78.1379 2200.98 77.5129 Q2198.62 76.8879 2196.42 76.8879 Q2192.6 76.8879 2190.51 78.3694 Q2188.45 79.8508 2188.45 82.5823 Q2188.45 84.874 2189.82 86.0545 Q2191.21 87.2119 2195.05 87.9295 L2197.88 88.5082 Q2203.11 89.5036 2205.58 92.0267 Q2208.08 94.5267 2208.08 98.7396 Q2208.08 103.763 2204.7 106.355 Q2201.35 108.948 2194.84 108.948 Q2192.39 108.948 2189.61 108.392 Q2186.86 107.837 2183.89 106.749 L2183.89 101.934 Q2186.74 103.531 2189.47 104.341 Q2192.2 105.152 2194.84 105.152 Q2198.85 105.152 2201.02 103.578 Q2203.2 102.004 2203.2 99.0869 Q2203.2 96.5406 2201.63 95.1054 Q2200.07 93.6702 2196.51 92.9526 L2193.66 92.3971 Q2188.43 91.3554 2186.09 89.1332 Q2183.75 86.911 2183.75 82.9527 Q2183.75 78.3694 2186.97 75.7305 Q2190.21 73.0916 2195.88 73.0916 Q2198.31 73.0916 2200.84 73.5314 Q2203.36 73.9712 2206 74.8509 Z" fill="#000000" fill-rule="evenodd" fill-opacity="1" /><polyline clip-path="url(#clip470)" style="stroke:#e26f46; stroke-width:4; stroke-opacity:1; fill:none" points="
  2022.47,151.477 2160.71,151.477 
  "/>
<path clip-path="url(#clip470)" d="M 0 0 M2183.75 134.197 L2188.43 134.197 L2188.43 168.757 L2183.75 168.757 L2183.75 134.197 Z" fill="#000000" fill-rule="evenodd" fill-opacity="1" /><polyline clip-path="url(#clip470)" style="stroke:#3da44d; stroke-width:4; stroke-opacity:1; fill:none" points="
  2022.47,211.957 2160.71,211.957 
  "/>
<path clip-path="url(#clip470)" d="M 0 0 M2200.14 213.033 Q2201.65 213.542 2203.06 215.209 Q2204.5 216.876 2205.93 219.792 L2210.68 229.237 L2205.65 229.237 L2201.23 220.371 Q2199.52 216.899 2197.9 215.764 Q2196.3 214.63 2193.52 214.63 L2188.43 214.63 L2188.43 229.237 L2183.75 229.237 L2183.75 194.677 L2194.31 194.677 Q2200.24 194.677 2203.15 197.153 Q2206.07 199.63 2206.07 204.63 Q2206.07 207.894 2204.54 210.047 Q2203.04 212.2 2200.14 213.033 M2188.43 198.519 L2188.43 210.788 L2194.31 210.788 Q2197.69 210.788 2199.4 209.237 Q2201.14 207.663 2201.14 204.63 Q2201.14 201.598 2199.4 200.07 Q2197.69 198.519 2194.31 198.519 L2188.43 198.519 Z" fill="#000000" fill-rule="evenodd" fill-opacity="1" /></svg>
